M48
; DRILL file {KiCad 9.0.4} date 2026-01-27T14:42:33+0000
; FORMAT={-:-/ absolute / metric / decimal}
; #@! TF.CreationDate,2026-01-27T14:42:33+00:00
; #@! TF.GenerationSoftware,Kicad,Pcbnew,9.0.4
; #@! TF.FileFunction,Plated,1,2,PTH
FMAT,2
METRIC
; #@! TA.AperFunction,Plated,PTH,ComponentDrill
T1C1.020
; #@! TA.AperFunction,Plated,PTH,ComponentDrill
T2C1.400
; #@! TA.AperFunction,Plated,PTH,ComponentDrill
T3C3.200
%
G90
G05
T1
X109.694Y-38.67
X109.694Y-35.67
X112.694Y-35.67
X112.694Y-38.67
T2
X100.569Y-54.403
X100.569Y-60.097
X103.416Y-49.472
X103.416Y-65.028
X108.347Y-46.625
X108.347Y-67.875
X108.366Y-60.078
X114.041Y-46.625
X114.041Y-67.875
X118.972Y-49.472
X118.972Y-65.028
X121.819Y-54.403
X121.819Y-60.097
T3
X97.517Y-37.258
X97.517Y-70.633
X124.892Y-70.633
X124.917Y-37.258
M30
