%TF.GenerationSoftware,KiCad,Pcbnew,9.0.4*%
%TF.CreationDate,2026-01-27T14:59:28+00:00*%
%TF.ProjectId,rotary-switch,726f7461-7279-42d7-9377-697463682e6b,rev?*%
%TF.SameCoordinates,Original*%
%TF.FileFunction,Copper,L1,Top*%
%TF.FilePolarity,Positive*%
%FSLAX46Y46*%
G04 Gerber Fmt 4.6, Leading zero omitted, Abs format (unit mm)*
G04 Created by KiCad (PCBNEW 9.0.4) date 2026-01-27 14:59:28*
%MOMM*%
%LPD*%
G01*
G04 APERTURE LIST*
G04 Aperture macros list*
%AMRoundRect*
0 Rectangle with rounded corners*
0 $1 Rounding radius*
0 $2 $3 $4 $5 $6 $7 $8 $9 X,Y pos of 4 corners*
0 Add a 4 corners polygon primitive as box body*
4,1,4,$2,$3,$4,$5,$6,$7,$8,$9,$2,$3,0*
0 Add four circle primitives for the rounded corners*
1,1,$1+$1,$2,$3*
1,1,$1+$1,$4,$5*
1,1,$1+$1,$6,$7*
1,1,$1+$1,$8,$9*
0 Add four rect primitives between the rounded corners*
20,1,$1+$1,$2,$3,$4,$5,0*
20,1,$1+$1,$4,$5,$6,$7,0*
20,1,$1+$1,$6,$7,$8,$9,0*
20,1,$1+$1,$8,$9,$2,$3,0*%
G04 Aperture macros list end*
%TA.AperFunction,ComponentPad*%
%ADD10C,5.600000*%
%TD*%
%TA.AperFunction,SMDPad,CuDef*%
%ADD11RoundRect,0.250000X0.450000X-0.262500X0.450000X0.262500X-0.450000X0.262500X-0.450000X-0.262500X0*%
%TD*%
%TA.AperFunction,SMDPad,CuDef*%
%ADD12RoundRect,0.250000X0.002332X0.520961X-0.452332X0.258461X-0.002332X-0.520961X0.452332X-0.258461X0*%
%TD*%
%TA.AperFunction,ComponentPad*%
%ADD13C,2.100000*%
%TD*%
%TA.AperFunction,SMDPad,CuDef*%
%ADD14RoundRect,0.250000X-0.520961X0.002332X-0.258461X-0.452332X0.520961X-0.002332X0.258461X0.452332X0*%
%TD*%
%TA.AperFunction,SMDPad,CuDef*%
%ADD15RoundRect,0.250000X0.520961X-0.002332X0.258461X0.452332X-0.520961X0.002332X-0.258461X-0.452332X0*%
%TD*%
%TA.AperFunction,SMDPad,CuDef*%
%ADD16RoundRect,0.250000X-0.258461X0.452332X-0.520961X-0.002332X0.258461X-0.452332X0.520961X0.002332X0*%
%TD*%
%TA.AperFunction,SMDPad,CuDef*%
%ADD17RoundRect,0.250000X0.258461X-0.452332X0.520961X0.002332X-0.258461X0.452332X-0.520961X-0.002332X0*%
%TD*%
%TA.AperFunction,SMDPad,CuDef*%
%ADD18RoundRect,0.250000X-0.262500X-0.450000X0.262500X-0.450000X0.262500X0.450000X-0.262500X0.450000X0*%
%TD*%
%TA.AperFunction,SMDPad,CuDef*%
%ADD19RoundRect,0.250000X0.452332X0.258461X-0.002332X0.520961X-0.452332X-0.258461X0.002332X-0.520961X0*%
%TD*%
%TA.AperFunction,SMDPad,CuDef*%
%ADD20RoundRect,0.250000X-0.452332X-0.258461X0.002332X-0.520961X0.452332X0.258461X-0.002332X0.520961X0*%
%TD*%
%TA.AperFunction,SMDPad,CuDef*%
%ADD21RoundRect,0.250000X-0.450000X0.262500X-0.450000X-0.262500X0.450000X-0.262500X0.450000X0.262500X0*%
%TD*%
%TA.AperFunction,SMDPad,CuDef*%
%ADD22RoundRect,0.250000X-0.002332X-0.520961X0.452332X-0.258461X0.002332X0.520961X-0.452332X0.258461X0*%
%TD*%
%TA.AperFunction,ComponentPad*%
%ADD23RoundRect,0.250001X-0.499999X-0.499999X0.499999X-0.499999X0.499999X0.499999X-0.499999X0.499999X0*%
%TD*%
%TA.AperFunction,ComponentPad*%
%ADD24C,1.500000*%
%TD*%
%TA.AperFunction,Conductor*%
%ADD25C,0.400000*%
%TD*%
G04 APERTURE END LIST*
D10*
%TO.P,H2,1,1*%
%TO.N,GND*%
X124917220Y-37257780D03*
%TD*%
D11*
%TO.P,R3,1*%
%TO.N,Net-(R2-Pad2)*%
X95787999Y-58162494D03*
%TO.P,R3,2*%
%TO.N,Net-(R3-Pad2)*%
X95787997Y-56337494D03*
%TD*%
D12*
%TO.P,R11,1*%
%TO.N,Net-(R10-Pad2)*%
X119687246Y-70135737D03*
%TO.P,R11,2*%
%TO.N,GND*%
X118106750Y-71048239D03*
%TD*%
D13*
%TO.P,SW1,1,1*%
%TO.N,+3V3*%
X108347000Y-67875000D03*
%TO.P,SW1,2,2*%
%TO.N,Net-(R1-Pad2)*%
X103416000Y-65028000D03*
%TO.P,SW1,3,3*%
%TO.N,Net-(R2-Pad2)*%
X100569000Y-60097000D03*
%TO.P,SW1,4,4*%
%TO.N,Net-(R3-Pad2)*%
X100569000Y-54403000D03*
%TO.P,SW1,5,5*%
%TO.N,Net-(R4-Pad2)*%
X103416000Y-49472000D03*
%TO.P,SW1,6,6*%
%TO.N,Net-(R5-Pad2)*%
X108347000Y-46625000D03*
%TO.P,SW1,7,7*%
%TO.N,Net-(R6-Pad2)*%
X114041000Y-46625000D03*
%TO.P,SW1,8,8*%
%TO.N,Net-(R7-Pad2)*%
X118972000Y-49472000D03*
%TO.P,SW1,9,9*%
%TO.N,Net-(R8-Pad2)*%
X121819000Y-54403000D03*
%TO.P,SW1,10,10*%
%TO.N,Net-(R10-Pad1)*%
X121819000Y-60097000D03*
%TO.P,SW1,11,11*%
%TO.N,Net-(R10-Pad2)*%
X118972000Y-65028000D03*
%TO.P,SW1,12,12*%
%TO.N,GND*%
X114041000Y-67875000D03*
%TO.P,SW1,13,13*%
%TO.N,/Output*%
X108366000Y-60078000D03*
%TD*%
D14*
%TO.P,R8,1*%
%TO.N,Net-(R7-Pad2)*%
X124079735Y-48756754D03*
%TO.P,R8,2*%
%TO.N,Net-(R8-Pad2)*%
X124992241Y-50337248D03*
%TD*%
D10*
%TO.P,H4,1,1*%
%TO.N,GND*%
X124892220Y-70632780D03*
%TD*%
%TO.P,H1,1,1*%
%TO.N,GND*%
X97517220Y-37257780D03*
%TD*%
D15*
%TO.P,R2,1*%
%TO.N,Net-(R1-Pad2)*%
X98308260Y-65743249D03*
%TO.P,R2,2*%
%TO.N,Net-(R2-Pad2)*%
X97395760Y-64162755D03*
%TD*%
D10*
%TO.P,H3,1,1*%
%TO.N,GND*%
X97517220Y-70632780D03*
%TD*%
D16*
%TO.P,R10,1*%
%TO.N,Net-(R10-Pad1)*%
X124992235Y-64162756D03*
%TO.P,R10,2*%
%TO.N,Net-(R10-Pad2)*%
X124079737Y-65743248D03*
%TD*%
D17*
%TO.P,R4,1*%
%TO.N,Net-(R3-Pad2)*%
X97395765Y-50337239D03*
%TO.P,R4,2*%
%TO.N,Net-(R4-Pad2)*%
X98308263Y-48756747D03*
%TD*%
D18*
%TO.P,R6,1*%
%TO.N,Net-(R5-Pad2)*%
X110281505Y-41843999D03*
%TO.P,R6,2*%
%TO.N,Net-(R6-Pad2)*%
X112106507Y-41843999D03*
%TD*%
D19*
%TO.P,R1,1*%
%TO.N,+3V3*%
X104281248Y-71048236D03*
%TO.P,R1,2*%
%TO.N,Net-(R1-Pad2)*%
X102700752Y-70135738D03*
%TD*%
D20*
%TO.P,R7,1*%
%TO.N,Net-(R6-Pad2)*%
X118106749Y-43451765D03*
%TO.P,R7,2*%
%TO.N,Net-(R7-Pad2)*%
X119687251Y-44364261D03*
%TD*%
D21*
%TO.P,R9,1*%
%TO.N,Net-(R8-Pad2)*%
X126599998Y-56337506D03*
%TO.P,R9,2*%
%TO.N,Net-(R10-Pad1)*%
X126600002Y-58162494D03*
%TD*%
D22*
%TO.P,R5,1*%
%TO.N,Net-(R4-Pad2)*%
X102700758Y-44364258D03*
%TO.P,R5,2*%
%TO.N,Net-(R5-Pad2)*%
X104281252Y-43451758D03*
%TD*%
D23*
%TO.P,J1,1,Pin_1*%
%TO.N,+GLV*%
X109693997Y-38670000D03*
D24*
%TO.P,J1,2,Pin_2*%
%TO.N,/Output*%
X112694003Y-38670010D03*
%TO.P,J1,3,Pin_3*%
%TO.N,unconnected-(J1-Pin_3-Pad3)*%
X109694007Y-35669994D03*
%TO.P,J1,4,Pin_4*%
%TO.N,GND*%
X112694001Y-35670002D03*
%TD*%
D25*
%TO.N,+GLV*%
X109693997Y-38670000D02*
X109510014Y-38670000D01*
%TO.N,GND*%
X114067124Y-67863382D02*
X118132876Y-71036618D01*
%TO.N,/Output*%
X112701524Y-38662489D02*
X112694003Y-38670010D01*
%TO.N,Net-(R1-Pad2)*%
X98308261Y-65743249D02*
X103416000Y-65028000D01*
X103416000Y-65028000D02*
X102700752Y-70135738D01*
%TO.N,Net-(R2-Pad2)*%
X95787999Y-58162494D02*
X100569000Y-60097000D01*
X97395759Y-64162755D02*
X100569000Y-60097000D01*
%TO.N,Net-(R3-Pad2)*%
X95787997Y-56337494D02*
X100569000Y-54403000D01*
X97395765Y-50337240D02*
X100569000Y-54403000D01*
%TO.N,Net-(R4-Pad2)*%
X102700758Y-44364258D02*
X103416000Y-49472000D01*
X98308263Y-48756746D02*
X103416000Y-49472000D01*
%TO.N,Net-(R5-Pad2)*%
X104281252Y-43451758D02*
X108347000Y-46625000D01*
X108347000Y-46625000D02*
X110281505Y-41843999D01*
%TO.N,Net-(R6-Pad2)*%
X112106507Y-41843999D02*
X114041000Y-46625000D01*
X118106750Y-43451765D02*
X114041000Y-46625000D01*
%TO.N,Net-(R7-Pad2)*%
X119687250Y-44364261D02*
X118972000Y-49472000D01*
X124079735Y-48756754D02*
X118972000Y-49472000D01*
%TO.N,Net-(R8-Pad2)*%
X126599998Y-56337506D02*
X121819000Y-54403000D01*
X124992241Y-50337248D02*
X121819000Y-54403000D01*
%TO.N,Net-(R10-Pad1)*%
X124992235Y-64162755D02*
X121819000Y-60097000D01*
X126600002Y-58162494D02*
X121819000Y-60097000D01*
%TO.N,Net-(R10-Pad2)*%
X119687246Y-70135737D02*
X118972000Y-65028000D01*
X124079737Y-65743249D02*
X118972000Y-65028000D01*
%TO.N,+3V3*%
X103999998Y-71329486D02*
X104281248Y-71048236D01*
X104357022Y-71124010D02*
X104281248Y-71048236D01*
X108347000Y-67875000D02*
X104281248Y-71048236D01*
%TD*%
%TA.AperFunction,Conductor*%
%TO.N,GND*%
G36*
X124920250Y-33458428D02*
G01*
X125283552Y-33476278D01*
X125295660Y-33477471D01*
X125652436Y-33530395D01*
X125664372Y-33532769D01*
X126014264Y-33620413D01*
X126025877Y-33623937D01*
X126365495Y-33745455D01*
X126376723Y-33750107D01*
X126702784Y-33904324D01*
X126713513Y-33910058D01*
X126957095Y-34056056D01*
X127022874Y-34095482D01*
X127032992Y-34102242D01*
X127322703Y-34317107D01*
X127332109Y-34324827D01*
X127599359Y-34567049D01*
X127607950Y-34575640D01*
X127698937Y-34676028D01*
X127850172Y-34842890D01*
X127857892Y-34852296D01*
X128072757Y-35142007D01*
X128079517Y-35152125D01*
X128264939Y-35461483D01*
X128270675Y-35472215D01*
X128424892Y-35798276D01*
X128429547Y-35809514D01*
X128506133Y-36023555D01*
X128551057Y-36149106D01*
X128554590Y-36160751D01*
X128642230Y-36510628D01*
X128644604Y-36522563D01*
X128697528Y-36879339D01*
X128698721Y-36891449D01*
X128716569Y-37254716D01*
X128716718Y-37260859D01*
X128701193Y-70568129D01*
X128701189Y-70576218D01*
X128701161Y-70576326D01*
X128701161Y-70639114D01*
X128701161Y-70639210D01*
X128701159Y-70639215D01*
X128701012Y-70645239D01*
X128683162Y-71008548D01*
X128681969Y-71020658D01*
X128629044Y-71377432D01*
X128626670Y-71389367D01*
X128539030Y-71739241D01*
X128535497Y-71750886D01*
X128413988Y-72090475D01*
X128409331Y-72101718D01*
X128255118Y-72427768D01*
X128249382Y-72438499D01*
X128063953Y-72747864D01*
X128057192Y-72757982D01*
X127842337Y-73047677D01*
X127834617Y-73057084D01*
X127592397Y-73324329D01*
X127583800Y-73332926D01*
X127325141Y-73567359D01*
X127316544Y-73575151D01*
X127307137Y-73582870D01*
X127017440Y-73797720D01*
X127007322Y-73804481D01*
X126697950Y-73989908D01*
X126687218Y-73995644D01*
X126361170Y-74149850D01*
X126349927Y-74154507D01*
X126010327Y-74276015D01*
X125998683Y-74279547D01*
X125648817Y-74367181D01*
X125636881Y-74369555D01*
X125280108Y-74422474D01*
X125267998Y-74423667D01*
X124903483Y-74441571D01*
X124897402Y-74441720D01*
X124865824Y-74441720D01*
X124835773Y-74441720D01*
X124835769Y-74441720D01*
X124828165Y-74441721D01*
X124828164Y-74441720D01*
X124828163Y-74441721D01*
X97485833Y-74441721D01*
X97479748Y-74441572D01*
X97116448Y-74423722D01*
X97104338Y-74422529D01*
X96747563Y-74369605D01*
X96735628Y-74367231D01*
X96385750Y-74279591D01*
X96374108Y-74276059D01*
X96034515Y-74154548D01*
X96023280Y-74149895D01*
X95860245Y-74072785D01*
X95697214Y-73995677D01*
X95686482Y-73989940D01*
X95377124Y-73804518D01*
X95367006Y-73797758D01*
X95077296Y-73582893D01*
X95067890Y-73575173D01*
X95025264Y-73536539D01*
X94800638Y-73332950D01*
X94792049Y-73324361D01*
X94549826Y-73057109D01*
X94542106Y-73047703D01*
X94327241Y-72757993D01*
X94320481Y-72747875D01*
X94320474Y-72747864D01*
X94135057Y-72438514D01*
X94129322Y-72427785D01*
X94129314Y-72427768D01*
X93975099Y-72101709D01*
X93970454Y-72090495D01*
X93848936Y-71750878D01*
X93845412Y-71739265D01*
X93757767Y-71389367D01*
X93755394Y-71377436D01*
X93717461Y-71121719D01*
X93702470Y-71020658D01*
X93701277Y-71008551D01*
X93698826Y-70958657D01*
X93683430Y-70645318D01*
X93683282Y-70639114D01*
X93683422Y-70503709D01*
X93698359Y-56024977D01*
X94587497Y-56024977D01*
X94587497Y-56649995D01*
X94587498Y-56650013D01*
X94597997Y-56752790D01*
X94597998Y-56752793D01*
X94653182Y-56919325D01*
X94653184Y-56919330D01*
X94745286Y-57068651D01*
X94838949Y-57162314D01*
X94872434Y-57223637D01*
X94867450Y-57293329D01*
X94838949Y-57337676D01*
X94745288Y-57431336D01*
X94653186Y-57580657D01*
X94653185Y-57580660D01*
X94598000Y-57747197D01*
X94598000Y-57747198D01*
X94597999Y-57747198D01*
X94587499Y-57849977D01*
X94587499Y-58474995D01*
X94587500Y-58475013D01*
X94597999Y-58577790D01*
X94598000Y-58577793D01*
X94653184Y-58744325D01*
X94653185Y-58744328D01*
X94745287Y-58893650D01*
X94869343Y-59017706D01*
X95018665Y-59109808D01*
X95185202Y-59164993D01*
X95287990Y-59175494D01*
X96288007Y-59175493D01*
X96365967Y-59167529D01*
X96425076Y-59175939D01*
X98954567Y-60199431D01*
X99009328Y-60242824D01*
X99030529Y-60294979D01*
X99056678Y-60460073D01*
X99132096Y-60692186D01*
X99133486Y-60695541D01*
X99140950Y-60765011D01*
X99116674Y-60819280D01*
X97440782Y-62966537D01*
X97393795Y-63003376D01*
X97322299Y-63035458D01*
X97322274Y-63035470D01*
X96456252Y-63535469D01*
X96456247Y-63535471D01*
X96372474Y-63595963D01*
X96372468Y-63595968D01*
X96255841Y-63727021D01*
X96172576Y-63881444D01*
X96127166Y-64050912D01*
X96122064Y-64226281D01*
X96157542Y-64398097D01*
X96199836Y-64492351D01*
X96199845Y-64492370D01*
X96512344Y-65033632D01*
X96512346Y-65033637D01*
X96512350Y-65033643D01*
X96512351Y-65033644D01*
X96572839Y-65117412D01*
X96703899Y-65234045D01*
X96858323Y-65317311D01*
X96858325Y-65317311D01*
X96858326Y-65317312D01*
X96858330Y-65317313D01*
X96986268Y-65351593D01*
X97045928Y-65387957D01*
X97076458Y-65450804D01*
X97073950Y-65503462D01*
X97039666Y-65631406D01*
X97034564Y-65806775D01*
X97070042Y-65978591D01*
X97112336Y-66072845D01*
X97112345Y-66072864D01*
X97424844Y-66614126D01*
X97424846Y-66614131D01*
X97424850Y-66614137D01*
X97424851Y-66614138D01*
X97485339Y-66697906D01*
X97616399Y-66814539D01*
X97770823Y-66897805D01*
X97770825Y-66897805D01*
X97770826Y-66897806D01*
X97826920Y-66912836D01*
X97940287Y-66943212D01*
X98115654Y-66948314D01*
X98115654Y-66948313D01*
X98115656Y-66948314D01*
X98165871Y-66937944D01*
X98287472Y-66912837D01*
X98381740Y-66870537D01*
X99247779Y-66370528D01*
X99311338Y-66324631D01*
X99366729Y-66302362D01*
X102069165Y-65923934D01*
X102138284Y-65934132D01*
X102186677Y-65973851D01*
X102233339Y-66038076D01*
X102233343Y-66038081D01*
X102233345Y-66038083D01*
X102405917Y-66210655D01*
X102470149Y-66257322D01*
X102512813Y-66312651D01*
X102520064Y-66374835D01*
X102141637Y-69077267D01*
X102119366Y-69132663D01*
X102073468Y-69196224D01*
X102073466Y-69196228D01*
X101573467Y-70062254D01*
X101573457Y-70062274D01*
X101531164Y-70156525D01*
X101495686Y-70328341D01*
X101500788Y-70503710D01*
X101546194Y-70673171D01*
X101629463Y-70827602D01*
X101746089Y-70958654D01*
X101746093Y-70958658D01*
X101807791Y-71003210D01*
X101829861Y-71019147D01*
X102371142Y-71331655D01*
X102465410Y-71373956D01*
X102637228Y-71409433D01*
X102812596Y-71404331D01*
X102940543Y-71370047D01*
X103010390Y-71371710D01*
X103068253Y-71410872D01*
X103092410Y-71457729D01*
X103126690Y-71585669D01*
X103209959Y-71740100D01*
X103326585Y-71871152D01*
X103326589Y-71871156D01*
X103409777Y-71931226D01*
X103410357Y-71931645D01*
X103951638Y-72244153D01*
X104045906Y-72286454D01*
X104217724Y-72321931D01*
X104393092Y-72316829D01*
X104562555Y-72271421D01*
X104716979Y-72188156D01*
X104848039Y-72071523D01*
X104848040Y-72071521D01*
X104848041Y-72071521D01*
X104875522Y-72033462D01*
X104908527Y-71987756D01*
X105012953Y-71806883D01*
X105033675Y-71770993D01*
X117354899Y-71770993D01*
X117354899Y-71770994D01*
X117479882Y-71987470D01*
X117479884Y-71987475D01*
X117540336Y-72071193D01*
X117671307Y-72187746D01*
X117825633Y-72270958D01*
X117994979Y-72316334D01*
X118170232Y-72321433D01*
X118341931Y-72285979D01*
X118436130Y-72243710D01*
X118436135Y-72243708D01*
X118490242Y-72212468D01*
X118015243Y-71389744D01*
X118015242Y-71389744D01*
X117354899Y-71770993D01*
X105033675Y-71770993D01*
X105059356Y-71726513D01*
X105214613Y-71457599D01*
X105408535Y-71121716D01*
X105440628Y-71050197D01*
X105477465Y-71003211D01*
X105666605Y-70855591D01*
X116902185Y-70855591D01*
X116937639Y-71027292D01*
X116979909Y-71121492D01*
X116979915Y-71121504D01*
X117104898Y-71337981D01*
X117104899Y-71337981D01*
X117765243Y-70956732D01*
X117765243Y-70956731D01*
X117290244Y-70134008D01*
X117290244Y-70134007D01*
X117236137Y-70165247D01*
X117236133Y-70165250D01*
X117152430Y-70225692D01*
X117152426Y-70225695D01*
X117035872Y-70356666D01*
X116952660Y-70510992D01*
X116907284Y-70680338D01*
X116902185Y-70855591D01*
X105666605Y-70855591D01*
X107624719Y-69327323D01*
X107689678Y-69301595D01*
X107748471Y-69310518D01*
X107751801Y-69311897D01*
X107751815Y-69311904D01*
X107983924Y-69387321D01*
X108224973Y-69425500D01*
X108224974Y-69425500D01*
X108469026Y-69425500D01*
X108469027Y-69425500D01*
X108710076Y-69387321D01*
X108942185Y-69311904D01*
X109159639Y-69201106D01*
X109357083Y-69057655D01*
X109529655Y-68885083D01*
X109673106Y-68687639D01*
X109783904Y-68470185D01*
X109859321Y-68238076D01*
X109897500Y-67997027D01*
X109897500Y-67753006D01*
X112491000Y-67753006D01*
X112491000Y-67996993D01*
X112529165Y-68237959D01*
X112604560Y-68469998D01*
X112715323Y-68687380D01*
X112782543Y-68779901D01*
X112782544Y-68779902D01*
X113401690Y-68160756D01*
X113420668Y-68206574D01*
X113497274Y-68321224D01*
X113594776Y-68418726D01*
X113709426Y-68495332D01*
X113755242Y-68514309D01*
X113136096Y-69133454D01*
X113136097Y-69133456D01*
X113228619Y-69200676D01*
X113446001Y-69311439D01*
X113678040Y-69386834D01*
X113919007Y-69425000D01*
X114162993Y-69425000D01*
X114403959Y-69386834D01*
X114635998Y-69311439D01*
X114853377Y-69200678D01*
X114945901Y-69133454D01*
X114945902Y-69133454D01*
X114326757Y-68514309D01*
X114372574Y-68495332D01*
X114487224Y-68418726D01*
X114584726Y-68321224D01*
X114661332Y-68206574D01*
X114680309Y-68160757D01*
X115299454Y-68779902D01*
X115299454Y-68779901D01*
X115366678Y-68687377D01*
X115477439Y-68469998D01*
X115552834Y-68237959D01*
X115591000Y-67996993D01*
X115591000Y-67753006D01*
X115552834Y-67512040D01*
X115477439Y-67280001D01*
X115366676Y-67062619D01*
X115299456Y-66970097D01*
X115299454Y-66970096D01*
X114680309Y-67589241D01*
X114661332Y-67543426D01*
X114584726Y-67428776D01*
X114487224Y-67331274D01*
X114372574Y-67254668D01*
X114326756Y-67235689D01*
X114945902Y-66616544D01*
X114945901Y-66616543D01*
X114853380Y-66549323D01*
X114635998Y-66438560D01*
X114403959Y-66363165D01*
X114162993Y-66325000D01*
X113919007Y-66325000D01*
X113678040Y-66363165D01*
X113446001Y-66438560D01*
X113228626Y-66549319D01*
X113136097Y-66616544D01*
X113755243Y-67235689D01*
X113709426Y-67254668D01*
X113594776Y-67331274D01*
X113497274Y-67428776D01*
X113420668Y-67543426D01*
X113401690Y-67589243D01*
X112782544Y-66970097D01*
X112715319Y-67062626D01*
X112604560Y-67280001D01*
X112529165Y-67512040D01*
X112491000Y-67753006D01*
X109897500Y-67753006D01*
X109897500Y-67752973D01*
X109859321Y-67511924D01*
X109783904Y-67279815D01*
X109673106Y-67062361D01*
X109654779Y-67037136D01*
X109529660Y-66864923D01*
X109529656Y-66864918D01*
X109357081Y-66692343D01*
X109357076Y-66692339D01*
X109159642Y-66548896D01*
X109159641Y-66548895D01*
X109159639Y-66548894D01*
X108942185Y-66438096D01*
X108710076Y-66362679D01*
X108710074Y-66362678D01*
X108710072Y-66362678D01*
X108541769Y-66336021D01*
X108469027Y-66324500D01*
X108224973Y-66324500D01*
X108169093Y-66333350D01*
X107983927Y-66362678D01*
X107751812Y-66438097D01*
X107534357Y-66548896D01*
X107336923Y-66692339D01*
X107336918Y-66692343D01*
X107164343Y-66864918D01*
X107164339Y-66864923D01*
X107020896Y-67062357D01*
X106910097Y-67279812D01*
X106834678Y-67511927D01*
X106796500Y-67752973D01*
X106796500Y-67997033D01*
X106813188Y-68102400D01*
X106804233Y-68171693D01*
X106767008Y-68219549D01*
X104710482Y-69824627D01*
X104645522Y-69850356D01*
X104583424Y-69840007D01*
X104516594Y-69810019D01*
X104516591Y-69810018D01*
X104344772Y-69774540D01*
X104169403Y-69779642D01*
X104041457Y-69813926D01*
X103971607Y-69812263D01*
X103913745Y-69773100D01*
X103889589Y-69726243D01*
X103855309Y-69598305D01*
X103855308Y-69598301D01*
X103772042Y-69443877D01*
X103772040Y-69443873D01*
X103655414Y-69312821D01*
X103655411Y-69312819D01*
X103655410Y-69312818D01*
X103655409Y-69312817D01*
X103596019Y-69269931D01*
X103553193Y-69214726D01*
X103545811Y-69152208D01*
X103907125Y-66571996D01*
X103935916Y-66508337D01*
X103991608Y-66471264D01*
X104011185Y-66464904D01*
X104228639Y-66354106D01*
X104426083Y-66210655D01*
X104598655Y-66038083D01*
X104742106Y-65840639D01*
X104852904Y-65623185D01*
X104928321Y-65391076D01*
X104966500Y-65150027D01*
X104966500Y-64905973D01*
X104928321Y-64664924D01*
X104852904Y-64432815D01*
X104742106Y-64215361D01*
X104657733Y-64099231D01*
X104598660Y-64017923D01*
X104598656Y-64017918D01*
X104426081Y-63845343D01*
X104426076Y-63845339D01*
X104228642Y-63701896D01*
X104228641Y-63701895D01*
X104228639Y-63701894D01*
X104011185Y-63591096D01*
X103779076Y-63515679D01*
X103779074Y-63515678D01*
X103779072Y-63515678D01*
X103610769Y-63489021D01*
X103538027Y-63477500D01*
X103293973Y-63477500D01*
X103238093Y-63486350D01*
X103052927Y-63515678D01*
X102820812Y-63591097D01*
X102603357Y-63701896D01*
X102405923Y-63845339D01*
X102405918Y-63845343D01*
X102233343Y-64017918D01*
X102233339Y-64017923D01*
X102089896Y-64215357D01*
X101979096Y-64432813D01*
X101972734Y-64452394D01*
X101933295Y-64510069D01*
X101872000Y-64536875D01*
X99291790Y-64898188D01*
X99222669Y-64887990D01*
X99174064Y-64847979D01*
X99131183Y-64788595D01*
X99131180Y-64788591D01*
X99000121Y-64671959D01*
X98845693Y-64588691D01*
X98717751Y-64554410D01*
X98658090Y-64518045D01*
X98627561Y-64455198D01*
X98630069Y-64402544D01*
X98664353Y-64274599D01*
X98669455Y-64099231D01*
X98669455Y-64099229D01*
X98669455Y-64099228D01*
X98653901Y-64023904D01*
X98633978Y-63927413D01*
X98603987Y-63860577D01*
X98594500Y-63791354D01*
X98619366Y-63733520D01*
X100224451Y-61676987D01*
X100281213Y-61636252D01*
X100341594Y-61630809D01*
X100446973Y-61647500D01*
X100446975Y-61647500D01*
X100691026Y-61647500D01*
X100691027Y-61647500D01*
X100932076Y-61609321D01*
X101164185Y-61533904D01*
X101381639Y-61423106D01*
X101579083Y-61279655D01*
X101751655Y-61107083D01*
X101895106Y-60909639D01*
X102005904Y-60692185D01*
X102081321Y-60460076D01*
X102119500Y-60219027D01*
X102119500Y-59974973D01*
X102116491Y-59955973D01*
X106815500Y-59955973D01*
X106815500Y-60200027D01*
X106853679Y-60441076D01*
X106929096Y-60673185D01*
X107003535Y-60819281D01*
X107039896Y-60890642D01*
X107183339Y-61088076D01*
X107183343Y-61088081D01*
X107355918Y-61260656D01*
X107355923Y-61260660D01*
X107528136Y-61385779D01*
X107553361Y-61404106D01*
X107770815Y-61514904D01*
X108002924Y-61590321D01*
X108243973Y-61628500D01*
X108243974Y-61628500D01*
X108488026Y-61628500D01*
X108488027Y-61628500D01*
X108729076Y-61590321D01*
X108961185Y-61514904D01*
X109178639Y-61404106D01*
X109376083Y-61260655D01*
X109548655Y-61088083D01*
X109692106Y-60890639D01*
X109802904Y-60673185D01*
X109878321Y-60441076D01*
X109916500Y-60200027D01*
X109916500Y-59955973D01*
X109878321Y-59714924D01*
X109802904Y-59482815D01*
X109692106Y-59265361D01*
X109626814Y-59175494D01*
X109548660Y-59067923D01*
X109548656Y-59067918D01*
X109376081Y-58895343D01*
X109376076Y-58895339D01*
X109178642Y-58751896D01*
X109178641Y-58751895D01*
X109178639Y-58751894D01*
X108961185Y-58641096D01*
X108729076Y-58565679D01*
X108729074Y-58565678D01*
X108729072Y-58565678D01*
X108560769Y-58539021D01*
X108488027Y-58527500D01*
X108243973Y-58527500D01*
X108188093Y-58536350D01*
X108002927Y-58565678D01*
X107770812Y-58641097D01*
X107553357Y-58751896D01*
X107355923Y-58895339D01*
X107355918Y-58895343D01*
X107183343Y-59067918D01*
X107183339Y-59067923D01*
X107039896Y-59265357D01*
X106929097Y-59482812D01*
X106929096Y-59482814D01*
X106929096Y-59482815D01*
X106922923Y-59501815D01*
X106853678Y-59714927D01*
X106850669Y-59733927D01*
X106815500Y-59955973D01*
X102116491Y-59955973D01*
X102081321Y-59733924D01*
X102005904Y-59501815D01*
X101895106Y-59284361D01*
X101816009Y-59175493D01*
X101751660Y-59086923D01*
X101751656Y-59086918D01*
X101579081Y-58914343D01*
X101579076Y-58914339D01*
X101381642Y-58770896D01*
X101381641Y-58770895D01*
X101381639Y-58770894D01*
X101164185Y-58660096D01*
X100932076Y-58584679D01*
X100932074Y-58584678D01*
X100932072Y-58584678D01*
X100763769Y-58558021D01*
X100691027Y-58546500D01*
X100446973Y-58546500D01*
X100391093Y-58555350D01*
X100205927Y-58584678D01*
X99973812Y-58660097D01*
X99756357Y-58770896D01*
X99598397Y-58885660D01*
X99532591Y-58909140D01*
X99479002Y-58900289D01*
X97062291Y-57922431D01*
X97007529Y-57879038D01*
X96985443Y-57820084D01*
X96977998Y-57747197D01*
X96977997Y-57747194D01*
X96922813Y-57580660D01*
X96830711Y-57431338D01*
X96737047Y-57337674D01*
X96703562Y-57276351D01*
X96708546Y-57206659D01*
X96737047Y-57162312D01*
X96830709Y-57068650D01*
X96922811Y-56919328D01*
X96977996Y-56752791D01*
X96985442Y-56679900D01*
X97011838Y-56615210D01*
X97062288Y-56577557D01*
X99478997Y-55599706D01*
X99548524Y-55592809D01*
X99598391Y-55614336D01*
X99756356Y-55729103D01*
X99756358Y-55729104D01*
X99756361Y-55729106D01*
X99973815Y-55839904D01*
X100205924Y-55915321D01*
X100446973Y-55953500D01*
X100446974Y-55953500D01*
X100691026Y-55953500D01*
X100691027Y-55953500D01*
X100932076Y-55915321D01*
X101164185Y-55839904D01*
X101381639Y-55729106D01*
X101579083Y-55585655D01*
X101751655Y-55413083D01*
X101895106Y-55215639D01*
X102005904Y-54998185D01*
X102081321Y-54766076D01*
X102119500Y-54525027D01*
X102119500Y-54280973D01*
X102081321Y-54039924D01*
X102005904Y-53807815D01*
X101895106Y-53590361D01*
X101876779Y-53565136D01*
X101751660Y-53392923D01*
X101751656Y-53392918D01*
X101579081Y-53220343D01*
X101579076Y-53220339D01*
X101381642Y-53076896D01*
X101381641Y-53076895D01*
X101381639Y-53076894D01*
X101164185Y-52966096D01*
X100932076Y-52890679D01*
X100932074Y-52890678D01*
X100932072Y-52890678D01*
X100739850Y-52860233D01*
X100691027Y-52852500D01*
X100446973Y-52852500D01*
X100446966Y-52852500D01*
X100341600Y-52869188D01*
X100272307Y-52860233D01*
X100224451Y-52823008D01*
X98619372Y-50766474D01*
X98593643Y-50701514D01*
X98603991Y-50639417D01*
X98633983Y-50572581D01*
X98652669Y-50482081D01*
X98669460Y-50400765D01*
X98664358Y-50225396D01*
X98664358Y-50225395D01*
X98630075Y-50097450D01*
X98631738Y-50027603D01*
X98670900Y-49969741D01*
X98717756Y-49945584D01*
X98845700Y-49911303D01*
X99000124Y-49828037D01*
X99000125Y-49828036D01*
X99000127Y-49828035D01*
X99131179Y-49711409D01*
X99131179Y-49711408D01*
X99131184Y-49711404D01*
X99174069Y-49652013D01*
X99229272Y-49609190D01*
X99291790Y-49601807D01*
X101872000Y-49963122D01*
X101935661Y-49991914D01*
X101972733Y-50047603D01*
X101979096Y-50067186D01*
X101996787Y-50101906D01*
X102084326Y-50273712D01*
X102089896Y-50284642D01*
X102233339Y-50482076D01*
X102233343Y-50482081D01*
X102405918Y-50654656D01*
X102405923Y-50654660D01*
X102568779Y-50772981D01*
X102603361Y-50798106D01*
X102820815Y-50908904D01*
X103052924Y-50984321D01*
X103293973Y-51022500D01*
X103293974Y-51022500D01*
X103538026Y-51022500D01*
X103538027Y-51022500D01*
X103779076Y-50984321D01*
X104011185Y-50908904D01*
X104228639Y-50798106D01*
X104426083Y-50654655D01*
X104598655Y-50482083D01*
X104742106Y-50284639D01*
X104852904Y-50067185D01*
X104928321Y-49835076D01*
X104966500Y-49594027D01*
X104966500Y-49349973D01*
X104928321Y-49108924D01*
X104852904Y-48876815D01*
X104742106Y-48659361D01*
X104674179Y-48565867D01*
X104598660Y-48461923D01*
X104598656Y-48461918D01*
X104426081Y-48289343D01*
X104426076Y-48289339D01*
X104228642Y-48145896D01*
X104228641Y-48145895D01*
X104228639Y-48145894D01*
X104011185Y-48035096D01*
X103991604Y-48028733D01*
X103933931Y-47989294D01*
X103907127Y-47928002D01*
X103545817Y-45347787D01*
X103556015Y-45278668D01*
X103596026Y-45230063D01*
X103655415Y-45187179D01*
X103772048Y-45056119D01*
X103855314Y-44901695D01*
X103889596Y-44773747D01*
X103925960Y-44714089D01*
X103988807Y-44683559D01*
X104041463Y-44686067D01*
X104169408Y-44720351D01*
X104344776Y-44725453D01*
X104344776Y-44725452D01*
X104344778Y-44725453D01*
X104399813Y-44714089D01*
X104516594Y-44689976D01*
X104583425Y-44659986D01*
X104652648Y-44650500D01*
X104710484Y-44675368D01*
X106767010Y-46280447D01*
X106807747Y-46337211D01*
X106813190Y-46397596D01*
X106796500Y-46502973D01*
X106796500Y-46747026D01*
X106834678Y-46988072D01*
X106910097Y-47220187D01*
X107020896Y-47437642D01*
X107164339Y-47635076D01*
X107164343Y-47635081D01*
X107336918Y-47807656D01*
X107336923Y-47807660D01*
X107444564Y-47885865D01*
X107534361Y-47951106D01*
X107751815Y-48061904D01*
X107983924Y-48137321D01*
X108224973Y-48175500D01*
X108224974Y-48175500D01*
X108469026Y-48175500D01*
X108469027Y-48175500D01*
X108710076Y-48137321D01*
X108942185Y-48061904D01*
X109159639Y-47951106D01*
X109357083Y-47807655D01*
X109529655Y-47635083D01*
X109673106Y-47437639D01*
X109783904Y-47220185D01*
X109859321Y-46988076D01*
X109897500Y-46747027D01*
X109897500Y-46502973D01*
X109859321Y-46261924D01*
X109783904Y-46029815D01*
X109673106Y-45812361D01*
X109558337Y-45654394D01*
X109534857Y-45588588D01*
X109543707Y-45535003D01*
X110521567Y-43118289D01*
X110564959Y-43063529D01*
X110623910Y-43041443D01*
X110696802Y-43033998D01*
X110863339Y-42978813D01*
X111012661Y-42886711D01*
X111106325Y-42793047D01*
X111167648Y-42759562D01*
X111237340Y-42764546D01*
X111281687Y-42793047D01*
X111375351Y-42886711D01*
X111524673Y-42978813D01*
X111691210Y-43033998D01*
X111764097Y-43041444D01*
X111828789Y-43067840D01*
X111866442Y-43118292D01*
X112844292Y-45534998D01*
X112851190Y-45604526D01*
X112829663Y-45654393D01*
X112714896Y-45812357D01*
X112604097Y-46029812D01*
X112528678Y-46261927D01*
X112490500Y-46502973D01*
X112490500Y-46747026D01*
X112528678Y-46988072D01*
X112604097Y-47220187D01*
X112714896Y-47437642D01*
X112858339Y-47635076D01*
X112858343Y-47635081D01*
X113030918Y-47807656D01*
X113030923Y-47807660D01*
X113138564Y-47885865D01*
X113228361Y-47951106D01*
X113445815Y-48061904D01*
X113677924Y-48137321D01*
X113918973Y-48175500D01*
X113918974Y-48175500D01*
X114163026Y-48175500D01*
X114163027Y-48175500D01*
X114404076Y-48137321D01*
X114636185Y-48061904D01*
X114853639Y-47951106D01*
X115051083Y-47807655D01*
X115223655Y-47635083D01*
X115367106Y-47437639D01*
X115477904Y-47220185D01*
X115553321Y-46988076D01*
X115591500Y-46747027D01*
X115591500Y-46502973D01*
X115574810Y-46397596D01*
X115583764Y-46328306D01*
X115620990Y-46280449D01*
X115644722Y-46261927D01*
X117677516Y-44675371D01*
X117742474Y-44649644D01*
X117804572Y-44659993D01*
X117871402Y-44689981D01*
X117871404Y-44689981D01*
X117871407Y-44689983D01*
X118043225Y-44725460D01*
X118218593Y-44720358D01*
X118346544Y-44686073D01*
X118416393Y-44687735D01*
X118474256Y-44726896D01*
X118498413Y-44773754D01*
X118532693Y-44901694D01*
X118615962Y-45056125D01*
X118732588Y-45187177D01*
X118732591Y-45187179D01*
X118732594Y-45187182D01*
X118779683Y-45221185D01*
X118791979Y-45230064D01*
X118834806Y-45285270D01*
X118842188Y-45347790D01*
X118480875Y-47928000D01*
X118452083Y-47991662D01*
X118396394Y-48028734D01*
X118376813Y-48035096D01*
X118159357Y-48145896D01*
X117961923Y-48289339D01*
X117961918Y-48289343D01*
X117789343Y-48461918D01*
X117789339Y-48461923D01*
X117645896Y-48659357D01*
X117535097Y-48876812D01*
X117459678Y-49108927D01*
X117447995Y-49182690D01*
X117421500Y-49349973D01*
X117421500Y-49594027D01*
X117426824Y-49627638D01*
X117458563Y-49828035D01*
X117459679Y-49835076D01*
X117535096Y-50067185D01*
X117640326Y-50273712D01*
X117645896Y-50284642D01*
X117789339Y-50482076D01*
X117789343Y-50482081D01*
X117961918Y-50654656D01*
X117961923Y-50654660D01*
X118124779Y-50772981D01*
X118159361Y-50798106D01*
X118376815Y-50908904D01*
X118608924Y-50984321D01*
X118849973Y-51022500D01*
X118849974Y-51022500D01*
X119094026Y-51022500D01*
X119094027Y-51022500D01*
X119335076Y-50984321D01*
X119567185Y-50908904D01*
X119784639Y-50798106D01*
X119982083Y-50654655D01*
X120154655Y-50482083D01*
X120298106Y-50284639D01*
X120408904Y-50067185D01*
X120415263Y-50047611D01*
X120454697Y-49989936D01*
X120515996Y-49963124D01*
X123096205Y-49601813D01*
X123165325Y-49612011D01*
X123213929Y-49652022D01*
X123256814Y-49711411D01*
X123387874Y-49828044D01*
X123542298Y-49911310D01*
X123670247Y-49945593D01*
X123729908Y-49981957D01*
X123760438Y-50044804D01*
X123757930Y-50097461D01*
X123723647Y-50225403D01*
X123718545Y-50400774D01*
X123754023Y-50572590D01*
X123784012Y-50639421D01*
X123793499Y-50708644D01*
X123768632Y-50766480D01*
X122163551Y-52823010D01*
X122106786Y-52863747D01*
X122046401Y-52869189D01*
X121941027Y-52852500D01*
X121696973Y-52852500D01*
X121648150Y-52860233D01*
X121455927Y-52890678D01*
X121223812Y-52966097D01*
X121006357Y-53076896D01*
X120808923Y-53220339D01*
X120808918Y-53220343D01*
X120636343Y-53392918D01*
X120636339Y-53392923D01*
X120492896Y-53590357D01*
X120382097Y-53807812D01*
X120306678Y-54039927D01*
X120268500Y-54280973D01*
X120268500Y-54525026D01*
X120306678Y-54766072D01*
X120382097Y-54998187D01*
X120492896Y-55215642D01*
X120636339Y-55413076D01*
X120636343Y-55413081D01*
X120808918Y-55585656D01*
X120808923Y-55585660D01*
X120848397Y-55614339D01*
X121006361Y-55729106D01*
X121223815Y-55839904D01*
X121455924Y-55915321D01*
X121696973Y-55953500D01*
X121696974Y-55953500D01*
X121941026Y-55953500D01*
X121941027Y-55953500D01*
X122182076Y-55915321D01*
X122414185Y-55839904D01*
X122631639Y-55729106D01*
X122789603Y-55614339D01*
X122855409Y-55590859D01*
X122908998Y-55599710D01*
X123502616Y-55839902D01*
X125325706Y-56577568D01*
X125380467Y-56620960D01*
X125402553Y-56679913D01*
X125409998Y-56752802D01*
X125409999Y-56752805D01*
X125465179Y-56919325D01*
X125465184Y-56919340D01*
X125557279Y-57068651D01*
X125557287Y-57068663D01*
X125650945Y-57162321D01*
X125684430Y-57223644D01*
X125679446Y-57293336D01*
X125650945Y-57337683D01*
X125557291Y-57431336D01*
X125465189Y-57580657D01*
X125465187Y-57580662D01*
X125410003Y-57747198D01*
X125410002Y-57747199D01*
X125402556Y-57820088D01*
X125376160Y-57884780D01*
X125325708Y-57922432D01*
X122908999Y-58900290D01*
X122839471Y-58907188D01*
X122789604Y-58885661D01*
X122631642Y-58770896D01*
X122631641Y-58770895D01*
X122631639Y-58770894D01*
X122414185Y-58660096D01*
X122182076Y-58584679D01*
X122182074Y-58584678D01*
X122182072Y-58584678D01*
X122013769Y-58558021D01*
X121941027Y-58546500D01*
X121696973Y-58546500D01*
X121641093Y-58555350D01*
X121455927Y-58584678D01*
X121223812Y-58660097D01*
X121006357Y-58770896D01*
X120808923Y-58914339D01*
X120808918Y-58914343D01*
X120636343Y-59086918D01*
X120636339Y-59086923D01*
X120492896Y-59284357D01*
X120382097Y-59501812D01*
X120306678Y-59733927D01*
X120268500Y-59974973D01*
X120268500Y-60219026D01*
X120306678Y-60460072D01*
X120306678Y-60460074D01*
X120306679Y-60460076D01*
X120382096Y-60692185D01*
X120446854Y-60819281D01*
X120492896Y-60909642D01*
X120636339Y-61107076D01*
X120636343Y-61107081D01*
X120808918Y-61279656D01*
X120808923Y-61279660D01*
X120980206Y-61404103D01*
X121006361Y-61423106D01*
X121223815Y-61533904D01*
X121455924Y-61609321D01*
X121696973Y-61647500D01*
X121696974Y-61647500D01*
X121941025Y-61647500D01*
X121941027Y-61647500D01*
X122046398Y-61630810D01*
X122115691Y-61639764D01*
X122163548Y-61676990D01*
X123223814Y-63035471D01*
X123743943Y-63701894D01*
X123768627Y-63733520D01*
X123794356Y-63798480D01*
X123784007Y-63860578D01*
X123754018Y-63927409D01*
X123754017Y-63927412D01*
X123718539Y-64099229D01*
X123723641Y-64274598D01*
X123757924Y-64402541D01*
X123756261Y-64472391D01*
X123717099Y-64530254D01*
X123670242Y-64554410D01*
X123542303Y-64588690D01*
X123387872Y-64671959D01*
X123256820Y-64788585D01*
X123256816Y-64788589D01*
X123213931Y-64847979D01*
X123158725Y-64890805D01*
X123096206Y-64898187D01*
X120515999Y-64536875D01*
X120452337Y-64508084D01*
X120415264Y-64452390D01*
X120408904Y-64432815D01*
X120298106Y-64215361D01*
X120213733Y-64099231D01*
X120154660Y-64017923D01*
X120154656Y-64017918D01*
X119982081Y-63845343D01*
X119982076Y-63845339D01*
X119784642Y-63701896D01*
X119784641Y-63701895D01*
X119784639Y-63701894D01*
X119567185Y-63591096D01*
X119335076Y-63515679D01*
X119335074Y-63515678D01*
X119335072Y-63515678D01*
X119166769Y-63489021D01*
X119094027Y-63477500D01*
X118849973Y-63477500D01*
X118794093Y-63486350D01*
X118608927Y-63515678D01*
X118376812Y-63591097D01*
X118159357Y-63701896D01*
X117961923Y-63845339D01*
X117961918Y-63845343D01*
X117789343Y-64017918D01*
X117789339Y-64017923D01*
X117645896Y-64215357D01*
X117535097Y-64432812D01*
X117459678Y-64664927D01*
X117421500Y-64905973D01*
X117421500Y-65150026D01*
X117457251Y-65375750D01*
X117459679Y-65391076D01*
X117535096Y-65623185D01*
X117628639Y-65806775D01*
X117645896Y-65840642D01*
X117789339Y-66038076D01*
X117789343Y-66038081D01*
X117961918Y-66210656D01*
X117961923Y-66210660D01*
X118098708Y-66310039D01*
X118159361Y-66354106D01*
X118376815Y-66464904D01*
X118396387Y-66471263D01*
X118454064Y-66510699D01*
X118480874Y-66571999D01*
X118842185Y-69152206D01*
X118831987Y-69221327D01*
X118791977Y-69269931D01*
X118732594Y-69312811D01*
X118732588Y-69312816D01*
X118615956Y-69443875D01*
X118532688Y-69598303D01*
X118498278Y-69726729D01*
X118461913Y-69786390D01*
X118399066Y-69816919D01*
X118346410Y-69814411D01*
X118218520Y-69780143D01*
X118043267Y-69775044D01*
X117871567Y-69810498D01*
X117871564Y-69810499D01*
X117777374Y-69852765D01*
X117777352Y-69852776D01*
X117723255Y-69884007D01*
X117723255Y-69884008D01*
X118323256Y-70923239D01*
X118923254Y-71962468D01*
X118977367Y-71931226D01*
X119061065Y-71870788D01*
X119061073Y-71870782D01*
X119177627Y-71739811D01*
X119260839Y-71585485D01*
X119295106Y-71457599D01*
X119331471Y-71397938D01*
X119394317Y-71367409D01*
X119446971Y-71369916D01*
X119575402Y-71404330D01*
X119750770Y-71409432D01*
X119750770Y-71409431D01*
X119750772Y-71409432D01*
X119806436Y-71397938D01*
X119922588Y-71373955D01*
X120016855Y-71331655D01*
X120558135Y-71019146D01*
X120641903Y-70958658D01*
X120758536Y-70827598D01*
X120841802Y-70673174D01*
X120887209Y-70503710D01*
X120892311Y-70328343D01*
X120892311Y-70328341D01*
X120892311Y-70328340D01*
X120871116Y-70225695D01*
X120856834Y-70156525D01*
X120814534Y-70062257D01*
X120314525Y-69196218D01*
X120287257Y-69158455D01*
X120268631Y-69132660D01*
X120246360Y-69077266D01*
X119867933Y-66374833D01*
X119878131Y-66305715D01*
X119917849Y-66257322D01*
X119982083Y-66210655D01*
X120154655Y-66038083D01*
X120201321Y-65973850D01*
X120256649Y-65931186D01*
X120318832Y-65923934D01*
X123021267Y-66302362D01*
X123076660Y-66324633D01*
X123129349Y-66362679D01*
X123140220Y-66370529D01*
X123140227Y-66370533D01*
X123147680Y-66374836D01*
X124006257Y-66870535D01*
X124100525Y-66912836D01*
X124272343Y-66948313D01*
X124447710Y-66943211D01*
X124617174Y-66897804D01*
X124771598Y-66814538D01*
X124771599Y-66814537D01*
X124771601Y-66814536D01*
X124902653Y-66697910D01*
X124902657Y-66697906D01*
X124902658Y-66697905D01*
X124963146Y-66614139D01*
X125275654Y-66072858D01*
X125317955Y-65978590D01*
X125346439Y-65840639D01*
X125353432Y-65806774D01*
X125348330Y-65631405D01*
X125346128Y-65623187D01*
X125314047Y-65503459D01*
X125315710Y-65433612D01*
X125354872Y-65375750D01*
X125401728Y-65351593D01*
X125529672Y-65317312D01*
X125684096Y-65234046D01*
X125684097Y-65234045D01*
X125684099Y-65234044D01*
X125815151Y-65117418D01*
X125815155Y-65117414D01*
X125815156Y-65117413D01*
X125875644Y-65033647D01*
X126188152Y-64492366D01*
X126230453Y-64398098D01*
X126265930Y-64226280D01*
X126260828Y-64050912D01*
X126215420Y-63881449D01*
X126132155Y-63727025D01*
X126015522Y-63595965D01*
X126015521Y-63595964D01*
X126015520Y-63595962D01*
X125931761Y-63535481D01*
X125931744Y-63535470D01*
X125065718Y-63035471D01*
X125065715Y-63035469D01*
X125065708Y-63035466D01*
X125065691Y-63035457D01*
X124994199Y-63003377D01*
X124947212Y-62966538D01*
X124947211Y-62966537D01*
X123271323Y-60819279D01*
X123245595Y-60754321D01*
X123254520Y-60695523D01*
X123255893Y-60692204D01*
X123255904Y-60692185D01*
X123331321Y-60460076D01*
X123357470Y-60294979D01*
X123387398Y-60231847D01*
X123433428Y-60199434D01*
X125962928Y-59175939D01*
X126022033Y-59167529D01*
X126099993Y-59175494D01*
X127100010Y-59175493D01*
X127100018Y-59175492D01*
X127100021Y-59175492D01*
X127177973Y-59167529D01*
X127202799Y-59164993D01*
X127369336Y-59109808D01*
X127518658Y-59017706D01*
X127642714Y-58893650D01*
X127734816Y-58744328D01*
X127790001Y-58577791D01*
X127800502Y-58475003D01*
X127800501Y-57849986D01*
X127797446Y-57820084D01*
X127790001Y-57747197D01*
X127790000Y-57747194D01*
X127734816Y-57580660D01*
X127642714Y-57431338D01*
X127549055Y-57337679D01*
X127515570Y-57276356D01*
X127520554Y-57206664D01*
X127549055Y-57162317D01*
X127549060Y-57162312D01*
X127642710Y-57068662D01*
X127734812Y-56919340D01*
X127789997Y-56752803D01*
X127800498Y-56650015D01*
X127800497Y-56024998D01*
X127789997Y-55922209D01*
X127734812Y-55755672D01*
X127642710Y-55606350D01*
X127518654Y-55482294D01*
X127425886Y-55425075D01*
X127369334Y-55390193D01*
X127369329Y-55390191D01*
X127367860Y-55389704D01*
X127202795Y-55335007D01*
X127202793Y-55335006D01*
X127100008Y-55324506D01*
X126099996Y-55324506D01*
X126099973Y-55324508D01*
X126022031Y-55332469D01*
X125962922Y-55324058D01*
X123433432Y-54300567D01*
X123378670Y-54257174D01*
X123357469Y-54205020D01*
X123331321Y-54039924D01*
X123255904Y-53807815D01*
X123255898Y-53807804D01*
X123254516Y-53804465D01*
X123247047Y-53734996D01*
X123271323Y-53680721D01*
X124947214Y-51533466D01*
X124994197Y-51496630D01*
X125065721Y-51464536D01*
X125931760Y-50964527D01*
X126015528Y-50904039D01*
X126132161Y-50772979D01*
X126215426Y-50618555D01*
X126260834Y-50449092D01*
X126265936Y-50273724D01*
X126265935Y-50273723D01*
X126265936Y-50273721D01*
X126250382Y-50198397D01*
X126230459Y-50101906D01*
X126188159Y-50007639D01*
X125875655Y-49466368D01*
X125875654Y-49466365D01*
X125875642Y-49466348D01*
X125815162Y-49382591D01*
X125684102Y-49265958D01*
X125529678Y-49182692D01*
X125529677Y-49182691D01*
X125529674Y-49182690D01*
X125401727Y-49148408D01*
X125342066Y-49112043D01*
X125311537Y-49049196D01*
X125314044Y-48996543D01*
X125348328Y-48868598D01*
X125353430Y-48693230D01*
X125353429Y-48693229D01*
X125353430Y-48693227D01*
X125331370Y-48586392D01*
X125317953Y-48521412D01*
X125275653Y-48427145D01*
X124963149Y-47885874D01*
X124963148Y-47885871D01*
X124963144Y-47885865D01*
X124902656Y-47802097D01*
X124902641Y-47802084D01*
X124771596Y-47685464D01*
X124617168Y-47602196D01*
X124447707Y-47556790D01*
X124272338Y-47551688D01*
X124100522Y-47587166D01*
X124100520Y-47587166D01*
X124006273Y-47629457D01*
X124006249Y-47629469D01*
X123140227Y-48129468D01*
X123140222Y-48129470D01*
X123117475Y-48145896D01*
X123076672Y-48175360D01*
X123076662Y-48175367D01*
X123021266Y-48197638D01*
X120318836Y-48576065D01*
X120249715Y-48565867D01*
X120201321Y-48526148D01*
X120201320Y-48526147D01*
X120154655Y-48461917D01*
X119982083Y-48289345D01*
X119982082Y-48289344D01*
X119982081Y-48289343D01*
X119982076Y-48289339D01*
X119917851Y-48242677D01*
X119875185Y-48187347D01*
X119867934Y-48125166D01*
X120246363Y-45422732D01*
X120268633Y-45367341D01*
X120314530Y-45303781D01*
X120814538Y-44437741D01*
X120856839Y-44343473D01*
X120892316Y-44171655D01*
X120887214Y-43996288D01*
X120841807Y-43826824D01*
X120758541Y-43672400D01*
X120758539Y-43672396D01*
X120641913Y-43541344D01*
X120641909Y-43541340D01*
X120558141Y-43480851D01*
X120016864Y-43168346D01*
X120016861Y-43168344D01*
X120016851Y-43168339D01*
X120016844Y-43168336D01*
X119922593Y-43126043D01*
X119922594Y-43126043D01*
X119750775Y-43090565D01*
X119575406Y-43095667D01*
X119447454Y-43129952D01*
X119377604Y-43128289D01*
X119319742Y-43089126D01*
X119295586Y-43042270D01*
X119261305Y-42914328D01*
X119178039Y-42759904D01*
X119178037Y-42759900D01*
X119061411Y-42628848D01*
X119061407Y-42628844D01*
X118977639Y-42568355D01*
X118436362Y-42255850D01*
X118436359Y-42255848D01*
X118436349Y-42255843D01*
X118436342Y-42255840D01*
X118342091Y-42213547D01*
X118342092Y-42213547D01*
X118170273Y-42178069D01*
X117994906Y-42183171D01*
X117825438Y-42228581D01*
X117671018Y-42311845D01*
X117539957Y-42428478D01*
X117539955Y-42428479D01*
X117479474Y-42512238D01*
X117479463Y-42512255D01*
X116979464Y-43378281D01*
X116979454Y-43378301D01*
X116947369Y-43449803D01*
X116910530Y-43496789D01*
X114763280Y-45172674D01*
X114698320Y-45198403D01*
X114639541Y-45189486D01*
X114636186Y-45188096D01*
X114515439Y-45148863D01*
X114404076Y-45112679D01*
X114404074Y-45112678D01*
X114404072Y-45112678D01*
X114238984Y-45086530D01*
X114175849Y-45056600D01*
X114143436Y-45010569D01*
X113119952Y-42481079D01*
X113111542Y-42421968D01*
X113111543Y-42421964D01*
X113119507Y-42344008D01*
X113119506Y-41343991D01*
X113109006Y-41241202D01*
X113053821Y-41074665D01*
X112961719Y-40925343D01*
X112837663Y-40801287D01*
X112688341Y-40709185D01*
X112521804Y-40654000D01*
X112521802Y-40653999D01*
X112419017Y-40643499D01*
X111794005Y-40643499D01*
X111793987Y-40643500D01*
X111691210Y-40653999D01*
X111691207Y-40654000D01*
X111524675Y-40709184D01*
X111524670Y-40709186D01*
X111375349Y-40801288D01*
X111281687Y-40894951D01*
X111220364Y-40928436D01*
X111150672Y-40923452D01*
X111106325Y-40894951D01*
X111012662Y-40801288D01*
X111012661Y-40801287D01*
X110863339Y-40709185D01*
X110696802Y-40654000D01*
X110696800Y-40653999D01*
X110594015Y-40643499D01*
X109969003Y-40643499D01*
X109968985Y-40643500D01*
X109866208Y-40653999D01*
X109866205Y-40654000D01*
X109699673Y-40709184D01*
X109699668Y-40709186D01*
X109550347Y-40801288D01*
X109426294Y-40925341D01*
X109334192Y-41074662D01*
X109334191Y-41074665D01*
X109279006Y-41241202D01*
X109279006Y-41241203D01*
X109279005Y-41241203D01*
X109268505Y-41343982D01*
X109268505Y-42344000D01*
X109268506Y-42344018D01*
X109276469Y-42421964D01*
X109268058Y-42481075D01*
X108244566Y-45010566D01*
X108201173Y-45065328D01*
X108149018Y-45086529D01*
X107983926Y-45112678D01*
X107751816Y-45188095D01*
X107748466Y-45189483D01*
X107678997Y-45196952D01*
X107624720Y-45172673D01*
X105477472Y-43496784D01*
X105440633Y-43449798D01*
X105408550Y-43378301D01*
X105408540Y-43378278D01*
X104908536Y-42512248D01*
X104908535Y-42512245D01*
X104886032Y-42481081D01*
X104848043Y-42428471D01*
X104848039Y-42428468D01*
X104848038Y-42428466D01*
X104716985Y-42311839D01*
X104562562Y-42228574D01*
X104562559Y-42228573D01*
X104506456Y-42213540D01*
X104393094Y-42183164D01*
X104217725Y-42178062D01*
X104045909Y-42213540D01*
X103951655Y-42255834D01*
X103951636Y-42255843D01*
X103410374Y-42568342D01*
X103410369Y-42568344D01*
X103326596Y-42628836D01*
X103326594Y-42628837D01*
X103209962Y-42759896D01*
X103126695Y-42914323D01*
X103092413Y-43042267D01*
X103056048Y-43101927D01*
X102993201Y-43132456D01*
X102940546Y-43129948D01*
X102866026Y-43109980D01*
X102812600Y-43095664D01*
X102637231Y-43090562D01*
X102465415Y-43126040D01*
X102371161Y-43168334D01*
X102371142Y-43168343D01*
X101829880Y-43480842D01*
X101829875Y-43480844D01*
X101746102Y-43541336D01*
X101746100Y-43541337D01*
X101629468Y-43672396D01*
X101546200Y-43826824D01*
X101500794Y-43996285D01*
X101495692Y-44171654D01*
X101531170Y-44343470D01*
X101531170Y-44343472D01*
X101573461Y-44437719D01*
X101573465Y-44437728D01*
X101573470Y-44437738D01*
X101767469Y-44773754D01*
X102041085Y-45247670D01*
X102073478Y-45303776D01*
X102073481Y-45303780D01*
X102119370Y-45367331D01*
X102141641Y-45422726D01*
X102520065Y-48125163D01*
X102509867Y-48194284D01*
X102470150Y-48242676D01*
X102405917Y-48289344D01*
X102233347Y-48461914D01*
X102233340Y-48461923D01*
X102186678Y-48526147D01*
X102131348Y-48568813D01*
X102069165Y-48576063D01*
X99366733Y-48197632D01*
X99311337Y-48175360D01*
X99247783Y-48129468D01*
X99247779Y-48129465D01*
X99247772Y-48129461D01*
X98478734Y-47685458D01*
X98381743Y-47629460D01*
X98381733Y-47629455D01*
X98381726Y-47629452D01*
X98287475Y-47587159D01*
X98287476Y-47587159D01*
X98115657Y-47551681D01*
X97940290Y-47556783D01*
X97770829Y-47602189D01*
X97616398Y-47685458D01*
X97485346Y-47802084D01*
X97485342Y-47802088D01*
X97424853Y-47885856D01*
X97112348Y-48427133D01*
X97112338Y-48427153D01*
X97070045Y-48521404D01*
X97034567Y-48693220D01*
X97039669Y-48868589D01*
X97073952Y-48996532D01*
X97072289Y-49066382D01*
X97033127Y-49124245D01*
X96986270Y-49148401D01*
X96858331Y-49182681D01*
X96703900Y-49265950D01*
X96572848Y-49382576D01*
X96572844Y-49382580D01*
X96512355Y-49466348D01*
X96199850Y-50007625D01*
X96199840Y-50007645D01*
X96157547Y-50101896D01*
X96122069Y-50273712D01*
X96127171Y-50449081D01*
X96172581Y-50618549D01*
X96198625Y-50666849D01*
X96255845Y-50772970D01*
X96372478Y-50904030D01*
X96372479Y-50904032D01*
X96456238Y-50964513D01*
X96456245Y-50964518D01*
X96456251Y-50964521D01*
X96456255Y-50964524D01*
X96456271Y-50964533D01*
X97322285Y-51464526D01*
X97343323Y-51473966D01*
X97393799Y-51496617D01*
X97440785Y-51533456D01*
X98447254Y-52823010D01*
X99046151Y-53590357D01*
X99116675Y-53680716D01*
X99142404Y-53745676D01*
X99133490Y-53804446D01*
X99132100Y-53807800D01*
X99056678Y-54039926D01*
X99030530Y-54205015D01*
X99000600Y-54268149D01*
X98954567Y-54300563D01*
X96425076Y-55324047D01*
X96365964Y-55332458D01*
X96288008Y-55324494D01*
X95287995Y-55324494D01*
X95287977Y-55324495D01*
X95185200Y-55334994D01*
X95185197Y-55334995D01*
X95018665Y-55390179D01*
X95018660Y-55390181D01*
X94869339Y-55482283D01*
X94745286Y-55606336D01*
X94653184Y-55755657D01*
X94653183Y-55755660D01*
X94597998Y-55922197D01*
X94597998Y-55922198D01*
X94597997Y-55922198D01*
X94587497Y-56024977D01*
X93698359Y-56024977D01*
X93716831Y-38119984D01*
X108443497Y-38119984D01*
X108443497Y-39220015D01*
X108453997Y-39322795D01*
X108453998Y-39322796D01*
X108509183Y-39489335D01*
X108509184Y-39489337D01*
X108601283Y-39638651D01*
X108601286Y-39638655D01*
X108725341Y-39762710D01*
X108725345Y-39762713D01*
X108874659Y-39854812D01*
X108874661Y-39854813D01*
X108874663Y-39854814D01*
X109041200Y-39909999D01*
X109143989Y-39920500D01*
X109143994Y-39920500D01*
X110244000Y-39920500D01*
X110244005Y-39920500D01*
X110346794Y-39909999D01*
X110513331Y-39854814D01*
X110662652Y-39762711D01*
X110786708Y-39638655D01*
X110878811Y-39489334D01*
X110933996Y-39322797D01*
X110944497Y-39220008D01*
X110944497Y-38571587D01*
X111443503Y-38571587D01*
X111443503Y-38768432D01*
X111474293Y-38962836D01*
X111535120Y-39150039D01*
X111570775Y-39220015D01*
X111624479Y-39325415D01*
X111740175Y-39484656D01*
X111879357Y-39623838D01*
X112038598Y-39739534D01*
X112084084Y-39762710D01*
X112213973Y-39828892D01*
X112213975Y-39828892D01*
X112213978Y-39828894D01*
X112293745Y-39854812D01*
X112401176Y-39889719D01*
X112595581Y-39920510D01*
X112595586Y-39920510D01*
X112792425Y-39920510D01*
X112986829Y-39889719D01*
X113174028Y-39828894D01*
X113349408Y-39739534D01*
X113508649Y-39623838D01*
X113647831Y-39484656D01*
X113763527Y-39325415D01*
X113852887Y-39150035D01*
X113913712Y-38962836D01*
X113944503Y-38768432D01*
X113944503Y-38571587D01*
X113913712Y-38377183D01*
X113852885Y-38189980D01*
X113764851Y-38017204D01*
X113763527Y-38014605D01*
X113647831Y-37855364D01*
X113508649Y-37716182D01*
X113349408Y-37600486D01*
X113174032Y-37511127D01*
X112986829Y-37450300D01*
X112792425Y-37419510D01*
X112792420Y-37419510D01*
X112595586Y-37419510D01*
X112595581Y-37419510D01*
X112401176Y-37450300D01*
X112213973Y-37511127D01*
X112038597Y-37600486D01*
X111947744Y-37666495D01*
X111879357Y-37716182D01*
X111879355Y-37716184D01*
X111879354Y-37716184D01*
X111740177Y-37855361D01*
X111740177Y-37855362D01*
X111740175Y-37855364D01*
X111690488Y-37923751D01*
X111624479Y-38014604D01*
X111535120Y-38189980D01*
X111474293Y-38377183D01*
X111443503Y-38571587D01*
X110944497Y-38571587D01*
X110944497Y-38119992D01*
X110933996Y-38017203D01*
X110878811Y-37850666D01*
X110786708Y-37701345D01*
X110662652Y-37577289D01*
X110662648Y-37577286D01*
X110513334Y-37485187D01*
X110513332Y-37485186D01*
X110408052Y-37450300D01*
X110346794Y-37430001D01*
X110346792Y-37430000D01*
X110244012Y-37419500D01*
X110244005Y-37419500D01*
X109143989Y-37419500D01*
X109143981Y-37419500D01*
X109041201Y-37430000D01*
X109041200Y-37430001D01*
X108874661Y-37485186D01*
X108874659Y-37485187D01*
X108725345Y-37577286D01*
X108725341Y-37577289D01*
X108601286Y-37701344D01*
X108601283Y-37701348D01*
X108509184Y-37850662D01*
X108509183Y-37850664D01*
X108453998Y-38017203D01*
X108453997Y-38017204D01*
X108443497Y-38119984D01*
X93716831Y-38119984D01*
X93717652Y-37323926D01*
X93717720Y-37323674D01*
X93717720Y-37260689D01*
X93717723Y-37260676D01*
X93717869Y-37254737D01*
X93735718Y-36891450D01*
X93736911Y-36879340D01*
X93757653Y-36739517D01*
X93789836Y-36522563D01*
X93792209Y-36510632D01*
X93798719Y-36484642D01*
X93879855Y-36160735D01*
X93883375Y-36149133D01*
X94004900Y-35809500D01*
X94009542Y-35798294D01*
X94116775Y-35571571D01*
X108443507Y-35571571D01*
X108443507Y-35768416D01*
X108474297Y-35962820D01*
X108535124Y-36150023D01*
X108624354Y-36325145D01*
X108624483Y-36325399D01*
X108740179Y-36484640D01*
X108879361Y-36623822D01*
X109038602Y-36739518D01*
X109121462Y-36781737D01*
X109213977Y-36828876D01*
X109213979Y-36828876D01*
X109213982Y-36828878D01*
X109314324Y-36861481D01*
X109401180Y-36889703D01*
X109595585Y-36920494D01*
X109595590Y-36920494D01*
X109792429Y-36920494D01*
X109986833Y-36889703D01*
X110000178Y-36885367D01*
X110174032Y-36828878D01*
X110349412Y-36739518D01*
X110508653Y-36623822D01*
X110647835Y-36484640D01*
X110763531Y-36325399D01*
X110852891Y-36150019D01*
X110913716Y-35962820D01*
X110913734Y-35962707D01*
X110944507Y-35768416D01*
X110944507Y-35571619D01*
X111444001Y-35571619D01*
X111444001Y-35768384D01*
X111474779Y-35962707D01*
X111535582Y-36149837D01*
X111624906Y-36325147D01*
X111650320Y-36360127D01*
X111650321Y-36360127D01*
X112202872Y-35807576D01*
X112218756Y-35866855D01*
X112285899Y-35983149D01*
X112380854Y-36078104D01*
X112497148Y-36145247D01*
X112556425Y-36161130D01*
X112003874Y-36713679D01*
X112003874Y-36713680D01*
X112038859Y-36739098D01*
X112214165Y-36828420D01*
X112401295Y-36889223D01*
X112595619Y-36920002D01*
X112792383Y-36920002D01*
X112986706Y-36889223D01*
X113173836Y-36828420D01*
X113349144Y-36739097D01*
X113384126Y-36713680D01*
X113384127Y-36713680D01*
X112831576Y-36161129D01*
X112890854Y-36145247D01*
X113007148Y-36078104D01*
X113102103Y-35983149D01*
X113169246Y-35866855D01*
X113185128Y-35807577D01*
X113737679Y-36360128D01*
X113737679Y-36360127D01*
X113763096Y-36325145D01*
X113852419Y-36149837D01*
X113913222Y-35962707D01*
X113944001Y-35768384D01*
X113944001Y-35571619D01*
X113913222Y-35377296D01*
X113852419Y-35190166D01*
X113763097Y-35014860D01*
X113737679Y-34979875D01*
X113737678Y-34979875D01*
X113185128Y-35532425D01*
X113169246Y-35473149D01*
X113102103Y-35356855D01*
X113007148Y-35261900D01*
X112890854Y-35194757D01*
X112831575Y-35178873D01*
X113355358Y-34655090D01*
X114933496Y-34655090D01*
X114933496Y-34804905D01*
X114962719Y-34951820D01*
X114962721Y-34951828D01*
X115020047Y-35090227D01*
X115020052Y-35090236D01*
X115103276Y-35214788D01*
X115103279Y-35214792D01*
X115209201Y-35320714D01*
X115209205Y-35320717D01*
X115333757Y-35403941D01*
X115333766Y-35403946D01*
X115333771Y-35403948D01*
X115472166Y-35461273D01*
X115619088Y-35490497D01*
X115619092Y-35490498D01*
X115619093Y-35490498D01*
X115768900Y-35490498D01*
X115768901Y-35490497D01*
X115915826Y-35461273D01*
X116054228Y-35403945D01*
X116178787Y-35320717D01*
X116284715Y-35214789D01*
X116367943Y-35090230D01*
X116425271Y-34951828D01*
X116454496Y-34804901D01*
X116454496Y-34655095D01*
X116454495Y-34655092D01*
X116454495Y-34655090D01*
X116448773Y-34626321D01*
X116425271Y-34508168D01*
X116367943Y-34369766D01*
X116367940Y-34369761D01*
X116367939Y-34369759D01*
X116284715Y-34245207D01*
X116284712Y-34245203D01*
X116178790Y-34139281D01*
X116178786Y-34139278D01*
X116054234Y-34056054D01*
X116054225Y-34056049D01*
X115915826Y-33998723D01*
X115915818Y-33998721D01*
X115768903Y-33969498D01*
X115768899Y-33969498D01*
X115619093Y-33969498D01*
X115619088Y-33969498D01*
X115472173Y-33998721D01*
X115472165Y-33998723D01*
X115333766Y-34056049D01*
X115333757Y-34056054D01*
X115209205Y-34139278D01*
X115209201Y-34139281D01*
X115103279Y-34245203D01*
X115103276Y-34245207D01*
X115020052Y-34369759D01*
X115020047Y-34369768D01*
X114962721Y-34508167D01*
X114962719Y-34508175D01*
X114933496Y-34655090D01*
X113355358Y-34655090D01*
X113384126Y-34626322D01*
X113384126Y-34626321D01*
X113349146Y-34600907D01*
X113173836Y-34511583D01*
X112986706Y-34450780D01*
X112792383Y-34420002D01*
X112595619Y-34420002D01*
X112401295Y-34450780D01*
X112214162Y-34511584D01*
X112038864Y-34600901D01*
X112038860Y-34600904D01*
X112003874Y-34626322D01*
X112003873Y-34626322D01*
X112556426Y-35178873D01*
X112497148Y-35194757D01*
X112380854Y-35261900D01*
X112285899Y-35356855D01*
X112218756Y-35473149D01*
X112202872Y-35532426D01*
X111650321Y-34979874D01*
X111650321Y-34979875D01*
X111624903Y-35014861D01*
X111624900Y-35014865D01*
X111535583Y-35190163D01*
X111474779Y-35377296D01*
X111444001Y-35571619D01*
X110944507Y-35571619D01*
X110944507Y-35571571D01*
X110913716Y-35377167D01*
X110860957Y-35214794D01*
X110852891Y-35189969D01*
X110852889Y-35189966D01*
X110852889Y-35189964D01*
X110775993Y-35039047D01*
X110763531Y-35014589D01*
X110647835Y-34855348D01*
X110508653Y-34716166D01*
X110349412Y-34600470D01*
X110174036Y-34511111D01*
X109986833Y-34450284D01*
X109792429Y-34419494D01*
X109792424Y-34419494D01*
X109595590Y-34419494D01*
X109595585Y-34419494D01*
X109401180Y-34450284D01*
X109213977Y-34511111D01*
X109038601Y-34600470D01*
X108963416Y-34655096D01*
X108879361Y-34716166D01*
X108879359Y-34716168D01*
X108879358Y-34716168D01*
X108740181Y-34855345D01*
X108740181Y-34855346D01*
X108740179Y-34855348D01*
X108690492Y-34923735D01*
X108624483Y-35014588D01*
X108535124Y-35189964D01*
X108474297Y-35377167D01*
X108443507Y-35571571D01*
X94116775Y-35571571D01*
X94163768Y-35472215D01*
X94169486Y-35461515D01*
X94354936Y-35152114D01*
X94361677Y-35142026D01*
X94576547Y-34852310D01*
X94584248Y-34842925D01*
X94754491Y-34655092D01*
X105933497Y-34655092D01*
X105933497Y-34804907D01*
X105962720Y-34951822D01*
X105962722Y-34951830D01*
X106020048Y-35090229D01*
X106020053Y-35090238D01*
X106103277Y-35214790D01*
X106103280Y-35214794D01*
X106209202Y-35320716D01*
X106209206Y-35320719D01*
X106333758Y-35403943D01*
X106333764Y-35403946D01*
X106333765Y-35403947D01*
X106472167Y-35461275D01*
X106619079Y-35490497D01*
X106619089Y-35490499D01*
X106619093Y-35490500D01*
X106619094Y-35490500D01*
X106768901Y-35490500D01*
X106768902Y-35490499D01*
X106915827Y-35461275D01*
X107054229Y-35403947D01*
X107178788Y-35320719D01*
X107284716Y-35214791D01*
X107367944Y-35090232D01*
X107425272Y-34951830D01*
X107454497Y-34804903D01*
X107454497Y-34655097D01*
X107454496Y-34655094D01*
X107454496Y-34655092D01*
X107443718Y-34600907D01*
X107425272Y-34508170D01*
X107367944Y-34369768D01*
X107367943Y-34369766D01*
X107367940Y-34369761D01*
X107284716Y-34245209D01*
X107284713Y-34245205D01*
X107178791Y-34139283D01*
X107178787Y-34139280D01*
X107054235Y-34056056D01*
X107054226Y-34056051D01*
X106915827Y-33998725D01*
X106915819Y-33998723D01*
X106768904Y-33969500D01*
X106768900Y-33969500D01*
X106619094Y-33969500D01*
X106619089Y-33969500D01*
X106472174Y-33998723D01*
X106472166Y-33998725D01*
X106333767Y-34056051D01*
X106333758Y-34056056D01*
X106209206Y-34139280D01*
X106209202Y-34139283D01*
X106103280Y-34245205D01*
X106103277Y-34245209D01*
X106020053Y-34369761D01*
X106020048Y-34369770D01*
X105962722Y-34508169D01*
X105962720Y-34508177D01*
X105933497Y-34655092D01*
X94754491Y-34655092D01*
X94826499Y-34575644D01*
X94835079Y-34567065D01*
X95102352Y-34324827D01*
X95111727Y-34317132D01*
X95401442Y-34102268D01*
X95411558Y-34095509D01*
X95720929Y-33910080D01*
X95731654Y-33904347D01*
X96057715Y-33750133D01*
X96068941Y-33745483D01*
X96408570Y-33623963D01*
X96420182Y-33620442D01*
X96770072Y-33532800D01*
X96781994Y-33530429D01*
X97138781Y-33477507D01*
X97150876Y-33476315D01*
X97515001Y-33458428D01*
X97521078Y-33458280D01*
X97583110Y-33458281D01*
X97583114Y-33458280D01*
X124851326Y-33458280D01*
X124914166Y-33458280D01*
X124920250Y-33458428D01*
G37*
%TD.AperFunction*%
%TD*%
M02*
