G04 #@! TF.GenerationSoftware,KiCad,Pcbnew,7.0.7*
G04 #@! TF.CreationDate,2023-09-19T02:58:36+01:00*
G04 #@! TF.ProjectId,segment-stagx,7365676d-656e-4742-9d73-746167782e6b,rev?*
G04 #@! TF.SameCoordinates,Original*
G04 #@! TF.FileFunction,Copper,L1,Top*
G04 #@! TF.FilePolarity,Positive*
%FSLAX46Y46*%
G04 Gerber Fmt 4.6, Leading zero omitted, Abs format (unit mm)*
G04 Created by KiCad (PCBNEW 7.0.7) date 2023-09-19 02:58:36*
%MOMM*%
%LPD*%
G01*
G04 APERTURE LIST*
G04 Aperture macros list*
%AMRoundRect*
0 Rectangle with rounded corners*
0 $1 Rounding radius*
0 $2 $3 $4 $5 $6 $7 $8 $9 X,Y pos of 4 corners*
0 Add a 4 corners polygon primitive as box body*
4,1,4,$2,$3,$4,$5,$6,$7,$8,$9,$2,$3,0*
0 Add four circle primitives for the rounded corners*
1,1,$1+$1,$2,$3*
1,1,$1+$1,$4,$5*
1,1,$1+$1,$6,$7*
1,1,$1+$1,$8,$9*
0 Add four rect primitives between the rounded corners*
20,1,$1+$1,$2,$3,$4,$5,0*
20,1,$1+$1,$4,$5,$6,$7,0*
20,1,$1+$1,$6,$7,$8,$9,0*
20,1,$1+$1,$8,$9,$2,$3,0*%
%AMFreePoly0*
4,1,55,15.560341,9.376199,15.413388,8.939055,15.226804,8.517302,15.002173,8.114523,14.741404,7.734141,14.446715,7.379391,14.285534,7.214466,3.535534,-3.535534,3.379560,-3.688143,3.148643,-3.881903,3.117449,-3.909157,3.107871,-3.916115,3.045257,-3.968656,2.777643,-4.156040,2.754485,-4.172866,2.748546,-4.176414,2.687778,-4.218966,2.377496,-4.398106,2.369343,-4.402978,2.367631,-4.403802,
2.309843,-4.437167,1.914329,-4.621598,1.504245,-4.770856,1.082714,-4.883805,0.652942,-4.959585,0.218201,-4.997620,-0.218201,-4.997620,-0.652942,-4.959585,-1.082714,-4.883805,-1.504245,-4.770856,-1.914329,-4.621598,-2.309843,-4.437167,-2.367631,-4.403802,-2.369343,-4.402978,-2.377496,-4.398106,-2.687778,-4.218966,-2.748546,-4.176414,-2.754485,-4.172866,-2.777643,-4.156040,-3.045257,-3.968656,
-3.107871,-3.916115,-3.117449,-3.909157,-3.148643,-3.881903,-3.379560,-3.688143,-3.535534,-3.535534,-14.285534,7.214466,-14.446715,7.379391,-14.741404,7.734142,-15.002172,8.114523,-15.226803,8.517302,-15.413388,8.939055,-15.560340,9.376199,-15.615953,9.600000,15.615953,9.600000,15.560341,9.376199,15.560341,9.376199,$1*%
%AMFreePoly1*
4,1,129,6.015063,9.695106,6.030902,9.695106,6.043715,9.685796,6.058779,9.680902,6.068088,9.668088,6.080902,9.658779,6.085796,9.643715,6.095106,9.630902,6.095106,9.615062,6.100000,9.600000,6.100000,1.000000,6.099823,0.999455,6.099994,0.998909,6.097614,0.780708,6.096346,0.776948,6.097239,0.773084,6.059204,0.338342,6.057435,0.334176,6.058066,0.329693,5.982286,-0.100079,
5.980161,-0.104075,5.980398,-0.108596,5.867449,-0.530127,5.864983,-0.533924,5.864825,-0.538447,5.715567,-0.948531,5.712780,-0.952097,5.712229,-0.956591,5.527798,-1.352105,5.524711,-1.355415,5.523770,-1.359843,5.305569,-1.737778,5.302204,-1.740807,5.300881,-1.745135,5.050571,-2.102615,5.046955,-2.105339,5.045260,-2.109536,4.764748,-2.443839,4.761382,-2.445942,4.759620,-2.449496,
4.607012,-2.605469,4.606504,-2.605734,4.606245,-2.606244,3.606245,-3.606245,3.605734,-3.606505,3.605469,-3.607012,3.449495,-3.759621,3.445941,-3.761382,3.443839,-3.764748,3.109536,-4.045261,3.105338,-4.046956,3.102615,-4.050571,2.745136,-4.300881,2.740806,-4.302204,2.737778,-4.305568,2.359843,-4.523770,2.355413,-4.524711,2.352104,-4.527798,1.956591,-4.712229,1.952097,-4.712780,
1.948531,-4.715567,1.538447,-4.864825,1.533924,-4.864983,1.530127,-4.867449,1.108596,-4.980398,1.104075,-4.980161,1.100079,-4.982286,0.670307,-5.058066,0.665823,-5.057435,0.661658,-5.059204,0.226917,-5.097239,0.222506,-5.096220,0.218201,-5.097620,-0.218201,-5.097620,-0.222506,-5.096221,-0.226916,-5.097239,-0.661658,-5.059204,-0.665823,-5.057435,-0.670307,-5.058066,-1.100079,-4.982286,
-1.104075,-4.980161,-1.108596,-4.980398,-1.530127,-4.867449,-1.533924,-4.864983,-1.538447,-4.864825,-1.948531,-4.715567,-1.952097,-4.712780,-1.956591,-4.712229,-2.352105,-4.527798,-2.355415,-4.524711,-2.359843,-4.523770,-2.737778,-4.305569,-2.740807,-4.302204,-2.745135,-4.300881,-3.102615,-4.050571,-3.105339,-4.046955,-3.109536,-4.045260,-3.443839,-3.764748,-3.445942,-3.761382,-3.449496,-3.759620,
-3.605469,-3.607012,-3.605734,-3.606504,-3.606244,-3.606245,-16.106245,8.893755,-16.106490,8.894237,-16.106970,8.894488,-16.252790,9.043345,-16.254478,9.046744,-16.257705,9.048743,-16.526831,9.366925,-16.528267,9.370439,-16.531340,9.372669,-16.653942,9.541164,-16.658857,9.556255,-16.668188,9.569098,-16.668188,9.584903,-16.673082,9.599929,-16.668188,9.615028,-16.668188,9.630902,-16.658898,9.643687,
-16.654026,9.658721,-16.641191,9.668059,-16.631861,9.680902,-16.616829,9.685785,-16.604051,9.695084,-16.588177,9.695095,-16.573082,9.700000,6.000000,9.700000,6.015063,9.695106,6.015063,9.695106,$1*%
%AMFreePoly2*
4,1,129,16.588176,9.695095,16.604052,9.695084,16.616831,9.685785,16.631861,9.680902,16.641191,9.668060,16.654026,9.658721,16.658899,9.643687,16.668188,9.630902,16.668188,9.615030,16.673083,9.599929,16.668188,9.584900,16.668188,9.569098,16.658857,9.556256,16.653942,9.541164,16.531338,9.372669,16.528265,9.370440,16.526830,9.366927,16.257704,9.048744,16.254477,9.046745,16.252789,9.043346,
16.106970,8.894488,16.106490,8.894237,16.106245,8.893756,3.606245,-3.606245,3.605734,-3.606505,3.605469,-3.607012,3.449495,-3.759621,3.445941,-3.761382,3.443839,-3.764748,3.109536,-4.045261,3.105338,-4.046956,3.102615,-4.050571,2.745136,-4.300881,2.740806,-4.302204,2.737778,-4.305568,2.359843,-4.523770,2.355413,-4.524711,2.352104,-4.527798,1.956591,-4.712229,1.952097,-4.712780,
1.948531,-4.715567,1.538447,-4.864825,1.533924,-4.864983,1.530127,-4.867449,1.108596,-4.980398,1.104075,-4.980161,1.100079,-4.982286,0.670307,-5.058066,0.665823,-5.057435,0.661658,-5.059204,0.226917,-5.097239,0.222506,-5.096220,0.218201,-5.097620,-0.218201,-5.097620,-0.222506,-5.096221,-0.226916,-5.097239,-0.661658,-5.059204,-0.665823,-5.057435,-0.670307,-5.058066,-1.100079,-4.982286,
-1.104075,-4.980161,-1.108596,-4.980398,-1.530127,-4.867449,-1.533924,-4.864983,-1.538447,-4.864825,-1.948531,-4.715567,-1.952097,-4.712780,-1.956591,-4.712229,-2.352105,-4.527798,-2.355415,-4.524711,-2.359843,-4.523770,-2.737778,-4.305569,-2.740807,-4.302204,-2.745135,-4.300881,-3.102615,-4.050571,-3.105339,-4.046955,-3.109536,-4.045260,-3.443839,-3.764748,-3.445942,-3.761382,-3.449496,-3.759620,
-3.605469,-3.607012,-3.605734,-3.606504,-3.606244,-3.606245,-4.606245,-2.606245,-4.606497,-2.605749,-4.606990,-2.605492,-4.759649,-2.449564,-4.761420,-2.445995,-4.764797,-2.443885,-5.045315,-2.109577,-5.047011,-2.105378,-5.050625,-2.102655,-5.300938,-1.745172,-5.302261,-1.740842,-5.305625,-1.737814,-5.523830,-1.359874,-5.524771,-1.355446,-5.527858,-1.352136,-5.712292,-0.956617,-5.712843,-0.952123,
-5.715630,-0.948557,-5.864890,-0.538468,-5.865048,-0.533945,-5.867514,-0.530148,-5.980465,-0.108610,-5.980228,-0.104089,-5.982353,-0.100093,-6.058134,0.329684,-6.057503,0.334167,-6.059272,0.338333,-6.097307,0.773081,-6.096411,0.776961,-6.097682,0.780737,-6.099994,0.998941,-6.099828,0.999470,-6.100000,1.000000,-6.100000,9.600000,-6.095106,9.615062,-6.095106,9.630902,-6.085796,9.643715,
-6.080902,9.658779,-6.068088,9.668088,-6.058779,9.680902,-6.043715,9.685796,-6.030902,9.695106,-6.015063,9.695106,-6.000000,9.700000,16.573082,9.700000,16.588176,9.695095,16.588176,9.695095,$1*%
G04 Aperture macros list end*
G04 #@! TA.AperFunction,WasherPad*
%ADD10RoundRect,0.500000X2.500000X0.000000X-2.500000X0.000000X-2.500000X0.000000X2.500000X0.000000X0*%
G04 #@! TD*
G04 #@! TA.AperFunction,ComponentPad*
%ADD11FreePoly0,180.000000*%
G04 #@! TD*
G04 #@! TA.AperFunction,WasherPad*
%ADD12RoundRect,0.500000X-2.500000X0.000000X2.500000X0.000000X2.500000X0.000000X-2.500000X0.000000X0*%
G04 #@! TD*
G04 #@! TA.AperFunction,ComponentPad*
%ADD13FreePoly1,0.000000*%
G04 #@! TD*
G04 #@! TA.AperFunction,ComponentPad*
%ADD14RoundRect,0.350000X-0.494975X0.000000X0.000000X-0.494975X0.494975X0.000000X0.000000X0.494975X0*%
G04 #@! TD*
G04 #@! TA.AperFunction,ComponentPad*
%ADD15C,1.400000*%
G04 #@! TD*
G04 #@! TA.AperFunction,ComponentPad*
%ADD16RoundRect,0.350000X0.350000X-0.350000X0.350000X0.350000X-0.350000X0.350000X-0.350000X-0.350000X0*%
G04 #@! TD*
G04 #@! TA.AperFunction,ComponentPad*
%ADD17FreePoly0,0.000000*%
G04 #@! TD*
G04 #@! TA.AperFunction,ComponentPad*
%ADD18FreePoly2,0.000000*%
G04 #@! TD*
G04 #@! TA.AperFunction,Conductor*
%ADD19C,0.500000*%
G04 #@! TD*
G04 APERTURE END LIST*
D10*
X251500000Y-120200000D03*
D11*
X251500000Y-128200000D03*
D10*
X298200000Y-120200000D03*
D11*
X298200000Y-128200000D03*
D12*
X368100000Y-91200000D03*
D13*
X368100000Y-83200000D03*
D14*
X71782233Y-106682233D03*
D15*
X75317767Y-110217767D03*
D14*
X74032233Y-104432233D03*
D15*
X77567767Y-107967767D03*
D10*
X344800000Y-120200000D03*
D11*
X344800000Y-128200000D03*
D14*
X65032233Y-113432233D03*
D15*
X68567767Y-116967767D03*
D10*
X111800000Y-120200000D03*
D11*
X111800000Y-128200000D03*
D15*
X74750000Y-128000000D03*
D16*
X74750000Y-133000000D03*
D12*
X181700000Y-91200000D03*
D17*
X181700000Y-83200000D03*
D14*
X78532233Y-99932233D03*
D15*
X82067767Y-103467767D03*
D10*
X205000000Y-120200000D03*
D11*
X205000000Y-128200000D03*
D12*
X135100000Y-91200000D03*
D17*
X135100000Y-83200000D03*
D10*
X158400000Y-120200000D03*
D11*
X158400000Y-128200000D03*
D12*
X88500000Y-91200000D03*
D18*
X88500000Y-83200000D03*
D12*
X321500000Y-91200000D03*
D17*
X321500000Y-83200000D03*
D15*
X81250000Y-128000000D03*
D16*
X81250000Y-133000000D03*
D15*
X78000000Y-128000000D03*
D16*
X78000000Y-133000000D03*
D15*
X65000000Y-128000000D03*
D16*
X65000000Y-133000000D03*
D14*
X76282233Y-102182233D03*
D15*
X79817767Y-105717767D03*
D14*
X67282233Y-111182233D03*
D15*
X70817767Y-114717767D03*
D12*
X274900000Y-91200000D03*
D17*
X274900000Y-83200000D03*
D15*
X68250000Y-128000000D03*
D16*
X68250000Y-133000000D03*
D14*
X69532233Y-108932233D03*
D15*
X73067767Y-112467767D03*
D12*
X228300000Y-91200000D03*
D17*
X228300000Y-83200000D03*
D15*
X71500000Y-128000000D03*
D16*
X71500000Y-133000000D03*
D19*
X111800000Y-128200000D02*
X109600000Y-126000000D01*
X109600000Y-126000000D02*
X83250000Y-126000000D01*
X83250000Y-126000000D02*
X81250000Y-128000000D01*
X68567767Y-116967767D02*
X91038833Y-116967767D01*
X91038833Y-116967767D02*
X108106600Y-99900000D01*
X108106600Y-99900000D02*
X351400000Y-99900000D01*
X351400000Y-99900000D02*
X368100000Y-83200000D01*
X91167513Y-114717767D02*
X70817767Y-114717767D01*
X321500000Y-83200000D02*
X306300000Y-98400000D01*
X306300000Y-98400000D02*
X107485280Y-98400000D01*
X107485280Y-98400000D02*
X91167513Y-114717767D01*
X73067767Y-112467767D02*
X91296193Y-112467767D01*
X106863960Y-96900000D02*
X261200000Y-96900000D01*
X91296193Y-112467767D02*
X106863960Y-96900000D01*
X261200000Y-96900000D02*
X274900000Y-83200000D01*
X106242640Y-95400000D02*
X91424873Y-110217767D01*
X91424873Y-110217767D02*
X75317767Y-110217767D01*
X216100000Y-95400000D02*
X106242640Y-95400000D01*
X228300000Y-83200000D02*
X216100000Y-95400000D01*
X77567767Y-107967767D02*
X91553553Y-107967767D01*
X105621320Y-93900000D02*
X171000000Y-93900000D01*
X91553553Y-107967767D02*
X105621320Y-93900000D01*
X171000000Y-93900000D02*
X181700000Y-83200000D01*
X125900000Y-92400000D02*
X105000000Y-92400000D01*
X135100000Y-83200000D02*
X125900000Y-92400000D01*
X105000000Y-92400000D02*
X91682233Y-105717767D01*
X91682233Y-105717767D02*
X79817767Y-105717767D01*
X78032233Y-121467767D02*
X92902793Y-121467767D01*
X100213200Y-118400000D02*
X148600000Y-118400000D01*
X71500000Y-128000000D02*
X78032233Y-121467767D01*
X92902793Y-121467767D02*
X98970560Y-115400000D01*
X205000000Y-128200000D02*
X193700000Y-116900000D01*
X99591880Y-116900000D02*
X93524113Y-122967767D01*
X238700000Y-115400000D02*
X251500000Y-128200000D01*
X93524113Y-122967767D02*
X79782233Y-122967767D01*
X79782233Y-122967767D02*
X74750000Y-128000000D01*
X78000000Y-128000000D02*
X81532233Y-124467767D01*
X94145433Y-124467767D02*
X100213200Y-118400000D01*
X76282233Y-119967767D02*
X92281473Y-119967767D01*
X148600000Y-118400000D02*
X158400000Y-128200000D01*
X283900000Y-113900000D02*
X298200000Y-128200000D01*
X193700000Y-116900000D02*
X99591880Y-116900000D01*
X68250000Y-128000000D02*
X76282233Y-119967767D01*
X98970560Y-115400000D02*
X238700000Y-115400000D01*
X98349240Y-113900000D02*
X283900000Y-113900000D01*
X92281473Y-119967767D02*
X98349240Y-113900000D01*
X81532233Y-124467767D02*
X94145433Y-124467767D01*
X65000000Y-128000000D02*
X74532233Y-118467767D01*
X74532233Y-118467767D02*
X91660153Y-118467767D01*
X91660153Y-118467767D02*
X97727920Y-112400000D01*
X329000000Y-112400000D02*
X344800000Y-128200000D01*
X97727920Y-112400000D02*
X329000000Y-112400000D01*
X81250000Y-133000000D02*
X81250000Y-128000000D01*
X78000000Y-133000000D02*
X78000000Y-128000000D01*
X74750000Y-128000000D02*
X74750000Y-133000000D01*
X71500000Y-133000000D02*
X71500000Y-128000000D01*
X68250000Y-128000000D02*
X68250000Y-133000000D01*
X65000000Y-133000000D02*
X65000000Y-128000000D01*
X65032233Y-113432233D02*
X68567767Y-116967767D01*
X70817767Y-114717767D02*
X67282233Y-111182233D01*
X69532233Y-108932233D02*
X73067767Y-112467767D01*
X75317767Y-110217767D02*
X71782233Y-106682233D01*
X74032233Y-104432233D02*
X77567767Y-107967767D01*
X79817767Y-105717767D02*
X76282233Y-102182233D01*
X82067767Y-103467767D02*
X78532233Y-99932233D01*
X88500000Y-83200000D02*
X88500000Y-86225126D01*
X88500000Y-86225126D02*
X82067767Y-92657359D01*
X82067767Y-92657359D02*
X82067767Y-103467767D01*
M02*
