M48
; DRILL file {KiCad 7.0.7} date Tue Sep 19 02:58:41 2023
; FORMAT={-:-/ absolute / metric / decimal}
; #@! TF.CreationDate,2023-09-19T02:58:41+01:00
; #@! TF.GenerationSoftware,Kicad,Pcbnew,7.0.7
; #@! TF.FileFunction,Plated,1,2,PTH
FMAT,2
METRIC
; #@! TA.AperFunction,Plated,PTH,ComponentDrill
T1C0.700
; #@! TA.AperFunction,Plated,PTH,ComponentDrill
T2C6.350
%
G90
G05
T1
X65.0Y-128.0
X65.0Y-133.0
X65.032Y-113.432
X67.282Y-111.182
X68.25Y-128.0
X68.25Y-133.0
X68.568Y-116.968
X69.532Y-108.932
X70.818Y-114.718
X71.5Y-128.0
X71.5Y-133.0
X71.782Y-106.682
X73.068Y-112.468
X74.032Y-104.432
X74.75Y-128.0
X74.75Y-133.0
X75.318Y-110.218
X76.282Y-102.182
X77.568Y-107.968
X78.0Y-128.0
X78.0Y-133.0
X78.532Y-99.932
X79.818Y-105.718
X81.25Y-128.0
X81.25Y-133.0
X82.068Y-103.468
T2
X88.5Y-83.2
X111.8Y-128.2
X135.1Y-83.2
X158.4Y-128.2
X181.7Y-83.2
X205.0Y-128.2
X228.3Y-83.2
X251.5Y-128.2
X274.9Y-83.2
X298.2Y-128.2
X321.5Y-83.2
X344.8Y-128.2
X368.1Y-83.2
T0
M30
