G04 #@! TF.GenerationSoftware,KiCad,Pcbnew,7.0.7*
G04 #@! TF.CreationDate,2023-09-19T02:58:38+01:00*
G04 #@! TF.ProjectId,segment-stagx,7365676d-656e-4742-9d73-746167782e6b,rev?*
G04 #@! TF.SameCoordinates,Original*
G04 #@! TF.FileFunction,Profile,NP*
%FSLAX46Y46*%
G04 Gerber Fmt 4.6, Leading zero omitted, Abs format (unit mm)*
G04 Created by KiCad (PCBNEW 7.0.7) date 2023-09-19 02:58:38*
%MOMM*%
%LPD*%
G01*
G04 APERTURE LIST*
G04 #@! TA.AperFunction,Profile*
%ADD10C,0.150000*%
G04 #@! TD*
G04 #@! TA.AperFunction,Profile*
%ADD11C,0.050000*%
G04 #@! TD*
G04 APERTURE END LIST*
D10*
X62878660Y-110521300D02*
G75*
G03*
X62000000Y-112642641I2121340J-2121300D01*
G01*
D11*
X348300000Y-80200000D02*
G75*
G03*
X348300000Y-80200000I-3500000J0D01*
G01*
X301700000Y-80200000D02*
G75*
G03*
X301700000Y-80200000I-3500000J0D01*
G01*
X255100000Y-80200000D02*
G75*
G03*
X255100000Y-80200000I-3500000J0D01*
G01*
X208500000Y-80200000D02*
G75*
G03*
X208500000Y-80200000I-3500000J0D01*
G01*
X161900000Y-80200000D02*
G75*
G03*
X161900000Y-80200000I-3500000J0D01*
G01*
X115300000Y-80200000D02*
G75*
G03*
X115300000Y-80200000I-3500000J0D01*
G01*
X325000000Y-131200000D02*
G75*
G03*
X325000000Y-131200000I-3500000J0D01*
G01*
X278400000Y-131200000D02*
G75*
G03*
X278400000Y-131200000I-3500000J0D01*
G01*
X231800000Y-131200000D02*
G75*
G03*
X231800000Y-131200000I-3500000J0D01*
G01*
X185200000Y-131200000D02*
G75*
G03*
X185200000Y-131200000I-3500000J0D01*
G01*
X138600000Y-131200000D02*
G75*
G03*
X138600000Y-131200000I-3500000J0D01*
G01*
D10*
X376900000Y-76200000D02*
G75*
G03*
X373900000Y-73200000I-3000000J0D01*
G01*
X75721341Y-97678699D02*
G75*
G03*
X76600000Y-95557359I-2121341J2121299D01*
G01*
X62878680Y-110521320D02*
X75721321Y-97678679D01*
X79600000Y-73200000D02*
G75*
G03*
X76600000Y-76200000I0J-3000000D01*
G01*
X79600000Y-73200000D02*
X373900000Y-73200000D01*
X76600000Y-95557359D02*
X76600000Y-76200000D01*
X359800000Y-138200000D02*
G75*
G03*
X362800000Y-135200000I0J3000000D01*
G01*
X62000000Y-135200000D02*
G75*
G03*
X65000000Y-138200000I3000000J0D01*
G01*
X62000000Y-135200000D02*
X62000000Y-112642641D01*
X359800000Y-138200000D02*
X65000000Y-138200000D01*
X363860331Y-101651301D02*
G75*
G03*
X362800000Y-103939949I1939669J-2288599D01*
G01*
X362800000Y-103939949D02*
X362800000Y-135200000D01*
X375839669Y-91498699D02*
G75*
G03*
X376900000Y-89210051I-1939669J2288599D01*
G01*
X376900000Y-76200000D02*
X376900000Y-89210051D01*
X375839645Y-91498670D02*
X363860355Y-101651330D01*
D11*
X92000000Y-131200000D02*
G75*
G03*
X92000000Y-131200000I-3500000J0D01*
G01*
M02*
