%TF.GenerationSoftware,KiCad,Pcbnew,7.0.8*%
%TF.CreationDate,2023-11-14T20:38:34+00:00*%
%TF.ProjectId,tem,74656d2e-6b69-4636-9164-5f7063625858,rev?*%
%TF.SameCoordinates,Original*%
%TF.FileFunction,Legend,Bot*%
%TF.FilePolarity,Positive*%
%FSLAX46Y46*%
G04 Gerber Fmt 4.6, Leading zero omitted, Abs format (unit mm)*
G04 Created by KiCad (PCBNEW 7.0.8) date 2023-11-14 20:38:34*
%MOMM*%
%LPD*%
G01*
G04 APERTURE LIST*
%ADD10C,0.500000*%
%ADD11C,0.150000*%
%ADD12C,0.200000*%
G04 APERTURE END LIST*
D10*
X334271428Y-152111857D02*
X334271428Y-149111857D01*
X334271428Y-149111857D02*
X332557142Y-152111857D01*
X332557142Y-152111857D02*
X332557142Y-149111857D01*
X330699999Y-152111857D02*
X330985714Y-151969000D01*
X330985714Y-151969000D02*
X331128571Y-151826142D01*
X331128571Y-151826142D02*
X331271428Y-151540428D01*
X331271428Y-151540428D02*
X331271428Y-150683285D01*
X331271428Y-150683285D02*
X331128571Y-150397571D01*
X331128571Y-150397571D02*
X330985714Y-150254714D01*
X330985714Y-150254714D02*
X330699999Y-150111857D01*
X330699999Y-150111857D02*
X330271428Y-150111857D01*
X330271428Y-150111857D02*
X329985714Y-150254714D01*
X329985714Y-150254714D02*
X329842857Y-150397571D01*
X329842857Y-150397571D02*
X329699999Y-150683285D01*
X329699999Y-150683285D02*
X329699999Y-151540428D01*
X329699999Y-151540428D02*
X329842857Y-151826142D01*
X329842857Y-151826142D02*
X329985714Y-151969000D01*
X329985714Y-151969000D02*
X330271428Y-152111857D01*
X330271428Y-152111857D02*
X330699999Y-152111857D01*
X328699999Y-150111857D02*
X328128571Y-152111857D01*
X328128571Y-152111857D02*
X327557142Y-150683285D01*
X327557142Y-150683285D02*
X326985713Y-152111857D01*
X326985713Y-152111857D02*
X326414285Y-150111857D01*
X323414285Y-150111857D02*
X322271428Y-150111857D01*
X322985714Y-149111857D02*
X322985714Y-151683285D01*
X322985714Y-151683285D02*
X322842857Y-151969000D01*
X322842857Y-151969000D02*
X322557142Y-152111857D01*
X322557142Y-152111857D02*
X322271428Y-152111857D01*
X321271428Y-152111857D02*
X321271428Y-149111857D01*
X319985714Y-152111857D02*
X319985714Y-150540428D01*
X319985714Y-150540428D02*
X320128571Y-150254714D01*
X320128571Y-150254714D02*
X320414285Y-150111857D01*
X320414285Y-150111857D02*
X320842856Y-150111857D01*
X320842856Y-150111857D02*
X321128571Y-150254714D01*
X321128571Y-150254714D02*
X321271428Y-150397571D01*
X317271428Y-152111857D02*
X317271428Y-150540428D01*
X317271428Y-150540428D02*
X317414285Y-150254714D01*
X317414285Y-150254714D02*
X317699999Y-150111857D01*
X317699999Y-150111857D02*
X318271428Y-150111857D01*
X318271428Y-150111857D02*
X318557142Y-150254714D01*
X317271428Y-151969000D02*
X317557142Y-152111857D01*
X317557142Y-152111857D02*
X318271428Y-152111857D01*
X318271428Y-152111857D02*
X318557142Y-151969000D01*
X318557142Y-151969000D02*
X318699999Y-151683285D01*
X318699999Y-151683285D02*
X318699999Y-151397571D01*
X318699999Y-151397571D02*
X318557142Y-151111857D01*
X318557142Y-151111857D02*
X318271428Y-150969000D01*
X318271428Y-150969000D02*
X317557142Y-150969000D01*
X317557142Y-150969000D02*
X317271428Y-150826142D01*
X316271427Y-150111857D02*
X315128570Y-150111857D01*
X315842856Y-149111857D02*
X315842856Y-151683285D01*
X315842856Y-151683285D02*
X315699999Y-151969000D01*
X315699999Y-151969000D02*
X315414284Y-152111857D01*
X315414284Y-152111857D02*
X315128570Y-152111857D01*
X313985713Y-149111857D02*
X314271427Y-149683285D01*
X312842856Y-151969000D02*
X312557142Y-152111857D01*
X312557142Y-152111857D02*
X311985713Y-152111857D01*
X311985713Y-152111857D02*
X311699999Y-151969000D01*
X311699999Y-151969000D02*
X311557142Y-151683285D01*
X311557142Y-151683285D02*
X311557142Y-151540428D01*
X311557142Y-151540428D02*
X311699999Y-151254714D01*
X311699999Y-151254714D02*
X311985713Y-151111857D01*
X311985713Y-151111857D02*
X312414285Y-151111857D01*
X312414285Y-151111857D02*
X312699999Y-150969000D01*
X312699999Y-150969000D02*
X312842856Y-150683285D01*
X312842856Y-150683285D02*
X312842856Y-150540428D01*
X312842856Y-150540428D02*
X312699999Y-150254714D01*
X312699999Y-150254714D02*
X312414285Y-150111857D01*
X312414285Y-150111857D02*
X311985713Y-150111857D01*
X311985713Y-150111857D02*
X311699999Y-150254714D01*
X306700000Y-152111857D02*
X306700000Y-150540428D01*
X306700000Y-150540428D02*
X306842857Y-150254714D01*
X306842857Y-150254714D02*
X307128571Y-150111857D01*
X307128571Y-150111857D02*
X307700000Y-150111857D01*
X307700000Y-150111857D02*
X307985714Y-150254714D01*
X306700000Y-151969000D02*
X306985714Y-152111857D01*
X306985714Y-152111857D02*
X307700000Y-152111857D01*
X307700000Y-152111857D02*
X307985714Y-151969000D01*
X307985714Y-151969000D02*
X308128571Y-151683285D01*
X308128571Y-151683285D02*
X308128571Y-151397571D01*
X308128571Y-151397571D02*
X307985714Y-151111857D01*
X307985714Y-151111857D02*
X307700000Y-150969000D01*
X307700000Y-150969000D02*
X306985714Y-150969000D01*
X306985714Y-150969000D02*
X306700000Y-150826142D01*
X301985714Y-150540428D02*
X301557142Y-150683285D01*
X301557142Y-150683285D02*
X301414285Y-150826142D01*
X301414285Y-150826142D02*
X301271428Y-151111857D01*
X301271428Y-151111857D02*
X301271428Y-151540428D01*
X301271428Y-151540428D02*
X301414285Y-151826142D01*
X301414285Y-151826142D02*
X301557142Y-151969000D01*
X301557142Y-151969000D02*
X301842857Y-152111857D01*
X301842857Y-152111857D02*
X302985714Y-152111857D01*
X302985714Y-152111857D02*
X302985714Y-149111857D01*
X302985714Y-149111857D02*
X301985714Y-149111857D01*
X301985714Y-149111857D02*
X301700000Y-149254714D01*
X301700000Y-149254714D02*
X301557142Y-149397571D01*
X301557142Y-149397571D02*
X301414285Y-149683285D01*
X301414285Y-149683285D02*
X301414285Y-149969000D01*
X301414285Y-149969000D02*
X301557142Y-150254714D01*
X301557142Y-150254714D02*
X301700000Y-150397571D01*
X301700000Y-150397571D02*
X301985714Y-150540428D01*
X301985714Y-150540428D02*
X302985714Y-150540428D01*
X299557142Y-152111857D02*
X299842857Y-151969000D01*
X299842857Y-151969000D02*
X299985714Y-151826142D01*
X299985714Y-151826142D02*
X300128571Y-151540428D01*
X300128571Y-151540428D02*
X300128571Y-150683285D01*
X300128571Y-150683285D02*
X299985714Y-150397571D01*
X299985714Y-150397571D02*
X299842857Y-150254714D01*
X299842857Y-150254714D02*
X299557142Y-150111857D01*
X299557142Y-150111857D02*
X299128571Y-150111857D01*
X299128571Y-150111857D02*
X298842857Y-150254714D01*
X298842857Y-150254714D02*
X298700000Y-150397571D01*
X298700000Y-150397571D02*
X298557142Y-150683285D01*
X298557142Y-150683285D02*
X298557142Y-151540428D01*
X298557142Y-151540428D02*
X298700000Y-151826142D01*
X298700000Y-151826142D02*
X298842857Y-151969000D01*
X298842857Y-151969000D02*
X299128571Y-152111857D01*
X299128571Y-152111857D02*
X299557142Y-152111857D01*
X297414285Y-151969000D02*
X297128571Y-152111857D01*
X297128571Y-152111857D02*
X296557142Y-152111857D01*
X296557142Y-152111857D02*
X296271428Y-151969000D01*
X296271428Y-151969000D02*
X296128571Y-151683285D01*
X296128571Y-151683285D02*
X296128571Y-151540428D01*
X296128571Y-151540428D02*
X296271428Y-151254714D01*
X296271428Y-151254714D02*
X296557142Y-151111857D01*
X296557142Y-151111857D02*
X296985714Y-151111857D01*
X296985714Y-151111857D02*
X297271428Y-150969000D01*
X297271428Y-150969000D02*
X297414285Y-150683285D01*
X297414285Y-150683285D02*
X297414285Y-150540428D01*
X297414285Y-150540428D02*
X297271428Y-150254714D01*
X297271428Y-150254714D02*
X296985714Y-150111857D01*
X296985714Y-150111857D02*
X296557142Y-150111857D01*
X296557142Y-150111857D02*
X296271428Y-150254714D01*
X294842857Y-152111857D02*
X294842857Y-149111857D01*
X293557143Y-152111857D02*
X293557143Y-150540428D01*
X293557143Y-150540428D02*
X293700000Y-150254714D01*
X293700000Y-150254714D02*
X293985714Y-150111857D01*
X293985714Y-150111857D02*
X294414285Y-150111857D01*
X294414285Y-150111857D02*
X294700000Y-150254714D01*
X294700000Y-150254714D02*
X294842857Y-150397571D01*
X292128571Y-151826142D02*
X291985714Y-151969000D01*
X291985714Y-151969000D02*
X292128571Y-152111857D01*
X292128571Y-152111857D02*
X292271428Y-151969000D01*
X292271428Y-151969000D02*
X292128571Y-151826142D01*
X292128571Y-151826142D02*
X292128571Y-152111857D01*
X292128571Y-150969000D02*
X292271428Y-149254714D01*
X292271428Y-149254714D02*
X292128571Y-149111857D01*
X292128571Y-149111857D02*
X291985714Y-149254714D01*
X291985714Y-149254714D02*
X292128571Y-150969000D01*
X292128571Y-150969000D02*
X292128571Y-149111857D01*
D11*
X68507506Y-161039819D02*
X68507506Y-161754104D01*
X68507506Y-161754104D02*
X68555125Y-161896961D01*
X68555125Y-161896961D02*
X68650363Y-161992200D01*
X68650363Y-161992200D02*
X68793220Y-162039819D01*
X68793220Y-162039819D02*
X68888458Y-162039819D01*
X67555125Y-162039819D02*
X68031315Y-162039819D01*
X68031315Y-162039819D02*
X68031315Y-161039819D01*
X66650363Y-161944580D02*
X66697982Y-161992200D01*
X66697982Y-161992200D02*
X66840839Y-162039819D01*
X66840839Y-162039819D02*
X66936077Y-162039819D01*
X66936077Y-162039819D02*
X67078934Y-161992200D01*
X67078934Y-161992200D02*
X67174172Y-161896961D01*
X67174172Y-161896961D02*
X67221791Y-161801723D01*
X67221791Y-161801723D02*
X67269410Y-161611247D01*
X67269410Y-161611247D02*
X67269410Y-161468390D01*
X67269410Y-161468390D02*
X67221791Y-161277914D01*
X67221791Y-161277914D02*
X67174172Y-161182676D01*
X67174172Y-161182676D02*
X67078934Y-161087438D01*
X67078934Y-161087438D02*
X66936077Y-161039819D01*
X66936077Y-161039819D02*
X66840839Y-161039819D01*
X66840839Y-161039819D02*
X66697982Y-161087438D01*
X66697982Y-161087438D02*
X66650363Y-161135057D01*
X65936077Y-161039819D02*
X65936077Y-161754104D01*
X65936077Y-161754104D02*
X65983696Y-161896961D01*
X65983696Y-161896961D02*
X66078934Y-161992200D01*
X66078934Y-161992200D02*
X66221791Y-162039819D01*
X66221791Y-162039819D02*
X66317029Y-162039819D01*
X64983696Y-162039819D02*
X65459886Y-162039819D01*
X65459886Y-162039819D02*
X65459886Y-161039819D01*
X64078934Y-161944580D02*
X64126553Y-161992200D01*
X64126553Y-161992200D02*
X64269410Y-162039819D01*
X64269410Y-162039819D02*
X64364648Y-162039819D01*
X64364648Y-162039819D02*
X64507505Y-161992200D01*
X64507505Y-161992200D02*
X64602743Y-161896961D01*
X64602743Y-161896961D02*
X64650362Y-161801723D01*
X64650362Y-161801723D02*
X64697981Y-161611247D01*
X64697981Y-161611247D02*
X64697981Y-161468390D01*
X64697981Y-161468390D02*
X64650362Y-161277914D01*
X64650362Y-161277914D02*
X64602743Y-161182676D01*
X64602743Y-161182676D02*
X64507505Y-161087438D01*
X64507505Y-161087438D02*
X64364648Y-161039819D01*
X64364648Y-161039819D02*
X64269410Y-161039819D01*
X64269410Y-161039819D02*
X64126553Y-161087438D01*
X64126553Y-161087438D02*
X64078934Y-161135057D01*
X63364648Y-161039819D02*
X63364648Y-161754104D01*
X63364648Y-161754104D02*
X63412267Y-161896961D01*
X63412267Y-161896961D02*
X63507505Y-161992200D01*
X63507505Y-161992200D02*
X63650362Y-162039819D01*
X63650362Y-162039819D02*
X63745600Y-162039819D01*
X62412267Y-162039819D02*
X62888457Y-162039819D01*
X62888457Y-162039819D02*
X62888457Y-161039819D01*
X61507505Y-161944580D02*
X61555124Y-161992200D01*
X61555124Y-161992200D02*
X61697981Y-162039819D01*
X61697981Y-162039819D02*
X61793219Y-162039819D01*
X61793219Y-162039819D02*
X61936076Y-161992200D01*
X61936076Y-161992200D02*
X62031314Y-161896961D01*
X62031314Y-161896961D02*
X62078933Y-161801723D01*
X62078933Y-161801723D02*
X62126552Y-161611247D01*
X62126552Y-161611247D02*
X62126552Y-161468390D01*
X62126552Y-161468390D02*
X62078933Y-161277914D01*
X62078933Y-161277914D02*
X62031314Y-161182676D01*
X62031314Y-161182676D02*
X61936076Y-161087438D01*
X61936076Y-161087438D02*
X61793219Y-161039819D01*
X61793219Y-161039819D02*
X61697981Y-161039819D01*
X61697981Y-161039819D02*
X61555124Y-161087438D01*
X61555124Y-161087438D02*
X61507505Y-161135057D01*
X60793219Y-161039819D02*
X60793219Y-161754104D01*
X60793219Y-161754104D02*
X60840838Y-161896961D01*
X60840838Y-161896961D02*
X60936076Y-161992200D01*
X60936076Y-161992200D02*
X61078933Y-162039819D01*
X61078933Y-162039819D02*
X61174171Y-162039819D01*
X59840838Y-162039819D02*
X60317028Y-162039819D01*
X60317028Y-162039819D02*
X60317028Y-161039819D01*
X58936076Y-161944580D02*
X58983695Y-161992200D01*
X58983695Y-161992200D02*
X59126552Y-162039819D01*
X59126552Y-162039819D02*
X59221790Y-162039819D01*
X59221790Y-162039819D02*
X59364647Y-161992200D01*
X59364647Y-161992200D02*
X59459885Y-161896961D01*
X59459885Y-161896961D02*
X59507504Y-161801723D01*
X59507504Y-161801723D02*
X59555123Y-161611247D01*
X59555123Y-161611247D02*
X59555123Y-161468390D01*
X59555123Y-161468390D02*
X59507504Y-161277914D01*
X59507504Y-161277914D02*
X59459885Y-161182676D01*
X59459885Y-161182676D02*
X59364647Y-161087438D01*
X59364647Y-161087438D02*
X59221790Y-161039819D01*
X59221790Y-161039819D02*
X59126552Y-161039819D01*
X59126552Y-161039819D02*
X58983695Y-161087438D01*
X58983695Y-161087438D02*
X58936076Y-161135057D01*
%LPC*%
D12*
%TO.C,REF\u002A\u002A*%
X337325000Y-172815000D02*
X326675000Y-172815000D01*
X326675000Y-172815000D02*
X326675000Y-179385000D01*
X326675000Y-179385000D02*
X337325000Y-179385000D01*
X337325000Y-179385000D02*
X337325000Y-172815000D01*
G36*
X337325000Y-172815000D02*
G01*
X326675000Y-172815000D01*
X326675000Y-179385000D01*
X337325000Y-179385000D01*
X337325000Y-172815000D01*
G37*
%TD*%
%LPD*%
M02*
