M48
; DRILL file {KiCad 7.0.8-1.fc38} date Thu 16 Nov 2023 11:23:11 GMT
; FORMAT={-:-/ absolute / inch / decimal}
; #@! TF.CreationDate,2023-11-16T11:23:11+00:00
; #@! TF.GenerationSoftware,Kicad,Pcbnew,7.0.8-1.fc38
; #@! TF.FileFunction,Plated,1,2,PTH
FMAT,2
INCH
; #@! TA.AperFunction,Plated,PTH,ViaDrill
T1C0.0157
%
G90
G05
T1
X3.3661Y-5.5807
X3.3661Y-6.2992
X3.4547Y-5.5217
X3.4547Y-6.3484
X3.4941Y-5.7579
X3.5531Y-6.2992
X3.6504Y-6.2402
X3.6516Y-5.5807
X3.75Y-5.876
X3.75Y-6.2992
X3.8484Y-5.5807
X3.8484Y-6.2402
X3.9469Y-5.5315
X3.9469Y-6.3474
X4.0354Y-5.5807
X4.0354Y-6.2992
X4.1535Y-5.5807
X4.1535Y-6.3474
X4.2421Y-5.5315
X4.2421Y-6.2992
X4.2815Y-5.7579
X4.3406Y-6.2992
X4.439Y-5.5807
X4.4882Y-6.2205
X4.5374Y-6.2992
X4.5866Y-5.8661
X4.6358Y-5.5807
X4.6949Y-6.1122
X4.7244Y-5.5315
X4.7343Y-6.3474
X4.8228Y-5.5807
X4.8228Y-6.2992
X4.9409Y-5.5807
X4.9409Y-6.2992
X5.0295Y-5.5315
X5.0295Y-6.3474
X5.0591Y-5.8465
X5.128Y-6.2992
X5.2264Y-5.5807
X5.2264Y-5.9941
X5.2756Y-5.876
X5.3248Y-6.2992
X5.4232Y-5.5807
X5.5217Y-5.5315
X5.5217Y-6.3474
X5.561Y-6.1122
X5.6102Y-5.5807
X5.6102Y-6.2992
X5.7283Y-5.9154
X5.7283Y-5.9547
X5.7677Y-5.9154
X5.7677Y-5.9547
X5.8071Y-5.9154
X5.8071Y-5.9547
X6.1024Y-5.876
X6.1516Y-6.0236
X6.1516Y-6.0728
X6.1516Y-6.122
X6.4961Y-6.0236
X6.4961Y-6.0728
X6.4961Y-6.122
X6.624Y-6.0236
X6.624Y-6.0728
X6.624Y-6.122
X6.7421Y-5.9055
X6.7913Y-5.9055
X6.8256Y-5.6831
X6.8406Y-5.9055
X7.0079Y-5.6398
X7.126Y-5.8957
X7.126Y-5.935
X7.126Y-5.9744
X7.5295Y-5.8563
X7.5886Y-6.1319
X7.6673Y-6.1319
X7.7411Y-6.0901
X7.7953Y-6.3474
X7.7963Y-5.8356
X7.8346Y-5.5315
X7.874Y-5.9252
X7.874Y-6.3002
X7.8915Y-5.8541
X7.9429Y-5.5807
X7.974Y-6.1181
X7.9807Y-5.981
X8.0217Y-5.8268
X8.0217Y-5.876
X8.0685Y-5.8231
X8.0929Y-5.7922
X8.1866Y-5.8142
X8.1988Y-6.0817
X8.2152Y-5.8412
X8.2269Y-6.0345
X8.2382Y-5.876
X8.2485Y-5.8175
X8.2618Y-6.1575
X8.2933Y-5.813
X8.3011Y-6.1506
X8.3071Y-6.0935
X8.3563Y-6.1122
X8.3861Y-6.1417
X8.3967Y-5.7097
X8.435Y-6.1122
X8.4838Y-6.1127
X8.5138Y-5.9055
X8.5236Y-6.1122
X8.5276Y-6.0728
X8.5531Y-6.1811
X8.5827Y-5.7874
X8.622Y-5.7185
X8.6412Y-5.7879
X8.6516Y-6.0502
X8.7008Y-6.0482
X8.7205Y-5.7677
X8.7264Y-5.8169
X8.8189Y-5.9449
X8.8583Y-5.9055
X8.8583Y-5.9449
X8.8681Y-5.7677
X8.8976Y-5.9055
X8.8976Y-5.9449
X9.0039Y-5.8465
X9.0551Y-6.2992
X9.065Y-5.6299
X9.1043Y-5.5807
X9.1437Y-5.5315
X9.1437Y-6.3474
X9.2421Y-6.2992
X9.2913Y-6.2205
X9.3406Y-5.5807
X9.3898Y-5.8858
X9.439Y-6.2992
X9.5374Y-5.5807
X9.5965Y-6.1122
X9.6358Y-5.5315
X9.6358Y-6.3474
X9.7244Y-5.5807
X9.7244Y-6.2992
X9.8425Y-5.5807
X9.8425Y-6.2992
X9.9311Y-5.5315
X9.9311Y-6.3474
X9.9705Y-5.7579
X10.0295Y-6.2992
X10.0787Y-6.2205
X10.128Y-5.5807
X10.1772Y-5.6299
X10.2264Y-6.2992
X10.3248Y-5.5807
X10.3839Y-6.1122
X10.4232Y-5.5315
X10.4232Y-6.3474
X10.5118Y-5.5807
X10.5118Y-6.2992
X10.6201Y-5.5807
X10.6201Y-6.2992
X10.7185Y-5.5315
X10.7185Y-6.3474
X10.7579Y-5.7579
X10.8169Y-6.2992
X10.9125Y-6.2402
X10.9154Y-5.5807
X11.0138Y-5.6299
X11.0138Y-6.2992
X11.1094Y-6.2402
X11.1122Y-5.5807
X11.2106Y-5.5217
X11.2106Y-6.3484
X11.2992Y-5.5807
X11.2992Y-6.2992
T0
M30
