%TF.GenerationSoftware,KiCad,Pcbnew,7.0.8*%
%TF.CreationDate,2023-11-21T15:13:26+00:00*%
%TF.ProjectId,tem,74656d2e-6b69-4636-9164-5f7063625858,rev?*%
%TF.SameCoordinates,Original*%
%TF.FileFunction,Soldermask,Top*%
%TF.FilePolarity,Negative*%
%FSLAX46Y46*%
G04 Gerber Fmt 4.6, Leading zero omitted, Abs format (unit mm)*
G04 Created by KiCad (PCBNEW 7.0.8) date 2023-11-21 15:13:26*
%MOMM*%
%LPD*%
G01*
G04 APERTURE LIST*
G04 Aperture macros list*
%AMRoundRect*
0 Rectangle with rounded corners*
0 $1 Rounding radius*
0 $2 $3 $4 $5 $6 $7 $8 $9 X,Y pos of 4 corners*
0 Add a 4 corners polygon primitive as box body*
4,1,4,$2,$3,$4,$5,$6,$7,$8,$9,$2,$3,0*
0 Add four circle primitives for the rounded corners*
1,1,$1+$1,$2,$3*
1,1,$1+$1,$4,$5*
1,1,$1+$1,$6,$7*
1,1,$1+$1,$8,$9*
0 Add four rect primitives between the rounded corners*
20,1,$1+$1,$2,$3,$4,$5,0*
20,1,$1+$1,$4,$5,$6,$7,0*
20,1,$1+$1,$6,$7,$8,$9,0*
20,1,$1+$1,$8,$9,$2,$3,0*%
G04 Aperture macros list end*
%ADD10RoundRect,0.250000X0.450000X-0.350000X0.450000X0.350000X-0.450000X0.350000X-0.450000X-0.350000X0*%
%ADD11RoundRect,0.250000X-0.350000X-0.450000X0.350000X-0.450000X0.350000X0.450000X-0.350000X0.450000X0*%
%ADD12RoundRect,0.450000X0.450000X-2.050000X0.450000X2.050000X-0.450000X2.050000X-0.450000X-2.050000X0*%
%ADD13RoundRect,0.250000X-0.475000X0.337500X-0.475000X-0.337500X0.475000X-0.337500X0.475000X0.337500X0*%
%ADD14RoundRect,0.250000X0.475000X-0.337500X0.475000X0.337500X-0.475000X0.337500X-0.475000X-0.337500X0*%
%ADD15RoundRect,0.250000X-1.625000X0.750000X-1.625000X-0.750000X1.625000X-0.750000X1.625000X0.750000X0*%
%ADD16RoundRect,0.250000X-0.750000X-1.625000X0.750000X-1.625000X0.750000X1.625000X-0.750000X1.625000X0*%
%ADD17RoundRect,0.450000X-0.450000X2.050000X-0.450000X-2.050000X0.450000X-2.050000X0.450000X2.050000X0*%
%ADD18RoundRect,0.250000X-0.450000X0.350000X-0.450000X-0.350000X0.450000X-0.350000X0.450000X0.350000X0*%
%ADD19RoundRect,0.250000X-0.337500X-0.475000X0.337500X-0.475000X0.337500X0.475000X-0.337500X0.475000X0*%
%ADD20RoundRect,0.102000X-0.323000X0.373000X-0.323000X-0.373000X0.323000X-0.373000X0.323000X0.373000X0*%
%ADD21RoundRect,0.250000X0.412500X0.650000X-0.412500X0.650000X-0.412500X-0.650000X0.412500X-0.650000X0*%
%ADD22RoundRect,0.237500X0.237500X-0.287500X0.237500X0.287500X-0.237500X0.287500X-0.237500X-0.287500X0*%
%ADD23RoundRect,0.237500X-0.287500X-0.237500X0.287500X-0.237500X0.287500X0.237500X-0.287500X0.237500X0*%
%ADD24R,2.000000X1.500000*%
%ADD25R,2.000000X3.800000*%
%ADD26RoundRect,0.400000X2.100000X0.400000X-2.100000X0.400000X-2.100000X-0.400000X2.100000X-0.400000X0*%
%ADD27RoundRect,0.150000X0.825000X0.150000X-0.825000X0.150000X-0.825000X-0.150000X0.825000X-0.150000X0*%
%ADD28RoundRect,0.250000X-0.412500X-0.650000X0.412500X-0.650000X0.412500X0.650000X-0.412500X0.650000X0*%
%ADD29RoundRect,0.237500X0.300000X0.237500X-0.300000X0.237500X-0.300000X-0.237500X0.300000X-0.237500X0*%
%ADD30RoundRect,0.237500X-0.237500X0.300000X-0.237500X-0.300000X0.237500X-0.300000X0.237500X0.300000X0*%
%ADD31RoundRect,0.250000X-0.550000X1.500000X-0.550000X-1.500000X0.550000X-1.500000X0.550000X1.500000X0*%
%ADD32RoundRect,0.250000X0.350000X0.450000X-0.350000X0.450000X-0.350000X-0.450000X0.350000X-0.450000X0*%
%ADD33R,1.500000X0.550000*%
%ADD34R,0.550000X1.500000*%
%ADD35RoundRect,0.381000X0.381000X-0.762000X0.381000X0.762000X-0.381000X0.762000X-0.381000X-0.762000X0*%
G04 APERTURE END LIST*
D10*
%TO.C,R21*%
X244750000Y-156250000D03*
X244750000Y-154250000D03*
%TD*%
D11*
%TO.C,R32*%
X222750000Y-155500000D03*
X224750000Y-155500000D03*
%TD*%
D10*
%TO.C,R15*%
X284750000Y-156250000D03*
X284750000Y-154250000D03*
%TD*%
D12*
%TO.C,J5*%
X254750000Y-146250000D03*
X257250000Y-146250000D03*
X259750000Y-146250000D03*
X262250000Y-146250000D03*
%TD*%
D13*
%TO.C,C14*%
X250000000Y-154212500D03*
X250000000Y-156287500D03*
%TD*%
%TO.C,C19*%
X230000000Y-154212500D03*
X230000000Y-156287500D03*
%TD*%
D14*
%TO.C,C15*%
X250000000Y-147287500D03*
X250000000Y-145212500D03*
%TD*%
D15*
%TO.C,F1*%
X177750000Y-151000000D03*
X177750000Y-159500000D03*
%TD*%
D16*
%TO.C,F2*%
X157750000Y-144000000D03*
X166250000Y-144000000D03*
%TD*%
D10*
%TO.C,R17*%
X232250000Y-156250000D03*
X232250000Y-154250000D03*
%TD*%
D17*
%TO.C,J11*%
X117750000Y-155250000D03*
X115250000Y-155250000D03*
X112750000Y-155250000D03*
X110250000Y-155250000D03*
%TD*%
D18*
%TO.C,R8*%
X232250000Y-145250000D03*
X232250000Y-147250000D03*
%TD*%
D10*
%TO.C,R20*%
X87750000Y-156250000D03*
X87750000Y-154250000D03*
%TD*%
D19*
%TO.C,C2*%
X220712500Y-151000000D03*
X222787500Y-151000000D03*
%TD*%
D11*
%TO.C,R26*%
X184250000Y-144462500D03*
X186250000Y-144462500D03*
%TD*%
D18*
%TO.C,R13*%
X252250000Y-145250000D03*
X252250000Y-147250000D03*
%TD*%
D20*
%TO.C,Y2*%
X203425000Y-154525000D03*
X203425000Y-155975000D03*
X204575000Y-155975000D03*
X204575000Y-154525000D03*
%TD*%
D17*
%TO.C,J9*%
X242250000Y-155250000D03*
X239750000Y-155250000D03*
X237250000Y-155250000D03*
X234750000Y-155250000D03*
%TD*%
D14*
%TO.C,C10*%
X230000000Y-147287500D03*
X230000000Y-145212500D03*
%TD*%
D17*
%TO.C,J10*%
X137750000Y-155250000D03*
X135250000Y-155250000D03*
X132750000Y-155250000D03*
X130250000Y-155250000D03*
%TD*%
D21*
%TO.C,C33*%
X161250000Y-151750000D03*
X158125000Y-151750000D03*
%TD*%
D13*
%TO.C,C13*%
X270000000Y-154212500D03*
X270000000Y-156287500D03*
%TD*%
%TO.C,C23*%
X247000000Y-154212500D03*
X247000000Y-156287500D03*
%TD*%
D22*
%TO.C,F7*%
X160250000Y-149125000D03*
X160250000Y-147375000D03*
%TD*%
D23*
%TO.C,F4*%
X180875000Y-157750000D03*
X182625000Y-157750000D03*
%TD*%
%TO.C,F10*%
X180875000Y-154250000D03*
X182625000Y-154250000D03*
%TD*%
D14*
%TO.C,C11*%
X267000000Y-147287500D03*
X267000000Y-145212500D03*
%TD*%
D24*
%TO.C,U3*%
X171700000Y-143450000D03*
X171700000Y-145750000D03*
D25*
X178000000Y-145750000D03*
D24*
X171700000Y-148050000D03*
%TD*%
D11*
%TO.C,R31*%
X222750000Y-157500000D03*
X224750000Y-157500000D03*
%TD*%
D10*
%TO.C,NT2*%
X200000000Y-153750000D03*
X200000000Y-151750000D03*
%TD*%
D26*
%TO.C,J16*%
X191750000Y-154250000D03*
X191750000Y-151750000D03*
%TD*%
%TO.C,J17*%
X191750000Y-160000000D03*
X191750000Y-157500000D03*
%TD*%
D17*
%TO.C,J12*%
X97721320Y-155250000D03*
X95221320Y-155250000D03*
X92721320Y-155250000D03*
X90221320Y-155250000D03*
%TD*%
D18*
%TO.C,R10*%
X284750000Y-145250000D03*
X284750000Y-147250000D03*
%TD*%
D27*
%TO.C,U2*%
X196000000Y-147250000D03*
X196000000Y-145980000D03*
X196000000Y-144710000D03*
X196000000Y-143440000D03*
X191050000Y-143440000D03*
X191050000Y-144710000D03*
X191050000Y-145980000D03*
X191050000Y-147250000D03*
%TD*%
D19*
%TO.C,C27*%
X197962500Y-157000000D03*
X200037500Y-157000000D03*
%TD*%
D13*
%TO.C,C22*%
X85500000Y-154212500D03*
X85500000Y-156287500D03*
%TD*%
D28*
%TO.C,C38*%
X163375000Y-154250000D03*
X166500000Y-154250000D03*
%TD*%
D18*
%TO.C,R34*%
X164500000Y-147250000D03*
X164500000Y-149250000D03*
%TD*%
D28*
%TO.C,C37*%
X163375000Y-151750000D03*
X166500000Y-151750000D03*
%TD*%
D26*
%TO.C,J15*%
X151175000Y-153250000D03*
X151175000Y-150750000D03*
%TD*%
D22*
%TO.C,F8*%
X162000000Y-149125000D03*
X162000000Y-147375000D03*
%TD*%
D29*
%TO.C,C42*%
X204612500Y-157750000D03*
X202887500Y-157750000D03*
%TD*%
D13*
%TO.C,C20*%
X125500000Y-154212500D03*
X125500000Y-156287500D03*
%TD*%
D11*
%TO.C,R30*%
X222750000Y-159500000D03*
X224750000Y-159500000D03*
%TD*%
D17*
%TO.C,J8*%
X262250000Y-155250000D03*
X259750000Y-155250000D03*
X257250000Y-155250000D03*
X254750000Y-155250000D03*
%TD*%
D21*
%TO.C,C35*%
X161250000Y-156750000D03*
X158125000Y-156750000D03*
%TD*%
D30*
%TO.C,C43*%
X201750000Y-154387500D03*
X201750000Y-156112500D03*
%TD*%
D14*
%TO.C,C9*%
X125500000Y-147287500D03*
X125500000Y-145212500D03*
%TD*%
D13*
%TO.C,C41*%
X195500000Y-157712500D03*
X195500000Y-159787500D03*
%TD*%
D10*
%TO.C,R16*%
X264750000Y-156250000D03*
X264750000Y-154250000D03*
%TD*%
%TO.C,R19*%
X105500000Y-156250000D03*
X105500000Y-154250000D03*
%TD*%
D18*
%TO.C,R1*%
X100250000Y-145250000D03*
X100250000Y-147250000D03*
%TD*%
%TO.C,R9*%
X264750000Y-145250000D03*
X264750000Y-147250000D03*
%TD*%
D10*
%TO.C,NT1*%
X198000000Y-153750000D03*
X198000000Y-151750000D03*
%TD*%
D23*
%TO.C,F9*%
X180875000Y-156000000D03*
X182625000Y-156000000D03*
%TD*%
D10*
%TO.C,R23*%
X120250000Y-156250000D03*
X120250000Y-154250000D03*
%TD*%
D13*
%TO.C,C25*%
X122500000Y-154212500D03*
X122500000Y-156287500D03*
%TD*%
%TO.C,C29*%
X188250000Y-144425000D03*
X188250000Y-146500000D03*
%TD*%
D14*
%TO.C,C16*%
X270000000Y-147287500D03*
X270000000Y-145212500D03*
%TD*%
D13*
%TO.C,C26*%
X102500000Y-154212500D03*
X102500000Y-156287500D03*
%TD*%
D18*
%TO.C,R6*%
X244750000Y-145250000D03*
X244750000Y-147250000D03*
%TD*%
%TO.C,R4*%
X107750000Y-145250000D03*
X107750000Y-147250000D03*
%TD*%
D10*
%TO.C,R27*%
X216750000Y-142500000D03*
X216750000Y-140500000D03*
%TD*%
%TO.C,R22*%
X140250000Y-156250000D03*
X140250000Y-154250000D03*
%TD*%
%TO.C,R24*%
X100250000Y-156250000D03*
X100250000Y-154250000D03*
%TD*%
D14*
%TO.C,C5*%
X122500000Y-147287500D03*
X122500000Y-145212500D03*
%TD*%
%TO.C,C31*%
X169350000Y-148787500D03*
X169350000Y-146712500D03*
%TD*%
D13*
%TO.C,C24*%
X142500000Y-154212500D03*
X142500000Y-156287500D03*
%TD*%
D17*
%TO.C,J7*%
X282178680Y-155250000D03*
X279678680Y-155250000D03*
X277178680Y-155250000D03*
X274678680Y-155250000D03*
%TD*%
D18*
%TO.C,R14*%
X272250000Y-145250000D03*
X272250000Y-147250000D03*
%TD*%
D13*
%TO.C,C17*%
X287000000Y-154212500D03*
X287000000Y-156287500D03*
%TD*%
D28*
%TO.C,C40*%
X163375000Y-159250000D03*
X166500000Y-159250000D03*
%TD*%
D14*
%TO.C,C8*%
X247000000Y-147287500D03*
X247000000Y-145212500D03*
%TD*%
D31*
%TO.C,C30*%
X171500000Y-152950000D03*
X171500000Y-158550000D03*
%TD*%
D13*
%TO.C,C18*%
X267000000Y-154212500D03*
X267000000Y-156287500D03*
%TD*%
D10*
%TO.C,R11*%
X272250000Y-156250000D03*
X272250000Y-154250000D03*
%TD*%
D14*
%TO.C,C7*%
X142500000Y-147287500D03*
X142500000Y-145212500D03*
%TD*%
D11*
%TO.C,R33*%
X222750000Y-153500000D03*
X224750000Y-153500000D03*
%TD*%
D12*
%TO.C,J6*%
X274750000Y-146250000D03*
X277250000Y-146250000D03*
X279750000Y-146250000D03*
X282250000Y-146250000D03*
%TD*%
D14*
%TO.C,C4*%
X102500000Y-147287500D03*
X102500000Y-145212500D03*
%TD*%
D12*
%TO.C,J4*%
X234750000Y-146250000D03*
X237250000Y-146250000D03*
X239750000Y-146250000D03*
X242250000Y-146250000D03*
%TD*%
D14*
%TO.C,C3*%
X85500000Y-147287500D03*
X85500000Y-145212500D03*
%TD*%
D13*
%TO.C,C21*%
X107750000Y-154212500D03*
X107750000Y-156287500D03*
%TD*%
D14*
%TO.C,C32*%
X169350000Y-144787500D03*
X169350000Y-142712500D03*
%TD*%
D22*
%TO.C,F3*%
X158500000Y-149125000D03*
X158500000Y-147375000D03*
%TD*%
D13*
%TO.C,C1*%
X204000000Y-150212500D03*
X204000000Y-152287500D03*
%TD*%
D12*
%TO.C,J2*%
X110250000Y-146250000D03*
X112750000Y-146250000D03*
X115250000Y-146250000D03*
X117750000Y-146250000D03*
%TD*%
D28*
%TO.C,C39*%
X163375000Y-156750000D03*
X166500000Y-156750000D03*
%TD*%
D12*
%TO.C,J1*%
X90250000Y-146250000D03*
X92750000Y-146250000D03*
X95250000Y-146250000D03*
X97750000Y-146250000D03*
%TD*%
D19*
%TO.C,C28*%
X192487500Y-141500000D03*
X194562500Y-141500000D03*
%TD*%
D32*
%TO.C,R25*%
X186250000Y-146462500D03*
X184250000Y-146462500D03*
%TD*%
D18*
%TO.C,R5*%
X140250000Y-145250000D03*
X140250000Y-147250000D03*
%TD*%
%TO.C,R7*%
X127750000Y-145250000D03*
X127750000Y-147250000D03*
%TD*%
D21*
%TO.C,C34*%
X161250000Y-154250000D03*
X158125000Y-154250000D03*
%TD*%
D12*
%TO.C,J3*%
X130250000Y-146250000D03*
X132750000Y-146250000D03*
X135250000Y-146250000D03*
X137750000Y-146250000D03*
%TD*%
D33*
%TO.C,U1*%
X217950000Y-156000000D03*
X217950000Y-155200000D03*
X217950000Y-154400000D03*
X217950000Y-153600000D03*
X217950000Y-152800000D03*
X217950000Y-152000000D03*
X217950000Y-151200000D03*
X217950000Y-150400000D03*
X217950000Y-149600000D03*
X217950000Y-148800000D03*
X217950000Y-148000000D03*
D34*
X216250000Y-146300000D03*
X215450000Y-146300000D03*
X214650000Y-146300000D03*
X213850000Y-146300000D03*
X213050000Y-146300000D03*
X212250000Y-146300000D03*
X211450000Y-146300000D03*
X210650000Y-146300000D03*
X209850000Y-146300000D03*
X209050000Y-146300000D03*
X208250000Y-146300000D03*
D33*
X206550000Y-148000000D03*
X206550000Y-148800000D03*
X206550000Y-149600000D03*
X206550000Y-150400000D03*
X206550000Y-151200000D03*
X206550000Y-152000000D03*
X206550000Y-152800000D03*
X206550000Y-153600000D03*
X206550000Y-154400000D03*
X206550000Y-155200000D03*
X206550000Y-156000000D03*
D34*
X208250000Y-157700000D03*
X209050000Y-157700000D03*
X209850000Y-157700000D03*
X210650000Y-157700000D03*
X211450000Y-157700000D03*
X212250000Y-157700000D03*
X213050000Y-157700000D03*
X213850000Y-157700000D03*
X214650000Y-157700000D03*
X215450000Y-157700000D03*
X216250000Y-157700000D03*
%TD*%
D14*
%TO.C,C12*%
X287000000Y-147287500D03*
X287000000Y-145212500D03*
%TD*%
D21*
%TO.C,C36*%
X161250000Y-159250000D03*
X158125000Y-159250000D03*
%TD*%
D26*
%TO.C,J14*%
X151175000Y-147500000D03*
X151175000Y-145000000D03*
%TD*%
D10*
%TO.C,R12*%
X252250000Y-156250000D03*
X252250000Y-154250000D03*
%TD*%
D14*
%TO.C,C6*%
X105500000Y-147287500D03*
X105500000Y-145212500D03*
%TD*%
D10*
%TO.C,R18*%
X127828680Y-156250000D03*
X127828680Y-154250000D03*
%TD*%
D18*
%TO.C,R2*%
X87750000Y-145250000D03*
X87750000Y-147250000D03*
%TD*%
D35*
%TO.C,J13*%
X219250000Y-142750000D03*
X221650000Y-142750000D03*
X224050000Y-142750000D03*
X226450000Y-142750000D03*
X228850000Y-142750000D03*
%TD*%
D18*
%TO.C,R3*%
X120250000Y-145250000D03*
X120250000Y-147250000D03*
%TD*%
M02*
