%TF.GenerationSoftware,KiCad,Pcbnew,9.0.4*%
%TF.CreationDate,2026-01-25T14:52:31+00:00*%
%TF.ProjectId,can-repeater,63616e2d-7265-4706-9561-7465722e6b69,rev?*%
%TF.SameCoordinates,Original*%
%TF.FileFunction,Soldermask,Top*%
%TF.FilePolarity,Negative*%
%FSLAX46Y46*%
G04 Gerber Fmt 4.6, Leading zero omitted, Abs format (unit mm)*
G04 Created by KiCad (PCBNEW 9.0.4) date 2026-01-25 14:52:31*
%MOMM*%
%LPD*%
G01*
G04 APERTURE LIST*
G04 Aperture macros list*
%AMRoundRect*
0 Rectangle with rounded corners*
0 $1 Rounding radius*
0 $2 $3 $4 $5 $6 $7 $8 $9 X,Y pos of 4 corners*
0 Add a 4 corners polygon primitive as box body*
4,1,4,$2,$3,$4,$5,$6,$7,$8,$9,$2,$3,0*
0 Add four circle primitives for the rounded corners*
1,1,$1+$1,$2,$3*
1,1,$1+$1,$4,$5*
1,1,$1+$1,$6,$7*
1,1,$1+$1,$8,$9*
0 Add four rect primitives between the rounded corners*
20,1,$1+$1,$2,$3,$4,$5,0*
20,1,$1+$1,$4,$5,$6,$7,0*
20,1,$1+$1,$6,$7,$8,$9,0*
20,1,$1+$1,$8,$9,$2,$3,0*%
%AMFreePoly0*
4,1,23,0.550000,-0.750000,0.000000,-0.750000,0.000000,-0.745722,-0.065263,-0.745722,-0.191342,-0.711940,-0.304381,-0.646677,-0.396677,-0.554381,-0.461940,-0.441342,-0.495722,-0.315263,-0.495722,-0.250000,-0.500000,-0.250000,-0.500000,0.250000,-0.495722,0.250000,-0.495722,0.315263,-0.461940,0.441342,-0.396677,0.554381,-0.304381,0.646677,-0.191342,0.711940,-0.065263,0.745722,0.000000,0.745722,
0.000000,0.750000,0.550000,0.750000,0.550000,-0.750000,0.550000,-0.750000,$1*%
%AMFreePoly1*
4,1,23,0.000000,0.745722,0.065263,0.745722,0.191342,0.711940,0.304381,0.646677,0.396677,0.554381,0.461940,0.441342,0.495722,0.315263,0.495722,0.250000,0.500000,0.250000,0.500000,-0.250000,0.495722,-0.250000,0.495722,-0.315263,0.461940,-0.441342,0.396677,-0.554381,0.304381,-0.646677,0.191342,-0.711940,0.065263,-0.745722,0.000000,-0.745722,0.000000,-0.750000,-0.550000,-0.750000,
-0.550000,0.750000,0.000000,0.750000,0.000000,0.745722,0.000000,0.745722,$1*%
G04 Aperture macros list end*
%ADD10C,0.000000*%
%ADD11C,1.190000*%
%ADD12R,0.740000X2.795000*%
%ADD13RoundRect,0.237500X-0.250000X-0.237500X0.250000X-0.237500X0.250000X0.237500X-0.250000X0.237500X0*%
%ADD14RoundRect,0.237500X0.237500X-0.300000X0.237500X0.300000X-0.237500X0.300000X-0.237500X-0.300000X0*%
%ADD15RoundRect,0.237500X0.300000X0.237500X-0.300000X0.237500X-0.300000X-0.237500X0.300000X-0.237500X0*%
%ADD16RoundRect,0.075000X-0.700000X-0.075000X0.700000X-0.075000X0.700000X0.075000X-0.700000X0.075000X0*%
%ADD17RoundRect,0.075000X-0.075000X-0.700000X0.075000X-0.700000X0.075000X0.700000X-0.075000X0.700000X0*%
%ADD18RoundRect,0.237500X0.250000X0.237500X-0.250000X0.237500X-0.250000X-0.237500X0.250000X-0.237500X0*%
%ADD19RoundRect,0.250000X-0.337500X-0.475000X0.337500X-0.475000X0.337500X0.475000X-0.337500X0.475000X0*%
%ADD20FreePoly0,0.000000*%
%ADD21R,1.000000X1.500000*%
%ADD22FreePoly1,0.000000*%
%ADD23RoundRect,0.237500X-0.287500X-0.237500X0.287500X-0.237500X0.287500X0.237500X-0.287500X0.237500X0*%
%ADD24C,2.600000*%
%ADD25C,3.800000*%
%ADD26RoundRect,0.250000X-0.325000X-0.450000X0.325000X-0.450000X0.325000X0.450000X-0.325000X0.450000X0*%
%ADD27RoundRect,0.100000X-0.680000X-0.100000X0.680000X-0.100000X0.680000X0.100000X-0.680000X0.100000X0*%
%ADD28RoundRect,0.237500X-0.237500X0.250000X-0.237500X-0.250000X0.237500X-0.250000X0.237500X0.250000X0*%
%ADD29RoundRect,0.250000X0.337500X0.475000X-0.337500X0.475000X-0.337500X-0.475000X0.337500X-0.475000X0*%
%ADD30R,1.000000X0.900000*%
%ADD31RoundRect,0.150000X0.587500X0.150000X-0.587500X0.150000X-0.587500X-0.150000X0.587500X-0.150000X0*%
%ADD32RoundRect,0.250000X0.475000X-0.337500X0.475000X0.337500X-0.475000X0.337500X-0.475000X-0.337500X0*%
%ADD33FreePoly0,180.000000*%
%ADD34FreePoly1,180.000000*%
%ADD35RoundRect,0.245000X-0.245000X-1.455000X0.245000X-1.455000X0.245000X1.455000X-0.245000X1.455000X0*%
%ADD36R,1.150000X1.150000*%
%ADD37C,1.150000*%
%ADD38C,3.750000*%
%ADD39RoundRect,0.237500X-0.300000X-0.237500X0.300000X-0.237500X0.300000X0.237500X-0.300000X0.237500X0*%
%ADD40RoundRect,0.150000X-0.587500X-0.150000X0.587500X-0.150000X0.587500X0.150000X-0.587500X0.150000X0*%
%ADD41RoundRect,0.250000X0.450000X-0.325000X0.450000X0.325000X-0.450000X0.325000X-0.450000X-0.325000X0*%
%ADD42RoundRect,0.237500X0.237500X-0.250000X0.237500X0.250000X-0.237500X0.250000X-0.237500X-0.250000X0*%
%ADD43RoundRect,0.237500X-0.237500X0.300000X-0.237500X-0.300000X0.237500X-0.300000X0.237500X0.300000X0*%
%ADD44RoundRect,0.150000X0.512500X0.150000X-0.512500X0.150000X-0.512500X-0.150000X0.512500X-0.150000X0*%
%ADD45RoundRect,0.100000X0.680000X0.100000X-0.680000X0.100000X-0.680000X-0.100000X0.680000X-0.100000X0*%
%ADD46R,1.700000X1.700000*%
%ADD47C,1.700000*%
%ADD48RoundRect,0.225000X-0.225000X-0.375000X0.225000X-0.375000X0.225000X0.375000X-0.225000X0.375000X0*%
%ADD49R,0.650000X0.550000*%
G04 APERTURE END LIST*
%TO.C,JP1*%
G36*
X149750000Y-65400000D02*
G01*
X151250000Y-65400000D01*
X151250000Y-66900000D01*
X149750000Y-66900000D01*
X149750000Y-65400000D01*
G37*
%TO.C,JP4*%
G36*
X163750000Y-88557500D02*
G01*
X165250000Y-88557500D01*
X165250000Y-90057500D01*
X163750000Y-90057500D01*
X163750000Y-88557500D01*
G37*
%TO.C,JP2*%
G36*
X165250000Y-66342000D02*
G01*
X163750000Y-66342000D01*
X163750000Y-64842000D01*
X165250000Y-64842000D01*
X165250000Y-66342000D01*
G37*
D10*
%TO.C,JP3*%
G36*
X181200000Y-89850000D02*
G01*
X179700000Y-89850000D01*
X179700000Y-88350000D01*
X181200000Y-88350000D01*
X181200000Y-89850000D01*
G37*
%TD*%
D11*
%TO.C,J2*%
X185783998Y-78250000D03*
X174050000Y-78250000D03*
D12*
X182456999Y-76217000D03*
X182456999Y-80283000D03*
X181187000Y-76217000D03*
X181187000Y-80283000D03*
X179916999Y-76217000D03*
X179916999Y-80283000D03*
X178646998Y-76217000D03*
X178646998Y-80283000D03*
X177376999Y-76217000D03*
X177376999Y-80283000D03*
%TD*%
D13*
%TO.C,R14*%
X142287500Y-80100000D03*
X144112500Y-80100000D03*
%TD*%
D14*
%TO.C,C6*%
X157050000Y-72462501D03*
X157050000Y-70737499D03*
%TD*%
%TO.C,C14*%
X151550000Y-85912501D03*
X151550000Y-84187499D03*
%TD*%
D15*
%TO.C,C5*%
X160562500Y-70650000D03*
X158837500Y-70650000D03*
%TD*%
D16*
%TO.C,U4*%
X158825000Y-74500000D03*
X158825000Y-75000000D03*
X158825000Y-75500000D03*
X158825000Y-76000000D03*
X158825000Y-76500000D03*
X158825000Y-77000000D03*
X158825000Y-77500000D03*
X158825000Y-78000000D03*
X158825000Y-78500000D03*
X158825000Y-79000000D03*
X158825000Y-79500000D03*
X158825000Y-80000000D03*
X158825000Y-80500000D03*
X158825000Y-81000000D03*
X158825000Y-81500000D03*
X158825000Y-82000000D03*
D17*
X160750000Y-83925000D03*
X161250000Y-83925000D03*
X161750000Y-83925000D03*
X162250000Y-83925000D03*
X162750000Y-83925000D03*
X163250000Y-83925000D03*
X163750000Y-83925000D03*
X164250000Y-83925000D03*
X164750000Y-83925000D03*
X165250000Y-83925000D03*
X165750000Y-83925000D03*
X166250000Y-83925000D03*
X166750000Y-83925000D03*
X167250000Y-83925000D03*
X167750000Y-83925000D03*
X168250000Y-83925000D03*
D16*
X170175000Y-82000000D03*
X170175000Y-81500000D03*
X170175000Y-81000000D03*
X170175000Y-80500000D03*
X170175000Y-80000000D03*
X170175000Y-79500000D03*
X170175000Y-79000000D03*
X170175000Y-78500000D03*
X170175000Y-78000000D03*
X170175000Y-77500000D03*
X170175000Y-77000000D03*
X170175000Y-76500000D03*
X170175000Y-76000000D03*
X170175000Y-75500000D03*
X170175000Y-75000000D03*
X170175000Y-74500000D03*
D17*
X168250000Y-72575000D03*
X167750000Y-72575000D03*
X167250000Y-72575000D03*
X166750000Y-72575000D03*
X166250000Y-72575000D03*
X165750000Y-72575000D03*
X165250000Y-72575000D03*
X164750000Y-72575000D03*
X164250000Y-72575000D03*
X163750000Y-72575000D03*
X163250000Y-72575000D03*
X162750000Y-72575000D03*
X162250000Y-72575000D03*
X161750000Y-72575000D03*
X161250000Y-72575000D03*
X160750000Y-72575000D03*
%TD*%
D13*
%TO.C,R10*%
X184337500Y-83950000D03*
X186162500Y-83950000D03*
%TD*%
D18*
%TO.C,R4*%
X146712500Y-72850000D03*
X144887500Y-72850000D03*
%TD*%
D13*
%TO.C,R7*%
X189387500Y-65400000D03*
X191212500Y-65400000D03*
%TD*%
D19*
%TO.C,C10*%
X180662500Y-72350000D03*
X182737500Y-72350000D03*
%TD*%
D15*
%TO.C,C7*%
X156512501Y-81050000D03*
X154787499Y-81050000D03*
%TD*%
D20*
%TO.C,JP1*%
X149200000Y-66150000D03*
D21*
X150500000Y-66150000D03*
D22*
X151800000Y-66150000D03*
%TD*%
D23*
%TO.C,F1*%
X191125000Y-67300000D03*
X192875000Y-67300000D03*
%TD*%
D24*
%TO.C,H3*%
X196950000Y-88110000D03*
D25*
X196950000Y-88110000D03*
%TD*%
D20*
%TO.C,JP4*%
X163200000Y-89307500D03*
D21*
X164500000Y-89307500D03*
D22*
X165800000Y-89307500D03*
%TD*%
D13*
%TO.C,R13*%
X142287500Y-76600000D03*
X144112500Y-76600000D03*
%TD*%
D15*
%TO.C,C16*%
X156512501Y-74950000D03*
X154787499Y-74950000D03*
%TD*%
D13*
%TO.C,R5*%
X144887500Y-67400000D03*
X146712500Y-67400000D03*
%TD*%
D26*
%TO.C,D7*%
X145925000Y-83600000D03*
X147975000Y-83600000D03*
%TD*%
D24*
%TO.C,H1*%
X196950000Y-66800000D03*
D25*
X196950000Y-66800000D03*
%TD*%
D24*
%TO.C,H2*%
X133900000Y-88100000D03*
D25*
X133900000Y-88100000D03*
%TD*%
D27*
%TO.C,U3*%
X179050000Y-84320000D03*
X179050000Y-84970000D03*
X179050000Y-85630000D03*
X179050000Y-86280000D03*
X181750000Y-86280000D03*
X181750000Y-85630000D03*
X181750000Y-84970000D03*
X181750000Y-84320000D03*
%TD*%
D28*
%TO.C,R3*%
X173700000Y-66987500D03*
X173700000Y-68812500D03*
%TD*%
D29*
%TO.C,C11*%
X178737500Y-72350000D03*
X176662500Y-72350000D03*
%TD*%
D30*
%TO.C,SW1*%
X156900000Y-84100001D03*
X156900000Y-88199999D03*
X155300000Y-84100001D03*
X155300000Y-88199999D03*
%TD*%
D14*
%TO.C,C17*%
X153200000Y-77512501D03*
X153200000Y-75787499D03*
%TD*%
D31*
%TO.C,Q1*%
X188837500Y-69550000D03*
X188837500Y-67650000D03*
X186962500Y-68600000D03*
%TD*%
D32*
%TO.C,C1*%
X173800000Y-74137500D03*
X173800000Y-72062500D03*
%TD*%
D33*
%TO.C,JP2*%
X165800000Y-65592000D03*
D21*
X164500000Y-65592000D03*
D34*
X163200000Y-65592000D03*
%TD*%
D15*
%TO.C,C2*%
X162337500Y-86200000D03*
X160612500Y-86200000D03*
%TD*%
D13*
%TO.C,R15*%
X142287500Y-83600000D03*
X144112500Y-83600000D03*
%TD*%
D35*
%TO.C,L1*%
X180015000Y-68600000D03*
X182385000Y-68600000D03*
%TD*%
D33*
%TO.C,JP3*%
X181750000Y-89100000D03*
D21*
X180450000Y-89100000D03*
D34*
X179150000Y-89100000D03*
%TD*%
D36*
%TO.C,J4*%
X191950000Y-75450000D03*
D37*
X191950000Y-77450000D03*
X191950000Y-79450000D03*
X193950000Y-75450000D03*
X193950000Y-77450000D03*
X193950000Y-79450000D03*
D38*
X192950000Y-71950000D03*
X192950000Y-82950000D03*
%TD*%
D39*
%TO.C,C8*%
X173737499Y-70400000D03*
X175462501Y-70400000D03*
%TD*%
D18*
%TO.C,R9*%
X156562500Y-78450000D03*
X154737500Y-78450000D03*
%TD*%
D31*
%TO.C,D4*%
X185887500Y-87500000D03*
X185887500Y-85600000D03*
X184012500Y-86550000D03*
%TD*%
D36*
%TO.C,J3*%
X138900000Y-78450000D03*
D37*
X138900000Y-76450000D03*
X136900000Y-78450000D03*
X136900000Y-76450000D03*
D38*
X137900000Y-81950000D03*
X137900000Y-72950000D03*
%TD*%
D40*
%TO.C,D2*%
X145162500Y-69187500D03*
X145162500Y-71087500D03*
X147037500Y-70137500D03*
%TD*%
D15*
%TO.C,C3*%
X169462501Y-86200000D03*
X167737499Y-86200000D03*
%TD*%
D41*
%TO.C,D1*%
X184800000Y-69625000D03*
X184800000Y-67575000D03*
%TD*%
D42*
%TO.C,R1*%
X172050000Y-68812500D03*
X172050000Y-66987500D03*
%TD*%
D24*
%TO.C,H4*%
X133850000Y-66800000D03*
D25*
X133850000Y-66800000D03*
%TD*%
D14*
%TO.C,C4*%
X172000000Y-73862500D03*
X172000000Y-72137500D03*
%TD*%
%TO.C,C18*%
X177000000Y-89712500D03*
X177000000Y-87987500D03*
%TD*%
D15*
%TO.C,C9*%
X177562501Y-65150000D03*
X175837499Y-65150000D03*
%TD*%
D43*
%TO.C,C13*%
X153850000Y-65837500D03*
X153850000Y-67562500D03*
%TD*%
D26*
%TO.C,D5*%
X145925000Y-76600000D03*
X147975000Y-76600000D03*
%TD*%
%TO.C,D6*%
X145925000Y-80100000D03*
X147975000Y-80100000D03*
%TD*%
D14*
%TO.C,C15*%
X153850000Y-71012501D03*
X153850000Y-69287499D03*
%TD*%
D42*
%TO.C,R6*%
X153300000Y-85962500D03*
X153300000Y-84137500D03*
%TD*%
%TO.C,R2*%
X184800000Y-73012500D03*
X184800000Y-71187500D03*
%TD*%
D18*
%TO.C,R11*%
X186112500Y-89150000D03*
X184287500Y-89150000D03*
%TD*%
D13*
%TO.C,R8*%
X167687500Y-65600000D03*
X169512500Y-65600000D03*
%TD*%
%TO.C,R12*%
X164137500Y-86200000D03*
X165962500Y-86200000D03*
%TD*%
D44*
%TO.C,U1*%
X177837500Y-68550000D03*
X177837500Y-67600000D03*
X177837500Y-66650000D03*
X175562500Y-66650000D03*
X175562500Y-67600000D03*
X175562500Y-68550000D03*
%TD*%
D45*
%TO.C,U2*%
X151950000Y-71130000D03*
X151950000Y-70480000D03*
X151950000Y-69820000D03*
X151950000Y-69170000D03*
X149250000Y-69170000D03*
X149250000Y-69820000D03*
X149250000Y-70480000D03*
X149250000Y-71130000D03*
%TD*%
D46*
%TO.C,J1*%
X163627122Y-69511934D03*
D47*
X166167122Y-69511934D03*
X168707121Y-69511934D03*
%TD*%
D48*
%TO.C,D3*%
X184550000Y-65400000D03*
X187850000Y-65400000D03*
%TD*%
D49*
%TO.C,Y1*%
X156225000Y-76275000D03*
X155075000Y-76275000D03*
X155075000Y-77125000D03*
X156225000Y-77125000D03*
%TD*%
D43*
%TO.C,C12*%
X177000000Y-84437500D03*
X177000000Y-86162500D03*
%TD*%
M02*
