%TF.GenerationSoftware,KiCad,Pcbnew,9.0.4*%
%TF.CreationDate,2026-01-25T14:52:31+00:00*%
%TF.ProjectId,can-repeater,63616e2d-7265-4706-9561-7465722e6b69,rev?*%
%TF.SameCoordinates,Original*%
%TF.FileFunction,Legend,Bot*%
%TF.FilePolarity,Positive*%
%FSLAX46Y46*%
G04 Gerber Fmt 4.6, Leading zero omitted, Abs format (unit mm)*
G04 Created by KiCad (PCBNEW 9.0.4) date 2026-01-25 14:52:31*
%MOMM*%
%LPD*%
G01*
G04 APERTURE LIST*
%ADD10C,0.083820*%
%ADD11C,0.100000*%
%ADD12C,0.220000*%
%ADD13C,0.150000*%
%ADD14C,0.000000*%
G04 APERTURE END LIST*
D10*
X140300000Y-76800000D02*
X190300000Y-76800000D01*
X190300000Y-76800000D02*
X190300000Y-89300000D01*
D11*
X138250000Y-76450000D02*
X137550000Y-76450000D01*
X193300000Y-79450000D02*
X192600000Y-79450000D01*
D10*
X190300000Y-89300000D02*
X140300000Y-89300000D01*
X140300000Y-89300000D02*
X140300000Y-76800000D01*
D11*
X137550000Y-78450000D02*
X138250000Y-78450000D01*
X192600000Y-77450000D02*
X193300000Y-77450000D01*
D12*
G36*
X193533559Y-66136025D02*
G01*
X193541343Y-66212781D01*
X193563247Y-66275665D01*
X193598878Y-66329789D01*
X193646265Y-66373527D01*
X193703550Y-66406679D01*
X193773278Y-66430955D01*
X193848894Y-66444846D01*
X193934075Y-66449694D01*
X194010721Y-66447426D01*
X194083588Y-66440761D01*
X194155242Y-66428879D01*
X194226385Y-66411006D01*
X194226385Y-66230462D01*
X194154248Y-66252224D01*
X194078685Y-66270023D01*
X194003189Y-66281979D01*
X193930314Y-66286345D01*
X193879675Y-66283894D01*
X193840847Y-66277344D01*
X193806254Y-66266113D01*
X193780733Y-66252493D01*
X193760311Y-66234854D01*
X193746948Y-66214946D01*
X193739093Y-66192236D01*
X193736403Y-66166788D01*
X193741732Y-66133235D01*
X193757090Y-66106405D01*
X193780360Y-66083957D01*
X193811563Y-66063284D01*
X193888603Y-66029499D01*
X193976524Y-65997192D01*
X194064446Y-65958168D01*
X194105457Y-65933676D01*
X194141486Y-65904166D01*
X194171822Y-65869065D01*
X194195958Y-65827260D01*
X194211092Y-65779706D01*
X194216578Y-65719591D01*
X194211280Y-65663103D01*
X194195555Y-65610042D01*
X194168764Y-65561881D01*
X194129463Y-65519636D01*
X194079588Y-65485780D01*
X194013735Y-65458111D01*
X193939062Y-65441387D01*
X193843131Y-65435207D01*
X193781942Y-65438162D01*
X193718805Y-65445685D01*
X193658691Y-65456633D01*
X193605696Y-65469596D01*
X193605696Y-65637245D01*
X193658288Y-65620050D01*
X193717260Y-65606415D01*
X193778517Y-65597415D01*
X193837086Y-65594258D01*
X193884077Y-65596405D01*
X193919768Y-65602117D01*
X193951627Y-65611836D01*
X193975382Y-65623744D01*
X193994429Y-65639404D01*
X194006951Y-65657663D01*
X194014197Y-65678606D01*
X194016690Y-65702329D01*
X194011514Y-65730997D01*
X193996070Y-65755257D01*
X193972851Y-65775632D01*
X193941195Y-65795020D01*
X193863818Y-65827998D01*
X193775158Y-65861045D01*
X193686498Y-65901210D01*
X193645338Y-65926267D01*
X193609055Y-65955951D01*
X193578365Y-65990965D01*
X193554247Y-66032118D01*
X193539015Y-66078623D01*
X193533559Y-66136025D01*
G37*
G36*
X193341530Y-65602855D02*
G01*
X193341530Y-65452402D01*
X192720841Y-65452402D01*
X192720841Y-65602855D01*
X192937253Y-65602855D01*
X192937253Y-66282046D01*
X192720841Y-66282046D01*
X192720841Y-66432500D01*
X193341530Y-66432500D01*
X193341530Y-66282046D01*
X193125118Y-66282046D01*
X193125118Y-65602855D01*
X193341530Y-65602855D01*
G37*
G36*
X192530289Y-66432500D02*
G01*
X192530289Y-66294808D01*
X192080943Y-65620050D01*
X192516050Y-65620050D01*
X192516050Y-65452402D01*
X191846531Y-65452402D01*
X191846531Y-65600572D01*
X192298900Y-66264851D01*
X191840486Y-66264851D01*
X191840486Y-66432500D01*
X192530289Y-66432500D01*
G37*
G36*
X191624411Y-66432500D02*
G01*
X191624411Y-65452402D01*
X191033074Y-65452402D01*
X191033074Y-65607154D01*
X191436612Y-65607154D01*
X191436612Y-65852178D01*
X191051881Y-65852178D01*
X191051881Y-66002632D01*
X191436612Y-66002632D01*
X191436612Y-66277747D01*
X191033074Y-66277747D01*
X191033074Y-66432500D01*
X191624411Y-66432500D01*
G37*
G36*
X190493859Y-65663037D02*
G01*
X190466065Y-65665711D01*
X190440529Y-65673582D01*
X190417323Y-65686171D01*
X190397744Y-65702531D01*
X190381651Y-65722429D01*
X190369198Y-65745786D01*
X190361308Y-65771282D01*
X190358653Y-65798445D01*
X190361326Y-65826307D01*
X190369198Y-65851910D01*
X190381663Y-65875150D01*
X190397744Y-65894762D01*
X190417294Y-65910801D01*
X190440529Y-65923308D01*
X190466065Y-65931180D01*
X190493859Y-65933853D01*
X190521664Y-65931170D01*
X190546921Y-65923308D01*
X190569889Y-65910845D01*
X190589706Y-65894762D01*
X190606069Y-65875128D01*
X190618655Y-65851910D01*
X190626476Y-65826310D01*
X190629133Y-65798445D01*
X190626494Y-65771279D01*
X190618655Y-65745786D01*
X190606081Y-65722451D01*
X190589706Y-65702531D01*
X190569861Y-65686128D01*
X190546921Y-65673582D01*
X190521664Y-65665720D01*
X190493859Y-65663037D01*
G37*
G36*
X190493859Y-66178878D02*
G01*
X190466065Y-66181551D01*
X190440529Y-66189423D01*
X190417299Y-66201944D01*
X190397744Y-66218036D01*
X190381670Y-66237604D01*
X190369198Y-66260888D01*
X190361311Y-66286336D01*
X190358653Y-66313547D01*
X190361325Y-66341351D01*
X190369198Y-66366945D01*
X190381651Y-66390302D01*
X190397744Y-66410200D01*
X190417323Y-66426560D01*
X190440529Y-66439149D01*
X190466065Y-66447020D01*
X190493859Y-66449694D01*
X190521664Y-66447011D01*
X190546921Y-66439149D01*
X190569861Y-66426603D01*
X190589706Y-66410200D01*
X190606081Y-66390280D01*
X190618655Y-66366945D01*
X190626477Y-66341354D01*
X190629133Y-66313547D01*
X190626491Y-66286333D01*
X190618655Y-66260888D01*
X190606062Y-66237626D01*
X190589706Y-66218036D01*
X190569885Y-66201900D01*
X190546921Y-66189423D01*
X190521664Y-66181561D01*
X190493859Y-66178878D01*
G37*
G36*
X193650765Y-68280500D02*
G01*
X193668766Y-67726172D01*
X193675550Y-67504925D01*
X193722903Y-67652624D01*
X193831847Y-67988190D01*
X193947575Y-67988190D01*
X194046042Y-67652624D01*
X194087349Y-67504925D01*
X194092588Y-67721672D01*
X194109112Y-68280500D01*
X194266215Y-68280500D01*
X194218123Y-67300402D01*
X194009167Y-67300402D01*
X193922791Y-67580420D01*
X193881483Y-67738195D01*
X193840176Y-67589488D01*
X193749232Y-67300402D01*
X193536515Y-67300402D01*
X193487684Y-68280500D01*
X193650765Y-68280500D01*
G37*
G36*
X193357314Y-68280500D02*
G01*
X193357314Y-68146636D01*
X193125118Y-67913567D01*
X193020338Y-67800996D01*
X192983930Y-67754254D01*
X192959418Y-67716567D01*
X192941147Y-67679552D01*
X192931275Y-67647923D01*
X192924491Y-67582637D01*
X192926762Y-67555495D01*
X192933491Y-67529911D01*
X192944663Y-67506407D01*
X192959821Y-67486588D01*
X192979020Y-67470353D01*
X193003412Y-67457438D01*
X193030915Y-67449397D01*
X193063526Y-67446557D01*
X193119527Y-67453057D01*
X193170993Y-67472349D01*
X193218669Y-67501979D01*
X193264892Y-67541128D01*
X193361814Y-67415190D01*
X193293923Y-67361265D01*
X193217943Y-67319276D01*
X193163562Y-67299366D01*
X193106035Y-67287305D01*
X193044719Y-67283207D01*
X192974642Y-67287995D01*
X192913946Y-67301611D01*
X192858874Y-67324743D01*
X192813599Y-67356016D01*
X192776842Y-67396183D01*
X192748984Y-67446087D01*
X192732074Y-67502780D01*
X192726080Y-67570614D01*
X192730120Y-67627815D01*
X192741864Y-67679827D01*
X192761042Y-67729420D01*
X192787739Y-67778495D01*
X192820593Y-67825658D01*
X192861757Y-67874543D01*
X192962037Y-67975831D01*
X193104834Y-68112851D01*
X192690751Y-68112851D01*
X192690751Y-68280500D01*
X193357314Y-68280500D01*
G37*
G36*
X167533663Y-67584181D02*
G01*
X167540320Y-67674536D01*
X167558850Y-67748806D01*
X167590019Y-67814655D01*
X167630987Y-67866953D01*
X167682584Y-67908034D01*
X167745574Y-67938150D01*
X167815830Y-67955892D01*
X167897371Y-67962128D01*
X167988228Y-67955693D01*
X168059713Y-67938150D01*
X168122008Y-67908259D01*
X168169464Y-67869169D01*
X168205375Y-67819881D01*
X168230317Y-67759688D01*
X168244156Y-67692901D01*
X168249056Y-67614943D01*
X168249056Y-66964836D01*
X168064213Y-66964836D01*
X168064213Y-67605070D01*
X168061931Y-67653172D01*
X168055616Y-67692991D01*
X168043503Y-67728925D01*
X168025525Y-67757941D01*
X168001458Y-67781273D01*
X167971792Y-67798174D01*
X167937102Y-67807998D01*
X167890587Y-67811675D01*
X167846783Y-67808530D01*
X167813211Y-67800055D01*
X167784251Y-67784788D01*
X167760619Y-67762441D01*
X167742638Y-67733806D01*
X167729051Y-67695946D01*
X167721372Y-67653151D01*
X167718506Y-67597547D01*
X167718506Y-66964836D01*
X167533663Y-66964836D01*
X167533663Y-67584181D01*
G37*
G36*
X166702205Y-67648459D02*
G01*
X166709989Y-67725215D01*
X166731893Y-67788099D01*
X166767523Y-67842223D01*
X166814911Y-67885961D01*
X166872195Y-67919113D01*
X166941923Y-67943389D01*
X167017540Y-67957280D01*
X167102721Y-67962128D01*
X167179367Y-67959860D01*
X167252234Y-67953195D01*
X167323888Y-67941313D01*
X167395031Y-67923440D01*
X167395031Y-67742896D01*
X167322893Y-67764658D01*
X167247331Y-67782457D01*
X167171835Y-67794413D01*
X167098959Y-67798779D01*
X167048321Y-67796328D01*
X167009493Y-67789778D01*
X166974899Y-67778547D01*
X166949379Y-67764927D01*
X166928957Y-67747288D01*
X166915594Y-67727380D01*
X166907739Y-67704670D01*
X166905049Y-67679222D01*
X166910378Y-67645669D01*
X166925736Y-67618839D01*
X166949006Y-67596391D01*
X166980209Y-67575718D01*
X167057249Y-67541933D01*
X167145170Y-67509626D01*
X167233091Y-67470602D01*
X167274103Y-67446110D01*
X167310132Y-67416600D01*
X167340468Y-67381499D01*
X167364604Y-67339694D01*
X167379738Y-67292140D01*
X167385224Y-67232025D01*
X167379926Y-67175537D01*
X167364201Y-67122476D01*
X167337410Y-67074315D01*
X167298109Y-67032070D01*
X167248234Y-66998214D01*
X167182381Y-66970545D01*
X167107708Y-66953821D01*
X167011777Y-66947641D01*
X166950588Y-66950596D01*
X166887451Y-66958119D01*
X166827337Y-66969067D01*
X166774342Y-66982030D01*
X166774342Y-67149679D01*
X166826934Y-67132484D01*
X166885906Y-67118849D01*
X166947162Y-67109849D01*
X167005732Y-67106692D01*
X167052723Y-67108839D01*
X167088414Y-67114551D01*
X167120272Y-67124270D01*
X167144028Y-67136178D01*
X167163075Y-67151838D01*
X167175597Y-67170097D01*
X167182843Y-67191040D01*
X167185336Y-67214763D01*
X167180160Y-67243431D01*
X167164716Y-67267691D01*
X167141497Y-67288066D01*
X167109840Y-67307454D01*
X167032464Y-67340432D01*
X166943804Y-67373479D01*
X166855144Y-67413644D01*
X166813984Y-67438701D01*
X166777701Y-67468385D01*
X166747011Y-67503399D01*
X166722893Y-67544552D01*
X166707661Y-67591057D01*
X166702205Y-67648459D01*
G37*
G36*
X166619859Y-67944934D02*
G01*
X166436493Y-67944934D01*
X166380946Y-67751493D01*
X166038262Y-67751493D01*
X165984192Y-67944934D01*
X165779804Y-67944934D01*
X165881827Y-67601040D01*
X166079569Y-67601040D01*
X166336616Y-67601040D01*
X166207320Y-67141619D01*
X166079569Y-67601040D01*
X165881827Y-67601040D01*
X166070569Y-66964836D01*
X166329094Y-66964836D01*
X166619859Y-67944934D01*
G37*
G36*
X165680195Y-67944934D02*
G01*
X165495352Y-67944934D01*
X165495352Y-67540858D01*
X165460023Y-67540858D01*
X165415122Y-67546733D01*
X165377743Y-67563628D01*
X165347209Y-67591231D01*
X165323271Y-67631197D01*
X165184975Y-67944934D01*
X164967825Y-67944934D01*
X165124860Y-67617764D01*
X165156670Y-67559553D01*
X165185042Y-67521313D01*
X165217438Y-67493543D01*
X165251134Y-67479938D01*
X165205906Y-67469485D01*
X165165093Y-67453676D01*
X165128193Y-67431840D01*
X165097121Y-67404510D01*
X165071912Y-67371499D01*
X165052723Y-67332037D01*
X165041072Y-67288107D01*
X165038354Y-67253787D01*
X165230850Y-67253787D01*
X165234364Y-67286686D01*
X165244417Y-67314573D01*
X165260670Y-67338825D01*
X165282702Y-67358970D01*
X165309415Y-67374322D01*
X165342481Y-67385770D01*
X165378524Y-67392371D01*
X165420193Y-67394703D01*
X165495352Y-67394703D01*
X165495352Y-67119588D01*
X165414215Y-67119588D01*
X165353523Y-67123739D01*
X165308923Y-67134711D01*
X165276725Y-67150888D01*
X165251993Y-67175145D01*
X165236523Y-67208411D01*
X165230850Y-67253787D01*
X165038354Y-67253787D01*
X165036939Y-67235921D01*
X165043672Y-67164503D01*
X165062127Y-67109043D01*
X165092746Y-67062006D01*
X165133928Y-67024950D01*
X165184133Y-66997758D01*
X165246634Y-66978739D01*
X165314735Y-66968479D01*
X165393863Y-66964836D01*
X165680195Y-66964836D01*
X165680195Y-67944934D01*
G37*
G36*
X164413631Y-67119588D02*
G01*
X164413631Y-67944934D01*
X164602975Y-67944934D01*
X164602975Y-67119588D01*
X164871978Y-67119588D01*
X164871978Y-66964836D01*
X164144628Y-66964836D01*
X164144628Y-67119588D01*
X164413631Y-67119588D01*
G37*
G36*
X169286134Y-72313000D02*
G01*
X169101291Y-72313000D01*
X169101291Y-71908924D01*
X169065961Y-71908924D01*
X169021060Y-71914799D01*
X168983682Y-71931694D01*
X168953147Y-71959297D01*
X168929210Y-71999263D01*
X168790913Y-72313000D01*
X168573763Y-72313000D01*
X168730799Y-71985830D01*
X168762609Y-71927619D01*
X168790980Y-71889379D01*
X168823376Y-71861609D01*
X168857072Y-71848004D01*
X168811845Y-71837551D01*
X168771032Y-71821742D01*
X168734131Y-71799906D01*
X168703059Y-71772576D01*
X168677850Y-71739565D01*
X168658662Y-71700103D01*
X168647010Y-71656173D01*
X168644293Y-71621853D01*
X168836788Y-71621853D01*
X168840302Y-71654752D01*
X168850356Y-71682639D01*
X168866609Y-71706891D01*
X168888641Y-71727036D01*
X168915353Y-71742388D01*
X168948419Y-71753836D01*
X168984462Y-71760437D01*
X169026131Y-71762769D01*
X169101291Y-71762769D01*
X169101291Y-71487654D01*
X169020153Y-71487654D01*
X168959461Y-71491805D01*
X168914862Y-71502777D01*
X168882663Y-71518954D01*
X168857931Y-71543211D01*
X168842462Y-71576477D01*
X168836788Y-71621853D01*
X168644293Y-71621853D01*
X168642878Y-71603987D01*
X168649610Y-71532569D01*
X168668065Y-71477109D01*
X168698684Y-71430072D01*
X168739866Y-71393016D01*
X168790071Y-71365824D01*
X168852572Y-71346805D01*
X168920673Y-71336545D01*
X168999802Y-71332902D01*
X169286134Y-71332902D01*
X169286134Y-72313000D01*
G37*
G36*
X167932387Y-72313000D02*
G01*
X168121730Y-71952314D01*
X168308118Y-72313000D01*
X168531246Y-72313000D01*
X168230272Y-71809719D01*
X168512507Y-71332902D01*
X168295357Y-71332902D01*
X168117230Y-71670952D01*
X167945149Y-71332902D01*
X167727999Y-71332902D01*
X168007345Y-71804816D01*
X167697169Y-72313000D01*
X167932387Y-72313000D01*
G37*
G36*
X166328042Y-71487654D02*
G01*
X166328042Y-72313000D01*
X166517385Y-72313000D01*
X166517385Y-71487654D01*
X166786388Y-71487654D01*
X166786388Y-71332902D01*
X166059039Y-71332902D01*
X166059039Y-71487654D01*
X166328042Y-71487654D01*
G37*
G36*
X165395095Y-72313000D02*
G01*
X165584438Y-71952314D01*
X165770826Y-72313000D01*
X165993954Y-72313000D01*
X165692980Y-71809719D01*
X165975214Y-71332902D01*
X165758064Y-71332902D01*
X165579938Y-71670952D01*
X165407857Y-71332902D01*
X165190706Y-71332902D01*
X165470053Y-71804816D01*
X165159877Y-72313000D01*
X165395095Y-72313000D01*
G37*
G36*
X163554053Y-72270013D02*
G01*
X163619398Y-72295050D01*
X163680663Y-72312126D01*
X163742733Y-72322410D01*
X163808011Y-72325896D01*
X163878163Y-72322186D01*
X163940334Y-72311576D01*
X163995541Y-72294663D01*
X164047534Y-72270194D01*
X164093163Y-72239301D01*
X164133098Y-72201771D01*
X164166723Y-72158391D01*
X164195065Y-72107717D01*
X164217997Y-72048765D01*
X164233534Y-71987170D01*
X164243400Y-71916731D01*
X164246879Y-71836250D01*
X164243122Y-71753885D01*
X164232383Y-71680644D01*
X164215310Y-71615472D01*
X164190610Y-71552988D01*
X164160521Y-71498901D01*
X164125173Y-71452257D01*
X164083369Y-71411426D01*
X164036100Y-71377674D01*
X163982779Y-71350701D01*
X163925910Y-71331598D01*
X163863442Y-71319788D01*
X163794510Y-71315707D01*
X163731038Y-71317185D01*
X163672804Y-71322692D01*
X163614974Y-71333238D01*
X163554053Y-71350096D01*
X163554053Y-71534939D01*
X163617809Y-71508579D01*
X163675827Y-71491886D01*
X163732581Y-71482078D01*
X163781010Y-71479057D01*
X163847527Y-71485722D01*
X163900500Y-71504244D01*
X163945673Y-71534439D01*
X163982040Y-71574769D01*
X164009291Y-71623486D01*
X164028990Y-71682841D01*
X164040077Y-71747267D01*
X164043968Y-71820533D01*
X164039911Y-71897771D01*
X164028587Y-71962725D01*
X164008399Y-72021765D01*
X163980831Y-72068915D01*
X163944123Y-72107205D01*
X163898216Y-72135343D01*
X163844838Y-72152194D01*
X163778726Y-72158247D01*
X163724993Y-72153277D01*
X163666423Y-72140112D01*
X163607787Y-72120835D01*
X163554053Y-72098066D01*
X163554053Y-72270013D01*
G37*
G36*
X162882587Y-72313000D02*
G01*
X163177919Y-71839071D01*
X163177919Y-72313000D01*
X163365785Y-72313000D01*
X163365785Y-71332902D01*
X163177919Y-71332902D01*
X163177919Y-71781777D01*
X162884132Y-71332902D01*
X162660937Y-71332902D01*
X162994554Y-71801121D01*
X162643675Y-72313000D01*
X162882587Y-72313000D01*
G37*
D13*
G36*
X161400636Y-69634831D02*
G01*
X161405750Y-69689751D01*
X161420481Y-69738146D01*
X161445042Y-69781702D01*
X161478549Y-69818105D01*
X161520665Y-69847136D01*
X161573499Y-69869433D01*
X161632912Y-69882772D01*
X161705329Y-69887568D01*
X161759943Y-69884787D01*
X161811880Y-69876577D01*
X161861114Y-69863799D01*
X161901395Y-69848880D01*
X161901395Y-69701162D01*
X161861461Y-69724737D01*
X161812612Y-69743752D01*
X161759306Y-69756446D01*
X161705329Y-69760952D01*
X161682738Y-69759169D01*
X161658556Y-69753588D01*
X161635694Y-69743791D01*
X161615142Y-69728914D01*
X161598159Y-69709527D01*
X161583757Y-69683576D01*
X161574764Y-69653599D01*
X161571423Y-69614169D01*
X161571423Y-69194700D01*
X161894556Y-69194700D01*
X161894556Y-69071601D01*
X161400636Y-69071601D01*
X161400636Y-69634831D01*
G37*
G36*
X161146135Y-69873500D02*
G01*
X161146135Y-69739850D01*
X160918684Y-69739850D01*
X160918684Y-69223056D01*
X161116765Y-69321315D01*
X161171414Y-69198217D01*
X160887970Y-69064567D01*
X160747897Y-69064567D01*
X160747897Y-69739850D01*
X160551831Y-69739850D01*
X160551831Y-69873500D01*
X161146135Y-69873500D01*
G37*
D14*
%TO.C,kibuzzard-694AF8B0*%
G36*
X134561012Y-77359532D02*
G01*
X134660366Y-77381341D01*
X134760528Y-77407189D01*
X134867959Y-77437076D01*
X134760528Y-77466963D01*
X134660366Y-77492811D01*
X134561012Y-77515428D01*
X134457620Y-77535622D01*
X134457620Y-77340145D01*
X134561012Y-77359532D01*
G37*
G36*
X135353689Y-76296527D02*
G01*
X135353689Y-78603473D01*
X135353689Y-78738099D01*
X132446311Y-78738099D01*
X132446311Y-78603473D01*
X132446311Y-77903958D01*
X132715563Y-77903958D01*
X132715563Y-78532391D01*
X133715563Y-78532391D01*
X133715563Y-78332068D01*
X132880345Y-78332068D01*
X132880345Y-78168901D01*
X134040819Y-78168901D01*
X134055897Y-78298860D01*
X134101131Y-78406561D01*
X134176521Y-78492003D01*
X134251541Y-78540771D01*
X134340899Y-78575606D01*
X134444595Y-78596506D01*
X134562628Y-78603473D01*
X134680156Y-78594992D01*
X134783953Y-78569548D01*
X134873411Y-78528958D01*
X134947927Y-78475040D01*
X135006893Y-78408805D01*
X135049704Y-78331260D01*
X135075754Y-78244225D01*
X135084437Y-78149515D01*
X135075552Y-78053393D01*
X135055358Y-77978271D01*
X135031125Y-77924152D01*
X135011739Y-77891034D01*
X134853419Y-77942730D01*
X134894615Y-78032391D01*
X134911578Y-78152746D01*
X134894615Y-78244023D01*
X134838072Y-78323183D01*
X134732256Y-78379725D01*
X134657943Y-78396082D01*
X134567474Y-78401535D01*
X134462197Y-78394983D01*
X134374690Y-78375328D01*
X134304954Y-78342569D01*
X134236497Y-78264822D01*
X134213678Y-78149515D01*
X134231449Y-78021082D01*
X134266990Y-77939499D01*
X134110285Y-77889418D01*
X134062628Y-78003312D01*
X134046271Y-78080654D01*
X134040819Y-78168901D01*
X132880345Y-78168901D01*
X132880345Y-77903958D01*
X132715563Y-77903958D01*
X132446311Y-77903958D01*
X132446311Y-77618013D01*
X134061820Y-77618013D01*
X134061820Y-77824798D01*
X134177975Y-77796300D01*
X134289930Y-77767674D01*
X134397684Y-77738918D01*
X134501239Y-77710032D01*
X134600592Y-77681018D01*
X134720594Y-77644972D01*
X134837466Y-77609532D01*
X134951208Y-77574697D01*
X135061820Y-77540468D01*
X135061820Y-77323990D01*
X134950300Y-77288500D01*
X134835447Y-77253110D01*
X134717262Y-77217821D01*
X134595746Y-77182633D01*
X134495552Y-77154685D01*
X134392062Y-77127060D01*
X134285277Y-77099758D01*
X134175197Y-77072779D01*
X134061820Y-77046123D01*
X134061820Y-77259370D01*
X134292838Y-77306220D01*
X134292838Y-77572779D01*
X134061820Y-77618013D01*
X132446311Y-77618013D01*
X132446311Y-77259370D01*
X132446311Y-76495234D01*
X132715563Y-76495234D01*
X133156597Y-76495234D01*
X133156597Y-76760178D01*
X132715563Y-76760178D01*
X132715563Y-76958885D01*
X133715563Y-76958885D01*
X133715563Y-76777948D01*
X134061820Y-76777948D01*
X134061820Y-76957270D01*
X135061820Y-76957270D01*
X135061820Y-76797334D01*
X134987709Y-76752100D01*
X134907539Y-76706866D01*
X134824542Y-76662237D01*
X134741949Y-76618821D01*
X134660770Y-76577625D01*
X134582014Y-76539661D01*
X134509316Y-76505937D01*
X134446311Y-76477464D01*
X135061820Y-76477464D01*
X135061820Y-76298142D01*
X134061820Y-76298142D01*
X134061820Y-76458078D01*
X134172662Y-76504658D01*
X134283324Y-76553931D01*
X134393807Y-76605897D01*
X134504290Y-76660555D01*
X134614952Y-76717905D01*
X134725794Y-76777948D01*
X134061820Y-76777948D01*
X133715563Y-76777948D01*
X133715563Y-76760178D01*
X133321379Y-76760178D01*
X133321379Y-76495234D01*
X133715563Y-76495234D01*
X133715563Y-76458078D01*
X133715563Y-76296527D01*
X132715563Y-76296527D01*
X132715563Y-76495234D01*
X132446311Y-76495234D01*
X132446311Y-76296527D01*
X132446311Y-76161901D01*
X135353689Y-76161901D01*
X135353689Y-76296527D01*
G37*
%TO.C,kibuzzard-694AF877*%
G36*
X198658131Y-76241061D02*
G01*
X198523506Y-76241061D01*
X198098627Y-76241061D01*
X197328029Y-76241061D01*
X196229483Y-76241061D01*
X195864378Y-76241061D01*
X195376494Y-76241061D01*
X195241869Y-76241061D01*
X195241869Y-74950808D01*
X195376494Y-74950808D01*
X195398102Y-75053393D01*
X195424152Y-75167286D01*
X195454443Y-75289863D01*
X195488772Y-75418498D01*
X195513813Y-75506812D01*
X195540468Y-75596204D01*
X195568740Y-75686672D01*
X195598178Y-75776692D01*
X195628334Y-75864737D01*
X195659208Y-75950808D01*
X195864378Y-75950808D01*
X195904362Y-75832068D01*
X195919012Y-75786026D01*
X196229483Y-75786026D01*
X196229483Y-75950808D01*
X196857916Y-75950808D01*
X196857916Y-75000889D01*
X197030775Y-75000889D01*
X197082472Y-75159208D01*
X197169709Y-75118821D01*
X197276333Y-75101050D01*
X197395880Y-75126898D01*
X197475848Y-75198788D01*
X197521082Y-75308643D01*
X197531381Y-75375889D01*
X197534814Y-75450000D01*
X197528532Y-75559047D01*
X197509684Y-75647092D01*
X197478271Y-75714136D01*
X197408401Y-75777746D01*
X197311874Y-75798950D01*
X197273102Y-75797334D01*
X197234330Y-75792488D01*
X197234330Y-75427383D01*
X197035622Y-75427383D01*
X197035622Y-75926575D01*
X197146284Y-75955654D01*
X197229281Y-75967771D01*
X197328029Y-75971809D01*
X197417084Y-75963530D01*
X197496850Y-75938691D01*
X197566519Y-75897496D01*
X197625283Y-75840145D01*
X197672536Y-75766640D01*
X197707674Y-75676979D01*
X197729483Y-75571365D01*
X197736753Y-75450000D01*
X197736411Y-75445153D01*
X197844992Y-75445153D01*
X197844992Y-75608320D01*
X198098627Y-75608320D01*
X198098627Y-75889418D01*
X198269871Y-75889418D01*
X198269871Y-75608320D01*
X198523506Y-75608320D01*
X198523506Y-75445153D01*
X198269871Y-75445153D01*
X198269871Y-75164055D01*
X198098627Y-75164055D01*
X198098627Y-75445153D01*
X197844992Y-75445153D01*
X197736411Y-75445153D01*
X197728271Y-75329847D01*
X197702827Y-75224637D01*
X197662843Y-75134774D01*
X197610743Y-75060662D01*
X197547334Y-75002706D01*
X197473425Y-74961309D01*
X197391438Y-74936470D01*
X197303796Y-74928191D01*
X197199596Y-74937076D01*
X197119628Y-74957270D01*
X197063893Y-74981502D01*
X197030775Y-75000889D01*
X196857916Y-75000889D01*
X196857916Y-74950808D01*
X196657593Y-74950808D01*
X196657593Y-75786026D01*
X196229483Y-75786026D01*
X195919012Y-75786026D01*
X195946769Y-75698788D01*
X195975310Y-75605179D01*
X196002773Y-75511748D01*
X196029160Y-75418498D01*
X196054111Y-75327042D01*
X196077266Y-75238997D01*
X196098627Y-75154362D01*
X196125283Y-75041276D01*
X196143861Y-74950808D01*
X195933845Y-74950808D01*
X195921729Y-75034612D01*
X195904766Y-75130937D01*
X195884370Y-75235137D01*
X195861955Y-75342569D01*
X195837722Y-75450808D01*
X195811874Y-75557431D01*
X195785420Y-75657795D01*
X195759370Y-75747254D01*
X195733522Y-75659006D01*
X195707674Y-75559047D01*
X195682633Y-75452423D01*
X195659208Y-75344184D01*
X195637399Y-75236551D01*
X195617205Y-75131745D01*
X195599435Y-75034814D01*
X195584895Y-74950808D01*
X195376494Y-74950808D01*
X195241869Y-74950808D01*
X195241869Y-74658939D01*
X195376494Y-74658939D01*
X198523506Y-74658939D01*
X198658131Y-74658939D01*
X198658131Y-76241061D01*
G37*
%TO.C,kibuzzard-6972C6E9*%
G36*
X196392380Y-78559855D02*
G01*
X196288988Y-78540468D01*
X196189634Y-78518659D01*
X196089472Y-78492811D01*
X195982041Y-78462924D01*
X196089472Y-78433037D01*
X196189634Y-78407189D01*
X196288988Y-78384572D01*
X196392380Y-78364378D01*
X196392380Y-78559855D01*
G37*
G36*
X198403689Y-78640630D02*
G01*
X198403689Y-79603473D01*
X198403689Y-79738099D01*
X195496311Y-79738099D01*
X195496311Y-79603473D01*
X197134437Y-79603473D01*
X198134437Y-79603473D01*
X198134437Y-79404766D01*
X197693403Y-79404766D01*
X197693403Y-79139822D01*
X198134437Y-79139822D01*
X198134437Y-78941115D01*
X197134437Y-78941115D01*
X197134437Y-79139822D01*
X197528621Y-79139822D01*
X197528621Y-79404766D01*
X197134437Y-79404766D01*
X197134437Y-79441922D01*
X197134437Y-79603473D01*
X195496311Y-79603473D01*
X195496311Y-78942730D01*
X195788180Y-78942730D01*
X195788180Y-79102666D01*
X195862291Y-79147900D01*
X195942461Y-79193134D01*
X196025458Y-79237763D01*
X196108051Y-79281179D01*
X196189230Y-79322375D01*
X196267986Y-79360339D01*
X196340684Y-79394063D01*
X196403689Y-79422536D01*
X195788180Y-79422536D01*
X195788180Y-79601858D01*
X196788180Y-79601858D01*
X196788180Y-79441922D01*
X196677338Y-79395342D01*
X196566676Y-79346069D01*
X196456193Y-79294103D01*
X196345710Y-79239445D01*
X196235048Y-79182095D01*
X196124206Y-79122052D01*
X196788180Y-79122052D01*
X196788180Y-78942730D01*
X195788180Y-78942730D01*
X195496311Y-78942730D01*
X195496311Y-78359532D01*
X195788180Y-78359532D01*
X195788180Y-78576010D01*
X195899700Y-78611500D01*
X196014553Y-78646890D01*
X196132738Y-78682179D01*
X196254254Y-78717367D01*
X196354448Y-78745315D01*
X196457938Y-78772940D01*
X196564723Y-78800242D01*
X196674803Y-78827221D01*
X196788180Y-78853877D01*
X196788180Y-78640630D01*
X196557162Y-78593780D01*
X196557162Y-78327221D01*
X196788180Y-78281987D01*
X196788180Y-78075202D01*
X196672025Y-78103700D01*
X196560070Y-78132326D01*
X196452316Y-78161082D01*
X196348761Y-78189968D01*
X196249408Y-78218982D01*
X196129406Y-78255028D01*
X196012534Y-78290468D01*
X195898792Y-78325303D01*
X195788180Y-78359532D01*
X195496311Y-78359532D01*
X195496311Y-77750485D01*
X195765563Y-77750485D01*
X195774448Y-77846607D01*
X195794642Y-77921729D01*
X195818875Y-77975848D01*
X195838261Y-78008966D01*
X195996581Y-77957270D01*
X195955385Y-77867609D01*
X195938422Y-77747254D01*
X195955385Y-77655977D01*
X196011928Y-77576817D01*
X196117744Y-77520275D01*
X196192057Y-77503918D01*
X196282526Y-77498465D01*
X196387803Y-77505017D01*
X196475310Y-77524672D01*
X196545046Y-77557431D01*
X196613503Y-77635178D01*
X196636322Y-77750485D01*
X196618551Y-77878918D01*
X196583010Y-77960501D01*
X196739715Y-78010582D01*
X196787372Y-77896688D01*
X196803729Y-77819346D01*
X196809181Y-77731099D01*
X196794103Y-77601140D01*
X196748869Y-77493439D01*
X196673479Y-77407997D01*
X196611350Y-77367609D01*
X197134437Y-77367609D01*
X197134437Y-77567932D01*
X197969655Y-77567932D01*
X197969655Y-77731099D01*
X197969655Y-77996042D01*
X198134437Y-77996042D01*
X198134437Y-77367609D01*
X197134437Y-77367609D01*
X196611350Y-77367609D01*
X196598459Y-77359229D01*
X196509101Y-77324394D01*
X196405405Y-77303494D01*
X196287372Y-77296527D01*
X196169844Y-77305008D01*
X196066047Y-77330452D01*
X195976589Y-77371042D01*
X195902073Y-77424960D01*
X195843107Y-77491195D01*
X195800296Y-77568740D01*
X195774246Y-77655775D01*
X195765563Y-77750485D01*
X195496311Y-77750485D01*
X195496311Y-77296527D01*
X195496311Y-77161901D01*
X198403689Y-77161901D01*
X198403689Y-77296527D01*
X198403689Y-77996042D01*
X198403689Y-78640630D01*
G37*
%TO.C,kibuzzard-6972BB08*%
G36*
X149633764Y-64637614D02*
G01*
X149659612Y-64737776D01*
X149682229Y-64837129D01*
X149702423Y-64940522D01*
X149506947Y-64940523D01*
X149526333Y-64837129D01*
X149548142Y-64737776D01*
X149573990Y-64637614D01*
X149603877Y-64530183D01*
X149633764Y-64637614D01*
G37*
G36*
X141563488Y-65010797D02*
G01*
X141614377Y-65024529D01*
X141649111Y-65051992D01*
X141662036Y-65098842D01*
X141623263Y-65172348D01*
X141523102Y-65194158D01*
X141460097Y-65193349D01*
X141406784Y-65189311D01*
X141406785Y-65014836D01*
X141453635Y-65009181D01*
X141503717Y-65006758D01*
X141563488Y-65010797D01*
G37*
G36*
X144794507Y-65010797D02*
G01*
X144845396Y-65024529D01*
X144880129Y-65051992D01*
X144893053Y-65098842D01*
X144854281Y-65172348D01*
X144754120Y-65194157D01*
X144691115Y-65193349D01*
X144637803Y-65189311D01*
X144637803Y-65014836D01*
X144684653Y-65009181D01*
X144734734Y-65006758D01*
X144794507Y-65010797D01*
G37*
G36*
X148025525Y-65010797D02*
G01*
X148076414Y-65024529D01*
X148111147Y-65051992D01*
X148124071Y-65098842D01*
X148085299Y-65172348D01*
X147985137Y-65194157D01*
X147922132Y-65193349D01*
X147868821Y-65189311D01*
X147868820Y-65014836D01*
X147915670Y-65009181D01*
X147965751Y-65006758D01*
X148025525Y-65010797D01*
G37*
G36*
X148876898Y-64746256D02*
G01*
X148918901Y-64788665D01*
X148943134Y-64857727D01*
X148951212Y-64951831D01*
X148941721Y-65044319D01*
X148913247Y-65118228D01*
X148863772Y-65166694D01*
X148791276Y-65182850D01*
X148746042Y-65181233D01*
X148702423Y-65176387D01*
X148702423Y-64762816D01*
X148754120Y-64741007D01*
X148815509Y-64732122D01*
X148876898Y-64746256D01*
G37*
G36*
X151200000Y-63676656D02*
G01*
X151784006Y-63676656D01*
X151200000Y-65623344D01*
X150930749Y-65623345D01*
X149426171Y-65623344D01*
X148792892Y-65623344D01*
X147999677Y-65623345D01*
X146821971Y-65623344D01*
X145865590Y-65623344D01*
X144768659Y-65623344D01*
X143985137Y-65623344D01*
X143023910Y-65623344D01*
X141975444Y-65623345D01*
X141537641Y-65623344D01*
X140408401Y-65623344D01*
X139469251Y-65623345D01*
X139200000Y-65623344D01*
X138985461Y-64908212D01*
X140408400Y-64908212D01*
X140408401Y-65336322D01*
X140607108Y-65336322D01*
X140607108Y-64934060D01*
X140613166Y-64842380D01*
X140631341Y-64780587D01*
X140729887Y-64733737D01*
X140774313Y-64735353D01*
X140820355Y-64740199D01*
X140820355Y-65336322D01*
X141019063Y-65336322D01*
X141019063Y-64866209D01*
X141216155Y-64866209D01*
X141216155Y-65318551D01*
X141345396Y-65341169D01*
X141436268Y-65350862D01*
X141537641Y-65354093D01*
X141669305Y-65341169D01*
X141770275Y-65298358D01*
X141834895Y-65220813D01*
X141857513Y-65103689D01*
X141831664Y-64992219D01*
X141762197Y-64919521D01*
X141668168Y-64882364D01*
X141975444Y-64882364D01*
X141975445Y-65336322D01*
X142136994Y-65336322D01*
X142136995Y-64872671D01*
X142142648Y-64799973D01*
X142157189Y-64757970D01*
X142178191Y-64738584D01*
X142203231Y-64733737D01*
X142233926Y-64736160D01*
X142263005Y-64745046D01*
X142254926Y-64812897D01*
X142251696Y-64895288D01*
X142251696Y-65047146D01*
X142413247Y-65047147D01*
X142413247Y-64872671D01*
X142428595Y-64764432D01*
X142477868Y-64733737D01*
X142501292Y-64735353D01*
X142527948Y-64740199D01*
X142527948Y-65336322D01*
X142689499Y-65336322D01*
X142689499Y-65312090D01*
X142781583Y-65312090D01*
X142900323Y-65344400D01*
X143023910Y-65354093D01*
X143146688Y-65342784D01*
X143237156Y-65299165D01*
X143293700Y-65207889D01*
X143308239Y-65139835D01*
X143308999Y-65126306D01*
X143637803Y-65126306D01*
X143655574Y-65215159D01*
X143714540Y-65287857D01*
X143821971Y-65336322D01*
X143895880Y-65349650D01*
X143985137Y-65354093D01*
X144076414Y-65348438D01*
X144153150Y-65331475D01*
X144264620Y-65291088D01*
X144233926Y-65124690D01*
X144113570Y-65166694D01*
X143983522Y-65186080D01*
X143872051Y-65175579D01*
X143833279Y-65132768D01*
X143845396Y-65097227D01*
X143879321Y-65072187D01*
X143929402Y-65051992D01*
X143988368Y-65032606D01*
X144077220Y-65002719D01*
X144159613Y-64959908D01*
X144221001Y-64894480D01*
X144227897Y-64866209D01*
X144447173Y-64866209D01*
X144447173Y-65318551D01*
X144576414Y-65341169D01*
X144667286Y-65350862D01*
X144768659Y-65354093D01*
X144900323Y-65341169D01*
X145001292Y-65298358D01*
X145065913Y-65220813D01*
X145075428Y-65171540D01*
X145224233Y-65171540D01*
X145224233Y-65336322D01*
X145865590Y-65336322D01*
X145865590Y-64882364D01*
X146821971Y-64882364D01*
X146821971Y-65336322D01*
X146983522Y-65336321D01*
X146983522Y-64872671D01*
X146989176Y-64799972D01*
X147003716Y-64757970D01*
X147024717Y-64738584D01*
X147049757Y-64733737D01*
X147080452Y-64736160D01*
X147109532Y-64745046D01*
X147101454Y-64812898D01*
X147098223Y-64895288D01*
X147098223Y-65047146D01*
X147259774Y-65047146D01*
X147259774Y-64872671D01*
X147275121Y-64764433D01*
X147324393Y-64733737D01*
X147347819Y-64735353D01*
X147374475Y-64740199D01*
X147374475Y-65336322D01*
X147536026Y-65336322D01*
X147536026Y-64866209D01*
X147678191Y-64866209D01*
X147678191Y-65318551D01*
X147807431Y-65341169D01*
X147898304Y-65350862D01*
X147999678Y-65354093D01*
X148131341Y-65341169D01*
X148196114Y-65313705D01*
X148503716Y-65313705D01*
X148564701Y-65329861D01*
X148637803Y-65342784D01*
X148716155Y-65351265D01*
X148792892Y-65354093D01*
X148901758Y-65342425D01*
X148917391Y-65336322D01*
X149212924Y-65336322D01*
X149426171Y-65336322D01*
X149473022Y-65105304D01*
X149739580Y-65105304D01*
X149784814Y-65336322D01*
X149991599Y-65336322D01*
X149963102Y-65220167D01*
X149934475Y-65108212D01*
X149905719Y-65000458D01*
X149876835Y-64896904D01*
X149847819Y-64797550D01*
X149811773Y-64677547D01*
X149776333Y-64560675D01*
X149741498Y-64446934D01*
X149707270Y-64336322D01*
X149490792Y-64336322D01*
X149455301Y-64447843D01*
X149419911Y-64562695D01*
X149384622Y-64680880D01*
X149349435Y-64802396D01*
X149321486Y-64902590D01*
X149293860Y-65006080D01*
X149266558Y-65112865D01*
X149239579Y-65222946D01*
X149212924Y-65336322D01*
X148917391Y-65336322D01*
X148991420Y-65307422D01*
X149061874Y-65249085D01*
X149112583Y-65170463D01*
X149143008Y-65074610D01*
X149153150Y-64961524D01*
X149144624Y-64846374D01*
X149119045Y-64748636D01*
X149076414Y-64668309D01*
X149017088Y-64608625D01*
X148941429Y-64572815D01*
X148849435Y-64560878D01*
X148770275Y-64569763D01*
X148702423Y-64594803D01*
X148702423Y-64249085D01*
X148503716Y-64215159D01*
X148503716Y-65313705D01*
X148196114Y-65313705D01*
X148232310Y-65298358D01*
X148296931Y-65220813D01*
X148319548Y-65103689D01*
X148293700Y-64992219D01*
X148224233Y-64919521D01*
X148124071Y-64879941D01*
X148006139Y-64867824D01*
X147933037Y-64871054D01*
X147868821Y-64880749D01*
X147868821Y-64856515D01*
X147904362Y-64762009D01*
X147952827Y-64733535D01*
X148027142Y-64724044D01*
X148136187Y-64732122D01*
X148221002Y-64751508D01*
X148248465Y-64591572D01*
X148143457Y-64568147D01*
X148074394Y-64560272D01*
X148002908Y-64557647D01*
X147917084Y-64563099D01*
X147847011Y-64579455D01*
X147747658Y-64640845D01*
X147694346Y-64737776D01*
X147678191Y-64866209D01*
X147536026Y-64866209D01*
X147536026Y-64606112D01*
X147411632Y-64578649D01*
X147303393Y-64568955D01*
X147228271Y-64579456D01*
X147170921Y-64614190D01*
X147106300Y-64582687D01*
X147028756Y-64568955D01*
X146925362Y-64588341D01*
X146861551Y-64646500D01*
X146830048Y-64744238D01*
X146823990Y-64808253D01*
X146821971Y-64882364D01*
X145865590Y-64882364D01*
X145865590Y-64336322D01*
X145259774Y-64336322D01*
X145259774Y-64501104D01*
X145666882Y-64501104D01*
X145666882Y-64725660D01*
X145313086Y-64725660D01*
X145313086Y-64890442D01*
X145666882Y-64890442D01*
X145666882Y-65171540D01*
X145224233Y-65171540D01*
X145075428Y-65171540D01*
X145088530Y-65103689D01*
X145062682Y-64992219D01*
X144993215Y-64919521D01*
X144893053Y-64879941D01*
X144775121Y-64867824D01*
X144702019Y-64871055D01*
X144637803Y-64880749D01*
X144637803Y-64856516D01*
X144673344Y-64762009D01*
X144721809Y-64733535D01*
X144796123Y-64724044D01*
X144905170Y-64732122D01*
X144989984Y-64751508D01*
X145017447Y-64591572D01*
X144912439Y-64568148D01*
X144843376Y-64560272D01*
X144771890Y-64557647D01*
X144686066Y-64563099D01*
X144615994Y-64579455D01*
X144516640Y-64640845D01*
X144463328Y-64737776D01*
X144447173Y-64866209D01*
X144227897Y-64866209D01*
X144245234Y-64795127D01*
X144226656Y-64703850D01*
X144168498Y-64627921D01*
X144067528Y-64576225D01*
X144000082Y-64562291D01*
X143920516Y-64557647D01*
X143848829Y-64560474D01*
X143782392Y-64568955D01*
X143671729Y-64601265D01*
X143702423Y-64769278D01*
X143788045Y-64742623D01*
X143918901Y-64724044D01*
X144021486Y-64742623D01*
X144048141Y-64782202D01*
X144036026Y-64813705D01*
X144003716Y-64838744D01*
X143956866Y-64860554D01*
X143899515Y-64880749D01*
X143809047Y-64913059D01*
X143724233Y-64957485D01*
X143662036Y-65025337D01*
X143637803Y-65126306D01*
X143308999Y-65126306D01*
X143313086Y-65053608D01*
X143313086Y-64741815D01*
X143485945Y-64741815D01*
X143485946Y-64577033D01*
X143313086Y-64577033D01*
X143313086Y-64386403D01*
X143114378Y-64354093D01*
X143114378Y-64577033D01*
X142796123Y-64577033D01*
X142796123Y-64741815D01*
X143114379Y-64741815D01*
X143114378Y-65048761D01*
X143106300Y-65116613D01*
X143083683Y-65157001D01*
X143048142Y-65176387D01*
X143001292Y-65181233D01*
X142950404Y-65179618D01*
X142905170Y-65173963D01*
X142859935Y-65161847D01*
X142809047Y-65140845D01*
X142781583Y-65312090D01*
X142689499Y-65312090D01*
X142689499Y-64606112D01*
X142565104Y-64578648D01*
X142456866Y-64568955D01*
X142381745Y-64579456D01*
X142324394Y-64614190D01*
X142259774Y-64582687D01*
X142182229Y-64568955D01*
X142078837Y-64588341D01*
X142015024Y-64646500D01*
X141983522Y-64744238D01*
X141977464Y-64808253D01*
X141975444Y-64882364D01*
X141668168Y-64882364D01*
X141662036Y-64879941D01*
X141544103Y-64867824D01*
X141471002Y-64871055D01*
X141406785Y-64880749D01*
X141406785Y-64856516D01*
X141442326Y-64762009D01*
X141490792Y-64733535D01*
X141565105Y-64724044D01*
X141674152Y-64732122D01*
X141758967Y-64751508D01*
X141786430Y-64591572D01*
X141681423Y-64568148D01*
X141612359Y-64560272D01*
X141540872Y-64557647D01*
X141455048Y-64563099D01*
X141384976Y-64579456D01*
X141285622Y-64640845D01*
X141232310Y-64737777D01*
X141216155Y-64866209D01*
X141019063Y-64866209D01*
X141019063Y-64601265D01*
X140959491Y-64587130D01*
X140887399Y-64573801D01*
X140805614Y-64564109D01*
X140716963Y-64560878D01*
X140634168Y-64567138D01*
X140566721Y-64585918D01*
X140472213Y-64657001D01*
X140422940Y-64766854D01*
X140412036Y-64834101D01*
X140408400Y-64908212D01*
X138985461Y-64908212D01*
X138615994Y-63676656D01*
X139200000Y-63676656D01*
X139469251Y-63676655D01*
X150930749Y-63676655D01*
X151200000Y-63676656D01*
G37*
%TD*%
M02*
