%TF.GenerationSoftware,KiCad,Pcbnew,9.0.4*%
%TF.CreationDate,2026-01-25T14:52:30+00:00*%
%TF.ProjectId,can-repeater,63616e2d-7265-4706-9561-7465722e6b69,rev?*%
%TF.SameCoordinates,Original*%
%TF.FileFunction,Copper,L4,Bot*%
%TF.FilePolarity,Positive*%
%FSLAX46Y46*%
G04 Gerber Fmt 4.6, Leading zero omitted, Abs format (unit mm)*
G04 Created by KiCad (PCBNEW 9.0.4) date 2026-01-25 14:52:30*
%MOMM*%
%LPD*%
G01*
G04 APERTURE LIST*
%TA.AperFunction,ComponentPad*%
%ADD10C,2.600000*%
%TD*%
%TA.AperFunction,ConnectorPad*%
%ADD11C,3.800000*%
%TD*%
%TA.AperFunction,ComponentPad*%
%ADD12R,1.150000X1.150000*%
%TD*%
%TA.AperFunction,ComponentPad*%
%ADD13C,1.150000*%
%TD*%
%TA.AperFunction,ComponentPad*%
%ADD14C,3.750000*%
%TD*%
%TA.AperFunction,ComponentPad*%
%ADD15R,1.700000X1.700000*%
%TD*%
%TA.AperFunction,ComponentPad*%
%ADD16C,1.700000*%
%TD*%
%TA.AperFunction,ViaPad*%
%ADD17C,0.600000*%
%TD*%
%TA.AperFunction,Conductor*%
%ADD18C,0.200000*%
%TD*%
G04 APERTURE END LIST*
D10*
%TO.P,H3,1,1*%
%TO.N,GND*%
X196950000Y-88110000D03*
D11*
X196950000Y-88110000D03*
%TD*%
D10*
%TO.P,H1,1,1*%
%TO.N,GND*%
X196950000Y-66800000D03*
D11*
X196950000Y-66800000D03*
%TD*%
D10*
%TO.P,H2,1,1*%
%TO.N,GND*%
X133900000Y-88100000D03*
D11*
X133900000Y-88100000D03*
%TD*%
D12*
%TO.P,J4,1,Pin_1*%
%TO.N,GND*%
X191950000Y-75450000D03*
D13*
%TO.P,J4,2,Pin_2*%
%TO.N,2_CAN-*%
X191950000Y-77450000D03*
%TO.P,J4,3,Pin_3*%
%TO.N,2_CAN+*%
X191950000Y-79450000D03*
%TO.P,J4,4,Pin_4*%
%TO.N,Net-(J4-Pin_4)*%
X193950000Y-75450000D03*
%TO.P,J4,5,Pin_5*%
%TO.N,2_CAN-*%
X193950000Y-77450000D03*
%TO.P,J4,6,Pin_6*%
%TO.N,2_CAN+*%
X193950000Y-79450000D03*
D14*
%TO.P,J4,7,Pin_7*%
%TO.N,GND*%
X192950000Y-71950000D03*
%TO.P,J4,8,Pin_8*%
X192950000Y-82950000D03*
%TD*%
D12*
%TO.P,J3,1,Pin_1*%
%TO.N,1_CAN-*%
X138900000Y-78450000D03*
D13*
%TO.P,J3,2,Pin_2*%
%TO.N,1_CAN+*%
X138900000Y-76450000D03*
%TO.P,J3,3,Pin_3*%
%TO.N,1_CAN-*%
X136900000Y-78450000D03*
%TO.P,J3,4,Pin_4*%
%TO.N,1_CAN+*%
X136900000Y-76450000D03*
D14*
%TO.P,J3,5,Pin_5*%
%TO.N,GND*%
X137900000Y-81950000D03*
%TO.P,J3,6,Pin_6*%
X137900000Y-72950000D03*
%TD*%
D10*
%TO.P,H4,1,1*%
%TO.N,GND*%
X133850000Y-66800000D03*
D11*
X133850000Y-66800000D03*
%TD*%
D15*
%TO.P,J1,1,Pin_1*%
%TO.N,USART1_RX*%
X163627122Y-69511934D03*
D16*
%TO.P,J1,2,Pin_2*%
%TO.N,USART1_TX*%
X166167122Y-69511934D03*
%TO.P,J1,3,Pin_3*%
%TO.N,USART1_CK*%
X168707121Y-69511934D03*
%TD*%
D17*
%TO.N,GND*%
X183870000Y-87850000D03*
X182420000Y-87120000D03*
X174740000Y-87980000D03*
X167110000Y-87320000D03*
X160600000Y-88840000D03*
X156810000Y-86240000D03*
X161220000Y-82410000D03*
X155930000Y-70740000D03*
X161690000Y-70980000D03*
X170410000Y-71610000D03*
X169040000Y-73420000D03*
X169550000Y-64620000D03*
X174880000Y-65750000D03*
X177120000Y-69610000D03*
X176070000Y-74800000D03*
X183720000Y-73450000D03*
X185890000Y-73420000D03*
X167600000Y-82000000D03*
X188350000Y-74500000D03*
X172900000Y-77000000D03*
X189100000Y-81400000D03*
X162200000Y-76750000D03*
X148250000Y-68450000D03*
X183100000Y-84150000D03*
X174400000Y-84550000D03*
X145900000Y-70200000D03*
X172850000Y-81150000D03*
X179400000Y-74200000D03*
X183600000Y-78200000D03*
X191750000Y-88600000D03*
X151650000Y-74250000D03*
X158250000Y-67150000D03*
%TO.N,+3V3*%
X171000000Y-68750000D03*
X175600000Y-85500000D03*
X175100000Y-74000000D03*
X162700000Y-87400000D03*
X179700000Y-71600000D03*
X179700000Y-73100000D03*
X170600000Y-87000000D03*
X156000000Y-72450000D03*
X155800000Y-69300000D03*
X154500000Y-82250000D03*
X179700000Y-72350000D03*
X152400000Y-82900000D03*
X161300000Y-69800000D03*
X166950000Y-88350000D03*
X170800000Y-73900000D03*
X162000000Y-66800000D03*
%TO.N,/NReset*%
X160600000Y-78100000D03*
X171700000Y-80300000D03*
X156200000Y-82500000D03*
%TO.N,SYS_JTDO*%
X166100000Y-74700000D03*
X179900000Y-82400000D03*
%TO.N,SYS_JTDI*%
X178650000Y-82400000D03*
X167200000Y-74700000D03*
%TO.N,SYS_JTCK-SW*%
X181150000Y-82400000D03*
X168300000Y-74650000D03*
%TO.N,USART1_TX*%
X164000000Y-76100000D03*
%TO.N,USART1_RX*%
X163300000Y-74300000D03*
%TO.N,USART1_CK*%
X164725735Y-77674265D03*
%TO.N,MCU_CAN1_TX*%
X152700000Y-71950000D03*
X161100000Y-74300000D03*
%TO.N,MCU_CAN1_RX*%
X162250000Y-74300000D03*
X152700000Y-68400000D03*
%TO.N,/STAT1_LED*%
X149200000Y-76600000D03*
X160400000Y-80550000D03*
%TO.N,/STAT2_LED*%
X149200000Y-80050000D03*
X160400000Y-81500000D03*
%TO.N,/ERROR_LED*%
X157600000Y-82650000D03*
X149200000Y-83650000D03*
%TO.N,+GLV_PROT*%
X178600000Y-65900000D03*
X174550000Y-67900000D03*
%TO.N,Net-(U1-SW)*%
X172700000Y-70400000D03*
X179400000Y-69800000D03*
%TD*%
D18*
%TO.N,/NReset*%
X156200000Y-82500000D02*
X160600000Y-78100000D01*
X162800000Y-80300000D02*
X160600000Y-78100000D01*
X171700000Y-80300000D02*
X162800000Y-80300000D01*
%TO.N,SYS_JTDO*%
X166100000Y-74700000D02*
X166100000Y-75900000D01*
X166100000Y-75900000D02*
X168750000Y-78550000D01*
X179900000Y-82900000D02*
X179900000Y-82400000D01*
X168750000Y-78550000D02*
X171300000Y-78550000D01*
X179150000Y-83650000D02*
X179900000Y-82900000D01*
X171300000Y-78550000D02*
X176400000Y-83650000D01*
X176400000Y-83650000D02*
X179150000Y-83650000D01*
%TO.N,SYS_JTDI*%
X168750000Y-77000000D02*
X170500000Y-77000000D01*
X167200000Y-74700000D02*
X167200000Y-75450000D01*
X170500000Y-77000000D02*
X175900000Y-82400000D01*
X167200000Y-75450000D02*
X168750000Y-77000000D01*
X175900000Y-82400000D02*
X178650000Y-82400000D01*
%TO.N,SYS_JTCK-SW*%
X179400000Y-78950000D02*
X181150000Y-80700000D01*
X181150000Y-80700000D02*
X181150000Y-82400000D01*
X174050000Y-74650000D02*
X178350000Y-78950000D01*
X178350000Y-78950000D02*
X179400000Y-78950000D01*
X168300000Y-74650000D02*
X174050000Y-74650000D01*
%TO.N,USART1_TX*%
X164000000Y-71679056D02*
X166167122Y-69511934D01*
X164000000Y-76100000D02*
X164000000Y-71679056D01*
%TO.N,USART1_RX*%
X163300000Y-69839056D02*
X163627122Y-69511934D01*
X163300000Y-74300000D02*
X163300000Y-69839056D01*
%TO.N,USART1_CK*%
X164725735Y-77674265D02*
X164725735Y-73493320D01*
X164725735Y-73493320D02*
X168707121Y-69511934D01*
%TO.N,MCU_CAN1_TX*%
X153300000Y-71350000D02*
X152700000Y-71950000D01*
X161100000Y-74300000D02*
X158150000Y-71350000D01*
X158150000Y-71350000D02*
X153300000Y-71350000D01*
%TO.N,MCU_CAN1_RX*%
X156350000Y-68400000D02*
X152700000Y-68400000D01*
X162250000Y-74300000D02*
X156350000Y-68400000D01*
%TO.N,/STAT1_LED*%
X148900000Y-84500000D02*
X148450000Y-84050000D01*
X160400000Y-80550000D02*
X158650000Y-82300000D01*
X148450000Y-84050000D02*
X148450000Y-81800000D01*
X158650000Y-82650000D02*
X156800000Y-84500000D01*
X149850000Y-77250000D02*
X149200000Y-76600000D01*
X149850000Y-80400000D02*
X149850000Y-77250000D01*
X148450000Y-81800000D02*
X149850000Y-80400000D01*
X158650000Y-82300000D02*
X158650000Y-82650000D01*
X156800000Y-84500000D02*
X148900000Y-84500000D01*
%TO.N,/STAT2_LED*%
X148550000Y-85300000D02*
X147750000Y-84500000D01*
X159450000Y-82450000D02*
X159450000Y-82800000D01*
X159450000Y-82800000D02*
X156950000Y-85300000D01*
X147750000Y-84500000D02*
X147750000Y-81500000D01*
X156950000Y-85300000D02*
X148550000Y-85300000D01*
X160400000Y-81500000D02*
X159450000Y-82450000D01*
X147750000Y-81500000D02*
X149200000Y-80050000D01*
%TO.N,/ERROR_LED*%
X157600000Y-82650000D02*
X156600000Y-83650000D01*
X156600000Y-83650000D02*
X149200000Y-83650000D01*
%TO.N,+GLV_PROT*%
X178600000Y-65900000D02*
X176550000Y-65900000D01*
X176550000Y-65900000D02*
X174550000Y-67900000D01*
%TO.N,Net-(U1-SW)*%
X178200000Y-70400000D02*
X172700000Y-70400000D01*
X178800000Y-69800000D02*
X178200000Y-70400000D01*
X179400000Y-69800000D02*
X178800000Y-69800000D01*
%TD*%
%TA.AperFunction,Conductor*%
%TO.N,GND*%
G36*
X196966858Y-64100693D02*
G01*
X197257190Y-64116935D01*
X197270978Y-64118486D01*
X197554218Y-64166552D01*
X197567771Y-64169642D01*
X197843841Y-64249123D01*
X197856948Y-64253707D01*
X198122381Y-64363601D01*
X198134892Y-64369623D01*
X198386354Y-64508551D01*
X198398129Y-64515947D01*
X198632442Y-64682154D01*
X198643308Y-64690818D01*
X198654261Y-64700604D01*
X198857532Y-64882214D01*
X198867364Y-64892044D01*
X198875615Y-64901275D01*
X199058806Y-65106224D01*
X199067478Y-65117096D01*
X199233734Y-65351368D01*
X199241134Y-65363143D01*
X199348141Y-65556726D01*
X199380109Y-65614557D01*
X199386144Y-65627087D01*
X199496091Y-65892480D01*
X199500685Y-65905607D01*
X199580219Y-66181636D01*
X199583315Y-66195195D01*
X199631442Y-66478414D01*
X199632999Y-66492233D01*
X199649305Y-66782528D01*
X199649500Y-66789482D01*
X199649501Y-82409107D01*
X199649500Y-88048207D01*
X199649500Y-88110610D01*
X199649304Y-88117581D01*
X199632919Y-88408581D01*
X199631354Y-88422434D01*
X199582995Y-88706310D01*
X199579885Y-88719899D01*
X199499967Y-88996552D01*
X199495351Y-89009707D01*
X199384885Y-89275636D01*
X199378821Y-89288191D01*
X199239198Y-89540043D01*
X199231765Y-89551835D01*
X199064748Y-89786435D01*
X199056036Y-89797320D01*
X198863759Y-90011667D01*
X198853882Y-90021505D01*
X198638743Y-90212929D01*
X198627823Y-90221596D01*
X198392565Y-90387654D01*
X198380741Y-90395041D01*
X198128321Y-90533646D01*
X198115744Y-90539658D01*
X197849374Y-90649048D01*
X197836200Y-90653611D01*
X197559222Y-90732412D01*
X197545620Y-90735467D01*
X197261552Y-90782679D01*
X197247692Y-90784188D01*
X196956650Y-90799394D01*
X196950194Y-90799563D01*
X196949908Y-90799563D01*
X196887256Y-90799311D01*
X196886269Y-90799570D01*
X196877366Y-90799571D01*
X196877363Y-90799570D01*
X196877352Y-90799571D01*
X133951889Y-90799500D01*
X133889478Y-90799500D01*
X133882525Y-90799305D01*
X133592268Y-90783004D01*
X133578450Y-90781447D01*
X133295285Y-90733334D01*
X133281728Y-90730240D01*
X133005721Y-90650724D01*
X132992596Y-90646131D01*
X132727237Y-90536216D01*
X132714709Y-90530183D01*
X132463319Y-90391244D01*
X132451545Y-90383845D01*
X132217298Y-90217637D01*
X132206426Y-90208968D01*
X131992256Y-90017574D01*
X131982423Y-90007741D01*
X131791030Y-89793572D01*
X131782360Y-89782700D01*
X131616151Y-89548449D01*
X131608753Y-89536675D01*
X131511447Y-89360614D01*
X131469811Y-89285280D01*
X131463785Y-89272766D01*
X131353865Y-89007397D01*
X131349273Y-88994273D01*
X131307853Y-88850500D01*
X131269755Y-88718259D01*
X131266664Y-88704713D01*
X131258611Y-88657314D01*
X131218550Y-88421535D01*
X131216996Y-88407736D01*
X131210053Y-88284108D01*
X166449500Y-88284108D01*
X166449500Y-88415891D01*
X166483608Y-88543187D01*
X166516554Y-88600250D01*
X166549500Y-88657314D01*
X166642686Y-88750500D01*
X166756814Y-88816392D01*
X166884108Y-88850500D01*
X166884110Y-88850500D01*
X167015890Y-88850500D01*
X167015892Y-88850500D01*
X167143186Y-88816392D01*
X167257314Y-88750500D01*
X167350500Y-88657314D01*
X167416392Y-88543186D01*
X167450500Y-88415892D01*
X167450500Y-88284108D01*
X167416392Y-88156814D01*
X167350500Y-88042686D01*
X167257314Y-87949500D01*
X167172442Y-87900499D01*
X167143187Y-87883608D01*
X167078931Y-87866391D01*
X167015892Y-87849500D01*
X166884108Y-87849500D01*
X166756812Y-87883608D01*
X166642686Y-87949500D01*
X166642683Y-87949502D01*
X166549502Y-88042683D01*
X166549500Y-88042686D01*
X166483608Y-88156812D01*
X166449500Y-88284108D01*
X131210053Y-88284108D01*
X131200695Y-88117472D01*
X131200500Y-88110519D01*
X131200500Y-87334108D01*
X162199500Y-87334108D01*
X162199500Y-87465891D01*
X162233608Y-87593187D01*
X162266554Y-87650250D01*
X162299500Y-87707314D01*
X162392686Y-87800500D01*
X162506814Y-87866392D01*
X162634108Y-87900500D01*
X162634110Y-87900500D01*
X162765890Y-87900500D01*
X162765892Y-87900500D01*
X162893186Y-87866392D01*
X163007314Y-87800500D01*
X163100500Y-87707314D01*
X163166392Y-87593186D01*
X163200500Y-87465892D01*
X163200500Y-87334108D01*
X163166392Y-87206814D01*
X163100500Y-87092686D01*
X163007314Y-86999500D01*
X162950250Y-86966554D01*
X162894053Y-86934108D01*
X170099500Y-86934108D01*
X170099500Y-87065892D01*
X170116554Y-87129539D01*
X170133608Y-87193187D01*
X170141475Y-87206812D01*
X170199500Y-87307314D01*
X170292686Y-87400500D01*
X170391521Y-87457563D01*
X170405944Y-87465890D01*
X170406814Y-87466392D01*
X170534108Y-87500500D01*
X170534110Y-87500500D01*
X170665890Y-87500500D01*
X170665892Y-87500500D01*
X170793186Y-87466392D01*
X170907314Y-87400500D01*
X171000500Y-87307314D01*
X171066392Y-87193186D01*
X171100500Y-87065892D01*
X171100500Y-86934108D01*
X171066392Y-86806814D01*
X171000500Y-86692686D01*
X170907314Y-86599500D01*
X170850250Y-86566554D01*
X170793187Y-86533608D01*
X170729539Y-86516554D01*
X170665892Y-86499500D01*
X170534108Y-86499500D01*
X170406812Y-86533608D01*
X170292686Y-86599500D01*
X170292683Y-86599502D01*
X170199502Y-86692683D01*
X170199500Y-86692686D01*
X170133608Y-86806812D01*
X170108773Y-86899500D01*
X170099500Y-86934108D01*
X162894053Y-86934108D01*
X162893187Y-86933608D01*
X162829539Y-86916554D01*
X162765892Y-86899500D01*
X162634108Y-86899500D01*
X162506812Y-86933608D01*
X162392686Y-86999500D01*
X162392683Y-86999502D01*
X162299502Y-87092683D01*
X162299500Y-87092686D01*
X162233608Y-87206812D01*
X162199500Y-87334108D01*
X131200500Y-87334108D01*
X131200500Y-81807449D01*
X135725000Y-81807449D01*
X135725000Y-82092550D01*
X135725001Y-82092566D01*
X135762214Y-82375230D01*
X135836008Y-82650633D01*
X135945113Y-82914035D01*
X135945117Y-82914044D01*
X136087669Y-83160951D01*
X136087680Y-83160968D01*
X136195267Y-83301176D01*
X136195268Y-83301176D01*
X136945809Y-82550635D01*
X137041898Y-82682888D01*
X137167112Y-82808102D01*
X137299363Y-82904189D01*
X136548822Y-83654729D01*
X136548822Y-83654731D01*
X136689031Y-83762319D01*
X136689048Y-83762330D01*
X136935955Y-83904882D01*
X136935964Y-83904886D01*
X137199366Y-84013991D01*
X137474769Y-84087785D01*
X137757433Y-84124998D01*
X137757450Y-84125000D01*
X138042550Y-84125000D01*
X138042566Y-84124998D01*
X138325230Y-84087785D01*
X138600633Y-84013991D01*
X138864035Y-83904886D01*
X138864044Y-83904882D01*
X139110954Y-83762328D01*
X139251176Y-83654730D01*
X139251176Y-83654729D01*
X138500636Y-82904189D01*
X138632888Y-82808102D01*
X138758102Y-82682888D01*
X138854189Y-82550636D01*
X139604729Y-83301176D01*
X139604730Y-83301176D01*
X139712328Y-83160954D01*
X139854882Y-82914044D01*
X139854886Y-82914035D01*
X139963991Y-82650633D01*
X140037785Y-82375230D01*
X140074998Y-82092566D01*
X140075000Y-82092550D01*
X140075000Y-81807449D01*
X140074998Y-81807433D01*
X140037785Y-81524769D01*
X140026969Y-81484403D01*
X140020548Y-81460438D01*
X147449500Y-81460438D01*
X147449500Y-84539562D01*
X147463152Y-84590513D01*
X147469979Y-84615990D01*
X147469982Y-84615995D01*
X147509535Y-84684504D01*
X147509539Y-84684509D01*
X147509540Y-84684511D01*
X148309540Y-85484511D01*
X148365489Y-85540460D01*
X148365491Y-85540461D01*
X148365495Y-85540464D01*
X148434004Y-85580017D01*
X148434011Y-85580021D01*
X148510438Y-85600500D01*
X148510440Y-85600500D01*
X156989560Y-85600500D01*
X156989562Y-85600500D01*
X157065989Y-85580021D01*
X157134511Y-85540460D01*
X157190460Y-85484511D01*
X157240863Y-85434108D01*
X175099500Y-85434108D01*
X175099500Y-85565891D01*
X175133608Y-85693187D01*
X175166554Y-85750250D01*
X175199500Y-85807314D01*
X175292686Y-85900500D01*
X175406814Y-85966392D01*
X175534108Y-86000500D01*
X175534110Y-86000500D01*
X175665890Y-86000500D01*
X175665892Y-86000500D01*
X175793186Y-85966392D01*
X175907314Y-85900500D01*
X176000500Y-85807314D01*
X176066392Y-85693186D01*
X176100500Y-85565892D01*
X176100500Y-85434108D01*
X176066392Y-85306814D01*
X176000500Y-85192686D01*
X175907314Y-85099500D01*
X175850250Y-85066554D01*
X175793187Y-85033608D01*
X175719974Y-85013991D01*
X175665892Y-84999500D01*
X175534108Y-84999500D01*
X175406812Y-85033608D01*
X175292686Y-85099500D01*
X175292683Y-85099502D01*
X175199502Y-85192683D01*
X175199500Y-85192686D01*
X175133608Y-85306812D01*
X175099500Y-85434108D01*
X157240863Y-85434108D01*
X159690460Y-82984511D01*
X159700921Y-82966392D01*
X159730021Y-82915989D01*
X159750500Y-82839562D01*
X159750500Y-82625832D01*
X159770185Y-82558793D01*
X159786815Y-82538155D01*
X160141614Y-82183355D01*
X160176745Y-82158723D01*
X160580768Y-81969719D01*
X160593186Y-81966392D01*
X160615841Y-81953312D01*
X160641450Y-81941332D01*
X160655088Y-81934321D01*
X160656598Y-81933472D01*
X160659699Y-81931693D01*
X160659702Y-81931689D01*
X160665517Y-81927385D01*
X160665532Y-81927405D01*
X160682359Y-81914907D01*
X160707314Y-81900500D01*
X160800500Y-81807314D01*
X160866392Y-81693186D01*
X160900500Y-81565892D01*
X160900500Y-81434108D01*
X160866392Y-81306814D01*
X160800500Y-81192686D01*
X160720495Y-81112681D01*
X160687010Y-81051358D01*
X160691994Y-80981666D01*
X160720495Y-80937319D01*
X160750393Y-80907421D01*
X160800500Y-80857314D01*
X160866392Y-80743186D01*
X160900500Y-80615892D01*
X160900500Y-80484108D01*
X160866392Y-80356814D01*
X160800500Y-80242686D01*
X160707314Y-80149500D01*
X160633380Y-80106814D01*
X160593187Y-80083608D01*
X160518115Y-80063493D01*
X160465892Y-80049500D01*
X160334108Y-80049500D01*
X160206812Y-80083608D01*
X160092686Y-80149500D01*
X159999500Y-80242685D01*
X159975162Y-80284838D01*
X159971739Y-80290767D01*
X159958667Y-80308548D01*
X159946681Y-80334166D01*
X159944008Y-80338797D01*
X159933609Y-80356809D01*
X159933608Y-80356812D01*
X159933111Y-80358669D01*
X159925655Y-80379114D01*
X159741274Y-80773252D01*
X159716637Y-80808390D01*
X158465489Y-82059540D01*
X158409541Y-82115487D01*
X158409535Y-82115495D01*
X158369982Y-82184004D01*
X158369979Y-82184009D01*
X158369600Y-82185424D01*
X158349977Y-82258660D01*
X158349500Y-82260439D01*
X158349500Y-82474166D01*
X158340855Y-82503606D01*
X158334332Y-82533593D01*
X158330577Y-82538608D01*
X158329815Y-82541205D01*
X158313181Y-82561847D01*
X158292608Y-82582420D01*
X158231285Y-82615905D01*
X158161593Y-82610921D01*
X158105660Y-82569049D01*
X158085153Y-82526834D01*
X158066392Y-82456814D01*
X158000500Y-82342686D01*
X157907314Y-82249500D01*
X157844853Y-82213438D01*
X157793187Y-82183608D01*
X157729539Y-82166554D01*
X157665892Y-82149500D01*
X157534108Y-82149500D01*
X157406812Y-82183608D01*
X157292686Y-82249500D01*
X157199500Y-82342685D01*
X157176887Y-82381850D01*
X157171739Y-82390767D01*
X157158667Y-82408548D01*
X157146681Y-82434166D01*
X157144008Y-82438797D01*
X157133609Y-82456809D01*
X157133608Y-82456812D01*
X157133111Y-82458669D01*
X157125655Y-82479114D01*
X156941274Y-82873252D01*
X156916637Y-82908390D01*
X156511848Y-83313181D01*
X156450525Y-83346666D01*
X156424167Y-83349500D01*
X152933183Y-83349500D01*
X152866144Y-83329815D01*
X152820389Y-83277011D01*
X152810445Y-83207853D01*
X152825795Y-83163501D01*
X152866392Y-83093186D01*
X152900500Y-82965892D01*
X152900500Y-82834108D01*
X152866392Y-82706814D01*
X152800500Y-82592686D01*
X152707314Y-82499500D01*
X152633378Y-82456813D01*
X152593187Y-82433608D01*
X152529539Y-82416554D01*
X152465892Y-82399500D01*
X152334108Y-82399500D01*
X152206812Y-82433608D01*
X152092686Y-82499500D01*
X152092683Y-82499502D01*
X151999502Y-82592683D01*
X151999500Y-82592686D01*
X151933608Y-82706812D01*
X151909713Y-82795991D01*
X151899500Y-82834108D01*
X151899500Y-82965892D01*
X151899634Y-82966391D01*
X151933608Y-83093187D01*
X151947251Y-83116816D01*
X151974204Y-83163500D01*
X151990677Y-83231399D01*
X151967825Y-83297426D01*
X151912904Y-83340617D01*
X151866817Y-83349500D01*
X149865916Y-83349500D01*
X149823649Y-83342074D01*
X149414585Y-83193757D01*
X149404314Y-83190033D01*
X149393186Y-83183608D01*
X149367928Y-83176840D01*
X149362803Y-83174982D01*
X149341322Y-83167193D01*
X149326950Y-83162572D01*
X149325249Y-83162094D01*
X149321578Y-83161098D01*
X149314410Y-83160029D01*
X149314413Y-83160005D01*
X149293678Y-83156945D01*
X149265893Y-83149500D01*
X149265892Y-83149500D01*
X149134108Y-83149500D01*
X149006814Y-83183608D01*
X149006813Y-83183608D01*
X149006811Y-83183609D01*
X149006810Y-83183609D01*
X148936500Y-83224203D01*
X148868600Y-83240676D01*
X148802573Y-83217823D01*
X148759382Y-83162902D01*
X148750500Y-83116816D01*
X148750500Y-82184108D01*
X153999500Y-82184108D01*
X153999500Y-82315892D01*
X154011418Y-82360371D01*
X154033608Y-82443187D01*
X154046717Y-82465892D01*
X154099500Y-82557314D01*
X154192686Y-82650500D01*
X154279836Y-82700816D01*
X154305859Y-82715841D01*
X154306814Y-82716392D01*
X154434108Y-82750500D01*
X154434110Y-82750500D01*
X154565890Y-82750500D01*
X154565892Y-82750500D01*
X154693186Y-82716392D01*
X154807314Y-82650500D01*
X154900500Y-82557314D01*
X154966392Y-82443186D01*
X154968824Y-82434108D01*
X155699500Y-82434108D01*
X155699500Y-82565892D01*
X155707687Y-82596446D01*
X155733608Y-82693187D01*
X155744016Y-82711213D01*
X155799500Y-82807314D01*
X155892686Y-82900500D01*
X155978424Y-82950001D01*
X156006810Y-82966390D01*
X156006814Y-82966392D01*
X156134108Y-83000500D01*
X156134110Y-83000500D01*
X156265890Y-83000500D01*
X156265892Y-83000500D01*
X156393186Y-82966392D01*
X156507314Y-82900500D01*
X156600500Y-82807314D01*
X156628264Y-82759225D01*
X156641332Y-82741450D01*
X156653312Y-82715841D01*
X156666392Y-82693186D01*
X156666889Y-82691327D01*
X156674344Y-82670879D01*
X156858723Y-82276745D01*
X156883355Y-82241614D01*
X160341614Y-78783355D01*
X160345721Y-78780476D01*
X160347234Y-78778074D01*
X160376745Y-78758723D01*
X160547458Y-78678862D01*
X160616520Y-78668287D01*
X160652537Y-78678861D01*
X160823250Y-78758721D01*
X160858387Y-78783358D01*
X162559540Y-80484511D01*
X162615489Y-80540460D01*
X162615491Y-80540461D01*
X162615495Y-80540464D01*
X162624937Y-80545915D01*
X162684011Y-80580021D01*
X162760438Y-80600500D01*
X171034083Y-80600500D01*
X171076350Y-80607926D01*
X171495688Y-80759968D01*
X171506814Y-80766392D01*
X171532065Y-80773158D01*
X171558661Y-80782801D01*
X171570206Y-80786511D01*
X171573097Y-80787441D01*
X171574698Y-80787891D01*
X171574743Y-80787903D01*
X171574753Y-80787906D01*
X171578415Y-80788899D01*
X171578417Y-80788899D01*
X171585585Y-80789968D01*
X171585581Y-80789993D01*
X171606314Y-80793052D01*
X171634108Y-80800500D01*
X171634110Y-80800500D01*
X171765890Y-80800500D01*
X171765892Y-80800500D01*
X171893186Y-80766392D01*
X172007314Y-80700500D01*
X172100500Y-80607314D01*
X172166392Y-80493186D01*
X172200500Y-80365892D01*
X172200500Y-80234108D01*
X172189003Y-80191200D01*
X172190666Y-80121356D01*
X172229828Y-80063493D01*
X172294056Y-80035988D01*
X172362958Y-80047574D01*
X172396459Y-80071430D01*
X176159540Y-83834511D01*
X176215489Y-83890460D01*
X176215491Y-83890461D01*
X176215495Y-83890464D01*
X176284004Y-83930017D01*
X176284011Y-83930021D01*
X176360438Y-83950500D01*
X176360440Y-83950500D01*
X179189560Y-83950500D01*
X179189562Y-83950500D01*
X179265989Y-83930021D01*
X179334511Y-83890460D01*
X179390460Y-83834511D01*
X180140460Y-83084511D01*
X180145576Y-83075650D01*
X180180021Y-83015989D01*
X180200500Y-82939562D01*
X180200500Y-82939559D01*
X180201561Y-82931503D01*
X180203417Y-82931747D01*
X180214544Y-82886334D01*
X180224940Y-82866392D01*
X180326830Y-82670942D01*
X180329546Y-82662524D01*
X180340162Y-82638615D01*
X180366392Y-82593186D01*
X180400500Y-82465892D01*
X180400500Y-82334108D01*
X180366392Y-82206814D01*
X180300500Y-82092686D01*
X180207314Y-81999500D01*
X180149969Y-81966392D01*
X180093187Y-81933608D01*
X180029539Y-81916554D01*
X179965892Y-81899500D01*
X179834108Y-81899500D01*
X179706812Y-81933608D01*
X179592686Y-81999500D01*
X179592683Y-81999502D01*
X179499502Y-82092683D01*
X179499500Y-82092686D01*
X179433608Y-82206812D01*
X179399500Y-82334108D01*
X179399500Y-82465893D01*
X179409605Y-82503606D01*
X179413603Y-82518526D01*
X179416905Y-82540662D01*
X179427296Y-82569631D01*
X179428623Y-82574584D01*
X179433606Y-82593181D01*
X179433607Y-82593183D01*
X179433608Y-82593186D01*
X179433609Y-82593187D01*
X179433684Y-82593317D01*
X179443010Y-82613442D01*
X179500579Y-82773940D01*
X179504684Y-82843689D01*
X179471541Y-82903487D01*
X179061848Y-83313181D01*
X179000525Y-83346666D01*
X178974167Y-83349500D01*
X176575833Y-83349500D01*
X176508794Y-83329815D01*
X176488152Y-83313181D01*
X176087152Y-82912181D01*
X176053667Y-82850858D01*
X176058651Y-82781166D01*
X176100523Y-82725233D01*
X176165987Y-82700816D01*
X176174833Y-82700500D01*
X177984083Y-82700500D01*
X178026350Y-82707926D01*
X178117406Y-82740940D01*
X178445688Y-82859968D01*
X178456814Y-82866392D01*
X178482065Y-82873158D01*
X178508661Y-82882801D01*
X178519653Y-82886334D01*
X178523097Y-82887441D01*
X178524698Y-82887891D01*
X178524743Y-82887903D01*
X178524753Y-82887906D01*
X178528415Y-82888899D01*
X178528417Y-82888899D01*
X178535585Y-82889968D01*
X178535581Y-82889993D01*
X178556314Y-82893052D01*
X178584108Y-82900500D01*
X178584110Y-82900500D01*
X178715890Y-82900500D01*
X178715892Y-82900500D01*
X178843186Y-82866392D01*
X178957314Y-82800500D01*
X179050500Y-82707314D01*
X179116392Y-82593186D01*
X179150500Y-82465892D01*
X179150500Y-82334108D01*
X179116392Y-82206814D01*
X179050500Y-82092686D01*
X178957314Y-81999500D01*
X178899969Y-81966392D01*
X178843187Y-81933608D01*
X178779539Y-81916554D01*
X178715892Y-81899500D01*
X178584108Y-81899500D01*
X178584104Y-81899500D01*
X178537115Y-81912091D01*
X178537114Y-81912091D01*
X178530497Y-81913863D01*
X178508664Y-81917198D01*
X178482075Y-81926837D01*
X178476933Y-81928215D01*
X178476919Y-81928220D01*
X178456813Y-81933608D01*
X178456803Y-81933612D01*
X178455133Y-81934577D01*
X178435417Y-81943754D01*
X178026349Y-82092074D01*
X177984082Y-82099500D01*
X176075833Y-82099500D01*
X176008794Y-82079815D01*
X175988152Y-82063181D01*
X172091692Y-78166721D01*
X173204500Y-78166721D01*
X173204500Y-78333278D01*
X173236990Y-78496615D01*
X173236992Y-78496623D01*
X173300728Y-78650495D01*
X173300728Y-78650496D01*
X173393255Y-78788973D01*
X173393261Y-78788980D01*
X173511019Y-78906738D01*
X173511026Y-78906744D01*
X173649504Y-78999271D01*
X173649505Y-78999271D01*
X173649506Y-78999272D01*
X173803377Y-79063008D01*
X173966721Y-79095499D01*
X173966725Y-79095500D01*
X173966726Y-79095500D01*
X174133275Y-79095500D01*
X174133276Y-79095499D01*
X174296623Y-79063008D01*
X174450494Y-78999272D01*
X174450495Y-78999271D01*
X174450496Y-78999271D01*
X174532684Y-78944355D01*
X174588975Y-78906743D01*
X174706743Y-78788975D01*
X174799272Y-78650494D01*
X174863008Y-78496623D01*
X174895500Y-78333274D01*
X174895500Y-78166726D01*
X174863008Y-78003377D01*
X174799272Y-77849506D01*
X174799271Y-77849504D01*
X174799271Y-77849503D01*
X174706744Y-77711026D01*
X174706738Y-77711019D01*
X174588980Y-77593261D01*
X174588973Y-77593255D01*
X174450495Y-77500728D01*
X174296623Y-77436992D01*
X174296615Y-77436990D01*
X174133278Y-77404500D01*
X174133274Y-77404500D01*
X173966726Y-77404500D01*
X173966721Y-77404500D01*
X173803384Y-77436990D01*
X173803376Y-77436992D01*
X173649504Y-77500728D01*
X173649503Y-77500728D01*
X173511026Y-77593255D01*
X173511019Y-77593261D01*
X173393261Y-77711019D01*
X173393255Y-77711026D01*
X173300728Y-77849503D01*
X173300728Y-77849504D01*
X173236992Y-78003376D01*
X173236990Y-78003384D01*
X173204500Y-78166721D01*
X172091692Y-78166721D01*
X170684512Y-76759541D01*
X170684507Y-76759537D01*
X170675932Y-76754586D01*
X170675930Y-76754586D01*
X170642418Y-76735238D01*
X170615990Y-76719979D01*
X170590513Y-76713152D01*
X170539562Y-76699500D01*
X170539560Y-76699500D01*
X168925833Y-76699500D01*
X168858794Y-76679815D01*
X168838152Y-76663181D01*
X167561232Y-75386261D01*
X167527747Y-75324938D01*
X167532338Y-75256314D01*
X167649776Y-74932419D01*
X167691131Y-74876107D01*
X167756369Y-74851091D01*
X167824775Y-74865317D01*
X167873734Y-74912688D01*
X167895566Y-74950500D01*
X167899500Y-74957314D01*
X167992686Y-75050500D01*
X168106814Y-75116392D01*
X168234108Y-75150500D01*
X168234110Y-75150500D01*
X168365890Y-75150500D01*
X168365892Y-75150500D01*
X168419504Y-75136134D01*
X168441337Y-75132801D01*
X168467927Y-75123160D01*
X168493186Y-75116392D01*
X168494849Y-75115431D01*
X168514580Y-75106243D01*
X168923649Y-74957926D01*
X168965916Y-74950500D01*
X173874167Y-74950500D01*
X173941206Y-74970185D01*
X173961848Y-74986819D01*
X178109540Y-79134511D01*
X178165489Y-79190460D01*
X178165491Y-79190461D01*
X178165495Y-79190464D01*
X178226180Y-79225500D01*
X178234011Y-79230021D01*
X178310438Y-79250500D01*
X179224167Y-79250500D01*
X179291206Y-79270185D01*
X179311848Y-79286819D01*
X180813181Y-80788152D01*
X180846666Y-80849475D01*
X180849500Y-80875833D01*
X180849500Y-81734083D01*
X180842074Y-81776349D01*
X180787011Y-81928215D01*
X180693752Y-82185423D01*
X180693751Y-82185424D01*
X180690025Y-82195697D01*
X180683608Y-82206814D01*
X180676847Y-82232041D01*
X180675025Y-82237068D01*
X180667197Y-82258660D01*
X180662531Y-82273191D01*
X180662068Y-82274841D01*
X180661099Y-82278418D01*
X180660033Y-82285575D01*
X180660007Y-82285571D01*
X180656945Y-82306317D01*
X180649501Y-82334100D01*
X180649500Y-82334108D01*
X180649500Y-82465892D01*
X180651717Y-82474166D01*
X180683608Y-82593187D01*
X180696725Y-82615905D01*
X180749500Y-82707314D01*
X180842686Y-82800500D01*
X180956814Y-82866392D01*
X181084108Y-82900500D01*
X181084110Y-82900500D01*
X181215890Y-82900500D01*
X181215892Y-82900500D01*
X181343186Y-82866392D01*
X181445278Y-82807449D01*
X190775000Y-82807449D01*
X190775000Y-83092550D01*
X190775001Y-83092566D01*
X190812214Y-83375230D01*
X190886008Y-83650633D01*
X190995113Y-83914035D01*
X190995117Y-83914044D01*
X191137669Y-84160951D01*
X191137680Y-84160968D01*
X191245267Y-84301176D01*
X191245268Y-84301176D01*
X191995809Y-83550635D01*
X192091898Y-83682888D01*
X192217112Y-83808102D01*
X192349363Y-83904189D01*
X191598822Y-84654729D01*
X191598822Y-84654731D01*
X191739031Y-84762319D01*
X191739048Y-84762330D01*
X191985955Y-84904882D01*
X191985964Y-84904886D01*
X192249366Y-85013991D01*
X192524769Y-85087785D01*
X192807433Y-85124998D01*
X192807450Y-85125000D01*
X193092550Y-85125000D01*
X193092566Y-85124998D01*
X193375230Y-85087785D01*
X193650633Y-85013991D01*
X193914035Y-84904886D01*
X193914044Y-84904882D01*
X194160954Y-84762328D01*
X194301176Y-84654730D01*
X194301176Y-84654729D01*
X193550636Y-83904189D01*
X193682888Y-83808102D01*
X193808102Y-83682888D01*
X193904189Y-83550636D01*
X194654729Y-84301176D01*
X194654730Y-84301176D01*
X194762328Y-84160954D01*
X194904882Y-83914044D01*
X194904886Y-83914035D01*
X195013991Y-83650633D01*
X195087785Y-83375230D01*
X195124998Y-83092566D01*
X195125000Y-83092550D01*
X195125000Y-82807449D01*
X195124998Y-82807433D01*
X195087785Y-82524769D01*
X195013991Y-82249366D01*
X194904886Y-81985964D01*
X194904882Y-81985955D01*
X194762330Y-81739048D01*
X194762319Y-81739031D01*
X194654731Y-81598822D01*
X194654729Y-81598822D01*
X193904189Y-82349362D01*
X193808102Y-82217112D01*
X193682888Y-82091898D01*
X193550635Y-81995809D01*
X194301176Y-81245268D01*
X194301176Y-81245267D01*
X194160968Y-81137680D01*
X194160951Y-81137669D01*
X193914044Y-80995117D01*
X193914035Y-80995113D01*
X193650633Y-80886008D01*
X193375230Y-80812214D01*
X193092566Y-80775001D01*
X193092550Y-80775000D01*
X192807450Y-80775000D01*
X192807433Y-80775001D01*
X192524769Y-80812214D01*
X192249366Y-80886008D01*
X191985964Y-80995113D01*
X191985955Y-80995117D01*
X191739048Y-81137669D01*
X191739041Y-81137674D01*
X191598822Y-81245268D01*
X192349364Y-81995810D01*
X192217112Y-82091898D01*
X192091898Y-82217112D01*
X191995810Y-82349364D01*
X191245268Y-81598822D01*
X191137674Y-81739041D01*
X191137669Y-81739048D01*
X190995117Y-81985955D01*
X190995113Y-81985964D01*
X190886008Y-82249366D01*
X190812214Y-82524769D01*
X190775001Y-82807433D01*
X190775000Y-82807449D01*
X181445278Y-82807449D01*
X181457314Y-82800500D01*
X181550500Y-82707314D01*
X181616392Y-82593186D01*
X181650500Y-82465892D01*
X181650500Y-82334108D01*
X181636135Y-82280497D01*
X181632801Y-82258661D01*
X181623158Y-82232065D01*
X181616392Y-82206814D01*
X181615435Y-82205156D01*
X181606243Y-82185415D01*
X181605731Y-82184004D01*
X181457926Y-81776350D01*
X181450500Y-81734083D01*
X181450500Y-80660440D01*
X181450500Y-80660438D01*
X181438564Y-80615892D01*
X181430022Y-80584012D01*
X181390460Y-80515489D01*
X180867045Y-79992074D01*
X180330181Y-79455209D01*
X180248587Y-79373615D01*
X191174500Y-79373615D01*
X191174500Y-79526384D01*
X191204300Y-79676197D01*
X191204302Y-79676205D01*
X191262759Y-79817334D01*
X191262764Y-79817343D01*
X191347629Y-79944351D01*
X191347632Y-79944355D01*
X191455644Y-80052367D01*
X191455648Y-80052370D01*
X191582656Y-80137235D01*
X191582665Y-80137240D01*
X191612264Y-80149500D01*
X191723795Y-80195698D01*
X191873615Y-80225499D01*
X191873619Y-80225500D01*
X191873620Y-80225500D01*
X192026381Y-80225500D01*
X192026382Y-80225499D01*
X192176205Y-80195698D01*
X192317337Y-80137239D01*
X192444352Y-80052370D01*
X192552370Y-79944352D01*
X192637239Y-79817337D01*
X192695698Y-79676205D01*
X192725500Y-79526380D01*
X192725500Y-79373620D01*
X192725499Y-79373615D01*
X193174500Y-79373615D01*
X193174500Y-79526384D01*
X193204300Y-79676197D01*
X193204302Y-79676205D01*
X193262759Y-79817334D01*
X193262764Y-79817343D01*
X193347629Y-79944351D01*
X193347632Y-79944355D01*
X193455644Y-80052367D01*
X193455648Y-80052370D01*
X193582656Y-80137235D01*
X193582665Y-80137240D01*
X193612264Y-80149500D01*
X193723795Y-80195698D01*
X193873615Y-80225499D01*
X193873619Y-80225500D01*
X193873620Y-80225500D01*
X194026381Y-80225500D01*
X194026382Y-80225499D01*
X194176205Y-80195698D01*
X194317337Y-80137239D01*
X194444352Y-80052370D01*
X194552370Y-79944352D01*
X194637239Y-79817337D01*
X194695698Y-79676205D01*
X194725500Y-79526380D01*
X194725500Y-79373620D01*
X194695698Y-79223795D01*
X194637239Y-79082663D01*
X194637238Y-79082662D01*
X194637235Y-79082656D01*
X194552370Y-78955648D01*
X194552367Y-78955644D01*
X194444355Y-78847632D01*
X194444351Y-78847629D01*
X194317343Y-78762764D01*
X194317334Y-78762759D01*
X194176205Y-78704302D01*
X194176197Y-78704300D01*
X194026384Y-78674500D01*
X194026380Y-78674500D01*
X193873620Y-78674500D01*
X193873615Y-78674500D01*
X193723802Y-78704300D01*
X193723794Y-78704302D01*
X193582665Y-78762759D01*
X193582656Y-78762764D01*
X193455648Y-78847629D01*
X193455644Y-78847632D01*
X193347632Y-78955644D01*
X193347629Y-78955648D01*
X193262764Y-79082656D01*
X193262759Y-79082665D01*
X193204302Y-79223794D01*
X193204300Y-79223802D01*
X193174500Y-79373615D01*
X192725499Y-79373615D01*
X192695698Y-79223795D01*
X192637239Y-79082663D01*
X192637238Y-79082662D01*
X192637235Y-79082656D01*
X192552370Y-78955648D01*
X192552367Y-78955644D01*
X192444355Y-78847632D01*
X192444351Y-78847629D01*
X192317343Y-78762764D01*
X192317334Y-78762759D01*
X192176205Y-78704302D01*
X192176197Y-78704300D01*
X192026384Y-78674500D01*
X192026380Y-78674500D01*
X191873620Y-78674500D01*
X191873615Y-78674500D01*
X191723802Y-78704300D01*
X191723794Y-78704302D01*
X191582665Y-78762759D01*
X191582656Y-78762764D01*
X191455648Y-78847629D01*
X191455644Y-78847632D01*
X191347632Y-78955644D01*
X191347629Y-78955648D01*
X191262764Y-79082656D01*
X191262759Y-79082665D01*
X191204302Y-79223794D01*
X191204300Y-79223802D01*
X191174500Y-79373615D01*
X180248587Y-79373615D01*
X179584513Y-78709541D01*
X179582082Y-78708138D01*
X179575438Y-78704302D01*
X179515989Y-78669979D01*
X179439562Y-78649500D01*
X179439560Y-78649500D01*
X178525833Y-78649500D01*
X178458794Y-78629815D01*
X178438152Y-78613181D01*
X177991692Y-78166721D01*
X184938498Y-78166721D01*
X184938498Y-78333278D01*
X184970988Y-78496615D01*
X184970990Y-78496623D01*
X185034726Y-78650495D01*
X185034726Y-78650496D01*
X185127253Y-78788973D01*
X185127259Y-78788980D01*
X185245017Y-78906738D01*
X185245024Y-78906744D01*
X185383502Y-78999271D01*
X185383503Y-78999271D01*
X185383504Y-78999272D01*
X185537375Y-79063008D01*
X185700719Y-79095499D01*
X185700723Y-79095500D01*
X185700724Y-79095500D01*
X185867273Y-79095500D01*
X185867274Y-79095499D01*
X186030621Y-79063008D01*
X186184492Y-78999272D01*
X186184493Y-78999271D01*
X186184494Y-78999271D01*
X186266682Y-78944355D01*
X186322973Y-78906743D01*
X186440741Y-78788975D01*
X186533270Y-78650494D01*
X186597006Y-78496623D01*
X186629498Y-78333274D01*
X186629498Y-78166726D01*
X186597006Y-78003377D01*
X186533270Y-77849506D01*
X186533269Y-77849504D01*
X186533269Y-77849503D01*
X186440742Y-77711026D01*
X186440736Y-77711019D01*
X186322978Y-77593261D01*
X186322971Y-77593255D01*
X186184493Y-77500728D01*
X186139494Y-77482089D01*
X186030621Y-77436992D01*
X186030613Y-77436990D01*
X185867276Y-77404500D01*
X185867272Y-77404500D01*
X185700724Y-77404500D01*
X185700719Y-77404500D01*
X185537382Y-77436990D01*
X185537374Y-77436992D01*
X185383502Y-77500728D01*
X185383501Y-77500728D01*
X185245024Y-77593255D01*
X185245017Y-77593261D01*
X185127259Y-77711019D01*
X185127253Y-77711026D01*
X185034726Y-77849503D01*
X185034726Y-77849504D01*
X184970990Y-78003376D01*
X184970988Y-78003384D01*
X184938498Y-78166721D01*
X177991692Y-78166721D01*
X177198586Y-77373615D01*
X191174500Y-77373615D01*
X191174500Y-77526384D01*
X191204300Y-77676197D01*
X191204302Y-77676205D01*
X191262759Y-77817334D01*
X191262764Y-77817343D01*
X191347629Y-77944351D01*
X191347632Y-77944355D01*
X191455644Y-78052367D01*
X191455648Y-78052370D01*
X191582656Y-78137235D01*
X191582665Y-78137240D01*
X191614636Y-78150482D01*
X191723795Y-78195698D01*
X191865084Y-78223802D01*
X191873615Y-78225499D01*
X191873619Y-78225500D01*
X191873620Y-78225500D01*
X192026381Y-78225500D01*
X192026382Y-78225499D01*
X192176205Y-78195698D01*
X192317337Y-78137239D01*
X192444352Y-78052370D01*
X192552370Y-77944352D01*
X192637239Y-77817337D01*
X192695698Y-77676205D01*
X192725500Y-77526380D01*
X192725500Y-77373620D01*
X192725499Y-77373615D01*
X193174500Y-77373615D01*
X193174500Y-77526384D01*
X193204300Y-77676197D01*
X193204302Y-77676205D01*
X193262759Y-77817334D01*
X193262764Y-77817343D01*
X193347629Y-77944351D01*
X193347632Y-77944355D01*
X193455644Y-78052367D01*
X193455648Y-78052370D01*
X193582656Y-78137235D01*
X193582665Y-78137240D01*
X193614636Y-78150482D01*
X193723795Y-78195698D01*
X193865084Y-78223802D01*
X193873615Y-78225499D01*
X193873619Y-78225500D01*
X193873620Y-78225500D01*
X194026381Y-78225500D01*
X194026382Y-78225499D01*
X194176205Y-78195698D01*
X194317337Y-78137239D01*
X194444352Y-78052370D01*
X194552370Y-77944352D01*
X194637239Y-77817337D01*
X194695698Y-77676205D01*
X194725500Y-77526380D01*
X194725500Y-77373620D01*
X194695698Y-77223795D01*
X194637239Y-77082663D01*
X194637238Y-77082662D01*
X194637235Y-77082656D01*
X194552370Y-76955648D01*
X194552367Y-76955644D01*
X194444355Y-76847632D01*
X194444351Y-76847629D01*
X194317343Y-76762764D01*
X194317334Y-76762759D01*
X194176205Y-76704302D01*
X194176197Y-76704300D01*
X194026384Y-76674500D01*
X194026380Y-76674500D01*
X193873620Y-76674500D01*
X193873615Y-76674500D01*
X193723802Y-76704300D01*
X193723794Y-76704302D01*
X193582665Y-76762759D01*
X193582656Y-76762764D01*
X193455648Y-76847629D01*
X193455644Y-76847632D01*
X193347632Y-76955644D01*
X193347629Y-76955648D01*
X193262764Y-77082656D01*
X193262759Y-77082665D01*
X193204302Y-77223794D01*
X193204300Y-77223802D01*
X193174500Y-77373615D01*
X192725499Y-77373615D01*
X192695698Y-77223795D01*
X192637239Y-77082663D01*
X192637238Y-77082662D01*
X192637235Y-77082656D01*
X192552370Y-76955648D01*
X192552367Y-76955644D01*
X192444355Y-76847632D01*
X192444351Y-76847629D01*
X192317343Y-76762764D01*
X192317334Y-76762759D01*
X192176205Y-76704302D01*
X192176197Y-76704300D01*
X192026384Y-76674500D01*
X192026380Y-76674500D01*
X191873620Y-76674500D01*
X191873615Y-76674500D01*
X191723802Y-76704300D01*
X191723794Y-76704302D01*
X191582665Y-76762759D01*
X191582656Y-76762764D01*
X191455648Y-76847629D01*
X191455644Y-76847632D01*
X191347632Y-76955644D01*
X191347629Y-76955648D01*
X191262764Y-77082656D01*
X191262759Y-77082665D01*
X191204302Y-77223794D01*
X191204300Y-77223802D01*
X191174500Y-77373615D01*
X177198586Y-77373615D01*
X175894756Y-76069785D01*
X191075001Y-76069785D01*
X191075002Y-76069808D01*
X191077908Y-76094869D01*
X191077909Y-76094873D01*
X191123211Y-76197474D01*
X191123214Y-76197479D01*
X191202520Y-76276785D01*
X191202525Y-76276788D01*
X191305123Y-76322089D01*
X191330206Y-76324999D01*
X191699999Y-76324999D01*
X192200000Y-76324999D01*
X192569786Y-76324999D01*
X192569808Y-76324997D01*
X192594869Y-76322091D01*
X192594873Y-76322090D01*
X192697474Y-76276788D01*
X192697479Y-76276785D01*
X192776785Y-76197479D01*
X192776788Y-76197474D01*
X192822089Y-76094877D01*
X192822089Y-76094875D01*
X192824999Y-76069794D01*
X192825000Y-76069791D01*
X192825000Y-75700000D01*
X192200000Y-75700000D01*
X192200000Y-76324999D01*
X191699999Y-76324999D01*
X191700000Y-76324998D01*
X191700000Y-75700000D01*
X191075001Y-75700000D01*
X191075001Y-76069785D01*
X175894756Y-76069785D01*
X175228893Y-75403922D01*
X191600000Y-75403922D01*
X191600000Y-75496078D01*
X191623852Y-75585095D01*
X191669930Y-75664905D01*
X191735095Y-75730070D01*
X191814905Y-75776148D01*
X191903922Y-75800000D01*
X191996078Y-75800000D01*
X192085095Y-75776148D01*
X192164905Y-75730070D01*
X192230070Y-75664905D01*
X192276148Y-75585095D01*
X192300000Y-75496078D01*
X192300000Y-75403922D01*
X192291879Y-75373615D01*
X193174500Y-75373615D01*
X193174500Y-75526384D01*
X193204300Y-75676197D01*
X193204302Y-75676205D01*
X193262759Y-75817334D01*
X193262764Y-75817343D01*
X193347629Y-75944351D01*
X193347632Y-75944355D01*
X193455644Y-76052367D01*
X193455648Y-76052370D01*
X193582656Y-76137235D01*
X193582662Y-76137238D01*
X193582663Y-76137239D01*
X193723795Y-76195698D01*
X193865084Y-76223802D01*
X193873615Y-76225499D01*
X193873619Y-76225500D01*
X193873620Y-76225500D01*
X194026381Y-76225500D01*
X194026382Y-76225499D01*
X194176205Y-76195698D01*
X194317337Y-76137239D01*
X194444352Y-76052370D01*
X194552370Y-75944352D01*
X194637239Y-75817337D01*
X194695698Y-75676205D01*
X194725500Y-75526380D01*
X194725500Y-75373620D01*
X194695698Y-75223795D01*
X194637239Y-75082663D01*
X194637238Y-75082662D01*
X194637235Y-75082656D01*
X194552370Y-74955648D01*
X194552367Y-74955644D01*
X194444355Y-74847632D01*
X194444351Y-74847629D01*
X194317343Y-74762764D01*
X194317334Y-74762759D01*
X194176205Y-74704302D01*
X194176197Y-74704300D01*
X194026384Y-74674500D01*
X194026380Y-74674500D01*
X193873620Y-74674500D01*
X193873615Y-74674500D01*
X193723802Y-74704300D01*
X193723794Y-74704302D01*
X193582665Y-74762759D01*
X193582656Y-74762764D01*
X193455648Y-74847629D01*
X193455644Y-74847632D01*
X193347632Y-74955644D01*
X193347629Y-74955648D01*
X193262764Y-75082656D01*
X193262759Y-75082665D01*
X193204302Y-75223794D01*
X193204300Y-75223802D01*
X193174500Y-75373615D01*
X192291879Y-75373615D01*
X192276148Y-75314905D01*
X192230070Y-75235095D01*
X192194975Y-75200000D01*
X192200000Y-75200000D01*
X192824999Y-75200000D01*
X192824999Y-74830214D01*
X192824997Y-74830191D01*
X192822091Y-74805130D01*
X192822090Y-74805126D01*
X192776788Y-74702525D01*
X192776785Y-74702520D01*
X192697479Y-74623214D01*
X192697474Y-74623211D01*
X192594876Y-74577910D01*
X192569794Y-74575000D01*
X192200000Y-74575000D01*
X192200000Y-75200000D01*
X192194975Y-75200000D01*
X192164905Y-75169930D01*
X192085095Y-75123852D01*
X191996078Y-75100000D01*
X191903922Y-75100000D01*
X191814905Y-75123852D01*
X191735095Y-75169930D01*
X191669930Y-75235095D01*
X191623852Y-75314905D01*
X191600000Y-75403922D01*
X175228893Y-75403922D01*
X174655176Y-74830205D01*
X191075000Y-74830205D01*
X191075000Y-75200000D01*
X191700000Y-75200000D01*
X191700000Y-74575000D01*
X191330214Y-74575000D01*
X191330191Y-74575002D01*
X191305130Y-74577908D01*
X191305126Y-74577909D01*
X191202525Y-74623211D01*
X191202520Y-74623214D01*
X191123214Y-74702520D01*
X191123211Y-74702525D01*
X191077910Y-74805122D01*
X191077910Y-74805124D01*
X191075000Y-74830205D01*
X174655176Y-74830205D01*
X174234512Y-74409541D01*
X174234507Y-74409537D01*
X174210209Y-74395509D01*
X174210209Y-74395508D01*
X174210207Y-74395508D01*
X174165994Y-74369981D01*
X174165993Y-74369980D01*
X174150736Y-74365892D01*
X174089562Y-74349500D01*
X174089560Y-74349500D01*
X171333183Y-74349500D01*
X171266144Y-74329815D01*
X171220389Y-74277011D01*
X171210445Y-74207853D01*
X171225795Y-74163501D01*
X171266392Y-74093186D01*
X171300500Y-73965892D01*
X171300500Y-73934108D01*
X174599500Y-73934108D01*
X174599500Y-74065892D01*
X174602409Y-74076747D01*
X174633608Y-74193187D01*
X174642076Y-74207853D01*
X174699500Y-74307314D01*
X174792686Y-74400500D01*
X174857553Y-74437951D01*
X174905490Y-74465628D01*
X174906814Y-74466392D01*
X175034108Y-74500500D01*
X175034110Y-74500500D01*
X175165890Y-74500500D01*
X175165892Y-74500500D01*
X175293186Y-74466392D01*
X175407314Y-74400500D01*
X175500500Y-74307314D01*
X175566392Y-74193186D01*
X175600500Y-74065892D01*
X175600500Y-73934108D01*
X175566392Y-73806814D01*
X175500500Y-73692686D01*
X175407314Y-73599500D01*
X175303615Y-73539629D01*
X175293187Y-73533608D01*
X175229539Y-73516554D01*
X175165892Y-73499500D01*
X175034108Y-73499500D01*
X174906812Y-73533608D01*
X174792686Y-73599500D01*
X174792683Y-73599502D01*
X174699502Y-73692683D01*
X174699500Y-73692686D01*
X174633608Y-73806812D01*
X174607331Y-73904882D01*
X174599500Y-73934108D01*
X171300500Y-73934108D01*
X171300500Y-73834108D01*
X171266392Y-73706814D01*
X171200500Y-73592686D01*
X171107314Y-73499500D01*
X171028087Y-73453758D01*
X170993187Y-73433608D01*
X170929539Y-73416554D01*
X170865892Y-73399500D01*
X170734108Y-73399500D01*
X170606812Y-73433608D01*
X170492686Y-73499500D01*
X170492683Y-73499502D01*
X170399502Y-73592683D01*
X170399500Y-73592686D01*
X170333608Y-73706812D01*
X170306814Y-73806812D01*
X170299500Y-73834108D01*
X170299500Y-73965892D01*
X170309549Y-74003397D01*
X170333608Y-74093187D01*
X170341476Y-74106814D01*
X170374204Y-74163500D01*
X170390677Y-74231399D01*
X170367825Y-74297426D01*
X170312904Y-74340617D01*
X170266817Y-74349500D01*
X168965916Y-74349500D01*
X168923649Y-74342074D01*
X168514585Y-74193757D01*
X168504314Y-74190033D01*
X168493186Y-74183608D01*
X168467928Y-74176840D01*
X168457878Y-74173196D01*
X168441322Y-74167193D01*
X168426950Y-74162572D01*
X168425249Y-74162094D01*
X168421578Y-74161098D01*
X168414410Y-74160029D01*
X168414413Y-74160005D01*
X168393678Y-74156945D01*
X168365893Y-74149500D01*
X168365892Y-74149500D01*
X168234108Y-74149500D01*
X168106812Y-74183608D01*
X167992686Y-74249500D01*
X167992683Y-74249502D01*
X167899502Y-74342683D01*
X167899500Y-74342686D01*
X167842953Y-74440628D01*
X167792385Y-74488843D01*
X167723778Y-74502065D01*
X167658914Y-74476097D01*
X167628179Y-74440627D01*
X167610231Y-74409541D01*
X167600500Y-74392686D01*
X167507314Y-74299500D01*
X167450250Y-74266554D01*
X167393187Y-74233608D01*
X167297066Y-74207853D01*
X167265892Y-74199500D01*
X167134108Y-74199500D01*
X167006812Y-74233608D01*
X166892686Y-74299500D01*
X166892683Y-74299502D01*
X166799502Y-74392683D01*
X166799500Y-74392686D01*
X166763177Y-74455600D01*
X166757387Y-74465628D01*
X166706820Y-74513843D01*
X166638212Y-74527065D01*
X166573348Y-74501097D01*
X166542613Y-74465628D01*
X166537524Y-74456814D01*
X166500500Y-74392686D01*
X166407314Y-74299500D01*
X166350250Y-74266554D01*
X166293187Y-74233608D01*
X166197066Y-74207853D01*
X166165892Y-74199500D01*
X166034108Y-74199500D01*
X165906812Y-74233608D01*
X165792686Y-74299500D01*
X165792683Y-74299502D01*
X165699502Y-74392683D01*
X165699500Y-74392686D01*
X165633608Y-74506812D01*
X165599500Y-74634108D01*
X165599500Y-74765894D01*
X165608772Y-74800499D01*
X165613863Y-74819498D01*
X165617198Y-74841336D01*
X165626836Y-74867920D01*
X165628217Y-74873073D01*
X165628222Y-74873087D01*
X165633609Y-74893189D01*
X165633609Y-74893190D01*
X165634574Y-74894861D01*
X165643754Y-74914581D01*
X165792074Y-75323648D01*
X165799500Y-75365914D01*
X165799500Y-75939562D01*
X165809911Y-75978415D01*
X165819979Y-76015990D01*
X165819980Y-76015991D01*
X165851037Y-76069785D01*
X165851062Y-76069827D01*
X165858469Y-76082656D01*
X165859542Y-76084514D01*
X167200862Y-77425833D01*
X168509540Y-78734511D01*
X168565489Y-78790460D01*
X168565491Y-78790461D01*
X168565495Y-78790464D01*
X168612052Y-78817343D01*
X168634011Y-78830021D01*
X168710438Y-78850500D01*
X171124167Y-78850500D01*
X171191206Y-78870185D01*
X171211848Y-78886819D01*
X171928569Y-79603540D01*
X171962054Y-79664863D01*
X171957070Y-79734555D01*
X171915198Y-79790488D01*
X171849734Y-79814905D01*
X171808796Y-79810996D01*
X171765892Y-79799500D01*
X171634108Y-79799500D01*
X171634104Y-79799500D01*
X171587115Y-79812091D01*
X171587114Y-79812091D01*
X171580497Y-79813863D01*
X171558664Y-79817198D01*
X171532075Y-79826837D01*
X171526933Y-79828215D01*
X171526919Y-79828220D01*
X171506813Y-79833608D01*
X171506803Y-79833612D01*
X171505133Y-79834577D01*
X171485417Y-79843754D01*
X171076349Y-79992074D01*
X171034082Y-79999500D01*
X162975833Y-79999500D01*
X162908794Y-79979815D01*
X162888152Y-79963181D01*
X161283359Y-78358388D01*
X161258722Y-78323250D01*
X161224221Y-78249500D01*
X161069718Y-77919228D01*
X161066392Y-77906814D01*
X161053314Y-77884163D01*
X161041332Y-77858549D01*
X161034321Y-77844911D01*
X161033472Y-77843401D01*
X161031693Y-77840300D01*
X161031690Y-77840297D01*
X161027385Y-77834482D01*
X161027405Y-77834467D01*
X161014907Y-77817638D01*
X161000504Y-77792692D01*
X161000501Y-77792689D01*
X161000500Y-77792686D01*
X160907314Y-77699500D01*
X160850250Y-77666554D01*
X160793187Y-77633608D01*
X160699014Y-77608375D01*
X160665892Y-77599500D01*
X160534108Y-77599500D01*
X160406812Y-77633608D01*
X160292686Y-77699500D01*
X160199500Y-77792685D01*
X160175162Y-77834838D01*
X160172007Y-77840302D01*
X160171739Y-77840767D01*
X160158667Y-77858548D01*
X160146681Y-77884166D01*
X160144008Y-77888797D01*
X160133609Y-77906809D01*
X160133608Y-77906812D01*
X160133111Y-77908669D01*
X160125655Y-77929114D01*
X159941274Y-78323252D01*
X159916637Y-78358390D01*
X156458390Y-81816637D01*
X156423252Y-81841274D01*
X156029114Y-82025655D01*
X156029113Y-82025655D01*
X156019215Y-82030284D01*
X156006814Y-82033608D01*
X155984195Y-82046666D01*
X155979356Y-82048930D01*
X155979353Y-82048933D01*
X155958539Y-82058671D01*
X155944843Y-82065715D01*
X155943255Y-82066609D01*
X155940300Y-82068305D01*
X155934493Y-82072607D01*
X155934478Y-82072587D01*
X155917640Y-82085092D01*
X155892685Y-82099500D01*
X155799500Y-82192686D01*
X155733608Y-82306812D01*
X155715276Y-82375230D01*
X155699500Y-82434108D01*
X154968824Y-82434108D01*
X155000500Y-82315892D01*
X155000500Y-82184108D01*
X154966392Y-82056814D01*
X154900500Y-81942686D01*
X154807314Y-81849500D01*
X154734244Y-81807313D01*
X154693187Y-81783608D01*
X154629539Y-81766554D01*
X154565892Y-81749500D01*
X154434108Y-81749500D01*
X154306812Y-81783608D01*
X154192686Y-81849500D01*
X154192683Y-81849502D01*
X154099502Y-81942683D01*
X154099500Y-81942686D01*
X154033608Y-82056812D01*
X154008773Y-82149500D01*
X153999500Y-82184108D01*
X148750500Y-82184108D01*
X148750500Y-81975833D01*
X148770185Y-81908794D01*
X148786819Y-81888152D01*
X149429704Y-81245267D01*
X150090460Y-80584511D01*
X150112744Y-80545913D01*
X150130021Y-80515989D01*
X150150500Y-80439562D01*
X150150500Y-77210438D01*
X150130021Y-77134011D01*
X150100377Y-77082665D01*
X150090464Y-77065495D01*
X150090458Y-77065487D01*
X149883359Y-76858388D01*
X149858722Y-76823250D01*
X149855956Y-76817337D01*
X149669718Y-76419228D01*
X149666392Y-76406814D01*
X149653314Y-76384163D01*
X149641332Y-76358549D01*
X149634321Y-76344911D01*
X149633472Y-76343401D01*
X149631693Y-76340300D01*
X149631690Y-76340297D01*
X149627385Y-76334482D01*
X149627405Y-76334467D01*
X149614907Y-76317638D01*
X149600504Y-76292692D01*
X149600501Y-76292689D01*
X149600500Y-76292686D01*
X149507314Y-76199500D01*
X149449102Y-76165891D01*
X149393187Y-76133608D01*
X149329539Y-76116554D01*
X149265892Y-76099500D01*
X149134108Y-76099500D01*
X149006812Y-76133608D01*
X148892686Y-76199500D01*
X148892683Y-76199502D01*
X148799502Y-76292683D01*
X148799500Y-76292686D01*
X148733608Y-76406812D01*
X148727630Y-76429123D01*
X148699500Y-76534108D01*
X148699500Y-76665892D01*
X148703231Y-76679815D01*
X148733608Y-76793187D01*
X148762358Y-76842982D01*
X148799500Y-76907314D01*
X148892686Y-77000500D01*
X148940770Y-77028261D01*
X148958549Y-77041332D01*
X148984162Y-77053314D01*
X148988776Y-77055978D01*
X148988781Y-77055981D01*
X149006810Y-77066390D01*
X149006814Y-77066392D01*
X149008669Y-77066889D01*
X149029120Y-77074345D01*
X149423250Y-77258721D01*
X149427360Y-77261603D01*
X149430133Y-77262207D01*
X149458387Y-77283358D01*
X149513181Y-77338152D01*
X149546666Y-77399475D01*
X149549500Y-77425833D01*
X149549500Y-79463892D01*
X149529815Y-79530931D01*
X149477011Y-79576686D01*
X149407853Y-79586630D01*
X149393407Y-79583667D01*
X149336462Y-79568409D01*
X149265892Y-79549500D01*
X149134108Y-79549500D01*
X149006812Y-79583608D01*
X148892686Y-79649500D01*
X148799500Y-79742685D01*
X148780842Y-79775001D01*
X148771739Y-79790767D01*
X148758667Y-79808548D01*
X148746681Y-79834166D01*
X148744008Y-79838797D01*
X148733609Y-79856809D01*
X148733608Y-79856812D01*
X148733111Y-79858669D01*
X148725655Y-79879114D01*
X148541274Y-80273252D01*
X148516637Y-80308390D01*
X147565489Y-81259540D01*
X147509541Y-81315487D01*
X147509535Y-81315495D01*
X147469982Y-81384004D01*
X147469979Y-81384009D01*
X147456555Y-81434108D01*
X147449500Y-81460438D01*
X140020548Y-81460438D01*
X139963990Y-81249364D01*
X139854886Y-80985964D01*
X139854882Y-80985955D01*
X139712330Y-80739048D01*
X139712319Y-80739031D01*
X139604731Y-80598822D01*
X139604729Y-80598822D01*
X138854188Y-81349362D01*
X138758102Y-81217112D01*
X138632888Y-81091898D01*
X138500635Y-80995809D01*
X139251176Y-80245268D01*
X139251176Y-80245267D01*
X139110968Y-80137680D01*
X139110951Y-80137669D01*
X138864044Y-79995117D01*
X138864035Y-79995113D01*
X138600633Y-79886008D01*
X138325230Y-79812214D01*
X138042566Y-79775001D01*
X138042550Y-79775000D01*
X137757450Y-79775000D01*
X137757433Y-79775001D01*
X137474769Y-79812214D01*
X137199366Y-79886008D01*
X136935964Y-79995113D01*
X136935955Y-79995117D01*
X136689048Y-80137669D01*
X136689041Y-80137674D01*
X136548822Y-80245268D01*
X137299364Y-80995810D01*
X137167112Y-81091898D01*
X137041898Y-81217112D01*
X136945810Y-81349363D01*
X136195268Y-80598822D01*
X136087674Y-80739041D01*
X136087669Y-80739048D01*
X135945117Y-80985955D01*
X135945113Y-80985964D01*
X135836008Y-81249366D01*
X135762214Y-81524769D01*
X135725001Y-81807433D01*
X135725000Y-81807449D01*
X131200500Y-81807449D01*
X131200500Y-78373615D01*
X136124500Y-78373615D01*
X136124500Y-78526384D01*
X136154300Y-78676197D01*
X136154302Y-78676205D01*
X136212759Y-78817334D01*
X136212764Y-78817343D01*
X136297629Y-78944351D01*
X136297632Y-78944355D01*
X136405644Y-79052367D01*
X136405648Y-79052370D01*
X136532656Y-79137235D01*
X136532662Y-79137238D01*
X136532663Y-79137239D01*
X136673795Y-79195698D01*
X136815084Y-79223802D01*
X136823615Y-79225499D01*
X136823619Y-79225500D01*
X136823620Y-79225500D01*
X136976381Y-79225500D01*
X136976382Y-79225499D01*
X137126205Y-79195698D01*
X137267337Y-79137239D01*
X137394352Y-79052370D01*
X137502370Y-78944352D01*
X137587239Y-78817337D01*
X137645698Y-78676205D01*
X137675500Y-78526380D01*
X137675500Y-78373620D01*
X137645698Y-78223795D01*
X137587239Y-78082663D01*
X137587238Y-78082662D01*
X137587235Y-78082656D01*
X137502370Y-77955648D01*
X137502367Y-77955644D01*
X137401970Y-77855247D01*
X138124500Y-77855247D01*
X138124500Y-79044752D01*
X138136131Y-79103229D01*
X138136132Y-79103230D01*
X138180447Y-79169552D01*
X138246769Y-79213867D01*
X138246770Y-79213868D01*
X138305247Y-79225499D01*
X138305250Y-79225500D01*
X138305252Y-79225500D01*
X139494750Y-79225500D01*
X139494751Y-79225499D01*
X139509568Y-79222552D01*
X139553229Y-79213868D01*
X139553229Y-79213867D01*
X139553231Y-79213867D01*
X139619552Y-79169552D01*
X139663867Y-79103231D01*
X139663867Y-79103229D01*
X139663868Y-79103229D01*
X139675499Y-79044752D01*
X139675500Y-79044750D01*
X139675500Y-77855249D01*
X139675499Y-77855247D01*
X139663868Y-77796770D01*
X139663867Y-77796769D01*
X139619552Y-77730447D01*
X139553230Y-77686132D01*
X139553229Y-77686131D01*
X139494752Y-77674500D01*
X139494748Y-77674500D01*
X138305252Y-77674500D01*
X138305247Y-77674500D01*
X138246770Y-77686131D01*
X138246769Y-77686132D01*
X138180447Y-77730447D01*
X138136132Y-77796769D01*
X138136131Y-77796770D01*
X138124500Y-77855247D01*
X137401970Y-77855247D01*
X137394355Y-77847632D01*
X137394351Y-77847629D01*
X137267343Y-77762764D01*
X137267334Y-77762759D01*
X137126205Y-77704302D01*
X137126197Y-77704300D01*
X136976384Y-77674500D01*
X136976380Y-77674500D01*
X136823620Y-77674500D01*
X136823615Y-77674500D01*
X136673802Y-77704300D01*
X136673794Y-77704302D01*
X136532665Y-77762759D01*
X136532656Y-77762764D01*
X136405648Y-77847629D01*
X136405644Y-77847632D01*
X136297632Y-77955644D01*
X136297629Y-77955648D01*
X136212764Y-78082656D01*
X136212759Y-78082665D01*
X136154302Y-78223794D01*
X136154300Y-78223802D01*
X136124500Y-78373615D01*
X131200500Y-78373615D01*
X131200500Y-76373615D01*
X136124500Y-76373615D01*
X136124500Y-76526384D01*
X136154300Y-76676197D01*
X136154302Y-76676205D01*
X136212759Y-76817334D01*
X136212764Y-76817343D01*
X136297629Y-76944351D01*
X136297632Y-76944355D01*
X136405644Y-77052367D01*
X136405648Y-77052370D01*
X136532656Y-77137235D01*
X136532662Y-77137238D01*
X136532663Y-77137239D01*
X136673795Y-77195698D01*
X136815084Y-77223802D01*
X136823615Y-77225499D01*
X136823619Y-77225500D01*
X136823620Y-77225500D01*
X136976381Y-77225500D01*
X136976382Y-77225499D01*
X137126205Y-77195698D01*
X137267337Y-77137239D01*
X137394352Y-77052370D01*
X137502370Y-76944352D01*
X137587239Y-76817337D01*
X137645698Y-76676205D01*
X137675500Y-76526380D01*
X137675500Y-76373620D01*
X137675499Y-76373615D01*
X138124500Y-76373615D01*
X138124500Y-76526384D01*
X138154300Y-76676197D01*
X138154302Y-76676205D01*
X138212759Y-76817334D01*
X138212764Y-76817343D01*
X138297629Y-76944351D01*
X138297632Y-76944355D01*
X138405644Y-77052367D01*
X138405648Y-77052370D01*
X138532656Y-77137235D01*
X138532662Y-77137238D01*
X138532663Y-77137239D01*
X138673795Y-77195698D01*
X138815084Y-77223802D01*
X138823615Y-77225499D01*
X138823619Y-77225500D01*
X138823620Y-77225500D01*
X138976381Y-77225500D01*
X138976382Y-77225499D01*
X139126205Y-77195698D01*
X139267337Y-77137239D01*
X139394352Y-77052370D01*
X139502370Y-76944352D01*
X139587239Y-76817337D01*
X139645698Y-76676205D01*
X139675500Y-76526380D01*
X139675500Y-76373620D01*
X139645698Y-76223795D01*
X139592298Y-76094877D01*
X139587240Y-76082665D01*
X139587235Y-76082656D01*
X139502370Y-75955648D01*
X139502367Y-75955644D01*
X139394355Y-75847632D01*
X139394351Y-75847629D01*
X139267343Y-75762764D01*
X139267334Y-75762759D01*
X139126205Y-75704302D01*
X139126197Y-75704300D01*
X138976384Y-75674500D01*
X138976380Y-75674500D01*
X138823620Y-75674500D01*
X138823615Y-75674500D01*
X138673802Y-75704300D01*
X138673794Y-75704302D01*
X138532665Y-75762759D01*
X138532656Y-75762764D01*
X138405648Y-75847629D01*
X138405644Y-75847632D01*
X138297632Y-75955644D01*
X138297629Y-75955648D01*
X138212764Y-76082656D01*
X138212759Y-76082665D01*
X138154302Y-76223794D01*
X138154300Y-76223802D01*
X138124500Y-76373615D01*
X137675499Y-76373615D01*
X137645698Y-76223795D01*
X137592298Y-76094877D01*
X137587240Y-76082665D01*
X137587235Y-76082656D01*
X137502370Y-75955648D01*
X137502367Y-75955644D01*
X137394355Y-75847632D01*
X137394351Y-75847629D01*
X137267343Y-75762764D01*
X137267334Y-75762759D01*
X137126205Y-75704302D01*
X137126197Y-75704300D01*
X136976384Y-75674500D01*
X136976380Y-75674500D01*
X136823620Y-75674500D01*
X136823615Y-75674500D01*
X136673802Y-75704300D01*
X136673794Y-75704302D01*
X136532665Y-75762759D01*
X136532656Y-75762764D01*
X136405648Y-75847629D01*
X136405644Y-75847632D01*
X136297632Y-75955644D01*
X136297629Y-75955648D01*
X136212764Y-76082656D01*
X136212759Y-76082665D01*
X136154302Y-76223794D01*
X136154300Y-76223802D01*
X136124500Y-76373615D01*
X131200500Y-76373615D01*
X131200500Y-72807449D01*
X135725000Y-72807449D01*
X135725000Y-73092550D01*
X135725001Y-73092566D01*
X135762214Y-73375230D01*
X135836008Y-73650633D01*
X135945113Y-73914035D01*
X135945117Y-73914044D01*
X136087669Y-74160951D01*
X136087680Y-74160968D01*
X136195267Y-74301176D01*
X136195268Y-74301176D01*
X136945809Y-73550635D01*
X137041898Y-73682888D01*
X137167112Y-73808102D01*
X137299363Y-73904189D01*
X136548822Y-74654729D01*
X136548822Y-74654731D01*
X136689031Y-74762319D01*
X136689048Y-74762330D01*
X136935955Y-74904882D01*
X136935964Y-74904886D01*
X137199366Y-75013991D01*
X137474769Y-75087785D01*
X137757433Y-75124998D01*
X137757450Y-75125000D01*
X138042550Y-75125000D01*
X138042566Y-75124998D01*
X138325230Y-75087785D01*
X138600633Y-75013991D01*
X138864035Y-74904886D01*
X138864044Y-74904882D01*
X139110954Y-74762328D01*
X139251176Y-74654730D01*
X139251176Y-74654729D01*
X138500636Y-73904189D01*
X138632888Y-73808102D01*
X138758102Y-73682888D01*
X138854189Y-73550636D01*
X139604729Y-74301176D01*
X139604730Y-74301176D01*
X139712328Y-74160954D01*
X139854882Y-73914044D01*
X139854886Y-73914035D01*
X139963991Y-73650633D01*
X140037785Y-73375230D01*
X140074998Y-73092566D01*
X140075000Y-73092550D01*
X140075000Y-72807449D01*
X140074998Y-72807433D01*
X140037785Y-72524769D01*
X139963991Y-72249366D01*
X139854886Y-71985964D01*
X139854882Y-71985955D01*
X139712330Y-71739048D01*
X139712319Y-71739031D01*
X139604731Y-71598822D01*
X139604729Y-71598822D01*
X138854188Y-72349362D01*
X138758102Y-72217112D01*
X138632888Y-72091898D01*
X138500635Y-71995809D01*
X139251176Y-71245268D01*
X139251176Y-71245267D01*
X139110968Y-71137680D01*
X139110951Y-71137669D01*
X138864044Y-70995117D01*
X138864035Y-70995113D01*
X138600633Y-70886008D01*
X138325230Y-70812214D01*
X138042566Y-70775001D01*
X138042550Y-70775000D01*
X137757450Y-70775000D01*
X137757433Y-70775001D01*
X137474769Y-70812214D01*
X137199366Y-70886008D01*
X136935964Y-70995113D01*
X136935955Y-70995117D01*
X136689048Y-71137669D01*
X136689041Y-71137674D01*
X136548822Y-71245268D01*
X137299364Y-71995810D01*
X137167112Y-72091898D01*
X137041898Y-72217112D01*
X136945810Y-72349363D01*
X136195268Y-71598822D01*
X136087674Y-71739041D01*
X136087669Y-71739048D01*
X135945117Y-71985955D01*
X135945113Y-71985964D01*
X135836008Y-72249366D01*
X135762214Y-72524769D01*
X135725001Y-72807433D01*
X135725000Y-72807449D01*
X131200500Y-72807449D01*
X131200500Y-68334108D01*
X152199500Y-68334108D01*
X152199500Y-68465892D01*
X152213296Y-68517381D01*
X152233608Y-68593187D01*
X152261898Y-68642186D01*
X152299500Y-68707314D01*
X152392686Y-68800500D01*
X152506814Y-68866392D01*
X152634108Y-68900500D01*
X152634110Y-68900500D01*
X152765890Y-68900500D01*
X152765892Y-68900500D01*
X152819504Y-68886134D01*
X152841337Y-68882801D01*
X152867927Y-68873160D01*
X152893186Y-68866392D01*
X152894849Y-68865431D01*
X152914580Y-68856243D01*
X153323649Y-68707926D01*
X153365916Y-68700500D01*
X155392324Y-68700500D01*
X155459363Y-68720185D01*
X155505118Y-68772989D01*
X155515062Y-68842147D01*
X155486037Y-68905703D01*
X155480005Y-68912181D01*
X155399502Y-68992683D01*
X155399500Y-68992686D01*
X155333608Y-69106812D01*
X155299500Y-69234108D01*
X155299500Y-69365891D01*
X155333608Y-69493187D01*
X155349077Y-69519979D01*
X155399500Y-69607314D01*
X155492686Y-69700500D01*
X155606814Y-69766392D01*
X155734108Y-69800500D01*
X155734110Y-69800500D01*
X155865890Y-69800500D01*
X155865892Y-69800500D01*
X155993186Y-69766392D01*
X156107314Y-69700500D01*
X156200500Y-69607314D01*
X156266392Y-69493186D01*
X156300500Y-69365892D01*
X156300500Y-69234108D01*
X156266392Y-69106814D01*
X156238112Y-69057833D01*
X156221640Y-68989934D01*
X156244492Y-68923907D01*
X156299413Y-68880716D01*
X156368966Y-68874074D01*
X156431069Y-68906090D01*
X156433181Y-68908152D01*
X158388207Y-70863178D01*
X158421692Y-70924501D01*
X158416708Y-70994193D01*
X158374836Y-71050126D01*
X158309372Y-71074543D01*
X158268432Y-71070634D01*
X158265990Y-71069979D01*
X158265989Y-71069979D01*
X158189562Y-71049500D01*
X153260438Y-71049500D01*
X153222224Y-71059739D01*
X153184009Y-71069979D01*
X153149923Y-71089659D01*
X153132879Y-71099500D01*
X153132877Y-71099500D01*
X153132877Y-71099501D01*
X153115492Y-71109537D01*
X153115491Y-71109538D01*
X152958390Y-71266638D01*
X152923252Y-71291274D01*
X152529114Y-71475655D01*
X152529113Y-71475655D01*
X152519215Y-71480284D01*
X152506814Y-71483608D01*
X152484195Y-71496666D01*
X152479356Y-71498930D01*
X152479353Y-71498933D01*
X152458539Y-71508671D01*
X152444843Y-71515715D01*
X152443255Y-71516609D01*
X152440300Y-71518305D01*
X152434493Y-71522607D01*
X152434478Y-71522587D01*
X152417640Y-71535092D01*
X152392685Y-71549500D01*
X152299500Y-71642686D01*
X152233608Y-71756812D01*
X152215338Y-71825000D01*
X152199500Y-71884108D01*
X152199500Y-72015892D01*
X152208505Y-72049500D01*
X152233608Y-72143187D01*
X152261472Y-72191448D01*
X152299500Y-72257314D01*
X152392686Y-72350500D01*
X152491521Y-72407563D01*
X152505944Y-72415890D01*
X152506814Y-72416392D01*
X152634108Y-72450500D01*
X152634110Y-72450500D01*
X152765890Y-72450500D01*
X152765892Y-72450500D01*
X152893186Y-72416392D01*
X152949103Y-72384108D01*
X155499500Y-72384108D01*
X155499500Y-72515891D01*
X155533608Y-72643187D01*
X155556530Y-72682888D01*
X155599500Y-72757314D01*
X155692686Y-72850500D01*
X155790218Y-72906810D01*
X155802731Y-72914035D01*
X155806814Y-72916392D01*
X155934108Y-72950500D01*
X155934110Y-72950500D01*
X156065890Y-72950500D01*
X156065892Y-72950500D01*
X156193186Y-72916392D01*
X156307314Y-72850500D01*
X156400500Y-72757314D01*
X156466392Y-72643186D01*
X156500500Y-72515892D01*
X156500500Y-72384108D01*
X156466392Y-72256814D01*
X156400500Y-72142686D01*
X156307314Y-72049500D01*
X156213027Y-71995063D01*
X156193187Y-71983608D01*
X156101354Y-71959002D01*
X156065892Y-71949500D01*
X155934108Y-71949500D01*
X155806812Y-71983608D01*
X155692686Y-72049500D01*
X155692683Y-72049502D01*
X155599502Y-72142683D01*
X155599500Y-72142686D01*
X155533608Y-72256812D01*
X155499500Y-72384108D01*
X152949103Y-72384108D01*
X153007314Y-72350500D01*
X153100500Y-72257314D01*
X153128264Y-72209225D01*
X153141332Y-72191450D01*
X153153312Y-72165841D01*
X153166392Y-72143186D01*
X153169719Y-72130768D01*
X153358721Y-71726748D01*
X153383358Y-71691612D01*
X153388151Y-71686819D01*
X153449474Y-71653334D01*
X153475832Y-71650500D01*
X157974167Y-71650500D01*
X158041206Y-71670185D01*
X158061848Y-71686819D01*
X160416638Y-74041609D01*
X160441275Y-74076747D01*
X160625653Y-74470879D01*
X160630282Y-74480775D01*
X160633608Y-74493186D01*
X160646679Y-74515826D01*
X160648941Y-74520661D01*
X160658669Y-74541455D01*
X160665676Y-74555085D01*
X160666541Y-74556623D01*
X160668304Y-74559697D01*
X160672618Y-74565522D01*
X160672597Y-74565537D01*
X160685097Y-74582367D01*
X160699497Y-74607310D01*
X160699499Y-74607313D01*
X160699500Y-74607314D01*
X160792686Y-74700500D01*
X160906814Y-74766392D01*
X161034108Y-74800500D01*
X161034110Y-74800500D01*
X161165890Y-74800500D01*
X161165892Y-74800500D01*
X161293186Y-74766392D01*
X161407314Y-74700500D01*
X161500500Y-74607314D01*
X161566392Y-74493186D01*
X161566392Y-74493185D01*
X161567613Y-74491071D01*
X161572009Y-74486878D01*
X161573996Y-74481140D01*
X161596997Y-74463052D01*
X161618180Y-74442855D01*
X161624144Y-74441705D01*
X161628919Y-74437951D01*
X161658048Y-74435170D01*
X161686787Y-74429632D01*
X161692427Y-74431889D01*
X161698472Y-74431313D01*
X161724478Y-74444721D01*
X161751652Y-74455600D01*
X161756556Y-74461260D01*
X161760573Y-74463331D01*
X161782390Y-74491075D01*
X161783607Y-74493183D01*
X161783608Y-74493186D01*
X161788734Y-74502065D01*
X161794015Y-74511212D01*
X161798941Y-74520661D01*
X161808669Y-74541455D01*
X161815676Y-74555085D01*
X161816541Y-74556623D01*
X161818304Y-74559697D01*
X161822618Y-74565522D01*
X161822597Y-74565537D01*
X161835097Y-74582367D01*
X161849497Y-74607310D01*
X161849499Y-74607313D01*
X161849500Y-74607314D01*
X161942686Y-74700500D01*
X162056814Y-74766392D01*
X162184108Y-74800500D01*
X162184110Y-74800500D01*
X162315890Y-74800500D01*
X162315892Y-74800500D01*
X162443186Y-74766392D01*
X162557314Y-74700500D01*
X162650500Y-74607314D01*
X162667613Y-74577672D01*
X162718179Y-74529458D01*
X162786786Y-74516234D01*
X162851651Y-74542202D01*
X162882386Y-74577672D01*
X162899500Y-74607314D01*
X162992686Y-74700500D01*
X163106814Y-74766392D01*
X163234108Y-74800500D01*
X163234110Y-74800500D01*
X163365890Y-74800500D01*
X163365892Y-74800500D01*
X163493186Y-74766392D01*
X163513499Y-74754663D01*
X163581399Y-74738191D01*
X163647426Y-74761043D01*
X163690617Y-74815964D01*
X163699500Y-74862051D01*
X163699500Y-75434083D01*
X163692074Y-75476349D01*
X163619611Y-75676205D01*
X163543752Y-75885423D01*
X163543751Y-75885424D01*
X163540025Y-75895697D01*
X163533608Y-75906814D01*
X163526847Y-75932041D01*
X163525025Y-75937068D01*
X163517197Y-75958660D01*
X163512531Y-75973191D01*
X163512068Y-75974841D01*
X163511099Y-75978418D01*
X163510033Y-75985575D01*
X163510007Y-75985571D01*
X163506945Y-76006317D01*
X163499501Y-76034100D01*
X163499500Y-76034108D01*
X163499500Y-76165892D01*
X163515472Y-76225500D01*
X163533608Y-76293187D01*
X163563472Y-76344912D01*
X163599500Y-76407314D01*
X163692686Y-76500500D01*
X163806814Y-76566392D01*
X163934108Y-76600500D01*
X163934110Y-76600500D01*
X164065890Y-76600500D01*
X164065892Y-76600500D01*
X164193186Y-76566392D01*
X164239235Y-76539805D01*
X164307133Y-76523332D01*
X164373160Y-76546183D01*
X164416352Y-76601104D01*
X164425235Y-76647192D01*
X164425235Y-77008348D01*
X164417809Y-77050614D01*
X164359860Y-77210438D01*
X164269487Y-77459688D01*
X164269486Y-77459689D01*
X164265760Y-77469962D01*
X164259343Y-77481079D01*
X164252582Y-77506306D01*
X164250760Y-77511333D01*
X164242932Y-77532925D01*
X164238266Y-77547456D01*
X164237803Y-77549106D01*
X164236834Y-77552683D01*
X164235768Y-77559840D01*
X164235742Y-77559836D01*
X164232680Y-77580582D01*
X164225236Y-77608365D01*
X164225235Y-77608373D01*
X164225235Y-77740157D01*
X164239309Y-77792683D01*
X164259343Y-77867452D01*
X164292289Y-77924515D01*
X164325235Y-77981579D01*
X164418421Y-78074765D01*
X164517256Y-78131828D01*
X164526630Y-78137240D01*
X164532549Y-78140657D01*
X164659843Y-78174765D01*
X164659845Y-78174765D01*
X164791625Y-78174765D01*
X164791627Y-78174765D01*
X164918921Y-78140657D01*
X165033049Y-78074765D01*
X165126235Y-77981579D01*
X165192127Y-77867451D01*
X165226235Y-77740157D01*
X165226235Y-77608373D01*
X165211870Y-77554762D01*
X165208536Y-77532926D01*
X165198893Y-77506330D01*
X165192127Y-77481079D01*
X165191170Y-77479421D01*
X165181978Y-77459680D01*
X165150774Y-77373619D01*
X165033661Y-77050615D01*
X165026235Y-77008348D01*
X165026235Y-73669152D01*
X165045920Y-73602113D01*
X165062549Y-73581476D01*
X167109916Y-71534108D01*
X179199500Y-71534108D01*
X179199500Y-71665892D01*
X179224369Y-71758707D01*
X179233609Y-71793188D01*
X179233609Y-71793189D01*
X179302782Y-71913000D01*
X179319255Y-71980900D01*
X179302782Y-72037000D01*
X179233609Y-72156810D01*
X179233609Y-72156811D01*
X179233609Y-72156812D01*
X179233608Y-72156814D01*
X179199500Y-72284108D01*
X179199500Y-72415892D01*
X179228673Y-72524769D01*
X179233609Y-72543188D01*
X179233609Y-72543189D01*
X179302782Y-72663000D01*
X179319255Y-72730900D01*
X179302782Y-72787000D01*
X179233609Y-72906810D01*
X179233609Y-72906811D01*
X179233609Y-72906812D01*
X179233608Y-72906814D01*
X179210628Y-72992579D01*
X179199500Y-73034108D01*
X179199500Y-73165891D01*
X179233608Y-73293187D01*
X179246426Y-73315388D01*
X179299500Y-73407314D01*
X179392686Y-73500500D01*
X179491521Y-73557563D01*
X179506810Y-73566390D01*
X179506814Y-73566392D01*
X179634108Y-73600500D01*
X179634110Y-73600500D01*
X179765890Y-73600500D01*
X179765892Y-73600500D01*
X179893186Y-73566392D01*
X180007314Y-73500500D01*
X180100500Y-73407314D01*
X180166392Y-73293186D01*
X180200500Y-73165892D01*
X180200500Y-73034108D01*
X180166392Y-72906814D01*
X180100500Y-72792686D01*
X180100498Y-72792684D01*
X180097217Y-72787001D01*
X180080744Y-72719101D01*
X180097217Y-72662999D01*
X180100498Y-72657315D01*
X180100500Y-72657314D01*
X180166392Y-72543186D01*
X180200500Y-72415892D01*
X180200500Y-72284108D01*
X180166392Y-72156814D01*
X180100500Y-72042686D01*
X180100498Y-72042684D01*
X180097217Y-72037001D01*
X180095153Y-72028494D01*
X180089710Y-72021641D01*
X180087042Y-71995063D01*
X180080744Y-71969101D01*
X180083423Y-71959002D01*
X180082733Y-71952120D01*
X180091621Y-71928113D01*
X180094116Y-71918712D01*
X180099322Y-71908491D01*
X180100500Y-71907314D01*
X180158157Y-71807449D01*
X190775000Y-71807449D01*
X190775000Y-72092550D01*
X190775001Y-72092566D01*
X190812214Y-72375230D01*
X190886008Y-72650633D01*
X190995113Y-72914035D01*
X190995117Y-72914044D01*
X191137669Y-73160951D01*
X191137680Y-73160968D01*
X191245267Y-73301176D01*
X191245268Y-73301176D01*
X191995809Y-72550635D01*
X192091898Y-72682888D01*
X192217112Y-72808102D01*
X192349363Y-72904189D01*
X191598822Y-73654729D01*
X191598822Y-73654731D01*
X191739031Y-73762319D01*
X191739048Y-73762330D01*
X191985955Y-73904882D01*
X191985964Y-73904886D01*
X192249366Y-74013991D01*
X192524769Y-74087785D01*
X192807433Y-74124998D01*
X192807450Y-74125000D01*
X193092550Y-74125000D01*
X193092566Y-74124998D01*
X193375230Y-74087785D01*
X193650633Y-74013991D01*
X193914035Y-73904886D01*
X193914044Y-73904882D01*
X194160954Y-73762328D01*
X194301176Y-73654730D01*
X194301176Y-73654729D01*
X193550636Y-72904189D01*
X193682888Y-72808102D01*
X193808102Y-72682888D01*
X193904189Y-72550636D01*
X194654729Y-73301176D01*
X194654730Y-73301176D01*
X194762328Y-73160954D01*
X194904882Y-72914044D01*
X194904886Y-72914035D01*
X195013991Y-72650633D01*
X195087785Y-72375230D01*
X195124998Y-72092566D01*
X195125000Y-72092550D01*
X195125000Y-71807449D01*
X195124998Y-71807433D01*
X195087785Y-71524769D01*
X195013991Y-71249366D01*
X194904886Y-70985964D01*
X194904882Y-70985955D01*
X194762330Y-70739048D01*
X194762319Y-70739031D01*
X194654731Y-70598822D01*
X194654729Y-70598822D01*
X193904189Y-71349362D01*
X193808102Y-71217112D01*
X193682888Y-71091898D01*
X193550635Y-70995809D01*
X194301176Y-70245268D01*
X194301176Y-70245267D01*
X194160968Y-70137680D01*
X194160951Y-70137669D01*
X193914044Y-69995117D01*
X193914035Y-69995113D01*
X193650633Y-69886008D01*
X193375230Y-69812214D01*
X193092566Y-69775001D01*
X193092550Y-69775000D01*
X192807450Y-69775000D01*
X192807433Y-69775001D01*
X192524769Y-69812214D01*
X192249366Y-69886008D01*
X191985964Y-69995113D01*
X191985955Y-69995117D01*
X191739048Y-70137669D01*
X191739041Y-70137674D01*
X191598822Y-70245268D01*
X192349364Y-70995810D01*
X192217112Y-71091898D01*
X192091898Y-71217112D01*
X191995810Y-71349364D01*
X191245268Y-70598822D01*
X191137674Y-70739041D01*
X191137669Y-70739048D01*
X190995117Y-70985955D01*
X190995113Y-70985964D01*
X190886008Y-71249366D01*
X190812214Y-71524769D01*
X190775001Y-71807433D01*
X190775000Y-71807449D01*
X180158157Y-71807449D01*
X180166392Y-71793186D01*
X180200500Y-71665892D01*
X180200500Y-71534108D01*
X180166392Y-71406814D01*
X180100500Y-71292686D01*
X180007314Y-71199500D01*
X179950250Y-71166554D01*
X179893187Y-71133608D01*
X179803362Y-71109540D01*
X179765892Y-71099500D01*
X179634108Y-71099500D01*
X179506812Y-71133608D01*
X179392686Y-71199500D01*
X179392683Y-71199502D01*
X179299502Y-71292683D01*
X179299500Y-71292686D01*
X179233608Y-71406812D01*
X179225171Y-71438300D01*
X179199500Y-71534108D01*
X167109916Y-71534108D01*
X167666931Y-70977093D01*
X167715476Y-70947113D01*
X168928012Y-70543855D01*
X168928017Y-70543852D01*
X168932724Y-70541844D01*
X168932945Y-70542363D01*
X168960254Y-70532662D01*
X169013541Y-70522064D01*
X169204719Y-70442875D01*
X169367501Y-70334108D01*
X172199500Y-70334108D01*
X172199500Y-70465891D01*
X172233608Y-70593187D01*
X172260902Y-70640460D01*
X172299500Y-70707314D01*
X172392686Y-70800500D01*
X172506814Y-70866392D01*
X172634108Y-70900500D01*
X172634110Y-70900500D01*
X172765890Y-70900500D01*
X172765892Y-70900500D01*
X172819504Y-70886134D01*
X172841337Y-70882801D01*
X172867927Y-70873160D01*
X172893186Y-70866392D01*
X172894849Y-70865431D01*
X172914580Y-70856243D01*
X173323649Y-70707926D01*
X173365916Y-70700500D01*
X178239560Y-70700500D01*
X178239562Y-70700500D01*
X178315989Y-70680021D01*
X178384511Y-70640460D01*
X178440460Y-70584511D01*
X178823824Y-70201145D01*
X178838979Y-70192870D01*
X178851081Y-70180545D01*
X178869010Y-70176472D01*
X178885145Y-70167662D01*
X178902641Y-70168832D01*
X178919215Y-70165068D01*
X178953769Y-70172253D01*
X179185417Y-70256244D01*
X179205156Y-70265435D01*
X179206812Y-70266391D01*
X179206814Y-70266392D01*
X179226917Y-70271778D01*
X179237069Y-70274972D01*
X179258661Y-70282801D01*
X179270206Y-70286511D01*
X179273097Y-70287441D01*
X179274698Y-70287891D01*
X179274743Y-70287903D01*
X179274753Y-70287906D01*
X179278415Y-70288899D01*
X179278417Y-70288899D01*
X179285585Y-70289968D01*
X179285581Y-70289993D01*
X179306314Y-70293052D01*
X179334108Y-70300500D01*
X179334110Y-70300500D01*
X179465890Y-70300500D01*
X179465892Y-70300500D01*
X179593186Y-70266392D01*
X179707314Y-70200500D01*
X179800500Y-70107314D01*
X179866392Y-69993186D01*
X179900500Y-69865892D01*
X179900500Y-69734108D01*
X179866392Y-69606814D01*
X179800500Y-69492686D01*
X179707314Y-69399500D01*
X179649100Y-69365890D01*
X179593187Y-69333608D01*
X179519496Y-69313863D01*
X179465892Y-69299500D01*
X179334108Y-69299500D01*
X179334104Y-69299500D01*
X179287115Y-69312091D01*
X179287114Y-69312091D01*
X179280497Y-69313863D01*
X179258664Y-69317198D01*
X179232075Y-69326837D01*
X179226933Y-69328215D01*
X179226919Y-69328220D01*
X179206813Y-69333608D01*
X179206803Y-69333612D01*
X179205133Y-69334577D01*
X179185417Y-69343754D01*
X178749418Y-69501837D01*
X178749368Y-69501856D01*
X178743426Y-69504011D01*
X178743214Y-69504115D01*
X178684011Y-69519979D01*
X178651835Y-69538556D01*
X178643755Y-69543220D01*
X178643752Y-69543222D01*
X178615490Y-69559539D01*
X178615487Y-69559541D01*
X178111848Y-70063181D01*
X178050525Y-70096666D01*
X178024167Y-70099500D01*
X173365916Y-70099500D01*
X173323649Y-70092074D01*
X172914585Y-69943757D01*
X172904314Y-69940033D01*
X172893186Y-69933608D01*
X172867928Y-69926840D01*
X172862803Y-69924982D01*
X172841322Y-69917193D01*
X172826950Y-69912572D01*
X172825249Y-69912094D01*
X172821578Y-69911098D01*
X172814410Y-69910029D01*
X172814413Y-69910005D01*
X172793678Y-69906945D01*
X172765893Y-69899500D01*
X172765892Y-69899500D01*
X172634108Y-69899500D01*
X172506812Y-69933608D01*
X172392686Y-69999500D01*
X172392683Y-69999502D01*
X172299502Y-70092683D01*
X172299500Y-70092686D01*
X172233608Y-70206812D01*
X172199500Y-70334108D01*
X169367501Y-70334108D01*
X169376776Y-70327911D01*
X169417250Y-70287437D01*
X169466388Y-70238300D01*
X169523095Y-70181592D01*
X169523096Y-70181591D01*
X169523098Y-70181589D01*
X169638062Y-70009532D01*
X169717251Y-69818354D01*
X169757621Y-69615399D01*
X169757621Y-69408469D01*
X169717251Y-69205514D01*
X169638062Y-69014336D01*
X169523098Y-68842279D01*
X169523096Y-68842276D01*
X169376778Y-68695958D01*
X169359043Y-68684108D01*
X170499500Y-68684108D01*
X170499500Y-68815892D01*
X170512775Y-68865435D01*
X170533608Y-68943187D01*
X170560598Y-68989934D01*
X170599500Y-69057314D01*
X170692686Y-69150500D01*
X170806814Y-69216392D01*
X170934108Y-69250500D01*
X170934110Y-69250500D01*
X171065890Y-69250500D01*
X171065892Y-69250500D01*
X171193186Y-69216392D01*
X171307314Y-69150500D01*
X171400500Y-69057314D01*
X171466392Y-68943186D01*
X171500500Y-68815892D01*
X171500500Y-68684108D01*
X171466392Y-68556814D01*
X171400500Y-68442686D01*
X171307314Y-68349500D01*
X171222439Y-68300497D01*
X171193187Y-68283608D01*
X171129539Y-68266554D01*
X171065892Y-68249500D01*
X170934108Y-68249500D01*
X170806812Y-68283608D01*
X170692686Y-68349500D01*
X170692683Y-68349502D01*
X170599502Y-68442683D01*
X170599500Y-68442686D01*
X170533608Y-68556812D01*
X170510733Y-68642186D01*
X170499500Y-68684108D01*
X169359043Y-68684108D01*
X169290747Y-68638475D01*
X169204719Y-68580993D01*
X169146341Y-68556812D01*
X169013541Y-68501804D01*
X169013533Y-68501802D01*
X168810590Y-68461434D01*
X168810586Y-68461434D01*
X168603656Y-68461434D01*
X168603651Y-68461434D01*
X168400708Y-68501802D01*
X168400700Y-68501804D01*
X168209524Y-68580992D01*
X168037463Y-68695958D01*
X167891145Y-68842276D01*
X167776179Y-69014337D01*
X167696991Y-69205513D01*
X167696989Y-69205519D01*
X167686463Y-69258439D01*
X167676570Y-69284986D01*
X167677678Y-69285480D01*
X167675196Y-69291046D01*
X167271938Y-70503577D01*
X167241956Y-70552126D01*
X164541224Y-73252860D01*
X164512181Y-73281903D01*
X164450858Y-73315388D01*
X164381166Y-73310404D01*
X164325233Y-73268532D01*
X164300816Y-73203068D01*
X164300500Y-73194222D01*
X164300500Y-71854888D01*
X164320185Y-71787849D01*
X164336815Y-71767211D01*
X165126932Y-70977093D01*
X165175477Y-70947113D01*
X166388013Y-70543855D01*
X166388018Y-70543852D01*
X166392725Y-70541844D01*
X166392946Y-70542363D01*
X166420255Y-70532662D01*
X166473542Y-70522064D01*
X166664720Y-70442875D01*
X166836777Y-70327911D01*
X166983099Y-70181589D01*
X167098063Y-70009532D01*
X167177252Y-69818354D01*
X167217622Y-69615399D01*
X167217622Y-69408469D01*
X167177252Y-69205514D01*
X167098063Y-69014336D01*
X166983099Y-68842279D01*
X166983097Y-68842276D01*
X166836779Y-68695958D01*
X166750748Y-68638475D01*
X166664720Y-68580993D01*
X166606342Y-68556812D01*
X166473542Y-68501804D01*
X166473534Y-68501802D01*
X166270591Y-68461434D01*
X166270587Y-68461434D01*
X166063657Y-68461434D01*
X166063652Y-68461434D01*
X165860709Y-68501802D01*
X165860701Y-68501804D01*
X165669525Y-68580992D01*
X165497464Y-68695958D01*
X165351146Y-68842276D01*
X165236180Y-69014337D01*
X165156992Y-69205513D01*
X165156990Y-69205519D01*
X165146464Y-69258439D01*
X165136571Y-69284986D01*
X165137679Y-69285480D01*
X165135197Y-69291046D01*
X164919285Y-69940261D01*
X164879450Y-69997663D01*
X164814905Y-70024415D01*
X164746143Y-70012026D01*
X164694995Y-69964427D01*
X164677622Y-69901129D01*
X164677622Y-68642183D01*
X164677621Y-68642181D01*
X164665990Y-68583704D01*
X164665989Y-68583703D01*
X164621674Y-68517381D01*
X164555352Y-68473066D01*
X164555351Y-68473065D01*
X164496874Y-68461434D01*
X164496870Y-68461434D01*
X162757374Y-68461434D01*
X162757369Y-68461434D01*
X162698892Y-68473065D01*
X162698891Y-68473066D01*
X162632569Y-68517381D01*
X162588254Y-68583703D01*
X162588253Y-68583704D01*
X162576622Y-68642181D01*
X162576622Y-68642186D01*
X162576622Y-70365836D01*
X162575237Y-70374670D01*
X162575853Y-70383601D01*
X162580150Y-70399419D01*
X162582222Y-70409835D01*
X162582223Y-70409846D01*
X162588254Y-70440163D01*
X162592928Y-70451447D01*
X162592714Y-70451535D01*
X162594868Y-70455715D01*
X162596872Y-70460984D01*
X162596878Y-70460996D01*
X162933526Y-71137669D01*
X162986520Y-71244187D01*
X162999500Y-71299420D01*
X162999500Y-73634083D01*
X162992074Y-73676349D01*
X162960903Y-73762319D01*
X162880646Y-73983668D01*
X162839288Y-74039982D01*
X162774050Y-74064998D01*
X162705644Y-74050772D01*
X162656685Y-74003399D01*
X162650500Y-73992686D01*
X162557314Y-73899500D01*
X162549193Y-73894811D01*
X162515162Y-73875162D01*
X162515162Y-73875163D01*
X162509228Y-73871737D01*
X162491450Y-73858667D01*
X162465834Y-73846683D01*
X162461215Y-73844016D01*
X162461212Y-73844013D01*
X162443192Y-73833610D01*
X162443176Y-73833604D01*
X162441321Y-73833107D01*
X162420877Y-73825652D01*
X162026748Y-73641276D01*
X161991610Y-73616639D01*
X158109079Y-69734108D01*
X160799500Y-69734108D01*
X160799500Y-69865891D01*
X160833608Y-69993187D01*
X160843044Y-70009530D01*
X160899500Y-70107314D01*
X160992686Y-70200500D01*
X161106814Y-70266392D01*
X161234108Y-70300500D01*
X161234110Y-70300500D01*
X161365890Y-70300500D01*
X161365892Y-70300500D01*
X161493186Y-70266392D01*
X161607314Y-70200500D01*
X161700500Y-70107314D01*
X161766392Y-69993186D01*
X161800500Y-69865892D01*
X161800500Y-69734108D01*
X161766392Y-69606814D01*
X161700500Y-69492686D01*
X161607314Y-69399500D01*
X161549100Y-69365890D01*
X161493187Y-69333608D01*
X161419496Y-69313863D01*
X161365892Y-69299500D01*
X161234108Y-69299500D01*
X161106812Y-69333608D01*
X160992686Y-69399500D01*
X160992683Y-69399502D01*
X160899502Y-69492683D01*
X160899500Y-69492686D01*
X160833608Y-69606812D01*
X160799500Y-69734108D01*
X158109079Y-69734108D01*
X156534512Y-68159541D01*
X156534507Y-68159537D01*
X156501462Y-68140459D01*
X156501462Y-68140458D01*
X156501460Y-68140458D01*
X156489083Y-68133312D01*
X156465990Y-68119979D01*
X156465991Y-68119979D01*
X156427775Y-68109739D01*
X156389562Y-68099500D01*
X156389560Y-68099500D01*
X153365916Y-68099500D01*
X153323649Y-68092074D01*
X152914585Y-67943757D01*
X152894854Y-67934571D01*
X152893185Y-67933607D01*
X152873073Y-67928218D01*
X152862906Y-67925019D01*
X152841322Y-67917193D01*
X152826950Y-67912572D01*
X152825249Y-67912094D01*
X152821578Y-67911098D01*
X152814410Y-67910029D01*
X152814413Y-67910005D01*
X152793678Y-67906945D01*
X152765893Y-67899500D01*
X152765892Y-67899500D01*
X152634108Y-67899500D01*
X152506812Y-67933608D01*
X152392686Y-67999500D01*
X152392683Y-67999502D01*
X152299502Y-68092683D01*
X152299500Y-68092686D01*
X152233608Y-68206812D01*
X152233473Y-68207316D01*
X152199500Y-68334108D01*
X131200500Y-68334108D01*
X131200500Y-67834108D01*
X174049500Y-67834108D01*
X174049500Y-67965891D01*
X174083608Y-68093187D01*
X174110901Y-68140459D01*
X174149500Y-68207314D01*
X174242686Y-68300500D01*
X174356814Y-68366392D01*
X174484108Y-68400500D01*
X174484110Y-68400500D01*
X174615890Y-68400500D01*
X174615892Y-68400500D01*
X174743186Y-68366392D01*
X174857314Y-68300500D01*
X174950500Y-68207314D01*
X174978264Y-68159225D01*
X174991332Y-68141450D01*
X175003312Y-68115841D01*
X175016392Y-68093186D01*
X175016889Y-68091327D01*
X175024344Y-68070879D01*
X175208723Y-67676745D01*
X175233355Y-67641614D01*
X176638152Y-66236819D01*
X176699475Y-66203334D01*
X176725833Y-66200500D01*
X177934083Y-66200500D01*
X177976350Y-66207926D01*
X178395688Y-66359968D01*
X178406814Y-66366392D01*
X178432065Y-66373158D01*
X178458661Y-66382801D01*
X178470206Y-66386511D01*
X178473097Y-66387441D01*
X178474698Y-66387891D01*
X178474743Y-66387903D01*
X178474753Y-66387906D01*
X178478415Y-66388899D01*
X178478417Y-66388899D01*
X178485585Y-66389968D01*
X178485581Y-66389993D01*
X178506314Y-66393052D01*
X178534108Y-66400500D01*
X178534110Y-66400500D01*
X178665890Y-66400500D01*
X178665892Y-66400500D01*
X178793186Y-66366392D01*
X178907314Y-66300500D01*
X179000500Y-66207314D01*
X179066392Y-66093186D01*
X179100500Y-65965892D01*
X179100500Y-65834108D01*
X179066392Y-65706814D01*
X179000500Y-65592686D01*
X178907314Y-65499500D01*
X178850250Y-65466554D01*
X178793187Y-65433608D01*
X178719496Y-65413863D01*
X178665892Y-65399500D01*
X178534108Y-65399500D01*
X178534104Y-65399500D01*
X178487115Y-65412091D01*
X178487114Y-65412091D01*
X178480497Y-65413863D01*
X178458664Y-65417198D01*
X178432075Y-65426837D01*
X178426933Y-65428215D01*
X178426919Y-65428220D01*
X178406813Y-65433608D01*
X178406803Y-65433612D01*
X178405133Y-65434577D01*
X178385417Y-65443754D01*
X177976349Y-65592074D01*
X177934082Y-65599500D01*
X176510438Y-65599500D01*
X176472224Y-65609739D01*
X176434009Y-65619979D01*
X176418625Y-65628862D01*
X176408065Y-65634959D01*
X176396928Y-65641389D01*
X176365489Y-65659539D01*
X176365487Y-65659541D01*
X174808390Y-67216637D01*
X174773252Y-67241274D01*
X174379114Y-67425655D01*
X174379113Y-67425655D01*
X174369215Y-67430284D01*
X174356814Y-67433608D01*
X174334195Y-67446666D01*
X174329356Y-67448930D01*
X174329353Y-67448933D01*
X174308539Y-67458671D01*
X174294843Y-67465715D01*
X174293255Y-67466609D01*
X174290300Y-67468305D01*
X174284493Y-67472607D01*
X174284478Y-67472587D01*
X174267640Y-67485092D01*
X174242685Y-67499500D01*
X174149500Y-67592686D01*
X174083608Y-67706812D01*
X174049500Y-67834108D01*
X131200500Y-67834108D01*
X131200500Y-66803479D01*
X131200695Y-66796528D01*
X131201481Y-66782528D01*
X131204200Y-66734108D01*
X161499500Y-66734108D01*
X161499500Y-66865891D01*
X161533608Y-66993187D01*
X161566554Y-67050250D01*
X161599500Y-67107314D01*
X161692686Y-67200500D01*
X161806814Y-67266392D01*
X161934108Y-67300500D01*
X161934110Y-67300500D01*
X162065890Y-67300500D01*
X162065892Y-67300500D01*
X162193186Y-67266392D01*
X162307314Y-67200500D01*
X162400500Y-67107314D01*
X162466392Y-66993186D01*
X162500500Y-66865892D01*
X162500500Y-66734108D01*
X162466392Y-66606814D01*
X162465268Y-66604868D01*
X162457563Y-66591521D01*
X162400500Y-66492686D01*
X162307314Y-66399500D01*
X162232391Y-66356243D01*
X162193187Y-66333608D01*
X162129539Y-66316554D01*
X162065892Y-66299500D01*
X161934108Y-66299500D01*
X161806812Y-66333608D01*
X161692686Y-66399500D01*
X161692683Y-66399502D01*
X161599502Y-66492683D01*
X161599500Y-66492686D01*
X161533608Y-66606812D01*
X161499500Y-66734108D01*
X131204200Y-66734108D01*
X131216990Y-66506308D01*
X131218544Y-66492510D01*
X131266649Y-66209348D01*
X131269736Y-66195820D01*
X131349233Y-65919842D01*
X131353822Y-65906725D01*
X131355242Y-65903297D01*
X131463717Y-65641373D01*
X131469734Y-65628877D01*
X131608648Y-65377490D01*
X131616028Y-65365742D01*
X131782216Y-65131477D01*
X131790851Y-65120647D01*
X131982224Y-64906456D01*
X131992036Y-64896642D01*
X132206169Y-64705236D01*
X132217020Y-64696581D01*
X132451236Y-64530347D01*
X132462986Y-64522962D01*
X132714331Y-64384000D01*
X132726855Y-64377967D01*
X132755098Y-64366263D01*
X132992168Y-64268018D01*
X133005285Y-64263426D01*
X133281232Y-64183873D01*
X133294773Y-64180779D01*
X133577926Y-64132612D01*
X133591710Y-64131056D01*
X133881924Y-64114695D01*
X133888856Y-64114499D01*
X133924881Y-64114491D01*
X133951296Y-64114486D01*
X133951296Y-64114485D01*
X134002634Y-64114476D01*
X134002645Y-64114473D01*
X196897509Y-64100514D01*
X196897512Y-64100515D01*
X196959958Y-64100500D01*
X196966858Y-64100693D01*
G37*
%TD.AperFunction*%
%TD*%
%TA.AperFunction,Conductor*%
%TO.N,/NReset*%
G36*
X160360362Y-77939986D02*
G01*
X160361872Y-77940835D01*
X160598734Y-78097984D01*
X160602015Y-78101265D01*
X160759164Y-78338127D01*
X160760883Y-78346915D01*
X160755883Y-78354344D01*
X160754373Y-78355193D01*
X160257953Y-78587422D01*
X160249007Y-78587823D01*
X160244722Y-78585097D01*
X160114902Y-78455277D01*
X160111475Y-78447004D01*
X160112575Y-78442051D01*
X160344806Y-77945625D01*
X160351416Y-77939585D01*
X160360362Y-77939986D01*
G37*
%TD.AperFunction*%
%TD*%
%TA.AperFunction,Conductor*%
%TO.N,/NReset*%
G36*
X156555277Y-82014902D02*
G01*
X156685097Y-82144722D01*
X156688524Y-82152995D01*
X156687422Y-82157953D01*
X156455193Y-82654373D01*
X156448583Y-82660414D01*
X156439637Y-82660013D01*
X156438127Y-82659164D01*
X156201265Y-82502015D01*
X156197984Y-82498734D01*
X156040835Y-82261872D01*
X156039116Y-82253084D01*
X156044116Y-82245655D01*
X156045621Y-82244808D01*
X156542048Y-82012576D01*
X156550992Y-82012176D01*
X156555277Y-82014902D01*
G37*
%TD.AperFunction*%
%TD*%
%TA.AperFunction,Conductor*%
%TO.N,/NReset*%
G36*
X160854344Y-77944116D02*
G01*
X160855193Y-77945626D01*
X160927080Y-78099293D01*
X161046791Y-78355193D01*
X161087422Y-78442046D01*
X161087823Y-78450992D01*
X161085097Y-78455277D01*
X160955277Y-78585097D01*
X160947004Y-78588524D01*
X160942047Y-78587422D01*
X160791428Y-78516961D01*
X160445626Y-78355193D01*
X160439585Y-78348583D01*
X160439986Y-78339637D01*
X160440835Y-78338127D01*
X160597985Y-78101263D01*
X160601263Y-78097985D01*
X160838127Y-77940834D01*
X160846915Y-77939116D01*
X160854344Y-77944116D01*
G37*
%TD.AperFunction*%
%TD*%
%TA.AperFunction,Conductor*%
%TO.N,/NReset*%
G36*
X171637655Y-80010792D02*
G01*
X171643696Y-80017402D01*
X171644165Y-80019070D01*
X171700530Y-80297680D01*
X171700530Y-80302320D01*
X171644165Y-80580929D01*
X171639165Y-80588358D01*
X171630377Y-80590077D01*
X171628709Y-80589608D01*
X171113476Y-80402796D01*
X171106866Y-80396755D01*
X171105764Y-80391797D01*
X171105764Y-80208202D01*
X171109191Y-80199929D01*
X171113473Y-80197204D01*
X171628711Y-80010391D01*
X171637655Y-80010792D01*
G37*
%TD.AperFunction*%
%TD*%
%TA.AperFunction,Conductor*%
%TO.N,SYS_JTDO*%
G36*
X166380930Y-74755835D02*
G01*
X166388358Y-74760834D01*
X166390077Y-74769622D01*
X166389608Y-74771290D01*
X166202796Y-75286524D01*
X166196755Y-75293134D01*
X166191797Y-75294236D01*
X166008203Y-75294236D01*
X165999930Y-75290809D01*
X165997204Y-75286524D01*
X165949544Y-75155078D01*
X165810391Y-74771288D01*
X165810792Y-74762344D01*
X165817402Y-74756303D01*
X165819056Y-74755837D01*
X166097682Y-74699469D01*
X166102318Y-74699469D01*
X166380930Y-74755835D01*
G37*
%TD.AperFunction*%
%TD*%
%TA.AperFunction,Conductor*%
%TO.N,SYS_JTDO*%
G36*
X179904706Y-82401985D02*
G01*
X179904756Y-82402018D01*
X179980968Y-82453302D01*
X180140762Y-82560831D01*
X180145713Y-82568292D01*
X180144605Y-82575946D01*
X179911446Y-83023204D01*
X179904583Y-83028956D01*
X179895662Y-83028170D01*
X179892798Y-83026068D01*
X179764509Y-82897779D01*
X179761769Y-82893456D01*
X179647881Y-82575946D01*
X179610338Y-82471279D01*
X179610770Y-82462336D01*
X179617401Y-82456317D01*
X179619042Y-82455860D01*
X179895920Y-82400254D01*
X179904706Y-82401985D01*
G37*
%TD.AperFunction*%
%TD*%
%TA.AperFunction,Conductor*%
%TO.N,SYS_JTDI*%
G36*
X167480930Y-74755835D02*
G01*
X167488358Y-74760834D01*
X167490077Y-74769622D01*
X167489608Y-74771290D01*
X167302796Y-75286524D01*
X167296755Y-75293134D01*
X167291797Y-75294236D01*
X167108203Y-75294236D01*
X167099930Y-75290809D01*
X167097204Y-75286524D01*
X167049544Y-75155078D01*
X166910391Y-74771288D01*
X166910792Y-74762344D01*
X166917402Y-74756303D01*
X166919056Y-74755837D01*
X167197682Y-74699469D01*
X167202318Y-74699469D01*
X167480930Y-74755835D01*
G37*
%TD.AperFunction*%
%TD*%
%TA.AperFunction,Conductor*%
%TO.N,SYS_JTDI*%
G36*
X178587655Y-82110792D02*
G01*
X178593696Y-82117402D01*
X178594165Y-82119070D01*
X178650530Y-82397680D01*
X178650530Y-82402320D01*
X178594165Y-82680929D01*
X178589165Y-82688358D01*
X178580377Y-82690077D01*
X178578709Y-82689608D01*
X178063476Y-82502796D01*
X178056866Y-82496755D01*
X178055764Y-82491797D01*
X178055764Y-82308202D01*
X178059191Y-82299929D01*
X178063473Y-82297204D01*
X178578711Y-82110391D01*
X178587655Y-82110792D01*
G37*
%TD.AperFunction*%
%TD*%
%TA.AperFunction,Conductor*%
%TO.N,SYS_JTCK-SW*%
G36*
X181250070Y-81809191D02*
G01*
X181252796Y-81813476D01*
X181439608Y-82328709D01*
X181439207Y-82337655D01*
X181432597Y-82343696D01*
X181430929Y-82344165D01*
X181152320Y-82400530D01*
X181147680Y-82400530D01*
X180869070Y-82344165D01*
X180861641Y-82339165D01*
X180859922Y-82330377D01*
X180860387Y-82328720D01*
X181047204Y-81813476D01*
X181053245Y-81806866D01*
X181058203Y-81805764D01*
X181241797Y-81805764D01*
X181250070Y-81809191D01*
G37*
%TD.AperFunction*%
%TD*%
%TA.AperFunction,Conductor*%
%TO.N,SYS_JTCK-SW*%
G36*
X168371282Y-74360389D02*
G01*
X168886525Y-74547204D01*
X168893134Y-74553244D01*
X168894236Y-74558202D01*
X168894236Y-74741797D01*
X168890809Y-74750070D01*
X168886524Y-74752796D01*
X168371290Y-74939608D01*
X168362344Y-74939207D01*
X168356303Y-74932597D01*
X168355837Y-74930939D01*
X168299469Y-74652318D01*
X168299469Y-74647680D01*
X168355835Y-74369067D01*
X168360834Y-74361641D01*
X168369622Y-74359922D01*
X168371282Y-74360389D01*
G37*
%TD.AperFunction*%
%TD*%
%TA.AperFunction,Conductor*%
%TO.N,USART1_TX*%
G36*
X165977527Y-69473566D02*
G01*
X166160143Y-69509706D01*
X166167594Y-69514673D01*
X166169349Y-69518912D01*
X166330946Y-70335483D01*
X166329191Y-70344264D01*
X166323161Y-70348856D01*
X165054155Y-70770896D01*
X165045223Y-70770255D01*
X165042190Y-70768067D01*
X164910988Y-70636865D01*
X164907561Y-70628592D01*
X164908159Y-70624900D01*
X165330200Y-69355891D01*
X165336061Y-69349125D01*
X165343571Y-69348109D01*
X165977527Y-69473566D01*
G37*
%TD.AperFunction*%
%TD*%
%TA.AperFunction,Conductor*%
%TO.N,USART1_TX*%
G36*
X164100070Y-75509191D02*
G01*
X164102796Y-75513476D01*
X164289608Y-76028709D01*
X164289207Y-76037655D01*
X164282597Y-76043696D01*
X164280929Y-76044165D01*
X164002320Y-76100530D01*
X163997680Y-76100530D01*
X163719070Y-76044165D01*
X163711641Y-76039165D01*
X163709922Y-76030377D01*
X163710387Y-76028720D01*
X163897204Y-75513476D01*
X163903245Y-75506866D01*
X163908203Y-75505764D01*
X164091797Y-75505764D01*
X164100070Y-75509191D01*
G37*
%TD.AperFunction*%
%TD*%
%TA.AperFunction,Conductor*%
%TO.N,USART1_RX*%
G36*
X163634562Y-69520040D02*
G01*
X163635320Y-69520873D01*
X164321967Y-70353359D01*
X164324587Y-70361922D01*
X164320839Y-70369436D01*
X163403353Y-71208866D01*
X163395455Y-71211934D01*
X163207247Y-71211934D01*
X163198974Y-71208507D01*
X163196772Y-71205445D01*
X163072389Y-70955432D01*
X162780866Y-70369461D01*
X162780250Y-70360530D01*
X162783062Y-70355986D01*
X163618017Y-69520049D01*
X163626287Y-69516618D01*
X163634562Y-69520040D01*
G37*
%TD.AperFunction*%
%TD*%
%TA.AperFunction,Conductor*%
%TO.N,USART1_RX*%
G36*
X163400070Y-73709191D02*
G01*
X163402796Y-73713476D01*
X163589608Y-74228709D01*
X163589207Y-74237655D01*
X163582597Y-74243696D01*
X163580929Y-74244165D01*
X163302320Y-74300530D01*
X163297680Y-74300530D01*
X163019070Y-74244165D01*
X163011641Y-74239165D01*
X163009922Y-74230377D01*
X163010387Y-74228720D01*
X163197204Y-73713476D01*
X163203245Y-73706866D01*
X163208203Y-73705764D01*
X163391797Y-73705764D01*
X163400070Y-73709191D01*
G37*
%TD.AperFunction*%
%TD*%
%TA.AperFunction,Conductor*%
%TO.N,USART1_CK*%
G36*
X164825805Y-77083456D02*
G01*
X164828531Y-77087741D01*
X165015343Y-77602974D01*
X165014942Y-77611920D01*
X165008332Y-77617961D01*
X165006664Y-77618430D01*
X164728055Y-77674795D01*
X164723415Y-77674795D01*
X164444805Y-77618430D01*
X164437376Y-77613430D01*
X164435657Y-77604642D01*
X164436122Y-77602985D01*
X164622939Y-77087741D01*
X164628980Y-77081131D01*
X164633938Y-77080029D01*
X164817532Y-77080029D01*
X164825805Y-77083456D01*
G37*
%TD.AperFunction*%
%TD*%
%TA.AperFunction,Conductor*%
%TO.N,USART1_CK*%
G36*
X168517526Y-69473566D02*
G01*
X168700142Y-69509706D01*
X168707593Y-69514673D01*
X168709348Y-69518912D01*
X168870945Y-70335483D01*
X168869190Y-70344264D01*
X168863160Y-70348856D01*
X167594154Y-70770896D01*
X167585222Y-70770255D01*
X167582189Y-70768067D01*
X167450987Y-70636865D01*
X167447560Y-70628592D01*
X167448158Y-70624900D01*
X167870199Y-69355891D01*
X167876060Y-69349125D01*
X167883570Y-69348109D01*
X168517526Y-69473566D01*
G37*
%TD.AperFunction*%
%TD*%
%TA.AperFunction,Conductor*%
%TO.N,MCU_CAN1_TX*%
G36*
X153055277Y-71464902D02*
G01*
X153185097Y-71594722D01*
X153188524Y-71602995D01*
X153187422Y-71607953D01*
X152955193Y-72104373D01*
X152948583Y-72110414D01*
X152939637Y-72110013D01*
X152938127Y-72109164D01*
X152701265Y-71952015D01*
X152697984Y-71948734D01*
X152540835Y-71711872D01*
X152539116Y-71703084D01*
X152544116Y-71695655D01*
X152545621Y-71694808D01*
X153042048Y-71462576D01*
X153050992Y-71462176D01*
X153055277Y-71464902D01*
G37*
%TD.AperFunction*%
%TD*%
%TA.AperFunction,Conductor*%
%TO.N,MCU_CAN1_TX*%
G36*
X160757949Y-73812576D02*
G01*
X161068713Y-73957953D01*
X161254373Y-74044806D01*
X161260414Y-74051416D01*
X161260013Y-74060362D01*
X161259164Y-74061872D01*
X161102015Y-74298734D01*
X161098734Y-74302015D01*
X160861872Y-74459164D01*
X160853084Y-74460883D01*
X160845655Y-74455883D01*
X160844806Y-74454373D01*
X160771997Y-74298734D01*
X160612576Y-73957951D01*
X160612176Y-73949007D01*
X160614900Y-73944724D01*
X160744723Y-73814901D01*
X160752995Y-73811475D01*
X160757949Y-73812576D01*
G37*
%TD.AperFunction*%
%TD*%
%TA.AperFunction,Conductor*%
%TO.N,MCU_CAN1_RX*%
G36*
X152771282Y-68110389D02*
G01*
X153286525Y-68297204D01*
X153293134Y-68303244D01*
X153294236Y-68308202D01*
X153294236Y-68491797D01*
X153290809Y-68500070D01*
X153286524Y-68502796D01*
X152771290Y-68689608D01*
X152762344Y-68689207D01*
X152756303Y-68682597D01*
X152755837Y-68680939D01*
X152699469Y-68402318D01*
X152699469Y-68397680D01*
X152755835Y-68119067D01*
X152760834Y-68111641D01*
X152769622Y-68109922D01*
X152771282Y-68110389D01*
G37*
%TD.AperFunction*%
%TD*%
%TA.AperFunction,Conductor*%
%TO.N,MCU_CAN1_RX*%
G36*
X161907949Y-73812576D02*
G01*
X162218713Y-73957953D01*
X162404373Y-74044806D01*
X162410414Y-74051416D01*
X162410013Y-74060362D01*
X162409164Y-74061872D01*
X162252015Y-74298734D01*
X162248734Y-74302015D01*
X162011872Y-74459164D01*
X162003084Y-74460883D01*
X161995655Y-74455883D01*
X161994806Y-74454373D01*
X161921997Y-74298734D01*
X161762576Y-73957951D01*
X161762176Y-73949007D01*
X161764900Y-73944724D01*
X161894723Y-73814901D01*
X161902995Y-73811475D01*
X161907949Y-73812576D01*
G37*
%TD.AperFunction*%
%TD*%
%TA.AperFunction,Conductor*%
%TO.N,/STAT1_LED*%
G36*
X160160362Y-80389986D02*
G01*
X160161872Y-80390835D01*
X160398734Y-80547984D01*
X160402015Y-80551265D01*
X160559164Y-80788127D01*
X160560883Y-80796915D01*
X160555883Y-80804344D01*
X160554373Y-80805193D01*
X160057953Y-81037422D01*
X160049007Y-81037823D01*
X160044722Y-81035097D01*
X159914902Y-80905277D01*
X159911475Y-80897004D01*
X159912575Y-80892051D01*
X160144806Y-80395625D01*
X160151416Y-80389585D01*
X160160362Y-80389986D01*
G37*
%TD.AperFunction*%
%TD*%
%TA.AperFunction,Conductor*%
%TO.N,/STAT1_LED*%
G36*
X149454344Y-76444116D02*
G01*
X149455193Y-76445626D01*
X149527080Y-76599293D01*
X149646791Y-76855193D01*
X149687422Y-76942046D01*
X149687823Y-76950992D01*
X149685097Y-76955277D01*
X149555277Y-77085097D01*
X149547004Y-77088524D01*
X149542047Y-77087422D01*
X149391428Y-77016961D01*
X149045626Y-76855193D01*
X149039585Y-76848583D01*
X149039986Y-76839637D01*
X149040835Y-76838127D01*
X149197985Y-76601263D01*
X149201263Y-76597985D01*
X149438127Y-76440834D01*
X149446915Y-76439116D01*
X149454344Y-76444116D01*
G37*
%TD.AperFunction*%
%TD*%
%TA.AperFunction,Conductor*%
%TO.N,/STAT2_LED*%
G36*
X160160362Y-81339986D02*
G01*
X160161872Y-81340835D01*
X160398734Y-81497984D01*
X160402015Y-81501265D01*
X160559164Y-81738127D01*
X160560883Y-81746915D01*
X160555883Y-81754344D01*
X160554373Y-81755193D01*
X160057953Y-81987422D01*
X160049007Y-81987823D01*
X160044722Y-81985097D01*
X159914902Y-81855277D01*
X159911475Y-81847004D01*
X159912575Y-81842051D01*
X160144806Y-81345625D01*
X160151416Y-81339585D01*
X160160362Y-81339986D01*
G37*
%TD.AperFunction*%
%TD*%
%TA.AperFunction,Conductor*%
%TO.N,/STAT2_LED*%
G36*
X148960362Y-79889986D02*
G01*
X148961872Y-79890835D01*
X149198734Y-80047984D01*
X149202015Y-80051265D01*
X149359164Y-80288127D01*
X149360883Y-80296915D01*
X149355883Y-80304344D01*
X149354373Y-80305193D01*
X148857953Y-80537422D01*
X148849007Y-80537823D01*
X148844722Y-80535097D01*
X148714902Y-80405277D01*
X148711475Y-80397004D01*
X148712575Y-80392051D01*
X148944806Y-79895625D01*
X148951416Y-79889585D01*
X148960362Y-79889986D01*
G37*
%TD.AperFunction*%
%TD*%
%TA.AperFunction,Conductor*%
%TO.N,/ERROR_LED*%
G36*
X157360362Y-82489986D02*
G01*
X157361872Y-82490835D01*
X157598734Y-82647984D01*
X157602015Y-82651265D01*
X157759164Y-82888127D01*
X157760883Y-82896915D01*
X157755883Y-82904344D01*
X157754373Y-82905193D01*
X157257953Y-83137422D01*
X157249007Y-83137823D01*
X157244722Y-83135097D01*
X157114902Y-83005277D01*
X157111475Y-82997004D01*
X157112575Y-82992051D01*
X157344806Y-82495625D01*
X157351416Y-82489585D01*
X157360362Y-82489986D01*
G37*
%TD.AperFunction*%
%TD*%
%TA.AperFunction,Conductor*%
%TO.N,/ERROR_LED*%
G36*
X149271282Y-83360389D02*
G01*
X149786525Y-83547204D01*
X149793134Y-83553244D01*
X149794236Y-83558202D01*
X149794236Y-83741797D01*
X149790809Y-83750070D01*
X149786524Y-83752796D01*
X149271290Y-83939608D01*
X149262344Y-83939207D01*
X149256303Y-83932597D01*
X149255837Y-83930939D01*
X149199469Y-83652318D01*
X149199469Y-83647680D01*
X149255835Y-83369067D01*
X149260834Y-83361641D01*
X149269622Y-83359922D01*
X149271282Y-83360389D01*
G37*
%TD.AperFunction*%
%TD*%
%TA.AperFunction,Conductor*%
%TO.N,+GLV_PROT*%
G36*
X178537655Y-65610792D02*
G01*
X178543696Y-65617402D01*
X178544165Y-65619070D01*
X178600530Y-65897680D01*
X178600530Y-65902320D01*
X178544165Y-66180929D01*
X178539165Y-66188358D01*
X178530377Y-66190077D01*
X178528709Y-66189608D01*
X178013476Y-66002796D01*
X178006866Y-65996755D01*
X178005764Y-65991797D01*
X178005764Y-65808202D01*
X178009191Y-65799929D01*
X178013473Y-65797204D01*
X178528711Y-65610391D01*
X178537655Y-65610792D01*
G37*
%TD.AperFunction*%
%TD*%
%TA.AperFunction,Conductor*%
%TO.N,+GLV_PROT*%
G36*
X174905277Y-67414902D02*
G01*
X175035097Y-67544722D01*
X175038524Y-67552995D01*
X175037422Y-67557953D01*
X174805193Y-68054373D01*
X174798583Y-68060414D01*
X174789637Y-68060013D01*
X174788127Y-68059164D01*
X174551265Y-67902015D01*
X174547984Y-67898734D01*
X174390835Y-67661872D01*
X174389116Y-67653084D01*
X174394116Y-67645655D01*
X174395621Y-67644808D01*
X174892048Y-67412576D01*
X174900992Y-67412176D01*
X174905277Y-67414902D01*
G37*
%TD.AperFunction*%
%TD*%
%TA.AperFunction,Conductor*%
%TO.N,Net-(U1-SW)*%
G36*
X172771282Y-70110389D02*
G01*
X173286525Y-70297204D01*
X173293134Y-70303244D01*
X173294236Y-70308202D01*
X173294236Y-70491797D01*
X173290809Y-70500070D01*
X173286524Y-70502796D01*
X172771290Y-70689608D01*
X172762344Y-70689207D01*
X172756303Y-70682597D01*
X172755837Y-70680939D01*
X172699469Y-70402318D01*
X172699469Y-70397680D01*
X172755835Y-70119067D01*
X172760834Y-70111641D01*
X172769622Y-70109922D01*
X172771282Y-70110389D01*
G37*
%TD.AperFunction*%
%TD*%
%TA.AperFunction,Conductor*%
%TO.N,Net-(U1-SW)*%
G36*
X179337655Y-69510792D02*
G01*
X179343696Y-69517402D01*
X179344165Y-69519070D01*
X179400530Y-69797680D01*
X179400530Y-69802320D01*
X179344165Y-70080929D01*
X179339165Y-70088358D01*
X179330377Y-70090077D01*
X179328709Y-70089608D01*
X178813476Y-69902796D01*
X178806866Y-69896755D01*
X178805764Y-69891797D01*
X178805764Y-69708202D01*
X178809191Y-69699929D01*
X178813473Y-69697204D01*
X179328711Y-69510391D01*
X179337655Y-69510792D01*
G37*
%TD.AperFunction*%
%TD*%
M02*
