M48
; DRILL file {KiCad 9.0.4} date 2026-01-25T14:52:35+0000
; FORMAT={-:-/ absolute / metric / decimal}
; #@! TF.CreationDate,2026-01-25T14:52:35+00:00
; #@! TF.GenerationSoftware,Kicad,Pcbnew,9.0.4
; #@! TF.FileFunction,Plated,1,4,PTH
FMAT,2
METRIC
; #@! TA.AperFunction,Plated,PTH,ViaDrill
T1C0.300
; #@! TA.AperFunction,Plated,PTH,ComponentDrill
T2C0.700
; #@! TA.AperFunction,Plated,PTH,ComponentDrill
T3C1.000
; #@! TA.AperFunction,Plated,PTH,ComponentDrill
T4C2.200
; #@! TA.AperFunction,Plated,PTH,ComponentDrill
T5C2.250
%
G90
G05
T1
X145.9Y-70.2
X148.25Y-68.45
X149.2Y-76.6
X149.2Y-80.05
X149.2Y-83.65
X151.65Y-74.25
X152.4Y-82.9
X152.7Y-68.4
X152.7Y-71.95
X154.5Y-82.25
X155.8Y-69.3
X155.93Y-70.74
X156.0Y-72.45
X156.2Y-82.5
X156.81Y-86.24
X157.6Y-82.65
X158.25Y-67.15
X160.4Y-80.55
X160.4Y-81.5
X160.6Y-78.1
X160.6Y-88.84
X161.1Y-74.3
X161.22Y-82.41
X161.3Y-69.8
X161.69Y-70.98
X162.0Y-66.8
X162.2Y-76.75
X162.25Y-74.3
X162.7Y-87.4
X163.3Y-74.3
X164.0Y-76.1
X164.726Y-77.674
X166.1Y-74.7
X166.95Y-88.35
X167.11Y-87.32
X167.2Y-74.7
X167.6Y-82.0
X168.3Y-74.65
X169.04Y-73.42
X169.55Y-64.62
X170.41Y-71.61
X170.6Y-87.0
X170.8Y-73.9
X171.0Y-68.75
X171.7Y-80.3
X172.7Y-70.4
X172.85Y-81.15
X172.9Y-77.0
X174.4Y-84.55
X174.55Y-67.9
X174.74Y-87.98
X174.88Y-65.75
X175.1Y-74.0
X175.6Y-85.5
X176.07Y-74.8
X177.12Y-69.61
X178.6Y-65.9
X178.65Y-82.4
X179.4Y-69.8
X179.4Y-74.2
X179.7Y-71.6
X179.7Y-72.35
X179.7Y-73.1
X179.9Y-82.4
X181.15Y-82.4
X182.42Y-87.12
X183.1Y-84.15
X183.6Y-78.2
X183.72Y-73.45
X183.87Y-87.85
X185.89Y-73.42
X188.35Y-74.5
X189.1Y-81.4
X191.75Y-88.6
T2
X136.9Y-76.45
X136.9Y-78.45
X138.9Y-76.45
X138.9Y-78.45
X191.95Y-75.45
X191.95Y-77.45
X191.95Y-79.45
X193.95Y-75.45
X193.95Y-77.45
X193.95Y-79.45
T3
X163.627Y-69.512
X166.167Y-69.512
X168.707Y-69.512
T4
X133.85Y-66.8
X133.9Y-88.1
X196.95Y-66.8
X196.95Y-88.11
T5
X137.9Y-72.95
X137.9Y-81.95
X192.95Y-71.95
X192.95Y-82.95
M30
