%TF.GenerationSoftware,KiCad,Pcbnew,9.0.4*%
%TF.CreationDate,2026-01-24T18:49:14+00:00*%
%TF.ProjectId,rotary-switch,726f7461-7279-42d7-9377-697463682e6b,rev?*%
%TF.SameCoordinates,Original*%
%TF.FileFunction,Copper,L2,Bot*%
%TF.FilePolarity,Positive*%
%FSLAX46Y46*%
G04 Gerber Fmt 4.6, Leading zero omitted, Abs format (unit mm)*
G04 Created by KiCad (PCBNEW 9.0.4) date 2026-01-24 18:49:14*
%MOMM*%
%LPD*%
G01*
G04 APERTURE LIST*
G04 Aperture macros list*
%AMRoundRect*
0 Rectangle with rounded corners*
0 $1 Rounding radius*
0 $2 $3 $4 $5 $6 $7 $8 $9 X,Y pos of 4 corners*
0 Add a 4 corners polygon primitive as box body*
4,1,4,$2,$3,$4,$5,$6,$7,$8,$9,$2,$3,0*
0 Add four circle primitives for the rounded corners*
1,1,$1+$1,$2,$3*
1,1,$1+$1,$4,$5*
1,1,$1+$1,$6,$7*
1,1,$1+$1,$8,$9*
0 Add four rect primitives between the rounded corners*
20,1,$1+$1,$2,$3,$4,$5,0*
20,1,$1+$1,$4,$5,$6,$7,0*
20,1,$1+$1,$6,$7,$8,$9,0*
20,1,$1+$1,$8,$9,$2,$3,0*%
G04 Aperture macros list end*
%TA.AperFunction,Conductor*%
%ADD10C,0.400000*%
%TD*%
%TA.AperFunction,SMDPad,CuDef*%
%ADD11RoundRect,0.250000X-0.250000X-0.475000X0.250000X-0.475000X0.250000X0.475000X-0.250000X0.475000X0*%
%TD*%
%TA.AperFunction,SMDPad,CuDef*%
%ADD12RoundRect,0.250000X0.475000X-0.250000X0.475000X0.250000X-0.475000X0.250000X-0.475000X-0.250000X0*%
%TD*%
%TA.AperFunction,SMDPad,CuDef*%
%ADD13RoundRect,0.162500X-0.162500X0.617500X-0.162500X-0.617500X0.162500X-0.617500X0.162500X0.617500X0*%
%TD*%
%TA.AperFunction,ComponentPad*%
%ADD14C,5.600000*%
%TD*%
%TA.AperFunction,ComponentPad*%
%ADD15C,2.100000*%
%TD*%
%TA.AperFunction,SMDPad,CuDef*%
%ADD16RoundRect,0.225000X-0.225000X-0.375000X0.225000X-0.375000X0.225000X0.375000X-0.225000X0.375000X0*%
%TD*%
%TA.AperFunction,ComponentPad*%
%ADD17RoundRect,0.250001X-0.499999X-0.499999X0.499999X-0.499999X0.499999X0.499999X-0.499999X0.499999X0*%
%TD*%
%TA.AperFunction,ComponentPad*%
%ADD18C,1.500000*%
%TD*%
G04 APERTURE END LIST*
D10*
%TO.N,+3V3*%
X102101388Y-46550000D02*
G75*
G02*
X101700000Y-47300000I-1252774J188056D01*
G01*
X102101388Y-46550000D02*
X102101388Y-45200000D01*
X107484025Y-69743610D02*
G75*
G02*
X106500000Y-70200000I-734025J293610D01*
G01*
X106500002Y-70200000D02*
G75*
G02*
X101700000Y-47300000I4900148J12980163D01*
G01*
%TD*%
D11*
%TO.P,C3,1*%
%TO.N,+3V3*%
X102050000Y-45100000D03*
%TO.P,C3,2*%
%TO.N,GND*%
X103950000Y-45100000D03*
%TD*%
%TO.P,C2,1*%
%TO.N,Net-(D1-K)*%
X102050001Y-37900000D03*
%TO.P,C2,2*%
%TO.N,GND*%
X103949999Y-37900000D03*
%TD*%
D12*
%TO.P,C1,1*%
%TO.N,/Output*%
X118210000Y-38679999D03*
%TO.P,C1,2*%
%TO.N,GND*%
X118210000Y-36780001D03*
%TD*%
D13*
%TO.P,U1,1,IN*%
%TO.N,Net-(D1-K)*%
X102050000Y-40150000D03*
%TO.P,U1,2,NC*%
%TO.N,unconnected-(U1-NC-Pad2)*%
X103000000Y-40150000D03*
%TO.P,U1,3,GND*%
%TO.N,GND*%
X103950000Y-40150000D03*
%TO.P,U1,4,GND*%
X103950000Y-42850000D03*
%TO.P,U1,5,OUT*%
%TO.N,+3V3*%
X102050000Y-42850000D03*
%TD*%
D14*
%TO.P,H2,1,1*%
%TO.N,GND*%
X124917220Y-37257780D03*
%TD*%
D15*
%TO.P,SW1,1,1*%
%TO.N,+3V3*%
X108347000Y-67875000D03*
%TO.P,SW1,2,2*%
%TO.N,Net-(R1-Pad2)*%
X103416000Y-65028000D03*
%TO.P,SW1,3,3*%
%TO.N,Net-(R2-Pad2)*%
X100569000Y-60097000D03*
%TO.P,SW1,4,4*%
%TO.N,Net-(R3-Pad2)*%
X100569000Y-54403000D03*
%TO.P,SW1,5,5*%
%TO.N,Net-(R4-Pad2)*%
X103416000Y-49472000D03*
%TO.P,SW1,6,6*%
%TO.N,Net-(R5-Pad2)*%
X108347000Y-46625000D03*
%TO.P,SW1,7,7*%
%TO.N,Net-(R6-Pad2)*%
X114041000Y-46625000D03*
%TO.P,SW1,8,8*%
%TO.N,Net-(R7-Pad2)*%
X118972000Y-49472000D03*
%TO.P,SW1,9,9*%
%TO.N,Net-(R8-Pad2)*%
X121819000Y-54403000D03*
%TO.P,SW1,10,10*%
%TO.N,Net-(R10-Pad1)*%
X121819000Y-60097000D03*
%TO.P,SW1,11,11*%
%TO.N,Net-(R10-Pad2)*%
X118972000Y-65028000D03*
%TO.P,SW1,12,12*%
%TO.N,GND*%
X114041000Y-67875000D03*
%TO.P,SW1,13,13*%
%TO.N,/Output*%
X108366000Y-60078000D03*
%TD*%
D14*
%TO.P,H4,1,1*%
%TO.N,GND*%
X124892220Y-70632780D03*
%TD*%
%TO.P,H1,1,1*%
%TO.N,GND*%
X97517220Y-37257780D03*
%TD*%
%TO.P,H3,1,1*%
%TO.N,GND*%
X97517220Y-70632780D03*
%TD*%
D16*
%TO.P,D1,1,K*%
%TO.N,Net-(D1-K)*%
X101349996Y-35300003D03*
%TO.P,D1,2,A*%
%TO.N,+GLV*%
X104650004Y-35299997D03*
%TD*%
D17*
%TO.P,J1,1,Pin_1*%
%TO.N,+GLV*%
X109693997Y-38670000D03*
D18*
%TO.P,J1,2,Pin_2*%
%TO.N,/Output*%
X112694003Y-38670010D03*
%TO.P,J1,3,Pin_3*%
%TO.N,unconnected-(J1-Pin_3-Pad3)*%
X109694007Y-35669994D03*
%TO.P,J1,4,Pin_4*%
%TO.N,GND*%
X112694001Y-35670002D03*
%TD*%
D10*
%TO.N,/Output*%
X118210000Y-38679999D02*
X112694003Y-38670010D01*
X118210000Y-38679999D02*
X118210000Y-45340000D01*
X118210000Y-45340000D02*
X117900000Y-45800000D01*
X117900000Y-45800000D02*
X108366000Y-60078000D01*
%TO.N,+GLV*%
X108020007Y-38670000D02*
X109693997Y-38670000D01*
X104650004Y-35299997D02*
X108020007Y-38670000D01*
%TO.N,Net-(D1-K)*%
X102050001Y-36000008D02*
X101349996Y-35300003D01*
X102050001Y-37900000D02*
X102050001Y-36000008D01*
X102050000Y-40150000D02*
X102050001Y-37900000D01*
%TO.N,+3V3*%
X102050000Y-45100000D02*
X102050000Y-42850000D01*
X107484025Y-69743610D02*
X108347000Y-67875000D01*
%TD*%
%TA.AperFunction,Conductor*%
%TO.N,GND*%
G36*
X124920250Y-33458428D02*
G01*
X125283552Y-33476278D01*
X125295660Y-33477471D01*
X125652436Y-33530395D01*
X125664372Y-33532769D01*
X126014264Y-33620413D01*
X126025877Y-33623937D01*
X126365495Y-33745455D01*
X126376723Y-33750107D01*
X126702784Y-33904324D01*
X126713513Y-33910058D01*
X126957095Y-34056056D01*
X127022874Y-34095482D01*
X127032989Y-34102240D01*
X127177820Y-34209654D01*
X127322703Y-34317107D01*
X127332109Y-34324827D01*
X127599359Y-34567049D01*
X127607950Y-34575640D01*
X127698937Y-34676028D01*
X127850172Y-34842890D01*
X127857892Y-34852296D01*
X128072757Y-35142007D01*
X128079517Y-35152125D01*
X128264939Y-35461483D01*
X128270675Y-35472215D01*
X128424892Y-35798276D01*
X128429547Y-35809514D01*
X128506133Y-36023555D01*
X128551057Y-36149106D01*
X128554590Y-36160751D01*
X128642230Y-36510628D01*
X128644604Y-36522563D01*
X128697528Y-36879339D01*
X128698721Y-36891449D01*
X128716569Y-37254716D01*
X128716718Y-37260859D01*
X128701193Y-70568129D01*
X128701189Y-70576218D01*
X128701161Y-70576326D01*
X128701161Y-70639114D01*
X128701161Y-70639210D01*
X128701159Y-70639215D01*
X128701012Y-70645239D01*
X128683162Y-71008548D01*
X128681969Y-71020658D01*
X128629044Y-71377432D01*
X128626670Y-71389367D01*
X128539030Y-71739241D01*
X128535497Y-71750886D01*
X128413988Y-72090475D01*
X128409331Y-72101718D01*
X128255118Y-72427768D01*
X128249382Y-72438499D01*
X128063953Y-72747864D01*
X128057192Y-72757982D01*
X127842337Y-73047677D01*
X127834617Y-73057084D01*
X127592397Y-73324329D01*
X127583800Y-73332926D01*
X127325141Y-73567359D01*
X127316544Y-73575151D01*
X127307137Y-73582870D01*
X127017440Y-73797720D01*
X127007322Y-73804481D01*
X126697950Y-73989908D01*
X126687218Y-73995644D01*
X126361170Y-74149850D01*
X126349927Y-74154507D01*
X126010327Y-74276015D01*
X125998683Y-74279547D01*
X125648817Y-74367181D01*
X125636881Y-74369555D01*
X125280108Y-74422474D01*
X125267998Y-74423667D01*
X124903483Y-74441571D01*
X124897402Y-74441720D01*
X124865824Y-74441720D01*
X124835773Y-74441720D01*
X124835769Y-74441720D01*
X124828165Y-74441721D01*
X124828164Y-74441720D01*
X124828163Y-74441721D01*
X97485833Y-74441721D01*
X97479748Y-74441572D01*
X97116448Y-74423722D01*
X97104338Y-74422529D01*
X96747563Y-74369605D01*
X96735628Y-74367231D01*
X96385750Y-74279591D01*
X96374108Y-74276059D01*
X96034515Y-74154548D01*
X96023280Y-74149895D01*
X95860245Y-74072785D01*
X95697214Y-73995677D01*
X95686482Y-73989940D01*
X95377124Y-73804518D01*
X95367006Y-73797758D01*
X95077296Y-73582893D01*
X95067890Y-73575173D01*
X95025264Y-73536539D01*
X94800638Y-73332950D01*
X94792049Y-73324361D01*
X94549826Y-73057109D01*
X94542106Y-73047703D01*
X94327241Y-72757993D01*
X94320481Y-72747875D01*
X94320474Y-72747864D01*
X94135057Y-72438514D01*
X94129322Y-72427785D01*
X94129314Y-72427768D01*
X93975099Y-72101709D01*
X93970454Y-72090495D01*
X93848936Y-71750878D01*
X93845412Y-71739265D01*
X93757767Y-71389367D01*
X93755394Y-71377436D01*
X93702470Y-71020661D01*
X93701277Y-71008551D01*
X93696592Y-70913186D01*
X93683430Y-70645318D01*
X93683282Y-70639114D01*
X93683506Y-70422309D01*
X93697114Y-57231925D01*
X96820529Y-57231925D01*
X96820529Y-57231937D01*
X96820529Y-57231951D01*
X96840440Y-57981629D01*
X96840441Y-57981649D01*
X96898877Y-58729338D01*
X96898878Y-58729346D01*
X96898879Y-58729358D01*
X96898880Y-58729363D01*
X96922960Y-58914345D01*
X96995691Y-59473074D01*
X96995693Y-59473087D01*
X97130620Y-60210829D01*
X97130622Y-60210836D01*
X97303307Y-60940664D01*
X97303311Y-60940679D01*
X97513297Y-61660654D01*
X97513297Y-61660656D01*
X97760033Y-62368888D01*
X97760040Y-62368907D01*
X97998483Y-62954506D01*
X98042879Y-63063540D01*
X98236818Y-63477500D01*
X98361051Y-63742676D01*
X98713733Y-64404569D01*
X99099986Y-65047449D01*
X99099995Y-65047462D01*
X99099996Y-65047464D01*
X99518783Y-65669611D01*
X99707819Y-65921443D01*
X99969029Y-66269424D01*
X100449519Y-66845284D01*
X100958987Y-67395674D01*
X101450798Y-67875001D01*
X101496082Y-67919136D01*
X101496084Y-67919138D01*
X101584655Y-67996993D01*
X101953514Y-68321224D01*
X102059393Y-68414292D01*
X102647409Y-68879816D01*
X102647414Y-68879819D01*
X102772251Y-68968603D01*
X103258594Y-69314490D01*
X103891321Y-69717159D01*
X104543918Y-70086758D01*
X105214658Y-70422309D01*
X105901766Y-70722924D01*
X106191748Y-70832385D01*
X106203606Y-70839593D01*
X106265473Y-70860216D01*
X106267745Y-70861074D01*
X106326433Y-70883229D01*
X106326434Y-70883229D01*
X106326439Y-70883231D01*
X106329118Y-70883599D01*
X106351346Y-70888775D01*
X106363644Y-70892863D01*
X106385641Y-70900177D01*
X106385644Y-70900177D01*
X106385652Y-70900180D01*
X106608247Y-70938516D01*
X106834078Y-70942884D01*
X107057989Y-70913187D01*
X107274873Y-70850100D01*
X107479780Y-70755065D01*
X107668033Y-70630249D01*
X107835338Y-70478501D01*
X107977876Y-70303283D01*
X108092396Y-70108594D01*
X108126333Y-70023944D01*
X108128849Y-70018107D01*
X108369576Y-69496857D01*
X108415554Y-69444251D01*
X108464473Y-69427892D01*
X108464215Y-69426262D01*
X108469026Y-69425500D01*
X108469027Y-69425500D01*
X108710076Y-69387321D01*
X108942185Y-69311904D01*
X109159639Y-69201106D01*
X109357083Y-69057655D01*
X109529655Y-68885083D01*
X109673106Y-68687639D01*
X109783904Y-68470185D01*
X109859321Y-68238076D01*
X109897500Y-67997027D01*
X109897500Y-67753006D01*
X112491000Y-67753006D01*
X112491000Y-67996993D01*
X112529165Y-68237959D01*
X112604560Y-68469998D01*
X112715323Y-68687380D01*
X112782543Y-68779901D01*
X112782544Y-68779902D01*
X113401690Y-68160756D01*
X113420668Y-68206574D01*
X113497274Y-68321224D01*
X113594776Y-68418726D01*
X113709426Y-68495332D01*
X113755242Y-68514309D01*
X113136096Y-69133454D01*
X113136097Y-69133456D01*
X113228619Y-69200676D01*
X113446001Y-69311439D01*
X113678040Y-69386834D01*
X113919007Y-69425000D01*
X114162993Y-69425000D01*
X114403959Y-69386834D01*
X114635998Y-69311439D01*
X114853377Y-69200678D01*
X114945901Y-69133454D01*
X114945902Y-69133454D01*
X114326757Y-68514309D01*
X114372574Y-68495332D01*
X114487224Y-68418726D01*
X114584726Y-68321224D01*
X114661332Y-68206574D01*
X114680309Y-68160757D01*
X115299454Y-68779902D01*
X115299454Y-68779901D01*
X115366678Y-68687377D01*
X115477439Y-68469998D01*
X115552834Y-68237959D01*
X115591000Y-67996993D01*
X115591000Y-67753006D01*
X115552834Y-67512040D01*
X115477439Y-67280001D01*
X115366676Y-67062619D01*
X115299456Y-66970097D01*
X115299454Y-66970096D01*
X114680309Y-67589241D01*
X114661332Y-67543426D01*
X114584726Y-67428776D01*
X114487224Y-67331274D01*
X114372574Y-67254668D01*
X114326756Y-67235689D01*
X114945902Y-66616544D01*
X114945901Y-66616543D01*
X114853380Y-66549323D01*
X114635998Y-66438560D01*
X114403959Y-66363165D01*
X114162993Y-66325000D01*
X113919007Y-66325000D01*
X113678040Y-66363165D01*
X113446001Y-66438560D01*
X113228626Y-66549319D01*
X113136097Y-66616544D01*
X113755243Y-67235689D01*
X113709426Y-67254668D01*
X113594776Y-67331274D01*
X113497274Y-67428776D01*
X113420668Y-67543426D01*
X113401690Y-67589243D01*
X112782544Y-66970097D01*
X112715319Y-67062626D01*
X112604560Y-67280001D01*
X112529165Y-67512040D01*
X112491000Y-67753006D01*
X109897500Y-67753006D01*
X109897500Y-67752973D01*
X109859321Y-67511924D01*
X109783904Y-67279815D01*
X109673106Y-67062361D01*
X109654779Y-67037136D01*
X109529660Y-66864923D01*
X109529656Y-66864918D01*
X109357081Y-66692343D01*
X109357076Y-66692339D01*
X109159642Y-66548896D01*
X109159641Y-66548895D01*
X109159639Y-66548894D01*
X108942185Y-66438096D01*
X108710076Y-66362679D01*
X108710074Y-66362678D01*
X108710072Y-66362678D01*
X108541769Y-66336021D01*
X108469027Y-66324500D01*
X108224973Y-66324500D01*
X108169093Y-66333350D01*
X107983927Y-66362678D01*
X107751812Y-66438097D01*
X107534357Y-66548896D01*
X107336923Y-66692339D01*
X107336918Y-66692343D01*
X107164343Y-66864918D01*
X107164339Y-66864923D01*
X107020896Y-67062357D01*
X106910097Y-67279812D01*
X106834678Y-67511927D01*
X106796500Y-67752973D01*
X106796500Y-67997026D01*
X106833170Y-68228553D01*
X106834679Y-68238076D01*
X106910096Y-68470185D01*
X107020762Y-68687380D01*
X107020896Y-68687642D01*
X107087706Y-68779599D01*
X107111186Y-68845405D01*
X107099963Y-68904474D01*
X106877913Y-69385284D01*
X106877419Y-69386340D01*
X106873089Y-69395487D01*
X106862940Y-69410169D01*
X106845462Y-69453859D01*
X106843824Y-69457323D01*
X106823021Y-69480679D01*
X106803697Y-69505265D01*
X106799974Y-69506554D01*
X106797353Y-69509498D01*
X106767224Y-69517899D01*
X106737676Y-69528135D01*
X106733246Y-69527374D01*
X106730051Y-69528265D01*
X106719521Y-69525016D01*
X106684820Y-69519056D01*
X106089347Y-69275618D01*
X106083194Y-69272906D01*
X105443703Y-68970038D01*
X105437707Y-68966996D01*
X105276809Y-68879819D01*
X104815590Y-68629922D01*
X104809769Y-68626561D01*
X104206847Y-68256269D01*
X104201215Y-68252597D01*
X103619214Y-67850148D01*
X103613790Y-67846175D01*
X103493507Y-67752973D01*
X103223075Y-67543426D01*
X103054483Y-67412791D01*
X103049293Y-67408540D01*
X102514274Y-66945457D01*
X102509332Y-66940939D01*
X102000212Y-66449550D01*
X101995503Y-66444752D01*
X101513763Y-65926490D01*
X101509321Y-65921443D01*
X101056389Y-65377843D01*
X101052251Y-65372595D01*
X100704513Y-64905973D01*
X101865500Y-64905973D01*
X101865500Y-65150026D01*
X101903678Y-65391072D01*
X101979097Y-65623187D01*
X102089896Y-65840642D01*
X102233339Y-66038076D01*
X102233343Y-66038081D01*
X102405918Y-66210656D01*
X102405923Y-66210660D01*
X102486807Y-66269425D01*
X102603361Y-66354106D01*
X102820815Y-66464904D01*
X103052924Y-66540321D01*
X103293973Y-66578500D01*
X103293974Y-66578500D01*
X103538026Y-66578500D01*
X103538027Y-66578500D01*
X103779076Y-66540321D01*
X104011185Y-66464904D01*
X104228639Y-66354106D01*
X104426083Y-66210655D01*
X104598655Y-66038083D01*
X104742106Y-65840639D01*
X104852904Y-65623185D01*
X104928321Y-65391076D01*
X104966500Y-65150027D01*
X104966500Y-64905973D01*
X117421500Y-64905973D01*
X117421500Y-65150026D01*
X117459678Y-65391072D01*
X117535097Y-65623187D01*
X117645896Y-65840642D01*
X117789339Y-66038076D01*
X117789343Y-66038081D01*
X117961918Y-66210656D01*
X117961923Y-66210660D01*
X118042807Y-66269425D01*
X118159361Y-66354106D01*
X118376815Y-66464904D01*
X118608924Y-66540321D01*
X118849973Y-66578500D01*
X118849974Y-66578500D01*
X119094026Y-66578500D01*
X119094027Y-66578500D01*
X119335076Y-66540321D01*
X119567185Y-66464904D01*
X119784639Y-66354106D01*
X119982083Y-66210655D01*
X120154655Y-66038083D01*
X120298106Y-65840639D01*
X120408904Y-65623185D01*
X120484321Y-65391076D01*
X120522500Y-65150027D01*
X120522500Y-64905973D01*
X120484321Y-64664924D01*
X120408904Y-64432815D01*
X120298106Y-64215361D01*
X120279779Y-64190136D01*
X120154660Y-64017923D01*
X120154656Y-64017918D01*
X119982081Y-63845343D01*
X119982076Y-63845339D01*
X119784642Y-63701896D01*
X119784641Y-63701895D01*
X119784639Y-63701894D01*
X119567185Y-63591096D01*
X119335076Y-63515679D01*
X119335074Y-63515678D01*
X119335072Y-63515678D01*
X119166769Y-63489021D01*
X119094027Y-63477500D01*
X118849973Y-63477500D01*
X118794093Y-63486350D01*
X118608927Y-63515678D01*
X118376812Y-63591097D01*
X118159357Y-63701896D01*
X117961923Y-63845339D01*
X117961918Y-63845343D01*
X117789343Y-64017918D01*
X117789339Y-64017923D01*
X117645896Y-64215357D01*
X117535097Y-64432812D01*
X117459678Y-64664927D01*
X117421500Y-64905973D01*
X104966500Y-64905973D01*
X104928321Y-64664924D01*
X104852904Y-64432815D01*
X104742106Y-64215361D01*
X104723779Y-64190136D01*
X104598660Y-64017923D01*
X104598656Y-64017918D01*
X104426081Y-63845343D01*
X104426076Y-63845339D01*
X104228642Y-63701896D01*
X104228641Y-63701895D01*
X104228639Y-63701894D01*
X104011185Y-63591096D01*
X103779076Y-63515679D01*
X103779074Y-63515678D01*
X103779072Y-63515678D01*
X103610769Y-63489021D01*
X103538027Y-63477500D01*
X103293973Y-63477500D01*
X103238093Y-63486350D01*
X103052927Y-63515678D01*
X102820812Y-63591097D01*
X102603357Y-63701896D01*
X102405923Y-63845339D01*
X102405918Y-63845343D01*
X102233343Y-64017918D01*
X102233339Y-64017923D01*
X102089896Y-64215357D01*
X101979097Y-64432812D01*
X101903678Y-64664927D01*
X101865500Y-64905973D01*
X100704513Y-64905973D01*
X100629423Y-64805211D01*
X100625553Y-64799713D01*
X100536044Y-64664927D01*
X100234118Y-64210272D01*
X100230558Y-64204583D01*
X100120693Y-64017923D01*
X99871636Y-63594775D01*
X99868390Y-63588900D01*
X99830479Y-63515679D01*
X99543061Y-62960558D01*
X99540133Y-62954506D01*
X99249339Y-62309457D01*
X99246743Y-62303255D01*
X98991339Y-61643392D01*
X98989083Y-61637059D01*
X98816348Y-61107081D01*
X98769813Y-60964305D01*
X98767905Y-60957860D01*
X98763315Y-60940664D01*
X98585428Y-60274231D01*
X98583874Y-60267706D01*
X98573670Y-60219026D01*
X98522515Y-59974973D01*
X99018500Y-59974973D01*
X99018500Y-60219026D01*
X99053669Y-60441076D01*
X99056679Y-60460076D01*
X99125923Y-60673187D01*
X99132097Y-60692187D01*
X99242896Y-60909642D01*
X99386339Y-61107076D01*
X99386343Y-61107081D01*
X99558918Y-61279656D01*
X99558923Y-61279660D01*
X99730206Y-61404103D01*
X99756361Y-61423106D01*
X99973815Y-61533904D01*
X100205924Y-61609321D01*
X100446973Y-61647500D01*
X100446974Y-61647500D01*
X100691026Y-61647500D01*
X100691027Y-61647500D01*
X100932076Y-61609321D01*
X101164185Y-61533904D01*
X101381639Y-61423106D01*
X101579083Y-61279655D01*
X101751655Y-61107083D01*
X101895106Y-60909639D01*
X102005904Y-60692185D01*
X102081321Y-60460076D01*
X102119500Y-60219027D01*
X102119500Y-59974973D01*
X102116491Y-59955973D01*
X106815500Y-59955973D01*
X106815500Y-60200027D01*
X106853679Y-60441076D01*
X106859852Y-60460076D01*
X106929097Y-60673187D01*
X107039896Y-60890642D01*
X107183339Y-61088076D01*
X107183343Y-61088081D01*
X107355918Y-61260656D01*
X107355923Y-61260660D01*
X107528136Y-61385779D01*
X107553361Y-61404106D01*
X107770815Y-61514904D01*
X108002924Y-61590321D01*
X108243973Y-61628500D01*
X108243974Y-61628500D01*
X108488026Y-61628500D01*
X108488027Y-61628500D01*
X108729076Y-61590321D01*
X108961185Y-61514904D01*
X109178639Y-61404106D01*
X109376083Y-61260655D01*
X109548655Y-61088083D01*
X109692106Y-60890639D01*
X109802904Y-60673185D01*
X109878321Y-60441076D01*
X109916500Y-60200027D01*
X109916500Y-59974973D01*
X120268500Y-59974973D01*
X120268500Y-60219026D01*
X120303669Y-60441076D01*
X120306679Y-60460076D01*
X120375923Y-60673187D01*
X120382097Y-60692187D01*
X120492896Y-60909642D01*
X120636339Y-61107076D01*
X120636343Y-61107081D01*
X120808918Y-61279656D01*
X120808923Y-61279660D01*
X120980206Y-61404103D01*
X121006361Y-61423106D01*
X121223815Y-61533904D01*
X121455924Y-61609321D01*
X121696973Y-61647500D01*
X121696974Y-61647500D01*
X121941026Y-61647500D01*
X121941027Y-61647500D01*
X122182076Y-61609321D01*
X122414185Y-61533904D01*
X122631639Y-61423106D01*
X122829083Y-61279655D01*
X123001655Y-61107083D01*
X123145106Y-60909639D01*
X123255904Y-60692185D01*
X123331321Y-60460076D01*
X123369500Y-60219027D01*
X123369500Y-59974973D01*
X123331321Y-59733924D01*
X123255904Y-59501815D01*
X123145106Y-59284361D01*
X123123716Y-59254920D01*
X123001660Y-59086923D01*
X123001656Y-59086918D01*
X122829081Y-58914343D01*
X122829076Y-58914339D01*
X122631642Y-58770896D01*
X122631641Y-58770895D01*
X122631639Y-58770894D01*
X122414185Y-58660096D01*
X122182076Y-58584679D01*
X122182074Y-58584678D01*
X122182072Y-58584678D01*
X122013769Y-58558021D01*
X121941027Y-58546500D01*
X121696973Y-58546500D01*
X121641093Y-58555350D01*
X121455927Y-58584678D01*
X121223812Y-58660097D01*
X121006357Y-58770896D01*
X120808923Y-58914339D01*
X120808918Y-58914343D01*
X120636343Y-59086918D01*
X120636339Y-59086923D01*
X120492896Y-59284357D01*
X120382097Y-59501812D01*
X120306678Y-59733927D01*
X120268500Y-59974973D01*
X109916500Y-59974973D01*
X109916500Y-59955973D01*
X109878321Y-59714924D01*
X109802904Y-59482815D01*
X109750554Y-59380073D01*
X109737659Y-59311405D01*
X109757916Y-59254921D01*
X113079223Y-54280973D01*
X120268500Y-54280973D01*
X120268500Y-54525027D01*
X120306679Y-54766076D01*
X120379597Y-54990495D01*
X120382097Y-54998187D01*
X120492896Y-55215642D01*
X120636339Y-55413076D01*
X120636343Y-55413081D01*
X120808918Y-55585656D01*
X120808923Y-55585660D01*
X120981136Y-55710779D01*
X121006361Y-55729106D01*
X121223815Y-55839904D01*
X121455924Y-55915321D01*
X121696973Y-55953500D01*
X121696974Y-55953500D01*
X121941026Y-55953500D01*
X121941027Y-55953500D01*
X122182076Y-55915321D01*
X122414185Y-55839904D01*
X122631639Y-55729106D01*
X122829083Y-55585655D01*
X123001655Y-55413083D01*
X123145106Y-55215639D01*
X123255904Y-54998185D01*
X123331321Y-54766076D01*
X123369500Y-54525027D01*
X123369500Y-54280973D01*
X123331321Y-54039924D01*
X123255904Y-53807815D01*
X123145106Y-53590361D01*
X123095718Y-53522384D01*
X123001660Y-53392923D01*
X123001656Y-53392918D01*
X122829081Y-53220343D01*
X122829076Y-53220339D01*
X122631642Y-53076896D01*
X122631641Y-53076895D01*
X122631639Y-53076894D01*
X122414185Y-52966096D01*
X122182076Y-52890679D01*
X122182074Y-52890678D01*
X122182072Y-52890678D01*
X122013769Y-52864021D01*
X121941027Y-52852500D01*
X121696973Y-52852500D01*
X121641093Y-52861350D01*
X121455927Y-52890678D01*
X121223812Y-52966097D01*
X121006357Y-53076896D01*
X120808923Y-53220339D01*
X120808918Y-53220343D01*
X120636343Y-53392918D01*
X120636339Y-53392923D01*
X120492896Y-53590357D01*
X120382097Y-53807812D01*
X120306678Y-54039927D01*
X120280178Y-54207242D01*
X120268500Y-54280973D01*
X113079223Y-54280973D01*
X116371852Y-49349973D01*
X117421500Y-49349973D01*
X117421500Y-49594027D01*
X117459679Y-49835076D01*
X117531511Y-50056153D01*
X117535097Y-50067187D01*
X117645896Y-50284642D01*
X117789339Y-50482076D01*
X117789343Y-50482081D01*
X117961918Y-50654656D01*
X117961923Y-50654660D01*
X118134136Y-50779779D01*
X118159361Y-50798106D01*
X118376815Y-50908904D01*
X118608924Y-50984321D01*
X118849973Y-51022500D01*
X118849974Y-51022500D01*
X119094026Y-51022500D01*
X119094027Y-51022500D01*
X119335076Y-50984321D01*
X119567185Y-50908904D01*
X119784639Y-50798106D01*
X119982083Y-50654655D01*
X120154655Y-50482083D01*
X120298106Y-50284639D01*
X120408904Y-50067185D01*
X120484321Y-49835076D01*
X120522500Y-49594027D01*
X120522500Y-49349973D01*
X120484321Y-49108924D01*
X120408904Y-48876815D01*
X120298106Y-48659361D01*
X120279779Y-48634136D01*
X120154660Y-48461923D01*
X120154656Y-48461918D01*
X119982081Y-48289343D01*
X119982076Y-48289339D01*
X119784642Y-48145896D01*
X119784641Y-48145895D01*
X119784639Y-48145894D01*
X119567185Y-48035096D01*
X119335076Y-47959679D01*
X119335074Y-47959678D01*
X119335072Y-47959678D01*
X119166769Y-47933021D01*
X119094027Y-47921500D01*
X118849973Y-47921500D01*
X118794093Y-47930350D01*
X118608927Y-47959678D01*
X118376812Y-48035097D01*
X118159357Y-48145896D01*
X117961923Y-48289339D01*
X117961918Y-48289343D01*
X117789343Y-48461918D01*
X117789339Y-48461923D01*
X117645896Y-48659357D01*
X117535097Y-48876812D01*
X117459678Y-49108927D01*
X117434329Y-49268974D01*
X117421500Y-49349973D01*
X116371852Y-49349973D01*
X118481823Y-46190107D01*
X118753125Y-45787530D01*
X118754114Y-45786542D01*
X118791679Y-45730321D01*
X118829458Y-45674263D01*
X118829460Y-45674257D01*
X118829485Y-45674221D01*
X118830053Y-45673160D01*
X118830063Y-45673142D01*
X118830769Y-45671819D01*
X118830775Y-45671811D01*
X118856641Y-45609364D01*
X118882767Y-45546990D01*
X118882770Y-45546973D01*
X118883150Y-45545740D01*
X118883224Y-45545498D01*
X118883572Y-45544363D01*
X118883578Y-45544332D01*
X118883580Y-45544328D01*
X118891013Y-45506957D01*
X118896754Y-45478099D01*
X118896754Y-45478095D01*
X118910222Y-45411763D01*
X118910226Y-45410372D01*
X118910500Y-45409000D01*
X118910500Y-45341377D01*
X118910767Y-45273778D01*
X118910500Y-45272407D01*
X118910500Y-39735447D01*
X118930185Y-39668408D01*
X118982989Y-39622653D01*
X118995488Y-39617743D01*
X119004334Y-39614813D01*
X119153656Y-39522711D01*
X119277712Y-39398655D01*
X119369814Y-39249333D01*
X119424999Y-39082796D01*
X119435500Y-38980008D01*
X119435499Y-38379991D01*
X119424999Y-38277202D01*
X119369814Y-38110665D01*
X119277712Y-37961343D01*
X119153656Y-37837287D01*
X119150347Y-37835246D01*
X119148554Y-37833252D01*
X119147989Y-37832806D01*
X119148065Y-37832709D01*
X119103621Y-37783300D01*
X119092397Y-37714338D01*
X119120239Y-37650255D01*
X119150352Y-37624163D01*
X119153344Y-37622317D01*
X119277315Y-37498346D01*
X119369356Y-37349125D01*
X119369358Y-37349120D01*
X119424505Y-37182698D01*
X119424506Y-37182691D01*
X119434999Y-37079987D01*
X119435000Y-37079974D01*
X119435000Y-37030001D01*
X116985001Y-37030001D01*
X116985001Y-37079987D01*
X116995494Y-37182698D01*
X117050641Y-37349120D01*
X117050643Y-37349125D01*
X117142684Y-37498346D01*
X117266655Y-37622317D01*
X117266659Y-37622320D01*
X117269656Y-37624169D01*
X117271278Y-37625973D01*
X117272323Y-37626799D01*
X117272181Y-37626977D01*
X117316380Y-37676118D01*
X117327600Y-37745081D01*
X117299755Y-37809162D01*
X117290140Y-37819436D01*
X117280722Y-37828418D01*
X117266344Y-37837287D01*
X117161491Y-37942139D01*
X117160410Y-37943171D01*
X117130612Y-37958538D01*
X117101185Y-37974607D01*
X117099006Y-37974839D01*
X117098313Y-37975197D01*
X117096907Y-37975063D01*
X117074602Y-37977441D01*
X113795166Y-37971502D01*
X113728163Y-37951696D01*
X113695073Y-37920387D01*
X113647833Y-37855367D01*
X113647828Y-37855361D01*
X113508651Y-37716184D01*
X113508649Y-37716182D01*
X113349408Y-37600486D01*
X113174032Y-37511127D01*
X112986829Y-37450300D01*
X112792425Y-37419510D01*
X112792420Y-37419510D01*
X112595586Y-37419510D01*
X112595581Y-37419510D01*
X112401176Y-37450300D01*
X112213973Y-37511127D01*
X112038597Y-37600486D01*
X112006001Y-37624169D01*
X111879357Y-37716182D01*
X111879355Y-37716184D01*
X111879354Y-37716184D01*
X111740177Y-37855361D01*
X111740177Y-37855362D01*
X111740175Y-37855364D01*
X111740173Y-37855367D01*
X111624479Y-38014604D01*
X111535120Y-38189980D01*
X111474293Y-38377183D01*
X111443503Y-38571587D01*
X111443503Y-38768432D01*
X111474293Y-38962836D01*
X111535120Y-39150039D01*
X111590332Y-39258398D01*
X111624479Y-39325415D01*
X111740175Y-39484656D01*
X111879357Y-39623838D01*
X112038598Y-39739534D01*
X112084084Y-39762710D01*
X112213973Y-39828892D01*
X112213975Y-39828892D01*
X112213978Y-39828894D01*
X112293745Y-39854812D01*
X112401176Y-39889719D01*
X112595581Y-39920510D01*
X112595586Y-39920510D01*
X112792425Y-39920510D01*
X112986829Y-39889719D01*
X113174028Y-39828894D01*
X113349408Y-39739534D01*
X113508649Y-39623838D01*
X113647831Y-39484656D01*
X113692180Y-39423613D01*
X113747508Y-39380949D01*
X113792718Y-39372500D01*
X117070932Y-39378437D01*
X117137935Y-39398243D01*
X117158388Y-39414755D01*
X117266344Y-39522711D01*
X117415666Y-39614813D01*
X117424498Y-39617739D01*
X117481944Y-39657507D01*
X117508771Y-39722021D01*
X117509500Y-39735447D01*
X117509500Y-45088109D01*
X117504104Y-45106483D01*
X117503687Y-45125630D01*
X117490425Y-45153069D01*
X117489815Y-45155148D01*
X117488329Y-45157407D01*
X117360939Y-45346436D01*
X117357151Y-45351525D01*
X117318359Y-45409617D01*
X117318069Y-45410049D01*
X117279136Y-45467822D01*
X117275860Y-45473263D01*
X108595837Y-58472359D01*
X108542238Y-58517181D01*
X108492714Y-58527500D01*
X108488027Y-58527500D01*
X108243973Y-58527500D01*
X108188093Y-58536350D01*
X108002927Y-58565678D01*
X107770812Y-58641097D01*
X107553357Y-58751896D01*
X107355923Y-58895339D01*
X107355918Y-58895343D01*
X107183343Y-59067918D01*
X107183339Y-59067923D01*
X107039896Y-59265357D01*
X106929097Y-59482812D01*
X106929096Y-59482814D01*
X106929096Y-59482815D01*
X106922923Y-59501815D01*
X106853678Y-59714927D01*
X106850669Y-59733927D01*
X106815500Y-59955973D01*
X102116491Y-59955973D01*
X102081321Y-59733924D01*
X102005904Y-59501815D01*
X101895106Y-59284361D01*
X101873716Y-59254920D01*
X101751660Y-59086923D01*
X101751656Y-59086918D01*
X101579081Y-58914343D01*
X101579076Y-58914339D01*
X101381642Y-58770896D01*
X101381641Y-58770895D01*
X101381639Y-58770894D01*
X101164185Y-58660096D01*
X100932076Y-58584679D01*
X100932074Y-58584678D01*
X100932072Y-58584678D01*
X100763769Y-58558021D01*
X100691027Y-58546500D01*
X100446973Y-58546500D01*
X100391093Y-58555350D01*
X100205927Y-58584678D01*
X99973812Y-58660097D01*
X99756357Y-58770896D01*
X99558923Y-58914339D01*
X99558918Y-58914343D01*
X99386343Y-59086918D01*
X99386339Y-59086923D01*
X99242896Y-59284357D01*
X99132097Y-59501812D01*
X99056678Y-59733927D01*
X99018500Y-59974973D01*
X98522515Y-59974973D01*
X98438708Y-59575141D01*
X98437516Y-59568573D01*
X98330104Y-58869180D01*
X98329265Y-58862516D01*
X98320242Y-58770894D01*
X98259920Y-58158345D01*
X98259444Y-58151643D01*
X98251970Y-57981629D01*
X98228367Y-57444736D01*
X98228255Y-57438059D01*
X98235540Y-56730501D01*
X98235791Y-56723795D01*
X98251403Y-56482167D01*
X98281416Y-56017657D01*
X98282024Y-56011038D01*
X98365856Y-55308401D01*
X98366832Y-55301760D01*
X98381879Y-55215642D01*
X98488623Y-54604711D01*
X98489949Y-54598172D01*
X98563285Y-54280973D01*
X99018500Y-54280973D01*
X99018500Y-54525027D01*
X99056679Y-54766076D01*
X99129597Y-54990495D01*
X99132097Y-54998187D01*
X99242896Y-55215642D01*
X99386339Y-55413076D01*
X99386343Y-55413081D01*
X99558918Y-55585656D01*
X99558923Y-55585660D01*
X99731136Y-55710779D01*
X99756361Y-55729106D01*
X99973815Y-55839904D01*
X100205924Y-55915321D01*
X100446973Y-55953500D01*
X100446974Y-55953500D01*
X100691026Y-55953500D01*
X100691027Y-55953500D01*
X100932076Y-55915321D01*
X101164185Y-55839904D01*
X101381639Y-55729106D01*
X101579083Y-55585655D01*
X101751655Y-55413083D01*
X101895106Y-55215639D01*
X102005904Y-54998185D01*
X102081321Y-54766076D01*
X102119500Y-54525027D01*
X102119500Y-54280973D01*
X102081321Y-54039924D01*
X102005904Y-53807815D01*
X101895106Y-53590361D01*
X101845718Y-53522384D01*
X101751660Y-53392923D01*
X101751656Y-53392918D01*
X101579081Y-53220343D01*
X101579076Y-53220339D01*
X101381642Y-53076896D01*
X101381641Y-53076895D01*
X101381639Y-53076894D01*
X101164185Y-52966096D01*
X100932076Y-52890679D01*
X100932074Y-52890678D01*
X100932072Y-52890678D01*
X100763769Y-52864021D01*
X100691027Y-52852500D01*
X100446973Y-52852500D01*
X100391093Y-52861350D01*
X100205927Y-52890678D01*
X99973812Y-52966097D01*
X99756357Y-53076896D01*
X99558923Y-53220339D01*
X99558918Y-53220343D01*
X99386343Y-53392918D01*
X99386339Y-53392923D01*
X99242896Y-53590357D01*
X99132097Y-53807812D01*
X99056678Y-54039927D01*
X99030178Y-54207242D01*
X99018500Y-54280973D01*
X98563285Y-54280973D01*
X98649341Y-53908752D01*
X98651018Y-53902298D01*
X98847548Y-53222514D01*
X98849587Y-53216120D01*
X98898158Y-53076894D01*
X99082657Y-52548030D01*
X99085039Y-52541757D01*
X99269282Y-52093394D01*
X99353983Y-51887270D01*
X99356683Y-51881174D01*
X99660719Y-51242199D01*
X99663765Y-51236222D01*
X99800838Y-50984321D01*
X100001974Y-50614689D01*
X100005326Y-50608909D01*
X100376741Y-50006595D01*
X100380389Y-50001023D01*
X100783911Y-49419716D01*
X100787846Y-49414364D01*
X100837926Y-49349973D01*
X101865500Y-49349973D01*
X101865500Y-49594027D01*
X101903679Y-49835076D01*
X101975511Y-50056153D01*
X101979097Y-50067187D01*
X102089896Y-50284642D01*
X102233339Y-50482076D01*
X102233343Y-50482081D01*
X102405918Y-50654656D01*
X102405923Y-50654660D01*
X102578136Y-50779779D01*
X102603361Y-50798106D01*
X102820815Y-50908904D01*
X103052924Y-50984321D01*
X103293973Y-51022500D01*
X103293974Y-51022500D01*
X103538026Y-51022500D01*
X103538027Y-51022500D01*
X103779076Y-50984321D01*
X104011185Y-50908904D01*
X104228639Y-50798106D01*
X104426083Y-50654655D01*
X104598655Y-50482083D01*
X104742106Y-50284639D01*
X104852904Y-50067185D01*
X104928321Y-49835076D01*
X104966500Y-49594027D01*
X104966500Y-49349973D01*
X104928321Y-49108924D01*
X104852904Y-48876815D01*
X104742106Y-48659361D01*
X104723779Y-48634136D01*
X104598660Y-48461923D01*
X104598656Y-48461918D01*
X104426081Y-48289343D01*
X104426076Y-48289339D01*
X104228642Y-48145896D01*
X104228641Y-48145895D01*
X104228639Y-48145894D01*
X104011185Y-48035096D01*
X103779076Y-47959679D01*
X103779074Y-47959678D01*
X103779072Y-47959678D01*
X103610769Y-47933021D01*
X103538027Y-47921500D01*
X103293973Y-47921500D01*
X103238093Y-47930350D01*
X103052927Y-47959678D01*
X102820812Y-48035097D01*
X102603357Y-48145896D01*
X102405923Y-48289339D01*
X102405918Y-48289343D01*
X102233343Y-48461918D01*
X102233339Y-48461923D01*
X102089896Y-48659357D01*
X101979097Y-48876812D01*
X101903678Y-49108927D01*
X101878329Y-49268974D01*
X101865500Y-49349973D01*
X100837926Y-49349973D01*
X101222292Y-48855771D01*
X101226518Y-48850631D01*
X101690592Y-48316418D01*
X101695091Y-48311514D01*
X102182018Y-47808831D01*
X102187739Y-47803295D01*
X102253990Y-47743176D01*
X102402150Y-47574141D01*
X102530095Y-47389333D01*
X102636162Y-47191157D01*
X102718970Y-46982191D01*
X102777442Y-46765154D01*
X102791665Y-46670383D01*
X102801888Y-46618993D01*
X102801888Y-46602296D01*
X102803263Y-46593139D01*
X102804449Y-46585233D01*
X102805842Y-46575958D01*
X102802240Y-46528255D01*
X102801888Y-46518919D01*
X102801888Y-46502973D01*
X106796500Y-46502973D01*
X106796500Y-46747027D01*
X106834679Y-46988076D01*
X106900665Y-47191160D01*
X106910097Y-47220187D01*
X107020896Y-47437642D01*
X107164339Y-47635076D01*
X107164343Y-47635081D01*
X107336918Y-47807656D01*
X107336923Y-47807660D01*
X107338560Y-47808849D01*
X107534361Y-47951106D01*
X107751815Y-48061904D01*
X107983924Y-48137321D01*
X108224973Y-48175500D01*
X108224974Y-48175500D01*
X108469026Y-48175500D01*
X108469027Y-48175500D01*
X108710076Y-48137321D01*
X108942185Y-48061904D01*
X109159639Y-47951106D01*
X109357083Y-47807655D01*
X109529655Y-47635083D01*
X109673106Y-47437639D01*
X109783904Y-47220185D01*
X109859321Y-46988076D01*
X109897500Y-46747027D01*
X109897500Y-46502973D01*
X112490500Y-46502973D01*
X112490500Y-46747027D01*
X112528679Y-46988076D01*
X112594665Y-47191160D01*
X112604097Y-47220187D01*
X112714896Y-47437642D01*
X112858339Y-47635076D01*
X112858343Y-47635081D01*
X113030918Y-47807656D01*
X113030923Y-47807660D01*
X113032560Y-47808849D01*
X113228361Y-47951106D01*
X113445815Y-48061904D01*
X113677924Y-48137321D01*
X113918973Y-48175500D01*
X113918974Y-48175500D01*
X114163026Y-48175500D01*
X114163027Y-48175500D01*
X114404076Y-48137321D01*
X114636185Y-48061904D01*
X114853639Y-47951106D01*
X115051083Y-47807655D01*
X115223655Y-47635083D01*
X115367106Y-47437639D01*
X115477904Y-47220185D01*
X115553321Y-46988076D01*
X115591500Y-46747027D01*
X115591500Y-46502973D01*
X115553321Y-46261924D01*
X115477904Y-46029815D01*
X115367106Y-45812361D01*
X115307283Y-45730021D01*
X115223660Y-45614923D01*
X115223656Y-45614918D01*
X115051081Y-45442343D01*
X115051076Y-45442339D01*
X114853642Y-45298896D01*
X114853641Y-45298895D01*
X114853639Y-45298894D01*
X114636185Y-45188096D01*
X114404076Y-45112679D01*
X114404074Y-45112678D01*
X114404072Y-45112678D01*
X114235769Y-45086021D01*
X114163027Y-45074500D01*
X113918973Y-45074500D01*
X113863093Y-45083350D01*
X113677927Y-45112678D01*
X113445812Y-45188097D01*
X113228357Y-45298896D01*
X113030923Y-45442339D01*
X113030918Y-45442343D01*
X112858343Y-45614918D01*
X112858339Y-45614923D01*
X112714896Y-45812357D01*
X112604097Y-46029812D01*
X112604096Y-46029814D01*
X112604096Y-46029815D01*
X112571325Y-46130673D01*
X112528678Y-46261927D01*
X112496696Y-46463854D01*
X112490500Y-46502973D01*
X109897500Y-46502973D01*
X109859321Y-46261924D01*
X109783904Y-46029815D01*
X109673106Y-45812361D01*
X109613283Y-45730021D01*
X109529660Y-45614923D01*
X109529656Y-45614918D01*
X109357081Y-45442343D01*
X109357076Y-45442339D01*
X109159642Y-45298896D01*
X109159641Y-45298895D01*
X109159639Y-45298894D01*
X108942185Y-45188096D01*
X108710076Y-45112679D01*
X108710074Y-45112678D01*
X108710072Y-45112678D01*
X108541769Y-45086021D01*
X108469027Y-45074500D01*
X108224973Y-45074500D01*
X108169093Y-45083350D01*
X107983927Y-45112678D01*
X107751812Y-45188097D01*
X107534357Y-45298896D01*
X107336923Y-45442339D01*
X107336918Y-45442343D01*
X107164343Y-45614918D01*
X107164339Y-45614923D01*
X107020896Y-45812357D01*
X106910097Y-46029812D01*
X106910096Y-46029814D01*
X106910096Y-46029815D01*
X106877325Y-46130673D01*
X106834678Y-46261927D01*
X106802696Y-46463854D01*
X106796500Y-46502973D01*
X102801888Y-46502973D01*
X102801888Y-46185842D01*
X102809882Y-46158615D01*
X102814837Y-46130673D01*
X102820332Y-46123027D01*
X102821573Y-46118803D01*
X102834878Y-46101621D01*
X102836503Y-46099864D01*
X102892712Y-46043656D01*
X102901091Y-46030071D01*
X102909283Y-46021219D01*
X102929332Y-46009241D01*
X102946694Y-45993623D01*
X102958764Y-45991657D01*
X102969264Y-45985385D01*
X102992604Y-45986148D01*
X103015656Y-45982395D01*
X103026874Y-45987268D01*
X103039097Y-45987668D01*
X103058319Y-46000928D01*
X103079740Y-46010234D01*
X103091530Y-46023839D01*
X103096609Y-46027343D01*
X103098509Y-46031893D01*
X103105829Y-46040339D01*
X103107681Y-46043341D01*
X103107683Y-46043344D01*
X103231654Y-46167315D01*
X103380875Y-46259356D01*
X103380880Y-46259358D01*
X103547302Y-46314505D01*
X103547309Y-46314506D01*
X103650019Y-46324999D01*
X104200000Y-46324999D01*
X104249972Y-46324999D01*
X104249986Y-46324998D01*
X104352697Y-46314505D01*
X104519119Y-46259358D01*
X104519124Y-46259356D01*
X104668345Y-46167315D01*
X104792315Y-46043345D01*
X104884356Y-45894124D01*
X104884358Y-45894119D01*
X104939505Y-45727697D01*
X104939506Y-45727690D01*
X104949999Y-45624986D01*
X104950000Y-45624973D01*
X104950000Y-45350000D01*
X104200000Y-45350000D01*
X104200000Y-46324999D01*
X103650019Y-46324999D01*
X103699999Y-46324998D01*
X103700000Y-46324998D01*
X103700000Y-44850000D01*
X104200000Y-44850000D01*
X104949999Y-44850000D01*
X104949999Y-44575028D01*
X104949998Y-44575013D01*
X104939505Y-44472302D01*
X104884358Y-44305880D01*
X104884356Y-44305875D01*
X104792315Y-44156654D01*
X104663237Y-44027576D01*
X104664704Y-44026108D01*
X104630278Y-43977477D01*
X104627147Y-43907678D01*
X104641454Y-43873096D01*
X104721069Y-43741397D01*
X104768934Y-43587792D01*
X104775000Y-43521043D01*
X104775000Y-43100000D01*
X104200000Y-43100000D01*
X104200000Y-44850000D01*
X103700000Y-44850000D01*
X103700000Y-43100000D01*
X103125000Y-43100000D01*
X103125000Y-43521043D01*
X103131065Y-43587792D01*
X103178929Y-43741396D01*
X103258546Y-43873097D01*
X103265707Y-43900220D01*
X103275948Y-43926334D01*
X103274505Y-43933543D01*
X103276382Y-43940651D01*
X103267743Y-43967337D01*
X103262240Y-43994845D01*
X103256662Y-44001571D01*
X103254865Y-44007125D01*
X103241564Y-44023450D01*
X103089428Y-44180762D01*
X103070262Y-44191646D01*
X103053874Y-44206385D01*
X103040476Y-44208563D01*
X103028674Y-44215267D01*
X103006667Y-44214062D01*
X102984911Y-44217601D01*
X102972462Y-44212190D01*
X102958909Y-44211449D01*
X102941045Y-44198537D01*
X102920831Y-44189752D01*
X102907324Y-44174163D01*
X102902283Y-44170519D01*
X102900724Y-44166545D01*
X102894753Y-44159653D01*
X102892713Y-44156346D01*
X102892712Y-44156344D01*
X102786818Y-44050450D01*
X102772111Y-44023516D01*
X102755523Y-43997704D01*
X102754631Y-43991503D01*
X102753334Y-43989127D01*
X102750500Y-43962769D01*
X102750500Y-43893667D01*
X102768384Y-43829516D01*
X102821531Y-43741602D01*
X102869430Y-43587887D01*
X102875500Y-43521091D01*
X102875499Y-42178910D01*
X102875499Y-42178909D01*
X102875499Y-42178901D01*
X102869431Y-42112117D01*
X102869428Y-42112106D01*
X102821532Y-41958401D01*
X102821531Y-41958400D01*
X102821531Y-41958398D01*
X102738236Y-41820612D01*
X102738234Y-41820610D01*
X102738233Y-41820608D01*
X102624391Y-41706766D01*
X102486602Y-41623469D01*
X102486599Y-41623468D01*
X102470286Y-41618384D01*
X102442835Y-41600096D01*
X102414818Y-41582738D01*
X102413905Y-41580824D01*
X102412140Y-41579648D01*
X102398935Y-41549426D01*
X102384748Y-41519670D01*
X102385015Y-41517566D01*
X102384166Y-41515623D01*
X102389396Y-41483060D01*
X102393549Y-41450357D01*
X102394910Y-41448732D01*
X102395247Y-41446638D01*
X102417257Y-41422066D01*
X102438427Y-41396805D01*
X102440972Y-41395591D01*
X102441866Y-41394594D01*
X102470281Y-41381616D01*
X102486602Y-41376531D01*
X102486605Y-41376528D01*
X102488107Y-41376061D01*
X102557967Y-41374909D01*
X102561890Y-41376061D01*
X102563397Y-41376530D01*
X102563398Y-41376531D01*
X102717113Y-41424430D01*
X102783909Y-41430500D01*
X103216090Y-41430499D01*
X103216098Y-41430499D01*
X103282882Y-41424431D01*
X103282885Y-41424430D01*
X103282887Y-41424430D01*
X103436602Y-41376531D01*
X103436603Y-41376530D01*
X103438950Y-41375799D01*
X103458773Y-41375472D01*
X103477886Y-41370201D01*
X103505865Y-41374695D01*
X103508810Y-41374647D01*
X103512734Y-41375799D01*
X103531397Y-41381615D01*
X103589544Y-41420354D01*
X103617516Y-41484380D01*
X103606433Y-41553365D01*
X103559814Y-41605407D01*
X103531394Y-41618385D01*
X103513607Y-41623927D01*
X103375919Y-41707163D01*
X103262163Y-41820919D01*
X103178929Y-41958603D01*
X103131065Y-42112207D01*
X103125000Y-42178956D01*
X103125000Y-42600000D01*
X103700000Y-42600000D01*
X103700000Y-41558197D01*
X103684004Y-41531819D01*
X103685827Y-41461973D01*
X103698790Y-41441802D01*
X104200000Y-41441802D01*
X104215996Y-41468182D01*
X104214172Y-41538028D01*
X104200000Y-41560080D01*
X104200000Y-42600000D01*
X104775000Y-42600000D01*
X104775000Y-42178956D01*
X104768934Y-42112207D01*
X104721070Y-41958603D01*
X104637836Y-41820919D01*
X104524080Y-41707163D01*
X104386395Y-41623929D01*
X104368606Y-41618386D01*
X104310458Y-41579649D01*
X104282483Y-41515624D01*
X104293564Y-41446639D01*
X104340182Y-41394595D01*
X104368606Y-41381614D01*
X104386395Y-41376070D01*
X104524080Y-41292836D01*
X104637836Y-41179080D01*
X104721070Y-41041396D01*
X104768934Y-40887792D01*
X104775000Y-40821043D01*
X104775000Y-40400000D01*
X104200000Y-40400000D01*
X104200000Y-41441802D01*
X103698790Y-41441802D01*
X103700000Y-41439919D01*
X103700000Y-41194495D01*
X103717882Y-41130347D01*
X103771531Y-41041602D01*
X103819430Y-40887887D01*
X103825500Y-40821091D01*
X103825499Y-39478910D01*
X103825499Y-39478909D01*
X103825499Y-39478901D01*
X103819431Y-39412117D01*
X103819428Y-39412106D01*
X103771532Y-39258400D01*
X103748327Y-39220015D01*
X103717882Y-39169652D01*
X103699999Y-39105502D01*
X103699999Y-38791353D01*
X104199999Y-38791353D01*
X104200000Y-38791363D01*
X104200000Y-39900000D01*
X104775000Y-39900000D01*
X104775000Y-39478956D01*
X104768934Y-39412207D01*
X104721069Y-39258602D01*
X104641453Y-39126902D01*
X104623616Y-39059347D01*
X104645133Y-38992873D01*
X104663732Y-38972920D01*
X104663236Y-38972424D01*
X104792314Y-38843345D01*
X104884355Y-38694124D01*
X104884357Y-38694119D01*
X104939504Y-38527697D01*
X104939505Y-38527690D01*
X104949998Y-38424986D01*
X104949999Y-38424973D01*
X104949999Y-38150000D01*
X104199999Y-38150000D01*
X104199999Y-38791353D01*
X103699999Y-38791353D01*
X103699999Y-37650000D01*
X104199999Y-37650000D01*
X104949998Y-37650000D01*
X104949998Y-37375028D01*
X104949997Y-37375013D01*
X104939504Y-37272302D01*
X104884357Y-37105880D01*
X104884355Y-37105875D01*
X104792314Y-36956654D01*
X104668344Y-36832684D01*
X104519123Y-36740643D01*
X104519118Y-36740641D01*
X104352696Y-36685494D01*
X104352689Y-36685493D01*
X104249985Y-36675000D01*
X104199999Y-36675000D01*
X104199999Y-37650000D01*
X103699999Y-37650000D01*
X103699999Y-36675000D01*
X103699998Y-36674999D01*
X103650028Y-36675000D01*
X103650010Y-36675001D01*
X103547301Y-36685494D01*
X103380879Y-36740641D01*
X103380874Y-36740643D01*
X103231653Y-36832684D01*
X103107678Y-36956659D01*
X103105825Y-36959665D01*
X103104017Y-36961290D01*
X103103201Y-36962323D01*
X103103024Y-36962183D01*
X103053872Y-37006384D01*
X102984908Y-37017599D01*
X102920829Y-36989749D01*
X102910595Y-36980174D01*
X102901596Y-36970746D01*
X102892713Y-36956344D01*
X102785810Y-36849441D01*
X102784803Y-36848386D01*
X102769415Y-36818577D01*
X102753335Y-36789127D01*
X102753103Y-36786977D01*
X102752754Y-36786300D01*
X102752883Y-36784931D01*
X102750501Y-36762769D01*
X102750501Y-35931012D01*
X102723582Y-35795685D01*
X102723581Y-35795684D01*
X102723581Y-35795680D01*
X102670776Y-35668197D01*
X102646462Y-35631808D01*
X102594115Y-35553465D01*
X102594113Y-35553462D01*
X102336814Y-35296163D01*
X102303329Y-35234840D01*
X102300495Y-35208482D01*
X102300495Y-34876656D01*
X102300494Y-34876644D01*
X103699504Y-34876644D01*
X103699504Y-35723334D01*
X103699505Y-35723352D01*
X103709654Y-35822704D01*
X103709655Y-35822707D01*
X103763000Y-35983691D01*
X103763005Y-35983702D01*
X103852033Y-36128037D01*
X103852036Y-36128041D01*
X103971959Y-36247964D01*
X103971963Y-36247967D01*
X104116298Y-36336995D01*
X104116301Y-36336996D01*
X104116307Y-36337000D01*
X104277296Y-36390346D01*
X104376659Y-36400497D01*
X104708484Y-36400496D01*
X104775523Y-36420180D01*
X104796165Y-36436815D01*
X107573460Y-39214111D01*
X107573461Y-39214112D01*
X107688199Y-39290777D01*
X107815674Y-39343578D01*
X107815679Y-39343580D01*
X107815683Y-39343580D01*
X107815684Y-39343581D01*
X107951010Y-39370500D01*
X107951013Y-39370500D01*
X107951014Y-39370500D01*
X108380264Y-39370500D01*
X108447303Y-39390185D01*
X108493058Y-39442989D01*
X108497968Y-39455491D01*
X108505729Y-39478910D01*
X108509184Y-39489337D01*
X108601283Y-39638651D01*
X108601286Y-39638655D01*
X108725341Y-39762710D01*
X108725345Y-39762713D01*
X108874659Y-39854812D01*
X108874661Y-39854813D01*
X108874663Y-39854814D01*
X109041200Y-39909999D01*
X109143989Y-39920500D01*
X109143994Y-39920500D01*
X110244000Y-39920500D01*
X110244005Y-39920500D01*
X110346794Y-39909999D01*
X110513331Y-39854814D01*
X110662652Y-39762711D01*
X110786708Y-39638655D01*
X110878811Y-39489334D01*
X110933996Y-39322797D01*
X110944497Y-39220008D01*
X110944497Y-38119992D01*
X110933996Y-38017203D01*
X110878811Y-37850666D01*
X110786708Y-37701345D01*
X110662652Y-37577289D01*
X110662648Y-37577286D01*
X110513334Y-37485187D01*
X110513332Y-37485186D01*
X110408052Y-37450300D01*
X110346794Y-37430001D01*
X110346792Y-37430000D01*
X110244012Y-37419500D01*
X110244005Y-37419500D01*
X109143989Y-37419500D01*
X109143981Y-37419500D01*
X109041201Y-37430000D01*
X109041200Y-37430001D01*
X108874661Y-37485186D01*
X108874659Y-37485187D01*
X108725345Y-37577286D01*
X108725341Y-37577289D01*
X108601286Y-37701344D01*
X108601283Y-37701348D01*
X108509184Y-37850662D01*
X108497970Y-37884505D01*
X108484099Y-37904538D01*
X108473977Y-37926703D01*
X108464565Y-37932751D01*
X108458197Y-37941949D01*
X108435698Y-37951302D01*
X108415199Y-37964477D01*
X108398097Y-37966935D01*
X108393681Y-37968772D01*
X108380264Y-37969500D01*
X108361526Y-37969500D01*
X108294487Y-37949815D01*
X108273845Y-37933181D01*
X105912235Y-35571571D01*
X108443507Y-35571571D01*
X108443507Y-35768416D01*
X108474297Y-35962820D01*
X108535124Y-36150023D01*
X108624354Y-36325145D01*
X108624483Y-36325399D01*
X108740179Y-36484640D01*
X108879361Y-36623822D01*
X109038602Y-36739518D01*
X109084235Y-36762769D01*
X109213977Y-36828876D01*
X109213979Y-36828876D01*
X109213982Y-36828878D01*
X109314324Y-36861481D01*
X109401180Y-36889703D01*
X109595585Y-36920494D01*
X109595590Y-36920494D01*
X109792429Y-36920494D01*
X109986833Y-36889703D01*
X110000178Y-36885367D01*
X110174032Y-36828878D01*
X110349412Y-36739518D01*
X110508653Y-36623822D01*
X110647835Y-36484640D01*
X110763531Y-36325399D01*
X110852891Y-36150019D01*
X110913716Y-35962820D01*
X110918754Y-35931012D01*
X110944507Y-35768416D01*
X110944507Y-35571619D01*
X111444001Y-35571619D01*
X111444001Y-35768384D01*
X111474779Y-35962707D01*
X111535582Y-36149837D01*
X111624906Y-36325147D01*
X111650320Y-36360127D01*
X111650321Y-36360127D01*
X112202872Y-35807576D01*
X112218756Y-35866855D01*
X112285899Y-35983149D01*
X112380854Y-36078104D01*
X112497148Y-36145247D01*
X112556425Y-36161130D01*
X112003874Y-36713679D01*
X112003874Y-36713680D01*
X112038859Y-36739098D01*
X112214165Y-36828420D01*
X112401295Y-36889223D01*
X112595619Y-36920002D01*
X112792383Y-36920002D01*
X112986706Y-36889223D01*
X113173836Y-36828420D01*
X113349144Y-36739097D01*
X113384126Y-36713680D01*
X113384127Y-36713680D01*
X113150461Y-36480014D01*
X116985000Y-36480014D01*
X116985000Y-36530001D01*
X117960000Y-36530001D01*
X118460000Y-36530001D01*
X119434999Y-36530001D01*
X119434999Y-36480029D01*
X119434998Y-36480014D01*
X119424505Y-36377303D01*
X119369358Y-36210881D01*
X119369356Y-36210876D01*
X119277315Y-36061655D01*
X119153345Y-35937685D01*
X119004124Y-35845644D01*
X119004119Y-35845642D01*
X118837697Y-35790495D01*
X118837690Y-35790494D01*
X118734986Y-35780001D01*
X118460000Y-35780001D01*
X118460000Y-36530001D01*
X117960000Y-36530001D01*
X117960000Y-35780001D01*
X117685029Y-35780001D01*
X117685012Y-35780002D01*
X117582302Y-35790495D01*
X117415880Y-35845642D01*
X117415875Y-35845644D01*
X117266654Y-35937685D01*
X117142684Y-36061655D01*
X117050643Y-36210876D01*
X117050641Y-36210881D01*
X116995494Y-36377303D01*
X116995493Y-36377310D01*
X116985000Y-36480014D01*
X113150461Y-36480014D01*
X112831576Y-36161129D01*
X112890854Y-36145247D01*
X113007148Y-36078104D01*
X113102103Y-35983149D01*
X113169246Y-35866855D01*
X113185128Y-35807577D01*
X113737679Y-36360128D01*
X113737680Y-36360127D01*
X113763096Y-36325145D01*
X113852419Y-36149837D01*
X113913222Y-35962707D01*
X113944001Y-35768384D01*
X113944001Y-35571619D01*
X113913222Y-35377296D01*
X113852419Y-35190166D01*
X113763097Y-35014860D01*
X113737679Y-34979875D01*
X113737678Y-34979875D01*
X113185128Y-35532425D01*
X113169246Y-35473149D01*
X113102103Y-35356855D01*
X113007148Y-35261900D01*
X112890854Y-35194757D01*
X112831575Y-35178873D01*
X113355358Y-34655090D01*
X114933496Y-34655090D01*
X114933496Y-34804905D01*
X114962719Y-34951820D01*
X114962721Y-34951828D01*
X115020047Y-35090227D01*
X115020052Y-35090236D01*
X115103276Y-35214788D01*
X115103279Y-35214792D01*
X115209201Y-35320714D01*
X115209205Y-35320717D01*
X115333757Y-35403941D01*
X115333766Y-35403946D01*
X115333771Y-35403948D01*
X115472166Y-35461273D01*
X115619088Y-35490497D01*
X115619092Y-35490498D01*
X115619093Y-35490498D01*
X115768900Y-35490498D01*
X115768901Y-35490497D01*
X115915826Y-35461273D01*
X116054228Y-35403945D01*
X116178787Y-35320717D01*
X116284715Y-35214789D01*
X116367943Y-35090230D01*
X116425271Y-34951828D01*
X116454496Y-34804901D01*
X116454496Y-34655095D01*
X116454495Y-34655092D01*
X116454495Y-34655090D01*
X116446781Y-34616308D01*
X116425271Y-34508168D01*
X116367943Y-34369766D01*
X116367940Y-34369761D01*
X116367939Y-34369759D01*
X116284715Y-34245207D01*
X116284712Y-34245203D01*
X116178790Y-34139281D01*
X116178786Y-34139278D01*
X116054234Y-34056054D01*
X116054225Y-34056049D01*
X115915826Y-33998723D01*
X115915818Y-33998721D01*
X115768903Y-33969498D01*
X115768899Y-33969498D01*
X115619093Y-33969498D01*
X115619088Y-33969498D01*
X115472173Y-33998721D01*
X115472165Y-33998723D01*
X115333766Y-34056049D01*
X115333757Y-34056054D01*
X115209205Y-34139278D01*
X115209201Y-34139281D01*
X115103279Y-34245203D01*
X115103276Y-34245207D01*
X115020052Y-34369759D01*
X115020047Y-34369768D01*
X114962721Y-34508167D01*
X114962719Y-34508175D01*
X114933496Y-34655090D01*
X113355358Y-34655090D01*
X113384126Y-34626322D01*
X113384126Y-34626321D01*
X113349146Y-34600907D01*
X113173836Y-34511583D01*
X112986706Y-34450780D01*
X112792383Y-34420002D01*
X112595619Y-34420002D01*
X112401295Y-34450780D01*
X112214162Y-34511584D01*
X112038864Y-34600901D01*
X112038860Y-34600904D01*
X112003874Y-34626322D01*
X112003873Y-34626322D01*
X112556426Y-35178873D01*
X112497148Y-35194757D01*
X112380854Y-35261900D01*
X112285899Y-35356855D01*
X112218756Y-35473149D01*
X112202872Y-35532426D01*
X111650321Y-34979874D01*
X111650321Y-34979875D01*
X111624903Y-35014861D01*
X111624900Y-35014865D01*
X111535583Y-35190163D01*
X111474779Y-35377296D01*
X111444001Y-35571619D01*
X110944507Y-35571619D01*
X110944507Y-35571571D01*
X110913716Y-35377167D01*
X110875593Y-35259839D01*
X110852891Y-35189969D01*
X110852889Y-35189966D01*
X110852889Y-35189964D01*
X110775993Y-35039047D01*
X110763531Y-35014589D01*
X110647835Y-34855348D01*
X110508653Y-34716166D01*
X110349412Y-34600470D01*
X110174036Y-34511111D01*
X109986833Y-34450284D01*
X109792429Y-34419494D01*
X109792424Y-34419494D01*
X109595590Y-34419494D01*
X109595585Y-34419494D01*
X109401180Y-34450284D01*
X109213977Y-34511111D01*
X109038601Y-34600470D01*
X108963416Y-34655096D01*
X108879361Y-34716166D01*
X108879359Y-34716168D01*
X108879358Y-34716168D01*
X108740181Y-34855345D01*
X108740181Y-34855346D01*
X108740179Y-34855348D01*
X108724696Y-34876659D01*
X108624483Y-35014588D01*
X108535124Y-35189964D01*
X108474297Y-35377167D01*
X108443507Y-35571571D01*
X105912235Y-35571571D01*
X105636822Y-35296158D01*
X105603337Y-35234835D01*
X105600503Y-35208477D01*
X105600503Y-34876659D01*
X105600502Y-34876641D01*
X105590353Y-34777289D01*
X105590352Y-34777286D01*
X105560769Y-34688009D01*
X105549863Y-34655097D01*
X105549861Y-34655092D01*
X105933497Y-34655092D01*
X105933497Y-34804907D01*
X105962720Y-34951822D01*
X105962722Y-34951830D01*
X106020048Y-35090229D01*
X106020053Y-35090238D01*
X106103277Y-35214790D01*
X106103280Y-35214794D01*
X106209202Y-35320716D01*
X106209206Y-35320719D01*
X106333758Y-35403943D01*
X106333764Y-35403946D01*
X106333765Y-35403947D01*
X106472167Y-35461275D01*
X106619079Y-35490497D01*
X106619089Y-35490499D01*
X106619093Y-35490500D01*
X106619094Y-35490500D01*
X106768901Y-35490500D01*
X106768902Y-35490499D01*
X106915827Y-35461275D01*
X107054229Y-35403947D01*
X107178788Y-35320719D01*
X107284716Y-35214791D01*
X107367944Y-35090232D01*
X107425272Y-34951830D01*
X107454497Y-34804903D01*
X107454497Y-34655097D01*
X107454496Y-34655094D01*
X107454496Y-34655092D01*
X107448773Y-34626321D01*
X107425272Y-34508170D01*
X107367944Y-34369768D01*
X107367943Y-34369766D01*
X107367940Y-34369761D01*
X107284716Y-34245209D01*
X107284713Y-34245205D01*
X107178791Y-34139283D01*
X107178787Y-34139280D01*
X107054235Y-34056056D01*
X107054226Y-34056051D01*
X106915827Y-33998725D01*
X106915819Y-33998723D01*
X106768904Y-33969500D01*
X106768900Y-33969500D01*
X106619094Y-33969500D01*
X106619089Y-33969500D01*
X106472174Y-33998723D01*
X106472166Y-33998725D01*
X106333767Y-34056051D01*
X106333758Y-34056056D01*
X106209206Y-34139280D01*
X106209202Y-34139283D01*
X106103280Y-34245205D01*
X106103277Y-34245209D01*
X106020053Y-34369761D01*
X106020048Y-34369770D01*
X105962722Y-34508169D01*
X105962720Y-34508177D01*
X105933497Y-34655092D01*
X105549861Y-34655092D01*
X105537007Y-34616300D01*
X105537003Y-34616294D01*
X105537002Y-34616291D01*
X105447974Y-34471956D01*
X105447971Y-34471952D01*
X105328048Y-34352029D01*
X105328044Y-34352026D01*
X105183709Y-34262998D01*
X105183703Y-34262995D01*
X105183701Y-34262994D01*
X105130011Y-34245203D01*
X105022713Y-34209648D01*
X104923350Y-34199497D01*
X104376666Y-34199497D01*
X104376648Y-34199498D01*
X104277296Y-34209647D01*
X104277293Y-34209648D01*
X104116309Y-34262993D01*
X104116298Y-34262998D01*
X103971963Y-34352026D01*
X103971959Y-34352029D01*
X103852036Y-34471952D01*
X103852033Y-34471956D01*
X103763005Y-34616291D01*
X103763000Y-34616302D01*
X103709655Y-34777287D01*
X103699504Y-34876644D01*
X102300494Y-34876644D01*
X102290345Y-34777295D01*
X102290344Y-34777292D01*
X102290342Y-34777286D01*
X102236999Y-34616306D01*
X102236995Y-34616300D01*
X102236994Y-34616297D01*
X102147966Y-34471962D01*
X102147963Y-34471958D01*
X102028040Y-34352035D01*
X102028036Y-34352032D01*
X101883701Y-34263004D01*
X101883695Y-34263001D01*
X101883693Y-34263000D01*
X101829985Y-34245203D01*
X101722705Y-34209654D01*
X101623342Y-34199503D01*
X101076658Y-34199503D01*
X101076640Y-34199504D01*
X100977288Y-34209653D01*
X100977285Y-34209654D01*
X100816301Y-34262999D01*
X100816290Y-34263004D01*
X100671955Y-34352032D01*
X100671951Y-34352035D01*
X100552028Y-34471958D01*
X100552025Y-34471962D01*
X100462997Y-34616297D01*
X100462992Y-34616308D01*
X100409647Y-34777293D01*
X100399496Y-34876650D01*
X100399496Y-35723340D01*
X100399497Y-35723358D01*
X100409646Y-35822710D01*
X100409647Y-35822713D01*
X100462992Y-35983697D01*
X100462997Y-35983708D01*
X100552025Y-36128043D01*
X100552028Y-36128047D01*
X100671951Y-36247970D01*
X100671955Y-36247973D01*
X100816290Y-36337001D01*
X100816293Y-36337002D01*
X100816299Y-36337006D01*
X100977288Y-36390352D01*
X101076651Y-36400503D01*
X101225501Y-36400502D01*
X101234186Y-36403052D01*
X101243148Y-36401764D01*
X101267185Y-36412741D01*
X101292540Y-36420186D01*
X101298468Y-36427028D01*
X101306704Y-36430789D01*
X101320990Y-36453020D01*
X101338295Y-36472990D01*
X101340582Y-36483505D01*
X101344478Y-36489567D01*
X101349501Y-36524502D01*
X101349501Y-36762769D01*
X101329816Y-36829808D01*
X101313183Y-36850450D01*
X101207288Y-36956345D01*
X101115188Y-37105663D01*
X101115186Y-37105668D01*
X101115116Y-37105880D01*
X101060002Y-37272203D01*
X101060002Y-37272204D01*
X101060001Y-37272204D01*
X101049501Y-37374983D01*
X101049501Y-38425001D01*
X101049502Y-38425019D01*
X101060001Y-38527796D01*
X101060002Y-38527799D01*
X101115116Y-38694119D01*
X101115187Y-38694334D01*
X101207097Y-38843345D01*
X101207290Y-38843657D01*
X101313181Y-38949548D01*
X101327884Y-38976475D01*
X101344477Y-39002294D01*
X101345368Y-39008494D01*
X101346666Y-39010871D01*
X101349500Y-39037229D01*
X101349500Y-39106330D01*
X101331617Y-39170479D01*
X101278470Y-39258395D01*
X101230569Y-39412116D01*
X101224500Y-39478911D01*
X101224500Y-40821098D01*
X101230568Y-40887882D01*
X101230571Y-40887893D01*
X101278467Y-41041598D01*
X101278468Y-41041600D01*
X101278469Y-41041602D01*
X101361578Y-41179080D01*
X101361766Y-41179391D01*
X101475608Y-41293233D01*
X101475610Y-41293234D01*
X101475612Y-41293236D01*
X101613398Y-41376531D01*
X101629711Y-41381614D01*
X101687857Y-41420348D01*
X101715832Y-41484373D01*
X101704753Y-41553358D01*
X101658136Y-41605403D01*
X101629717Y-41618383D01*
X101613399Y-41623468D01*
X101475608Y-41706766D01*
X101361766Y-41820608D01*
X101278469Y-41958397D01*
X101230569Y-42112116D01*
X101224500Y-42178911D01*
X101224500Y-43521098D01*
X101230568Y-43587882D01*
X101230571Y-43587893D01*
X101278467Y-43741599D01*
X101278468Y-43741601D01*
X101331616Y-43829516D01*
X101336147Y-43845771D01*
X101344477Y-43858732D01*
X101349500Y-43893667D01*
X101349500Y-43962769D01*
X101329815Y-44029808D01*
X101313182Y-44050450D01*
X101207287Y-44156345D01*
X101115187Y-44305663D01*
X101115185Y-44305668D01*
X101115115Y-44305880D01*
X101060001Y-44472203D01*
X101060001Y-44472204D01*
X101060000Y-44472204D01*
X101049500Y-44574983D01*
X101049500Y-45625001D01*
X101049501Y-45625019D01*
X101060000Y-45727796D01*
X101060001Y-45727799D01*
X101115115Y-45894119D01*
X101115186Y-45894334D01*
X101207288Y-46043656D01*
X101331344Y-46167712D01*
X101341980Y-46174272D01*
X101348804Y-46181859D01*
X101358091Y-46186100D01*
X101371778Y-46207397D01*
X101388706Y-46226216D01*
X101391351Y-46237854D01*
X101395865Y-46244878D01*
X101400888Y-46279813D01*
X101400888Y-46463854D01*
X101397490Y-46492683D01*
X101388611Y-46529827D01*
X101381937Y-46549951D01*
X101352113Y-46619360D01*
X101342110Y-46638051D01*
X101300891Y-46701378D01*
X101287846Y-46718095D01*
X101237768Y-46772043D01*
X101233593Y-46776328D01*
X101221225Y-46788423D01*
X101217870Y-46791583D01*
X101170778Y-46834324D01*
X101170771Y-46834332D01*
X101169881Y-46835608D01*
X101154903Y-46853279D01*
X100942135Y-47061324D01*
X100433598Y-47612539D01*
X100433579Y-47612560D01*
X99954044Y-48189217D01*
X99504795Y-48789772D01*
X99087030Y-49412627D01*
X98701844Y-50056145D01*
X98701833Y-50056166D01*
X98350259Y-50718622D01*
X98350246Y-50718647D01*
X98033210Y-51398293D01*
X98033196Y-51398324D01*
X97751521Y-52093394D01*
X97751520Y-52093399D01*
X97505958Y-52802041D01*
X97505957Y-52802045D01*
X97297158Y-53522394D01*
X97125685Y-54252492D01*
X96991974Y-54990495D01*
X96915503Y-55585660D01*
X96896397Y-55734360D01*
X96839198Y-56482167D01*
X96820529Y-57231925D01*
X93697114Y-57231925D01*
X93717652Y-37323926D01*
X93717720Y-37323674D01*
X93717720Y-37260689D01*
X93717723Y-37260676D01*
X93717869Y-37254737D01*
X93726455Y-37079987D01*
X93735718Y-36891446D01*
X93736911Y-36879340D01*
X93757486Y-36740643D01*
X93789836Y-36522563D01*
X93792209Y-36510632D01*
X93798719Y-36484642D01*
X93879855Y-36160735D01*
X93883375Y-36149133D01*
X94004900Y-35809500D01*
X94009542Y-35798294D01*
X94163768Y-35472215D01*
X94169486Y-35461515D01*
X94354936Y-35152114D01*
X94361677Y-35142026D01*
X94576547Y-34852310D01*
X94584248Y-34842925D01*
X94826499Y-34575644D01*
X94835079Y-34567065D01*
X95102352Y-34324827D01*
X95111727Y-34317132D01*
X95401442Y-34102268D01*
X95411558Y-34095509D01*
X95720929Y-33910080D01*
X95731654Y-33904347D01*
X96057715Y-33750133D01*
X96068941Y-33745483D01*
X96408570Y-33623963D01*
X96420182Y-33620442D01*
X96770072Y-33532800D01*
X96781994Y-33530429D01*
X97138781Y-33477507D01*
X97150876Y-33476315D01*
X97515001Y-33458428D01*
X97521078Y-33458280D01*
X97583110Y-33458281D01*
X97583114Y-33458280D01*
X124851326Y-33458280D01*
X124914166Y-33458280D01*
X124920250Y-33458428D01*
G37*
%TD.AperFunction*%
%TD*%
M02*
