%TF.GenerationSoftware,KiCad,Pcbnew,9.0.4*%
%TF.CreationDate,2026-01-01T20:18:17+00:00*%
%TF.ProjectId,rotary-switch,726f7461-7279-42d7-9377-697463682e6b,rev?*%
%TF.SameCoordinates,Original*%
%TF.FileFunction,Copper,L2,Bot*%
%TF.FilePolarity,Positive*%
%FSLAX46Y46*%
G04 Gerber Fmt 4.6, Leading zero omitted, Abs format (unit mm)*
G04 Created by KiCad (PCBNEW 9.0.4) date 2026-01-01 20:18:17*
%MOMM*%
%LPD*%
G01*
G04 APERTURE LIST*
G04 Aperture macros list*
%AMRoundRect*
0 Rectangle with rounded corners*
0 $1 Rounding radius*
0 $2 $3 $4 $5 $6 $7 $8 $9 X,Y pos of 4 corners*
0 Add a 4 corners polygon primitive as box body*
4,1,4,$2,$3,$4,$5,$6,$7,$8,$9,$2,$3,0*
0 Add four circle primitives for the rounded corners*
1,1,$1+$1,$2,$3*
1,1,$1+$1,$4,$5*
1,1,$1+$1,$6,$7*
1,1,$1+$1,$8,$9*
0 Add four rect primitives between the rounded corners*
20,1,$1+$1,$2,$3,$4,$5,0*
20,1,$1+$1,$4,$5,$6,$7,0*
20,1,$1+$1,$6,$7,$8,$9,0*
20,1,$1+$1,$8,$9,$2,$3,0*%
G04 Aperture macros list end*
%TA.AperFunction,Conductor*%
%ADD10C,0.400000*%
%TD*%
%TA.AperFunction,ComponentPad*%
%ADD11C,1.500000*%
%TD*%
%TA.AperFunction,ComponentPad*%
%ADD12RoundRect,0.250001X-0.499999X-0.499999X0.499999X-0.499999X0.499999X0.499999X-0.499999X0.499999X0*%
%TD*%
%TA.AperFunction,SMDPad,CuDef*%
%ADD13RoundRect,0.250000X-0.475000X0.250000X-0.475000X-0.250000X0.475000X-0.250000X0.475000X0.250000X0*%
%TD*%
%TA.AperFunction,SMDPad,CuDef*%
%ADD14RoundRect,0.250000X0.450000X-0.262500X0.450000X0.262500X-0.450000X0.262500X-0.450000X-0.262500X0*%
%TD*%
%TA.AperFunction,ComponentPad*%
%ADD15C,5.600000*%
%TD*%
%TA.AperFunction,SMDPad,CuDef*%
%ADD16RoundRect,0.250000X-0.450000X0.262500X-0.450000X-0.262500X0.450000X-0.262500X0.450000X0.262500X0*%
%TD*%
%TA.AperFunction,SMDPad,CuDef*%
%ADD17RoundRect,0.225000X0.375000X-0.225000X0.375000X0.225000X-0.375000X0.225000X-0.375000X-0.225000X0*%
%TD*%
%TA.AperFunction,ComponentPad*%
%ADD18C,2.100000*%
%TD*%
G04 APERTURE END LIST*
D10*
%TO.N,Net-(D1-K)*%
X102900000Y-43800000D02*
X102901388Y-45850000D01*
X102901388Y-45850000D02*
G75*
G02*
X102500000Y-46600000I-901388J0D01*
G01*
X107484025Y-69743610D02*
G75*
G02*
X106500000Y-70200000I-734025J293610D01*
G01*
X106450000Y-70200000D02*
G75*
G02*
X102500000Y-46600000I4953522J12959647D01*
G01*
%TD*%
D11*
%TO.P,J1,4,Pin_4*%
%TO.N,GND*%
X112694001Y-35670002D03*
%TO.P,J1,3,Pin_3*%
%TO.N,unconnected-(J1-Pin_3-Pad3)*%
X109694007Y-35669994D03*
%TO.P,J1,2,Pin_2*%
%TO.N,/Output*%
X112694003Y-38670010D03*
D12*
%TO.P,J1,1,Pin_1*%
%TO.N,+12V*%
X109693997Y-38670000D03*
%TD*%
D13*
%TO.P,C1,1*%
%TO.N,/Output*%
X121899998Y-41200002D03*
%TO.P,C1,2*%
%TO.N,GND*%
X121900002Y-43099998D03*
%TD*%
D14*
%TO.P,R12,1*%
%TO.N,Net-(R12-Pad1)*%
X117900000Y-43062487D03*
%TO.P,R12,2*%
%TO.N,/Output*%
X117900000Y-41237513D03*
%TD*%
D15*
%TO.P,H3,1,1*%
%TO.N,GND*%
X97517220Y-70632780D03*
%TD*%
%TO.P,H4,1,1*%
%TO.N,GND*%
X124892220Y-70632780D03*
%TD*%
%TO.P,H2,1,1*%
%TO.N,GND*%
X124917220Y-37257780D03*
%TD*%
%TO.P,H1,1,1*%
%TO.N,GND*%
X97517220Y-37257780D03*
%TD*%
D16*
%TO.P,R13,1*%
%TO.N,/Output*%
X119850000Y-41237509D03*
%TO.P,R13,2*%
%TO.N,GND*%
X119850000Y-43062491D03*
%TD*%
D17*
%TO.P,D1,1,K*%
%TO.N,Net-(D1-K)*%
X102900003Y-43800004D03*
%TO.P,D1,2,A*%
%TO.N,+12V*%
X102899997Y-40499996D03*
%TD*%
D18*
%TO.P,SW1,1,1*%
%TO.N,Net-(D1-K)*%
X108347000Y-67875000D03*
%TO.P,SW1,2,2*%
%TO.N,Net-(R1-Pad2)*%
X103416000Y-65028000D03*
%TO.P,SW1,3,3*%
%TO.N,Net-(R2-Pad2)*%
X100569000Y-60097000D03*
%TO.P,SW1,4,4*%
%TO.N,Net-(R3-Pad2)*%
X100569000Y-54403000D03*
%TO.P,SW1,5,5*%
%TO.N,Net-(R4-Pad2)*%
X103416000Y-49472000D03*
%TO.P,SW1,6,6*%
%TO.N,Net-(R5-Pad2)*%
X108347000Y-46625000D03*
%TO.P,SW1,7,7*%
%TO.N,Net-(R6-Pad2)*%
X114041000Y-46625000D03*
%TO.P,SW1,8,8*%
%TO.N,Net-(R7-Pad2)*%
X118972000Y-49472000D03*
%TO.P,SW1,9,9*%
%TO.N,Net-(R8-Pad2)*%
X121819000Y-54403000D03*
%TO.P,SW1,10,10*%
%TO.N,Net-(R10-Pad1)*%
X121819000Y-60097000D03*
%TO.P,SW1,11,11*%
%TO.N,Net-(R10-Pad2)*%
X118972000Y-65028000D03*
%TO.P,SW1,12,12*%
%TO.N,GND*%
X114041000Y-67875000D03*
%TO.P,SW1,13,13*%
%TO.N,Net-(R12-Pad1)*%
X108366000Y-60078000D03*
%TD*%
D10*
%TO.N,Net-(D1-K)*%
X107484025Y-69743610D02*
X108347000Y-67875000D01*
%TO.N,/Output*%
X119887507Y-41200002D02*
X119850000Y-41237509D01*
X121899998Y-41200002D02*
X119887507Y-41200002D01*
X117900004Y-41237509D02*
X117900000Y-41237513D01*
X119850000Y-41237509D02*
X117900004Y-41237509D01*
X115261506Y-41237513D02*
X117900000Y-41237513D01*
X112694003Y-38670010D02*
X115261506Y-41237513D01*
%TO.N,+12V*%
X104730000Y-38670000D02*
X109693997Y-38670000D01*
X102900004Y-40499996D02*
X104730000Y-38670000D01*
X102899997Y-40499996D02*
X102900004Y-40499996D01*
%TO.N,/Output*%
X117899999Y-41237511D02*
X117787511Y-41237511D01*
%TO.N,Net-(R12-Pad1)*%
X117912492Y-43049998D02*
X117900001Y-43062489D01*
X108366000Y-60078000D02*
X117900000Y-45800000D01*
X117900000Y-45800000D02*
X117900000Y-43062487D01*
%TD*%
%TA.AperFunction,Conductor*%
%TO.N,GND*%
G36*
X124920250Y-33458428D02*
G01*
X125283552Y-33476278D01*
X125295660Y-33477471D01*
X125652436Y-33530395D01*
X125664372Y-33532769D01*
X126014264Y-33620413D01*
X126025877Y-33623937D01*
X126365495Y-33745455D01*
X126376723Y-33750107D01*
X126702784Y-33904324D01*
X126713513Y-33910058D01*
X126957095Y-34056056D01*
X127022874Y-34095482D01*
X127032992Y-34102242D01*
X127322703Y-34317107D01*
X127332109Y-34324827D01*
X127599359Y-34567049D01*
X127607950Y-34575640D01*
X127698937Y-34676028D01*
X127850172Y-34842890D01*
X127857892Y-34852296D01*
X128072757Y-35142007D01*
X128079517Y-35152125D01*
X128264939Y-35461483D01*
X128270675Y-35472215D01*
X128424892Y-35798276D01*
X128429547Y-35809514D01*
X128506133Y-36023555D01*
X128551057Y-36149106D01*
X128554590Y-36160751D01*
X128642230Y-36510628D01*
X128644604Y-36522563D01*
X128697528Y-36879339D01*
X128698721Y-36891449D01*
X128716569Y-37254716D01*
X128716718Y-37260859D01*
X128701193Y-70568129D01*
X128701189Y-70576218D01*
X128701161Y-70576326D01*
X128701161Y-70639114D01*
X128701161Y-70639210D01*
X128701159Y-70639215D01*
X128701012Y-70645239D01*
X128683162Y-71008548D01*
X128681969Y-71020658D01*
X128629044Y-71377432D01*
X128626670Y-71389367D01*
X128539030Y-71739241D01*
X128535497Y-71750886D01*
X128413988Y-72090475D01*
X128409331Y-72101718D01*
X128255118Y-72427768D01*
X128249382Y-72438499D01*
X128063953Y-72747864D01*
X128057192Y-72757982D01*
X127842337Y-73047677D01*
X127834617Y-73057084D01*
X127592397Y-73324329D01*
X127583800Y-73332926D01*
X127325141Y-73567359D01*
X127316544Y-73575151D01*
X127307137Y-73582870D01*
X127017440Y-73797720D01*
X127007322Y-73804481D01*
X126697950Y-73989908D01*
X126687218Y-73995644D01*
X126361170Y-74149850D01*
X126349927Y-74154507D01*
X126010327Y-74276015D01*
X125998683Y-74279547D01*
X125648817Y-74367181D01*
X125636881Y-74369555D01*
X125280108Y-74422474D01*
X125267998Y-74423667D01*
X124903483Y-74441571D01*
X124897402Y-74441720D01*
X124865824Y-74441720D01*
X124835773Y-74441720D01*
X124835769Y-74441720D01*
X124828165Y-74441721D01*
X124828164Y-74441720D01*
X124828163Y-74441721D01*
X97485833Y-74441721D01*
X97479748Y-74441572D01*
X97116448Y-74423722D01*
X97104338Y-74422529D01*
X96747563Y-74369605D01*
X96735628Y-74367231D01*
X96385750Y-74279591D01*
X96374108Y-74276059D01*
X96034515Y-74154548D01*
X96023280Y-74149895D01*
X95860245Y-74072785D01*
X95697214Y-73995677D01*
X95686482Y-73989940D01*
X95377124Y-73804518D01*
X95367006Y-73797758D01*
X95077296Y-73582893D01*
X95067890Y-73575173D01*
X95025264Y-73536539D01*
X94800638Y-73332950D01*
X94792049Y-73324361D01*
X94549826Y-73057109D01*
X94542106Y-73047703D01*
X94327241Y-72757993D01*
X94320481Y-72747875D01*
X94320474Y-72747864D01*
X94135057Y-72438514D01*
X94129322Y-72427785D01*
X94129314Y-72427768D01*
X93975099Y-72101709D01*
X93970454Y-72090495D01*
X93848936Y-71750878D01*
X93845412Y-71739265D01*
X93757767Y-71389367D01*
X93755394Y-71377436D01*
X93702470Y-71020661D01*
X93701277Y-71008551D01*
X93696592Y-70913186D01*
X93683430Y-70645318D01*
X93683282Y-70639114D01*
X93683448Y-70478501D01*
X93696900Y-57439494D01*
X96825629Y-57439494D01*
X96834705Y-57671970D01*
X96854478Y-58178403D01*
X96920752Y-58914866D01*
X96945081Y-59086917D01*
X97024286Y-59647046D01*
X97024288Y-59647060D01*
X97024289Y-59647062D01*
X97024289Y-59647067D01*
X97164801Y-60372992D01*
X97164811Y-60373040D01*
X97341964Y-61090961D01*
X97346821Y-61107081D01*
X97555288Y-61798972D01*
X97555292Y-61798984D01*
X97555300Y-61799009D01*
X97783647Y-62437670D01*
X97804239Y-62495263D01*
X98045526Y-63075483D01*
X98088179Y-63178049D01*
X98249124Y-63515678D01*
X98406363Y-63845535D01*
X98757987Y-64496042D01*
X98860666Y-64664924D01*
X99049631Y-64975726D01*
X99142142Y-65127883D01*
X99557840Y-65739433D01*
X99557841Y-65739434D01*
X99557848Y-65739444D01*
X99634417Y-65840642D01*
X100000514Y-66324500D01*
X100004011Y-66329121D01*
X100004013Y-66329124D01*
X100308986Y-66692339D01*
X100479506Y-66895425D01*
X100983104Y-67436893D01*
X101434109Y-67875001D01*
X101513501Y-67952122D01*
X101513512Y-67952133D01*
X101658320Y-68079182D01*
X101934193Y-68321224D01*
X102069345Y-68439801D01*
X102069361Y-68439815D01*
X102632021Y-68885076D01*
X102649215Y-68898682D01*
X103251594Y-69327561D01*
X103874944Y-69725345D01*
X104517662Y-70091012D01*
X105178094Y-70423621D01*
X105854540Y-70722315D01*
X106136958Y-70830270D01*
X106136967Y-70830278D01*
X106199897Y-70854330D01*
X106199897Y-70854331D01*
X106273623Y-70882510D01*
X106365115Y-70895467D01*
X106381086Y-70899222D01*
X106381131Y-70899046D01*
X106385645Y-70900177D01*
X106385652Y-70900180D01*
X106608247Y-70938516D01*
X106834078Y-70942884D01*
X107057989Y-70913187D01*
X107274873Y-70850100D01*
X107479780Y-70755065D01*
X107668033Y-70630249D01*
X107835338Y-70478501D01*
X107977876Y-70303283D01*
X108092396Y-70108594D01*
X108126333Y-70023944D01*
X108128849Y-70018107D01*
X108369576Y-69496857D01*
X108415554Y-69444251D01*
X108464473Y-69427892D01*
X108464215Y-69426262D01*
X108469026Y-69425500D01*
X108469027Y-69425500D01*
X108710076Y-69387321D01*
X108942185Y-69311904D01*
X109159639Y-69201106D01*
X109357083Y-69057655D01*
X109529655Y-68885083D01*
X109673106Y-68687639D01*
X109783904Y-68470185D01*
X109859321Y-68238076D01*
X109897500Y-67997027D01*
X109897500Y-67753006D01*
X112491000Y-67753006D01*
X112491000Y-67996993D01*
X112529165Y-68237959D01*
X112604560Y-68469998D01*
X112715323Y-68687380D01*
X112782543Y-68779901D01*
X112782544Y-68779902D01*
X113401690Y-68160756D01*
X113420668Y-68206574D01*
X113497274Y-68321224D01*
X113594776Y-68418726D01*
X113709426Y-68495332D01*
X113755242Y-68514309D01*
X113136096Y-69133454D01*
X113136097Y-69133456D01*
X113228619Y-69200676D01*
X113446001Y-69311439D01*
X113678040Y-69386834D01*
X113919007Y-69425000D01*
X114162993Y-69425000D01*
X114403959Y-69386834D01*
X114635998Y-69311439D01*
X114853377Y-69200678D01*
X114945901Y-69133454D01*
X114945902Y-69133454D01*
X114326757Y-68514309D01*
X114372574Y-68495332D01*
X114487224Y-68418726D01*
X114584726Y-68321224D01*
X114661332Y-68206574D01*
X114680309Y-68160757D01*
X115299454Y-68779902D01*
X115299454Y-68779901D01*
X115366678Y-68687377D01*
X115477439Y-68469998D01*
X115552834Y-68237959D01*
X115591000Y-67996993D01*
X115591000Y-67753006D01*
X115552834Y-67512040D01*
X115477439Y-67280001D01*
X115366676Y-67062619D01*
X115299456Y-66970097D01*
X115299454Y-66970096D01*
X114680309Y-67589241D01*
X114661332Y-67543426D01*
X114584726Y-67428776D01*
X114487224Y-67331274D01*
X114372574Y-67254668D01*
X114326756Y-67235689D01*
X114945902Y-66616544D01*
X114945901Y-66616543D01*
X114853380Y-66549323D01*
X114635998Y-66438560D01*
X114403959Y-66363165D01*
X114162993Y-66325000D01*
X113919007Y-66325000D01*
X113678040Y-66363165D01*
X113446001Y-66438560D01*
X113228626Y-66549319D01*
X113136097Y-66616544D01*
X113755243Y-67235689D01*
X113709426Y-67254668D01*
X113594776Y-67331274D01*
X113497274Y-67428776D01*
X113420668Y-67543426D01*
X113401690Y-67589243D01*
X112782544Y-66970097D01*
X112715319Y-67062626D01*
X112604560Y-67280001D01*
X112529165Y-67512040D01*
X112491000Y-67753006D01*
X109897500Y-67753006D01*
X109897500Y-67752973D01*
X109859321Y-67511924D01*
X109783904Y-67279815D01*
X109673106Y-67062361D01*
X109654779Y-67037136D01*
X109529660Y-66864923D01*
X109529656Y-66864918D01*
X109357081Y-66692343D01*
X109357076Y-66692339D01*
X109159642Y-66548896D01*
X109159641Y-66548895D01*
X109159639Y-66548894D01*
X108942185Y-66438096D01*
X108710076Y-66362679D01*
X108710074Y-66362678D01*
X108710072Y-66362678D01*
X108498202Y-66329121D01*
X108469027Y-66324500D01*
X108224973Y-66324500D01*
X108195804Y-66329120D01*
X107983927Y-66362678D01*
X107751812Y-66438097D01*
X107534357Y-66548896D01*
X107336923Y-66692339D01*
X107336918Y-66692343D01*
X107164343Y-66864918D01*
X107164339Y-66864923D01*
X107020896Y-67062357D01*
X106910097Y-67279812D01*
X106834678Y-67511927D01*
X106796500Y-67752973D01*
X106796500Y-67997026D01*
X106833170Y-68228553D01*
X106834679Y-68238076D01*
X106910096Y-68470185D01*
X107020762Y-68687380D01*
X107020896Y-68687642D01*
X107087706Y-68779599D01*
X107111186Y-68845405D01*
X107099963Y-68904474D01*
X106877913Y-69385284D01*
X106877565Y-69386031D01*
X106873188Y-69395344D01*
X106862940Y-69410169D01*
X106844156Y-69457126D01*
X106842604Y-69460430D01*
X106821758Y-69483964D01*
X106802332Y-69508681D01*
X106798773Y-69509913D01*
X106796277Y-69512732D01*
X106766018Y-69521260D01*
X106736311Y-69531551D01*
X106731740Y-69530921D01*
X106729027Y-69531686D01*
X106722236Y-69529611D01*
X106691167Y-69525330D01*
X106646642Y-69510489D01*
X106628127Y-69508681D01*
X106623426Y-69508221D01*
X106588137Y-69499415D01*
X106172133Y-69327561D01*
X106053943Y-69278736D01*
X106047915Y-69276055D01*
X105419893Y-68976486D01*
X105414020Y-68973490D01*
X104888792Y-68687642D01*
X104802848Y-68640868D01*
X104797127Y-68637553D01*
X104204575Y-68272841D01*
X104199047Y-68269233D01*
X103626743Y-67873432D01*
X103621425Y-67869541D01*
X103071047Y-67443809D01*
X103065928Y-67439626D01*
X102539045Y-66985182D01*
X102534155Y-66980732D01*
X102154828Y-66616543D01*
X102032224Y-66498832D01*
X102027582Y-66494131D01*
X102000221Y-66464904D01*
X101552047Y-65986160D01*
X101547686Y-65981245D01*
X101099900Y-65448645D01*
X101095781Y-65443472D01*
X100743307Y-64975726D01*
X100743307Y-64975725D01*
X100690744Y-64905973D01*
X101865500Y-64905973D01*
X101865500Y-65150027D01*
X101903679Y-65391076D01*
X101922384Y-65448645D01*
X101979097Y-65623187D01*
X102089896Y-65840642D01*
X102233339Y-66038076D01*
X102233343Y-66038081D01*
X102405918Y-66210656D01*
X102405923Y-66210660D01*
X102562612Y-66324500D01*
X102603361Y-66354106D01*
X102820815Y-66464904D01*
X103052924Y-66540321D01*
X103293973Y-66578500D01*
X103293974Y-66578500D01*
X103538026Y-66578500D01*
X103538027Y-66578500D01*
X103779076Y-66540321D01*
X104011185Y-66464904D01*
X104228639Y-66354106D01*
X104426083Y-66210655D01*
X104598655Y-66038083D01*
X104742106Y-65840639D01*
X104852904Y-65623185D01*
X104928321Y-65391076D01*
X104966500Y-65150027D01*
X104966500Y-64905973D01*
X117421500Y-64905973D01*
X117421500Y-65150027D01*
X117459679Y-65391076D01*
X117478384Y-65448645D01*
X117535097Y-65623187D01*
X117645896Y-65840642D01*
X117789339Y-66038076D01*
X117789343Y-66038081D01*
X117961918Y-66210656D01*
X117961923Y-66210660D01*
X118118612Y-66324500D01*
X118159361Y-66354106D01*
X118376815Y-66464904D01*
X118608924Y-66540321D01*
X118849973Y-66578500D01*
X118849974Y-66578500D01*
X119094026Y-66578500D01*
X119094027Y-66578500D01*
X119335076Y-66540321D01*
X119567185Y-66464904D01*
X119784639Y-66354106D01*
X119982083Y-66210655D01*
X120154655Y-66038083D01*
X120298106Y-65840639D01*
X120408904Y-65623185D01*
X120484321Y-65391076D01*
X120522500Y-65150027D01*
X120522500Y-64905973D01*
X120484321Y-64664924D01*
X120408904Y-64432815D01*
X120298106Y-64215361D01*
X120279779Y-64190136D01*
X120154660Y-64017923D01*
X120154656Y-64017918D01*
X119982081Y-63845343D01*
X119982076Y-63845339D01*
X119784642Y-63701896D01*
X119784641Y-63701895D01*
X119784639Y-63701894D01*
X119567185Y-63591096D01*
X119335076Y-63515679D01*
X119335074Y-63515678D01*
X119335072Y-63515678D01*
X119166769Y-63489021D01*
X119094027Y-63477500D01*
X118849973Y-63477500D01*
X118794093Y-63486350D01*
X118608927Y-63515678D01*
X118376812Y-63591097D01*
X118159357Y-63701896D01*
X117961923Y-63845339D01*
X117961918Y-63845343D01*
X117789343Y-64017918D01*
X117789339Y-64017923D01*
X117645896Y-64215357D01*
X117535097Y-64432812D01*
X117459678Y-64664927D01*
X117425236Y-64882388D01*
X117421500Y-64905973D01*
X104966500Y-64905973D01*
X104928321Y-64664924D01*
X104852904Y-64432815D01*
X104742106Y-64215361D01*
X104723779Y-64190136D01*
X104598660Y-64017923D01*
X104598656Y-64017918D01*
X104426081Y-63845343D01*
X104426076Y-63845339D01*
X104228642Y-63701896D01*
X104228641Y-63701895D01*
X104228639Y-63701894D01*
X104011185Y-63591096D01*
X103779076Y-63515679D01*
X103779074Y-63515678D01*
X103779072Y-63515678D01*
X103610769Y-63489021D01*
X103538027Y-63477500D01*
X103293973Y-63477500D01*
X103238093Y-63486350D01*
X103052927Y-63515678D01*
X102820812Y-63591097D01*
X102603357Y-63701896D01*
X102405923Y-63845339D01*
X102405918Y-63845343D01*
X102233343Y-64017918D01*
X102233339Y-64017923D01*
X102089896Y-64215357D01*
X101979097Y-64432812D01*
X101903678Y-64664927D01*
X101869236Y-64882388D01*
X101865500Y-64905973D01*
X100690744Y-64905973D01*
X100677029Y-64887773D01*
X100673192Y-64882388D01*
X100413138Y-64496040D01*
X100284658Y-64305164D01*
X100281119Y-64299592D01*
X100112614Y-64017923D01*
X99923903Y-63702476D01*
X99920664Y-63696720D01*
X99595781Y-63081410D01*
X99592851Y-63075483D01*
X99536876Y-62954224D01*
X99301223Y-62443725D01*
X99298630Y-62437690D01*
X99041070Y-61791237D01*
X99038807Y-61785082D01*
X98816089Y-61125873D01*
X98814143Y-61119562D01*
X98810656Y-61107083D01*
X98626871Y-60449394D01*
X98625275Y-60443034D01*
X98521020Y-59974973D01*
X99018500Y-59974973D01*
X99018500Y-60219026D01*
X99053669Y-60441076D01*
X99056679Y-60460076D01*
X99125923Y-60673187D01*
X99132097Y-60692187D01*
X99242896Y-60909642D01*
X99386339Y-61107076D01*
X99386343Y-61107081D01*
X99558918Y-61279656D01*
X99558923Y-61279660D01*
X99730206Y-61404103D01*
X99756361Y-61423106D01*
X99973815Y-61533904D01*
X100205924Y-61609321D01*
X100446973Y-61647500D01*
X100446974Y-61647500D01*
X100691026Y-61647500D01*
X100691027Y-61647500D01*
X100932076Y-61609321D01*
X101164185Y-61533904D01*
X101381639Y-61423106D01*
X101579083Y-61279655D01*
X101751655Y-61107083D01*
X101895106Y-60909639D01*
X102005904Y-60692185D01*
X102081321Y-60460076D01*
X102119500Y-60219027D01*
X102119500Y-59974973D01*
X102116491Y-59955973D01*
X106815500Y-59955973D01*
X106815500Y-60200027D01*
X106853679Y-60441076D01*
X106859852Y-60460076D01*
X106929097Y-60673187D01*
X107039896Y-60890642D01*
X107183339Y-61088076D01*
X107183343Y-61088081D01*
X107355918Y-61260656D01*
X107355923Y-61260660D01*
X107528136Y-61385779D01*
X107553361Y-61404106D01*
X107770815Y-61514904D01*
X108002924Y-61590321D01*
X108243973Y-61628500D01*
X108243974Y-61628500D01*
X108488026Y-61628500D01*
X108488027Y-61628500D01*
X108729076Y-61590321D01*
X108961185Y-61514904D01*
X109178639Y-61404106D01*
X109376083Y-61260655D01*
X109548655Y-61088083D01*
X109692106Y-60890639D01*
X109802904Y-60673185D01*
X109878321Y-60441076D01*
X109916500Y-60200027D01*
X109916500Y-59974973D01*
X120268500Y-59974973D01*
X120268500Y-60219026D01*
X120303669Y-60441076D01*
X120306679Y-60460076D01*
X120375923Y-60673187D01*
X120382097Y-60692187D01*
X120492896Y-60909642D01*
X120636339Y-61107076D01*
X120636343Y-61107081D01*
X120808918Y-61279656D01*
X120808923Y-61279660D01*
X120980206Y-61404103D01*
X121006361Y-61423106D01*
X121223815Y-61533904D01*
X121455924Y-61609321D01*
X121696973Y-61647500D01*
X121696974Y-61647500D01*
X121941026Y-61647500D01*
X121941027Y-61647500D01*
X122182076Y-61609321D01*
X122414185Y-61533904D01*
X122631639Y-61423106D01*
X122829083Y-61279655D01*
X123001655Y-61107083D01*
X123145106Y-60909639D01*
X123255904Y-60692185D01*
X123331321Y-60460076D01*
X123369500Y-60219027D01*
X123369500Y-59974973D01*
X123331321Y-59733924D01*
X123255904Y-59501815D01*
X123145106Y-59284361D01*
X123123716Y-59254920D01*
X123001660Y-59086923D01*
X123001656Y-59086918D01*
X122829081Y-58914343D01*
X122829076Y-58914339D01*
X122631642Y-58770896D01*
X122631641Y-58770895D01*
X122631639Y-58770894D01*
X122414185Y-58660096D01*
X122182076Y-58584679D01*
X122182074Y-58584678D01*
X122182072Y-58584678D01*
X122013769Y-58558021D01*
X121941027Y-58546500D01*
X121696973Y-58546500D01*
X121641093Y-58555350D01*
X121455927Y-58584678D01*
X121223812Y-58660097D01*
X121006357Y-58770896D01*
X120808923Y-58914339D01*
X120808918Y-58914343D01*
X120636343Y-59086918D01*
X120636339Y-59086923D01*
X120492896Y-59284357D01*
X120382097Y-59501812D01*
X120306678Y-59733927D01*
X120268500Y-59974973D01*
X109916500Y-59974973D01*
X109916500Y-59955973D01*
X109878321Y-59714924D01*
X109802904Y-59482815D01*
X109750554Y-59380073D01*
X109737659Y-59311405D01*
X109757916Y-59254921D01*
X113079224Y-54280973D01*
X120268500Y-54280973D01*
X120268500Y-54525026D01*
X120306678Y-54766072D01*
X120382097Y-54998187D01*
X120492896Y-55215642D01*
X120636339Y-55413076D01*
X120636343Y-55413081D01*
X120808918Y-55585656D01*
X120808923Y-55585660D01*
X120981136Y-55710779D01*
X121006361Y-55729106D01*
X121223815Y-55839904D01*
X121455924Y-55915321D01*
X121696973Y-55953500D01*
X121696974Y-55953500D01*
X121941026Y-55953500D01*
X121941027Y-55953500D01*
X122182076Y-55915321D01*
X122414185Y-55839904D01*
X122631639Y-55729106D01*
X122829083Y-55585655D01*
X123001655Y-55413083D01*
X123145106Y-55215639D01*
X123255904Y-54998185D01*
X123331321Y-54766076D01*
X123369500Y-54525027D01*
X123369500Y-54280973D01*
X123331321Y-54039924D01*
X123255904Y-53807815D01*
X123145106Y-53590361D01*
X123081276Y-53502506D01*
X123001660Y-53392923D01*
X123001656Y-53392918D01*
X122829081Y-53220343D01*
X122829076Y-53220339D01*
X122631642Y-53076896D01*
X122631641Y-53076895D01*
X122631639Y-53076894D01*
X122414185Y-52966096D01*
X122182076Y-52890679D01*
X122182074Y-52890678D01*
X122182072Y-52890678D01*
X122013769Y-52864021D01*
X121941027Y-52852500D01*
X121696973Y-52852500D01*
X121641093Y-52861350D01*
X121455927Y-52890678D01*
X121223812Y-52966097D01*
X121006357Y-53076896D01*
X120808923Y-53220339D01*
X120808918Y-53220343D01*
X120636343Y-53392918D01*
X120636339Y-53392923D01*
X120492896Y-53590357D01*
X120382097Y-53807812D01*
X120306678Y-54039927D01*
X120268500Y-54280973D01*
X113079224Y-54280973D01*
X114823600Y-51668618D01*
X116371854Y-49349973D01*
X117421500Y-49349973D01*
X117421500Y-49594026D01*
X117459678Y-49835072D01*
X117535097Y-50067187D01*
X117645896Y-50284642D01*
X117789339Y-50482076D01*
X117789343Y-50482081D01*
X117961918Y-50654656D01*
X117961923Y-50654660D01*
X118134136Y-50779779D01*
X118159361Y-50798106D01*
X118376815Y-50908904D01*
X118608924Y-50984321D01*
X118849973Y-51022500D01*
X118849974Y-51022500D01*
X119094026Y-51022500D01*
X119094027Y-51022500D01*
X119335076Y-50984321D01*
X119567185Y-50908904D01*
X119784639Y-50798106D01*
X119982083Y-50654655D01*
X120154655Y-50482083D01*
X120298106Y-50284639D01*
X120408904Y-50067185D01*
X120484321Y-49835076D01*
X120522500Y-49594027D01*
X120522500Y-49349973D01*
X120484321Y-49108924D01*
X120408904Y-48876815D01*
X120298106Y-48659361D01*
X120262605Y-48610498D01*
X120154660Y-48461923D01*
X120154656Y-48461918D01*
X119982081Y-48289343D01*
X119982076Y-48289339D01*
X119784642Y-48145896D01*
X119784641Y-48145895D01*
X119784639Y-48145894D01*
X119567185Y-48035096D01*
X119335076Y-47959679D01*
X119335074Y-47959678D01*
X119335072Y-47959678D01*
X119166769Y-47933021D01*
X119094027Y-47921500D01*
X118849973Y-47921500D01*
X118794093Y-47930350D01*
X118608927Y-47959678D01*
X118376812Y-48035097D01*
X118159357Y-48145896D01*
X117961923Y-48289339D01*
X117961918Y-48289343D01*
X117789343Y-48461918D01*
X117789339Y-48461923D01*
X117645896Y-48659357D01*
X117535097Y-48876812D01*
X117459678Y-49108927D01*
X117421500Y-49349973D01*
X116371854Y-49349973D01*
X116421087Y-49276242D01*
X118340248Y-46402130D01*
X118484777Y-46185685D01*
X118520775Y-46131811D01*
X118520815Y-46131714D01*
X118520876Y-46131623D01*
X118547622Y-46066994D01*
X118573580Y-46004328D01*
X118573580Y-46004323D01*
X118573588Y-46004306D01*
X118573636Y-46004145D01*
X118573638Y-46004132D01*
X118573642Y-46004124D01*
X118587160Y-45936052D01*
X118587160Y-45936051D01*
X118587168Y-45936052D01*
X118587168Y-45936011D01*
X118600500Y-45868993D01*
X118600500Y-45868984D01*
X118600508Y-45868905D01*
X118600519Y-45868789D01*
X118600521Y-45868781D01*
X118600500Y-45799788D01*
X118600500Y-44120895D01*
X118603422Y-44110941D01*
X118602165Y-44100644D01*
X118613098Y-44077989D01*
X118620185Y-44053856D01*
X118628831Y-44045391D01*
X118632534Y-44037719D01*
X118649340Y-44025313D01*
X118659692Y-44015179D01*
X118667442Y-44010427D01*
X118669334Y-44009801D01*
X118810665Y-43922627D01*
X118844195Y-43913551D01*
X118877767Y-43904365D01*
X118877942Y-43904416D01*
X118878107Y-43904372D01*
X118882101Y-43905637D01*
X118940569Y-43922805D01*
X119080875Y-44009347D01*
X119080880Y-44009349D01*
X119247302Y-44064496D01*
X119247309Y-44064497D01*
X119350019Y-44074990D01*
X119599999Y-44074990D01*
X120100000Y-44074990D01*
X120349972Y-44074990D01*
X120349986Y-44074989D01*
X120452697Y-44064496D01*
X120619119Y-44009349D01*
X120619124Y-44009347D01*
X120768346Y-43917305D01*
X120772979Y-43913643D01*
X120837775Y-43887502D01*
X120906417Y-43900543D01*
X120937571Y-43923228D01*
X120956656Y-43942313D01*
X121105877Y-44034354D01*
X121105882Y-44034356D01*
X121272304Y-44089503D01*
X121272311Y-44089504D01*
X121375021Y-44099997D01*
X121650001Y-44099997D01*
X122150002Y-44099997D01*
X122424974Y-44099997D01*
X122424988Y-44099996D01*
X122527699Y-44089503D01*
X122694121Y-44034356D01*
X122694126Y-44034354D01*
X122843347Y-43942313D01*
X122967317Y-43818343D01*
X123059358Y-43669122D01*
X123059360Y-43669117D01*
X123114507Y-43502695D01*
X123114508Y-43502688D01*
X123125001Y-43399984D01*
X123125002Y-43399971D01*
X123125002Y-43349998D01*
X122150002Y-43349998D01*
X122150002Y-44099997D01*
X121650001Y-44099997D01*
X121650002Y-44099996D01*
X121650002Y-43349998D01*
X120633871Y-43349998D01*
X120566832Y-43330313D01*
X120546190Y-43313679D01*
X120545002Y-43312491D01*
X120100000Y-43312491D01*
X120100000Y-44074990D01*
X119599999Y-44074990D01*
X119600000Y-44074989D01*
X119600000Y-43186491D01*
X119619685Y-43119452D01*
X119672489Y-43073697D01*
X119724000Y-43062491D01*
X119850000Y-43062491D01*
X119850000Y-42936491D01*
X119869685Y-42869452D01*
X119922489Y-42823697D01*
X119974000Y-42812491D01*
X121091131Y-42812491D01*
X121158170Y-42832176D01*
X121178812Y-42848810D01*
X121180000Y-42849998D01*
X123125001Y-42849998D01*
X123125001Y-42800026D01*
X123125000Y-42800011D01*
X123114507Y-42697300D01*
X123059360Y-42530878D01*
X123059358Y-42530873D01*
X122967317Y-42381652D01*
X122843346Y-42257681D01*
X122843342Y-42257678D01*
X122840346Y-42255830D01*
X122838722Y-42254025D01*
X122837679Y-42253200D01*
X122837820Y-42253021D01*
X122793621Y-42203882D01*
X122782400Y-42134919D01*
X122810243Y-42070837D01*
X122840348Y-42044752D01*
X122843654Y-42042714D01*
X122967710Y-41918658D01*
X123059812Y-41769336D01*
X123114997Y-41602799D01*
X123125498Y-41500011D01*
X123125497Y-40899994D01*
X123122709Y-40872705D01*
X123114997Y-40797205D01*
X123114996Y-40797202D01*
X123059812Y-40630668D01*
X122967710Y-40481346D01*
X122843654Y-40357290D01*
X122734875Y-40290195D01*
X122694334Y-40265189D01*
X122694329Y-40265187D01*
X122692860Y-40264700D01*
X122527795Y-40210003D01*
X122527793Y-40210002D01*
X122425008Y-40199502D01*
X121374996Y-40199502D01*
X121374978Y-40199503D01*
X121272201Y-40210002D01*
X121272198Y-40210003D01*
X121105666Y-40265187D01*
X121105661Y-40265189D01*
X120956335Y-40357294D01*
X120937529Y-40376101D01*
X120876206Y-40409585D01*
X120806514Y-40404599D01*
X120772937Y-40385683D01*
X120768658Y-40382299D01*
X120768656Y-40382297D01*
X120693995Y-40336246D01*
X120619336Y-40290196D01*
X120619331Y-40290194D01*
X120617862Y-40289707D01*
X120452797Y-40235010D01*
X120452795Y-40235009D01*
X120350010Y-40224509D01*
X119349998Y-40224509D01*
X119349980Y-40224510D01*
X119247203Y-40235009D01*
X119247200Y-40235010D01*
X119080668Y-40290194D01*
X119080659Y-40290198D01*
X118940092Y-40376900D01*
X118872699Y-40395340D01*
X118809900Y-40376900D01*
X118669340Y-40290202D01*
X118669335Y-40290200D01*
X118669334Y-40290199D01*
X118502797Y-40235014D01*
X118502795Y-40235013D01*
X118400010Y-40224513D01*
X117399998Y-40224513D01*
X117399980Y-40224514D01*
X117297203Y-40235013D01*
X117297200Y-40235014D01*
X117130668Y-40290198D01*
X117130663Y-40290200D01*
X116981342Y-40382302D01*
X116862951Y-40500694D01*
X116801628Y-40534179D01*
X116775270Y-40537013D01*
X115603025Y-40537013D01*
X115535986Y-40517328D01*
X115515344Y-40500694D01*
X113967106Y-38952456D01*
X113933621Y-38891133D01*
X113932314Y-38845382D01*
X113944503Y-38768427D01*
X113944503Y-38571593D01*
X113944503Y-38571587D01*
X113913712Y-38377183D01*
X113852885Y-38189980D01*
X113805746Y-38097465D01*
X113763527Y-38014605D01*
X113647831Y-37855364D01*
X113508649Y-37716182D01*
X113349408Y-37600486D01*
X113174032Y-37511127D01*
X112986829Y-37450300D01*
X112792425Y-37419510D01*
X112792420Y-37419510D01*
X112595586Y-37419510D01*
X112595581Y-37419510D01*
X112401176Y-37450300D01*
X112213973Y-37511127D01*
X112038597Y-37600486D01*
X111947744Y-37666495D01*
X111879357Y-37716182D01*
X111879355Y-37716184D01*
X111879354Y-37716184D01*
X111740177Y-37855361D01*
X111740177Y-37855362D01*
X111740175Y-37855364D01*
X111719003Y-37884505D01*
X111624479Y-38014604D01*
X111535120Y-38189980D01*
X111474293Y-38377183D01*
X111443503Y-38571587D01*
X111443503Y-38768432D01*
X111474293Y-38962836D01*
X111535120Y-39150039D01*
X111570775Y-39220015D01*
X111624479Y-39325415D01*
X111740175Y-39484656D01*
X111879357Y-39623838D01*
X112038598Y-39739534D01*
X112084084Y-39762710D01*
X112213973Y-39828892D01*
X112213975Y-39828892D01*
X112213978Y-39828894D01*
X112293745Y-39854812D01*
X112401176Y-39889719D01*
X112595581Y-39920510D01*
X112595586Y-39920510D01*
X112792417Y-39920510D01*
X112792420Y-39920510D01*
X112869372Y-39908321D01*
X112938662Y-39917275D01*
X112976449Y-39943113D01*
X114814959Y-41781624D01*
X114814960Y-41781625D01*
X114929698Y-41858290D01*
X115057173Y-41911091D01*
X115057178Y-41911093D01*
X115057182Y-41911093D01*
X115057183Y-41911094D01*
X115192509Y-41938013D01*
X115192512Y-41938013D01*
X115192513Y-41938013D01*
X116775270Y-41938013D01*
X116804710Y-41946657D01*
X116834697Y-41953181D01*
X116839712Y-41956935D01*
X116842309Y-41957698D01*
X116862951Y-41974332D01*
X116950938Y-42062319D01*
X116984423Y-42123642D01*
X116979439Y-42193334D01*
X116950938Y-42237681D01*
X116857289Y-42331329D01*
X116765187Y-42480650D01*
X116765186Y-42480653D01*
X116710001Y-42647190D01*
X116710001Y-42647191D01*
X116710000Y-42647191D01*
X116699500Y-42749970D01*
X116699500Y-43374988D01*
X116699501Y-43375006D01*
X116710000Y-43477783D01*
X116710001Y-43477786D01*
X116765185Y-43644318D01*
X116765186Y-43644321D01*
X116857288Y-43793643D01*
X116981344Y-43917699D01*
X117130666Y-44009801D01*
X117130667Y-44009801D01*
X117136813Y-44013592D01*
X117135706Y-44015386D01*
X117180337Y-44054674D01*
X117199500Y-44120895D01*
X117199500Y-45550027D01*
X117179815Y-45617066D01*
X117178623Y-45618886D01*
X108595837Y-58472359D01*
X108542238Y-58517181D01*
X108492714Y-58527500D01*
X108488027Y-58527500D01*
X108243973Y-58527500D01*
X108188093Y-58536350D01*
X108002927Y-58565678D01*
X107770812Y-58641097D01*
X107553357Y-58751896D01*
X107355923Y-58895339D01*
X107355918Y-58895343D01*
X107183343Y-59067918D01*
X107183339Y-59067923D01*
X107039896Y-59265357D01*
X106929097Y-59482812D01*
X106929096Y-59482814D01*
X106929096Y-59482815D01*
X106922923Y-59501815D01*
X106853678Y-59714927D01*
X106815500Y-59955973D01*
X102116491Y-59955973D01*
X102081321Y-59733924D01*
X102005904Y-59501815D01*
X101895106Y-59284361D01*
X101873716Y-59254920D01*
X101751660Y-59086923D01*
X101751656Y-59086918D01*
X101579081Y-58914343D01*
X101579076Y-58914339D01*
X101381642Y-58770896D01*
X101381641Y-58770895D01*
X101381639Y-58770894D01*
X101164185Y-58660096D01*
X100932076Y-58584679D01*
X100932074Y-58584678D01*
X100932072Y-58584678D01*
X100763769Y-58558021D01*
X100691027Y-58546500D01*
X100446973Y-58546500D01*
X100391093Y-58555350D01*
X100205927Y-58584678D01*
X99973812Y-58660097D01*
X99756357Y-58770896D01*
X99558923Y-58914339D01*
X99558918Y-58914343D01*
X99386343Y-59086918D01*
X99386339Y-59086923D01*
X99242896Y-59284357D01*
X99132097Y-59501812D01*
X99056678Y-59733927D01*
X99018500Y-59974973D01*
X98521020Y-59974973D01*
X98473989Y-59763825D01*
X98472732Y-59757379D01*
X98364682Y-59111813D01*
X98357867Y-59071093D01*
X98356950Y-59064546D01*
X98337833Y-58895345D01*
X98278829Y-58373131D01*
X98278264Y-58366558D01*
X98237107Y-57671947D01*
X98236893Y-57665385D01*
X98232819Y-56969548D01*
X98232957Y-56962950D01*
X98265974Y-56267936D01*
X98266462Y-56261358D01*
X98297600Y-55953500D01*
X98336483Y-55569046D01*
X98337323Y-55562502D01*
X98360536Y-55413083D01*
X98444143Y-54874918D01*
X98445319Y-54868482D01*
X98568977Y-54280973D01*
X99018500Y-54280973D01*
X99018500Y-54525026D01*
X99056678Y-54766072D01*
X99132097Y-54998187D01*
X99242896Y-55215642D01*
X99386339Y-55413076D01*
X99386343Y-55413081D01*
X99558918Y-55585656D01*
X99558923Y-55585660D01*
X99731136Y-55710779D01*
X99756361Y-55729106D01*
X99973815Y-55839904D01*
X100205924Y-55915321D01*
X100446973Y-55953500D01*
X100446974Y-55953500D01*
X100691026Y-55953500D01*
X100691027Y-55953500D01*
X100932076Y-55915321D01*
X101164185Y-55839904D01*
X101381639Y-55729106D01*
X101579083Y-55585655D01*
X101751655Y-55413083D01*
X101895106Y-55215639D01*
X102005904Y-54998185D01*
X102081321Y-54766076D01*
X102119500Y-54525027D01*
X102119500Y-54280973D01*
X102081321Y-54039924D01*
X102005904Y-53807815D01*
X101895106Y-53590361D01*
X101831276Y-53502506D01*
X101751660Y-53392923D01*
X101751656Y-53392918D01*
X101579081Y-53220343D01*
X101579076Y-53220339D01*
X101381642Y-53076896D01*
X101381641Y-53076895D01*
X101381639Y-53076894D01*
X101164185Y-52966096D01*
X100932076Y-52890679D01*
X100932074Y-52890678D01*
X100932072Y-52890678D01*
X100763769Y-52864021D01*
X100691027Y-52852500D01*
X100446973Y-52852500D01*
X100391093Y-52861350D01*
X100205927Y-52890678D01*
X99973812Y-52966097D01*
X99756357Y-53076896D01*
X99558923Y-53220339D01*
X99558918Y-53220343D01*
X99386343Y-53392918D01*
X99386339Y-53392923D01*
X99242896Y-53590357D01*
X99132097Y-53807812D01*
X99056678Y-54039927D01*
X99018500Y-54280973D01*
X98568977Y-54280973D01*
X98588638Y-54187563D01*
X98590168Y-54181146D01*
X98769574Y-53508847D01*
X98771449Y-53502506D01*
X98807050Y-53392917D01*
X98986442Y-52840701D01*
X98988622Y-52834554D01*
X99238584Y-52185152D01*
X99241107Y-52179083D01*
X99525335Y-51543909D01*
X99528177Y-51537988D01*
X99845855Y-50918870D01*
X99848984Y-50913152D01*
X100199226Y-50311819D01*
X100202670Y-50306254D01*
X100584449Y-49724471D01*
X100588164Y-49719124D01*
X100859622Y-49349973D01*
X101865500Y-49349973D01*
X101865500Y-49594026D01*
X101903678Y-49835072D01*
X101979097Y-50067187D01*
X102089896Y-50284642D01*
X102233339Y-50482076D01*
X102233343Y-50482081D01*
X102405918Y-50654656D01*
X102405923Y-50654660D01*
X102578136Y-50779779D01*
X102603361Y-50798106D01*
X102820815Y-50908904D01*
X103052924Y-50984321D01*
X103293973Y-51022500D01*
X103293974Y-51022500D01*
X103538026Y-51022500D01*
X103538027Y-51022500D01*
X103779076Y-50984321D01*
X104011185Y-50908904D01*
X104228639Y-50798106D01*
X104426083Y-50654655D01*
X104598655Y-50482083D01*
X104742106Y-50284639D01*
X104852904Y-50067185D01*
X104928321Y-49835076D01*
X104966500Y-49594027D01*
X104966500Y-49349973D01*
X104928321Y-49108924D01*
X104852904Y-48876815D01*
X104742106Y-48659361D01*
X104706605Y-48610498D01*
X104598660Y-48461923D01*
X104598656Y-48461918D01*
X104426081Y-48289343D01*
X104426076Y-48289339D01*
X104228642Y-48145896D01*
X104228641Y-48145895D01*
X104228639Y-48145894D01*
X104011185Y-48035096D01*
X103779076Y-47959679D01*
X103779074Y-47959678D01*
X103779072Y-47959678D01*
X103610769Y-47933021D01*
X103538027Y-47921500D01*
X103293973Y-47921500D01*
X103238093Y-47930350D01*
X103052927Y-47959678D01*
X102820812Y-48035097D01*
X102603357Y-48145896D01*
X102405923Y-48289339D01*
X102405918Y-48289343D01*
X102233343Y-48461918D01*
X102233339Y-48461923D01*
X102089896Y-48659357D01*
X101979097Y-48876812D01*
X101903678Y-49108927D01*
X101865500Y-49349973D01*
X100859622Y-49349973D01*
X101000437Y-49158481D01*
X101004462Y-49153304D01*
X101446010Y-48615459D01*
X101450281Y-48610532D01*
X101919868Y-48096988D01*
X101924409Y-48092280D01*
X102420692Y-47604504D01*
X102425507Y-47600018D01*
X102920349Y-47162999D01*
X102933587Y-47152812D01*
X102982261Y-47120338D01*
X103150364Y-46970382D01*
X103295829Y-46798377D01*
X103415793Y-46607709D01*
X103462716Y-46502973D01*
X106796500Y-46502973D01*
X106796500Y-46747026D01*
X106831876Y-46970382D01*
X106834679Y-46988076D01*
X106910096Y-47220185D01*
X106967200Y-47332259D01*
X107020896Y-47437642D01*
X107164339Y-47635076D01*
X107164343Y-47635081D01*
X107336918Y-47807656D01*
X107336923Y-47807660D01*
X107446513Y-47887281D01*
X107534361Y-47951106D01*
X107751815Y-48061904D01*
X107983924Y-48137321D01*
X108224973Y-48175500D01*
X108224974Y-48175500D01*
X108469026Y-48175500D01*
X108469027Y-48175500D01*
X108710076Y-48137321D01*
X108942185Y-48061904D01*
X109159639Y-47951106D01*
X109357083Y-47807655D01*
X109529655Y-47635083D01*
X109673106Y-47437639D01*
X109783904Y-47220185D01*
X109859321Y-46988076D01*
X109897500Y-46747027D01*
X109897500Y-46502973D01*
X112490500Y-46502973D01*
X112490500Y-46747026D01*
X112525876Y-46970382D01*
X112528679Y-46988076D01*
X112604096Y-47220185D01*
X112661200Y-47332259D01*
X112714896Y-47437642D01*
X112858339Y-47635076D01*
X112858343Y-47635081D01*
X113030918Y-47807656D01*
X113030923Y-47807660D01*
X113140513Y-47887281D01*
X113228361Y-47951106D01*
X113445815Y-48061904D01*
X113677924Y-48137321D01*
X113918973Y-48175500D01*
X113918974Y-48175500D01*
X114163026Y-48175500D01*
X114163027Y-48175500D01*
X114404076Y-48137321D01*
X114636185Y-48061904D01*
X114853639Y-47951106D01*
X115051083Y-47807655D01*
X115223655Y-47635083D01*
X115367106Y-47437639D01*
X115477904Y-47220185D01*
X115553321Y-46988076D01*
X115591500Y-46747027D01*
X115591500Y-46502973D01*
X115553321Y-46261924D01*
X115477904Y-46029815D01*
X115367106Y-45812361D01*
X115336939Y-45770840D01*
X115223660Y-45614923D01*
X115223656Y-45614918D01*
X115051081Y-45442343D01*
X115051076Y-45442339D01*
X114853642Y-45298896D01*
X114853641Y-45298895D01*
X114853639Y-45298894D01*
X114636185Y-45188096D01*
X114404076Y-45112679D01*
X114404074Y-45112678D01*
X114404072Y-45112678D01*
X114235769Y-45086021D01*
X114163027Y-45074500D01*
X113918973Y-45074500D01*
X113863093Y-45083350D01*
X113677927Y-45112678D01*
X113445812Y-45188097D01*
X113228357Y-45298896D01*
X113030923Y-45442339D01*
X113030918Y-45442343D01*
X112858343Y-45614918D01*
X112858339Y-45614923D01*
X112714896Y-45812357D01*
X112604097Y-46029812D01*
X112528678Y-46261927D01*
X112490500Y-46502973D01*
X109897500Y-46502973D01*
X109859321Y-46261924D01*
X109783904Y-46029815D01*
X109673106Y-45812361D01*
X109642939Y-45770840D01*
X109529660Y-45614923D01*
X109529656Y-45614918D01*
X109357081Y-45442343D01*
X109357076Y-45442339D01*
X109159642Y-45298896D01*
X109159641Y-45298895D01*
X109159639Y-45298894D01*
X108942185Y-45188096D01*
X108710076Y-45112679D01*
X108710074Y-45112678D01*
X108710072Y-45112678D01*
X108541769Y-45086021D01*
X108469027Y-45074500D01*
X108224973Y-45074500D01*
X108169093Y-45083350D01*
X107983927Y-45112678D01*
X107751812Y-45188097D01*
X107534357Y-45298896D01*
X107336923Y-45442339D01*
X107336918Y-45442343D01*
X107164343Y-45614918D01*
X107164339Y-45614923D01*
X107020896Y-45812357D01*
X106910097Y-46029812D01*
X106834678Y-46261927D01*
X106796500Y-46502973D01*
X103462716Y-46502973D01*
X103487610Y-46447409D01*
X103487612Y-46447403D01*
X103507895Y-46402130D01*
X103570321Y-46185685D01*
X103601845Y-45962634D01*
X103601861Y-45918887D01*
X103601935Y-45918518D01*
X103601888Y-45849128D01*
X103601888Y-45771073D01*
X103601888Y-45764601D01*
X103601829Y-45763573D01*
X103601710Y-45587621D01*
X103601139Y-44745536D01*
X103620778Y-44678487D01*
X103660043Y-44639917D01*
X103728047Y-44597972D01*
X103847971Y-44478048D01*
X103937006Y-44333701D01*
X103990352Y-44172712D01*
X104000503Y-44073349D01*
X104000502Y-43526660D01*
X103990352Y-43427296D01*
X103937006Y-43266307D01*
X103937002Y-43266301D01*
X103937001Y-43266298D01*
X103847973Y-43121963D01*
X103847970Y-43121959D01*
X103728047Y-43002036D01*
X103728043Y-43002033D01*
X103583708Y-42913005D01*
X103583702Y-42913002D01*
X103583700Y-42913001D01*
X103452277Y-42869452D01*
X103422712Y-42859655D01*
X103323349Y-42849504D01*
X102476665Y-42849504D01*
X102476647Y-42849505D01*
X102377295Y-42859654D01*
X102377292Y-42859655D01*
X102216308Y-42913000D01*
X102216297Y-42913005D01*
X102071962Y-43002033D01*
X102071958Y-43002036D01*
X101952035Y-43121959D01*
X101952032Y-43121963D01*
X101863004Y-43266298D01*
X101862999Y-43266309D01*
X101809654Y-43427294D01*
X101799503Y-43526651D01*
X101799503Y-44073341D01*
X101799504Y-44073359D01*
X101809653Y-44172711D01*
X101809654Y-44172714D01*
X101862999Y-44333698D01*
X101863004Y-44333709D01*
X101952032Y-44478044D01*
X101952035Y-44478048D01*
X102071959Y-44597972D01*
X102141237Y-44640703D01*
X102187960Y-44692650D01*
X102200139Y-44746157D01*
X102200881Y-45839780D01*
X102199221Y-45860085D01*
X102193546Y-45894419D01*
X102180534Y-45932707D01*
X102168961Y-45954332D01*
X102144312Y-45986407D01*
X102136550Y-45993663D01*
X102116467Y-46007764D01*
X102116805Y-46008275D01*
X102110996Y-46012118D01*
X102110994Y-46012120D01*
X102110993Y-46012121D01*
X102084871Y-46033976D01*
X102074089Y-46042043D01*
X102045765Y-46060926D01*
X102045758Y-46060932D01*
X102024320Y-46083560D01*
X102013883Y-46093372D01*
X101766926Y-46300029D01*
X101766898Y-46300054D01*
X101224589Y-46802728D01*
X101224581Y-46802736D01*
X100708458Y-47332262D01*
X100219832Y-47887292D01*
X99760001Y-48466353D01*
X99330107Y-49068003D01*
X99330088Y-49068030D01*
X98931262Y-49690691D01*
X98564504Y-50332799D01*
X98230784Y-50992663D01*
X98230784Y-50992664D01*
X97930947Y-51668605D01*
X97930942Y-51668617D01*
X97930942Y-51668618D01*
X97930941Y-51668619D01*
X97665772Y-52358870D01*
X97435934Y-53061699D01*
X97392826Y-53220339D01*
X97242025Y-53775293D01*
X97084549Y-54497789D01*
X97084548Y-54497796D01*
X97084547Y-54497797D01*
X96963910Y-55227337D01*
X96963909Y-55227346D01*
X96880416Y-55962056D01*
X96880415Y-55962067D01*
X96834284Y-56700044D01*
X96834283Y-56700070D01*
X96834283Y-56700087D01*
X96825629Y-57439494D01*
X93696900Y-57439494D01*
X93714657Y-40226643D01*
X101799497Y-40226643D01*
X101799497Y-40773333D01*
X101799498Y-40773351D01*
X101809647Y-40872703D01*
X101809648Y-40872706D01*
X101862993Y-41033690D01*
X101862998Y-41033701D01*
X101952026Y-41178036D01*
X101952029Y-41178040D01*
X102071952Y-41297963D01*
X102071956Y-41297966D01*
X102216291Y-41386994D01*
X102216294Y-41386995D01*
X102216300Y-41386999D01*
X102377289Y-41440345D01*
X102476652Y-41450496D01*
X103323341Y-41450495D01*
X103323349Y-41450494D01*
X103323352Y-41450494D01*
X103377757Y-41444936D01*
X103422705Y-41440345D01*
X103583694Y-41386999D01*
X103728041Y-41297964D01*
X103847965Y-41178040D01*
X103937000Y-41033693D01*
X103990346Y-40872704D01*
X104000497Y-40773341D01*
X104000496Y-40441520D01*
X104020180Y-40374482D01*
X104036810Y-40353845D01*
X104983838Y-39406819D01*
X105045161Y-39373334D01*
X105071519Y-39370500D01*
X108380264Y-39370500D01*
X108447303Y-39390185D01*
X108493058Y-39442989D01*
X108497970Y-39455495D01*
X108509184Y-39489337D01*
X108601283Y-39638651D01*
X108601286Y-39638655D01*
X108725341Y-39762710D01*
X108725345Y-39762713D01*
X108874659Y-39854812D01*
X108874661Y-39854813D01*
X108874663Y-39854814D01*
X109041200Y-39909999D01*
X109143989Y-39920500D01*
X109143994Y-39920500D01*
X110244000Y-39920500D01*
X110244005Y-39920500D01*
X110346794Y-39909999D01*
X110513331Y-39854814D01*
X110662652Y-39762711D01*
X110786708Y-39638655D01*
X110878811Y-39489334D01*
X110933996Y-39322797D01*
X110944497Y-39220008D01*
X110944497Y-38119992D01*
X110933996Y-38017203D01*
X110878811Y-37850666D01*
X110786708Y-37701345D01*
X110662652Y-37577289D01*
X110662648Y-37577286D01*
X110513334Y-37485187D01*
X110513332Y-37485186D01*
X110408052Y-37450300D01*
X110346794Y-37430001D01*
X110346792Y-37430000D01*
X110244012Y-37419500D01*
X110244005Y-37419500D01*
X109143989Y-37419500D01*
X109143981Y-37419500D01*
X109041201Y-37430000D01*
X109041200Y-37430001D01*
X108874661Y-37485186D01*
X108874659Y-37485187D01*
X108725345Y-37577286D01*
X108725341Y-37577289D01*
X108601286Y-37701344D01*
X108601283Y-37701348D01*
X108509184Y-37850662D01*
X108497970Y-37884505D01*
X108458197Y-37941949D01*
X108393681Y-37968772D01*
X108380264Y-37969500D01*
X104661003Y-37969500D01*
X104552590Y-37991065D01*
X104552589Y-37991065D01*
X104525671Y-37996420D01*
X104398190Y-38049224D01*
X104283454Y-38125887D01*
X102896164Y-39513177D01*
X102834841Y-39546662D01*
X102808483Y-39549496D01*
X102476660Y-39549496D01*
X102476641Y-39549497D01*
X102377289Y-39559646D01*
X102377286Y-39559647D01*
X102216302Y-39612992D01*
X102216291Y-39612997D01*
X102071956Y-39702025D01*
X102071952Y-39702028D01*
X101952029Y-39821951D01*
X101952026Y-39821955D01*
X101862998Y-39966290D01*
X101862993Y-39966301D01*
X101809648Y-40127286D01*
X101799497Y-40226643D01*
X93714657Y-40226643D01*
X93717652Y-37323926D01*
X93717720Y-37323674D01*
X93717720Y-37260689D01*
X93717723Y-37260676D01*
X93717869Y-37254737D01*
X93735718Y-36891450D01*
X93736911Y-36879340D01*
X93757653Y-36739517D01*
X93789836Y-36522563D01*
X93792209Y-36510632D01*
X93798719Y-36484642D01*
X93879855Y-36160735D01*
X93883375Y-36149133D01*
X94004900Y-35809500D01*
X94009542Y-35798294D01*
X94116775Y-35571571D01*
X108443507Y-35571571D01*
X108443507Y-35768416D01*
X108474297Y-35962820D01*
X108535124Y-36150023D01*
X108624354Y-36325145D01*
X108624483Y-36325399D01*
X108740179Y-36484640D01*
X108879361Y-36623822D01*
X109038602Y-36739518D01*
X109121462Y-36781737D01*
X109213977Y-36828876D01*
X109213979Y-36828876D01*
X109213982Y-36828878D01*
X109314324Y-36861481D01*
X109401180Y-36889703D01*
X109595585Y-36920494D01*
X109595590Y-36920494D01*
X109792429Y-36920494D01*
X109986833Y-36889703D01*
X110000178Y-36885367D01*
X110174032Y-36828878D01*
X110349412Y-36739518D01*
X110508653Y-36623822D01*
X110647835Y-36484640D01*
X110763531Y-36325399D01*
X110852891Y-36150019D01*
X110913716Y-35962820D01*
X110913734Y-35962707D01*
X110944507Y-35768416D01*
X110944507Y-35571619D01*
X111444001Y-35571619D01*
X111444001Y-35768384D01*
X111474779Y-35962707D01*
X111535582Y-36149837D01*
X111624906Y-36325147D01*
X111650320Y-36360127D01*
X111650321Y-36360127D01*
X112202872Y-35807576D01*
X112218756Y-35866855D01*
X112285899Y-35983149D01*
X112380854Y-36078104D01*
X112497148Y-36145247D01*
X112556425Y-36161130D01*
X112003874Y-36713679D01*
X112003874Y-36713680D01*
X112038859Y-36739098D01*
X112214165Y-36828420D01*
X112401295Y-36889223D01*
X112595619Y-36920002D01*
X112792383Y-36920002D01*
X112986706Y-36889223D01*
X113173836Y-36828420D01*
X113349144Y-36739097D01*
X113384126Y-36713680D01*
X113384127Y-36713680D01*
X112831576Y-36161129D01*
X112890854Y-36145247D01*
X113007148Y-36078104D01*
X113102103Y-35983149D01*
X113169246Y-35866855D01*
X113185128Y-35807577D01*
X113737679Y-36360128D01*
X113737679Y-36360127D01*
X113763096Y-36325145D01*
X113852419Y-36149837D01*
X113913222Y-35962707D01*
X113944001Y-35768384D01*
X113944001Y-35571619D01*
X113913222Y-35377296D01*
X113852419Y-35190166D01*
X113763097Y-35014860D01*
X113737679Y-34979875D01*
X113737678Y-34979875D01*
X113185128Y-35532425D01*
X113169246Y-35473149D01*
X113102103Y-35356855D01*
X113007148Y-35261900D01*
X112890854Y-35194757D01*
X112831575Y-35178873D01*
X113355358Y-34655090D01*
X114933496Y-34655090D01*
X114933496Y-34804905D01*
X114962719Y-34951820D01*
X114962721Y-34951828D01*
X115020047Y-35090227D01*
X115020052Y-35090236D01*
X115103276Y-35214788D01*
X115103279Y-35214792D01*
X115209201Y-35320714D01*
X115209205Y-35320717D01*
X115333757Y-35403941D01*
X115333766Y-35403946D01*
X115333771Y-35403948D01*
X115472166Y-35461273D01*
X115619088Y-35490497D01*
X115619092Y-35490498D01*
X115619093Y-35490498D01*
X115768900Y-35490498D01*
X115768901Y-35490497D01*
X115915826Y-35461273D01*
X116054228Y-35403945D01*
X116178787Y-35320717D01*
X116284715Y-35214789D01*
X116367943Y-35090230D01*
X116425271Y-34951828D01*
X116454496Y-34804901D01*
X116454496Y-34655095D01*
X116454495Y-34655092D01*
X116454495Y-34655090D01*
X116448773Y-34626321D01*
X116425271Y-34508168D01*
X116367943Y-34369766D01*
X116367940Y-34369761D01*
X116367939Y-34369759D01*
X116284715Y-34245207D01*
X116284712Y-34245203D01*
X116178790Y-34139281D01*
X116178786Y-34139278D01*
X116054234Y-34056054D01*
X116054225Y-34056049D01*
X115915826Y-33998723D01*
X115915818Y-33998721D01*
X115768903Y-33969498D01*
X115768899Y-33969498D01*
X115619093Y-33969498D01*
X115619088Y-33969498D01*
X115472173Y-33998721D01*
X115472165Y-33998723D01*
X115333766Y-34056049D01*
X115333757Y-34056054D01*
X115209205Y-34139278D01*
X115209201Y-34139281D01*
X115103279Y-34245203D01*
X115103276Y-34245207D01*
X115020052Y-34369759D01*
X115020047Y-34369768D01*
X114962721Y-34508167D01*
X114962719Y-34508175D01*
X114933496Y-34655090D01*
X113355358Y-34655090D01*
X113384126Y-34626322D01*
X113384126Y-34626321D01*
X113349146Y-34600907D01*
X113173836Y-34511583D01*
X112986706Y-34450780D01*
X112792383Y-34420002D01*
X112595619Y-34420002D01*
X112401295Y-34450780D01*
X112214162Y-34511584D01*
X112038864Y-34600901D01*
X112038860Y-34600904D01*
X112003874Y-34626322D01*
X112003873Y-34626322D01*
X112556426Y-35178873D01*
X112497148Y-35194757D01*
X112380854Y-35261900D01*
X112285899Y-35356855D01*
X112218756Y-35473149D01*
X112202872Y-35532426D01*
X111650321Y-34979874D01*
X111650321Y-34979875D01*
X111624903Y-35014861D01*
X111624900Y-35014865D01*
X111535583Y-35190163D01*
X111474779Y-35377296D01*
X111444001Y-35571619D01*
X110944507Y-35571619D01*
X110944507Y-35571571D01*
X110913716Y-35377167D01*
X110860957Y-35214794D01*
X110852891Y-35189969D01*
X110852889Y-35189966D01*
X110852889Y-35189964D01*
X110775993Y-35039047D01*
X110763531Y-35014589D01*
X110647835Y-34855348D01*
X110508653Y-34716166D01*
X110349412Y-34600470D01*
X110174036Y-34511111D01*
X109986833Y-34450284D01*
X109792429Y-34419494D01*
X109792424Y-34419494D01*
X109595590Y-34419494D01*
X109595585Y-34419494D01*
X109401180Y-34450284D01*
X109213977Y-34511111D01*
X109038601Y-34600470D01*
X108963416Y-34655096D01*
X108879361Y-34716166D01*
X108879359Y-34716168D01*
X108879358Y-34716168D01*
X108740181Y-34855345D01*
X108740181Y-34855346D01*
X108740179Y-34855348D01*
X108690492Y-34923735D01*
X108624483Y-35014588D01*
X108535124Y-35189964D01*
X108474297Y-35377167D01*
X108443507Y-35571571D01*
X94116775Y-35571571D01*
X94163768Y-35472215D01*
X94169486Y-35461515D01*
X94354936Y-35152114D01*
X94361677Y-35142026D01*
X94576547Y-34852310D01*
X94584248Y-34842925D01*
X94754491Y-34655092D01*
X105933497Y-34655092D01*
X105933497Y-34804907D01*
X105962720Y-34951822D01*
X105962722Y-34951830D01*
X106020048Y-35090229D01*
X106020053Y-35090238D01*
X106103277Y-35214790D01*
X106103280Y-35214794D01*
X106209202Y-35320716D01*
X106209206Y-35320719D01*
X106333758Y-35403943D01*
X106333764Y-35403946D01*
X106333765Y-35403947D01*
X106472167Y-35461275D01*
X106619079Y-35490497D01*
X106619089Y-35490499D01*
X106619093Y-35490500D01*
X106619094Y-35490500D01*
X106768901Y-35490500D01*
X106768902Y-35490499D01*
X106915827Y-35461275D01*
X107054229Y-35403947D01*
X107178788Y-35320719D01*
X107284716Y-35214791D01*
X107367944Y-35090232D01*
X107425272Y-34951830D01*
X107454497Y-34804903D01*
X107454497Y-34655097D01*
X107454496Y-34655094D01*
X107454496Y-34655092D01*
X107443718Y-34600907D01*
X107425272Y-34508170D01*
X107367944Y-34369768D01*
X107367943Y-34369766D01*
X107367940Y-34369761D01*
X107284716Y-34245209D01*
X107284713Y-34245205D01*
X107178791Y-34139283D01*
X107178787Y-34139280D01*
X107054235Y-34056056D01*
X107054226Y-34056051D01*
X106915827Y-33998725D01*
X106915819Y-33998723D01*
X106768904Y-33969500D01*
X106768900Y-33969500D01*
X106619094Y-33969500D01*
X106619089Y-33969500D01*
X106472174Y-33998723D01*
X106472166Y-33998725D01*
X106333767Y-34056051D01*
X106333758Y-34056056D01*
X106209206Y-34139280D01*
X106209202Y-34139283D01*
X106103280Y-34245205D01*
X106103277Y-34245209D01*
X106020053Y-34369761D01*
X106020048Y-34369770D01*
X105962722Y-34508169D01*
X105962720Y-34508177D01*
X105933497Y-34655092D01*
X94754491Y-34655092D01*
X94826499Y-34575644D01*
X94835079Y-34567065D01*
X95102352Y-34324827D01*
X95111727Y-34317132D01*
X95401442Y-34102268D01*
X95411558Y-34095509D01*
X95720929Y-33910080D01*
X95731654Y-33904347D01*
X96057715Y-33750133D01*
X96068941Y-33745483D01*
X96408570Y-33623963D01*
X96420182Y-33620442D01*
X96770072Y-33532800D01*
X96781994Y-33530429D01*
X97138781Y-33477507D01*
X97150876Y-33476315D01*
X97515001Y-33458428D01*
X97521078Y-33458280D01*
X97583110Y-33458281D01*
X97583114Y-33458280D01*
X124851326Y-33458280D01*
X124914166Y-33458280D01*
X124920250Y-33458428D01*
G37*
%TD.AperFunction*%
%TD*%
M02*
