%TF.GenerationSoftware,KiCad,Pcbnew,9.0.4*%
%TF.CreationDate,2026-01-24T18:49:14+00:00*%
%TF.ProjectId,rotary-switch,726f7461-7279-42d7-9377-697463682e6b,rev?*%
%TF.SameCoordinates,Original*%
%TF.FileFunction,Legend,Bot*%
%TF.FilePolarity,Positive*%
%FSLAX46Y46*%
G04 Gerber Fmt 4.6, Leading zero omitted, Abs format (unit mm)*
G04 Created by KiCad (PCBNEW 9.0.4) date 2026-01-24 18:49:14*
%MOMM*%
%LPD*%
G01*
G04 APERTURE LIST*
%ADD10C,0.200000*%
%ADD11C,0.150000*%
%ADD12C,0.120000*%
%ADD13C,0.000000*%
%ADD14C,0.100000*%
G04 APERTURE END LIST*
D10*
X126956027Y-43195862D02*
X126241741Y-42695862D01*
X126956027Y-42338719D02*
X125456027Y-42338719D01*
X125456027Y-42338719D02*
X125456027Y-42910148D01*
X125456027Y-42910148D02*
X125527456Y-43053005D01*
X125527456Y-43053005D02*
X125598884Y-43124434D01*
X125598884Y-43124434D02*
X125741741Y-43195862D01*
X125741741Y-43195862D02*
X125956027Y-43195862D01*
X125956027Y-43195862D02*
X126098884Y-43124434D01*
X126098884Y-43124434D02*
X126170313Y-43053005D01*
X126170313Y-43053005D02*
X126241741Y-42910148D01*
X126241741Y-42910148D02*
X126241741Y-42338719D01*
X126956027Y-44053005D02*
X126884599Y-43910148D01*
X126884599Y-43910148D02*
X126813170Y-43838719D01*
X126813170Y-43838719D02*
X126670313Y-43767291D01*
X126670313Y-43767291D02*
X126241741Y-43767291D01*
X126241741Y-43767291D02*
X126098884Y-43838719D01*
X126098884Y-43838719D02*
X126027456Y-43910148D01*
X126027456Y-43910148D02*
X125956027Y-44053005D01*
X125956027Y-44053005D02*
X125956027Y-44267291D01*
X125956027Y-44267291D02*
X126027456Y-44410148D01*
X126027456Y-44410148D02*
X126098884Y-44481577D01*
X126098884Y-44481577D02*
X126241741Y-44553005D01*
X126241741Y-44553005D02*
X126670313Y-44553005D01*
X126670313Y-44553005D02*
X126813170Y-44481577D01*
X126813170Y-44481577D02*
X126884599Y-44410148D01*
X126884599Y-44410148D02*
X126956027Y-44267291D01*
X126956027Y-44267291D02*
X126956027Y-44053005D01*
X125956027Y-44981577D02*
X125956027Y-45553005D01*
X125456027Y-45195862D02*
X126741741Y-45195862D01*
X126741741Y-45195862D02*
X126884599Y-45267291D01*
X126884599Y-45267291D02*
X126956027Y-45410148D01*
X126956027Y-45410148D02*
X126956027Y-45553005D01*
X126956027Y-46695863D02*
X126170313Y-46695863D01*
X126170313Y-46695863D02*
X126027456Y-46624434D01*
X126027456Y-46624434D02*
X125956027Y-46481577D01*
X125956027Y-46481577D02*
X125956027Y-46195863D01*
X125956027Y-46195863D02*
X126027456Y-46053005D01*
X126884599Y-46695863D02*
X126956027Y-46553005D01*
X126956027Y-46553005D02*
X126956027Y-46195863D01*
X126956027Y-46195863D02*
X126884599Y-46053005D01*
X126884599Y-46053005D02*
X126741741Y-45981577D01*
X126741741Y-45981577D02*
X126598884Y-45981577D01*
X126598884Y-45981577D02*
X126456027Y-46053005D01*
X126456027Y-46053005D02*
X126384599Y-46195863D01*
X126384599Y-46195863D02*
X126384599Y-46553005D01*
X126384599Y-46553005D02*
X126313170Y-46695863D01*
X126956027Y-47410148D02*
X125956027Y-47410148D01*
X126241741Y-47410148D02*
X126098884Y-47481577D01*
X126098884Y-47481577D02*
X126027456Y-47553006D01*
X126027456Y-47553006D02*
X125956027Y-47695863D01*
X125956027Y-47695863D02*
X125956027Y-47838720D01*
X125956027Y-48195862D02*
X126956027Y-48553005D01*
X125956027Y-48910148D02*
X126956027Y-48553005D01*
X126956027Y-48553005D02*
X127313170Y-48410148D01*
X127313170Y-48410148D02*
X127384599Y-48338719D01*
X127384599Y-48338719D02*
X127456027Y-48195862D01*
X126884599Y-50553005D02*
X126956027Y-50767291D01*
X126956027Y-50767291D02*
X126956027Y-51124433D01*
X126956027Y-51124433D02*
X126884599Y-51267291D01*
X126884599Y-51267291D02*
X126813170Y-51338719D01*
X126813170Y-51338719D02*
X126670313Y-51410148D01*
X126670313Y-51410148D02*
X126527456Y-51410148D01*
X126527456Y-51410148D02*
X126384599Y-51338719D01*
X126384599Y-51338719D02*
X126313170Y-51267291D01*
X126313170Y-51267291D02*
X126241741Y-51124433D01*
X126241741Y-51124433D02*
X126170313Y-50838719D01*
X126170313Y-50838719D02*
X126098884Y-50695862D01*
X126098884Y-50695862D02*
X126027456Y-50624433D01*
X126027456Y-50624433D02*
X125884599Y-50553005D01*
X125884599Y-50553005D02*
X125741741Y-50553005D01*
X125741741Y-50553005D02*
X125598884Y-50624433D01*
X125598884Y-50624433D02*
X125527456Y-50695862D01*
X125527456Y-50695862D02*
X125456027Y-50838719D01*
X125456027Y-50838719D02*
X125456027Y-51195862D01*
X125456027Y-51195862D02*
X125527456Y-51410148D01*
X125956027Y-51910147D02*
X126956027Y-52195862D01*
X126956027Y-52195862D02*
X126241741Y-52481576D01*
X126241741Y-52481576D02*
X126956027Y-52767290D01*
X126956027Y-52767290D02*
X125956027Y-53053004D01*
X126956027Y-53624433D02*
X125956027Y-53624433D01*
X125456027Y-53624433D02*
X125527456Y-53553005D01*
X125527456Y-53553005D02*
X125598884Y-53624433D01*
X125598884Y-53624433D02*
X125527456Y-53695862D01*
X125527456Y-53695862D02*
X125456027Y-53624433D01*
X125456027Y-53624433D02*
X125598884Y-53624433D01*
X125956027Y-54124434D02*
X125956027Y-54695862D01*
X125456027Y-54338719D02*
X126741741Y-54338719D01*
X126741741Y-54338719D02*
X126884599Y-54410148D01*
X126884599Y-54410148D02*
X126956027Y-54553005D01*
X126956027Y-54553005D02*
X126956027Y-54695862D01*
X126884599Y-55838720D02*
X126956027Y-55695862D01*
X126956027Y-55695862D02*
X126956027Y-55410148D01*
X126956027Y-55410148D02*
X126884599Y-55267291D01*
X126884599Y-55267291D02*
X126813170Y-55195862D01*
X126813170Y-55195862D02*
X126670313Y-55124434D01*
X126670313Y-55124434D02*
X126241741Y-55124434D01*
X126241741Y-55124434D02*
X126098884Y-55195862D01*
X126098884Y-55195862D02*
X126027456Y-55267291D01*
X126027456Y-55267291D02*
X125956027Y-55410148D01*
X125956027Y-55410148D02*
X125956027Y-55695862D01*
X125956027Y-55695862D02*
X126027456Y-55838720D01*
X126956027Y-56481576D02*
X125456027Y-56481576D01*
X126956027Y-57124434D02*
X126170313Y-57124434D01*
X126170313Y-57124434D02*
X126027456Y-57053005D01*
X126027456Y-57053005D02*
X125956027Y-56910148D01*
X125956027Y-56910148D02*
X125956027Y-56695862D01*
X125956027Y-56695862D02*
X126027456Y-56553005D01*
X126027456Y-56553005D02*
X126098884Y-56481576D01*
G36*
X126546226Y-64541844D02*
G01*
X126661017Y-64584891D01*
X126704977Y-64623355D01*
X126756028Y-64719076D01*
X126756028Y-64814580D01*
X126700266Y-64933075D01*
X126647980Y-64991896D01*
X126525813Y-65068250D01*
X126260513Y-65167738D01*
X125927457Y-65209370D01*
X125665827Y-65176666D01*
X125551038Y-65133620D01*
X125507080Y-65095156D01*
X125456028Y-64999434D01*
X125456028Y-64903931D01*
X125511791Y-64785434D01*
X125564074Y-64726615D01*
X125686239Y-64650262D01*
X125951544Y-64550773D01*
X126284600Y-64509141D01*
X126546226Y-64541844D01*
G37*
G36*
X126546226Y-62398987D02*
G01*
X126661017Y-62442034D01*
X126704977Y-62480498D01*
X126756028Y-62576219D01*
X126756028Y-62671723D01*
X126700266Y-62790218D01*
X126647980Y-62849039D01*
X126525813Y-62925393D01*
X126260513Y-63024881D01*
X125927457Y-63066513D01*
X125665827Y-63033809D01*
X125551038Y-62990763D01*
X125507080Y-62952299D01*
X125456028Y-62856577D01*
X125456028Y-62761074D01*
X125511791Y-62642577D01*
X125564074Y-62583758D01*
X125686239Y-62507405D01*
X125951544Y-62407916D01*
X126284600Y-62366284D01*
X126546226Y-62398987D01*
G37*
G36*
X127122695Y-65576557D02*
G01*
X125089361Y-65576557D01*
X125089361Y-64881577D01*
X125256028Y-64881577D01*
X125256028Y-65024434D01*
X125257949Y-65043943D01*
X125259829Y-65048483D01*
X125260307Y-65053375D01*
X125267793Y-65071493D01*
X125339222Y-65205422D01*
X125347311Y-65217553D01*
X125348189Y-65219328D01*
X125349244Y-65220451D01*
X125350097Y-65221731D01*
X125351622Y-65222984D01*
X125361606Y-65233620D01*
X125433035Y-65296121D01*
X125444688Y-65304452D01*
X125446181Y-65305847D01*
X125447647Y-65306568D01*
X125448982Y-65307522D01*
X125450923Y-65308178D01*
X125463773Y-65314496D01*
X125606630Y-65368067D01*
X125609184Y-65368748D01*
X125610218Y-65369336D01*
X125617942Y-65371083D01*
X125625571Y-65373118D01*
X125626755Y-65373077D01*
X125629338Y-65373662D01*
X125915054Y-65409377D01*
X125918750Y-65409473D01*
X125920264Y-65409890D01*
X125927457Y-65409701D01*
X125934650Y-65409890D01*
X125936163Y-65409473D01*
X125939861Y-65409377D01*
X126297003Y-65364734D01*
X126299585Y-65364149D01*
X126300771Y-65364190D01*
X126308405Y-65362154D01*
X126316123Y-65360408D01*
X126317155Y-65359820D01*
X126319712Y-65359139D01*
X126605427Y-65251996D01*
X126605635Y-65251893D01*
X126605752Y-65251874D01*
X126614397Y-65247585D01*
X126623019Y-65243347D01*
X126623104Y-65243266D01*
X126623314Y-65243163D01*
X126766171Y-65153877D01*
X126771405Y-65149841D01*
X126773515Y-65148819D01*
X126777452Y-65145179D01*
X126781697Y-65141908D01*
X126783057Y-65140000D01*
X126787912Y-65135514D01*
X126859340Y-65055157D01*
X126863288Y-65049725D01*
X126865037Y-65048134D01*
X126867750Y-65043585D01*
X126870866Y-65039300D01*
X126871641Y-65037065D01*
X126875082Y-65031299D01*
X126946510Y-64879513D01*
X126953079Y-64861043D01*
X126953191Y-64858652D01*
X126954107Y-64856443D01*
X126956028Y-64836934D01*
X126956028Y-64694077D01*
X126954107Y-64674568D01*
X126952226Y-64670027D01*
X126951749Y-64665136D01*
X126944263Y-64647018D01*
X126872835Y-64513090D01*
X126864741Y-64500952D01*
X126863867Y-64499183D01*
X126862815Y-64498062D01*
X126861960Y-64496780D01*
X126860430Y-64495522D01*
X126850450Y-64484891D01*
X126779021Y-64422391D01*
X126767371Y-64414062D01*
X126765876Y-64412665D01*
X126764405Y-64411942D01*
X126763074Y-64410990D01*
X126761135Y-64410334D01*
X126748284Y-64404016D01*
X126605427Y-64350444D01*
X126602869Y-64349761D01*
X126601837Y-64349175D01*
X126594121Y-64347429D01*
X126586485Y-64345393D01*
X126585299Y-64345433D01*
X126582717Y-64344849D01*
X126297003Y-64309135D01*
X126293306Y-64309038D01*
X126291793Y-64308622D01*
X126284599Y-64308810D01*
X126277407Y-64308622D01*
X126275893Y-64309038D01*
X126272196Y-64309135D01*
X125915053Y-64353778D01*
X125912470Y-64354362D01*
X125911286Y-64354322D01*
X125903657Y-64356356D01*
X125895933Y-64358104D01*
X125894899Y-64358691D01*
X125892345Y-64359373D01*
X125606630Y-64466516D01*
X125606418Y-64466619D01*
X125606304Y-64466639D01*
X125597719Y-64470896D01*
X125589037Y-64475165D01*
X125588951Y-64475245D01*
X125588742Y-64475349D01*
X125445885Y-64564634D01*
X125440648Y-64568671D01*
X125438541Y-64569693D01*
X125434605Y-64573329D01*
X125430360Y-64576603D01*
X125428999Y-64578510D01*
X125424144Y-64582998D01*
X125352716Y-64663355D01*
X125348768Y-64668785D01*
X125347020Y-64670377D01*
X125344303Y-64674930D01*
X125341191Y-64679212D01*
X125340417Y-64681442D01*
X125336975Y-64687211D01*
X125265546Y-64838997D01*
X125258977Y-64857467D01*
X125258864Y-64859858D01*
X125257949Y-64862068D01*
X125256028Y-64881577D01*
X125089361Y-64881577D01*
X125089361Y-63704741D01*
X126613430Y-63704741D01*
X126615450Y-63720907D01*
X126616407Y-63737168D01*
X126616580Y-63737525D01*
X126616607Y-63737924D01*
X126617905Y-63740549D01*
X126618269Y-63743457D01*
X126626319Y-63757614D01*
X126633429Y-63772278D01*
X126633728Y-63772544D01*
X126633904Y-63772899D01*
X126636713Y-63775892D01*
X126637557Y-63777375D01*
X126639589Y-63778956D01*
X126647321Y-63787192D01*
X126718750Y-63849692D01*
X126733501Y-63860238D01*
X126734021Y-63860700D01*
X126734266Y-63860785D01*
X126734697Y-63861093D01*
X126752831Y-63867225D01*
X126770884Y-63873489D01*
X126771281Y-63873465D01*
X126771658Y-63873593D01*
X126790674Y-63872324D01*
X126809835Y-63871198D01*
X126810195Y-63871023D01*
X126810590Y-63870997D01*
X126827672Y-63862549D01*
X126844944Y-63854175D01*
X126845332Y-63853815D01*
X126845565Y-63853701D01*
X126846021Y-63853178D01*
X126859341Y-63840870D01*
X126930769Y-63760513D01*
X126942295Y-63744655D01*
X126942424Y-63744280D01*
X126942687Y-63743981D01*
X126943626Y-63741203D01*
X126945424Y-63738892D01*
X126949743Y-63723183D01*
X126955083Y-63707793D01*
X126955059Y-63707395D01*
X126955187Y-63707019D01*
X126954992Y-63704098D01*
X126955770Y-63701270D01*
X126953747Y-63685094D01*
X126952792Y-63668842D01*
X126952618Y-63668483D01*
X126952592Y-63668088D01*
X126951293Y-63665462D01*
X126950930Y-63662553D01*
X126942876Y-63648391D01*
X126935769Y-63633732D01*
X126935472Y-63633468D01*
X126935296Y-63633112D01*
X126932483Y-63630116D01*
X126931642Y-63628636D01*
X126929611Y-63627056D01*
X126921879Y-63618820D01*
X126850451Y-63556320D01*
X126835694Y-63545769D01*
X126835179Y-63545311D01*
X126834935Y-63545226D01*
X126834504Y-63544918D01*
X126816349Y-63538778D01*
X126798316Y-63532522D01*
X126797918Y-63532545D01*
X126797542Y-63532418D01*
X126778397Y-63533694D01*
X126759365Y-63534814D01*
X126759009Y-63534986D01*
X126758610Y-63535013D01*
X126741373Y-63543536D01*
X126724256Y-63551836D01*
X126723869Y-63552192D01*
X126723635Y-63552309D01*
X126723173Y-63552836D01*
X126709859Y-63565141D01*
X126638430Y-63645497D01*
X126626905Y-63661355D01*
X126626774Y-63661730D01*
X126626512Y-63662031D01*
X126625573Y-63664807D01*
X126623775Y-63667119D01*
X126619456Y-63682825D01*
X126614116Y-63698218D01*
X126614139Y-63698616D01*
X126614012Y-63698993D01*
X126614206Y-63701915D01*
X126613430Y-63704741D01*
X125089361Y-63704741D01*
X125089361Y-62738720D01*
X125256028Y-62738720D01*
X125256028Y-62881577D01*
X125257949Y-62901086D01*
X125259829Y-62905626D01*
X125260307Y-62910518D01*
X125267793Y-62928636D01*
X125339222Y-63062565D01*
X125347311Y-63074696D01*
X125348189Y-63076471D01*
X125349244Y-63077594D01*
X125350097Y-63078874D01*
X125351622Y-63080127D01*
X125361606Y-63090763D01*
X125433035Y-63153264D01*
X125444688Y-63161595D01*
X125446181Y-63162990D01*
X125447647Y-63163711D01*
X125448982Y-63164665D01*
X125450923Y-63165321D01*
X125463773Y-63171639D01*
X125606630Y-63225210D01*
X125609184Y-63225891D01*
X125610218Y-63226479D01*
X125617942Y-63228226D01*
X125625571Y-63230261D01*
X125626755Y-63230220D01*
X125629338Y-63230805D01*
X125915054Y-63266520D01*
X125918750Y-63266616D01*
X125920264Y-63267033D01*
X125927457Y-63266844D01*
X125934650Y-63267033D01*
X125936163Y-63266616D01*
X125939861Y-63266520D01*
X126297003Y-63221877D01*
X126299585Y-63221292D01*
X126300771Y-63221333D01*
X126308405Y-63219297D01*
X126316123Y-63217551D01*
X126317155Y-63216963D01*
X126319712Y-63216282D01*
X126605427Y-63109139D01*
X126605635Y-63109036D01*
X126605752Y-63109017D01*
X126614397Y-63104728D01*
X126623019Y-63100490D01*
X126623104Y-63100409D01*
X126623314Y-63100306D01*
X126766171Y-63011020D01*
X126771405Y-63006984D01*
X126773515Y-63005962D01*
X126777452Y-63002322D01*
X126781697Y-62999051D01*
X126783057Y-62997143D01*
X126787912Y-62992657D01*
X126859340Y-62912300D01*
X126863288Y-62906868D01*
X126865037Y-62905277D01*
X126867750Y-62900728D01*
X126870866Y-62896443D01*
X126871641Y-62894208D01*
X126875082Y-62888442D01*
X126946510Y-62736656D01*
X126953079Y-62718186D01*
X126953191Y-62715795D01*
X126954107Y-62713586D01*
X126956028Y-62694077D01*
X126956028Y-62551220D01*
X126954107Y-62531711D01*
X126952226Y-62527170D01*
X126951749Y-62522279D01*
X126944263Y-62504161D01*
X126872835Y-62370233D01*
X126864741Y-62358095D01*
X126863867Y-62356326D01*
X126862815Y-62355205D01*
X126861960Y-62353923D01*
X126860430Y-62352665D01*
X126850450Y-62342034D01*
X126779021Y-62279534D01*
X126767371Y-62271205D01*
X126765876Y-62269808D01*
X126764405Y-62269085D01*
X126763074Y-62268133D01*
X126761135Y-62267477D01*
X126748284Y-62261159D01*
X126605427Y-62207587D01*
X126602869Y-62206904D01*
X126601837Y-62206318D01*
X126594121Y-62204572D01*
X126586485Y-62202536D01*
X126585299Y-62202576D01*
X126582717Y-62201992D01*
X126297003Y-62166278D01*
X126293306Y-62166181D01*
X126291793Y-62165765D01*
X126284599Y-62165953D01*
X126277407Y-62165765D01*
X126275893Y-62166181D01*
X126272196Y-62166278D01*
X125915053Y-62210921D01*
X125912470Y-62211505D01*
X125911286Y-62211465D01*
X125903657Y-62213499D01*
X125895933Y-62215247D01*
X125894899Y-62215834D01*
X125892345Y-62216516D01*
X125606630Y-62323659D01*
X125606418Y-62323762D01*
X125606304Y-62323782D01*
X125597719Y-62328039D01*
X125589037Y-62332308D01*
X125588951Y-62332388D01*
X125588742Y-62332492D01*
X125445885Y-62421777D01*
X125440648Y-62425814D01*
X125438541Y-62426836D01*
X125434605Y-62430472D01*
X125430360Y-62433746D01*
X125428999Y-62435653D01*
X125424144Y-62440141D01*
X125352716Y-62520498D01*
X125348768Y-62525928D01*
X125347020Y-62527520D01*
X125344303Y-62532073D01*
X125341191Y-62536355D01*
X125340417Y-62538585D01*
X125336975Y-62544354D01*
X125265546Y-62696140D01*
X125258977Y-62714610D01*
X125258864Y-62717001D01*
X125257949Y-62719211D01*
X125256028Y-62738720D01*
X125089361Y-62738720D01*
X125089361Y-61561884D01*
X126613430Y-61561884D01*
X126615450Y-61578050D01*
X126616407Y-61594311D01*
X126616580Y-61594668D01*
X126616607Y-61595067D01*
X126617905Y-61597692D01*
X126618269Y-61600600D01*
X126626319Y-61614757D01*
X126633429Y-61629421D01*
X126633728Y-61629687D01*
X126633904Y-61630042D01*
X126636713Y-61633035D01*
X126637557Y-61634518D01*
X126639589Y-61636099D01*
X126647321Y-61644335D01*
X126718750Y-61706835D01*
X126733501Y-61717381D01*
X126734021Y-61717843D01*
X126734266Y-61717928D01*
X126734697Y-61718236D01*
X126752831Y-61724368D01*
X126770884Y-61730632D01*
X126771281Y-61730608D01*
X126771658Y-61730736D01*
X126790674Y-61729467D01*
X126809835Y-61728341D01*
X126810195Y-61728166D01*
X126810590Y-61728140D01*
X126827672Y-61719692D01*
X126844944Y-61711318D01*
X126845332Y-61710958D01*
X126845565Y-61710844D01*
X126846021Y-61710321D01*
X126859341Y-61698013D01*
X126930769Y-61617656D01*
X126942295Y-61601798D01*
X126942424Y-61601423D01*
X126942687Y-61601124D01*
X126943626Y-61598346D01*
X126945424Y-61596035D01*
X126949743Y-61580326D01*
X126955083Y-61564936D01*
X126955059Y-61564538D01*
X126955187Y-61564162D01*
X126954992Y-61561241D01*
X126955770Y-61558413D01*
X126953747Y-61542237D01*
X126952792Y-61525985D01*
X126952618Y-61525626D01*
X126952592Y-61525231D01*
X126951293Y-61522605D01*
X126950930Y-61519696D01*
X126942876Y-61505534D01*
X126935769Y-61490875D01*
X126935472Y-61490611D01*
X126935296Y-61490255D01*
X126932483Y-61487259D01*
X126931642Y-61485779D01*
X126929611Y-61484199D01*
X126921879Y-61475963D01*
X126850451Y-61413463D01*
X126835694Y-61402912D01*
X126835179Y-61402454D01*
X126834935Y-61402369D01*
X126834504Y-61402061D01*
X126816349Y-61395921D01*
X126798316Y-61389665D01*
X126797918Y-61389688D01*
X126797542Y-61389561D01*
X126778397Y-61390837D01*
X126759365Y-61391957D01*
X126759009Y-61392129D01*
X126758610Y-61392156D01*
X126741373Y-61400679D01*
X126724256Y-61408979D01*
X126723869Y-61409335D01*
X126723635Y-61409452D01*
X126723173Y-61409979D01*
X126709859Y-61422284D01*
X126638430Y-61502640D01*
X126626905Y-61518498D01*
X126626774Y-61518873D01*
X126626512Y-61519174D01*
X126625573Y-61521950D01*
X126623775Y-61524262D01*
X126619456Y-61539968D01*
X126614116Y-61555361D01*
X126614139Y-61555759D01*
X126614012Y-61556136D01*
X126614206Y-61559058D01*
X126613430Y-61561884D01*
X125089361Y-61561884D01*
X125089361Y-60660099D01*
X125256287Y-60660099D01*
X125257239Y-60667718D01*
X125256353Y-60675342D01*
X125259635Y-60686892D01*
X125261126Y-60698816D01*
X125264921Y-60705490D01*
X125267020Y-60712874D01*
X125274477Y-60722293D01*
X125280414Y-60732733D01*
X125286472Y-60737445D01*
X125291239Y-60743466D01*
X125301733Y-60749314D01*
X125311213Y-60756688D01*
X125318614Y-60758723D01*
X125325321Y-60762461D01*
X125337252Y-60763848D01*
X125348835Y-60767033D01*
X125361739Y-60766695D01*
X125364078Y-60766967D01*
X125365368Y-60766600D01*
X125368431Y-60766520D01*
X126756028Y-60593070D01*
X126756028Y-60908363D01*
X126757949Y-60927872D01*
X126772881Y-60963920D01*
X126800471Y-60991510D01*
X126836519Y-61006442D01*
X126875537Y-61006442D01*
X126911585Y-60991510D01*
X126939175Y-60963920D01*
X126954107Y-60927872D01*
X126956028Y-60908363D01*
X126956028Y-60051220D01*
X126954107Y-60031711D01*
X126939175Y-59995663D01*
X126911585Y-59968073D01*
X126875537Y-59953141D01*
X126836519Y-59953141D01*
X126800471Y-59968073D01*
X126772881Y-59995663D01*
X126757949Y-60031711D01*
X126756028Y-60051220D01*
X126756028Y-60391513D01*
X125678755Y-60526172D01*
X125787912Y-60403372D01*
X125791860Y-60397939D01*
X125793608Y-60396349D01*
X125796323Y-60391797D01*
X125799437Y-60387514D01*
X125800210Y-60385283D01*
X125803653Y-60379515D01*
X125875082Y-60227729D01*
X125881651Y-60209259D01*
X125883489Y-60170284D01*
X125870273Y-60133572D01*
X125844014Y-60104712D01*
X125808710Y-60088099D01*
X125769735Y-60086260D01*
X125733023Y-60099476D01*
X125704163Y-60125735D01*
X125694118Y-60142569D01*
X125628836Y-60281291D01*
X125501386Y-60424672D01*
X125293958Y-60588887D01*
X125291754Y-60591013D01*
X125290587Y-60591678D01*
X125289140Y-60593537D01*
X125279854Y-60602503D01*
X125274005Y-60612997D01*
X125266632Y-60622477D01*
X125264596Y-60629878D01*
X125260859Y-60636585D01*
X125259471Y-60648516D01*
X125256287Y-60660099D01*
X125089361Y-60660099D01*
X125089361Y-58958760D01*
X125756078Y-58958760D01*
X125762472Y-58997251D01*
X125783108Y-59030365D01*
X125814846Y-59053062D01*
X125833415Y-59059345D01*
X126556881Y-59227292D01*
X125812598Y-59586143D01*
X125795859Y-59596346D01*
X125769873Y-59625452D01*
X125757003Y-59662287D01*
X125759209Y-59701242D01*
X125776154Y-59736389D01*
X125805260Y-59762375D01*
X125842095Y-59775245D01*
X125881050Y-59773039D01*
X125899458Y-59766297D01*
X126899458Y-59284155D01*
X126916197Y-59273952D01*
X126919830Y-59269882D01*
X126924459Y-59266998D01*
X126932722Y-59255442D01*
X126942183Y-59244846D01*
X126943982Y-59239697D01*
X126947155Y-59235260D01*
X126950367Y-59221420D01*
X126955053Y-59208011D01*
X126954744Y-59202565D01*
X126955978Y-59197253D01*
X126953651Y-59183243D01*
X126952848Y-59169055D01*
X126950478Y-59164140D01*
X126949585Y-59158762D01*
X126942074Y-59146710D01*
X126935902Y-59133909D01*
X126931831Y-59130274D01*
X126928948Y-59125648D01*
X126917394Y-59117385D01*
X126906796Y-59107923D01*
X126901648Y-59106124D01*
X126897211Y-59102951D01*
X126878641Y-59096668D01*
X125878641Y-58864525D01*
X125859203Y-58861985D01*
X125820712Y-58868379D01*
X125787598Y-58889015D01*
X125764901Y-58920753D01*
X125756078Y-58958760D01*
X125089361Y-58958760D01*
X125089361Y-58695318D01*
X127122695Y-58695318D01*
X127122695Y-65576557D01*
G37*
D11*
X103166666Y-47139580D02*
X103214285Y-47187200D01*
X103214285Y-47187200D02*
X103357142Y-47234819D01*
X103357142Y-47234819D02*
X103452380Y-47234819D01*
X103452380Y-47234819D02*
X103595237Y-47187200D01*
X103595237Y-47187200D02*
X103690475Y-47091961D01*
X103690475Y-47091961D02*
X103738094Y-46996723D01*
X103738094Y-46996723D02*
X103785713Y-46806247D01*
X103785713Y-46806247D02*
X103785713Y-46663390D01*
X103785713Y-46663390D02*
X103738094Y-46472914D01*
X103738094Y-46472914D02*
X103690475Y-46377676D01*
X103690475Y-46377676D02*
X103595237Y-46282438D01*
X103595237Y-46282438D02*
X103452380Y-46234819D01*
X103452380Y-46234819D02*
X103357142Y-46234819D01*
X103357142Y-46234819D02*
X103214285Y-46282438D01*
X103214285Y-46282438D02*
X103166666Y-46330057D01*
X102833332Y-46234819D02*
X102214285Y-46234819D01*
X102214285Y-46234819D02*
X102547618Y-46615771D01*
X102547618Y-46615771D02*
X102404761Y-46615771D01*
X102404761Y-46615771D02*
X102309523Y-46663390D01*
X102309523Y-46663390D02*
X102261904Y-46711009D01*
X102261904Y-46711009D02*
X102214285Y-46806247D01*
X102214285Y-46806247D02*
X102214285Y-47044342D01*
X102214285Y-47044342D02*
X102261904Y-47139580D01*
X102261904Y-47139580D02*
X102309523Y-47187200D01*
X102309523Y-47187200D02*
X102404761Y-47234819D01*
X102404761Y-47234819D02*
X102690475Y-47234819D01*
X102690475Y-47234819D02*
X102785713Y-47187200D01*
X102785713Y-47187200D02*
X102833332Y-47139580D01*
X103166666Y-39939579D02*
X103214285Y-39987199D01*
X103214285Y-39987199D02*
X103357142Y-40034818D01*
X103357142Y-40034818D02*
X103452380Y-40034818D01*
X103452380Y-40034818D02*
X103595237Y-39987199D01*
X103595237Y-39987199D02*
X103690475Y-39891960D01*
X103690475Y-39891960D02*
X103738094Y-39796722D01*
X103738094Y-39796722D02*
X103785713Y-39606246D01*
X103785713Y-39606246D02*
X103785713Y-39463389D01*
X103785713Y-39463389D02*
X103738094Y-39272913D01*
X103738094Y-39272913D02*
X103690475Y-39177675D01*
X103690475Y-39177675D02*
X103595237Y-39082437D01*
X103595237Y-39082437D02*
X103452380Y-39034818D01*
X103452380Y-39034818D02*
X103357142Y-39034818D01*
X103357142Y-39034818D02*
X103214285Y-39082437D01*
X103214285Y-39082437D02*
X103166666Y-39130056D01*
X102785713Y-39130056D02*
X102738094Y-39082437D01*
X102738094Y-39082437D02*
X102642856Y-39034818D01*
X102642856Y-39034818D02*
X102404761Y-39034818D01*
X102404761Y-39034818D02*
X102309523Y-39082437D01*
X102309523Y-39082437D02*
X102261904Y-39130056D01*
X102261904Y-39130056D02*
X102214285Y-39225294D01*
X102214285Y-39225294D02*
X102214285Y-39320532D01*
X102214285Y-39320532D02*
X102261904Y-39463389D01*
X102261904Y-39463389D02*
X102833332Y-40034818D01*
X102833332Y-40034818D02*
X102214285Y-40034818D01*
X120249579Y-37563333D02*
X120297199Y-37515714D01*
X120297199Y-37515714D02*
X120344818Y-37372857D01*
X120344818Y-37372857D02*
X120344818Y-37277619D01*
X120344818Y-37277619D02*
X120297199Y-37134762D01*
X120297199Y-37134762D02*
X120201960Y-37039524D01*
X120201960Y-37039524D02*
X120106722Y-36991905D01*
X120106722Y-36991905D02*
X119916246Y-36944286D01*
X119916246Y-36944286D02*
X119773389Y-36944286D01*
X119773389Y-36944286D02*
X119582913Y-36991905D01*
X119582913Y-36991905D02*
X119487675Y-37039524D01*
X119487675Y-37039524D02*
X119392437Y-37134762D01*
X119392437Y-37134762D02*
X119344818Y-37277619D01*
X119344818Y-37277619D02*
X119344818Y-37372857D01*
X119344818Y-37372857D02*
X119392437Y-37515714D01*
X119392437Y-37515714D02*
X119440056Y-37563333D01*
X120344818Y-38515714D02*
X120344818Y-37944286D01*
X120344818Y-38230000D02*
X119344818Y-38230000D01*
X119344818Y-38230000D02*
X119487675Y-38134762D01*
X119487675Y-38134762D02*
X119582913Y-38039524D01*
X119582913Y-38039524D02*
X119630532Y-37944286D01*
X99554819Y-40738095D02*
X100364342Y-40738095D01*
X100364342Y-40738095D02*
X100459580Y-40785714D01*
X100459580Y-40785714D02*
X100507200Y-40833333D01*
X100507200Y-40833333D02*
X100554819Y-40928571D01*
X100554819Y-40928571D02*
X100554819Y-41119047D01*
X100554819Y-41119047D02*
X100507200Y-41214285D01*
X100507200Y-41214285D02*
X100459580Y-41261904D01*
X100459580Y-41261904D02*
X100364342Y-41309523D01*
X100364342Y-41309523D02*
X99554819Y-41309523D01*
X100554819Y-42309523D02*
X100554819Y-41738095D01*
X100554819Y-42023809D02*
X99554819Y-42023809D01*
X99554819Y-42023809D02*
X99697676Y-41928571D01*
X99697676Y-41928571D02*
X99792914Y-41833333D01*
X99792914Y-41833333D02*
X99840533Y-41738095D01*
X106704819Y-34561905D02*
X105704819Y-34561905D01*
X105704819Y-34561905D02*
X105704819Y-34800000D01*
X105704819Y-34800000D02*
X105752438Y-34942857D01*
X105752438Y-34942857D02*
X105847676Y-35038095D01*
X105847676Y-35038095D02*
X105942914Y-35085714D01*
X105942914Y-35085714D02*
X106133390Y-35133333D01*
X106133390Y-35133333D02*
X106276247Y-35133333D01*
X106276247Y-35133333D02*
X106466723Y-35085714D01*
X106466723Y-35085714D02*
X106561961Y-35038095D01*
X106561961Y-35038095D02*
X106657200Y-34942857D01*
X106657200Y-34942857D02*
X106704819Y-34800000D01*
X106704819Y-34800000D02*
X106704819Y-34561905D01*
X106704819Y-36085714D02*
X106704819Y-35514286D01*
X106704819Y-35800000D02*
X105704819Y-35800000D01*
X105704819Y-35800000D02*
X105847676Y-35704762D01*
X105847676Y-35704762D02*
X105942914Y-35609524D01*
X105942914Y-35609524D02*
X105990533Y-35514286D01*
D12*
%TO.C,C3*%
X102738748Y-45835000D02*
X103261252Y-45835000D01*
X102738748Y-44365000D02*
X103261252Y-44365000D01*
%TO.C,C2*%
X102738747Y-38635000D02*
X103261253Y-38635000D01*
X102738747Y-37165000D02*
X103261253Y-37165000D01*
%TO.C,C1*%
X118945000Y-37991253D02*
X118945000Y-37468747D01*
X117475000Y-37991253D02*
X117475000Y-37468747D01*
%TO.C,U1*%
X104610000Y-40600000D02*
X104610000Y-42400000D01*
X101390000Y-41600000D02*
X101390000Y-40800000D01*
X101390000Y-41600000D02*
X101390000Y-42400000D01*
X101440000Y-40299999D02*
X101110000Y-40540000D01*
X101110000Y-40060000D01*
X101440000Y-40299999D01*
G36*
X101440000Y-40299999D02*
G01*
X101110000Y-40540000D01*
X101110000Y-40060000D01*
X101440000Y-40299999D01*
G37*
D13*
%TO.C,G\u002A\u002A\u002A*%
G36*
X105625450Y-71089657D02*
G01*
X105451613Y-71200652D01*
X105152653Y-71321590D01*
X104792305Y-71404339D01*
X104761650Y-71409281D01*
X104607174Y-71435007D01*
X104495909Y-71454906D01*
X104450199Y-71465014D01*
X104456590Y-71494758D01*
X104486870Y-71596568D01*
X104537725Y-71757511D01*
X104604800Y-71963841D01*
X104683737Y-72201816D01*
X104748890Y-72397790D01*
X104820260Y-72615959D01*
X104876954Y-72793284D01*
X104914354Y-72915290D01*
X104927846Y-72967501D01*
X104901152Y-72978794D01*
X104801944Y-72988769D01*
X104646571Y-72993228D01*
X104453240Y-72991259D01*
X103978633Y-72978633D01*
X103708143Y-72214868D01*
X103437653Y-71451102D01*
X103237478Y-71422781D01*
X103186773Y-71413935D01*
X102995098Y-71359172D01*
X102796321Y-71277052D01*
X102621993Y-71181957D01*
X102503667Y-71088272D01*
X102491659Y-71074705D01*
X102478369Y-71054242D01*
X102482030Y-71037853D01*
X102510644Y-71025084D01*
X102572213Y-71015484D01*
X102674738Y-71008602D01*
X102826221Y-71003984D01*
X103034663Y-71001180D01*
X103308067Y-70999736D01*
X103654434Y-70999201D01*
X104081767Y-70999124D01*
X105740544Y-70999124D01*
X105625450Y-71089657D01*
G37*
G36*
X112351989Y-71129253D02*
G01*
X112255779Y-71259383D01*
X112528590Y-72103630D01*
X112543441Y-72149628D01*
X112625262Y-72404619D01*
X112696110Y-72627982D01*
X112751844Y-72806475D01*
X112788322Y-72926855D01*
X112801401Y-72975881D01*
X112773860Y-72984501D01*
X112673747Y-72991512D01*
X112517582Y-72993959D01*
X112323513Y-72991259D01*
X111845625Y-72978633D01*
X111711587Y-72600525D01*
X111577549Y-72222416D01*
X110932820Y-72200174D01*
X110903123Y-72199143D01*
X110655248Y-72189342D01*
X110476212Y-72178020D01*
X110347759Y-72162061D01*
X110251631Y-72138349D01*
X110169574Y-72103769D01*
X110083330Y-72055206D01*
X110009786Y-72008755D01*
X109883286Y-71918315D01*
X109798415Y-71843910D01*
X109785137Y-71828996D01*
X109766794Y-71801844D01*
X109773004Y-71782350D01*
X109814503Y-71769245D01*
X109902026Y-71761259D01*
X110046309Y-71757126D01*
X110258088Y-71755575D01*
X110548097Y-71755341D01*
X110761325Y-71755027D01*
X111015525Y-71752111D01*
X111195511Y-71743837D01*
X111310160Y-71727479D01*
X111368349Y-71700315D01*
X111378955Y-71659619D01*
X111350857Y-71602665D01*
X111292930Y-71526731D01*
X111264412Y-71494356D01*
X111224219Y-71464313D01*
X111165060Y-71442810D01*
X111072941Y-71427709D01*
X110933865Y-71416877D01*
X110733839Y-71408177D01*
X110458867Y-71399474D01*
X110253651Y-71393081D01*
X110029990Y-71384064D01*
X109867556Y-71372832D01*
X109750148Y-71356971D01*
X109661566Y-71334066D01*
X109585612Y-71301703D01*
X109506086Y-71257467D01*
X109491841Y-71249100D01*
X109384028Y-71185413D01*
X109303330Y-71133573D01*
X109255932Y-71092361D01*
X109248020Y-71060560D01*
X109285779Y-71036951D01*
X109375393Y-71020317D01*
X109523048Y-71009439D01*
X109734928Y-71003099D01*
X110017220Y-71000078D01*
X110376108Y-70999159D01*
X110817776Y-70999124D01*
X112448198Y-70999124D01*
X112351989Y-71129253D01*
G37*
G36*
X117654407Y-70999144D02*
G01*
X118107095Y-71001481D01*
X118480765Y-71009335D01*
X118784274Y-71025044D01*
X119026485Y-71050946D01*
X119216255Y-71089376D01*
X119362446Y-71142674D01*
X119473916Y-71213176D01*
X119559526Y-71303220D01*
X119628135Y-71415143D01*
X119688604Y-71551283D01*
X119729939Y-71665148D01*
X119765011Y-71824073D01*
X119751755Y-71947699D01*
X119683465Y-72040490D01*
X119553435Y-72106915D01*
X119354961Y-72151441D01*
X119081338Y-72178533D01*
X118725860Y-72192661D01*
X118492578Y-72199127D01*
X118272620Y-72210562D01*
X118124845Y-72229041D01*
X118039915Y-72258153D01*
X118008492Y-72301487D01*
X118021237Y-72362632D01*
X118068814Y-72445176D01*
X118141456Y-72556041D01*
X119054987Y-72556041D01*
X119968517Y-72556041D01*
X119777378Y-72782722D01*
X119586238Y-73009403D01*
X118651525Y-72989026D01*
X118496622Y-72985362D01*
X118160713Y-72974128D01*
X117897137Y-72958414D01*
X117693974Y-72936090D01*
X117539301Y-72905027D01*
X117421198Y-72863093D01*
X117327744Y-72808160D01*
X117247017Y-72738097D01*
X117228336Y-72717941D01*
X117143868Y-72591799D01*
X117070798Y-72433008D01*
X117018150Y-72268538D01*
X116994948Y-72125356D01*
X117010218Y-72030434D01*
X117040500Y-71987940D01*
X117133161Y-71909713D01*
X117270140Y-71851059D01*
X117462501Y-71809169D01*
X117721310Y-71781232D01*
X118057629Y-71764439D01*
X118268816Y-71757023D01*
X118464679Y-71747346D01*
X118594646Y-71735550D01*
X118671570Y-71719773D01*
X118708301Y-71698154D01*
X118717688Y-71668832D01*
X118717463Y-71650410D01*
X118708292Y-71581297D01*
X118677460Y-71529754D01*
X118613751Y-71492903D01*
X118505945Y-71467864D01*
X118342827Y-71451761D01*
X118113177Y-71441714D01*
X117805779Y-71434846D01*
X117650916Y-71431890D01*
X117396332Y-71425181D01*
X117206685Y-71415971D01*
X117065898Y-71402427D01*
X116957892Y-71382716D01*
X116866592Y-71355005D01*
X116775918Y-71317462D01*
X116687422Y-71273529D01*
X116544919Y-71186925D01*
X116445659Y-71106737D01*
X116344562Y-70999124D01*
X117595661Y-70999124D01*
X117654407Y-70999144D01*
G37*
G36*
X106999689Y-71000211D02*
G01*
X107209127Y-71000725D01*
X107645418Y-71005501D01*
X108004978Y-71017619D01*
X108296367Y-71039975D01*
X108528146Y-71075465D01*
X108708877Y-71126984D01*
X108847118Y-71197428D01*
X108951432Y-71289693D01*
X109030378Y-71406675D01*
X109092518Y-71551270D01*
X109146412Y-71726372D01*
X109146993Y-71728487D01*
X109171319Y-71846094D01*
X109155282Y-71922922D01*
X109090350Y-72000734D01*
X109066338Y-72023272D01*
X108961266Y-72093696D01*
X108822071Y-72143997D01*
X108635171Y-72176820D01*
X108386982Y-72194808D01*
X108063923Y-72200607D01*
X108030116Y-72200717D01*
X107812526Y-72204160D01*
X107628268Y-72211593D01*
X107495885Y-72222019D01*
X107433920Y-72234442D01*
X107421643Y-72244328D01*
X107407651Y-72301985D01*
X107442510Y-72410785D01*
X107502821Y-72554221D01*
X108428381Y-72566252D01*
X109353941Y-72578283D01*
X109155277Y-72793857D01*
X108956614Y-73009432D01*
X108020951Y-72994032D01*
X107774785Y-72989806D01*
X107520893Y-72984125D01*
X107330707Y-72976729D01*
X107189923Y-72965946D01*
X107084232Y-72950107D01*
X106999330Y-72927542D01*
X106920910Y-72896582D01*
X106834665Y-72855555D01*
X106748261Y-72811243D01*
X106631594Y-72734096D01*
X106554188Y-72642283D01*
X106486821Y-72506481D01*
X106446457Y-72405286D01*
X106392060Y-72195634D01*
X106402233Y-72039284D01*
X106476881Y-71930712D01*
X106542739Y-71891460D01*
X106717607Y-71834705D01*
X106961628Y-71791857D01*
X107262767Y-71764780D01*
X107608987Y-71755341D01*
X107761137Y-71753448D01*
X107931665Y-71745998D01*
X108052123Y-71734210D01*
X108103068Y-71719494D01*
X108103851Y-71667089D01*
X108071142Y-71574924D01*
X108062746Y-71558380D01*
X108040042Y-71524268D01*
X108004829Y-71499221D01*
X107944367Y-71481313D01*
X107845922Y-71468619D01*
X107696754Y-71459216D01*
X107484129Y-71451178D01*
X107195308Y-71442582D01*
X106892939Y-71431584D01*
X106606865Y-71413035D01*
X106384739Y-71385312D01*
X106213044Y-71345100D01*
X106078261Y-71289083D01*
X105966873Y-71213947D01*
X105865363Y-71116374D01*
X105757522Y-70999124D01*
X106999689Y-71000211D01*
G37*
G36*
X113921239Y-71102078D02*
G01*
X113853388Y-71196120D01*
X113824518Y-71280512D01*
X113836376Y-71360768D01*
X113872143Y-71505789D01*
X113925151Y-71690505D01*
X113988629Y-71893993D01*
X114055805Y-72095331D01*
X114119909Y-72273598D01*
X114174170Y-72407871D01*
X114211816Y-72477228D01*
X114223387Y-72488936D01*
X114269209Y-72517994D01*
X114341955Y-72537396D01*
X114457129Y-72548979D01*
X114630234Y-72554582D01*
X114876772Y-72556041D01*
X115020896Y-72556513D01*
X115225111Y-72554933D01*
X115362488Y-72539993D01*
X115440047Y-72499677D01*
X115464806Y-72421968D01*
X115443783Y-72294848D01*
X115383998Y-72106300D01*
X115292469Y-71844307D01*
X115208636Y-71597502D01*
X115153826Y-71417687D01*
X115126424Y-71291098D01*
X115124380Y-71202713D01*
X115145640Y-71137512D01*
X115188155Y-71080472D01*
X115191903Y-71076424D01*
X115235550Y-71042747D01*
X115301512Y-71020563D01*
X115406441Y-71007721D01*
X115566987Y-71002069D01*
X115799802Y-71001457D01*
X115954187Y-71002395D01*
X116127074Y-71005467D01*
X116230206Y-71012202D01*
X116275250Y-71024522D01*
X116273873Y-71044350D01*
X116237741Y-71073608D01*
X116209442Y-71095353D01*
X116167194Y-71146627D01*
X116147395Y-71217444D01*
X116151190Y-71320772D01*
X116179723Y-71469580D01*
X116234141Y-71676839D01*
X116315587Y-71955516D01*
X116333243Y-72015073D01*
X116396110Y-72236527D01*
X116447003Y-72430401D01*
X116481085Y-72577578D01*
X116493520Y-72658940D01*
X116485381Y-72725811D01*
X116431670Y-72812084D01*
X116316051Y-72879861D01*
X116125006Y-72939430D01*
X116117935Y-72941172D01*
X115993580Y-72962276D01*
X115818289Y-72976729D01*
X115582594Y-72984871D01*
X115277027Y-72987041D01*
X114892119Y-72983578D01*
X114718167Y-72980655D01*
X114354376Y-72970393D01*
X114064276Y-72954161D01*
X113837096Y-72930121D01*
X113662065Y-72896437D01*
X113528413Y-72851270D01*
X113425368Y-72792783D01*
X113342159Y-72719138D01*
X113300547Y-72649100D01*
X113238427Y-72512206D01*
X113162792Y-72327163D01*
X113080360Y-72112386D01*
X112997850Y-71886288D01*
X112921981Y-71667284D01*
X112859471Y-71473789D01*
X112817038Y-71324216D01*
X112801401Y-71236981D01*
X112824590Y-71173550D01*
X112890368Y-71088090D01*
X112896477Y-71082106D01*
X112945483Y-71045313D01*
X113012463Y-71021213D01*
X113115156Y-71007211D01*
X113271304Y-71000713D01*
X113498647Y-70999124D01*
X114017960Y-70999124D01*
X113921239Y-71102078D01*
G37*
D12*
%TO.C,D1*%
X100599989Y-34100002D02*
X105400000Y-34100003D01*
X105400000Y-34100003D02*
X105400011Y-36499998D01*
X100600000Y-36499997D02*
X100599989Y-34100002D01*
X105400011Y-36499998D02*
X100600000Y-36499997D01*
D14*
X102399995Y-34100001D02*
X101599999Y-34099994D01*
X101600002Y-33800002D01*
X102399996Y-33799989D01*
X102399995Y-34100001D01*
G36*
X102399995Y-34100001D02*
G01*
X101599999Y-34099994D01*
X101600002Y-33800002D01*
X102399996Y-33799989D01*
X102399995Y-34100001D01*
G37*
X102400001Y-36500002D02*
X102400006Y-36799996D01*
X101600001Y-36799997D01*
X101600003Y-36499996D01*
X102400001Y-36500002D01*
G36*
X102400001Y-36500002D02*
G01*
X102400006Y-36799996D01*
X101600001Y-36799997D01*
X101600003Y-36499996D01*
X102400001Y-36500002D01*
G37*
D12*
%TO.C,J1*%
X106008997Y-35499999D02*
X106008998Y-41249998D01*
X106008998Y-41249998D02*
X107428997Y-41250000D01*
X106009002Y-33659998D02*
X116378997Y-33659998D01*
X106009010Y-33959999D02*
X106009002Y-33659998D01*
X107428997Y-41250000D02*
X107428999Y-40750000D01*
X107428999Y-40750000D02*
X114958996Y-40750002D01*
X114958993Y-41249995D02*
X116378994Y-41250000D01*
X114958996Y-40750002D02*
X114958993Y-41249995D01*
X116378994Y-41250000D02*
X116379007Y-35500000D01*
X116378997Y-33659998D02*
X116378997Y-33960003D01*
%TD*%
M02*
