%TF.GenerationSoftware,KiCad,Pcbnew,9.0.4*%
%TF.CreationDate,2026-01-25T14:52:30+00:00*%
%TF.ProjectId,can-repeater,63616e2d-7265-4706-9561-7465722e6b69,rev?*%
%TF.SameCoordinates,Original*%
%TF.FileFunction,Copper,L3,Inr*%
%TF.FilePolarity,Positive*%
%FSLAX46Y46*%
G04 Gerber Fmt 4.6, Leading zero omitted, Abs format (unit mm)*
G04 Created by KiCad (PCBNEW 9.0.4) date 2026-01-25 14:52:30*
%MOMM*%
%LPD*%
G01*
G04 APERTURE LIST*
%TA.AperFunction,ComponentPad*%
%ADD10C,2.600000*%
%TD*%
%TA.AperFunction,ComponentPad*%
%ADD11R,1.150000X1.150000*%
%TD*%
%TA.AperFunction,ComponentPad*%
%ADD12C,1.150000*%
%TD*%
%TA.AperFunction,ComponentPad*%
%ADD13C,3.750000*%
%TD*%
%TA.AperFunction,ComponentPad*%
%ADD14R,1.700000X1.700000*%
%TD*%
%TA.AperFunction,ComponentPad*%
%ADD15C,1.700000*%
%TD*%
%TA.AperFunction,ViaPad*%
%ADD16C,0.600000*%
%TD*%
G04 APERTURE END LIST*
D10*
%TO.N,GND*%
%TO.C,H3*%
X196950000Y-88110000D03*
%TD*%
%TO.N,GND*%
%TO.C,H1*%
X196950000Y-66800000D03*
%TD*%
%TO.N,GND*%
%TO.C,H2*%
X133900000Y-88100000D03*
%TD*%
D11*
%TO.N,GND*%
%TO.C,J4*%
X191950000Y-75450000D03*
D12*
%TO.N,2_CAN-*%
X191950000Y-77450000D03*
%TO.N,2_CAN+*%
X191950000Y-79450000D03*
%TO.N,Net-(J4-Pin_4)*%
X193950000Y-75450000D03*
%TO.N,2_CAN-*%
X193950000Y-77450000D03*
%TO.N,2_CAN+*%
X193950000Y-79450000D03*
D13*
%TO.N,GND*%
X192950000Y-71950000D03*
X192950000Y-82950000D03*
%TD*%
D11*
%TO.N,1_CAN-*%
%TO.C,J3*%
X138900000Y-78450000D03*
D12*
%TO.N,1_CAN+*%
X138900000Y-76450000D03*
%TO.N,1_CAN-*%
X136900000Y-78450000D03*
%TO.N,1_CAN+*%
X136900000Y-76450000D03*
D13*
%TO.N,GND*%
X137900000Y-81950000D03*
X137900000Y-72950000D03*
%TD*%
D10*
%TO.N,GND*%
%TO.C,H4*%
X133850000Y-66800000D03*
%TD*%
D14*
%TO.N,USART1_RX*%
%TO.C,J1*%
X163627122Y-69511934D03*
D15*
%TO.N,USART1_TX*%
X166167122Y-69511934D03*
%TO.N,USART1_CK*%
X168707121Y-69511934D03*
%TD*%
D16*
%TO.N,GND*%
X183870000Y-87850000D03*
X182420000Y-87120000D03*
X174740000Y-87980000D03*
X167110000Y-87320000D03*
X160600000Y-88840000D03*
X156810000Y-86240000D03*
X161220000Y-82410000D03*
X155930000Y-70740000D03*
X161690000Y-70980000D03*
X170410000Y-71610000D03*
X169040000Y-73420000D03*
X169550000Y-64620000D03*
X174880000Y-65750000D03*
X177120000Y-69610000D03*
X176070000Y-74800000D03*
X183720000Y-73450000D03*
X185890000Y-73420000D03*
X167600000Y-82000000D03*
X188350000Y-74500000D03*
X172900000Y-77000000D03*
X189100000Y-81400000D03*
X162200000Y-76750000D03*
X148250000Y-68450000D03*
X183100000Y-84150000D03*
X174400000Y-84550000D03*
X145900000Y-70200000D03*
X172850000Y-81150000D03*
X179400000Y-74200000D03*
X183600000Y-78200000D03*
X191750000Y-88600000D03*
X151650000Y-74250000D03*
X158250000Y-67150000D03*
%TO.N,+3V3*%
X171000000Y-68750000D03*
X175600000Y-85500000D03*
X175100000Y-74000000D03*
X162700000Y-87400000D03*
X179700000Y-71600000D03*
X179700000Y-73100000D03*
X170600000Y-87000000D03*
X156000000Y-72450000D03*
X155800000Y-69300000D03*
X154500000Y-82250000D03*
X179700000Y-72350000D03*
X152400000Y-82900000D03*
X161300000Y-69800000D03*
X166950000Y-88350000D03*
X170800000Y-73900000D03*
X162000000Y-66800000D03*
%TO.N,/NReset*%
X160600000Y-78100000D03*
X171700000Y-80300000D03*
X156200000Y-82500000D03*
%TO.N,SYS_JTDO*%
X166100000Y-74700000D03*
X179900000Y-82400000D03*
%TO.N,SYS_JTDI*%
X178650000Y-82400000D03*
X167200000Y-74700000D03*
%TO.N,SYS_JTCK-SW*%
X181150000Y-82400000D03*
X168300000Y-74650000D03*
%TO.N,USART1_TX*%
X164000000Y-76100000D03*
%TO.N,USART1_RX*%
X163300000Y-74300000D03*
%TO.N,USART1_CK*%
X164725735Y-77674265D03*
%TO.N,MCU_CAN1_TX*%
X152700000Y-71950000D03*
X161100000Y-74300000D03*
%TO.N,MCU_CAN1_RX*%
X162250000Y-74300000D03*
X152700000Y-68400000D03*
%TO.N,/STAT1_LED*%
X149200000Y-76600000D03*
X160400000Y-80550000D03*
%TO.N,/STAT2_LED*%
X149200000Y-80050000D03*
X160400000Y-81500000D03*
%TO.N,/ERROR_LED*%
X157600000Y-82650000D03*
X149200000Y-83650000D03*
%TO.N,+GLV_PROT*%
X178600000Y-65900000D03*
X174550000Y-67900000D03*
%TO.N,Net-(U1-SW)*%
X172700000Y-70400000D03*
X179400000Y-69800000D03*
%TD*%
%TA.AperFunction,Conductor*%
%TO.N,GND*%
G36*
X196966858Y-64100693D02*
G01*
X197257190Y-64116935D01*
X197270978Y-64118486D01*
X197554218Y-64166552D01*
X197567771Y-64169642D01*
X197843841Y-64249123D01*
X197856948Y-64253707D01*
X198122381Y-64363601D01*
X198134892Y-64369623D01*
X198386354Y-64508551D01*
X198398129Y-64515947D01*
X198632442Y-64682154D01*
X198643308Y-64690818D01*
X198654261Y-64700604D01*
X198857532Y-64882214D01*
X198867364Y-64892044D01*
X198875615Y-64901275D01*
X199058806Y-65106224D01*
X199067478Y-65117096D01*
X199233734Y-65351368D01*
X199241134Y-65363143D01*
X199348141Y-65556726D01*
X199380109Y-65614557D01*
X199386144Y-65627087D01*
X199496091Y-65892480D01*
X199500685Y-65905607D01*
X199580219Y-66181636D01*
X199583315Y-66195195D01*
X199631442Y-66478414D01*
X199632999Y-66492233D01*
X199649305Y-66782528D01*
X199649500Y-66789482D01*
X199649501Y-82409107D01*
X199649500Y-88048207D01*
X199649500Y-88110610D01*
X199649304Y-88117581D01*
X199632919Y-88408581D01*
X199631354Y-88422434D01*
X199582995Y-88706310D01*
X199579885Y-88719899D01*
X199499967Y-88996552D01*
X199495351Y-89009707D01*
X199384885Y-89275636D01*
X199378821Y-89288191D01*
X199239198Y-89540043D01*
X199231765Y-89551835D01*
X199064748Y-89786435D01*
X199056036Y-89797320D01*
X198863759Y-90011667D01*
X198853882Y-90021505D01*
X198638743Y-90212929D01*
X198627823Y-90221596D01*
X198392565Y-90387654D01*
X198380741Y-90395041D01*
X198128321Y-90533646D01*
X198115744Y-90539658D01*
X197849374Y-90649048D01*
X197836200Y-90653611D01*
X197559222Y-90732412D01*
X197545620Y-90735467D01*
X197261552Y-90782679D01*
X197247692Y-90784188D01*
X196956650Y-90799394D01*
X196950194Y-90799563D01*
X196949908Y-90799563D01*
X196887256Y-90799311D01*
X196886269Y-90799570D01*
X196877366Y-90799571D01*
X196877363Y-90799570D01*
X196877352Y-90799571D01*
X133951889Y-90799500D01*
X133889478Y-90799500D01*
X133882525Y-90799305D01*
X133592268Y-90783004D01*
X133578450Y-90781447D01*
X133295285Y-90733334D01*
X133281728Y-90730240D01*
X133005721Y-90650724D01*
X132992596Y-90646131D01*
X132727237Y-90536216D01*
X132714709Y-90530183D01*
X132463319Y-90391244D01*
X132451545Y-90383845D01*
X132217298Y-90217637D01*
X132206426Y-90208968D01*
X131992256Y-90017574D01*
X131982423Y-90007741D01*
X131791030Y-89793572D01*
X131782360Y-89782700D01*
X131616151Y-89548449D01*
X131608753Y-89536675D01*
X131511447Y-89360614D01*
X131469811Y-89285280D01*
X131463785Y-89272766D01*
X131353865Y-89007397D01*
X131349273Y-88994273D01*
X131307853Y-88850500D01*
X131269755Y-88718259D01*
X131266664Y-88704713D01*
X131258611Y-88657314D01*
X131218550Y-88421535D01*
X131216996Y-88407736D01*
X131210053Y-88284108D01*
X166449500Y-88284108D01*
X166449500Y-88415891D01*
X166483608Y-88543187D01*
X166516554Y-88600250D01*
X166549500Y-88657314D01*
X166642686Y-88750500D01*
X166756814Y-88816392D01*
X166884108Y-88850500D01*
X166884110Y-88850500D01*
X167015890Y-88850500D01*
X167015892Y-88850500D01*
X167143186Y-88816392D01*
X167257314Y-88750500D01*
X167350500Y-88657314D01*
X167416392Y-88543186D01*
X167450500Y-88415892D01*
X167450500Y-88284108D01*
X167416392Y-88156814D01*
X167350500Y-88042686D01*
X167257314Y-87949500D01*
X167172442Y-87900499D01*
X167143187Y-87883608D01*
X167078931Y-87866391D01*
X167015892Y-87849500D01*
X166884108Y-87849500D01*
X166756812Y-87883608D01*
X166642686Y-87949500D01*
X166642683Y-87949502D01*
X166549502Y-88042683D01*
X166549500Y-88042686D01*
X166483608Y-88156812D01*
X166449500Y-88284108D01*
X131210053Y-88284108D01*
X131200695Y-88117472D01*
X131200500Y-88110519D01*
X131200500Y-87334108D01*
X162199500Y-87334108D01*
X162199500Y-87465891D01*
X162233608Y-87593187D01*
X162266554Y-87650250D01*
X162299500Y-87707314D01*
X162392686Y-87800500D01*
X162506814Y-87866392D01*
X162634108Y-87900500D01*
X162634110Y-87900500D01*
X162765890Y-87900500D01*
X162765892Y-87900500D01*
X162893186Y-87866392D01*
X163007314Y-87800500D01*
X163100500Y-87707314D01*
X163166392Y-87593186D01*
X163200500Y-87465892D01*
X163200500Y-87334108D01*
X163166392Y-87206814D01*
X163100500Y-87092686D01*
X163007314Y-86999500D01*
X162950250Y-86966554D01*
X162894053Y-86934108D01*
X170099500Y-86934108D01*
X170099500Y-87065892D01*
X170116554Y-87129539D01*
X170133608Y-87193187D01*
X170141475Y-87206812D01*
X170199500Y-87307314D01*
X170292686Y-87400500D01*
X170391521Y-87457563D01*
X170405944Y-87465890D01*
X170406814Y-87466392D01*
X170534108Y-87500500D01*
X170534110Y-87500500D01*
X170665890Y-87500500D01*
X170665892Y-87500500D01*
X170793186Y-87466392D01*
X170907314Y-87400500D01*
X171000500Y-87307314D01*
X171066392Y-87193186D01*
X171100500Y-87065892D01*
X171100500Y-86934108D01*
X171066392Y-86806814D01*
X171000500Y-86692686D01*
X170907314Y-86599500D01*
X170850250Y-86566554D01*
X170793187Y-86533608D01*
X170729539Y-86516554D01*
X170665892Y-86499500D01*
X170534108Y-86499500D01*
X170406812Y-86533608D01*
X170292686Y-86599500D01*
X170292683Y-86599502D01*
X170199502Y-86692683D01*
X170199500Y-86692686D01*
X170133608Y-86806812D01*
X170108773Y-86899500D01*
X170099500Y-86934108D01*
X162894053Y-86934108D01*
X162893187Y-86933608D01*
X162829539Y-86916554D01*
X162765892Y-86899500D01*
X162634108Y-86899500D01*
X162506812Y-86933608D01*
X162392686Y-86999500D01*
X162392683Y-86999502D01*
X162299502Y-87092683D01*
X162299500Y-87092686D01*
X162233608Y-87206812D01*
X162199500Y-87334108D01*
X131200500Y-87334108D01*
X131200500Y-85434108D01*
X175099500Y-85434108D01*
X175099500Y-85565891D01*
X175133608Y-85693187D01*
X175166554Y-85750250D01*
X175199500Y-85807314D01*
X175292686Y-85900500D01*
X175406814Y-85966392D01*
X175534108Y-86000500D01*
X175534110Y-86000500D01*
X175665890Y-86000500D01*
X175665892Y-86000500D01*
X175793186Y-85966392D01*
X175907314Y-85900500D01*
X176000500Y-85807314D01*
X176066392Y-85693186D01*
X176100500Y-85565892D01*
X176100500Y-85434108D01*
X176066392Y-85306814D01*
X176000500Y-85192686D01*
X175907314Y-85099500D01*
X175850250Y-85066554D01*
X175793187Y-85033608D01*
X175719974Y-85013991D01*
X175665892Y-84999500D01*
X175534108Y-84999500D01*
X175406812Y-85033608D01*
X175292686Y-85099500D01*
X175292683Y-85099502D01*
X175199502Y-85192683D01*
X175199500Y-85192686D01*
X175133608Y-85306812D01*
X175099500Y-85434108D01*
X131200500Y-85434108D01*
X131200500Y-81807449D01*
X135725000Y-81807449D01*
X135725000Y-82092550D01*
X135725001Y-82092566D01*
X135762214Y-82375230D01*
X135836008Y-82650633D01*
X135945113Y-82914035D01*
X135945117Y-82914044D01*
X136087669Y-83160951D01*
X136087680Y-83160968D01*
X136195267Y-83301176D01*
X136195268Y-83301176D01*
X136945809Y-82550635D01*
X137041898Y-82682888D01*
X137167112Y-82808102D01*
X137299363Y-82904189D01*
X136548822Y-83654729D01*
X136548822Y-83654731D01*
X136689031Y-83762319D01*
X136689048Y-83762330D01*
X136935955Y-83904882D01*
X136935964Y-83904886D01*
X137199366Y-84013991D01*
X137474769Y-84087785D01*
X137757433Y-84124998D01*
X137757450Y-84125000D01*
X138042550Y-84125000D01*
X138042566Y-84124998D01*
X138325230Y-84087785D01*
X138600633Y-84013991D01*
X138864035Y-83904886D01*
X138864044Y-83904882D01*
X139110954Y-83762328D01*
X139251176Y-83654730D01*
X139251176Y-83654729D01*
X139180555Y-83584108D01*
X148699500Y-83584108D01*
X148699500Y-83715891D01*
X148733608Y-83843187D01*
X148766554Y-83900250D01*
X148799500Y-83957314D01*
X148892686Y-84050500D01*
X149006814Y-84116392D01*
X149134108Y-84150500D01*
X149134110Y-84150500D01*
X149265890Y-84150500D01*
X149265892Y-84150500D01*
X149393186Y-84116392D01*
X149507314Y-84050500D01*
X149600500Y-83957314D01*
X149666392Y-83843186D01*
X149700500Y-83715892D01*
X149700500Y-83584108D01*
X149666392Y-83456814D01*
X149600500Y-83342686D01*
X149507314Y-83249500D01*
X149444853Y-83213438D01*
X149393187Y-83183608D01*
X149329539Y-83166554D01*
X149265892Y-83149500D01*
X149134108Y-83149500D01*
X149006812Y-83183608D01*
X148892686Y-83249500D01*
X148892683Y-83249502D01*
X148799502Y-83342683D01*
X148799500Y-83342686D01*
X148733608Y-83456812D01*
X148699500Y-83584108D01*
X139180555Y-83584108D01*
X138500636Y-82904189D01*
X138632888Y-82808102D01*
X138758102Y-82682888D01*
X138854189Y-82550636D01*
X139604729Y-83301176D01*
X139604730Y-83301176D01*
X139712328Y-83160954D01*
X139854882Y-82914044D01*
X139854886Y-82914035D01*
X139887994Y-82834108D01*
X151899500Y-82834108D01*
X151899500Y-82965891D01*
X151933608Y-83093187D01*
X151947005Y-83116391D01*
X151999500Y-83207314D01*
X152092686Y-83300500D01*
X152206814Y-83366392D01*
X152334108Y-83400500D01*
X152334110Y-83400500D01*
X152465890Y-83400500D01*
X152465892Y-83400500D01*
X152593186Y-83366392D01*
X152707314Y-83300500D01*
X152800500Y-83207314D01*
X152866392Y-83093186D01*
X152900500Y-82965892D01*
X152900500Y-82834108D01*
X152866392Y-82706814D01*
X152800500Y-82592686D01*
X152707314Y-82499500D01*
X152633378Y-82456813D01*
X152593187Y-82433608D01*
X152501742Y-82409106D01*
X152465892Y-82399500D01*
X152334108Y-82399500D01*
X152206812Y-82433608D01*
X152092686Y-82499500D01*
X152092683Y-82499502D01*
X151999502Y-82592683D01*
X151999500Y-82592686D01*
X151933608Y-82706812D01*
X151899500Y-82834108D01*
X139887994Y-82834108D01*
X139911016Y-82778528D01*
X139911016Y-82778526D01*
X139963990Y-82650636D01*
X140037785Y-82375230D01*
X140062947Y-82184108D01*
X153999500Y-82184108D01*
X153999500Y-82315892D01*
X154006680Y-82342689D01*
X154033608Y-82443187D01*
X154046717Y-82465892D01*
X154099500Y-82557314D01*
X154192686Y-82650500D01*
X154266622Y-82693187D01*
X154305944Y-82715890D01*
X154306814Y-82716392D01*
X154434108Y-82750500D01*
X154434110Y-82750500D01*
X154565890Y-82750500D01*
X154565892Y-82750500D01*
X154693186Y-82716392D01*
X154807314Y-82650500D01*
X154900500Y-82557314D01*
X154966392Y-82443186D01*
X154968824Y-82434108D01*
X155699500Y-82434108D01*
X155699500Y-82565892D01*
X155706813Y-82593186D01*
X155733608Y-82693187D01*
X155746717Y-82715892D01*
X155799500Y-82807314D01*
X155892686Y-82900500D01*
X155978424Y-82950001D01*
X156005944Y-82965890D01*
X156006814Y-82966392D01*
X156134108Y-83000500D01*
X156134110Y-83000500D01*
X156265890Y-83000500D01*
X156265892Y-83000500D01*
X156393186Y-82966392D01*
X156507314Y-82900500D01*
X156600500Y-82807314D01*
X156666392Y-82693186D01*
X156695619Y-82584108D01*
X157099500Y-82584108D01*
X157099500Y-82715891D01*
X157133608Y-82843187D01*
X157144159Y-82861461D01*
X157199500Y-82957314D01*
X157292686Y-83050500D01*
X157406814Y-83116392D01*
X157534108Y-83150500D01*
X157534110Y-83150500D01*
X157665890Y-83150500D01*
X157665892Y-83150500D01*
X157793186Y-83116392D01*
X157907314Y-83050500D01*
X158000500Y-82957314D01*
X158066392Y-82843186D01*
X158100500Y-82715892D01*
X158100500Y-82584108D01*
X158066392Y-82456814D01*
X158000500Y-82342686D01*
X157991922Y-82334108D01*
X178149500Y-82334108D01*
X178149500Y-82465891D01*
X178183608Y-82593187D01*
X178185490Y-82596446D01*
X178249500Y-82707314D01*
X178342686Y-82800500D01*
X178456814Y-82866392D01*
X178584108Y-82900500D01*
X178584110Y-82900500D01*
X178715890Y-82900500D01*
X178715892Y-82900500D01*
X178843186Y-82866392D01*
X178957314Y-82800500D01*
X179050500Y-82707314D01*
X179116392Y-82593186D01*
X179150500Y-82465892D01*
X179150500Y-82334108D01*
X179399500Y-82334108D01*
X179399500Y-82465891D01*
X179433608Y-82593187D01*
X179435490Y-82596446D01*
X179499500Y-82707314D01*
X179592686Y-82800500D01*
X179706814Y-82866392D01*
X179834108Y-82900500D01*
X179834110Y-82900500D01*
X179965890Y-82900500D01*
X179965892Y-82900500D01*
X180093186Y-82866392D01*
X180207314Y-82800500D01*
X180300500Y-82707314D01*
X180366392Y-82593186D01*
X180400500Y-82465892D01*
X180400500Y-82334108D01*
X180649500Y-82334108D01*
X180649500Y-82465891D01*
X180683608Y-82593187D01*
X180685490Y-82596446D01*
X180749500Y-82707314D01*
X180842686Y-82800500D01*
X180956814Y-82866392D01*
X181084108Y-82900500D01*
X181084110Y-82900500D01*
X181215890Y-82900500D01*
X181215892Y-82900500D01*
X181343186Y-82866392D01*
X181445278Y-82807449D01*
X190775000Y-82807449D01*
X190775000Y-83092550D01*
X190775001Y-83092566D01*
X190812214Y-83375230D01*
X190886008Y-83650633D01*
X190995113Y-83914035D01*
X190995117Y-83914044D01*
X191137669Y-84160951D01*
X191137680Y-84160968D01*
X191245267Y-84301176D01*
X191245268Y-84301176D01*
X191995809Y-83550635D01*
X192091898Y-83682888D01*
X192217112Y-83808102D01*
X192349363Y-83904189D01*
X191598822Y-84654729D01*
X191598822Y-84654731D01*
X191739031Y-84762319D01*
X191739048Y-84762330D01*
X191985955Y-84904882D01*
X191985964Y-84904886D01*
X192249366Y-85013991D01*
X192524769Y-85087785D01*
X192807433Y-85124998D01*
X192807450Y-85125000D01*
X193092550Y-85125000D01*
X193092566Y-85124998D01*
X193375230Y-85087785D01*
X193650633Y-85013991D01*
X193914035Y-84904886D01*
X193914044Y-84904882D01*
X194160954Y-84762328D01*
X194301176Y-84654730D01*
X194301176Y-84654729D01*
X193550636Y-83904189D01*
X193682888Y-83808102D01*
X193808102Y-83682888D01*
X193904189Y-83550636D01*
X194654729Y-84301176D01*
X194654730Y-84301176D01*
X194762328Y-84160954D01*
X194904882Y-83914044D01*
X194904886Y-83914035D01*
X195013991Y-83650633D01*
X195087785Y-83375230D01*
X195124998Y-83092566D01*
X195125000Y-83092550D01*
X195125000Y-82807449D01*
X195124998Y-82807433D01*
X195087785Y-82524769D01*
X195013991Y-82249366D01*
X194904886Y-81985964D01*
X194904882Y-81985955D01*
X194762330Y-81739048D01*
X194762319Y-81739031D01*
X194654731Y-81598822D01*
X194654729Y-81598822D01*
X193904189Y-82349362D01*
X193808102Y-82217112D01*
X193682888Y-82091898D01*
X193550635Y-81995809D01*
X194301176Y-81245268D01*
X194301176Y-81245267D01*
X194160968Y-81137680D01*
X194160951Y-81137669D01*
X193914044Y-80995117D01*
X193914035Y-80995113D01*
X193650633Y-80886008D01*
X193375230Y-80812214D01*
X193092566Y-80775001D01*
X193092550Y-80775000D01*
X192807450Y-80775000D01*
X192807433Y-80775001D01*
X192524769Y-80812214D01*
X192249366Y-80886008D01*
X191985964Y-80995113D01*
X191985955Y-80995117D01*
X191739048Y-81137669D01*
X191739041Y-81137674D01*
X191598822Y-81245268D01*
X192349364Y-81995810D01*
X192217112Y-82091898D01*
X192091898Y-82217112D01*
X191995810Y-82349364D01*
X191245268Y-81598822D01*
X191137674Y-81739041D01*
X191137669Y-81739048D01*
X190995117Y-81985955D01*
X190995113Y-81985964D01*
X190886008Y-82249366D01*
X190812214Y-82524769D01*
X190775001Y-82807433D01*
X190775000Y-82807449D01*
X181445278Y-82807449D01*
X181457314Y-82800500D01*
X181550500Y-82707314D01*
X181616392Y-82593186D01*
X181650500Y-82465892D01*
X181650500Y-82334108D01*
X181616392Y-82206814D01*
X181550500Y-82092686D01*
X181457314Y-81999500D01*
X181399968Y-81966391D01*
X181343187Y-81933608D01*
X181279539Y-81916554D01*
X181215892Y-81899500D01*
X181084108Y-81899500D01*
X180956812Y-81933608D01*
X180842686Y-81999500D01*
X180842683Y-81999502D01*
X180749502Y-82092683D01*
X180749500Y-82092686D01*
X180683608Y-82206812D01*
X180649500Y-82334108D01*
X180400500Y-82334108D01*
X180366392Y-82206814D01*
X180300500Y-82092686D01*
X180207314Y-81999500D01*
X180149968Y-81966391D01*
X180093187Y-81933608D01*
X180029539Y-81916554D01*
X179965892Y-81899500D01*
X179834108Y-81899500D01*
X179706812Y-81933608D01*
X179592686Y-81999500D01*
X179592683Y-81999502D01*
X179499502Y-82092683D01*
X179499500Y-82092686D01*
X179433608Y-82206812D01*
X179399500Y-82334108D01*
X179150500Y-82334108D01*
X179116392Y-82206814D01*
X179050500Y-82092686D01*
X178957314Y-81999500D01*
X178899968Y-81966391D01*
X178843187Y-81933608D01*
X178779539Y-81916554D01*
X178715892Y-81899500D01*
X178584108Y-81899500D01*
X178456812Y-81933608D01*
X178342686Y-81999500D01*
X178342683Y-81999502D01*
X178249502Y-82092683D01*
X178249500Y-82092686D01*
X178183608Y-82206812D01*
X178149500Y-82334108D01*
X157991922Y-82334108D01*
X157907314Y-82249500D01*
X157833380Y-82206814D01*
X157793187Y-82183608D01*
X157729539Y-82166554D01*
X157665892Y-82149500D01*
X157534108Y-82149500D01*
X157406812Y-82183608D01*
X157292686Y-82249500D01*
X157292683Y-82249502D01*
X157199502Y-82342683D01*
X157199500Y-82342686D01*
X157133608Y-82456812D01*
X157099500Y-82584108D01*
X156695619Y-82584108D01*
X156700500Y-82565892D01*
X156700500Y-82434108D01*
X156666392Y-82306814D01*
X156600500Y-82192686D01*
X156507314Y-82099500D01*
X156433380Y-82056814D01*
X156393187Y-82033608D01*
X156329539Y-82016554D01*
X156265892Y-81999500D01*
X156134108Y-81999500D01*
X156006812Y-82033608D01*
X155892686Y-82099500D01*
X155892683Y-82099502D01*
X155799502Y-82192683D01*
X155799500Y-82192686D01*
X155733608Y-82306812D01*
X155715276Y-82375230D01*
X155699500Y-82434108D01*
X154968824Y-82434108D01*
X155000500Y-82315892D01*
X155000500Y-82184108D01*
X154966392Y-82056814D01*
X154900500Y-81942686D01*
X154807314Y-81849500D01*
X154734452Y-81807433D01*
X154693187Y-81783608D01*
X154629539Y-81766554D01*
X154565892Y-81749500D01*
X154434108Y-81749500D01*
X154306812Y-81783608D01*
X154192686Y-81849500D01*
X154192683Y-81849502D01*
X154099502Y-81942683D01*
X154099500Y-81942686D01*
X154033608Y-82056812D01*
X154024028Y-82092566D01*
X153999500Y-82184108D01*
X140062947Y-82184108D01*
X140066148Y-82159796D01*
X140074998Y-82092567D01*
X140075000Y-82092550D01*
X140075000Y-81807449D01*
X140074998Y-81807433D01*
X140037785Y-81524769D01*
X139963991Y-81249366D01*
X139854886Y-80985964D01*
X139854882Y-80985955D01*
X139712330Y-80739048D01*
X139712319Y-80739031D01*
X139604731Y-80598822D01*
X139604729Y-80598822D01*
X138854188Y-81349362D01*
X138758102Y-81217112D01*
X138632888Y-81091898D01*
X138500635Y-80995809D01*
X139251176Y-80245268D01*
X139251176Y-80245267D01*
X139110968Y-80137680D01*
X139110951Y-80137669D01*
X139016899Y-80083368D01*
X138864044Y-79995117D01*
X138864035Y-79995113D01*
X138837467Y-79984108D01*
X148699500Y-79984108D01*
X148699500Y-80115892D01*
X148705338Y-80137680D01*
X148733608Y-80243187D01*
X148759470Y-80287980D01*
X148799500Y-80357314D01*
X148892686Y-80450500D01*
X149006814Y-80516392D01*
X149134108Y-80550500D01*
X149134110Y-80550500D01*
X149265890Y-80550500D01*
X149265892Y-80550500D01*
X149393186Y-80516392D01*
X149449103Y-80484108D01*
X159899500Y-80484108D01*
X159899500Y-80615891D01*
X159933608Y-80743187D01*
X159947005Y-80766391D01*
X159999500Y-80857314D01*
X159999502Y-80857316D01*
X160079505Y-80937319D01*
X160112990Y-80998642D01*
X160108006Y-81068334D01*
X160079505Y-81112681D01*
X159999502Y-81192683D01*
X159999500Y-81192686D01*
X159933608Y-81306812D01*
X159899500Y-81434108D01*
X159899500Y-81565892D01*
X159916554Y-81629539D01*
X159933608Y-81693187D01*
X159966121Y-81749500D01*
X159999500Y-81807314D01*
X160092686Y-81900500D01*
X160206814Y-81966392D01*
X160334108Y-82000500D01*
X160334110Y-82000500D01*
X160465890Y-82000500D01*
X160465892Y-82000500D01*
X160593186Y-81966392D01*
X160707314Y-81900500D01*
X160800500Y-81807314D01*
X160866392Y-81693186D01*
X160900500Y-81565892D01*
X160900500Y-81434108D01*
X160871349Y-81325313D01*
X160871349Y-81325312D01*
X160866392Y-81306814D01*
X160830858Y-81245268D01*
X160800500Y-81192686D01*
X160720495Y-81112681D01*
X160687010Y-81051358D01*
X160691994Y-80981666D01*
X160720495Y-80937319D01*
X160750393Y-80907421D01*
X160800500Y-80857314D01*
X160866392Y-80743186D01*
X160900500Y-80615892D01*
X160900500Y-80484108D01*
X160866392Y-80356814D01*
X160800500Y-80242686D01*
X160791922Y-80234108D01*
X171199500Y-80234108D01*
X171199500Y-80365891D01*
X171233608Y-80493187D01*
X171247005Y-80516391D01*
X171299500Y-80607314D01*
X171392686Y-80700500D01*
X171506814Y-80766392D01*
X171634108Y-80800500D01*
X171634110Y-80800500D01*
X171765890Y-80800500D01*
X171765892Y-80800500D01*
X171893186Y-80766392D01*
X172007314Y-80700500D01*
X172100500Y-80607314D01*
X172166392Y-80493186D01*
X172200500Y-80365892D01*
X172200500Y-80234108D01*
X172166392Y-80106814D01*
X172100500Y-79992686D01*
X172007314Y-79899500D01*
X171933380Y-79856814D01*
X171893187Y-79833608D01*
X171829539Y-79816554D01*
X171765892Y-79799500D01*
X171634108Y-79799500D01*
X171506812Y-79833608D01*
X171392686Y-79899500D01*
X171392683Y-79899502D01*
X171299502Y-79992683D01*
X171299500Y-79992686D01*
X171233608Y-80106812D01*
X171199500Y-80234108D01*
X160791922Y-80234108D01*
X160707314Y-80149500D01*
X160633380Y-80106814D01*
X160593187Y-80083608D01*
X160529539Y-80066554D01*
X160465892Y-80049500D01*
X160334108Y-80049500D01*
X160206812Y-80083608D01*
X160092686Y-80149500D01*
X160092683Y-80149502D01*
X159999502Y-80242683D01*
X159999500Y-80242686D01*
X159933608Y-80356812D01*
X159899500Y-80484108D01*
X149449103Y-80484108D01*
X149507314Y-80450500D01*
X149600500Y-80357314D01*
X149666392Y-80243186D01*
X149700500Y-80115892D01*
X149700500Y-79984108D01*
X149666392Y-79856814D01*
X149600500Y-79742686D01*
X149507314Y-79649500D01*
X149450250Y-79616554D01*
X149393187Y-79583608D01*
X149329539Y-79566554D01*
X149265892Y-79549500D01*
X149134108Y-79549500D01*
X149006812Y-79583608D01*
X148892686Y-79649500D01*
X148892683Y-79649502D01*
X148799502Y-79742683D01*
X148799500Y-79742686D01*
X148733608Y-79856812D01*
X148722170Y-79899500D01*
X148699500Y-79984108D01*
X138837467Y-79984108D01*
X138600633Y-79886008D01*
X138325230Y-79812214D01*
X138042566Y-79775001D01*
X138042550Y-79775000D01*
X137757450Y-79775000D01*
X137757433Y-79775001D01*
X137474769Y-79812214D01*
X137199366Y-79886008D01*
X136935964Y-79995113D01*
X136935955Y-79995117D01*
X136689048Y-80137669D01*
X136689041Y-80137674D01*
X136548822Y-80245268D01*
X137299364Y-80995810D01*
X137167112Y-81091898D01*
X137041898Y-81217112D01*
X136945810Y-81349363D01*
X136195268Y-80598822D01*
X136087674Y-80739041D01*
X136087669Y-80739048D01*
X135945117Y-80985955D01*
X135945113Y-80985964D01*
X135836008Y-81249366D01*
X135762214Y-81524769D01*
X135725001Y-81807433D01*
X135725000Y-81807449D01*
X131200500Y-81807449D01*
X131200500Y-79373615D01*
X191174500Y-79373615D01*
X191174500Y-79526384D01*
X191204300Y-79676197D01*
X191204302Y-79676205D01*
X191262759Y-79817334D01*
X191262764Y-79817343D01*
X191347629Y-79944351D01*
X191347632Y-79944355D01*
X191455644Y-80052367D01*
X191455648Y-80052370D01*
X191582656Y-80137235D01*
X191582665Y-80137240D01*
X191612264Y-80149500D01*
X191723795Y-80195698D01*
X191873615Y-80225499D01*
X191873619Y-80225500D01*
X191873620Y-80225500D01*
X192026381Y-80225500D01*
X192026382Y-80225499D01*
X192176205Y-80195698D01*
X192317337Y-80137239D01*
X192444352Y-80052370D01*
X192552370Y-79944352D01*
X192637239Y-79817337D01*
X192695698Y-79676205D01*
X192725500Y-79526380D01*
X192725500Y-79373620D01*
X192725499Y-79373615D01*
X193174500Y-79373615D01*
X193174500Y-79526384D01*
X193204300Y-79676197D01*
X193204302Y-79676205D01*
X193262759Y-79817334D01*
X193262764Y-79817343D01*
X193347629Y-79944351D01*
X193347632Y-79944355D01*
X193455644Y-80052367D01*
X193455648Y-80052370D01*
X193582656Y-80137235D01*
X193582665Y-80137240D01*
X193612264Y-80149500D01*
X193723795Y-80195698D01*
X193873615Y-80225499D01*
X193873619Y-80225500D01*
X193873620Y-80225500D01*
X194026381Y-80225500D01*
X194026382Y-80225499D01*
X194176205Y-80195698D01*
X194317337Y-80137239D01*
X194444352Y-80052370D01*
X194552370Y-79944352D01*
X194637239Y-79817337D01*
X194695698Y-79676205D01*
X194725500Y-79526380D01*
X194725500Y-79373620D01*
X194695698Y-79223795D01*
X194637239Y-79082663D01*
X194637238Y-79082662D01*
X194637235Y-79082656D01*
X194552370Y-78955648D01*
X194552367Y-78955644D01*
X194444355Y-78847632D01*
X194444351Y-78847629D01*
X194317343Y-78762764D01*
X194317334Y-78762759D01*
X194176205Y-78704302D01*
X194176197Y-78704300D01*
X194026384Y-78674500D01*
X194026380Y-78674500D01*
X193873620Y-78674500D01*
X193873615Y-78674500D01*
X193723802Y-78704300D01*
X193723794Y-78704302D01*
X193582665Y-78762759D01*
X193582656Y-78762764D01*
X193455648Y-78847629D01*
X193455644Y-78847632D01*
X193347632Y-78955644D01*
X193347629Y-78955648D01*
X193262764Y-79082656D01*
X193262759Y-79082665D01*
X193204302Y-79223794D01*
X193204300Y-79223802D01*
X193174500Y-79373615D01*
X192725499Y-79373615D01*
X192695698Y-79223795D01*
X192637239Y-79082663D01*
X192637238Y-79082662D01*
X192637235Y-79082656D01*
X192552370Y-78955648D01*
X192552367Y-78955644D01*
X192444355Y-78847632D01*
X192444351Y-78847629D01*
X192317343Y-78762764D01*
X192317334Y-78762759D01*
X192176205Y-78704302D01*
X192176197Y-78704300D01*
X192026384Y-78674500D01*
X192026380Y-78674500D01*
X191873620Y-78674500D01*
X191873615Y-78674500D01*
X191723802Y-78704300D01*
X191723794Y-78704302D01*
X191582665Y-78762759D01*
X191582656Y-78762764D01*
X191455648Y-78847629D01*
X191455644Y-78847632D01*
X191347632Y-78955644D01*
X191347629Y-78955648D01*
X191262764Y-79082656D01*
X191262759Y-79082665D01*
X191204302Y-79223794D01*
X191204300Y-79223802D01*
X191174500Y-79373615D01*
X131200500Y-79373615D01*
X131200500Y-78373615D01*
X136124500Y-78373615D01*
X136124500Y-78526384D01*
X136154300Y-78676197D01*
X136154302Y-78676205D01*
X136212759Y-78817334D01*
X136212764Y-78817343D01*
X136297629Y-78944351D01*
X136297632Y-78944355D01*
X136405644Y-79052367D01*
X136405648Y-79052370D01*
X136532656Y-79137235D01*
X136532662Y-79137238D01*
X136532663Y-79137239D01*
X136673795Y-79195698D01*
X136815084Y-79223802D01*
X136823615Y-79225499D01*
X136823619Y-79225500D01*
X136823620Y-79225500D01*
X136976381Y-79225500D01*
X136976382Y-79225499D01*
X137126205Y-79195698D01*
X137267337Y-79137239D01*
X137394352Y-79052370D01*
X137502370Y-78944352D01*
X137587239Y-78817337D01*
X137645698Y-78676205D01*
X137675500Y-78526380D01*
X137675500Y-78373620D01*
X137645698Y-78223795D01*
X137587239Y-78082663D01*
X137587238Y-78082662D01*
X137587235Y-78082656D01*
X137502370Y-77955648D01*
X137502367Y-77955644D01*
X137401970Y-77855247D01*
X138124500Y-77855247D01*
X138124500Y-79044752D01*
X138136131Y-79103229D01*
X138136132Y-79103230D01*
X138180447Y-79169552D01*
X138246769Y-79213867D01*
X138246770Y-79213868D01*
X138305247Y-79225499D01*
X138305250Y-79225500D01*
X138305252Y-79225500D01*
X139494750Y-79225500D01*
X139494751Y-79225499D01*
X139509568Y-79222552D01*
X139553229Y-79213868D01*
X139553229Y-79213867D01*
X139553231Y-79213867D01*
X139619552Y-79169552D01*
X139663867Y-79103231D01*
X139663867Y-79103229D01*
X139663868Y-79103229D01*
X139675499Y-79044752D01*
X139675500Y-79044750D01*
X139675500Y-78034108D01*
X160099500Y-78034108D01*
X160099500Y-78165892D01*
X160115472Y-78225500D01*
X160133608Y-78293187D01*
X160156753Y-78333274D01*
X160199500Y-78407314D01*
X160292686Y-78500500D01*
X160406814Y-78566392D01*
X160534108Y-78600500D01*
X160534110Y-78600500D01*
X160665890Y-78600500D01*
X160665892Y-78600500D01*
X160793186Y-78566392D01*
X160907314Y-78500500D01*
X161000500Y-78407314D01*
X161066392Y-78293186D01*
X161100500Y-78165892D01*
X161100500Y-78034108D01*
X161066392Y-77906814D01*
X161000500Y-77792686D01*
X160907314Y-77699500D01*
X160859079Y-77671651D01*
X160793187Y-77633608D01*
X160699014Y-77608375D01*
X160699007Y-77608373D01*
X164225235Y-77608373D01*
X164225235Y-77740157D01*
X164239309Y-77792683D01*
X164259343Y-77867452D01*
X164282068Y-77906812D01*
X164325235Y-77981579D01*
X164418421Y-78074765D01*
X164517256Y-78131828D01*
X164526630Y-78137240D01*
X164532549Y-78140657D01*
X164659843Y-78174765D01*
X164659845Y-78174765D01*
X164791625Y-78174765D01*
X164791627Y-78174765D01*
X164821648Y-78166721D01*
X173204500Y-78166721D01*
X173204500Y-78333278D01*
X173236990Y-78496615D01*
X173236992Y-78496623D01*
X173300728Y-78650495D01*
X173300728Y-78650496D01*
X173393255Y-78788973D01*
X173393261Y-78788980D01*
X173511019Y-78906738D01*
X173511026Y-78906744D01*
X173649504Y-78999271D01*
X173649505Y-78999271D01*
X173649506Y-78999272D01*
X173803377Y-79063008D01*
X173966721Y-79095499D01*
X173966725Y-79095500D01*
X173966726Y-79095500D01*
X174133275Y-79095500D01*
X174133276Y-79095499D01*
X174296623Y-79063008D01*
X174450494Y-78999272D01*
X174450495Y-78999271D01*
X174450496Y-78999271D01*
X174532684Y-78944355D01*
X174588975Y-78906743D01*
X174706743Y-78788975D01*
X174799272Y-78650494D01*
X174863008Y-78496623D01*
X174895500Y-78333274D01*
X174895500Y-78166726D01*
X174895499Y-78166721D01*
X184938498Y-78166721D01*
X184938498Y-78333278D01*
X184970988Y-78496615D01*
X184970990Y-78496623D01*
X185034726Y-78650495D01*
X185034726Y-78650496D01*
X185127253Y-78788973D01*
X185127259Y-78788980D01*
X185245017Y-78906738D01*
X185245024Y-78906744D01*
X185383502Y-78999271D01*
X185383503Y-78999271D01*
X185383504Y-78999272D01*
X185537375Y-79063008D01*
X185700719Y-79095499D01*
X185700723Y-79095500D01*
X185700724Y-79095500D01*
X185867273Y-79095500D01*
X185867274Y-79095499D01*
X186030621Y-79063008D01*
X186184492Y-78999272D01*
X186184493Y-78999271D01*
X186184494Y-78999271D01*
X186266682Y-78944355D01*
X186322973Y-78906743D01*
X186440741Y-78788975D01*
X186533270Y-78650494D01*
X186597006Y-78496623D01*
X186629498Y-78333274D01*
X186629498Y-78166726D01*
X186597006Y-78003377D01*
X186533270Y-77849506D01*
X186533269Y-77849504D01*
X186533269Y-77849503D01*
X186440742Y-77711026D01*
X186440736Y-77711019D01*
X186322978Y-77593261D01*
X186322971Y-77593255D01*
X186184493Y-77500728D01*
X186139494Y-77482089D01*
X186030621Y-77436992D01*
X186030613Y-77436990D01*
X185867276Y-77404500D01*
X185867272Y-77404500D01*
X185700724Y-77404500D01*
X185700719Y-77404500D01*
X185537382Y-77436990D01*
X185537374Y-77436992D01*
X185383502Y-77500728D01*
X185383501Y-77500728D01*
X185245024Y-77593255D01*
X185245017Y-77593261D01*
X185127259Y-77711019D01*
X185127253Y-77711026D01*
X185034726Y-77849503D01*
X185034726Y-77849504D01*
X184970990Y-78003376D01*
X184970988Y-78003384D01*
X184938498Y-78166721D01*
X174895499Y-78166721D01*
X174863008Y-78003377D01*
X174799272Y-77849506D01*
X174799271Y-77849504D01*
X174799271Y-77849503D01*
X174706744Y-77711026D01*
X174706738Y-77711019D01*
X174588980Y-77593261D01*
X174588973Y-77593255D01*
X174450495Y-77500728D01*
X174296623Y-77436992D01*
X174296615Y-77436990D01*
X174133278Y-77404500D01*
X174133274Y-77404500D01*
X173966726Y-77404500D01*
X173966721Y-77404500D01*
X173803384Y-77436990D01*
X173803376Y-77436992D01*
X173649504Y-77500728D01*
X173649503Y-77500728D01*
X173511026Y-77593255D01*
X173511019Y-77593261D01*
X173393261Y-77711019D01*
X173393255Y-77711026D01*
X173300728Y-77849503D01*
X173300728Y-77849504D01*
X173236992Y-78003376D01*
X173236990Y-78003384D01*
X173204500Y-78166721D01*
X164821648Y-78166721D01*
X164918921Y-78140657D01*
X165033049Y-78074765D01*
X165126235Y-77981579D01*
X165192127Y-77867451D01*
X165226235Y-77740157D01*
X165226235Y-77608373D01*
X165192127Y-77481079D01*
X165130082Y-77373615D01*
X191174500Y-77373615D01*
X191174500Y-77526384D01*
X191204300Y-77676197D01*
X191204302Y-77676205D01*
X191262759Y-77817334D01*
X191262764Y-77817343D01*
X191347629Y-77944351D01*
X191347632Y-77944355D01*
X191455644Y-78052367D01*
X191455648Y-78052370D01*
X191582656Y-78137235D01*
X191582665Y-78137240D01*
X191614636Y-78150482D01*
X191723795Y-78195698D01*
X191865084Y-78223802D01*
X191873615Y-78225499D01*
X191873619Y-78225500D01*
X191873620Y-78225500D01*
X192026381Y-78225500D01*
X192026382Y-78225499D01*
X192176205Y-78195698D01*
X192317337Y-78137239D01*
X192444352Y-78052370D01*
X192552370Y-77944352D01*
X192637239Y-77817337D01*
X192695698Y-77676205D01*
X192725500Y-77526380D01*
X192725500Y-77373620D01*
X192725499Y-77373615D01*
X193174500Y-77373615D01*
X193174500Y-77526384D01*
X193204300Y-77676197D01*
X193204302Y-77676205D01*
X193262759Y-77817334D01*
X193262764Y-77817343D01*
X193347629Y-77944351D01*
X193347632Y-77944355D01*
X193455644Y-78052367D01*
X193455648Y-78052370D01*
X193582656Y-78137235D01*
X193582665Y-78137240D01*
X193614636Y-78150482D01*
X193723795Y-78195698D01*
X193865084Y-78223802D01*
X193873615Y-78225499D01*
X193873619Y-78225500D01*
X193873620Y-78225500D01*
X194026381Y-78225500D01*
X194026382Y-78225499D01*
X194176205Y-78195698D01*
X194317337Y-78137239D01*
X194444352Y-78052370D01*
X194552370Y-77944352D01*
X194637239Y-77817337D01*
X194695698Y-77676205D01*
X194725500Y-77526380D01*
X194725500Y-77373620D01*
X194695698Y-77223795D01*
X194637239Y-77082663D01*
X194637238Y-77082662D01*
X194637235Y-77082656D01*
X194552370Y-76955648D01*
X194552367Y-76955644D01*
X194444355Y-76847632D01*
X194444351Y-76847629D01*
X194317343Y-76762764D01*
X194317334Y-76762759D01*
X194176205Y-76704302D01*
X194176197Y-76704300D01*
X194026384Y-76674500D01*
X194026380Y-76674500D01*
X193873620Y-76674500D01*
X193873615Y-76674500D01*
X193723802Y-76704300D01*
X193723794Y-76704302D01*
X193582665Y-76762759D01*
X193582656Y-76762764D01*
X193455648Y-76847629D01*
X193455644Y-76847632D01*
X193347632Y-76955644D01*
X193347629Y-76955648D01*
X193262764Y-77082656D01*
X193262759Y-77082665D01*
X193204302Y-77223794D01*
X193204300Y-77223802D01*
X193174500Y-77373615D01*
X192725499Y-77373615D01*
X192695698Y-77223795D01*
X192637239Y-77082663D01*
X192637238Y-77082662D01*
X192637235Y-77082656D01*
X192552370Y-76955648D01*
X192552367Y-76955644D01*
X192444355Y-76847632D01*
X192444351Y-76847629D01*
X192317343Y-76762764D01*
X192317334Y-76762759D01*
X192176205Y-76704302D01*
X192176197Y-76704300D01*
X192026384Y-76674500D01*
X192026380Y-76674500D01*
X191873620Y-76674500D01*
X191873615Y-76674500D01*
X191723802Y-76704300D01*
X191723794Y-76704302D01*
X191582665Y-76762759D01*
X191582656Y-76762764D01*
X191455648Y-76847629D01*
X191455644Y-76847632D01*
X191347632Y-76955644D01*
X191347629Y-76955648D01*
X191262764Y-77082656D01*
X191262759Y-77082665D01*
X191204302Y-77223794D01*
X191204300Y-77223802D01*
X191174500Y-77373615D01*
X165130082Y-77373615D01*
X165126235Y-77366951D01*
X165033049Y-77273765D01*
X164949452Y-77225500D01*
X164918922Y-77207873D01*
X164855274Y-77190819D01*
X164791627Y-77173765D01*
X164659843Y-77173765D01*
X164532547Y-77207873D01*
X164418421Y-77273765D01*
X164418418Y-77273767D01*
X164325237Y-77366948D01*
X164325235Y-77366951D01*
X164259343Y-77481077D01*
X164229286Y-77593255D01*
X164225235Y-77608373D01*
X160699007Y-77608373D01*
X160665892Y-77599500D01*
X160534108Y-77599500D01*
X160406812Y-77633608D01*
X160292686Y-77699500D01*
X160292683Y-77699502D01*
X160199502Y-77792683D01*
X160199500Y-77792686D01*
X160133608Y-77906812D01*
X160107734Y-78003377D01*
X160099500Y-78034108D01*
X139675500Y-78034108D01*
X139675500Y-77855249D01*
X139675499Y-77855247D01*
X139663868Y-77796770D01*
X139663867Y-77796769D01*
X139619552Y-77730447D01*
X139553230Y-77686132D01*
X139553229Y-77686131D01*
X139494752Y-77674500D01*
X139494748Y-77674500D01*
X138305252Y-77674500D01*
X138305247Y-77674500D01*
X138246770Y-77686131D01*
X138246769Y-77686132D01*
X138180447Y-77730447D01*
X138136132Y-77796769D01*
X138136131Y-77796770D01*
X138124500Y-77855247D01*
X137401970Y-77855247D01*
X137394355Y-77847632D01*
X137394351Y-77847629D01*
X137267343Y-77762764D01*
X137267334Y-77762759D01*
X137126205Y-77704302D01*
X137126197Y-77704300D01*
X136976384Y-77674500D01*
X136976380Y-77674500D01*
X136823620Y-77674500D01*
X136823615Y-77674500D01*
X136673802Y-77704300D01*
X136673794Y-77704302D01*
X136532665Y-77762759D01*
X136532656Y-77762764D01*
X136405648Y-77847629D01*
X136405644Y-77847632D01*
X136297632Y-77955644D01*
X136297629Y-77955648D01*
X136212764Y-78082656D01*
X136212759Y-78082665D01*
X136154302Y-78223794D01*
X136154300Y-78223802D01*
X136124500Y-78373615D01*
X131200500Y-78373615D01*
X131200500Y-76373615D01*
X136124500Y-76373615D01*
X136124500Y-76526384D01*
X136154300Y-76676197D01*
X136154302Y-76676205D01*
X136212759Y-76817334D01*
X136212764Y-76817343D01*
X136297629Y-76944351D01*
X136297632Y-76944355D01*
X136405644Y-77052367D01*
X136405648Y-77052370D01*
X136532656Y-77137235D01*
X136532662Y-77137238D01*
X136532663Y-77137239D01*
X136673795Y-77195698D01*
X136815084Y-77223802D01*
X136823615Y-77225499D01*
X136823619Y-77225500D01*
X136823620Y-77225500D01*
X136976381Y-77225500D01*
X136976382Y-77225499D01*
X137126205Y-77195698D01*
X137267337Y-77137239D01*
X137394352Y-77052370D01*
X137502370Y-76944352D01*
X137587239Y-76817337D01*
X137645698Y-76676205D01*
X137675500Y-76526380D01*
X137675500Y-76373620D01*
X137675499Y-76373615D01*
X138124500Y-76373615D01*
X138124500Y-76526384D01*
X138154300Y-76676197D01*
X138154302Y-76676205D01*
X138212759Y-76817334D01*
X138212764Y-76817343D01*
X138297629Y-76944351D01*
X138297632Y-76944355D01*
X138405644Y-77052367D01*
X138405648Y-77052370D01*
X138532656Y-77137235D01*
X138532662Y-77137238D01*
X138532663Y-77137239D01*
X138673795Y-77195698D01*
X138815084Y-77223802D01*
X138823615Y-77225499D01*
X138823619Y-77225500D01*
X138823620Y-77225500D01*
X138976381Y-77225500D01*
X138976382Y-77225499D01*
X139126205Y-77195698D01*
X139267337Y-77137239D01*
X139394352Y-77052370D01*
X139502370Y-76944352D01*
X139587239Y-76817337D01*
X139645698Y-76676205D01*
X139673963Y-76534108D01*
X148699500Y-76534108D01*
X148699500Y-76665892D01*
X148709791Y-76704300D01*
X148733608Y-76793187D01*
X148747555Y-76817343D01*
X148799500Y-76907314D01*
X148892686Y-77000500D01*
X149006814Y-77066392D01*
X149134108Y-77100500D01*
X149134110Y-77100500D01*
X149265890Y-77100500D01*
X149265892Y-77100500D01*
X149393186Y-77066392D01*
X149507314Y-77000500D01*
X149600500Y-76907314D01*
X149666392Y-76793186D01*
X149700500Y-76665892D01*
X149700500Y-76534108D01*
X149666392Y-76406814D01*
X149600500Y-76292686D01*
X149507314Y-76199500D01*
X149393186Y-76133608D01*
X149265892Y-76099500D01*
X149134108Y-76099500D01*
X149006812Y-76133608D01*
X148892686Y-76199500D01*
X148892683Y-76199502D01*
X148799502Y-76292683D01*
X148799500Y-76292686D01*
X148733608Y-76406812D01*
X148733473Y-76407316D01*
X148699500Y-76534108D01*
X139673963Y-76534108D01*
X139675500Y-76526380D01*
X139675500Y-76373620D01*
X139645698Y-76223795D01*
X139592298Y-76094877D01*
X139587240Y-76082665D01*
X139587235Y-76082656D01*
X139554796Y-76034108D01*
X163499500Y-76034108D01*
X163499500Y-76165892D01*
X163515472Y-76225500D01*
X163533608Y-76293187D01*
X163551975Y-76324999D01*
X163599500Y-76407314D01*
X163692686Y-76500500D01*
X163806814Y-76566392D01*
X163934108Y-76600500D01*
X163934110Y-76600500D01*
X164065890Y-76600500D01*
X164065892Y-76600500D01*
X164193186Y-76566392D01*
X164307314Y-76500500D01*
X164400500Y-76407314D01*
X164466392Y-76293186D01*
X164500500Y-76165892D01*
X164500500Y-76069785D01*
X191075001Y-76069785D01*
X191075002Y-76069808D01*
X191077908Y-76094869D01*
X191077909Y-76094873D01*
X191123211Y-76197474D01*
X191123214Y-76197479D01*
X191202520Y-76276785D01*
X191202525Y-76276788D01*
X191305123Y-76322089D01*
X191330206Y-76324999D01*
X191699999Y-76324999D01*
X192200000Y-76324999D01*
X192569786Y-76324999D01*
X192569808Y-76324997D01*
X192594869Y-76322091D01*
X192594873Y-76322090D01*
X192697474Y-76276788D01*
X192697479Y-76276785D01*
X192776785Y-76197479D01*
X192776788Y-76197474D01*
X192822089Y-76094877D01*
X192822089Y-76094875D01*
X192824999Y-76069794D01*
X192825000Y-76069791D01*
X192825000Y-75700000D01*
X192200000Y-75700000D01*
X192200000Y-76324999D01*
X191699999Y-76324999D01*
X191700000Y-76324998D01*
X191700000Y-75700000D01*
X191075001Y-75700000D01*
X191075001Y-76069785D01*
X164500500Y-76069785D01*
X164500500Y-76034108D01*
X164466392Y-75906814D01*
X164400500Y-75792686D01*
X164307314Y-75699500D01*
X164247394Y-75664905D01*
X164193187Y-75633608D01*
X164129539Y-75616554D01*
X164065892Y-75599500D01*
X163934108Y-75599500D01*
X163806812Y-75633608D01*
X163692686Y-75699500D01*
X163692683Y-75699502D01*
X163599502Y-75792683D01*
X163599500Y-75792686D01*
X163533608Y-75906812D01*
X163523549Y-75944355D01*
X163499500Y-76034108D01*
X139554796Y-76034108D01*
X139502370Y-75955648D01*
X139502367Y-75955644D01*
X139394355Y-75847632D01*
X139394351Y-75847629D01*
X139267343Y-75762764D01*
X139267334Y-75762759D01*
X139126205Y-75704302D01*
X139126197Y-75704300D01*
X138976384Y-75674500D01*
X138976380Y-75674500D01*
X138823620Y-75674500D01*
X138823615Y-75674500D01*
X138673802Y-75704300D01*
X138673794Y-75704302D01*
X138532665Y-75762759D01*
X138532656Y-75762764D01*
X138405648Y-75847629D01*
X138405644Y-75847632D01*
X138297632Y-75955644D01*
X138297629Y-75955648D01*
X138212764Y-76082656D01*
X138212759Y-76082665D01*
X138154302Y-76223794D01*
X138154300Y-76223802D01*
X138124500Y-76373615D01*
X137675499Y-76373615D01*
X137645698Y-76223795D01*
X137592298Y-76094877D01*
X137587240Y-76082665D01*
X137587235Y-76082656D01*
X137502370Y-75955648D01*
X137502367Y-75955644D01*
X137394355Y-75847632D01*
X137394351Y-75847629D01*
X137267343Y-75762764D01*
X137267334Y-75762759D01*
X137126205Y-75704302D01*
X137126197Y-75704300D01*
X136976384Y-75674500D01*
X136976380Y-75674500D01*
X136823620Y-75674500D01*
X136823615Y-75674500D01*
X136673802Y-75704300D01*
X136673794Y-75704302D01*
X136532665Y-75762759D01*
X136532656Y-75762764D01*
X136405648Y-75847629D01*
X136405644Y-75847632D01*
X136297632Y-75955644D01*
X136297629Y-75955648D01*
X136212764Y-76082656D01*
X136212759Y-76082665D01*
X136154302Y-76223794D01*
X136154300Y-76223802D01*
X136124500Y-76373615D01*
X131200500Y-76373615D01*
X131200500Y-75403922D01*
X191600000Y-75403922D01*
X191600000Y-75496078D01*
X191623852Y-75585095D01*
X191669930Y-75664905D01*
X191735095Y-75730070D01*
X191814905Y-75776148D01*
X191903922Y-75800000D01*
X191996078Y-75800000D01*
X192085095Y-75776148D01*
X192164905Y-75730070D01*
X192230070Y-75664905D01*
X192276148Y-75585095D01*
X192300000Y-75496078D01*
X192300000Y-75403922D01*
X192291879Y-75373615D01*
X193174500Y-75373615D01*
X193174500Y-75526384D01*
X193204300Y-75676197D01*
X193204302Y-75676205D01*
X193262759Y-75817334D01*
X193262764Y-75817343D01*
X193347629Y-75944351D01*
X193347632Y-75944355D01*
X193455644Y-76052367D01*
X193455648Y-76052370D01*
X193582656Y-76137235D01*
X193582662Y-76137238D01*
X193582663Y-76137239D01*
X193723795Y-76195698D01*
X193865084Y-76223802D01*
X193873615Y-76225499D01*
X193873619Y-76225500D01*
X193873620Y-76225500D01*
X194026381Y-76225500D01*
X194026382Y-76225499D01*
X194176205Y-76195698D01*
X194317337Y-76137239D01*
X194444352Y-76052370D01*
X194552370Y-75944352D01*
X194637239Y-75817337D01*
X194695698Y-75676205D01*
X194725500Y-75526380D01*
X194725500Y-75373620D01*
X194695698Y-75223795D01*
X194637239Y-75082663D01*
X194637238Y-75082662D01*
X194637235Y-75082656D01*
X194552370Y-74955648D01*
X194552367Y-74955644D01*
X194444355Y-74847632D01*
X194444351Y-74847629D01*
X194317343Y-74762764D01*
X194317334Y-74762759D01*
X194176205Y-74704302D01*
X194176197Y-74704300D01*
X194026384Y-74674500D01*
X194026380Y-74674500D01*
X193873620Y-74674500D01*
X193873615Y-74674500D01*
X193723802Y-74704300D01*
X193723794Y-74704302D01*
X193582665Y-74762759D01*
X193582656Y-74762764D01*
X193455648Y-74847629D01*
X193455644Y-74847632D01*
X193347632Y-74955644D01*
X193347629Y-74955648D01*
X193262764Y-75082656D01*
X193262759Y-75082665D01*
X193204302Y-75223794D01*
X193204300Y-75223802D01*
X193174500Y-75373615D01*
X192291879Y-75373615D01*
X192276148Y-75314905D01*
X192230070Y-75235095D01*
X192194975Y-75200000D01*
X192200000Y-75200000D01*
X192824999Y-75200000D01*
X192824999Y-74830214D01*
X192824997Y-74830191D01*
X192822091Y-74805130D01*
X192822090Y-74805126D01*
X192776788Y-74702525D01*
X192776785Y-74702520D01*
X192697479Y-74623214D01*
X192697474Y-74623211D01*
X192594876Y-74577910D01*
X192569794Y-74575000D01*
X192200000Y-74575000D01*
X192200000Y-75200000D01*
X192194975Y-75200000D01*
X192164905Y-75169930D01*
X192085095Y-75123852D01*
X191996078Y-75100000D01*
X191903922Y-75100000D01*
X191814905Y-75123852D01*
X191735095Y-75169930D01*
X191669930Y-75235095D01*
X191623852Y-75314905D01*
X191600000Y-75403922D01*
X131200500Y-75403922D01*
X131200500Y-72807449D01*
X135725000Y-72807449D01*
X135725000Y-73092550D01*
X135725001Y-73092566D01*
X135762214Y-73375230D01*
X135836008Y-73650633D01*
X135945113Y-73914035D01*
X135945117Y-73914044D01*
X136087669Y-74160951D01*
X136087680Y-74160968D01*
X136195267Y-74301176D01*
X136195268Y-74301176D01*
X136945809Y-73550635D01*
X137041898Y-73682888D01*
X137167112Y-73808102D01*
X137299363Y-73904189D01*
X136548822Y-74654729D01*
X136548822Y-74654731D01*
X136689031Y-74762319D01*
X136689048Y-74762330D01*
X136935955Y-74904882D01*
X136935964Y-74904886D01*
X137199366Y-75013991D01*
X137474769Y-75087785D01*
X137757433Y-75124998D01*
X137757450Y-75125000D01*
X138042550Y-75125000D01*
X138042566Y-75124998D01*
X138325230Y-75087785D01*
X138600633Y-75013991D01*
X138864035Y-74904886D01*
X138864044Y-74904882D01*
X139110954Y-74762328D01*
X139251176Y-74654730D01*
X139251176Y-74654729D01*
X138500636Y-73904189D01*
X138632888Y-73808102D01*
X138758102Y-73682888D01*
X138854189Y-73550636D01*
X139604729Y-74301176D01*
X139604730Y-74301176D01*
X139656195Y-74234108D01*
X160599500Y-74234108D01*
X160599500Y-74365892D01*
X160606680Y-74392689D01*
X160633608Y-74493187D01*
X160661907Y-74542202D01*
X160699500Y-74607314D01*
X160792686Y-74700500D01*
X160906814Y-74766392D01*
X161034108Y-74800500D01*
X161034110Y-74800500D01*
X161165890Y-74800500D01*
X161165892Y-74800500D01*
X161293186Y-74766392D01*
X161407314Y-74700500D01*
X161500500Y-74607314D01*
X161538093Y-74542202D01*
X161567613Y-74491072D01*
X161618180Y-74442856D01*
X161686787Y-74429634D01*
X161751652Y-74455602D01*
X161782387Y-74491072D01*
X161849497Y-74607310D01*
X161849499Y-74607312D01*
X161849500Y-74607314D01*
X161942686Y-74700500D01*
X162056814Y-74766392D01*
X162184108Y-74800500D01*
X162184110Y-74800500D01*
X162315890Y-74800500D01*
X162315892Y-74800500D01*
X162443186Y-74766392D01*
X162557314Y-74700500D01*
X162650500Y-74607314D01*
X162667613Y-74577672D01*
X162718179Y-74529458D01*
X162786786Y-74516234D01*
X162851651Y-74542202D01*
X162882386Y-74577672D01*
X162899500Y-74607314D01*
X162992686Y-74700500D01*
X163106814Y-74766392D01*
X163234108Y-74800500D01*
X163234110Y-74800500D01*
X163365890Y-74800500D01*
X163365892Y-74800500D01*
X163493186Y-74766392D01*
X163607314Y-74700500D01*
X163673706Y-74634108D01*
X165599500Y-74634108D01*
X165599500Y-74765891D01*
X165633608Y-74893187D01*
X165657387Y-74934372D01*
X165699500Y-75007314D01*
X165792686Y-75100500D01*
X165906814Y-75166392D01*
X166034108Y-75200500D01*
X166034110Y-75200500D01*
X166165890Y-75200500D01*
X166165892Y-75200500D01*
X166293186Y-75166392D01*
X166407314Y-75100500D01*
X166500500Y-75007314D01*
X166542613Y-74934371D01*
X166593180Y-74886156D01*
X166661787Y-74872933D01*
X166726652Y-74898901D01*
X166757386Y-74934371D01*
X166799500Y-75007314D01*
X166892686Y-75100500D01*
X167006814Y-75166392D01*
X167134108Y-75200500D01*
X167134110Y-75200500D01*
X167265890Y-75200500D01*
X167265892Y-75200500D01*
X167393186Y-75166392D01*
X167507314Y-75100500D01*
X167600500Y-75007314D01*
X167657048Y-74909370D01*
X167707612Y-74861157D01*
X167776219Y-74847933D01*
X167841084Y-74873901D01*
X167871820Y-74909371D01*
X167899500Y-74957314D01*
X167992686Y-75050500D01*
X168106814Y-75116392D01*
X168234108Y-75150500D01*
X168234110Y-75150500D01*
X168365890Y-75150500D01*
X168365892Y-75150500D01*
X168493186Y-75116392D01*
X168607314Y-75050500D01*
X168700500Y-74957314D01*
X168766392Y-74843186D01*
X168769870Y-74830205D01*
X191075000Y-74830205D01*
X191075000Y-75200000D01*
X191700000Y-75200000D01*
X191700000Y-74575000D01*
X191330214Y-74575000D01*
X191330191Y-74575002D01*
X191305130Y-74577908D01*
X191305126Y-74577909D01*
X191202525Y-74623211D01*
X191202520Y-74623214D01*
X191123214Y-74702520D01*
X191123211Y-74702525D01*
X191077910Y-74805122D01*
X191077910Y-74805124D01*
X191075000Y-74830205D01*
X168769870Y-74830205D01*
X168800500Y-74715892D01*
X168800500Y-74584108D01*
X168766392Y-74456814D01*
X168700500Y-74342686D01*
X168607314Y-74249500D01*
X168550250Y-74216554D01*
X168493187Y-74183608D01*
X168429539Y-74166554D01*
X168365892Y-74149500D01*
X168234108Y-74149500D01*
X168106812Y-74183608D01*
X167992686Y-74249500D01*
X167992683Y-74249502D01*
X167899502Y-74342683D01*
X167899500Y-74342686D01*
X167842953Y-74440628D01*
X167792385Y-74488843D01*
X167723778Y-74502065D01*
X167658914Y-74476097D01*
X167628179Y-74440627D01*
X167605011Y-74400500D01*
X167600500Y-74392686D01*
X167507314Y-74299500D01*
X167450250Y-74266554D01*
X167393187Y-74233608D01*
X167329539Y-74216554D01*
X167265892Y-74199500D01*
X167134108Y-74199500D01*
X167006812Y-74233608D01*
X166892686Y-74299500D01*
X166892683Y-74299502D01*
X166799502Y-74392683D01*
X166799500Y-74392686D01*
X166763176Y-74455602D01*
X166757387Y-74465628D01*
X166706820Y-74513843D01*
X166638212Y-74527065D01*
X166573348Y-74501097D01*
X166542613Y-74465628D01*
X166537523Y-74456812D01*
X166500500Y-74392686D01*
X166407314Y-74299500D01*
X166350250Y-74266554D01*
X166293187Y-74233608D01*
X166229539Y-74216554D01*
X166165892Y-74199500D01*
X166034108Y-74199500D01*
X165906812Y-74233608D01*
X165792686Y-74299500D01*
X165792683Y-74299502D01*
X165699502Y-74392683D01*
X165699500Y-74392686D01*
X165633608Y-74506812D01*
X165599500Y-74634108D01*
X163673706Y-74634108D01*
X163700500Y-74607314D01*
X163713898Y-74584108D01*
X163725520Y-74563980D01*
X163761266Y-74502065D01*
X163766392Y-74493186D01*
X163800500Y-74365892D01*
X163800500Y-74234108D01*
X163766392Y-74106814D01*
X163700500Y-73992686D01*
X163607314Y-73899500D01*
X163550250Y-73866554D01*
X163494053Y-73834108D01*
X170299500Y-73834108D01*
X170299500Y-73965892D01*
X170312388Y-74013991D01*
X170333608Y-74093187D01*
X170351976Y-74125000D01*
X170399500Y-74207314D01*
X170492686Y-74300500D01*
X170591521Y-74357563D01*
X170605944Y-74365890D01*
X170606814Y-74366392D01*
X170734108Y-74400500D01*
X170734110Y-74400500D01*
X170865890Y-74400500D01*
X170865892Y-74400500D01*
X170993186Y-74366392D01*
X171107314Y-74300500D01*
X171200500Y-74207314D01*
X171266392Y-74093186D01*
X171300500Y-73965892D01*
X171300500Y-73934108D01*
X174599500Y-73934108D01*
X174599500Y-74065892D01*
X174604289Y-74083764D01*
X174633608Y-74193187D01*
X174666121Y-74249500D01*
X174699500Y-74307314D01*
X174792686Y-74400500D01*
X174862188Y-74440627D01*
X174905490Y-74465628D01*
X174906814Y-74466392D01*
X175034108Y-74500500D01*
X175034110Y-74500500D01*
X175165890Y-74500500D01*
X175165892Y-74500500D01*
X175293186Y-74466392D01*
X175407314Y-74400500D01*
X175500500Y-74307314D01*
X175566392Y-74193186D01*
X175600500Y-74065892D01*
X175600500Y-73934108D01*
X175566392Y-73806814D01*
X175500500Y-73692686D01*
X175407314Y-73599500D01*
X175303615Y-73539629D01*
X175293187Y-73533608D01*
X175229539Y-73516554D01*
X175165892Y-73499500D01*
X175034108Y-73499500D01*
X174906812Y-73533608D01*
X174792686Y-73599500D01*
X174792683Y-73599502D01*
X174699502Y-73692683D01*
X174699500Y-73692686D01*
X174633608Y-73806812D01*
X174607331Y-73904882D01*
X174599500Y-73934108D01*
X171300500Y-73934108D01*
X171300500Y-73834108D01*
X171266392Y-73706814D01*
X171200500Y-73592686D01*
X171107314Y-73499500D01*
X171050250Y-73466554D01*
X170993187Y-73433608D01*
X170929539Y-73416554D01*
X170865892Y-73399500D01*
X170734108Y-73399500D01*
X170606812Y-73433608D01*
X170492686Y-73499500D01*
X170492683Y-73499502D01*
X170399502Y-73592683D01*
X170399500Y-73592686D01*
X170333608Y-73706812D01*
X170308773Y-73799500D01*
X170299500Y-73834108D01*
X163494053Y-73834108D01*
X163493187Y-73833608D01*
X163393188Y-73806814D01*
X163365892Y-73799500D01*
X163234108Y-73799500D01*
X163106812Y-73833608D01*
X162992686Y-73899500D01*
X162992683Y-73899502D01*
X162899502Y-73992683D01*
X162899500Y-73992686D01*
X162882387Y-74022327D01*
X162831819Y-74070542D01*
X162763212Y-74083764D01*
X162698348Y-74057796D01*
X162667613Y-74022327D01*
X162662800Y-74013991D01*
X162650500Y-73992686D01*
X162557314Y-73899500D01*
X162500250Y-73866554D01*
X162443187Y-73833608D01*
X162343188Y-73806814D01*
X162315892Y-73799500D01*
X162184108Y-73799500D01*
X162056812Y-73833608D01*
X161942686Y-73899500D01*
X161942683Y-73899502D01*
X161849502Y-73992683D01*
X161849500Y-73992686D01*
X161782387Y-74108928D01*
X161731819Y-74157143D01*
X161663212Y-74170365D01*
X161598348Y-74144397D01*
X161567613Y-74108928D01*
X161512800Y-74013991D01*
X161500500Y-73992686D01*
X161407314Y-73899500D01*
X161350250Y-73866554D01*
X161293187Y-73833608D01*
X161193188Y-73806814D01*
X161165892Y-73799500D01*
X161034108Y-73799500D01*
X160906812Y-73833608D01*
X160792686Y-73899500D01*
X160792683Y-73899502D01*
X160699502Y-73992683D01*
X160699500Y-73992686D01*
X160633608Y-74106812D01*
X160608773Y-74199500D01*
X160599500Y-74234108D01*
X139656195Y-74234108D01*
X139712330Y-74160953D01*
X139854882Y-73914045D01*
X139854886Y-73914035D01*
X139963991Y-73650633D01*
X140037785Y-73375230D01*
X140074998Y-73092566D01*
X140075000Y-73092550D01*
X140075000Y-72807449D01*
X140074998Y-72807433D01*
X140037785Y-72524769D01*
X139963991Y-72249366D01*
X139854886Y-71985964D01*
X139854885Y-71985962D01*
X139827184Y-71937982D01*
X139827183Y-71937980D01*
X139796080Y-71884108D01*
X152199500Y-71884108D01*
X152199500Y-72015892D01*
X152208505Y-72049500D01*
X152233608Y-72143187D01*
X152241474Y-72156811D01*
X152299500Y-72257314D01*
X152392686Y-72350500D01*
X152491521Y-72407563D01*
X152505944Y-72415890D01*
X152506814Y-72416392D01*
X152634108Y-72450500D01*
X152634110Y-72450500D01*
X152765890Y-72450500D01*
X152765892Y-72450500D01*
X152893186Y-72416392D01*
X152949103Y-72384108D01*
X155499500Y-72384108D01*
X155499500Y-72515891D01*
X155533608Y-72643187D01*
X155556530Y-72682888D01*
X155599500Y-72757314D01*
X155692686Y-72850500D01*
X155790218Y-72906810D01*
X155802731Y-72914035D01*
X155806814Y-72916392D01*
X155934108Y-72950500D01*
X155934110Y-72950500D01*
X156065890Y-72950500D01*
X156065892Y-72950500D01*
X156193186Y-72916392D01*
X156307314Y-72850500D01*
X156400500Y-72757314D01*
X156466392Y-72643186D01*
X156500500Y-72515892D01*
X156500500Y-72384108D01*
X156466392Y-72256814D01*
X156400500Y-72142686D01*
X156307314Y-72049500D01*
X156213027Y-71995063D01*
X156193187Y-71983608D01*
X156101354Y-71959002D01*
X156065892Y-71949500D01*
X155934108Y-71949500D01*
X155806812Y-71983608D01*
X155692686Y-72049500D01*
X155692683Y-72049502D01*
X155599502Y-72142683D01*
X155599500Y-72142686D01*
X155533608Y-72256812D01*
X155499500Y-72384108D01*
X152949103Y-72384108D01*
X153007314Y-72350500D01*
X153100500Y-72257314D01*
X153166392Y-72143186D01*
X153200500Y-72015892D01*
X153200500Y-71884108D01*
X153166392Y-71756814D01*
X153100500Y-71642686D01*
X153007314Y-71549500D01*
X152980654Y-71534108D01*
X179199500Y-71534108D01*
X179199500Y-71665892D01*
X179224369Y-71758707D01*
X179233609Y-71793188D01*
X179233609Y-71793189D01*
X179302782Y-71913000D01*
X179319255Y-71980900D01*
X179302782Y-72037000D01*
X179233609Y-72156810D01*
X179233609Y-72156811D01*
X179233609Y-72156812D01*
X179233608Y-72156814D01*
X179199500Y-72284108D01*
X179199500Y-72415892D01*
X179228673Y-72524769D01*
X179233609Y-72543188D01*
X179233609Y-72543189D01*
X179302782Y-72663000D01*
X179319255Y-72730900D01*
X179302782Y-72787000D01*
X179233609Y-72906810D01*
X179233609Y-72906811D01*
X179233609Y-72906812D01*
X179233608Y-72906814D01*
X179210628Y-72992579D01*
X179199500Y-73034108D01*
X179199500Y-73165891D01*
X179233608Y-73293187D01*
X179238221Y-73301176D01*
X179299500Y-73407314D01*
X179392686Y-73500500D01*
X179491521Y-73557563D01*
X179506810Y-73566390D01*
X179506814Y-73566392D01*
X179634108Y-73600500D01*
X179634110Y-73600500D01*
X179765890Y-73600500D01*
X179765892Y-73600500D01*
X179893186Y-73566392D01*
X180007314Y-73500500D01*
X180100500Y-73407314D01*
X180166392Y-73293186D01*
X180200500Y-73165892D01*
X180200500Y-73034108D01*
X180166392Y-72906814D01*
X180100500Y-72792686D01*
X180100498Y-72792684D01*
X180097217Y-72787001D01*
X180080744Y-72719101D01*
X180097217Y-72662999D01*
X180100498Y-72657315D01*
X180100500Y-72657314D01*
X180166392Y-72543186D01*
X180200500Y-72415892D01*
X180200500Y-72284108D01*
X180166392Y-72156814D01*
X180100500Y-72042686D01*
X180100498Y-72042684D01*
X180097217Y-72037001D01*
X180095153Y-72028494D01*
X180089710Y-72021641D01*
X180087042Y-71995063D01*
X180080744Y-71969101D01*
X180083423Y-71959002D01*
X180082733Y-71952120D01*
X180091621Y-71928113D01*
X180094116Y-71918712D01*
X180099322Y-71908491D01*
X180100500Y-71907314D01*
X180158157Y-71807449D01*
X190775000Y-71807449D01*
X190775000Y-72092550D01*
X190775001Y-72092566D01*
X190812214Y-72375230D01*
X190886008Y-72650633D01*
X190995113Y-72914035D01*
X190995117Y-72914044D01*
X191137669Y-73160951D01*
X191137680Y-73160968D01*
X191245267Y-73301176D01*
X191245268Y-73301176D01*
X191995809Y-72550635D01*
X192091898Y-72682888D01*
X192217112Y-72808102D01*
X192349363Y-72904189D01*
X191598822Y-73654729D01*
X191598822Y-73654731D01*
X191739031Y-73762319D01*
X191739048Y-73762330D01*
X191985955Y-73904882D01*
X191985964Y-73904886D01*
X192249366Y-74013991D01*
X192524769Y-74087785D01*
X192807433Y-74124998D01*
X192807450Y-74125000D01*
X193092550Y-74125000D01*
X193092566Y-74124998D01*
X193375230Y-74087785D01*
X193650633Y-74013991D01*
X193914035Y-73904886D01*
X193914044Y-73904882D01*
X194160954Y-73762328D01*
X194301176Y-73654730D01*
X194301176Y-73654729D01*
X193550636Y-72904189D01*
X193682888Y-72808102D01*
X193808102Y-72682888D01*
X193904189Y-72550636D01*
X194654729Y-73301176D01*
X194654730Y-73301176D01*
X194762328Y-73160954D01*
X194904882Y-72914044D01*
X194904886Y-72914035D01*
X195013991Y-72650633D01*
X195087785Y-72375230D01*
X195124998Y-72092566D01*
X195125000Y-72092550D01*
X195125000Y-71807449D01*
X195124998Y-71807433D01*
X195087785Y-71524769D01*
X195013991Y-71249366D01*
X194904886Y-70985964D01*
X194904882Y-70985955D01*
X194762330Y-70739048D01*
X194762319Y-70739031D01*
X194654731Y-70598822D01*
X194654729Y-70598822D01*
X193904189Y-71349362D01*
X193808102Y-71217112D01*
X193682888Y-71091898D01*
X193550635Y-70995809D01*
X194301176Y-70245268D01*
X194301176Y-70245267D01*
X194160968Y-70137680D01*
X194160951Y-70137669D01*
X193914044Y-69995117D01*
X193914035Y-69995113D01*
X193650633Y-69886008D01*
X193375230Y-69812214D01*
X193092566Y-69775001D01*
X193092550Y-69775000D01*
X192807450Y-69775000D01*
X192807433Y-69775001D01*
X192524769Y-69812214D01*
X192249366Y-69886008D01*
X191985964Y-69995113D01*
X191985955Y-69995117D01*
X191739048Y-70137669D01*
X191739041Y-70137674D01*
X191598822Y-70245268D01*
X192349364Y-70995810D01*
X192217112Y-71091898D01*
X192091898Y-71217112D01*
X191995810Y-71349364D01*
X191245268Y-70598822D01*
X191137674Y-70739041D01*
X191137669Y-70739048D01*
X190995117Y-70985955D01*
X190995113Y-70985964D01*
X190886008Y-71249366D01*
X190812214Y-71524769D01*
X190775001Y-71807433D01*
X190775000Y-71807449D01*
X180158157Y-71807449D01*
X180166392Y-71793186D01*
X180200500Y-71665892D01*
X180200500Y-71534108D01*
X180166392Y-71406814D01*
X180100500Y-71292686D01*
X180007314Y-71199500D01*
X179950250Y-71166554D01*
X179893187Y-71133608D01*
X179829539Y-71116554D01*
X179765892Y-71099500D01*
X179634108Y-71099500D01*
X179506812Y-71133608D01*
X179392686Y-71199500D01*
X179392683Y-71199502D01*
X179299502Y-71292683D01*
X179299500Y-71292686D01*
X179233608Y-71406812D01*
X179222170Y-71449500D01*
X179199500Y-71534108D01*
X152980654Y-71534108D01*
X152950250Y-71516554D01*
X152893187Y-71483608D01*
X152829539Y-71466554D01*
X152765892Y-71449500D01*
X152634108Y-71449500D01*
X152506812Y-71483608D01*
X152392686Y-71549500D01*
X152392683Y-71549502D01*
X152299502Y-71642683D01*
X152299500Y-71642686D01*
X152233608Y-71756812D01*
X152215338Y-71825000D01*
X152199500Y-71884108D01*
X139796080Y-71884108D01*
X139712330Y-71739048D01*
X139712319Y-71739031D01*
X139604731Y-71598822D01*
X139604729Y-71598822D01*
X138854188Y-72349362D01*
X138758102Y-72217112D01*
X138632888Y-72091898D01*
X138500635Y-71995809D01*
X139251176Y-71245268D01*
X139251176Y-71245267D01*
X139110968Y-71137680D01*
X139110951Y-71137669D01*
X138864044Y-70995117D01*
X138864035Y-70995113D01*
X138600633Y-70886008D01*
X138325230Y-70812214D01*
X138042566Y-70775001D01*
X138042550Y-70775000D01*
X137757450Y-70775000D01*
X137757433Y-70775001D01*
X137474769Y-70812214D01*
X137199366Y-70886008D01*
X136935964Y-70995113D01*
X136935955Y-70995117D01*
X136689048Y-71137669D01*
X136689041Y-71137674D01*
X136548822Y-71245268D01*
X137299364Y-71995810D01*
X137167112Y-72091898D01*
X137041898Y-72217112D01*
X136945810Y-72349363D01*
X136195268Y-71598822D01*
X136087674Y-71739041D01*
X136087669Y-71739048D01*
X135945117Y-71985955D01*
X135945113Y-71985964D01*
X135836008Y-72249366D01*
X135762214Y-72524769D01*
X135725001Y-72807433D01*
X135725000Y-72807449D01*
X131200500Y-72807449D01*
X131200500Y-69234108D01*
X155299500Y-69234108D01*
X155299500Y-69365891D01*
X155333608Y-69493187D01*
X155366554Y-69550250D01*
X155399500Y-69607314D01*
X155492686Y-69700500D01*
X155606814Y-69766392D01*
X155734108Y-69800500D01*
X155734110Y-69800500D01*
X155865890Y-69800500D01*
X155865892Y-69800500D01*
X155993186Y-69766392D01*
X156049103Y-69734108D01*
X160799500Y-69734108D01*
X160799500Y-69865891D01*
X160833608Y-69993187D01*
X160843044Y-70009530D01*
X160899500Y-70107314D01*
X160992686Y-70200500D01*
X161106814Y-70266392D01*
X161234108Y-70300500D01*
X161234110Y-70300500D01*
X161365890Y-70300500D01*
X161365892Y-70300500D01*
X161493186Y-70266392D01*
X161607314Y-70200500D01*
X161700500Y-70107314D01*
X161766392Y-69993186D01*
X161800500Y-69865892D01*
X161800500Y-69734108D01*
X161766392Y-69606814D01*
X161700500Y-69492686D01*
X161607314Y-69399500D01*
X161549100Y-69365890D01*
X161493187Y-69333608D01*
X161429539Y-69316554D01*
X161365892Y-69299500D01*
X161234108Y-69299500D01*
X161106812Y-69333608D01*
X160992686Y-69399500D01*
X160992683Y-69399502D01*
X160899502Y-69492683D01*
X160899500Y-69492686D01*
X160833608Y-69606812D01*
X160799500Y-69734108D01*
X156049103Y-69734108D01*
X156107314Y-69700500D01*
X156200500Y-69607314D01*
X156266392Y-69493186D01*
X156300500Y-69365892D01*
X156300500Y-69234108D01*
X156266392Y-69106814D01*
X156200500Y-68992686D01*
X156107314Y-68899500D01*
X156008205Y-68842279D01*
X155993187Y-68833608D01*
X155927061Y-68815890D01*
X155865892Y-68799500D01*
X155734108Y-68799500D01*
X155606812Y-68833608D01*
X155492686Y-68899500D01*
X155492683Y-68899502D01*
X155399502Y-68992683D01*
X155399500Y-68992686D01*
X155333608Y-69106812D01*
X155299500Y-69234108D01*
X131200500Y-69234108D01*
X131200500Y-68334108D01*
X152199500Y-68334108D01*
X152199500Y-68465892D01*
X152213296Y-68517381D01*
X152233608Y-68593187D01*
X152261898Y-68642186D01*
X152299500Y-68707314D01*
X152392686Y-68800500D01*
X152506814Y-68866392D01*
X152634108Y-68900500D01*
X152634110Y-68900500D01*
X152765890Y-68900500D01*
X152765892Y-68900500D01*
X152893186Y-68866392D01*
X153007314Y-68800500D01*
X153100500Y-68707314D01*
X153138105Y-68642181D01*
X162576622Y-68642181D01*
X162576622Y-70381686D01*
X162588253Y-70440163D01*
X162588254Y-70440164D01*
X162632569Y-70506486D01*
X162698891Y-70550801D01*
X162698892Y-70550802D01*
X162757369Y-70562433D01*
X162757372Y-70562434D01*
X162757374Y-70562434D01*
X164496872Y-70562434D01*
X164496873Y-70562433D01*
X164511690Y-70559486D01*
X164555351Y-70550802D01*
X164555351Y-70550801D01*
X164555353Y-70550801D01*
X164621674Y-70506486D01*
X164665989Y-70440165D01*
X164665989Y-70440163D01*
X164665990Y-70440163D01*
X164677621Y-70381686D01*
X164677622Y-70381684D01*
X164677622Y-69408464D01*
X165116622Y-69408464D01*
X165116622Y-69615403D01*
X165156990Y-69818346D01*
X165156992Y-69818354D01*
X165236180Y-70009530D01*
X165351146Y-70181591D01*
X165497464Y-70327909D01*
X165497467Y-70327911D01*
X165669524Y-70442875D01*
X165860702Y-70522064D01*
X166005174Y-70550801D01*
X166063652Y-70562433D01*
X166063656Y-70562434D01*
X166063657Y-70562434D01*
X166270588Y-70562434D01*
X166270589Y-70562433D01*
X166473542Y-70522064D01*
X166664720Y-70442875D01*
X166836777Y-70327911D01*
X166983099Y-70181589D01*
X167098063Y-70009532D01*
X167177252Y-69818354D01*
X167217622Y-69615399D01*
X167217622Y-69408469D01*
X167217621Y-69408464D01*
X167656621Y-69408464D01*
X167656621Y-69615403D01*
X167696989Y-69818346D01*
X167696991Y-69818354D01*
X167776179Y-70009530D01*
X167891145Y-70181591D01*
X168037463Y-70327909D01*
X168037466Y-70327911D01*
X168209523Y-70442875D01*
X168400701Y-70522064D01*
X168545173Y-70550801D01*
X168603651Y-70562433D01*
X168603655Y-70562434D01*
X168603656Y-70562434D01*
X168810587Y-70562434D01*
X168810588Y-70562433D01*
X169013541Y-70522064D01*
X169204719Y-70442875D01*
X169367501Y-70334108D01*
X172199500Y-70334108D01*
X172199500Y-70465891D01*
X172233608Y-70593187D01*
X172266554Y-70650250D01*
X172299500Y-70707314D01*
X172392686Y-70800500D01*
X172506814Y-70866392D01*
X172634108Y-70900500D01*
X172634110Y-70900500D01*
X172765890Y-70900500D01*
X172765892Y-70900500D01*
X172893186Y-70866392D01*
X173007314Y-70800500D01*
X173100500Y-70707314D01*
X173166392Y-70593186D01*
X173200500Y-70465892D01*
X173200500Y-70334108D01*
X173166392Y-70206814D01*
X173100500Y-70092686D01*
X173007314Y-69999500D01*
X172950250Y-69966554D01*
X172893187Y-69933608D01*
X172829539Y-69916554D01*
X172765892Y-69899500D01*
X172634108Y-69899500D01*
X172506812Y-69933608D01*
X172392686Y-69999500D01*
X172392683Y-69999502D01*
X172299502Y-70092683D01*
X172299500Y-70092686D01*
X172233608Y-70206812D01*
X172199500Y-70334108D01*
X169367501Y-70334108D01*
X169376776Y-70327911D01*
X169404188Y-70300499D01*
X169466388Y-70238300D01*
X169523095Y-70181592D01*
X169523096Y-70181591D01*
X169523098Y-70181589D01*
X169638062Y-70009532D01*
X169717251Y-69818354D01*
X169734008Y-69734108D01*
X178899500Y-69734108D01*
X178899500Y-69865891D01*
X178933608Y-69993187D01*
X178943044Y-70009530D01*
X178999500Y-70107314D01*
X179092686Y-70200500D01*
X179206814Y-70266392D01*
X179334108Y-70300500D01*
X179334110Y-70300500D01*
X179465890Y-70300500D01*
X179465892Y-70300500D01*
X179593186Y-70266392D01*
X179707314Y-70200500D01*
X179800500Y-70107314D01*
X179866392Y-69993186D01*
X179900500Y-69865892D01*
X179900500Y-69734108D01*
X179866392Y-69606814D01*
X179800500Y-69492686D01*
X179707314Y-69399500D01*
X179649100Y-69365890D01*
X179593187Y-69333608D01*
X179529539Y-69316554D01*
X179465892Y-69299500D01*
X179334108Y-69299500D01*
X179206812Y-69333608D01*
X179092686Y-69399500D01*
X179092683Y-69399502D01*
X178999502Y-69492683D01*
X178999500Y-69492686D01*
X178933608Y-69606812D01*
X178899500Y-69734108D01*
X169734008Y-69734108D01*
X169757621Y-69615399D01*
X169757621Y-69408469D01*
X169717251Y-69205514D01*
X169638062Y-69014336D01*
X169523098Y-68842279D01*
X169523096Y-68842276D01*
X169376778Y-68695958D01*
X169359043Y-68684108D01*
X170499500Y-68684108D01*
X170499500Y-68815891D01*
X170533608Y-68943187D01*
X170562185Y-68992683D01*
X170599500Y-69057314D01*
X170692686Y-69150500D01*
X170806814Y-69216392D01*
X170934108Y-69250500D01*
X170934110Y-69250500D01*
X171065890Y-69250500D01*
X171065892Y-69250500D01*
X171193186Y-69216392D01*
X171307314Y-69150500D01*
X171400500Y-69057314D01*
X171466392Y-68943186D01*
X171500500Y-68815892D01*
X171500500Y-68684108D01*
X171466392Y-68556814D01*
X171400500Y-68442686D01*
X171307314Y-68349500D01*
X171222439Y-68300497D01*
X171193187Y-68283608D01*
X171129539Y-68266554D01*
X171065892Y-68249500D01*
X170934108Y-68249500D01*
X170806812Y-68283608D01*
X170692686Y-68349500D01*
X170692683Y-68349502D01*
X170599502Y-68442683D01*
X170599500Y-68442686D01*
X170533608Y-68556812D01*
X170499500Y-68684108D01*
X169359043Y-68684108D01*
X169290747Y-68638475D01*
X169204719Y-68580993D01*
X169146341Y-68556812D01*
X169013541Y-68501804D01*
X169013533Y-68501802D01*
X168810590Y-68461434D01*
X168810586Y-68461434D01*
X168603656Y-68461434D01*
X168603651Y-68461434D01*
X168400708Y-68501802D01*
X168400700Y-68501804D01*
X168209524Y-68580992D01*
X168037463Y-68695958D01*
X167891145Y-68842276D01*
X167776179Y-69014337D01*
X167696991Y-69205513D01*
X167696989Y-69205521D01*
X167656621Y-69408464D01*
X167217621Y-69408464D01*
X167177252Y-69205514D01*
X167098063Y-69014336D01*
X166983099Y-68842279D01*
X166983097Y-68842276D01*
X166836779Y-68695958D01*
X166750748Y-68638475D01*
X166664720Y-68580993D01*
X166606342Y-68556812D01*
X166473542Y-68501804D01*
X166473534Y-68501802D01*
X166270591Y-68461434D01*
X166270587Y-68461434D01*
X166063657Y-68461434D01*
X166063652Y-68461434D01*
X165860709Y-68501802D01*
X165860701Y-68501804D01*
X165669525Y-68580992D01*
X165497464Y-68695958D01*
X165351146Y-68842276D01*
X165236180Y-69014337D01*
X165156992Y-69205513D01*
X165156990Y-69205521D01*
X165116622Y-69408464D01*
X164677622Y-69408464D01*
X164677622Y-68642183D01*
X164677621Y-68642181D01*
X164665990Y-68583704D01*
X164665989Y-68583703D01*
X164621674Y-68517381D01*
X164555352Y-68473066D01*
X164555351Y-68473065D01*
X164496874Y-68461434D01*
X164496870Y-68461434D01*
X162757374Y-68461434D01*
X162757369Y-68461434D01*
X162698892Y-68473065D01*
X162698891Y-68473066D01*
X162632569Y-68517381D01*
X162588254Y-68583703D01*
X162588253Y-68583704D01*
X162576622Y-68642181D01*
X153138105Y-68642181D01*
X153166392Y-68593186D01*
X153200500Y-68465892D01*
X153200500Y-68334108D01*
X153166392Y-68206814D01*
X153100500Y-68092686D01*
X153007314Y-67999500D01*
X152893186Y-67933608D01*
X152765892Y-67899500D01*
X152634108Y-67899500D01*
X152506812Y-67933608D01*
X152392686Y-67999500D01*
X152392683Y-67999502D01*
X152299502Y-68092683D01*
X152299500Y-68092686D01*
X152233608Y-68206812D01*
X152233473Y-68207316D01*
X152199500Y-68334108D01*
X131200500Y-68334108D01*
X131200500Y-67834108D01*
X174049500Y-67834108D01*
X174049500Y-67965891D01*
X174083608Y-68093187D01*
X174116554Y-68150250D01*
X174149500Y-68207314D01*
X174242686Y-68300500D01*
X174356814Y-68366392D01*
X174484108Y-68400500D01*
X174484110Y-68400500D01*
X174615890Y-68400500D01*
X174615892Y-68400500D01*
X174743186Y-68366392D01*
X174857314Y-68300500D01*
X174950500Y-68207314D01*
X175016392Y-68093186D01*
X175050500Y-67965892D01*
X175050500Y-67834108D01*
X175016392Y-67706814D01*
X174950500Y-67592686D01*
X174857314Y-67499500D01*
X174800250Y-67466554D01*
X174743187Y-67433608D01*
X174679539Y-67416554D01*
X174615892Y-67399500D01*
X174484108Y-67399500D01*
X174356812Y-67433608D01*
X174242686Y-67499500D01*
X174242683Y-67499502D01*
X174149502Y-67592683D01*
X174149500Y-67592686D01*
X174083608Y-67706812D01*
X174049500Y-67834108D01*
X131200500Y-67834108D01*
X131200500Y-66803479D01*
X131200695Y-66796528D01*
X131201481Y-66782528D01*
X131204200Y-66734108D01*
X161499500Y-66734108D01*
X161499500Y-66865891D01*
X161533608Y-66993187D01*
X161566554Y-67050250D01*
X161599500Y-67107314D01*
X161692686Y-67200500D01*
X161806814Y-67266392D01*
X161934108Y-67300500D01*
X161934110Y-67300500D01*
X162065890Y-67300500D01*
X162065892Y-67300500D01*
X162193186Y-67266392D01*
X162307314Y-67200500D01*
X162400500Y-67107314D01*
X162466392Y-66993186D01*
X162500500Y-66865892D01*
X162500500Y-66734108D01*
X162466392Y-66606814D01*
X162465268Y-66604868D01*
X162457563Y-66591521D01*
X162400500Y-66492686D01*
X162307314Y-66399500D01*
X162249968Y-66366391D01*
X162193187Y-66333608D01*
X162129539Y-66316554D01*
X162065892Y-66299500D01*
X161934108Y-66299500D01*
X161806812Y-66333608D01*
X161692686Y-66399500D01*
X161692683Y-66399502D01*
X161599502Y-66492683D01*
X161599500Y-66492686D01*
X161533608Y-66606812D01*
X161499500Y-66734108D01*
X131204200Y-66734108D01*
X131216990Y-66506308D01*
X131218544Y-66492510D01*
X131266649Y-66209348D01*
X131269736Y-66195820D01*
X131349233Y-65919842D01*
X131353822Y-65906725D01*
X131355242Y-65903297D01*
X131383896Y-65834108D01*
X178099500Y-65834108D01*
X178099500Y-65965891D01*
X178133608Y-66093187D01*
X178166554Y-66150250D01*
X178199500Y-66207314D01*
X178292686Y-66300500D01*
X178406814Y-66366392D01*
X178534108Y-66400500D01*
X178534110Y-66400500D01*
X178665890Y-66400500D01*
X178665892Y-66400500D01*
X178793186Y-66366392D01*
X178907314Y-66300500D01*
X179000500Y-66207314D01*
X179066392Y-66093186D01*
X179100500Y-65965892D01*
X179100500Y-65834108D01*
X179066392Y-65706814D01*
X179000500Y-65592686D01*
X178907314Y-65499500D01*
X178850250Y-65466554D01*
X178793187Y-65433608D01*
X178729539Y-65416554D01*
X178665892Y-65399500D01*
X178534108Y-65399500D01*
X178406812Y-65433608D01*
X178292686Y-65499500D01*
X178292683Y-65499502D01*
X178199502Y-65592683D01*
X178199500Y-65592686D01*
X178133608Y-65706812D01*
X178099500Y-65834108D01*
X131383896Y-65834108D01*
X131463720Y-65641366D01*
X131469734Y-65628877D01*
X131608648Y-65377490D01*
X131616028Y-65365742D01*
X131782216Y-65131477D01*
X131790851Y-65120647D01*
X131982224Y-64906456D01*
X131992036Y-64896642D01*
X132206169Y-64705236D01*
X132217020Y-64696581D01*
X132451236Y-64530347D01*
X132462986Y-64522962D01*
X132714331Y-64384000D01*
X132726855Y-64377967D01*
X132755098Y-64366263D01*
X132992168Y-64268018D01*
X133005285Y-64263426D01*
X133281232Y-64183873D01*
X133294773Y-64180779D01*
X133577926Y-64132612D01*
X133591710Y-64131056D01*
X133881924Y-64114695D01*
X133888856Y-64114499D01*
X133924881Y-64114491D01*
X133951296Y-64114486D01*
X133951296Y-64114485D01*
X134002634Y-64114476D01*
X134002645Y-64114473D01*
X196897509Y-64100514D01*
X196897512Y-64100515D01*
X196959960Y-64100500D01*
X196966858Y-64100693D01*
G37*
%TD.AperFunction*%
%TD*%
M02*
