%TF.GenerationSoftware,KiCad,Pcbnew,9.0.4*%
%TF.CreationDate,2026-01-27T00:07:53+00:00*%
%TF.ProjectId,BSPD,42535044-2e6b-4696-9361-645f70636258,1.3.0*%
%TF.SameCoordinates,Original*%
%TF.FileFunction,Copper,L3,Inr*%
%TF.FilePolarity,Positive*%
%FSLAX46Y46*%
G04 Gerber Fmt 4.6, Leading zero omitted, Abs format (unit mm)*
G04 Created by KiCad (PCBNEW 9.0.4) date 2026-01-27 00:07:53*
%MOMM*%
%LPD*%
G01*
G04 APERTURE LIST*
G04 Aperture macros list*
%AMRoundRect*
0 Rectangle with rounded corners*
0 $1 Rounding radius*
0 $2 $3 $4 $5 $6 $7 $8 $9 X,Y pos of 4 corners*
0 Add a 4 corners polygon primitive as box body*
4,1,4,$2,$3,$4,$5,$6,$7,$8,$9,$2,$3,0*
0 Add four circle primitives for the rounded corners*
1,1,$1+$1,$2,$3*
1,1,$1+$1,$4,$5*
1,1,$1+$1,$6,$7*
1,1,$1+$1,$8,$9*
0 Add four rect primitives between the rounded corners*
20,1,$1+$1,$2,$3,$4,$5,0*
20,1,$1+$1,$4,$5,$6,$7,0*
20,1,$1+$1,$6,$7,$8,$9,0*
20,1,$1+$1,$8,$9,$2,$3,0*%
G04 Aperture macros list end*
%TA.AperFunction,ComponentPad*%
%ADD10RoundRect,0.250001X-0.499999X-0.499999X0.499999X-0.499999X0.499999X0.499999X-0.499999X0.499999X0*%
%TD*%
%TA.AperFunction,ComponentPad*%
%ADD11C,1.500000*%
%TD*%
%TA.AperFunction,ComponentPad*%
%ADD12C,5.600000*%
%TD*%
%TA.AperFunction,ComponentPad*%
%ADD13RoundRect,0.250000X0.550000X-0.550000X0.550000X0.550000X-0.550000X0.550000X-0.550000X-0.550000X0*%
%TD*%
%TA.AperFunction,ComponentPad*%
%ADD14C,1.600000*%
%TD*%
%TA.AperFunction,ComponentPad*%
%ADD15C,1.440000*%
%TD*%
%TA.AperFunction,ComponentPad*%
%ADD16R,2.300000X2.300000*%
%TD*%
%TA.AperFunction,ComponentPad*%
%ADD17C,2.300000*%
%TD*%
%TA.AperFunction,ComponentPad*%
%ADD18RoundRect,0.250000X0.550000X0.550000X-0.550000X0.550000X-0.550000X-0.550000X0.550000X-0.550000X0*%
%TD*%
%TA.AperFunction,ViaPad*%
%ADD19C,0.800000*%
%TD*%
G04 APERTURE END LIST*
D10*
X145100000Y-68485000D03*
D11*
X148100000Y-68485000D03*
X151100000Y-68485000D03*
X154100000Y-68485000D03*
X157100000Y-68485000D03*
X160100000Y-68485000D03*
X145100000Y-71485000D03*
X148100000Y-71485000D03*
X151100000Y-71485000D03*
X154100000Y-71485000D03*
X157100000Y-71485000D03*
X160100000Y-71485000D03*
D12*
X140500000Y-100500000D03*
D13*
X165550000Y-94955113D03*
D14*
X165550000Y-92955113D03*
D12*
X192500000Y-61500000D03*
D15*
X169460000Y-101230000D03*
X172000000Y-98690000D03*
X174540000Y-101230000D03*
D12*
X140500000Y-74500000D03*
D16*
X186400000Y-93775000D03*
D17*
X186400000Y-83615000D03*
X186400000Y-75995000D03*
X178780000Y-78535000D03*
X178780000Y-93775000D03*
D10*
X169100000Y-68485000D03*
D11*
X172100000Y-68485000D03*
X175100000Y-68485000D03*
X178100000Y-68485000D03*
X181100000Y-68485000D03*
X184100000Y-68485000D03*
X169100000Y-71485000D03*
X172100000Y-71485000D03*
X175100000Y-71485000D03*
X178100000Y-71485000D03*
X181100000Y-71485000D03*
X184100000Y-71485000D03*
D15*
X169460000Y-95230000D03*
X172000000Y-92690000D03*
X174540000Y-95230000D03*
X169460000Y-89230000D03*
X172000000Y-86690000D03*
X174540000Y-89230000D03*
X169460000Y-83230000D03*
X172000000Y-80690000D03*
X174540000Y-83230000D03*
D13*
X165550000Y-100955112D03*
D14*
X165550000Y-98955112D03*
D12*
X192500000Y-100500000D03*
D13*
X178450000Y-100955113D03*
D14*
X178450000Y-98955113D03*
D18*
X147555112Y-75700000D03*
D14*
X145555112Y-75700000D03*
D19*
X165325000Y-75300000D03*
X143900000Y-90300000D03*
X159850000Y-79250000D03*
X158650000Y-86400000D03*
X149200000Y-99650000D03*
X153600000Y-82400000D03*
X164750000Y-82650000D03*
X160550000Y-96300000D03*
X164750000Y-88650000D03*
X169030000Y-73770000D03*
X178430000Y-96590000D03*
X182530000Y-87520000D03*
X162700000Y-93700000D03*
X154150000Y-65790000D03*
X148350000Y-83150000D03*
X164630000Y-78280000D03*
X190090000Y-67870000D03*
X142690000Y-86080000D03*
X164750000Y-81350000D03*
X155600000Y-75380000D03*
X173530000Y-71020000D03*
X148800000Y-86390000D03*
X143920000Y-92060000D03*
X164750000Y-87350000D03*
X146490000Y-70340000D03*
X167850000Y-73800000D03*
X158930000Y-70150000D03*
X167600000Y-78100000D03*
X160200000Y-83110000D03*
X155044669Y-90444669D03*
X184750000Y-97300000D03*
X147100000Y-84800000D03*
X145100000Y-82400000D03*
X160150000Y-88750000D03*
X151750000Y-99650000D03*
X161600000Y-75650000D03*
X161000000Y-72900000D03*
X146400000Y-93500000D03*
X153543669Y-90450000D03*
X150500000Y-99200000D03*
X159800000Y-86400000D03*
%TA.AperFunction,Conductor*%
G36*
X192501526Y-57300574D02*
G01*
X192859549Y-57318163D01*
X192865644Y-57318763D01*
X193218709Y-57371135D01*
X193224716Y-57372331D01*
X193570942Y-57459056D01*
X193576792Y-57460831D01*
X193912856Y-57581077D01*
X193918503Y-57583416D01*
X194241164Y-57736023D01*
X194246555Y-57738904D01*
X194552706Y-57922404D01*
X194557794Y-57925804D01*
X194598292Y-57955839D01*
X194844466Y-58138415D01*
X194849207Y-58142305D01*
X195113666Y-58381995D01*
X195118004Y-58386333D01*
X195357694Y-58650792D01*
X195361584Y-58655533D01*
X195574191Y-58942199D01*
X195577599Y-58947299D01*
X195761090Y-59253435D01*
X195763980Y-59258843D01*
X195764141Y-59259182D01*
X195916579Y-59581487D01*
X195918926Y-59587153D01*
X196039165Y-59923197D01*
X196040946Y-59929067D01*
X196127667Y-60275279D01*
X196128864Y-60281294D01*
X196181235Y-60634350D01*
X196181836Y-60640454D01*
X196199425Y-60998473D01*
X196199500Y-61001540D01*
X196199500Y-100498459D01*
X196199425Y-100501526D01*
X196181836Y-100859545D01*
X196181235Y-100865649D01*
X196128864Y-101218705D01*
X196127667Y-101224720D01*
X196040946Y-101570932D01*
X196039165Y-101576802D01*
X195918926Y-101912846D01*
X195916579Y-101918512D01*
X195763981Y-102241155D01*
X195761090Y-102246564D01*
X195577599Y-102552700D01*
X195574191Y-102557800D01*
X195361584Y-102844466D01*
X195357694Y-102849207D01*
X195118004Y-103113666D01*
X195113666Y-103118004D01*
X194849207Y-103357694D01*
X194844466Y-103361584D01*
X194557800Y-103574191D01*
X194552700Y-103577599D01*
X194246564Y-103761090D01*
X194241155Y-103763981D01*
X193918512Y-103916579D01*
X193912846Y-103918926D01*
X193576802Y-104039165D01*
X193570932Y-104040946D01*
X193224720Y-104127667D01*
X193218705Y-104128864D01*
X192865649Y-104181235D01*
X192859545Y-104181836D01*
X192501527Y-104199425D01*
X192498460Y-104199500D01*
X140501540Y-104199500D01*
X140498473Y-104199425D01*
X140140454Y-104181836D01*
X140134350Y-104181235D01*
X139781294Y-104128864D01*
X139775279Y-104127667D01*
X139429067Y-104040946D01*
X139423197Y-104039165D01*
X139087153Y-103918926D01*
X139081487Y-103916579D01*
X138758844Y-103763981D01*
X138753435Y-103761090D01*
X138447299Y-103577599D01*
X138442199Y-103574191D01*
X138155533Y-103361584D01*
X138150792Y-103357694D01*
X137886333Y-103118004D01*
X137881995Y-103113666D01*
X137642305Y-102849207D01*
X137638415Y-102844466D01*
X137425808Y-102557800D01*
X137422400Y-102552700D01*
X137238904Y-102246555D01*
X137236023Y-102241164D01*
X137083416Y-101918503D01*
X137081077Y-101912856D01*
X136960831Y-101576792D01*
X136959056Y-101570942D01*
X136872331Y-101224716D01*
X136871135Y-101218705D01*
X136839197Y-101003399D01*
X136818763Y-100865644D01*
X136818163Y-100859545D01*
X136810267Y-100698824D01*
X136800575Y-100501526D01*
X136800500Y-100498459D01*
X136800500Y-100331496D01*
X137499500Y-100331496D01*
X137499500Y-100668504D01*
X137513637Y-100793977D01*
X137537231Y-101003382D01*
X137537234Y-101003399D01*
X137612222Y-101331947D01*
X137612223Y-101331953D01*
X137723526Y-101650040D01*
X137723530Y-101650048D01*
X137723531Y-101650051D01*
X137851479Y-101915737D01*
X137869754Y-101953686D01*
X138049050Y-102239033D01*
X138049062Y-102239050D01*
X138259164Y-102502510D01*
X138259169Y-102502516D01*
X138259175Y-102502523D01*
X138497477Y-102740825D01*
X138497484Y-102740831D01*
X138497489Y-102740835D01*
X138760949Y-102950937D01*
X138760955Y-102950941D01*
X138760961Y-102950946D01*
X139046314Y-103130246D01*
X139349949Y-103276469D01*
X139349955Y-103276471D01*
X139349959Y-103276473D01*
X139668046Y-103387776D01*
X139996606Y-103462767D01*
X140331496Y-103500500D01*
X140331499Y-103500500D01*
X140668501Y-103500500D01*
X140668504Y-103500500D01*
X141003394Y-103462767D01*
X141331954Y-103387776D01*
X141650051Y-103276469D01*
X141953686Y-103130246D01*
X142239039Y-102950946D01*
X142502523Y-102740825D01*
X142740825Y-102502523D01*
X142950946Y-102239039D01*
X143130246Y-101953686D01*
X143276469Y-101650051D01*
X143387776Y-101331954D01*
X143462767Y-101003394D01*
X143500500Y-100668504D01*
X143500500Y-100331496D01*
X143462767Y-99996606D01*
X143387776Y-99668046D01*
X143367640Y-99610500D01*
X143276473Y-99349959D01*
X143276471Y-99349955D01*
X143276469Y-99349949D01*
X143166186Y-99120944D01*
X149899500Y-99120944D01*
X149899500Y-99279055D01*
X149899501Y-99279063D01*
X149940421Y-99431780D01*
X149940422Y-99431783D01*
X149940423Y-99431784D01*
X150019480Y-99568716D01*
X150131284Y-99680520D01*
X150268216Y-99759577D01*
X150268219Y-99759578D01*
X150361681Y-99784621D01*
X150420943Y-99800500D01*
X150420944Y-99800500D01*
X150579056Y-99800500D01*
X150579057Y-99800500D01*
X150731784Y-99759577D01*
X150868716Y-99680520D01*
X150978292Y-99570944D01*
X151149500Y-99570944D01*
X151149500Y-99729055D01*
X151149501Y-99729063D01*
X151190421Y-99881780D01*
X151190422Y-99881783D01*
X151190423Y-99881784D01*
X151269480Y-100018716D01*
X151381284Y-100130520D01*
X151488170Y-100192230D01*
X151518216Y-100209577D01*
X151518219Y-100209578D01*
X151611681Y-100234621D01*
X151670943Y-100250500D01*
X151670944Y-100250500D01*
X151829056Y-100250500D01*
X151829057Y-100250500D01*
X151981784Y-100209577D01*
X152118716Y-100130520D01*
X152230520Y-100018716D01*
X152309577Y-99881784D01*
X152350500Y-99729057D01*
X152350500Y-99570943D01*
X152313212Y-99431783D01*
X152309578Y-99418219D01*
X152309577Y-99418216D01*
X152281727Y-99369978D01*
X152230520Y-99281284D01*
X152118716Y-99169480D01*
X152022464Y-99113909D01*
X151981783Y-99090422D01*
X151981780Y-99090421D01*
X151829063Y-99049501D01*
X151829058Y-99049500D01*
X151829057Y-99049500D01*
X151670943Y-99049500D01*
X151670942Y-99049500D01*
X151670936Y-99049501D01*
X151518219Y-99090421D01*
X151518216Y-99090422D01*
X151456556Y-99126022D01*
X151381284Y-99169480D01*
X151381283Y-99169481D01*
X151381279Y-99169484D01*
X151269484Y-99281279D01*
X151269477Y-99281288D01*
X151194102Y-99411840D01*
X151194099Y-99411847D01*
X151190423Y-99418216D01*
X151173872Y-99479984D01*
X151173859Y-99480029D01*
X151149501Y-99570936D01*
X151149500Y-99570944D01*
X150978292Y-99570944D01*
X150980520Y-99568716D01*
X151059577Y-99431784D01*
X151100500Y-99279057D01*
X151100500Y-99120943D01*
X151059577Y-98968216D01*
X150995119Y-98856570D01*
X164549500Y-98856570D01*
X164549500Y-99053653D01*
X164587948Y-99246945D01*
X164587949Y-99246947D01*
X164663368Y-99429026D01*
X164665208Y-99431780D01*
X164772860Y-99592893D01*
X164912218Y-99732251D01*
X165073693Y-99840145D01*
X165100269Y-99879919D01*
X165090937Y-99926835D01*
X165051163Y-99953411D01*
X165038970Y-99954612D01*
X164945734Y-99954612D01*
X164936124Y-99955513D01*
X164915303Y-99957465D01*
X164915298Y-99957466D01*
X164787117Y-100002319D01*
X164787116Y-100002319D01*
X164677850Y-100082962D01*
X164597207Y-100192228D01*
X164597207Y-100192229D01*
X164552354Y-100320410D01*
X164552353Y-100320415D01*
X164549500Y-100350849D01*
X164549500Y-101559374D01*
X164552353Y-101589808D01*
X164552354Y-101589813D01*
X164597207Y-101717994D01*
X164597207Y-101717995D01*
X164597208Y-101717996D01*
X164677850Y-101827262D01*
X164787118Y-101907905D01*
X164915301Y-101952758D01*
X164945734Y-101955612D01*
X164945738Y-101955612D01*
X166154262Y-101955612D01*
X166154266Y-101955612D01*
X166184699Y-101952758D01*
X166312882Y-101907905D01*
X166422150Y-101827262D01*
X166502793Y-101717994D01*
X166547646Y-101589811D01*
X166550500Y-101559378D01*
X166550500Y-101139338D01*
X168539500Y-101139338D01*
X168539500Y-101320661D01*
X168574873Y-101498498D01*
X168574874Y-101498501D01*
X168644263Y-101666020D01*
X168644264Y-101666022D01*
X168678992Y-101717996D01*
X168745001Y-101816785D01*
X168873215Y-101944999D01*
X169023980Y-102045737D01*
X169191500Y-102115126D01*
X169369339Y-102150500D01*
X169550661Y-102150500D01*
X169728500Y-102115126D01*
X169896020Y-102045737D01*
X170046785Y-101944999D01*
X170174999Y-101816785D01*
X170275737Y-101666020D01*
X170345126Y-101498500D01*
X170380500Y-101320661D01*
X170380500Y-101139339D01*
X170380500Y-101139338D01*
X173619500Y-101139338D01*
X173619500Y-101320661D01*
X173654873Y-101498498D01*
X173654874Y-101498501D01*
X173724263Y-101666020D01*
X173724264Y-101666022D01*
X173758992Y-101717996D01*
X173825001Y-101816785D01*
X173953215Y-101944999D01*
X174103980Y-102045737D01*
X174271500Y-102115126D01*
X174449339Y-102150500D01*
X174630661Y-102150500D01*
X174808500Y-102115126D01*
X174976020Y-102045737D01*
X175126785Y-101944999D01*
X175254999Y-101816785D01*
X175355737Y-101666020D01*
X175425126Y-101498500D01*
X175460500Y-101320661D01*
X175460500Y-101139339D01*
X175425126Y-100961500D01*
X175355737Y-100793980D01*
X175254999Y-100643215D01*
X175126785Y-100515001D01*
X175126784Y-100515000D01*
X174976022Y-100414264D01*
X174976020Y-100414263D01*
X174808501Y-100344874D01*
X174808498Y-100344873D01*
X174630661Y-100309500D01*
X174449339Y-100309500D01*
X174271501Y-100344873D01*
X174271498Y-100344874D01*
X174103979Y-100414263D01*
X174103977Y-100414264D01*
X173953215Y-100515000D01*
X173825000Y-100643215D01*
X173724264Y-100793977D01*
X173724263Y-100793979D01*
X173654874Y-100961498D01*
X173654873Y-100961501D01*
X173619500Y-101139338D01*
X170380500Y-101139338D01*
X170345126Y-100961500D01*
X170275737Y-100793980D01*
X170174999Y-100643215D01*
X170046785Y-100515001D01*
X170046784Y-100515000D01*
X169896022Y-100414264D01*
X169896020Y-100414263D01*
X169728501Y-100344874D01*
X169728498Y-100344873D01*
X169550661Y-100309500D01*
X169369339Y-100309500D01*
X169191501Y-100344873D01*
X169191498Y-100344874D01*
X169023979Y-100414263D01*
X169023977Y-100414264D01*
X168873215Y-100515000D01*
X168745000Y-100643215D01*
X168644264Y-100793977D01*
X168644263Y-100793979D01*
X168574874Y-100961498D01*
X168574873Y-100961501D01*
X168539500Y-101139338D01*
X166550500Y-101139338D01*
X166550500Y-100350846D01*
X166547646Y-100320413D01*
X166502793Y-100192230D01*
X166422150Y-100082962D01*
X166312882Y-100002319D01*
X166296538Y-99996600D01*
X166184701Y-99957466D01*
X166184696Y-99957465D01*
X166164699Y-99955590D01*
X166154266Y-99954612D01*
X166154262Y-99954612D01*
X166061030Y-99954612D01*
X166016836Y-99936306D01*
X165998530Y-99892112D01*
X166016836Y-99847918D01*
X166026307Y-99840145D01*
X166085643Y-99800498D01*
X166187782Y-99732251D01*
X166327139Y-99592894D01*
X166436632Y-99429026D01*
X166512051Y-99246947D01*
X166550500Y-99053653D01*
X166550500Y-98856571D01*
X166512051Y-98663277D01*
X166502584Y-98640421D01*
X166494203Y-98620186D01*
X166494203Y-98620184D01*
X166485568Y-98599338D01*
X171079500Y-98599338D01*
X171079500Y-98780661D01*
X171114873Y-98958498D01*
X171114874Y-98958501D01*
X171184263Y-99126020D01*
X171184264Y-99126022D01*
X171285000Y-99276784D01*
X171285001Y-99276785D01*
X171413215Y-99404999D01*
X171563980Y-99505737D01*
X171731500Y-99575126D01*
X171909339Y-99610500D01*
X172090661Y-99610500D01*
X172268500Y-99575126D01*
X172436020Y-99505737D01*
X172586785Y-99404999D01*
X172714999Y-99276785D01*
X172815737Y-99126020D01*
X172885126Y-98958500D01*
X172895354Y-98907079D01*
X172905401Y-98856571D01*
X177449500Y-98856571D01*
X177449500Y-99053654D01*
X177487948Y-99246946D01*
X177501251Y-99279063D01*
X177563368Y-99429027D01*
X177614623Y-99505735D01*
X177672859Y-99592893D01*
X177672861Y-99592895D01*
X177812218Y-99732252D01*
X177973691Y-99840145D01*
X177973693Y-99840146D01*
X178000269Y-99879920D01*
X177990937Y-99926836D01*
X177951163Y-99953412D01*
X177938970Y-99954613D01*
X177845734Y-99954613D01*
X177836124Y-99955514D01*
X177815303Y-99957466D01*
X177815298Y-99957467D01*
X177687117Y-100002320D01*
X177687116Y-100002320D01*
X177577850Y-100082963D01*
X177497207Y-100192229D01*
X177497207Y-100192230D01*
X177452354Y-100320411D01*
X177452353Y-100320416D01*
X177449500Y-100350850D01*
X177449500Y-101559375D01*
X177452353Y-101589809D01*
X177452354Y-101589814D01*
X177497207Y-101717995D01*
X177497207Y-101717996D01*
X177537528Y-101772629D01*
X177577850Y-101827263D01*
X177687118Y-101907906D01*
X177815301Y-101952759D01*
X177845734Y-101955613D01*
X177845738Y-101955613D01*
X179054262Y-101955613D01*
X179054266Y-101955613D01*
X179084699Y-101952759D01*
X179212882Y-101907906D01*
X179322150Y-101827263D01*
X179402793Y-101717995D01*
X179447646Y-101589812D01*
X179450500Y-101559379D01*
X179450500Y-100350847D01*
X179448685Y-100331496D01*
X189499500Y-100331496D01*
X189499500Y-100668504D01*
X189513637Y-100793977D01*
X189537231Y-101003382D01*
X189537234Y-101003399D01*
X189612222Y-101331947D01*
X189612223Y-101331953D01*
X189723526Y-101650040D01*
X189723530Y-101650048D01*
X189723531Y-101650051D01*
X189851479Y-101915737D01*
X189869754Y-101953686D01*
X190049050Y-102239033D01*
X190049062Y-102239050D01*
X190259164Y-102502510D01*
X190259169Y-102502516D01*
X190259175Y-102502523D01*
X190497477Y-102740825D01*
X190497484Y-102740831D01*
X190497489Y-102740835D01*
X190760949Y-102950937D01*
X190760955Y-102950941D01*
X190760961Y-102950946D01*
X191046314Y-103130246D01*
X191349949Y-103276469D01*
X191349955Y-103276471D01*
X191349959Y-103276473D01*
X191668046Y-103387776D01*
X191996606Y-103462767D01*
X192331496Y-103500500D01*
X192331499Y-103500500D01*
X192668501Y-103500500D01*
X192668504Y-103500500D01*
X193003394Y-103462767D01*
X193331954Y-103387776D01*
X193650051Y-103276469D01*
X193953686Y-103130246D01*
X194239039Y-102950946D01*
X194502523Y-102740825D01*
X194740825Y-102502523D01*
X194950946Y-102239039D01*
X195130246Y-101953686D01*
X195276469Y-101650051D01*
X195387776Y-101331954D01*
X195462767Y-101003394D01*
X195500500Y-100668504D01*
X195500500Y-100331496D01*
X195462767Y-99996606D01*
X195387776Y-99668046D01*
X195367640Y-99610500D01*
X195276473Y-99349959D01*
X195276471Y-99349955D01*
X195276469Y-99349949D01*
X195130246Y-99046314D01*
X194950946Y-98760961D01*
X194950941Y-98760955D01*
X194950937Y-98760949D01*
X194740835Y-98497489D01*
X194740831Y-98497484D01*
X194740825Y-98497477D01*
X194502523Y-98259175D01*
X194502516Y-98259169D01*
X194502510Y-98259164D01*
X194239050Y-98049062D01*
X194239033Y-98049050D01*
X193953686Y-97869754D01*
X193818959Y-97804873D01*
X193650051Y-97723531D01*
X193650048Y-97723530D01*
X193650040Y-97723526D01*
X193331953Y-97612223D01*
X193331947Y-97612222D01*
X193003399Y-97537234D01*
X193003396Y-97537233D01*
X193003394Y-97537233D01*
X193003392Y-97537232D01*
X193003382Y-97537231D01*
X192783310Y-97512435D01*
X192668504Y-97499500D01*
X192331496Y-97499500D01*
X192228463Y-97511108D01*
X191996617Y-97537231D01*
X191996600Y-97537234D01*
X191668052Y-97612222D01*
X191668046Y-97612223D01*
X191349959Y-97723526D01*
X191046313Y-97869754D01*
X190760966Y-98049050D01*
X190760949Y-98049062D01*
X190497489Y-98259164D01*
X190497469Y-98259182D01*
X190259182Y-98497469D01*
X190259164Y-98497489D01*
X190049062Y-98760949D01*
X190049050Y-98760966D01*
X189869754Y-99046313D01*
X189723526Y-99349959D01*
X189612223Y-99668046D01*
X189612222Y-99668052D01*
X189537234Y-99996600D01*
X189537231Y-99996617D01*
X189515191Y-100192230D01*
X189499500Y-100331496D01*
X179448685Y-100331496D01*
X179447646Y-100320414D01*
X179402793Y-100192231D01*
X179322150Y-100082963D01*
X179212882Y-100002320D01*
X179196584Y-99996617D01*
X179084701Y-99957467D01*
X179084696Y-99957466D01*
X179064699Y-99955591D01*
X179054266Y-99954613D01*
X179054262Y-99954613D01*
X178961030Y-99954613D01*
X178916836Y-99936307D01*
X178898530Y-99892113D01*
X178916836Y-99847919D01*
X178926307Y-99840146D01*
X179087782Y-99732252D01*
X179227139Y-99592895D01*
X179336632Y-99429027D01*
X179412051Y-99246948D01*
X179450500Y-99053654D01*
X179450500Y-98856572D01*
X179412051Y-98663278D01*
X179336632Y-98481199D01*
X179227139Y-98317331D01*
X179087782Y-98177974D01*
X179087779Y-98177972D01*
X178923915Y-98068482D01*
X178923916Y-98068482D01*
X178923914Y-98068481D01*
X178741835Y-97993062D01*
X178741833Y-97993061D01*
X178548541Y-97954613D01*
X178351459Y-97954613D01*
X178158166Y-97993061D01*
X178022997Y-98049050D01*
X177976089Y-98068480D01*
X177976084Y-98068482D01*
X177812218Y-98177973D01*
X177672860Y-98317331D01*
X177563370Y-98481196D01*
X177563368Y-98481199D01*
X177556621Y-98497489D01*
X177487948Y-98663279D01*
X177449500Y-98856571D01*
X172905401Y-98856571D01*
X172908437Y-98841309D01*
X172913122Y-98817750D01*
X172920500Y-98780661D01*
X172920500Y-98599339D01*
X172885126Y-98421500D01*
X172815737Y-98253980D01*
X172714999Y-98103215D01*
X172586785Y-97975001D01*
X172586784Y-97975000D01*
X172436022Y-97874264D01*
X172436020Y-97874263D01*
X172268501Y-97804874D01*
X172268498Y-97804873D01*
X172090661Y-97769500D01*
X171909339Y-97769500D01*
X171731501Y-97804873D01*
X171731498Y-97804874D01*
X171563979Y-97874263D01*
X171563977Y-97874264D01*
X171413215Y-97975000D01*
X171285000Y-98103215D01*
X171184264Y-98253977D01*
X171184263Y-98253979D01*
X171114874Y-98421498D01*
X171114873Y-98421501D01*
X171079500Y-98599338D01*
X166485568Y-98599338D01*
X166436635Y-98481204D01*
X166436631Y-98481196D01*
X166327139Y-98317330D01*
X166187781Y-98177972D01*
X166105848Y-98123226D01*
X166023914Y-98068480D01*
X165883083Y-98010146D01*
X165841833Y-97993060D01*
X165648541Y-97954612D01*
X165451459Y-97954612D01*
X165258166Y-97993060D01*
X165076084Y-98068481D01*
X164912218Y-98177972D01*
X164772860Y-98317330D01*
X164663369Y-98481196D01*
X164587948Y-98663278D01*
X164549500Y-98856570D01*
X150995119Y-98856570D01*
X150980520Y-98831284D01*
X150868716Y-98719480D01*
X150771367Y-98663276D01*
X150731783Y-98640422D01*
X150731780Y-98640421D01*
X150579063Y-98599501D01*
X150579058Y-98599500D01*
X150579057Y-98599500D01*
X150420943Y-98599500D01*
X150420942Y-98599500D01*
X150420936Y-98599501D01*
X150268219Y-98640421D01*
X150268216Y-98640422D01*
X150171964Y-98695993D01*
X150131284Y-98719480D01*
X150131283Y-98719481D01*
X150131279Y-98719484D01*
X150019484Y-98831279D01*
X150019481Y-98831283D01*
X149940422Y-98968216D01*
X149940421Y-98968219D01*
X149899501Y-99120936D01*
X149899500Y-99120944D01*
X143166186Y-99120944D01*
X143130246Y-99046314D01*
X142950946Y-98760961D01*
X142950941Y-98760955D01*
X142950937Y-98760949D01*
X142740835Y-98497489D01*
X142740831Y-98497484D01*
X142740825Y-98497477D01*
X142502523Y-98259175D01*
X142502516Y-98259169D01*
X142502510Y-98259164D01*
X142239050Y-98049062D01*
X142239033Y-98049050D01*
X141953686Y-97869754D01*
X141818959Y-97804873D01*
X141650051Y-97723531D01*
X141650048Y-97723530D01*
X141650040Y-97723526D01*
X141331953Y-97612223D01*
X141331947Y-97612222D01*
X141003399Y-97537234D01*
X141003396Y-97537233D01*
X141003394Y-97537233D01*
X141003392Y-97537232D01*
X141003382Y-97537231D01*
X140783310Y-97512435D01*
X140668504Y-97499500D01*
X140331496Y-97499500D01*
X140228463Y-97511108D01*
X139996617Y-97537231D01*
X139996600Y-97537234D01*
X139668052Y-97612222D01*
X139668046Y-97612223D01*
X139349959Y-97723526D01*
X139046313Y-97869754D01*
X138760966Y-98049050D01*
X138760949Y-98049062D01*
X138497489Y-98259164D01*
X138497469Y-98259182D01*
X138259182Y-98497469D01*
X138259164Y-98497489D01*
X138049062Y-98760949D01*
X138049050Y-98760966D01*
X137869754Y-99046313D01*
X137723526Y-99349959D01*
X137612223Y-99668046D01*
X137612222Y-99668052D01*
X137537234Y-99996600D01*
X137537231Y-99996617D01*
X137515191Y-100192230D01*
X137499500Y-100331496D01*
X136800500Y-100331496D01*
X136800500Y-97220944D01*
X184149500Y-97220944D01*
X184149500Y-97379055D01*
X184149501Y-97379063D01*
X184190421Y-97531780D01*
X184190422Y-97531783D01*
X184213909Y-97572464D01*
X184269480Y-97668716D01*
X184381284Y-97780520D01*
X184518216Y-97859577D01*
X184518219Y-97859578D01*
X184611681Y-97884621D01*
X184670943Y-97900500D01*
X184670944Y-97900500D01*
X184829056Y-97900500D01*
X184829057Y-97900500D01*
X184981784Y-97859577D01*
X185118716Y-97780520D01*
X185230520Y-97668716D01*
X185309577Y-97531784D01*
X185350500Y-97379057D01*
X185350500Y-97220943D01*
X185331378Y-97149577D01*
X185309578Y-97068219D01*
X185309577Y-97068216D01*
X185230520Y-96931284D01*
X185118716Y-96819480D01*
X185022464Y-96763909D01*
X184981783Y-96740422D01*
X184981780Y-96740421D01*
X184829063Y-96699501D01*
X184829058Y-96699500D01*
X184829057Y-96699500D01*
X184670943Y-96699500D01*
X184670942Y-96699500D01*
X184670936Y-96699501D01*
X184518219Y-96740421D01*
X184518216Y-96740422D01*
X184421964Y-96795993D01*
X184381284Y-96819480D01*
X184381283Y-96819481D01*
X184381279Y-96819484D01*
X184269484Y-96931279D01*
X184269481Y-96931283D01*
X184190422Y-97068216D01*
X184190421Y-97068219D01*
X184149501Y-97220936D01*
X184149500Y-97220944D01*
X136800500Y-97220944D01*
X136800500Y-96510944D01*
X177829500Y-96510944D01*
X177829500Y-96669055D01*
X177829501Y-96669063D01*
X177870421Y-96821780D01*
X177870422Y-96821783D01*
X177870423Y-96821784D01*
X177949480Y-96958716D01*
X178061284Y-97070520D01*
X178198216Y-97149577D01*
X178198219Y-97149578D01*
X178223967Y-97156477D01*
X178350943Y-97190500D01*
X178350944Y-97190500D01*
X178509056Y-97190500D01*
X178509057Y-97190500D01*
X178578879Y-97171791D01*
X178636034Y-97156477D01*
X178661780Y-97149578D01*
X178661778Y-97149578D01*
X178661784Y-97149577D01*
X178798716Y-97070520D01*
X178910520Y-96958716D01*
X178989577Y-96821784D01*
X179030500Y-96669057D01*
X179030500Y-96510943D01*
X178989577Y-96358216D01*
X178910520Y-96221284D01*
X178798716Y-96109480D01*
X178688307Y-96045736D01*
X178661783Y-96030422D01*
X178661780Y-96030421D01*
X178509063Y-95989501D01*
X178509058Y-95989500D01*
X178509057Y-95989500D01*
X178350943Y-95989500D01*
X178350942Y-95989500D01*
X178350936Y-95989501D01*
X178198219Y-96030421D01*
X178198216Y-96030422D01*
X178101964Y-96085993D01*
X178061284Y-96109480D01*
X178061283Y-96109481D01*
X178061279Y-96109484D01*
X177949484Y-96221279D01*
X177949481Y-96221283D01*
X177870422Y-96358216D01*
X177870421Y-96358219D01*
X177829501Y-96510936D01*
X177829500Y-96510944D01*
X136800500Y-96510944D01*
X136800500Y-93420944D01*
X145799500Y-93420944D01*
X145799500Y-93579055D01*
X145799501Y-93579063D01*
X145840421Y-93731780D01*
X145840422Y-93731783D01*
X145840423Y-93731784D01*
X145919480Y-93868716D01*
X146031284Y-93980520D01*
X146168216Y-94059577D01*
X146168219Y-94059578D01*
X146202323Y-94068716D01*
X146320943Y-94100500D01*
X146320944Y-94100500D01*
X146479056Y-94100500D01*
X146479057Y-94100500D01*
X146631784Y-94059577D01*
X146768716Y-93980520D01*
X146880520Y-93868716D01*
X146959577Y-93731784D01*
X146982792Y-93645144D01*
X146989277Y-93620944D01*
X162099500Y-93620944D01*
X162099500Y-93779055D01*
X162099501Y-93779063D01*
X162140421Y-93931780D01*
X162140422Y-93931783D01*
X162140423Y-93931784D01*
X162219480Y-94068716D01*
X162331284Y-94180520D01*
X162468216Y-94259577D01*
X162468219Y-94259578D01*
X162544018Y-94279888D01*
X162620943Y-94300500D01*
X162620944Y-94300500D01*
X162779056Y-94300500D01*
X162779057Y-94300500D01*
X162931784Y-94259577D01*
X163068716Y-94180520D01*
X163180520Y-94068716D01*
X163259577Y-93931784D01*
X163300500Y-93779057D01*
X163300500Y-93620943D01*
X163269631Y-93505737D01*
X163259578Y-93468219D01*
X163259577Y-93468216D01*
X163232574Y-93421445D01*
X163180520Y-93331284D01*
X163068716Y-93219480D01*
X162948336Y-93149979D01*
X162931783Y-93140422D01*
X162931780Y-93140421D01*
X162779063Y-93099501D01*
X162779058Y-93099500D01*
X162779057Y-93099500D01*
X162620943Y-93099500D01*
X162620942Y-93099500D01*
X162620936Y-93099501D01*
X162468219Y-93140421D01*
X162468216Y-93140422D01*
X162371964Y-93195993D01*
X162331284Y-93219480D01*
X162331283Y-93219481D01*
X162331279Y-93219484D01*
X162219484Y-93331279D01*
X162219481Y-93331283D01*
X162140422Y-93468216D01*
X162140421Y-93468219D01*
X162099501Y-93620936D01*
X162099500Y-93620944D01*
X146989277Y-93620944D01*
X146994709Y-93600671D01*
X146994709Y-93600670D01*
X147000499Y-93579061D01*
X147000500Y-93579055D01*
X147000500Y-93420944D01*
X147000498Y-93420936D01*
X146959578Y-93268219D01*
X146959577Y-93268216D01*
X146947297Y-93246946D01*
X146880520Y-93131284D01*
X146768716Y-93019480D01*
X146663091Y-92958498D01*
X146631783Y-92940422D01*
X146631780Y-92940421D01*
X146532696Y-92913872D01*
X146479063Y-92899501D01*
X146479058Y-92899500D01*
X146479057Y-92899500D01*
X146320943Y-92899500D01*
X146320942Y-92899500D01*
X146320936Y-92899501D01*
X146168219Y-92940421D01*
X146168216Y-92940422D01*
X146071964Y-92995993D01*
X146031284Y-93019480D01*
X146031283Y-93019481D01*
X146031279Y-93019484D01*
X145919484Y-93131279D01*
X145919481Y-93131283D01*
X145919480Y-93131284D01*
X145914204Y-93140423D01*
X145840422Y-93268216D01*
X145840421Y-93268219D01*
X145799501Y-93420936D01*
X145799500Y-93420944D01*
X136800500Y-93420944D01*
X136800500Y-92856571D01*
X164549500Y-92856571D01*
X164549500Y-93053654D01*
X164587948Y-93246946D01*
X164587949Y-93246948D01*
X164663368Y-93429027D01*
X164663369Y-93429028D01*
X164772860Y-93592894D01*
X164912218Y-93732252D01*
X165073693Y-93840146D01*
X165100269Y-93879920D01*
X165090937Y-93926836D01*
X165051163Y-93953412D01*
X165038970Y-93954613D01*
X164945734Y-93954613D01*
X164936124Y-93955514D01*
X164915303Y-93957466D01*
X164915298Y-93957467D01*
X164787117Y-94002320D01*
X164787116Y-94002320D01*
X164677850Y-94082963D01*
X164597207Y-94192229D01*
X164597207Y-94192230D01*
X164552354Y-94320411D01*
X164552353Y-94320416D01*
X164549500Y-94350850D01*
X164549500Y-95559375D01*
X164552353Y-95589809D01*
X164552354Y-95589814D01*
X164597207Y-95717995D01*
X164597207Y-95717996D01*
X164637528Y-95772629D01*
X164677850Y-95827263D01*
X164787118Y-95907906D01*
X164915301Y-95952759D01*
X164945734Y-95955613D01*
X164945738Y-95955613D01*
X166154262Y-95955613D01*
X166154266Y-95955613D01*
X166184699Y-95952759D01*
X166312882Y-95907906D01*
X166422150Y-95827263D01*
X166502793Y-95717995D01*
X166547646Y-95589812D01*
X166550500Y-95559379D01*
X166550500Y-95139338D01*
X168539500Y-95139338D01*
X168539500Y-95320661D01*
X168574873Y-95498498D01*
X168574874Y-95498501D01*
X168644263Y-95666020D01*
X168644264Y-95666022D01*
X168678992Y-95717996D01*
X168745001Y-95816785D01*
X168873215Y-95944999D01*
X169023980Y-96045737D01*
X169191500Y-96115126D01*
X169369339Y-96150500D01*
X169550661Y-96150500D01*
X169728500Y-96115126D01*
X169896020Y-96045737D01*
X170046785Y-95944999D01*
X170174999Y-95816785D01*
X170275737Y-95666020D01*
X170345126Y-95498500D01*
X170380500Y-95320661D01*
X170380500Y-95139339D01*
X170380500Y-95139338D01*
X173619500Y-95139338D01*
X173619500Y-95320661D01*
X173654873Y-95498498D01*
X173654874Y-95498501D01*
X173724263Y-95666020D01*
X173724264Y-95666022D01*
X173758992Y-95717996D01*
X173825001Y-95816785D01*
X173953215Y-95944999D01*
X174103980Y-96045737D01*
X174271500Y-96115126D01*
X174449339Y-96150500D01*
X174630661Y-96150500D01*
X174808500Y-96115126D01*
X174976020Y-96045737D01*
X175126785Y-95944999D01*
X175254999Y-95816785D01*
X175355737Y-95666020D01*
X175425126Y-95498500D01*
X175460500Y-95320661D01*
X175460500Y-95139339D01*
X175425126Y-94961500D01*
X175355737Y-94793980D01*
X175254999Y-94643215D01*
X175126785Y-94515001D01*
X175126784Y-94515000D01*
X174976022Y-94414264D01*
X174976020Y-94414263D01*
X174808501Y-94344874D01*
X174808498Y-94344873D01*
X174630661Y-94309500D01*
X174449339Y-94309500D01*
X174271501Y-94344873D01*
X174271498Y-94344874D01*
X174103979Y-94414263D01*
X174103977Y-94414264D01*
X173953215Y-94515000D01*
X173825000Y-94643215D01*
X173724264Y-94793977D01*
X173724263Y-94793979D01*
X173654874Y-94961498D01*
X173654873Y-94961501D01*
X173619500Y-95139338D01*
X170380500Y-95139338D01*
X170345126Y-94961500D01*
X170275737Y-94793980D01*
X170174999Y-94643215D01*
X170046785Y-94515001D01*
X170046784Y-94515000D01*
X169896022Y-94414264D01*
X169896020Y-94414263D01*
X169728501Y-94344874D01*
X169728498Y-94344873D01*
X169550661Y-94309500D01*
X169369339Y-94309500D01*
X169191501Y-94344873D01*
X169191498Y-94344874D01*
X169023979Y-94414263D01*
X169023977Y-94414264D01*
X168873215Y-94515000D01*
X168745000Y-94643215D01*
X168644264Y-94793977D01*
X168644263Y-94793979D01*
X168574874Y-94961498D01*
X168574873Y-94961501D01*
X168539500Y-95139338D01*
X166550500Y-95139338D01*
X166550500Y-94350847D01*
X166547646Y-94320414D01*
X166502793Y-94192231D01*
X166500667Y-94189351D01*
X166455797Y-94128554D01*
X166422150Y-94082963D01*
X166312882Y-94002320D01*
X166184701Y-93957467D01*
X166184696Y-93957466D01*
X166164699Y-93955591D01*
X166154266Y-93954613D01*
X166154262Y-93954613D01*
X166061030Y-93954613D01*
X166016836Y-93936307D01*
X165998530Y-93892113D01*
X166016836Y-93847919D01*
X166026307Y-93840146D01*
X166117736Y-93779055D01*
X166187782Y-93732252D01*
X166274890Y-93645144D01*
X177130000Y-93645144D01*
X177130000Y-93904855D01*
X177130001Y-93904871D01*
X177170628Y-94161373D01*
X177170628Y-94161374D01*
X177250885Y-94408381D01*
X177250886Y-94408383D01*
X177368796Y-94639791D01*
X177449951Y-94751492D01*
X178178957Y-94022486D01*
X178203978Y-94082890D01*
X178275112Y-94189351D01*
X178365649Y-94279888D01*
X178472110Y-94351022D01*
X178532511Y-94376041D01*
X177803505Y-95105047D01*
X177915208Y-95186203D01*
X178146616Y-95304113D01*
X178146618Y-95304114D01*
X178393625Y-95384371D01*
X178650128Y-95424998D01*
X178650144Y-95425000D01*
X178909856Y-95425000D01*
X178909871Y-95424998D01*
X179166373Y-95384371D01*
X179166374Y-95384371D01*
X179413381Y-95304114D01*
X179413383Y-95304113D01*
X179644785Y-95186207D01*
X179756492Y-95105046D01*
X179027487Y-94376041D01*
X179087890Y-94351022D01*
X179194351Y-94279888D01*
X179284888Y-94189351D01*
X179356022Y-94082890D01*
X179381041Y-94022487D01*
X180110046Y-94751492D01*
X180191207Y-94639785D01*
X180309113Y-94408383D01*
X180309114Y-94408381D01*
X180389371Y-94161374D01*
X180389371Y-94161373D01*
X180429998Y-93904871D01*
X180430000Y-93904855D01*
X180430000Y-93645144D01*
X180429998Y-93645128D01*
X180389371Y-93388626D01*
X180389371Y-93388625D01*
X180309114Y-93141618D01*
X180309113Y-93141616D01*
X180191203Y-92910208D01*
X180110046Y-92798505D01*
X179381041Y-93527511D01*
X179356022Y-93467110D01*
X179284888Y-93360649D01*
X179194351Y-93270112D01*
X179087890Y-93198978D01*
X179027486Y-93173957D01*
X179596194Y-92605251D01*
X185049500Y-92605251D01*
X185049500Y-94944748D01*
X185061132Y-95003230D01*
X185061133Y-95003232D01*
X185105447Y-95069552D01*
X185171767Y-95113866D01*
X185171769Y-95113867D01*
X185230252Y-95125500D01*
X187569748Y-95125500D01*
X187628231Y-95113867D01*
X187694552Y-95069552D01*
X187738867Y-95003231D01*
X187750500Y-94944748D01*
X187750500Y-92605252D01*
X187738867Y-92546769D01*
X187738866Y-92546767D01*
X187694552Y-92480447D01*
X187628232Y-92436133D01*
X187628230Y-92436132D01*
X187569748Y-92424500D01*
X185230252Y-92424500D01*
X185171769Y-92436132D01*
X185171767Y-92436133D01*
X185105447Y-92480447D01*
X185061133Y-92546767D01*
X185061132Y-92546769D01*
X185049500Y-92605251D01*
X179596194Y-92605251D01*
X179643457Y-92557988D01*
X179756493Y-92444951D01*
X179644791Y-92363796D01*
X179413383Y-92245886D01*
X179413381Y-92245885D01*
X179166374Y-92165628D01*
X178909871Y-92125001D01*
X178909856Y-92125000D01*
X178650144Y-92125000D01*
X178650128Y-92125001D01*
X178393626Y-92165628D01*
X178393625Y-92165628D01*
X178146618Y-92245885D01*
X178146616Y-92245886D01*
X177915208Y-92363796D01*
X177803505Y-92444951D01*
X178532512Y-93173958D01*
X178472110Y-93198978D01*
X178365649Y-93270112D01*
X178275112Y-93360649D01*
X178203978Y-93467110D01*
X178178958Y-93527512D01*
X177449951Y-92798505D01*
X177368796Y-92910208D01*
X177250886Y-93141616D01*
X177250885Y-93141618D01*
X177170628Y-93388625D01*
X177170628Y-93388626D01*
X177130001Y-93645128D01*
X177130000Y-93645144D01*
X166274890Y-93645144D01*
X166327139Y-93592895D01*
X166436632Y-93429027D01*
X166512051Y-93246948D01*
X166550500Y-93053654D01*
X166550500Y-92856572D01*
X166512051Y-92663278D01*
X166512050Y-92663277D01*
X166512050Y-92663274D01*
X166494204Y-92620190D01*
X166494202Y-92620187D01*
X166493950Y-92619578D01*
X166485566Y-92599338D01*
X171079500Y-92599338D01*
X171079500Y-92780661D01*
X171114873Y-92958498D01*
X171114874Y-92958501D01*
X171184263Y-93126020D01*
X171184264Y-93126022D01*
X171279275Y-93268216D01*
X171285001Y-93276785D01*
X171413215Y-93404999D01*
X171563980Y-93505737D01*
X171731500Y-93575126D01*
X171909339Y-93610500D01*
X172090661Y-93610500D01*
X172268500Y-93575126D01*
X172436020Y-93505737D01*
X172586785Y-93404999D01*
X172714999Y-93276785D01*
X172815737Y-93126020D01*
X172885126Y-92958500D01*
X172920500Y-92780661D01*
X172920500Y-92599339D01*
X172885126Y-92421500D01*
X172815737Y-92253980D01*
X172714999Y-92103215D01*
X172586785Y-91975001D01*
X172586784Y-91975000D01*
X172436022Y-91874264D01*
X172436020Y-91874263D01*
X172268501Y-91804874D01*
X172268498Y-91804873D01*
X172090661Y-91769500D01*
X171909339Y-91769500D01*
X171731501Y-91804873D01*
X171731498Y-91804874D01*
X171563979Y-91874263D01*
X171563977Y-91874264D01*
X171413215Y-91975000D01*
X171285000Y-92103215D01*
X171184264Y-92253977D01*
X171184263Y-92253979D01*
X171114874Y-92421498D01*
X171114873Y-92421501D01*
X171079500Y-92599338D01*
X166485566Y-92599338D01*
X166436632Y-92481199D01*
X166327139Y-92317331D01*
X166187782Y-92177974D01*
X166023914Y-92068481D01*
X165841835Y-91993062D01*
X165841833Y-91993061D01*
X165648541Y-91954613D01*
X165451459Y-91954613D01*
X165258166Y-91993061D01*
X165076084Y-92068482D01*
X164912218Y-92177973D01*
X164772860Y-92317331D01*
X164663369Y-92481197D01*
X164587948Y-92663279D01*
X164549500Y-92856571D01*
X136800500Y-92856571D01*
X136800500Y-91980944D01*
X143319500Y-91980944D01*
X143319500Y-92139055D01*
X143319501Y-92139063D01*
X143360421Y-92291780D01*
X143360422Y-92291783D01*
X143360423Y-92291784D01*
X143439480Y-92428716D01*
X143551284Y-92540520D01*
X143688216Y-92619577D01*
X143688219Y-92619578D01*
X143781681Y-92644621D01*
X143840943Y-92660500D01*
X143840944Y-92660500D01*
X143999056Y-92660500D01*
X143999057Y-92660500D01*
X144151784Y-92619577D01*
X144288716Y-92540520D01*
X144400520Y-92428716D01*
X144479577Y-92291784D01*
X144520500Y-92139057D01*
X144520500Y-91980943D01*
X144479577Y-91828216D01*
X144400520Y-91691284D01*
X144288716Y-91579480D01*
X144192464Y-91523909D01*
X144151783Y-91500422D01*
X144151780Y-91500421D01*
X143999063Y-91459501D01*
X143999058Y-91459500D01*
X143999057Y-91459500D01*
X143840943Y-91459500D01*
X143840942Y-91459500D01*
X143840936Y-91459501D01*
X143688219Y-91500421D01*
X143688216Y-91500422D01*
X143591964Y-91555993D01*
X143551284Y-91579480D01*
X143551283Y-91579481D01*
X143551279Y-91579484D01*
X143439484Y-91691279D01*
X143439481Y-91691283D01*
X143360422Y-91828216D01*
X143360421Y-91828219D01*
X143319501Y-91980936D01*
X143319500Y-91980944D01*
X136800500Y-91980944D01*
X136800500Y-90370944D01*
X152943169Y-90370944D01*
X152943169Y-90529055D01*
X152943170Y-90529063D01*
X152984090Y-90681780D01*
X152984091Y-90681783D01*
X152984092Y-90681784D01*
X153063149Y-90818716D01*
X153174953Y-90930520D01*
X153302653Y-91004247D01*
X153311885Y-91009577D01*
X153311888Y-91009578D01*
X153405350Y-91034621D01*
X153464612Y-91050500D01*
X153464613Y-91050500D01*
X153622725Y-91050500D01*
X153622726Y-91050500D01*
X153775453Y-91009577D01*
X153912385Y-90930520D01*
X154024189Y-90818716D01*
X154103246Y-90681784D01*
X154144169Y-90529057D01*
X154144169Y-90370943D01*
X154142741Y-90365613D01*
X154444169Y-90365613D01*
X154444169Y-90523724D01*
X154444170Y-90523732D01*
X154485090Y-90676449D01*
X154485091Y-90676452D01*
X154508578Y-90717133D01*
X154564149Y-90813385D01*
X154675953Y-90925189D01*
X154812885Y-91004246D01*
X154812888Y-91004247D01*
X154832784Y-91009578D01*
X154965612Y-91045169D01*
X154965613Y-91045169D01*
X155123725Y-91045169D01*
X155123726Y-91045169D01*
X155276453Y-91004246D01*
X155413385Y-90925189D01*
X155525189Y-90813385D01*
X155604246Y-90676453D01*
X155645169Y-90523726D01*
X155645169Y-90365612D01*
X155605675Y-90218219D01*
X155604247Y-90212888D01*
X155604246Y-90212885D01*
X155568228Y-90150500D01*
X155525189Y-90075953D01*
X155413385Y-89964149D01*
X155285685Y-89890422D01*
X155276452Y-89885091D01*
X155276449Y-89885090D01*
X155123732Y-89844170D01*
X155123727Y-89844169D01*
X155123726Y-89844169D01*
X154965612Y-89844169D01*
X154965611Y-89844169D01*
X154965605Y-89844170D01*
X154812888Y-89885090D01*
X154812885Y-89885091D01*
X154716633Y-89940662D01*
X154675953Y-89964149D01*
X154675952Y-89964150D01*
X154675948Y-89964153D01*
X154564153Y-90075948D01*
X154564150Y-90075952D01*
X154564149Y-90075953D01*
X154541533Y-90115125D01*
X154485091Y-90212885D01*
X154485090Y-90212888D01*
X154444170Y-90365605D01*
X154444169Y-90365613D01*
X154142741Y-90365613D01*
X154103246Y-90218216D01*
X154024189Y-90081284D01*
X153912385Y-89969480D01*
X153816133Y-89913909D01*
X153775452Y-89890422D01*
X153775449Y-89890421D01*
X153622732Y-89849501D01*
X153622727Y-89849500D01*
X153622726Y-89849500D01*
X153464612Y-89849500D01*
X153464611Y-89849500D01*
X153464605Y-89849501D01*
X153311888Y-89890421D01*
X153311885Y-89890422D01*
X153217356Y-89944999D01*
X153174953Y-89969480D01*
X153174952Y-89969481D01*
X153174948Y-89969484D01*
X153063153Y-90081279D01*
X153063150Y-90081283D01*
X153063149Y-90081284D01*
X153039662Y-90121964D01*
X152984091Y-90218216D01*
X152984090Y-90218219D01*
X152943170Y-90370936D01*
X152943169Y-90370944D01*
X136800500Y-90370944D01*
X136800500Y-88670944D01*
X159549500Y-88670944D01*
X159549500Y-88829055D01*
X159549501Y-88829063D01*
X159590421Y-88981780D01*
X159590422Y-88981783D01*
X159590423Y-88981784D01*
X159669480Y-89118716D01*
X159781284Y-89230520D01*
X159918216Y-89309577D01*
X159918219Y-89309578D01*
X159959582Y-89320661D01*
X160070943Y-89350500D01*
X160070944Y-89350500D01*
X160229056Y-89350500D01*
X160229057Y-89350500D01*
X160381784Y-89309577D01*
X160518716Y-89230520D01*
X160609898Y-89139338D01*
X168539500Y-89139338D01*
X168539500Y-89320661D01*
X168574873Y-89498498D01*
X168574874Y-89498500D01*
X168644263Y-89666020D01*
X168745001Y-89816785D01*
X168873215Y-89944999D01*
X169023980Y-90045737D01*
X169191500Y-90115126D01*
X169369339Y-90150500D01*
X169550661Y-90150500D01*
X169728500Y-90115126D01*
X169896020Y-90045737D01*
X170046785Y-89944999D01*
X170174999Y-89816785D01*
X170275737Y-89666020D01*
X170345126Y-89498500D01*
X170380500Y-89320661D01*
X170380500Y-89139339D01*
X170380500Y-89139338D01*
X173619500Y-89139338D01*
X173619500Y-89320661D01*
X173654873Y-89498498D01*
X173654874Y-89498500D01*
X173724263Y-89666020D01*
X173825001Y-89816785D01*
X173953215Y-89944999D01*
X174103980Y-90045737D01*
X174271500Y-90115126D01*
X174449339Y-90150500D01*
X174630661Y-90150500D01*
X174808500Y-90115126D01*
X174976020Y-90045737D01*
X175126785Y-89944999D01*
X175254999Y-89816785D01*
X175355737Y-89666020D01*
X175425126Y-89498500D01*
X175460500Y-89320661D01*
X175460500Y-89139339D01*
X175425126Y-88961500D01*
X175355737Y-88793980D01*
X175254999Y-88643215D01*
X175126785Y-88515001D01*
X175126784Y-88515000D01*
X174976022Y-88414264D01*
X174976020Y-88414263D01*
X174808501Y-88344874D01*
X174808498Y-88344873D01*
X174630661Y-88309500D01*
X174449339Y-88309500D01*
X174271501Y-88344873D01*
X174271498Y-88344874D01*
X174103979Y-88414263D01*
X174103977Y-88414264D01*
X173953215Y-88515000D01*
X173825000Y-88643215D01*
X173724264Y-88793977D01*
X173724263Y-88793979D01*
X173654874Y-88961498D01*
X173654873Y-88961501D01*
X173619500Y-89139338D01*
X170380500Y-89139338D01*
X170345126Y-88961500D01*
X170275737Y-88793980D01*
X170174999Y-88643215D01*
X170046785Y-88515001D01*
X170046784Y-88515000D01*
X169896022Y-88414264D01*
X169896020Y-88414263D01*
X169728501Y-88344874D01*
X169728498Y-88344873D01*
X169550661Y-88309500D01*
X169369339Y-88309500D01*
X169191501Y-88344873D01*
X169191498Y-88344874D01*
X169023979Y-88414263D01*
X169023977Y-88414264D01*
X168873215Y-88515000D01*
X168745000Y-88643215D01*
X168644264Y-88793977D01*
X168644263Y-88793979D01*
X168574874Y-88961498D01*
X168574873Y-88961501D01*
X168539500Y-89139338D01*
X160609898Y-89139338D01*
X160630520Y-89118716D01*
X160709577Y-88981784D01*
X160750500Y-88829057D01*
X160750500Y-88670943D01*
X160709577Y-88518216D01*
X160630520Y-88381284D01*
X160518716Y-88269480D01*
X160422464Y-88213909D01*
X160381783Y-88190422D01*
X160381780Y-88190421D01*
X160229063Y-88149501D01*
X160229058Y-88149500D01*
X160229057Y-88149500D01*
X160070943Y-88149500D01*
X160070942Y-88149500D01*
X160070936Y-88149501D01*
X159918219Y-88190421D01*
X159918216Y-88190422D01*
X159821964Y-88245993D01*
X159781284Y-88269480D01*
X159781283Y-88269481D01*
X159781279Y-88269484D01*
X159669484Y-88381279D01*
X159669481Y-88381283D01*
X159590422Y-88518216D01*
X159590421Y-88518219D01*
X159549501Y-88670936D01*
X159549500Y-88670944D01*
X136800500Y-88670944D01*
X136800500Y-87270944D01*
X164149500Y-87270944D01*
X164149500Y-87429055D01*
X164149501Y-87429063D01*
X164190421Y-87581780D01*
X164190422Y-87581783D01*
X164190423Y-87581784D01*
X164269480Y-87718716D01*
X164381284Y-87830520D01*
X164518216Y-87909577D01*
X164518219Y-87909578D01*
X164611681Y-87934621D01*
X164670943Y-87950500D01*
X164670944Y-87950500D01*
X164829056Y-87950500D01*
X164829057Y-87950500D01*
X164981784Y-87909577D01*
X165118716Y-87830520D01*
X165230520Y-87718716D01*
X165309577Y-87581784D01*
X165350500Y-87429057D01*
X165350500Y-87270943D01*
X165309577Y-87118216D01*
X165230520Y-86981284D01*
X165118716Y-86869480D01*
X165022464Y-86813909D01*
X164981783Y-86790422D01*
X164981780Y-86790421D01*
X164829063Y-86749501D01*
X164829058Y-86749500D01*
X164829057Y-86749500D01*
X164670943Y-86749500D01*
X164670942Y-86749500D01*
X164670936Y-86749501D01*
X164518219Y-86790421D01*
X164518216Y-86790422D01*
X164421964Y-86845993D01*
X164381284Y-86869480D01*
X164381283Y-86869481D01*
X164381279Y-86869484D01*
X164269484Y-86981279D01*
X164269481Y-86981283D01*
X164269480Y-86981284D01*
X164258387Y-87000498D01*
X164190422Y-87118216D01*
X164190421Y-87118219D01*
X164149501Y-87270936D01*
X164149500Y-87270944D01*
X136800500Y-87270944D01*
X136800500Y-86000944D01*
X142089500Y-86000944D01*
X142089500Y-86159055D01*
X142089501Y-86159063D01*
X142130421Y-86311780D01*
X142130422Y-86311783D01*
X142130423Y-86311784D01*
X142209480Y-86448716D01*
X142321284Y-86560520D01*
X142444718Y-86631784D01*
X142458216Y-86639577D01*
X142458219Y-86639578D01*
X142551681Y-86664621D01*
X142610943Y-86680500D01*
X142610944Y-86680500D01*
X142769056Y-86680500D01*
X142769057Y-86680500D01*
X142921784Y-86639577D01*
X143058716Y-86560520D01*
X143170520Y-86448716D01*
X143249577Y-86311784D01*
X143249802Y-86310944D01*
X148199500Y-86310944D01*
X148199500Y-86469055D01*
X148199501Y-86469063D01*
X148240421Y-86621780D01*
X148240422Y-86621783D01*
X148250696Y-86639578D01*
X148319480Y-86758716D01*
X148431284Y-86870520D01*
X148568216Y-86949577D01*
X148568219Y-86949578D01*
X148661681Y-86974621D01*
X148720943Y-86990500D01*
X148720944Y-86990500D01*
X148879056Y-86990500D01*
X148879057Y-86990500D01*
X149031784Y-86949577D01*
X149168716Y-86870520D01*
X149280520Y-86758716D01*
X149359577Y-86621784D01*
X149400500Y-86469057D01*
X149400500Y-86320944D01*
X159199500Y-86320944D01*
X159199500Y-86479055D01*
X159199501Y-86479063D01*
X159240421Y-86631780D01*
X159240422Y-86631783D01*
X159263909Y-86672464D01*
X159319480Y-86768716D01*
X159431284Y-86880520D01*
X159550897Y-86949578D01*
X159568216Y-86959577D01*
X159568219Y-86959578D01*
X159571373Y-86960423D01*
X159720943Y-87000500D01*
X159720944Y-87000500D01*
X159879056Y-87000500D01*
X159879057Y-87000500D01*
X160031784Y-86959577D01*
X160168716Y-86880520D01*
X160280520Y-86768716D01*
X160359577Y-86631784D01*
X160361433Y-86624855D01*
X160368271Y-86599338D01*
X171079500Y-86599338D01*
X171079500Y-86780661D01*
X171114873Y-86958498D01*
X171114874Y-86958501D01*
X171184263Y-87126020D01*
X171184264Y-87126022D01*
X171281097Y-87270943D01*
X171285001Y-87276785D01*
X171413215Y-87404999D01*
X171563980Y-87505737D01*
X171731500Y-87575126D01*
X171909339Y-87610500D01*
X172090661Y-87610500D01*
X172268500Y-87575126D01*
X172436020Y-87505737D01*
X172532990Y-87440944D01*
X181929500Y-87440944D01*
X181929500Y-87599055D01*
X181929501Y-87599063D01*
X181970421Y-87751780D01*
X181970422Y-87751783D01*
X181970423Y-87751784D01*
X182049480Y-87888716D01*
X182161284Y-88000520D01*
X182298216Y-88079577D01*
X182298219Y-88079578D01*
X182391681Y-88104621D01*
X182450943Y-88120500D01*
X182450944Y-88120500D01*
X182609056Y-88120500D01*
X182609057Y-88120500D01*
X182761784Y-88079577D01*
X182898716Y-88000520D01*
X183010520Y-87888716D01*
X183089577Y-87751784D01*
X183130500Y-87599057D01*
X183130500Y-87440943D01*
X183089577Y-87288216D01*
X183010520Y-87151284D01*
X182898716Y-87039480D01*
X182797908Y-86981279D01*
X182761783Y-86960422D01*
X182761780Y-86960421D01*
X182609063Y-86919501D01*
X182609058Y-86919500D01*
X182609057Y-86919500D01*
X182450943Y-86919500D01*
X182450942Y-86919500D01*
X182450936Y-86919501D01*
X182298219Y-86960421D01*
X182298216Y-86960422D01*
X182201964Y-87015993D01*
X182161284Y-87039480D01*
X182161283Y-87039481D01*
X182161279Y-87039484D01*
X182049484Y-87151279D01*
X182049481Y-87151283D01*
X181970422Y-87288216D01*
X181970421Y-87288219D01*
X181929501Y-87440936D01*
X181929500Y-87440944D01*
X172532990Y-87440944D01*
X172586785Y-87404999D01*
X172714999Y-87276785D01*
X172815737Y-87126020D01*
X172885126Y-86958500D01*
X172920500Y-86780661D01*
X172920500Y-86599339D01*
X172885126Y-86421500D01*
X172815737Y-86253980D01*
X172714999Y-86103215D01*
X172586785Y-85975001D01*
X172503698Y-85919484D01*
X172436022Y-85874264D01*
X172436020Y-85874263D01*
X172268501Y-85804874D01*
X172268498Y-85804873D01*
X172090661Y-85769500D01*
X171909339Y-85769500D01*
X171731501Y-85804873D01*
X171731498Y-85804874D01*
X171563979Y-85874263D01*
X171563977Y-85874264D01*
X171413215Y-85975000D01*
X171285000Y-86103215D01*
X171184264Y-86253977D01*
X171184263Y-86253979D01*
X171114874Y-86421498D01*
X171114873Y-86421501D01*
X171079500Y-86599338D01*
X160368271Y-86599338D01*
X160373428Y-86580093D01*
X160400498Y-86479063D01*
X160400500Y-86479055D01*
X160400500Y-86320944D01*
X160400498Y-86320936D01*
X160398045Y-86311783D01*
X160359577Y-86168216D01*
X160280520Y-86031284D01*
X160168716Y-85919480D01*
X160072464Y-85863909D01*
X160031783Y-85840422D01*
X160031780Y-85840421D01*
X159879063Y-85799501D01*
X159879058Y-85799500D01*
X159879057Y-85799500D01*
X159720943Y-85799500D01*
X159720942Y-85799500D01*
X159720936Y-85799501D01*
X159568219Y-85840421D01*
X159568216Y-85840422D01*
X159471964Y-85895993D01*
X159431284Y-85919480D01*
X159431283Y-85919481D01*
X159431279Y-85919484D01*
X159319484Y-86031279D01*
X159319481Y-86031283D01*
X159240422Y-86168216D01*
X159240421Y-86168219D01*
X159199501Y-86320936D01*
X159199500Y-86320944D01*
X149400500Y-86320944D01*
X149400500Y-86310943D01*
X149362257Y-86168219D01*
X149359578Y-86158219D01*
X149359577Y-86158216D01*
X149327822Y-86103215D01*
X149280520Y-86021284D01*
X149168716Y-85909480D01*
X149049103Y-85840422D01*
X149031783Y-85830422D01*
X149031780Y-85830421D01*
X148879063Y-85789501D01*
X148879058Y-85789500D01*
X148879057Y-85789500D01*
X148720943Y-85789500D01*
X148720942Y-85789500D01*
X148720936Y-85789501D01*
X148568219Y-85830421D01*
X148568216Y-85830422D01*
X148492282Y-85874263D01*
X148431284Y-85909480D01*
X148431283Y-85909481D01*
X148431279Y-85909484D01*
X148319484Y-86021279D01*
X148319481Y-86021283D01*
X148319480Y-86021284D01*
X148313707Y-86031283D01*
X148240422Y-86158216D01*
X148240421Y-86158219D01*
X148199501Y-86310936D01*
X148199500Y-86310944D01*
X143249802Y-86310944D01*
X143252983Y-86299070D01*
X143255235Y-86290670D01*
X143255235Y-86290669D01*
X143290498Y-86159063D01*
X143290500Y-86159055D01*
X143290500Y-86000944D01*
X143290498Y-86000936D01*
X143249578Y-85848219D01*
X143249577Y-85848216D01*
X143239303Y-85830421D01*
X143170520Y-85711284D01*
X143058716Y-85599480D01*
X142962464Y-85543909D01*
X142921783Y-85520422D01*
X142921780Y-85520421D01*
X142769063Y-85479501D01*
X142769058Y-85479500D01*
X142769057Y-85479500D01*
X142610943Y-85479500D01*
X142610942Y-85479500D01*
X142610936Y-85479501D01*
X142458219Y-85520421D01*
X142458216Y-85520422D01*
X142361964Y-85575993D01*
X142321284Y-85599480D01*
X142321283Y-85599481D01*
X142321279Y-85599484D01*
X142209484Y-85711279D01*
X142209481Y-85711283D01*
X142130422Y-85848216D01*
X142130421Y-85848219D01*
X142089501Y-86000936D01*
X142089500Y-86000944D01*
X136800500Y-86000944D01*
X136800500Y-84720944D01*
X146499500Y-84720944D01*
X146499500Y-84879055D01*
X146499501Y-84879063D01*
X146540421Y-85031780D01*
X146540422Y-85031783D01*
X146540423Y-85031784D01*
X146619480Y-85168716D01*
X146731284Y-85280520D01*
X146868216Y-85359577D01*
X146868219Y-85359578D01*
X146961681Y-85384621D01*
X147020943Y-85400500D01*
X147020944Y-85400500D01*
X147179056Y-85400500D01*
X147179057Y-85400500D01*
X147331784Y-85359577D01*
X147468716Y-85280520D01*
X147580520Y-85168716D01*
X147659577Y-85031784D01*
X147700500Y-84879057D01*
X147700500Y-84720943D01*
X147659577Y-84568216D01*
X147580520Y-84431284D01*
X147468716Y-84319480D01*
X147372464Y-84263909D01*
X147331783Y-84240422D01*
X147331780Y-84240421D01*
X147179063Y-84199501D01*
X147179058Y-84199500D01*
X147179057Y-84199500D01*
X147020943Y-84199500D01*
X147020942Y-84199500D01*
X147020936Y-84199501D01*
X146868219Y-84240421D01*
X146868216Y-84240422D01*
X146771964Y-84295993D01*
X146731284Y-84319480D01*
X146731283Y-84319481D01*
X146731279Y-84319484D01*
X146619484Y-84431279D01*
X146619481Y-84431283D01*
X146540422Y-84568216D01*
X146540421Y-84568219D01*
X146499501Y-84720936D01*
X146499500Y-84720944D01*
X136800500Y-84720944D01*
X136800500Y-83070944D01*
X147749500Y-83070944D01*
X147749500Y-83229055D01*
X147749501Y-83229063D01*
X147790421Y-83381780D01*
X147790422Y-83381783D01*
X147790423Y-83381784D01*
X147869480Y-83518716D01*
X147981284Y-83630520D01*
X148118216Y-83709577D01*
X148118219Y-83709578D01*
X148161907Y-83721284D01*
X148270943Y-83750500D01*
X148270944Y-83750500D01*
X148429056Y-83750500D01*
X148429057Y-83750500D01*
X148581784Y-83709577D01*
X148718716Y-83630520D01*
X148830520Y-83518716D01*
X148909577Y-83381784D01*
X148950500Y-83229057D01*
X148950500Y-83070943D01*
X148943019Y-83043022D01*
X148943019Y-83043020D01*
X148939783Y-83030944D01*
X159599500Y-83030944D01*
X159599500Y-83189055D01*
X159599501Y-83189063D01*
X159640421Y-83341780D01*
X159640422Y-83341783D01*
X159640423Y-83341784D01*
X159719480Y-83478716D01*
X159831284Y-83590520D01*
X159962055Y-83666020D01*
X159968216Y-83669577D01*
X159968219Y-83669578D01*
X160061681Y-83694621D01*
X160120943Y-83710500D01*
X160120944Y-83710500D01*
X160279056Y-83710500D01*
X160279057Y-83710500D01*
X160431784Y-83669577D01*
X160568716Y-83590520D01*
X160680520Y-83478716D01*
X160759577Y-83341784D01*
X160800500Y-83189057D01*
X160800500Y-83139338D01*
X168539500Y-83139338D01*
X168539500Y-83320661D01*
X168574873Y-83498498D01*
X168574874Y-83498501D01*
X168644263Y-83666020D01*
X168644264Y-83666022D01*
X168745000Y-83816784D01*
X168745001Y-83816785D01*
X168873215Y-83944999D01*
X169023980Y-84045737D01*
X169191500Y-84115126D01*
X169369339Y-84150500D01*
X169550661Y-84150500D01*
X169728500Y-84115126D01*
X169896020Y-84045737D01*
X170046785Y-83944999D01*
X170174999Y-83816785D01*
X170275737Y-83666020D01*
X170345126Y-83498500D01*
X170380500Y-83320661D01*
X170380500Y-83139339D01*
X170380500Y-83139338D01*
X173619500Y-83139338D01*
X173619500Y-83320661D01*
X173654873Y-83498498D01*
X173654874Y-83498501D01*
X173724263Y-83666020D01*
X173724264Y-83666022D01*
X173825000Y-83816784D01*
X173825001Y-83816785D01*
X173953215Y-83944999D01*
X174103980Y-84045737D01*
X174271500Y-84115126D01*
X174449339Y-84150500D01*
X174630661Y-84150500D01*
X174808500Y-84115126D01*
X174976020Y-84045737D01*
X175126785Y-83944999D01*
X175254999Y-83816785D01*
X175355737Y-83666020D01*
X175420895Y-83508715D01*
X185049500Y-83508715D01*
X185049500Y-83721284D01*
X185049501Y-83721300D01*
X185082753Y-83931240D01*
X185082753Y-83931241D01*
X185148442Y-84133410D01*
X185148446Y-84133418D01*
X185244949Y-84322817D01*
X185369897Y-84494794D01*
X185520205Y-84645102D01*
X185692182Y-84770050D01*
X185692184Y-84770051D01*
X185881588Y-84866557D01*
X186083757Y-84932246D01*
X186172244Y-84946261D01*
X186293699Y-84965498D01*
X186293705Y-84965498D01*
X186293713Y-84965500D01*
X186293715Y-84965500D01*
X186506285Y-84965500D01*
X186506287Y-84965500D01*
X186716243Y-84932246D01*
X186918412Y-84866557D01*
X187107816Y-84770051D01*
X187279792Y-84645104D01*
X187430104Y-84494792D01*
X187555051Y-84322816D01*
X187651557Y-84133412D01*
X187717246Y-83931243D01*
X187750500Y-83721287D01*
X187750500Y-83508713D01*
X187748882Y-83498500D01*
X187724061Y-83341784D01*
X187717246Y-83298757D01*
X187651557Y-83096588D01*
X187555051Y-82907184D01*
X187535677Y-82880518D01*
X187430102Y-82735205D01*
X187279794Y-82584897D01*
X187107817Y-82459949D01*
X186918418Y-82363446D01*
X186918410Y-82363442D01*
X186716241Y-82297753D01*
X186506300Y-82264501D01*
X186506288Y-82264500D01*
X186506287Y-82264500D01*
X186293713Y-82264500D01*
X186293711Y-82264500D01*
X186293699Y-82264501D01*
X186083759Y-82297753D01*
X186083758Y-82297753D01*
X185881589Y-82363442D01*
X185881581Y-82363446D01*
X185692182Y-82459949D01*
X185520205Y-82584897D01*
X185369897Y-82735205D01*
X185244949Y-82907182D01*
X185148446Y-83096581D01*
X185148442Y-83096589D01*
X185082753Y-83298758D01*
X185082753Y-83298759D01*
X185049501Y-83508699D01*
X185049500Y-83508715D01*
X175420895Y-83508715D01*
X175425126Y-83498500D01*
X175460500Y-83320661D01*
X175460500Y-83139339D01*
X175425126Y-82961500D01*
X175355737Y-82793980D01*
X175254999Y-82643215D01*
X175126785Y-82515001D01*
X175118554Y-82509501D01*
X174976022Y-82414264D01*
X174976020Y-82414263D01*
X174808501Y-82344874D01*
X174808498Y-82344873D01*
X174630661Y-82309500D01*
X174449339Y-82309500D01*
X174271501Y-82344873D01*
X174271498Y-82344874D01*
X174103979Y-82414263D01*
X174103977Y-82414264D01*
X173953215Y-82515000D01*
X173825000Y-82643215D01*
X173724264Y-82793977D01*
X173724263Y-82793979D01*
X173654874Y-82961498D01*
X173654873Y-82961501D01*
X173619500Y-83139338D01*
X170380500Y-83139338D01*
X170345126Y-82961500D01*
X170275737Y-82793980D01*
X170174999Y-82643215D01*
X170046785Y-82515001D01*
X170038554Y-82509501D01*
X169896022Y-82414264D01*
X169896020Y-82414263D01*
X169728501Y-82344874D01*
X169728498Y-82344873D01*
X169550661Y-82309500D01*
X169369339Y-82309500D01*
X169191501Y-82344873D01*
X169191498Y-82344874D01*
X169023979Y-82414263D01*
X169023977Y-82414264D01*
X168873215Y-82515000D01*
X168745000Y-82643215D01*
X168644264Y-82793977D01*
X168644263Y-82793979D01*
X168574874Y-82961498D01*
X168574873Y-82961501D01*
X168539500Y-83139338D01*
X160800500Y-83139338D01*
X160800500Y-83030943D01*
X160770296Y-82918219D01*
X160759578Y-82878219D01*
X160759577Y-82878216D01*
X160680520Y-82741284D01*
X160568716Y-82629480D01*
X160472464Y-82573909D01*
X160431783Y-82550422D01*
X160431780Y-82550421D01*
X160279063Y-82509501D01*
X160279058Y-82509500D01*
X160279057Y-82509500D01*
X160120943Y-82509500D01*
X160120942Y-82509500D01*
X160120936Y-82509501D01*
X159968219Y-82550421D01*
X159968216Y-82550422D01*
X159898935Y-82590422D01*
X159831284Y-82629480D01*
X159831283Y-82629481D01*
X159831279Y-82629484D01*
X159719484Y-82741279D01*
X159719481Y-82741283D01*
X159640422Y-82878216D01*
X159640421Y-82878219D01*
X159599501Y-83030936D01*
X159599500Y-83030944D01*
X148939783Y-83030944D01*
X148920660Y-82959577D01*
X148909577Y-82918216D01*
X148830520Y-82781284D01*
X148718716Y-82669480D01*
X148622464Y-82613909D01*
X148581783Y-82590422D01*
X148581780Y-82590421D01*
X148429063Y-82549501D01*
X148429058Y-82549500D01*
X148429057Y-82549500D01*
X148270943Y-82549500D01*
X148270942Y-82549500D01*
X148270936Y-82549501D01*
X148118219Y-82590421D01*
X148118216Y-82590422D01*
X148046576Y-82631784D01*
X147981284Y-82669480D01*
X147981283Y-82669481D01*
X147981279Y-82669484D01*
X147869484Y-82781279D01*
X147869481Y-82781283D01*
X147790422Y-82918216D01*
X147790421Y-82918219D01*
X147749501Y-83070936D01*
X147749500Y-83070944D01*
X136800500Y-83070944D01*
X136800500Y-82320944D01*
X144499500Y-82320944D01*
X144499500Y-82479055D01*
X144499501Y-82479063D01*
X144540421Y-82631780D01*
X144540422Y-82631783D01*
X144562187Y-82669480D01*
X144619480Y-82768716D01*
X144731284Y-82880520D01*
X144868216Y-82959577D01*
X144868219Y-82959578D01*
X144875396Y-82961501D01*
X145020943Y-83000500D01*
X145020944Y-83000500D01*
X145179056Y-83000500D01*
X145179057Y-83000500D01*
X145331784Y-82959577D01*
X145468716Y-82880520D01*
X145580520Y-82768716D01*
X145659577Y-82631784D01*
X145700500Y-82479057D01*
X145700500Y-82320943D01*
X145659577Y-82168216D01*
X145580520Y-82031284D01*
X145468716Y-81919480D01*
X145372464Y-81863909D01*
X145331783Y-81840422D01*
X145331780Y-81840421D01*
X145179063Y-81799501D01*
X145179058Y-81799500D01*
X145179057Y-81799500D01*
X145020943Y-81799500D01*
X145020942Y-81799500D01*
X145020936Y-81799501D01*
X144868219Y-81840421D01*
X144868216Y-81840422D01*
X144771964Y-81895993D01*
X144731284Y-81919480D01*
X144731283Y-81919481D01*
X144731279Y-81919484D01*
X144619484Y-82031279D01*
X144619481Y-82031283D01*
X144540422Y-82168216D01*
X144540421Y-82168219D01*
X144499501Y-82320936D01*
X144499500Y-82320944D01*
X136800500Y-82320944D01*
X136800500Y-81270944D01*
X164149500Y-81270944D01*
X164149500Y-81429055D01*
X164149501Y-81429063D01*
X164190421Y-81581780D01*
X164190422Y-81581783D01*
X164190423Y-81581784D01*
X164269480Y-81718716D01*
X164381284Y-81830520D01*
X164518216Y-81909577D01*
X164518219Y-81909578D01*
X164555178Y-81919481D01*
X164670943Y-81950500D01*
X164670944Y-81950500D01*
X164829056Y-81950500D01*
X164829057Y-81950500D01*
X164981784Y-81909577D01*
X165118716Y-81830520D01*
X165230520Y-81718716D01*
X165309577Y-81581784D01*
X165350500Y-81429057D01*
X165350500Y-81270943D01*
X165309577Y-81118216D01*
X165230520Y-80981284D01*
X165118716Y-80869480D01*
X165022464Y-80813909D01*
X164981783Y-80790422D01*
X164981780Y-80790421D01*
X164829063Y-80749501D01*
X164829058Y-80749500D01*
X164829057Y-80749500D01*
X164670943Y-80749500D01*
X164670942Y-80749500D01*
X164670936Y-80749501D01*
X164518219Y-80790421D01*
X164518216Y-80790422D01*
X164421964Y-80845993D01*
X164381284Y-80869480D01*
X164381283Y-80869481D01*
X164381279Y-80869484D01*
X164269484Y-80981279D01*
X164269481Y-80981283D01*
X164190422Y-81118216D01*
X164190421Y-81118219D01*
X164149501Y-81270936D01*
X164149500Y-81270944D01*
X136800500Y-81270944D01*
X136800500Y-80599338D01*
X171079500Y-80599338D01*
X171079500Y-80780661D01*
X171114873Y-80958498D01*
X171114874Y-80958501D01*
X171184263Y-81126020D01*
X171184264Y-81126022D01*
X171281097Y-81270943D01*
X171285001Y-81276785D01*
X171413215Y-81404999D01*
X171563980Y-81505737D01*
X171731500Y-81575126D01*
X171909339Y-81610500D01*
X172090661Y-81610500D01*
X172268500Y-81575126D01*
X172436020Y-81505737D01*
X172586785Y-81404999D01*
X172714999Y-81276785D01*
X172815737Y-81126020D01*
X172885126Y-80958500D01*
X172920500Y-80780661D01*
X172920500Y-80599339D01*
X172885126Y-80421500D01*
X172815737Y-80253980D01*
X172714999Y-80103215D01*
X172586785Y-79975001D01*
X172586784Y-79975000D01*
X172436022Y-79874264D01*
X172436020Y-79874263D01*
X172268501Y-79804874D01*
X172268498Y-79804873D01*
X172090661Y-79769500D01*
X171909339Y-79769500D01*
X171731501Y-79804873D01*
X171731498Y-79804874D01*
X171563979Y-79874263D01*
X171563977Y-79874264D01*
X171413215Y-79975000D01*
X171285000Y-80103215D01*
X171184264Y-80253977D01*
X171184263Y-80253979D01*
X171114874Y-80421498D01*
X171114873Y-80421501D01*
X171079500Y-80599338D01*
X136800500Y-80599338D01*
X136800500Y-78200944D01*
X164029500Y-78200944D01*
X164029500Y-78359055D01*
X164029501Y-78359063D01*
X164070421Y-78511780D01*
X164070422Y-78511783D01*
X164070423Y-78511784D01*
X164149480Y-78648716D01*
X164261284Y-78760520D01*
X164398216Y-78839577D01*
X164398219Y-78839578D01*
X164441754Y-78851243D01*
X164550943Y-78880500D01*
X164550944Y-78880500D01*
X164709056Y-78880500D01*
X164709057Y-78880500D01*
X164861784Y-78839577D01*
X164998716Y-78760520D01*
X165110520Y-78648716D01*
X165189577Y-78511784D01*
X165230500Y-78359057D01*
X165230500Y-78200943D01*
X165189577Y-78048216D01*
X165173832Y-78020944D01*
X166999500Y-78020944D01*
X166999500Y-78179055D01*
X166999501Y-78179063D01*
X167040421Y-78331780D01*
X167040422Y-78331783D01*
X167040423Y-78331784D01*
X167119480Y-78468716D01*
X167231284Y-78580520D01*
X167349404Y-78648716D01*
X167368216Y-78659577D01*
X167368219Y-78659578D01*
X167461681Y-78684621D01*
X167520943Y-78700500D01*
X167520944Y-78700500D01*
X167679056Y-78700500D01*
X167679057Y-78700500D01*
X167831784Y-78659577D01*
X167968716Y-78580520D01*
X168080520Y-78468716D01*
X168103614Y-78428715D01*
X177429500Y-78428715D01*
X177429500Y-78641284D01*
X177429501Y-78641300D01*
X177462753Y-78851240D01*
X177462753Y-78851241D01*
X177528442Y-79053410D01*
X177528446Y-79053418D01*
X177624949Y-79242817D01*
X177749897Y-79414794D01*
X177900205Y-79565102D01*
X178072182Y-79690050D01*
X178072184Y-79690051D01*
X178261588Y-79786557D01*
X178463757Y-79852246D01*
X178552244Y-79866261D01*
X178673699Y-79885498D01*
X178673705Y-79885498D01*
X178673713Y-79885500D01*
X178673715Y-79885500D01*
X178886285Y-79885500D01*
X178886287Y-79885500D01*
X179096243Y-79852246D01*
X179298412Y-79786557D01*
X179487816Y-79690051D01*
X179659792Y-79565104D01*
X179810104Y-79414792D01*
X179935051Y-79242816D01*
X180031557Y-79053412D01*
X180097246Y-78851243D01*
X180130500Y-78641287D01*
X180130500Y-78428713D01*
X180125161Y-78395007D01*
X180097246Y-78218759D01*
X180097246Y-78218758D01*
X180091456Y-78200936D01*
X180031557Y-78016588D01*
X179935051Y-77827184D01*
X179865375Y-77731283D01*
X179810102Y-77655205D01*
X179659794Y-77504897D01*
X179487817Y-77379949D01*
X179298418Y-77283446D01*
X179298410Y-77283442D01*
X179096241Y-77217753D01*
X178886300Y-77184501D01*
X178886288Y-77184500D01*
X178886287Y-77184500D01*
X178673713Y-77184500D01*
X178673711Y-77184500D01*
X178673699Y-77184501D01*
X178463759Y-77217753D01*
X178463758Y-77217753D01*
X178261589Y-77283442D01*
X178261581Y-77283446D01*
X178072182Y-77379949D01*
X177900205Y-77504897D01*
X177749897Y-77655205D01*
X177624949Y-77827182D01*
X177528446Y-78016581D01*
X177528442Y-78016589D01*
X177462753Y-78218758D01*
X177462753Y-78218759D01*
X177429501Y-78428699D01*
X177429500Y-78428715D01*
X168103614Y-78428715D01*
X168159577Y-78331784D01*
X168200500Y-78179057D01*
X168200500Y-78020943D01*
X168159577Y-77868216D01*
X168080520Y-77731284D01*
X167968716Y-77619480D01*
X167872464Y-77563909D01*
X167831783Y-77540422D01*
X167831780Y-77540421D01*
X167679063Y-77499501D01*
X167679058Y-77499500D01*
X167679057Y-77499500D01*
X167520943Y-77499500D01*
X167520942Y-77499500D01*
X167520936Y-77499501D01*
X167368219Y-77540421D01*
X167368216Y-77540422D01*
X167271964Y-77595993D01*
X167231284Y-77619480D01*
X167231283Y-77619481D01*
X167231279Y-77619484D01*
X167119484Y-77731279D01*
X167119481Y-77731283D01*
X167040422Y-77868216D01*
X167040421Y-77868219D01*
X166999501Y-78020936D01*
X166999500Y-78020944D01*
X165173832Y-78020944D01*
X165110520Y-77911284D01*
X164998716Y-77799480D01*
X164880596Y-77731284D01*
X164861783Y-77720422D01*
X164861780Y-77720421D01*
X164709063Y-77679501D01*
X164709058Y-77679500D01*
X164709057Y-77679500D01*
X164550943Y-77679500D01*
X164550942Y-77679500D01*
X164550936Y-77679501D01*
X164398219Y-77720421D01*
X164398216Y-77720422D01*
X164301964Y-77775993D01*
X164261284Y-77799480D01*
X164261283Y-77799481D01*
X164261279Y-77799484D01*
X164149484Y-77911279D01*
X164149481Y-77911283D01*
X164070422Y-78048216D01*
X164070421Y-78048219D01*
X164029501Y-78200936D01*
X164029500Y-78200944D01*
X136800500Y-78200944D01*
X136800500Y-74331496D01*
X137499500Y-74331496D01*
X137499500Y-74668504D01*
X137507944Y-74743443D01*
X137537231Y-75003382D01*
X137537234Y-75003399D01*
X137612222Y-75331947D01*
X137612223Y-75331953D01*
X137723526Y-75650040D01*
X137723530Y-75650048D01*
X137723531Y-75650051D01*
X137824885Y-75860515D01*
X137869754Y-75953686D01*
X138049050Y-76239033D01*
X138049062Y-76239050D01*
X138259164Y-76502510D01*
X138259169Y-76502516D01*
X138259175Y-76502523D01*
X138497477Y-76740825D01*
X138497484Y-76740831D01*
X138497489Y-76740835D01*
X138760949Y-76950937D01*
X138760955Y-76950941D01*
X138760961Y-76950946D01*
X139046314Y-77130246D01*
X139349949Y-77276469D01*
X139349955Y-77276471D01*
X139349959Y-77276473D01*
X139547222Y-77345498D01*
X139668046Y-77387776D01*
X139996606Y-77462767D01*
X140331496Y-77500500D01*
X140331499Y-77500500D01*
X140668501Y-77500500D01*
X140668504Y-77500500D01*
X141003394Y-77462767D01*
X141331954Y-77387776D01*
X141630112Y-77283446D01*
X141650040Y-77276473D01*
X141650041Y-77276472D01*
X141650051Y-77276469D01*
X141953686Y-77130246D01*
X142239039Y-76950946D01*
X142502523Y-76740825D01*
X142740825Y-76502523D01*
X142950946Y-76239039D01*
X143130246Y-75953686D01*
X143276469Y-75650051D01*
X143293472Y-75601458D01*
X144554612Y-75601458D01*
X144554612Y-75798541D01*
X144593060Y-75991833D01*
X144593061Y-75991835D01*
X144668480Y-76173914D01*
X144719652Y-76250498D01*
X144752718Y-76299986D01*
X144777973Y-76337782D01*
X144917330Y-76477139D01*
X145081198Y-76586632D01*
X145263277Y-76662051D01*
X145456571Y-76700500D01*
X145653653Y-76700500D01*
X145846947Y-76662051D01*
X146029026Y-76586632D01*
X146192894Y-76477139D01*
X146194381Y-76475651D01*
X146195037Y-76475379D01*
X146195266Y-76475192D01*
X146195322Y-76475261D01*
X146238571Y-76457340D01*
X146282768Y-76475640D01*
X146297907Y-76500180D01*
X146320752Y-76569119D01*
X146412794Y-76718343D01*
X146536768Y-76842317D01*
X146685990Y-76934358D01*
X146852420Y-76989507D01*
X146955130Y-76999999D01*
X147305112Y-76999999D01*
X147305112Y-76015686D01*
X147309506Y-76020080D01*
X147400718Y-76072741D01*
X147502451Y-76100000D01*
X147607773Y-76100000D01*
X147709506Y-76072741D01*
X147800718Y-76020080D01*
X147805112Y-76015686D01*
X147805112Y-76999999D01*
X148155088Y-76999999D01*
X148155099Y-76999998D01*
X148257799Y-76989507D01*
X148257806Y-76989506D01*
X148424233Y-76934358D01*
X148573455Y-76842317D01*
X148697429Y-76718343D01*
X148789470Y-76569121D01*
X148844619Y-76402691D01*
X148855111Y-76299986D01*
X148855112Y-76299977D01*
X148855112Y-75950000D01*
X147870798Y-75950000D01*
X147875192Y-75945606D01*
X147927853Y-75854394D01*
X147955112Y-75752661D01*
X147955112Y-75647339D01*
X147927853Y-75545606D01*
X147875192Y-75454394D01*
X147870798Y-75450000D01*
X148855111Y-75450000D01*
X148855111Y-75300944D01*
X154999500Y-75300944D01*
X154999500Y-75459055D01*
X154999501Y-75459063D01*
X155040421Y-75611780D01*
X155040422Y-75611783D01*
X155062510Y-75650040D01*
X155119480Y-75748716D01*
X155231284Y-75860520D01*
X155368216Y-75939577D01*
X155368219Y-75939578D01*
X155461681Y-75964621D01*
X155520943Y-75980500D01*
X155520944Y-75980500D01*
X155679056Y-75980500D01*
X155679057Y-75980500D01*
X155831784Y-75939577D01*
X155968716Y-75860520D01*
X156080520Y-75748716D01*
X156159577Y-75611784D01*
X156170520Y-75570944D01*
X160999500Y-75570944D01*
X160999500Y-75729055D01*
X160999501Y-75729063D01*
X161040421Y-75881780D01*
X161040422Y-75881783D01*
X161063909Y-75922464D01*
X161119480Y-76018716D01*
X161231284Y-76130520D01*
X161368216Y-76209577D01*
X161368219Y-76209578D01*
X161461681Y-76234621D01*
X161520943Y-76250500D01*
X161520944Y-76250500D01*
X161679056Y-76250500D01*
X161679057Y-76250500D01*
X161831784Y-76209577D01*
X161968716Y-76130520D01*
X162080520Y-76018716D01*
X162155575Y-75888715D01*
X185049500Y-75888715D01*
X185049500Y-76101284D01*
X185049501Y-76101300D01*
X185082753Y-76311240D01*
X185082753Y-76311241D01*
X185148442Y-76513410D01*
X185148446Y-76513418D01*
X185244949Y-76702817D01*
X185369897Y-76874794D01*
X185520205Y-77025102D01*
X185692182Y-77150050D01*
X185692184Y-77150051D01*
X185881588Y-77246557D01*
X186083757Y-77312246D01*
X186172244Y-77326261D01*
X186293699Y-77345498D01*
X186293705Y-77345498D01*
X186293713Y-77345500D01*
X186293715Y-77345500D01*
X186506285Y-77345500D01*
X186506287Y-77345500D01*
X186716243Y-77312246D01*
X186918412Y-77246557D01*
X187107816Y-77150051D01*
X187279792Y-77025104D01*
X187430104Y-76874792D01*
X187555051Y-76702816D01*
X187651557Y-76513412D01*
X187717246Y-76311243D01*
X187750500Y-76101287D01*
X187750500Y-75888713D01*
X187749402Y-75881783D01*
X187717246Y-75678759D01*
X187717246Y-75678758D01*
X187707919Y-75650051D01*
X187651557Y-75476588D01*
X187555051Y-75287184D01*
X187550764Y-75281284D01*
X187430102Y-75115205D01*
X187279794Y-74964897D01*
X187107817Y-74839949D01*
X186918418Y-74743446D01*
X186918410Y-74743442D01*
X186716241Y-74677753D01*
X186506300Y-74644501D01*
X186506288Y-74644500D01*
X186506287Y-74644500D01*
X186293713Y-74644500D01*
X186293711Y-74644500D01*
X186293699Y-74644501D01*
X186083759Y-74677753D01*
X186083758Y-74677753D01*
X185881589Y-74743442D01*
X185881581Y-74743446D01*
X185692182Y-74839949D01*
X185520205Y-74964897D01*
X185369897Y-75115205D01*
X185244949Y-75287182D01*
X185148446Y-75476581D01*
X185148442Y-75476589D01*
X185082753Y-75678758D01*
X185082753Y-75678759D01*
X185049501Y-75888699D01*
X185049500Y-75888715D01*
X162155575Y-75888715D01*
X162159577Y-75881784D01*
X162200500Y-75729057D01*
X162200500Y-75570943D01*
X162169271Y-75454394D01*
X162159578Y-75418219D01*
X162159577Y-75418216D01*
X162137467Y-75379920D01*
X162080520Y-75281284D01*
X161968716Y-75169480D01*
X161848393Y-75100012D01*
X161831783Y-75090422D01*
X161831780Y-75090421D01*
X161679063Y-75049501D01*
X161679058Y-75049500D01*
X161679057Y-75049500D01*
X161520943Y-75049500D01*
X161520942Y-75049500D01*
X161520936Y-75049501D01*
X161368219Y-75090421D01*
X161368216Y-75090422D01*
X161271964Y-75145993D01*
X161231284Y-75169480D01*
X161231283Y-75169481D01*
X161231279Y-75169484D01*
X161119484Y-75281279D01*
X161119481Y-75281283D01*
X161119480Y-75281284D01*
X161095993Y-75321964D01*
X161040422Y-75418216D01*
X161040421Y-75418219D01*
X160999501Y-75570936D01*
X160999500Y-75570944D01*
X156170520Y-75570944D01*
X156170522Y-75570936D01*
X156175953Y-75550670D01*
X156175953Y-75550669D01*
X156195802Y-75476589D01*
X156200500Y-75459057D01*
X156200500Y-75300943D01*
X156159577Y-75148216D01*
X156080520Y-75011284D01*
X155968716Y-74899480D01*
X155865604Y-74839949D01*
X155831783Y-74820422D01*
X155831780Y-74820421D01*
X155679063Y-74779501D01*
X155679058Y-74779500D01*
X155679057Y-74779500D01*
X155520943Y-74779500D01*
X155520942Y-74779500D01*
X155520936Y-74779501D01*
X155368219Y-74820421D01*
X155368216Y-74820422D01*
X155271964Y-74875993D01*
X155231284Y-74899480D01*
X155231283Y-74899481D01*
X155231279Y-74899484D01*
X155119484Y-75011279D01*
X155119481Y-75011283D01*
X155040422Y-75148216D01*
X155040421Y-75148219D01*
X154999501Y-75300936D01*
X154999500Y-75300944D01*
X148855111Y-75300944D01*
X148855111Y-75100024D01*
X148855110Y-75100012D01*
X148844619Y-74997312D01*
X148844618Y-74997305D01*
X148789470Y-74830878D01*
X148697429Y-74681656D01*
X148573455Y-74557682D01*
X148424233Y-74465641D01*
X148257803Y-74410492D01*
X148155098Y-74400000D01*
X147805112Y-74400000D01*
X147805112Y-75384314D01*
X147800718Y-75379920D01*
X147709506Y-75327259D01*
X147607773Y-75300000D01*
X147502451Y-75300000D01*
X147400718Y-75327259D01*
X147309506Y-75379920D01*
X147305112Y-75384314D01*
X147305112Y-74400000D01*
X146955136Y-74400000D01*
X146955124Y-74400001D01*
X146852424Y-74410492D01*
X146852417Y-74410493D01*
X146685990Y-74465641D01*
X146536768Y-74557682D01*
X146412794Y-74681656D01*
X146320752Y-74830880D01*
X146297907Y-74899819D01*
X146266629Y-74936012D01*
X146218920Y-74939486D01*
X146194386Y-74924353D01*
X146192893Y-74922860D01*
X146068807Y-74839949D01*
X146029026Y-74813368D01*
X145860211Y-74743443D01*
X145846945Y-74737948D01*
X145653653Y-74699500D01*
X145456571Y-74699500D01*
X145263278Y-74737948D01*
X145081196Y-74813369D01*
X144917330Y-74922860D01*
X144777972Y-75062218D01*
X144668481Y-75226084D01*
X144593060Y-75408166D01*
X144554612Y-75601458D01*
X143293472Y-75601458D01*
X143387776Y-75331954D01*
X143462767Y-75003394D01*
X143500500Y-74668504D01*
X143500500Y-74331496D01*
X143462767Y-73996606D01*
X143399849Y-73720944D01*
X167249500Y-73720944D01*
X167249500Y-73879055D01*
X167249501Y-73879063D01*
X167290421Y-74031780D01*
X167290422Y-74031783D01*
X167305466Y-74057839D01*
X167369480Y-74168716D01*
X167481284Y-74280520D01*
X167618216Y-74359577D01*
X167618219Y-74359578D01*
X167658981Y-74370500D01*
X167770943Y-74400500D01*
X167770944Y-74400500D01*
X167929056Y-74400500D01*
X167929057Y-74400500D01*
X168081784Y-74359577D01*
X168218716Y-74280520D01*
X168330520Y-74168716D01*
X168394535Y-74057837D01*
X168432484Y-74028719D01*
X168479910Y-74034962D01*
X168502784Y-74057836D01*
X168549480Y-74138716D01*
X168661284Y-74250520D01*
X168798216Y-74329577D01*
X168798219Y-74329578D01*
X168891681Y-74354621D01*
X168950943Y-74370500D01*
X168950944Y-74370500D01*
X169109056Y-74370500D01*
X169109057Y-74370500D01*
X169261784Y-74329577D01*
X169398716Y-74250520D01*
X169510520Y-74138716D01*
X169589577Y-74001784D01*
X169630500Y-73849057D01*
X169630500Y-73690943D01*
X169597616Y-73568219D01*
X169589578Y-73538219D01*
X169589577Y-73538216D01*
X169587741Y-73535036D01*
X169510520Y-73401284D01*
X169398716Y-73289480D01*
X169302464Y-73233909D01*
X169261783Y-73210422D01*
X169261780Y-73210421D01*
X169109063Y-73169501D01*
X169109058Y-73169500D01*
X169109057Y-73169500D01*
X168950943Y-73169500D01*
X168950942Y-73169500D01*
X168950936Y-73169501D01*
X168798219Y-73210421D01*
X168798216Y-73210422D01*
X168701964Y-73265993D01*
X168661284Y-73289480D01*
X168661283Y-73289481D01*
X168661279Y-73289484D01*
X168549484Y-73401279D01*
X168549477Y-73401288D01*
X168485465Y-73512160D01*
X168447515Y-73541280D01*
X168400089Y-73535036D01*
X168377215Y-73512163D01*
X168330520Y-73431284D01*
X168218716Y-73319480D01*
X168122464Y-73263909D01*
X168081783Y-73240422D01*
X168081780Y-73240421D01*
X167929063Y-73199501D01*
X167929058Y-73199500D01*
X167929057Y-73199500D01*
X167770943Y-73199500D01*
X167770942Y-73199500D01*
X167770936Y-73199501D01*
X167618219Y-73240421D01*
X167618216Y-73240422D01*
X167533246Y-73289480D01*
X167481284Y-73319480D01*
X167481283Y-73319481D01*
X167481279Y-73319484D01*
X167369484Y-73431279D01*
X167369481Y-73431283D01*
X167290422Y-73568216D01*
X167290421Y-73568219D01*
X167249501Y-73720936D01*
X167249500Y-73720944D01*
X143399849Y-73720944D01*
X143399849Y-73720943D01*
X143387776Y-73668048D01*
X143387776Y-73668046D01*
X143276473Y-73349959D01*
X143276471Y-73349955D01*
X143276469Y-73349949D01*
X143130246Y-73046314D01*
X142988636Y-72820944D01*
X160399500Y-72820944D01*
X160399500Y-72979055D01*
X160399501Y-72979063D01*
X160440421Y-73131780D01*
X160440422Y-73131783D01*
X160440423Y-73131784D01*
X160519480Y-73268716D01*
X160631284Y-73380520D01*
X160768216Y-73459577D01*
X160768219Y-73459578D01*
X160861681Y-73484621D01*
X160920943Y-73500500D01*
X160920944Y-73500500D01*
X161079056Y-73500500D01*
X161079057Y-73500500D01*
X161231784Y-73459577D01*
X161368716Y-73380520D01*
X161480520Y-73268716D01*
X161559577Y-73131784D01*
X161600500Y-72979057D01*
X161600500Y-72820943D01*
X161559577Y-72668216D01*
X161480520Y-72531284D01*
X161368716Y-72419480D01*
X161272464Y-72363909D01*
X161231783Y-72340422D01*
X161231780Y-72340421D01*
X161079063Y-72299501D01*
X161079058Y-72299500D01*
X161079057Y-72299500D01*
X160920943Y-72299500D01*
X160920942Y-72299500D01*
X160920936Y-72299501D01*
X160768219Y-72340421D01*
X160768216Y-72340423D01*
X160675452Y-72393979D01*
X160675442Y-72393985D01*
X160631284Y-72419480D01*
X160619981Y-72430782D01*
X160619976Y-72430786D01*
X160519484Y-72531279D01*
X160519481Y-72531283D01*
X160440422Y-72668216D01*
X160440421Y-72668219D01*
X160399501Y-72820936D01*
X160399500Y-72820944D01*
X142988636Y-72820944D01*
X142950946Y-72760961D01*
X142950941Y-72760955D01*
X142950937Y-72760949D01*
X142740835Y-72497489D01*
X142740831Y-72497484D01*
X142740825Y-72497477D01*
X142502523Y-72259175D01*
X142502516Y-72259169D01*
X142502510Y-72259164D01*
X142239050Y-72049062D01*
X142239033Y-72049050D01*
X141953686Y-71869754D01*
X141650051Y-71723531D01*
X141650048Y-71723530D01*
X141650040Y-71723526D01*
X141331953Y-71612223D01*
X141331947Y-71612222D01*
X141003399Y-71537234D01*
X141003396Y-71537233D01*
X141003394Y-71537233D01*
X141003392Y-71537232D01*
X141003382Y-71537231D01*
X140783310Y-71512435D01*
X140668504Y-71499500D01*
X140331496Y-71499500D01*
X140228463Y-71511108D01*
X139996617Y-71537231D01*
X139996600Y-71537234D01*
X139668052Y-71612222D01*
X139668046Y-71612223D01*
X139349959Y-71723526D01*
X139046313Y-71869754D01*
X138760966Y-72049050D01*
X138760949Y-72049062D01*
X138497489Y-72259164D01*
X138497469Y-72259182D01*
X138259182Y-72497469D01*
X138259164Y-72497489D01*
X138049062Y-72760949D01*
X138049050Y-72760966D01*
X137869754Y-73046313D01*
X137723526Y-73349959D01*
X137612223Y-73668046D01*
X137612222Y-73668052D01*
X137537234Y-73996600D01*
X137537231Y-73996617D01*
X137517841Y-74168716D01*
X137499500Y-74331496D01*
X136800500Y-74331496D01*
X136800500Y-71391383D01*
X144149500Y-71391383D01*
X144149500Y-71578616D01*
X144186026Y-71762249D01*
X144186027Y-71762251D01*
X144257678Y-71935231D01*
X144361698Y-72090908D01*
X144494092Y-72223302D01*
X144649769Y-72327322D01*
X144822749Y-72398973D01*
X145006384Y-72435500D01*
X145193616Y-72435500D01*
X145377251Y-72398973D01*
X145550231Y-72327322D01*
X145705908Y-72223302D01*
X145838302Y-72090908D01*
X145942322Y-71935231D01*
X146013973Y-71762251D01*
X146050500Y-71578616D01*
X146050500Y-71391384D01*
X146050500Y-71391383D01*
X147149500Y-71391383D01*
X147149500Y-71578616D01*
X147186026Y-71762249D01*
X147186027Y-71762251D01*
X147257678Y-71935231D01*
X147361698Y-72090908D01*
X147494092Y-72223302D01*
X147649769Y-72327322D01*
X147822749Y-72398973D01*
X148006384Y-72435500D01*
X148193616Y-72435500D01*
X148377251Y-72398973D01*
X148550231Y-72327322D01*
X148705908Y-72223302D01*
X148838302Y-72090908D01*
X148942322Y-71935231D01*
X149013973Y-71762251D01*
X149050500Y-71578616D01*
X149050500Y-71391384D01*
X149050500Y-71391383D01*
X150149500Y-71391383D01*
X150149500Y-71578616D01*
X150186026Y-71762249D01*
X150186027Y-71762251D01*
X150257678Y-71935231D01*
X150361698Y-72090908D01*
X150494092Y-72223302D01*
X150649769Y-72327322D01*
X150822749Y-72398973D01*
X151006384Y-72435500D01*
X151193616Y-72435500D01*
X151377251Y-72398973D01*
X151550231Y-72327322D01*
X151705908Y-72223302D01*
X151838302Y-72090908D01*
X151942322Y-71935231D01*
X152013973Y-71762251D01*
X152050500Y-71578616D01*
X152050500Y-71391384D01*
X152050500Y-71391383D01*
X153149500Y-71391383D01*
X153149500Y-71578616D01*
X153186026Y-71762249D01*
X153186027Y-71762251D01*
X153257678Y-71935231D01*
X153361698Y-72090908D01*
X153494092Y-72223302D01*
X153649769Y-72327322D01*
X153822749Y-72398973D01*
X154006384Y-72435500D01*
X154193616Y-72435500D01*
X154377251Y-72398973D01*
X154550231Y-72327322D01*
X154705908Y-72223302D01*
X154838302Y-72090908D01*
X154942322Y-71935231D01*
X155013973Y-71762251D01*
X155050500Y-71578616D01*
X155050500Y-71391384D01*
X155050500Y-71391383D01*
X156149500Y-71391383D01*
X156149500Y-71578616D01*
X156186026Y-71762249D01*
X156186027Y-71762251D01*
X156257678Y-71935231D01*
X156361698Y-72090908D01*
X156494092Y-72223302D01*
X156649769Y-72327322D01*
X156822749Y-72398973D01*
X157006384Y-72435500D01*
X157193616Y-72435500D01*
X157377251Y-72398973D01*
X157550231Y-72327322D01*
X157705908Y-72223302D01*
X157838302Y-72090908D01*
X157942322Y-71935231D01*
X158013973Y-71762251D01*
X158050500Y-71578616D01*
X158050500Y-71391384D01*
X158050500Y-71391383D01*
X159149500Y-71391383D01*
X159149500Y-71578616D01*
X159186026Y-71762249D01*
X159186027Y-71762251D01*
X159257678Y-71935231D01*
X159361698Y-72090908D01*
X159494092Y-72223302D01*
X159649769Y-72327322D01*
X159822749Y-72398973D01*
X160006384Y-72435500D01*
X160193616Y-72435500D01*
X160377251Y-72398973D01*
X160550231Y-72327322D01*
X160705908Y-72223302D01*
X160838302Y-72090908D01*
X160942322Y-71935231D01*
X161013973Y-71762251D01*
X161050500Y-71578616D01*
X161050500Y-71391384D01*
X161050500Y-71391383D01*
X168149500Y-71391383D01*
X168149500Y-71578616D01*
X168186026Y-71762249D01*
X168186027Y-71762251D01*
X168257678Y-71935231D01*
X168361698Y-72090908D01*
X168494092Y-72223302D01*
X168649769Y-72327322D01*
X168822749Y-72398973D01*
X169006384Y-72435500D01*
X169193616Y-72435500D01*
X169377251Y-72398973D01*
X169550231Y-72327322D01*
X169705908Y-72223302D01*
X169838302Y-72090908D01*
X169942322Y-71935231D01*
X170013973Y-71762251D01*
X170050500Y-71578616D01*
X170050500Y-71391384D01*
X170050500Y-71391383D01*
X171149500Y-71391383D01*
X171149500Y-71578616D01*
X171186026Y-71762249D01*
X171186027Y-71762251D01*
X171257678Y-71935231D01*
X171361698Y-72090908D01*
X171494092Y-72223302D01*
X171649769Y-72327322D01*
X171822749Y-72398973D01*
X172006384Y-72435500D01*
X172193616Y-72435500D01*
X172377251Y-72398973D01*
X172550231Y-72327322D01*
X172705908Y-72223302D01*
X172838302Y-72090908D01*
X172942322Y-71935231D01*
X173013973Y-71762251D01*
X173050500Y-71578616D01*
X173050500Y-71540624D01*
X173068806Y-71496430D01*
X173113000Y-71478124D01*
X173157194Y-71496430D01*
X173161284Y-71500520D01*
X173298216Y-71579577D01*
X173298219Y-71579578D01*
X173391681Y-71604621D01*
X173450943Y-71620500D01*
X173450944Y-71620500D01*
X173609056Y-71620500D01*
X173609057Y-71620500D01*
X173761784Y-71579577D01*
X173898716Y-71500520D01*
X174010520Y-71388716D01*
X174034082Y-71347903D01*
X174072032Y-71318785D01*
X174119458Y-71325028D01*
X174148578Y-71362979D01*
X174149406Y-71388289D01*
X174149801Y-71388328D01*
X174149506Y-71391321D01*
X174149507Y-71391346D01*
X174149500Y-71391378D01*
X174149500Y-71578616D01*
X174186026Y-71762249D01*
X174186027Y-71762251D01*
X174257678Y-71935231D01*
X174361698Y-72090908D01*
X174494092Y-72223302D01*
X174649769Y-72327322D01*
X174822749Y-72398973D01*
X175006384Y-72435500D01*
X175193616Y-72435500D01*
X175377251Y-72398973D01*
X175550231Y-72327322D01*
X175705908Y-72223302D01*
X175838302Y-72090908D01*
X175942322Y-71935231D01*
X176013973Y-71762251D01*
X176050500Y-71578616D01*
X176050500Y-71391384D01*
X176050500Y-71391383D01*
X177149500Y-71391383D01*
X177149500Y-71578616D01*
X177186026Y-71762249D01*
X177186027Y-71762251D01*
X177257678Y-71935231D01*
X177361698Y-72090908D01*
X177494092Y-72223302D01*
X177649769Y-72327322D01*
X177822749Y-72398973D01*
X178006384Y-72435500D01*
X178193616Y-72435500D01*
X178377251Y-72398973D01*
X178550231Y-72327322D01*
X178705908Y-72223302D01*
X178838302Y-72090908D01*
X178942322Y-71935231D01*
X179013973Y-71762251D01*
X179050500Y-71578616D01*
X179050500Y-71391384D01*
X179050500Y-71391383D01*
X180149500Y-71391383D01*
X180149500Y-71578616D01*
X180186026Y-71762249D01*
X180186027Y-71762251D01*
X180257678Y-71935231D01*
X180361698Y-72090908D01*
X180494092Y-72223302D01*
X180649769Y-72327322D01*
X180822749Y-72398973D01*
X181006384Y-72435500D01*
X181193616Y-72435500D01*
X181377251Y-72398973D01*
X181550231Y-72327322D01*
X181705908Y-72223302D01*
X181838302Y-72090908D01*
X181942322Y-71935231D01*
X182013973Y-71762251D01*
X182050500Y-71578616D01*
X182050500Y-71391384D01*
X182050500Y-71391383D01*
X183149500Y-71391383D01*
X183149500Y-71578616D01*
X183186026Y-71762249D01*
X183186027Y-71762251D01*
X183257678Y-71935231D01*
X183361698Y-72090908D01*
X183494092Y-72223302D01*
X183649769Y-72327322D01*
X183822749Y-72398973D01*
X184006384Y-72435500D01*
X184193616Y-72435500D01*
X184377251Y-72398973D01*
X184550231Y-72327322D01*
X184705908Y-72223302D01*
X184838302Y-72090908D01*
X184942322Y-71935231D01*
X185013973Y-71762251D01*
X185050500Y-71578616D01*
X185050500Y-71391384D01*
X185013973Y-71207749D01*
X184942322Y-71034769D01*
X184879629Y-70940943D01*
X184838302Y-70879092D01*
X184705907Y-70746697D01*
X184550233Y-70642679D01*
X184550231Y-70642678D01*
X184377249Y-70571026D01*
X184193616Y-70534500D01*
X184006384Y-70534500D01*
X183822750Y-70571026D01*
X183649768Y-70642678D01*
X183649766Y-70642679D01*
X183494092Y-70746697D01*
X183361697Y-70879092D01*
X183257679Y-71034766D01*
X183257678Y-71034768D01*
X183186026Y-71207750D01*
X183149500Y-71391383D01*
X182050500Y-71391383D01*
X182013973Y-71207749D01*
X181942322Y-71034769D01*
X181879629Y-70940943D01*
X181838302Y-70879092D01*
X181705907Y-70746697D01*
X181550233Y-70642679D01*
X181550231Y-70642678D01*
X181377249Y-70571026D01*
X181193616Y-70534500D01*
X181006384Y-70534500D01*
X180822750Y-70571026D01*
X180649768Y-70642678D01*
X180649766Y-70642679D01*
X180494092Y-70746697D01*
X180361697Y-70879092D01*
X180257679Y-71034766D01*
X180257678Y-71034768D01*
X180186026Y-71207750D01*
X180149500Y-71391383D01*
X179050500Y-71391383D01*
X179013973Y-71207749D01*
X178942322Y-71034769D01*
X178879629Y-70940943D01*
X178838302Y-70879092D01*
X178705907Y-70746697D01*
X178550233Y-70642679D01*
X178550231Y-70642678D01*
X178377249Y-70571026D01*
X178193616Y-70534500D01*
X178006384Y-70534500D01*
X177822750Y-70571026D01*
X177649768Y-70642678D01*
X177649766Y-70642679D01*
X177494092Y-70746697D01*
X177361697Y-70879092D01*
X177257679Y-71034766D01*
X177257678Y-71034768D01*
X177186026Y-71207750D01*
X177149500Y-71391383D01*
X176050500Y-71391383D01*
X176013973Y-71207749D01*
X175942322Y-71034769D01*
X175879629Y-70940943D01*
X175838302Y-70879092D01*
X175705907Y-70746697D01*
X175550233Y-70642679D01*
X175550231Y-70642678D01*
X175377249Y-70571026D01*
X175193616Y-70534500D01*
X175006384Y-70534500D01*
X174822750Y-70571026D01*
X174649768Y-70642678D01*
X174649766Y-70642679D01*
X174494092Y-70746697D01*
X174361697Y-70879092D01*
X174257679Y-71034766D01*
X174257678Y-71034769D01*
X174250742Y-71051514D01*
X174216917Y-71085339D01*
X174169082Y-71085338D01*
X174135257Y-71051513D01*
X174130500Y-71027596D01*
X174130500Y-70940944D01*
X174130498Y-70940936D01*
X174089578Y-70788219D01*
X174089577Y-70788216D01*
X174010520Y-70651284D01*
X173898716Y-70539480D01*
X173802464Y-70483909D01*
X173761783Y-70460422D01*
X173761780Y-70460421D01*
X173609063Y-70419501D01*
X173609058Y-70419500D01*
X173609057Y-70419500D01*
X173450943Y-70419500D01*
X173450942Y-70419500D01*
X173450936Y-70419501D01*
X173298219Y-70460421D01*
X173298216Y-70460422D01*
X173201964Y-70515993D01*
X173161284Y-70539480D01*
X173161283Y-70539481D01*
X173161279Y-70539484D01*
X173049484Y-70651279D01*
X173049481Y-70651283D01*
X172970422Y-70788216D01*
X172970422Y-70788218D01*
X172950926Y-70860976D01*
X172921805Y-70898926D01*
X172874379Y-70905169D01*
X172840742Y-70881063D01*
X172840251Y-70881467D01*
X172838745Y-70879633D01*
X172838588Y-70879520D01*
X172838303Y-70879093D01*
X172705907Y-70746697D01*
X172550233Y-70642679D01*
X172550231Y-70642678D01*
X172377249Y-70571026D01*
X172193616Y-70534500D01*
X172006384Y-70534500D01*
X171822750Y-70571026D01*
X171649768Y-70642678D01*
X171649766Y-70642679D01*
X171494092Y-70746697D01*
X171361697Y-70879092D01*
X171257679Y-71034766D01*
X171257678Y-71034768D01*
X171186026Y-71207750D01*
X171149500Y-71391383D01*
X170050500Y-71391383D01*
X170013973Y-71207749D01*
X169942322Y-71034769D01*
X169879629Y-70940943D01*
X169838302Y-70879092D01*
X169705907Y-70746697D01*
X169550233Y-70642679D01*
X169550231Y-70642678D01*
X169377249Y-70571026D01*
X169193616Y-70534500D01*
X169006384Y-70534500D01*
X168822750Y-70571026D01*
X168649768Y-70642678D01*
X168649766Y-70642679D01*
X168494092Y-70746697D01*
X168361697Y-70879092D01*
X168257679Y-71034766D01*
X168257678Y-71034768D01*
X168186026Y-71207750D01*
X168149500Y-71391383D01*
X161050500Y-71391383D01*
X161013973Y-71207749D01*
X160942322Y-71034769D01*
X160879629Y-70940943D01*
X160838302Y-70879092D01*
X160705907Y-70746697D01*
X160550233Y-70642679D01*
X160550231Y-70642678D01*
X160377249Y-70571026D01*
X160193616Y-70534500D01*
X160006384Y-70534500D01*
X159822750Y-70571026D01*
X159649768Y-70642678D01*
X159649766Y-70642679D01*
X159494092Y-70746697D01*
X159361697Y-70879092D01*
X159257679Y-71034766D01*
X159257678Y-71034768D01*
X159186026Y-71207750D01*
X159149500Y-71391383D01*
X158050500Y-71391383D01*
X158013973Y-71207749D01*
X157942322Y-71034769D01*
X157879629Y-70940943D01*
X157838302Y-70879092D01*
X157705907Y-70746697D01*
X157550233Y-70642679D01*
X157550231Y-70642678D01*
X157377249Y-70571026D01*
X157193616Y-70534500D01*
X157006384Y-70534500D01*
X156822750Y-70571026D01*
X156649768Y-70642678D01*
X156649766Y-70642679D01*
X156494092Y-70746697D01*
X156361697Y-70879092D01*
X156257679Y-71034766D01*
X156257678Y-71034768D01*
X156186026Y-71207750D01*
X156149500Y-71391383D01*
X155050500Y-71391383D01*
X155013973Y-71207749D01*
X154942322Y-71034769D01*
X154879629Y-70940943D01*
X154838302Y-70879092D01*
X154705907Y-70746697D01*
X154550233Y-70642679D01*
X154550231Y-70642678D01*
X154377249Y-70571026D01*
X154193616Y-70534500D01*
X154006384Y-70534500D01*
X153822750Y-70571026D01*
X153649768Y-70642678D01*
X153649766Y-70642679D01*
X153494092Y-70746697D01*
X153361697Y-70879092D01*
X153257679Y-71034766D01*
X153257678Y-71034768D01*
X153186026Y-71207750D01*
X153149500Y-71391383D01*
X152050500Y-71391383D01*
X152013973Y-71207749D01*
X151942322Y-71034769D01*
X151879629Y-70940943D01*
X151838302Y-70879092D01*
X151705907Y-70746697D01*
X151550233Y-70642679D01*
X151550231Y-70642678D01*
X151377249Y-70571026D01*
X151193616Y-70534500D01*
X151006384Y-70534500D01*
X150822750Y-70571026D01*
X150649768Y-70642678D01*
X150649766Y-70642679D01*
X150494092Y-70746697D01*
X150361697Y-70879092D01*
X150257679Y-71034766D01*
X150257678Y-71034768D01*
X150186026Y-71207750D01*
X150149500Y-71391383D01*
X149050500Y-71391383D01*
X149013973Y-71207749D01*
X148942322Y-71034769D01*
X148879629Y-70940943D01*
X148838302Y-70879092D01*
X148705907Y-70746697D01*
X148550233Y-70642679D01*
X148550231Y-70642678D01*
X148377249Y-70571026D01*
X148193616Y-70534500D01*
X148006384Y-70534500D01*
X147822750Y-70571026D01*
X147649768Y-70642678D01*
X147649766Y-70642679D01*
X147494092Y-70746697D01*
X147361697Y-70879092D01*
X147257679Y-71034766D01*
X147257678Y-71034768D01*
X147186026Y-71207750D01*
X147149500Y-71391383D01*
X146050500Y-71391383D01*
X146013973Y-71207749D01*
X145942322Y-71034769D01*
X145879629Y-70940943D01*
X145838302Y-70879092D01*
X145705907Y-70746697D01*
X145550233Y-70642679D01*
X145550231Y-70642678D01*
X145377249Y-70571026D01*
X145193616Y-70534500D01*
X145006384Y-70534500D01*
X144822750Y-70571026D01*
X144649768Y-70642678D01*
X144649766Y-70642679D01*
X144494092Y-70746697D01*
X144361697Y-70879092D01*
X144257679Y-71034766D01*
X144257678Y-71034768D01*
X144186026Y-71207750D01*
X144149500Y-71391383D01*
X136800500Y-71391383D01*
X136800500Y-70260944D01*
X145889500Y-70260944D01*
X145889500Y-70419055D01*
X145889501Y-70419063D01*
X145930421Y-70571780D01*
X145930422Y-70571783D01*
X145930423Y-70571784D01*
X146009480Y-70708716D01*
X146121284Y-70820520D01*
X146257088Y-70898926D01*
X146258216Y-70899577D01*
X146258219Y-70899578D01*
X146351681Y-70924621D01*
X146410943Y-70940500D01*
X146410944Y-70940500D01*
X146569056Y-70940500D01*
X146569057Y-70940500D01*
X146721784Y-70899577D01*
X146858716Y-70820520D01*
X146970520Y-70708716D01*
X147049577Y-70571784D01*
X147090500Y-70419057D01*
X147090500Y-70260943D01*
X147049577Y-70108216D01*
X147028058Y-70070944D01*
X158329500Y-70070944D01*
X158329500Y-70229055D01*
X158329501Y-70229063D01*
X158370421Y-70381780D01*
X158370422Y-70381783D01*
X158370423Y-70381784D01*
X158449480Y-70518716D01*
X158561284Y-70630520D01*
X158696725Y-70708716D01*
X158698216Y-70709577D01*
X158698219Y-70709578D01*
X158791681Y-70734621D01*
X158850943Y-70750500D01*
X158850944Y-70750500D01*
X159009056Y-70750500D01*
X159009057Y-70750500D01*
X159161784Y-70709577D01*
X159298716Y-70630520D01*
X159410520Y-70518716D01*
X159489577Y-70381784D01*
X159530500Y-70229057D01*
X159530500Y-70070943D01*
X159489577Y-69918216D01*
X159410520Y-69781284D01*
X159298716Y-69669480D01*
X159202464Y-69613909D01*
X159161783Y-69590422D01*
X159161780Y-69590421D01*
X159009063Y-69549501D01*
X159009058Y-69549500D01*
X159009057Y-69549500D01*
X158850943Y-69549500D01*
X158850942Y-69549500D01*
X158850936Y-69549501D01*
X158698219Y-69590421D01*
X158698216Y-69590422D01*
X158606429Y-69643416D01*
X158561284Y-69669480D01*
X158561283Y-69669481D01*
X158561279Y-69669484D01*
X158449484Y-69781279D01*
X158449481Y-69781283D01*
X158370422Y-69918216D01*
X158370421Y-69918219D01*
X158329501Y-70070936D01*
X158329500Y-70070944D01*
X147028058Y-70070944D01*
X146970520Y-69971284D01*
X146858716Y-69859480D01*
X146762464Y-69803909D01*
X146721783Y-69780422D01*
X146721780Y-69780421D01*
X146569063Y-69739501D01*
X146569058Y-69739500D01*
X146569057Y-69739500D01*
X146410943Y-69739500D01*
X146410942Y-69739500D01*
X146410936Y-69739501D01*
X146258219Y-69780421D01*
X146258216Y-69780422D01*
X146161964Y-69835993D01*
X146121284Y-69859480D01*
X146121283Y-69859481D01*
X146121279Y-69859484D01*
X146009484Y-69971279D01*
X146009481Y-69971283D01*
X145930422Y-70108216D01*
X145930421Y-70108219D01*
X145889501Y-70260936D01*
X145889500Y-70260944D01*
X136800500Y-70260944D01*
X136800500Y-67930738D01*
X144149500Y-67930738D01*
X144149500Y-69039269D01*
X144152182Y-69067871D01*
X144152354Y-69069698D01*
X144159776Y-69090908D01*
X144197207Y-69197882D01*
X144197207Y-69197883D01*
X144237528Y-69252516D01*
X144277850Y-69307150D01*
X144387118Y-69387793D01*
X144515302Y-69432646D01*
X144545735Y-69435500D01*
X145654264Y-69435499D01*
X145654269Y-69435499D01*
X145663397Y-69434642D01*
X145684698Y-69432646D01*
X145812882Y-69387793D01*
X145922150Y-69307150D01*
X146002793Y-69197882D01*
X146047646Y-69069698D01*
X146050500Y-69039265D01*
X146050499Y-68386625D01*
X146850000Y-68386625D01*
X146850000Y-68583374D01*
X146850001Y-68583390D01*
X146880778Y-68777706D01*
X146880778Y-68777707D01*
X146941579Y-68964831D01*
X146941583Y-68964839D01*
X147030902Y-69140139D01*
X147030904Y-69140142D01*
X147056320Y-69175125D01*
X147608871Y-68622574D01*
X147624755Y-68681853D01*
X147691898Y-68798147D01*
X147786853Y-68893102D01*
X147903147Y-68960245D01*
X147962424Y-68976128D01*
X147409872Y-69528679D01*
X147444855Y-69554095D01*
X147620160Y-69643416D01*
X147620168Y-69643420D01*
X147807292Y-69704221D01*
X148001609Y-69734998D01*
X148001625Y-69735000D01*
X148198375Y-69735000D01*
X148198390Y-69734998D01*
X148392706Y-69704221D01*
X148392707Y-69704221D01*
X148579831Y-69643420D01*
X148579839Y-69643416D01*
X148755145Y-69554094D01*
X148790126Y-69528679D01*
X148237575Y-68976128D01*
X148296853Y-68960245D01*
X148413147Y-68893102D01*
X148508102Y-68798147D01*
X148575245Y-68681853D01*
X148591128Y-68622575D01*
X149143679Y-69175126D01*
X149169094Y-69140145D01*
X149258416Y-68964839D01*
X149258420Y-68964831D01*
X149319221Y-68777707D01*
X149319221Y-68777706D01*
X149349998Y-68583390D01*
X149350000Y-68583374D01*
X149350000Y-68391383D01*
X150149500Y-68391383D01*
X150149500Y-68578616D01*
X150186026Y-68762249D01*
X150257678Y-68935231D01*
X150257679Y-68935233D01*
X150327191Y-69039265D01*
X150361698Y-69090908D01*
X150494092Y-69223302D01*
X150649769Y-69327322D01*
X150822749Y-69398973D01*
X151006384Y-69435500D01*
X151193616Y-69435500D01*
X151377251Y-69398973D01*
X151550231Y-69327322D01*
X151705908Y-69223302D01*
X151838302Y-69090908D01*
X151942322Y-68935231D01*
X152013973Y-68762251D01*
X152050500Y-68578616D01*
X152050500Y-68391384D01*
X152050500Y-68391383D01*
X153149500Y-68391383D01*
X153149500Y-68578616D01*
X153186026Y-68762249D01*
X153257678Y-68935231D01*
X153257679Y-68935233D01*
X153327191Y-69039265D01*
X153361698Y-69090908D01*
X153494092Y-69223302D01*
X153649769Y-69327322D01*
X153822749Y-69398973D01*
X154006384Y-69435500D01*
X154193616Y-69435500D01*
X154377251Y-69398973D01*
X154550231Y-69327322D01*
X154705908Y-69223302D01*
X154838302Y-69090908D01*
X154942322Y-68935231D01*
X155013973Y-68762251D01*
X155050500Y-68578616D01*
X155050500Y-68391384D01*
X155049553Y-68386625D01*
X155850000Y-68386625D01*
X155850000Y-68583374D01*
X155850001Y-68583390D01*
X155880778Y-68777706D01*
X155880778Y-68777707D01*
X155941579Y-68964831D01*
X155941583Y-68964839D01*
X156030902Y-69140139D01*
X156030904Y-69140142D01*
X156056320Y-69175125D01*
X156608871Y-68622574D01*
X156624755Y-68681853D01*
X156691898Y-68798147D01*
X156786853Y-68893102D01*
X156903147Y-68960245D01*
X156962424Y-68976128D01*
X156409872Y-69528679D01*
X156444855Y-69554095D01*
X156620160Y-69643416D01*
X156620168Y-69643420D01*
X156807292Y-69704221D01*
X157001609Y-69734998D01*
X157001625Y-69735000D01*
X157198375Y-69735000D01*
X157198390Y-69734998D01*
X157392706Y-69704221D01*
X157392707Y-69704221D01*
X157579831Y-69643420D01*
X157579839Y-69643416D01*
X157755145Y-69554094D01*
X157790126Y-69528679D01*
X157237575Y-68976128D01*
X157296853Y-68960245D01*
X157413147Y-68893102D01*
X157508102Y-68798147D01*
X157575245Y-68681853D01*
X157591128Y-68622575D01*
X158143679Y-69175126D01*
X158169094Y-69140145D01*
X158258416Y-68964839D01*
X158258420Y-68964831D01*
X158319221Y-68777707D01*
X158319221Y-68777706D01*
X158349998Y-68583390D01*
X158350000Y-68583374D01*
X158350000Y-68391383D01*
X159149500Y-68391383D01*
X159149500Y-68578616D01*
X159186026Y-68762249D01*
X159257678Y-68935231D01*
X159257679Y-68935233D01*
X159327191Y-69039265D01*
X159361698Y-69090908D01*
X159494092Y-69223302D01*
X159649769Y-69327322D01*
X159822749Y-69398973D01*
X160006384Y-69435500D01*
X160193616Y-69435500D01*
X160377251Y-69398973D01*
X160550231Y-69327322D01*
X160705908Y-69223302D01*
X160838302Y-69090908D01*
X160942322Y-68935231D01*
X161013973Y-68762251D01*
X161050500Y-68578616D01*
X161050500Y-68391384D01*
X161013973Y-68207749D01*
X160942322Y-68034769D01*
X160875668Y-67935014D01*
X167850000Y-67935014D01*
X167850000Y-68235000D01*
X168655440Y-68235000D01*
X168624755Y-68288147D01*
X168590000Y-68417857D01*
X168590000Y-68552143D01*
X168624755Y-68681853D01*
X168655440Y-68735000D01*
X167850000Y-68735000D01*
X167850000Y-69034985D01*
X167860492Y-69137690D01*
X167915641Y-69304120D01*
X168007682Y-69453342D01*
X168131657Y-69577317D01*
X168280879Y-69669358D01*
X168447309Y-69724507D01*
X168550014Y-69734999D01*
X168550024Y-69735000D01*
X168850000Y-69735000D01*
X168850000Y-68929560D01*
X168903147Y-68960245D01*
X169032857Y-68995000D01*
X169167143Y-68995000D01*
X169296853Y-68960245D01*
X169350000Y-68929560D01*
X169350000Y-69735000D01*
X169649976Y-69735000D01*
X169649985Y-69734999D01*
X169752690Y-69724507D01*
X169919120Y-69669358D01*
X170068342Y-69577317D01*
X170068343Y-69577316D01*
X170184995Y-69460665D01*
X170192316Y-69453343D01*
X170192317Y-69453342D01*
X170284358Y-69304120D01*
X170339507Y-69137690D01*
X170349999Y-69034985D01*
X170350000Y-69034976D01*
X170350000Y-68735000D01*
X169544560Y-68735000D01*
X169575245Y-68681853D01*
X169610000Y-68552143D01*
X169610000Y-68417857D01*
X169602906Y-68391383D01*
X171149500Y-68391383D01*
X171149500Y-68578616D01*
X171186026Y-68762249D01*
X171257678Y-68935231D01*
X171257679Y-68935233D01*
X171327191Y-69039265D01*
X171361698Y-69090908D01*
X171494092Y-69223302D01*
X171649769Y-69327322D01*
X171822749Y-69398973D01*
X172006384Y-69435500D01*
X172193616Y-69435500D01*
X172377251Y-69398973D01*
X172550231Y-69327322D01*
X172705908Y-69223302D01*
X172838302Y-69090908D01*
X172942322Y-68935231D01*
X173013973Y-68762251D01*
X173050500Y-68578616D01*
X173050500Y-68391384D01*
X173049553Y-68386625D01*
X173850000Y-68386625D01*
X173850000Y-68583374D01*
X173850001Y-68583390D01*
X173880778Y-68777706D01*
X173880778Y-68777707D01*
X173941579Y-68964831D01*
X173941583Y-68964839D01*
X174030902Y-69140139D01*
X174030904Y-69140142D01*
X174056320Y-69175125D01*
X174608871Y-68622574D01*
X174624755Y-68681853D01*
X174691898Y-68798147D01*
X174786853Y-68893102D01*
X174903147Y-68960245D01*
X174962424Y-68976128D01*
X174409872Y-69528679D01*
X174444855Y-69554095D01*
X174620160Y-69643416D01*
X174620168Y-69643420D01*
X174807292Y-69704221D01*
X175001609Y-69734998D01*
X175001625Y-69735000D01*
X175198375Y-69735000D01*
X175198390Y-69734998D01*
X175392706Y-69704221D01*
X175392707Y-69704221D01*
X175579831Y-69643420D01*
X175579839Y-69643416D01*
X175755145Y-69554094D01*
X175790126Y-69528679D01*
X175237575Y-68976128D01*
X175296853Y-68960245D01*
X175413147Y-68893102D01*
X175508102Y-68798147D01*
X175575245Y-68681853D01*
X175591128Y-68622575D01*
X176143679Y-69175126D01*
X176169094Y-69140145D01*
X176258416Y-68964839D01*
X176258420Y-68964831D01*
X176319221Y-68777707D01*
X176319221Y-68777706D01*
X176349998Y-68583390D01*
X176350000Y-68583374D01*
X176350000Y-68391383D01*
X177149500Y-68391383D01*
X177149500Y-68578616D01*
X177186026Y-68762249D01*
X177257678Y-68935231D01*
X177257679Y-68935233D01*
X177327191Y-69039265D01*
X177361698Y-69090908D01*
X177494092Y-69223302D01*
X177649769Y-69327322D01*
X177822749Y-69398973D01*
X178006384Y-69435500D01*
X178193616Y-69435500D01*
X178377251Y-69398973D01*
X178550231Y-69327322D01*
X178705908Y-69223302D01*
X178838302Y-69090908D01*
X178942322Y-68935231D01*
X179013973Y-68762251D01*
X179050500Y-68578616D01*
X179050500Y-68391384D01*
X179050500Y-68391383D01*
X180149500Y-68391383D01*
X180149500Y-68578616D01*
X180186026Y-68762249D01*
X180257678Y-68935231D01*
X180257679Y-68935233D01*
X180327191Y-69039265D01*
X180361698Y-69090908D01*
X180494092Y-69223302D01*
X180649769Y-69327322D01*
X180822749Y-69398973D01*
X181006384Y-69435500D01*
X181193616Y-69435500D01*
X181377251Y-69398973D01*
X181550231Y-69327322D01*
X181705908Y-69223302D01*
X181838302Y-69090908D01*
X181942322Y-68935231D01*
X182013973Y-68762251D01*
X182050500Y-68578616D01*
X182050500Y-68391384D01*
X182050500Y-68391383D01*
X183149500Y-68391383D01*
X183149500Y-68578616D01*
X183186026Y-68762249D01*
X183257678Y-68935231D01*
X183257679Y-68935233D01*
X183327191Y-69039265D01*
X183361698Y-69090908D01*
X183494092Y-69223302D01*
X183649769Y-69327322D01*
X183822749Y-69398973D01*
X184006384Y-69435500D01*
X184193616Y-69435500D01*
X184377251Y-69398973D01*
X184550231Y-69327322D01*
X184705908Y-69223302D01*
X184838302Y-69090908D01*
X184942322Y-68935231D01*
X185013973Y-68762251D01*
X185050500Y-68578616D01*
X185050500Y-68391384D01*
X185013973Y-68207749D01*
X184942322Y-68034769D01*
X184838302Y-67879092D01*
X184750154Y-67790944D01*
X189489500Y-67790944D01*
X189489500Y-67949055D01*
X189489501Y-67949063D01*
X189530421Y-68101780D01*
X189530422Y-68101783D01*
X189530423Y-68101784D01*
X189609480Y-68238716D01*
X189721284Y-68350520D01*
X189858216Y-68429577D01*
X189858219Y-68429578D01*
X189951681Y-68454621D01*
X190010943Y-68470500D01*
X190010944Y-68470500D01*
X190169056Y-68470500D01*
X190169057Y-68470500D01*
X190321784Y-68429577D01*
X190458716Y-68350520D01*
X190570520Y-68238716D01*
X190649577Y-68101784D01*
X190690500Y-67949057D01*
X190690500Y-67790943D01*
X190649577Y-67638216D01*
X190570520Y-67501284D01*
X190458716Y-67389480D01*
X190349767Y-67326579D01*
X190321783Y-67310422D01*
X190321780Y-67310421D01*
X190169063Y-67269501D01*
X190169058Y-67269500D01*
X190169057Y-67269500D01*
X190010943Y-67269500D01*
X190010942Y-67269500D01*
X190010936Y-67269501D01*
X189858219Y-67310421D01*
X189858216Y-67310422D01*
X189761964Y-67365993D01*
X189721284Y-67389480D01*
X189721283Y-67389481D01*
X189721279Y-67389484D01*
X189609484Y-67501279D01*
X189609481Y-67501283D01*
X189609480Y-67501284D01*
X189590303Y-67534500D01*
X189530422Y-67638216D01*
X189530421Y-67638219D01*
X189489501Y-67790936D01*
X189489500Y-67790944D01*
X184750154Y-67790944D01*
X184705908Y-67746698D01*
X184580421Y-67662850D01*
X184550233Y-67642679D01*
X184550231Y-67642678D01*
X184377249Y-67571026D01*
X184193616Y-67534500D01*
X184006384Y-67534500D01*
X183822750Y-67571026D01*
X183649768Y-67642678D01*
X183649766Y-67642679D01*
X183494092Y-67746697D01*
X183361697Y-67879092D01*
X183257679Y-68034766D01*
X183257678Y-68034768D01*
X183186026Y-68207750D01*
X183149500Y-68391383D01*
X182050500Y-68391383D01*
X182013973Y-68207749D01*
X181942322Y-68034769D01*
X181838302Y-67879092D01*
X181705908Y-67746698D01*
X181580421Y-67662850D01*
X181550233Y-67642679D01*
X181550231Y-67642678D01*
X181377249Y-67571026D01*
X181193616Y-67534500D01*
X181006384Y-67534500D01*
X180822750Y-67571026D01*
X180649768Y-67642678D01*
X180649766Y-67642679D01*
X180494092Y-67746697D01*
X180361697Y-67879092D01*
X180257679Y-68034766D01*
X180257678Y-68034768D01*
X180186026Y-68207750D01*
X180149500Y-68391383D01*
X179050500Y-68391383D01*
X179013973Y-68207749D01*
X178942322Y-68034769D01*
X178838302Y-67879092D01*
X178705908Y-67746698D01*
X178580421Y-67662850D01*
X178550233Y-67642679D01*
X178550231Y-67642678D01*
X178377249Y-67571026D01*
X178193616Y-67534500D01*
X178006384Y-67534500D01*
X177822750Y-67571026D01*
X177649768Y-67642678D01*
X177649766Y-67642679D01*
X177494092Y-67746697D01*
X177361697Y-67879092D01*
X177257679Y-68034766D01*
X177257678Y-68034768D01*
X177186026Y-68207750D01*
X177149500Y-68391383D01*
X176350000Y-68391383D01*
X176350000Y-68386625D01*
X176349998Y-68386609D01*
X176319221Y-68192293D01*
X176319221Y-68192292D01*
X176258420Y-68005168D01*
X176258416Y-68005160D01*
X176169095Y-67829855D01*
X176143678Y-67794872D01*
X175591127Y-68347423D01*
X175575245Y-68288147D01*
X175508102Y-68171853D01*
X175413147Y-68076898D01*
X175296853Y-68009755D01*
X175237573Y-67993871D01*
X175790126Y-67441320D01*
X175755142Y-67415904D01*
X175755139Y-67415902D01*
X175579839Y-67326583D01*
X175579831Y-67326579D01*
X175392707Y-67265778D01*
X175198390Y-67235001D01*
X175198375Y-67235000D01*
X175001625Y-67235000D01*
X175001609Y-67235001D01*
X174807293Y-67265778D01*
X174807292Y-67265778D01*
X174620168Y-67326579D01*
X174620160Y-67326583D01*
X174444860Y-67415902D01*
X174444848Y-67415909D01*
X174409872Y-67441319D01*
X174962424Y-67993871D01*
X174903147Y-68009755D01*
X174786853Y-68076898D01*
X174691898Y-68171853D01*
X174624755Y-68288147D01*
X174608871Y-68347424D01*
X174056319Y-67794872D01*
X174030909Y-67829848D01*
X174030902Y-67829860D01*
X173941583Y-68005160D01*
X173941579Y-68005168D01*
X173880778Y-68192292D01*
X173880778Y-68192293D01*
X173850001Y-68386609D01*
X173850000Y-68386625D01*
X173049553Y-68386625D01*
X173020133Y-68238716D01*
X173013973Y-68207749D01*
X172942322Y-68034769D01*
X172838302Y-67879092D01*
X172705908Y-67746698D01*
X172580421Y-67662850D01*
X172550233Y-67642679D01*
X172550231Y-67642678D01*
X172377249Y-67571026D01*
X172193616Y-67534500D01*
X172006384Y-67534500D01*
X171822750Y-67571026D01*
X171649768Y-67642678D01*
X171649766Y-67642679D01*
X171494092Y-67746697D01*
X171361697Y-67879092D01*
X171257679Y-68034766D01*
X171257678Y-68034768D01*
X171186026Y-68207750D01*
X171149500Y-68391383D01*
X169602906Y-68391383D01*
X169575245Y-68288147D01*
X169544560Y-68235000D01*
X170350000Y-68235000D01*
X170350000Y-67935024D01*
X170349999Y-67935014D01*
X170339507Y-67832309D01*
X170284358Y-67665879D01*
X170192317Y-67516657D01*
X170068342Y-67392682D01*
X169919120Y-67300641D01*
X169752690Y-67245492D01*
X169649985Y-67235000D01*
X169350000Y-67235000D01*
X169350000Y-68040439D01*
X169296853Y-68009755D01*
X169167143Y-67975000D01*
X169032857Y-67975000D01*
X168903147Y-68009755D01*
X168850000Y-68040439D01*
X168850000Y-67235000D01*
X168550014Y-67235000D01*
X168447309Y-67245492D01*
X168280879Y-67300641D01*
X168131657Y-67392682D01*
X168007682Y-67516657D01*
X167915641Y-67665879D01*
X167860492Y-67832309D01*
X167850000Y-67935014D01*
X160875668Y-67935014D01*
X160838302Y-67879092D01*
X160705908Y-67746698D01*
X160580421Y-67662850D01*
X160550233Y-67642679D01*
X160550231Y-67642678D01*
X160377249Y-67571026D01*
X160193616Y-67534500D01*
X160006384Y-67534500D01*
X159822750Y-67571026D01*
X159649768Y-67642678D01*
X159649766Y-67642679D01*
X159494092Y-67746697D01*
X159361697Y-67879092D01*
X159257679Y-68034766D01*
X159257678Y-68034768D01*
X159186026Y-68207750D01*
X159149500Y-68391383D01*
X158350000Y-68391383D01*
X158350000Y-68386625D01*
X158349998Y-68386609D01*
X158319221Y-68192293D01*
X158319221Y-68192292D01*
X158258420Y-68005168D01*
X158258416Y-68005160D01*
X158169095Y-67829855D01*
X158143678Y-67794872D01*
X157591127Y-68347423D01*
X157575245Y-68288147D01*
X157508102Y-68171853D01*
X157413147Y-68076898D01*
X157296853Y-68009755D01*
X157237573Y-67993871D01*
X157790126Y-67441320D01*
X157755142Y-67415904D01*
X157755139Y-67415902D01*
X157579839Y-67326583D01*
X157579831Y-67326579D01*
X157392707Y-67265778D01*
X157198390Y-67235001D01*
X157198375Y-67235000D01*
X157001625Y-67235000D01*
X157001609Y-67235001D01*
X156807293Y-67265778D01*
X156807292Y-67265778D01*
X156620168Y-67326579D01*
X156620160Y-67326583D01*
X156444860Y-67415902D01*
X156444848Y-67415909D01*
X156409872Y-67441319D01*
X156962424Y-67993871D01*
X156903147Y-68009755D01*
X156786853Y-68076898D01*
X156691898Y-68171853D01*
X156624755Y-68288147D01*
X156608871Y-68347424D01*
X156056319Y-67794872D01*
X156030909Y-67829848D01*
X156030902Y-67829860D01*
X155941583Y-68005160D01*
X155941579Y-68005168D01*
X155880778Y-68192292D01*
X155880778Y-68192293D01*
X155850001Y-68386609D01*
X155850000Y-68386625D01*
X155049553Y-68386625D01*
X155020133Y-68238716D01*
X155013973Y-68207749D01*
X154942322Y-68034769D01*
X154838302Y-67879092D01*
X154705908Y-67746698D01*
X154580421Y-67662850D01*
X154550233Y-67642679D01*
X154550231Y-67642678D01*
X154377249Y-67571026D01*
X154193616Y-67534500D01*
X154006384Y-67534500D01*
X153822750Y-67571026D01*
X153649768Y-67642678D01*
X153649766Y-67642679D01*
X153494092Y-67746697D01*
X153361697Y-67879092D01*
X153257679Y-68034766D01*
X153257678Y-68034768D01*
X153186026Y-68207750D01*
X153149500Y-68391383D01*
X152050500Y-68391383D01*
X152013973Y-68207749D01*
X151942322Y-68034769D01*
X151838302Y-67879092D01*
X151705908Y-67746698D01*
X151580421Y-67662850D01*
X151550233Y-67642679D01*
X151550231Y-67642678D01*
X151377249Y-67571026D01*
X151193616Y-67534500D01*
X151006384Y-67534500D01*
X150822750Y-67571026D01*
X150649768Y-67642678D01*
X150649766Y-67642679D01*
X150494092Y-67746697D01*
X150361697Y-67879092D01*
X150257679Y-68034766D01*
X150257678Y-68034768D01*
X150186026Y-68207750D01*
X150149500Y-68391383D01*
X149350000Y-68391383D01*
X149350000Y-68386625D01*
X149349998Y-68386609D01*
X149319221Y-68192293D01*
X149319221Y-68192292D01*
X149258420Y-68005168D01*
X149258416Y-68005160D01*
X149169095Y-67829855D01*
X149143678Y-67794872D01*
X148591127Y-68347423D01*
X148575245Y-68288147D01*
X148508102Y-68171853D01*
X148413147Y-68076898D01*
X148296853Y-68009755D01*
X148237573Y-67993871D01*
X148790126Y-67441320D01*
X148755142Y-67415904D01*
X148755139Y-67415902D01*
X148579839Y-67326583D01*
X148579831Y-67326579D01*
X148392707Y-67265778D01*
X148198390Y-67235001D01*
X148198375Y-67235000D01*
X148001625Y-67235000D01*
X148001609Y-67235001D01*
X147807293Y-67265778D01*
X147807292Y-67265778D01*
X147620168Y-67326579D01*
X147620160Y-67326583D01*
X147444860Y-67415902D01*
X147444848Y-67415909D01*
X147409872Y-67441319D01*
X147962424Y-67993871D01*
X147903147Y-68009755D01*
X147786853Y-68076898D01*
X147691898Y-68171853D01*
X147624755Y-68288147D01*
X147608871Y-68347424D01*
X147056319Y-67794872D01*
X147030909Y-67829848D01*
X147030902Y-67829860D01*
X146941583Y-68005160D01*
X146941579Y-68005168D01*
X146880778Y-68192292D01*
X146880778Y-68192293D01*
X146850001Y-68386609D01*
X146850000Y-68386625D01*
X146050499Y-68386625D01*
X146050499Y-67930736D01*
X146050499Y-67930735D01*
X146050499Y-67930730D01*
X146049471Y-67919776D01*
X146047646Y-67900302D01*
X146002793Y-67772118D01*
X145922150Y-67662850D01*
X145812882Y-67582207D01*
X145684700Y-67537354D01*
X145684695Y-67537353D01*
X145664698Y-67535478D01*
X145654265Y-67534500D01*
X145654261Y-67534500D01*
X144545730Y-67534500D01*
X144515302Y-67537354D01*
X144387117Y-67582207D01*
X144387116Y-67582207D01*
X144277850Y-67662850D01*
X144197207Y-67772116D01*
X144197207Y-67772117D01*
X144152354Y-67900299D01*
X144152353Y-67900304D01*
X144150233Y-67922909D01*
X144149501Y-67930730D01*
X144149500Y-67930738D01*
X136800500Y-67930738D01*
X136800500Y-64046984D01*
X145459500Y-64046984D01*
X145459500Y-64283015D01*
X145490307Y-64517017D01*
X145490307Y-64517018D01*
X145551388Y-64744976D01*
X145551392Y-64744987D01*
X145551394Y-64744993D01*
X145599470Y-64861059D01*
X145641713Y-64963043D01*
X145641716Y-64963049D01*
X145759727Y-65167450D01*
X145903408Y-65354699D01*
X146070301Y-65521592D01*
X146257550Y-65665273D01*
X146461951Y-65783284D01*
X146680007Y-65873606D01*
X146680017Y-65873608D01*
X146680023Y-65873611D01*
X146907982Y-65934692D01*
X146907986Y-65934693D01*
X147141989Y-65965500D01*
X147141995Y-65965500D01*
X147378005Y-65965500D01*
X147378011Y-65965500D01*
X147612014Y-65934693D01*
X147612018Y-65934692D01*
X147839976Y-65873611D01*
X147839979Y-65873609D01*
X147839993Y-65873606D01*
X148058049Y-65783284D01*
X148183346Y-65710944D01*
X153549500Y-65710944D01*
X153549500Y-65869055D01*
X153549501Y-65869063D01*
X153590421Y-66021780D01*
X153590422Y-66021783D01*
X153590423Y-66021784D01*
X153669480Y-66158716D01*
X153781284Y-66270520D01*
X153918216Y-66349577D01*
X153918219Y-66349578D01*
X154011681Y-66374621D01*
X154070943Y-66390500D01*
X154070944Y-66390500D01*
X154229056Y-66390500D01*
X154229057Y-66390500D01*
X154381784Y-66349577D01*
X154518716Y-66270520D01*
X154630520Y-66158716D01*
X154709577Y-66021784D01*
X154750500Y-65869057D01*
X154750500Y-65710943D01*
X154709577Y-65558216D01*
X154630520Y-65421284D01*
X154518716Y-65309480D01*
X154422464Y-65253909D01*
X154381783Y-65230422D01*
X154381780Y-65230421D01*
X154229063Y-65189501D01*
X154229058Y-65189500D01*
X154229057Y-65189500D01*
X154070943Y-65189500D01*
X154070942Y-65189500D01*
X154070936Y-65189501D01*
X153918219Y-65230421D01*
X153918216Y-65230422D01*
X153821964Y-65285993D01*
X153781284Y-65309480D01*
X153781283Y-65309481D01*
X153781279Y-65309484D01*
X153669484Y-65421279D01*
X153669481Y-65421283D01*
X153590422Y-65558216D01*
X153590421Y-65558219D01*
X153549501Y-65710936D01*
X153549500Y-65710944D01*
X148183346Y-65710944D01*
X148262450Y-65665273D01*
X148449699Y-65521592D01*
X148616592Y-65354699D01*
X148760273Y-65167450D01*
X148878284Y-64963049D01*
X148968606Y-64744993D01*
X149029693Y-64517014D01*
X149060500Y-64283011D01*
X149060500Y-64046989D01*
X149060499Y-64046984D01*
X156159500Y-64046984D01*
X156159500Y-64283015D01*
X156190307Y-64517017D01*
X156190307Y-64517018D01*
X156251388Y-64744976D01*
X156251392Y-64744987D01*
X156251394Y-64744993D01*
X156299470Y-64861059D01*
X156341713Y-64963043D01*
X156341716Y-64963049D01*
X156459727Y-65167450D01*
X156603408Y-65354699D01*
X156770301Y-65521592D01*
X156957550Y-65665273D01*
X157161951Y-65783284D01*
X157380007Y-65873606D01*
X157380017Y-65873608D01*
X157380023Y-65873611D01*
X157607982Y-65934692D01*
X157607986Y-65934693D01*
X157841989Y-65965500D01*
X157841995Y-65965500D01*
X158078005Y-65965500D01*
X158078011Y-65965500D01*
X158312014Y-65934693D01*
X158312018Y-65934692D01*
X158539976Y-65873611D01*
X158539979Y-65873609D01*
X158539993Y-65873606D01*
X158758049Y-65783284D01*
X158962450Y-65665273D01*
X159149699Y-65521592D01*
X159316592Y-65354699D01*
X159460273Y-65167450D01*
X159578284Y-64963049D01*
X159668606Y-64744993D01*
X159729693Y-64517014D01*
X159760500Y-64283011D01*
X159760500Y-64046989D01*
X159760499Y-64046984D01*
X169459500Y-64046984D01*
X169459500Y-64283015D01*
X169490307Y-64517017D01*
X169490307Y-64517018D01*
X169551388Y-64744976D01*
X169551392Y-64744987D01*
X169551394Y-64744993D01*
X169599470Y-64861059D01*
X169641713Y-64963043D01*
X169641716Y-64963049D01*
X169759727Y-65167450D01*
X169903408Y-65354699D01*
X170070301Y-65521592D01*
X170257550Y-65665273D01*
X170461951Y-65783284D01*
X170680007Y-65873606D01*
X170680017Y-65873608D01*
X170680023Y-65873611D01*
X170907982Y-65934692D01*
X170907986Y-65934693D01*
X171141989Y-65965500D01*
X171141995Y-65965500D01*
X171378005Y-65965500D01*
X171378011Y-65965500D01*
X171612014Y-65934693D01*
X171612018Y-65934692D01*
X171839976Y-65873611D01*
X171839979Y-65873609D01*
X171839993Y-65873606D01*
X172058049Y-65783284D01*
X172262450Y-65665273D01*
X172449699Y-65521592D01*
X172616592Y-65354699D01*
X172760273Y-65167450D01*
X172878284Y-64963049D01*
X172968606Y-64744993D01*
X173029693Y-64517014D01*
X173060500Y-64283011D01*
X173060500Y-64046989D01*
X173060499Y-64046984D01*
X180159500Y-64046984D01*
X180159500Y-64283015D01*
X180190307Y-64517017D01*
X180190307Y-64517018D01*
X180251388Y-64744976D01*
X180251392Y-64744987D01*
X180251394Y-64744993D01*
X180299470Y-64861059D01*
X180341713Y-64963043D01*
X180341716Y-64963049D01*
X180459727Y-65167450D01*
X180603408Y-65354699D01*
X180770301Y-65521592D01*
X180957550Y-65665273D01*
X181161951Y-65783284D01*
X181380007Y-65873606D01*
X181380017Y-65873608D01*
X181380023Y-65873611D01*
X181607982Y-65934692D01*
X181607986Y-65934693D01*
X181841989Y-65965500D01*
X181841995Y-65965500D01*
X182078005Y-65965500D01*
X182078011Y-65965500D01*
X182312014Y-65934693D01*
X182312018Y-65934692D01*
X182539976Y-65873611D01*
X182539979Y-65873609D01*
X182539993Y-65873606D01*
X182758049Y-65783284D01*
X182962450Y-65665273D01*
X183149699Y-65521592D01*
X183316592Y-65354699D01*
X183460273Y-65167450D01*
X183578284Y-64963049D01*
X183668606Y-64744993D01*
X183729693Y-64517014D01*
X183760500Y-64283011D01*
X183760500Y-64046989D01*
X183729693Y-63812986D01*
X183729692Y-63812981D01*
X183668611Y-63585023D01*
X183668608Y-63585017D01*
X183668606Y-63585007D01*
X183578284Y-63366951D01*
X183460273Y-63162550D01*
X183316592Y-62975301D01*
X183149699Y-62808408D01*
X183149695Y-62808405D01*
X183149693Y-62808403D01*
X182962447Y-62664725D01*
X182758055Y-62546719D01*
X182758043Y-62546713D01*
X182656059Y-62504470D01*
X182539993Y-62456394D01*
X182539987Y-62456392D01*
X182539976Y-62456388D01*
X182312017Y-62395307D01*
X182078015Y-62364500D01*
X182078011Y-62364500D01*
X181841989Y-62364500D01*
X181841984Y-62364500D01*
X181607982Y-62395307D01*
X181607981Y-62395307D01*
X181380023Y-62456388D01*
X181380008Y-62456393D01*
X181380007Y-62456394D01*
X181380005Y-62456395D01*
X181161956Y-62546713D01*
X181161944Y-62546719D01*
X180957552Y-62664725D01*
X180770306Y-62808403D01*
X180770296Y-62808412D01*
X180603412Y-62975296D01*
X180603403Y-62975306D01*
X180459725Y-63162552D01*
X180341719Y-63366944D01*
X180341713Y-63366956D01*
X180251395Y-63585005D01*
X180251388Y-63585023D01*
X180190307Y-63812981D01*
X180190307Y-63812982D01*
X180159500Y-64046984D01*
X173060499Y-64046984D01*
X173029693Y-63812986D01*
X173029692Y-63812981D01*
X172968611Y-63585023D01*
X172968608Y-63585017D01*
X172968606Y-63585007D01*
X172878284Y-63366951D01*
X172760273Y-63162550D01*
X172616592Y-62975301D01*
X172449699Y-62808408D01*
X172449695Y-62808405D01*
X172449693Y-62808403D01*
X172262447Y-62664725D01*
X172058055Y-62546719D01*
X172058043Y-62546713D01*
X171956059Y-62504470D01*
X171839993Y-62456394D01*
X171839987Y-62456392D01*
X171839976Y-62456388D01*
X171612017Y-62395307D01*
X171378015Y-62364500D01*
X171378011Y-62364500D01*
X171141989Y-62364500D01*
X171141984Y-62364500D01*
X170907982Y-62395307D01*
X170907981Y-62395307D01*
X170680023Y-62456388D01*
X170680008Y-62456393D01*
X170680007Y-62456394D01*
X170680005Y-62456395D01*
X170461956Y-62546713D01*
X170461944Y-62546719D01*
X170257552Y-62664725D01*
X170070306Y-62808403D01*
X170070296Y-62808412D01*
X169903412Y-62975296D01*
X169903403Y-62975306D01*
X169759725Y-63162552D01*
X169641719Y-63366944D01*
X169641713Y-63366956D01*
X169551395Y-63585005D01*
X169551388Y-63585023D01*
X169490307Y-63812981D01*
X169490307Y-63812982D01*
X169459500Y-64046984D01*
X159760499Y-64046984D01*
X159729693Y-63812986D01*
X159729692Y-63812981D01*
X159668611Y-63585023D01*
X159668608Y-63585017D01*
X159668606Y-63585007D01*
X159578284Y-63366951D01*
X159460273Y-63162550D01*
X159316592Y-62975301D01*
X159149699Y-62808408D01*
X159149695Y-62808405D01*
X159149693Y-62808403D01*
X158962447Y-62664725D01*
X158758055Y-62546719D01*
X158758043Y-62546713D01*
X158656059Y-62504470D01*
X158539993Y-62456394D01*
X158539987Y-62456392D01*
X158539976Y-62456388D01*
X158312017Y-62395307D01*
X158078015Y-62364500D01*
X158078011Y-62364500D01*
X157841989Y-62364500D01*
X157841984Y-62364500D01*
X157607982Y-62395307D01*
X157607981Y-62395307D01*
X157380023Y-62456388D01*
X157380008Y-62456393D01*
X157380007Y-62456394D01*
X157380005Y-62456395D01*
X157161956Y-62546713D01*
X157161944Y-62546719D01*
X156957552Y-62664725D01*
X156770306Y-62808403D01*
X156770296Y-62808412D01*
X156603412Y-62975296D01*
X156603403Y-62975306D01*
X156459725Y-63162552D01*
X156341719Y-63366944D01*
X156341713Y-63366956D01*
X156251395Y-63585005D01*
X156251388Y-63585023D01*
X156190307Y-63812981D01*
X156190307Y-63812982D01*
X156159500Y-64046984D01*
X149060499Y-64046984D01*
X149029693Y-63812986D01*
X149029692Y-63812981D01*
X148968611Y-63585023D01*
X148968608Y-63585017D01*
X148968606Y-63585007D01*
X148878284Y-63366951D01*
X148760273Y-63162550D01*
X148616592Y-62975301D01*
X148449699Y-62808408D01*
X148449695Y-62808405D01*
X148449693Y-62808403D01*
X148262447Y-62664725D01*
X148058055Y-62546719D01*
X148058043Y-62546713D01*
X147956059Y-62504470D01*
X147839993Y-62456394D01*
X147839987Y-62456392D01*
X147839976Y-62456388D01*
X147612017Y-62395307D01*
X147378015Y-62364500D01*
X147378011Y-62364500D01*
X147141989Y-62364500D01*
X147141984Y-62364500D01*
X146907982Y-62395307D01*
X146907981Y-62395307D01*
X146680023Y-62456388D01*
X146680008Y-62456393D01*
X146680007Y-62456394D01*
X146680005Y-62456395D01*
X146461956Y-62546713D01*
X146461944Y-62546719D01*
X146257552Y-62664725D01*
X146070306Y-62808403D01*
X146070296Y-62808412D01*
X145903412Y-62975296D01*
X145903403Y-62975306D01*
X145759725Y-63162552D01*
X145641719Y-63366944D01*
X145641713Y-63366956D01*
X145551395Y-63585005D01*
X145551388Y-63585023D01*
X145490307Y-63812981D01*
X145490307Y-63812982D01*
X145459500Y-64046984D01*
X136800500Y-64046984D01*
X136800500Y-61331499D01*
X189499500Y-61331499D01*
X189499500Y-61668500D01*
X189537231Y-62003382D01*
X189537234Y-62003399D01*
X189612222Y-62331947D01*
X189612223Y-62331953D01*
X189723526Y-62650040D01*
X189869754Y-62953686D01*
X190049050Y-63239033D01*
X190049062Y-63239050D01*
X190259164Y-63502510D01*
X190259169Y-63502516D01*
X190259175Y-63502523D01*
X190497477Y-63740825D01*
X190497484Y-63740831D01*
X190497489Y-63740835D01*
X190760949Y-63950937D01*
X190760955Y-63950941D01*
X190760961Y-63950946D01*
X191046314Y-64130246D01*
X191349949Y-64276469D01*
X191349955Y-64276471D01*
X191349959Y-64276473D01*
X191668046Y-64387776D01*
X191996606Y-64462767D01*
X192331496Y-64500500D01*
X192331499Y-64500500D01*
X192668501Y-64500500D01*
X192668504Y-64500500D01*
X193003394Y-64462767D01*
X193331954Y-64387776D01*
X193650051Y-64276469D01*
X193953686Y-64130246D01*
X194239039Y-63950946D01*
X194502523Y-63740825D01*
X194740825Y-63502523D01*
X194950946Y-63239039D01*
X195130246Y-62953686D01*
X195276469Y-62650051D01*
X195387776Y-62331954D01*
X195462767Y-62003394D01*
X195500500Y-61668504D01*
X195500500Y-61331496D01*
X195462767Y-60996606D01*
X195387776Y-60668046D01*
X195295811Y-60405224D01*
X195276473Y-60349959D01*
X195276471Y-60349955D01*
X195276469Y-60349949D01*
X195130246Y-60046314D01*
X194950946Y-59760961D01*
X194950941Y-59760955D01*
X194950937Y-59760949D01*
X194740835Y-59497489D01*
X194740831Y-59497484D01*
X194740825Y-59497477D01*
X194502523Y-59259175D01*
X194502516Y-59259169D01*
X194502510Y-59259164D01*
X194239050Y-59049062D01*
X194239033Y-59049050D01*
X193953686Y-58869754D01*
X193650051Y-58723531D01*
X193650048Y-58723530D01*
X193650040Y-58723526D01*
X193331953Y-58612223D01*
X193331947Y-58612222D01*
X193003399Y-58537234D01*
X193003396Y-58537233D01*
X193003394Y-58537233D01*
X193003392Y-58537232D01*
X193003382Y-58537231D01*
X192783310Y-58512435D01*
X192668504Y-58499500D01*
X192331496Y-58499500D01*
X192228463Y-58511108D01*
X191996617Y-58537231D01*
X191996600Y-58537234D01*
X191668052Y-58612222D01*
X191668046Y-58612223D01*
X191349959Y-58723526D01*
X191046313Y-58869754D01*
X190760966Y-59049050D01*
X190760949Y-59049062D01*
X190497489Y-59259164D01*
X190497469Y-59259182D01*
X190259182Y-59497469D01*
X190259164Y-59497489D01*
X190049062Y-59760949D01*
X190049050Y-59760966D01*
X189869754Y-60046313D01*
X189723526Y-60349959D01*
X189612223Y-60668046D01*
X189612222Y-60668052D01*
X189537234Y-60996600D01*
X189537231Y-60996617D01*
X189499500Y-61331499D01*
X136800500Y-61331499D01*
X136800500Y-61001540D01*
X136800575Y-60998473D01*
X136802444Y-60960438D01*
X136818163Y-60640448D01*
X136818764Y-60634350D01*
X136852752Y-60405224D01*
X136871136Y-60281286D01*
X136872332Y-60275279D01*
X136959057Y-59929051D01*
X136960829Y-59923212D01*
X137081079Y-59587136D01*
X137083413Y-59581503D01*
X137236027Y-59258826D01*
X137238899Y-59253452D01*
X137422410Y-58947283D01*
X137425797Y-58942214D01*
X137638418Y-58655528D01*
X137642305Y-58650792D01*
X137677263Y-58612222D01*
X137882006Y-58386321D01*
X137886321Y-58382006D01*
X138150796Y-58142301D01*
X138155528Y-58138418D01*
X138442214Y-57925797D01*
X138447283Y-57922410D01*
X138753452Y-57738899D01*
X138758826Y-57736027D01*
X139081503Y-57583413D01*
X139087136Y-57581079D01*
X139423212Y-57460829D01*
X139429051Y-57459057D01*
X139775287Y-57372330D01*
X139781286Y-57371136D01*
X140134357Y-57318763D01*
X140140448Y-57318163D01*
X140498473Y-57300574D01*
X140501540Y-57300500D01*
X140547595Y-57300500D01*
X192452405Y-57300500D01*
X192498460Y-57300500D01*
X192501526Y-57300574D01*
G37*
%TD.AperFunction*%
M02*
