%TF.GenerationSoftware,KiCad,Pcbnew,9.0.4*%
%TF.CreationDate,2026-01-27T00:07:53+00:00*%
%TF.ProjectId,BSPD,42535044-2e6b-4696-9361-645f70636258,1.3.0*%
%TF.SameCoordinates,Original*%
%TF.FileFunction,Paste,Bot*%
%TF.FilePolarity,Positive*%
%FSLAX46Y46*%
G04 Gerber Fmt 4.6, Leading zero omitted, Abs format (unit mm)*
G04 Created by KiCad (PCBNEW 9.0.4) date 2026-01-27 00:07:53*
%MOMM*%
%LPD*%
G01*
G04 APERTURE LIST*
G04 Aperture macros list*
%AMRoundRect*
0 Rectangle with rounded corners*
0 $1 Rounding radius*
0 $2 $3 $4 $5 $6 $7 $8 $9 X,Y pos of 4 corners*
0 Add a 4 corners polygon primitive as box body*
4,1,4,$2,$3,$4,$5,$6,$7,$8,$9,$2,$3,0*
0 Add four circle primitives for the rounded corners*
1,1,$1+$1,$2,$3*
1,1,$1+$1,$4,$5*
1,1,$1+$1,$6,$7*
1,1,$1+$1,$8,$9*
0 Add four rect primitives between the rounded corners*
20,1,$1+$1,$2,$3,$4,$5,0*
20,1,$1+$1,$4,$5,$6,$7,0*
20,1,$1+$1,$6,$7,$8,$9,0*
20,1,$1+$1,$8,$9,$2,$3,0*%
G04 Aperture macros list end*
%ADD10RoundRect,0.200000X0.200000X0.275000X-0.200000X0.275000X-0.200000X-0.275000X0.200000X-0.275000X0*%
%ADD11RoundRect,0.150000X0.150000X-0.825000X0.150000X0.825000X-0.150000X0.825000X-0.150000X-0.825000X0*%
%ADD12RoundRect,0.200000X-0.200000X-0.275000X0.200000X-0.275000X0.200000X0.275000X-0.200000X0.275000X0*%
%ADD13RoundRect,0.225000X0.225000X0.250000X-0.225000X0.250000X-0.225000X-0.250000X0.225000X-0.250000X0*%
%ADD14RoundRect,0.225000X-0.250000X0.225000X-0.250000X-0.225000X0.250000X-0.225000X0.250000X0.225000X0*%
%ADD15RoundRect,0.250000X1.000000X0.650000X-1.000000X0.650000X-1.000000X-0.650000X1.000000X-0.650000X0*%
%ADD16RoundRect,0.112500X0.112500X0.237500X-0.112500X0.237500X-0.112500X-0.237500X0.112500X-0.237500X0*%
G04 APERTURE END LIST*
D10*
X147977940Y-81150000D03*
X146327940Y-81150000D03*
X147977940Y-90500000D03*
X146327940Y-90500000D03*
D11*
X157062940Y-92975000D03*
X155792940Y-92975000D03*
X154522940Y-92975000D03*
X153252940Y-92975000D03*
X151982940Y-92975000D03*
X150712940Y-92975000D03*
X149442940Y-92975000D03*
X149442940Y-88025000D03*
X150712940Y-88025000D03*
X151982940Y-88025000D03*
X153252940Y-88025000D03*
X154522940Y-88025000D03*
X155792940Y-88025000D03*
X157062940Y-88025000D03*
X157062940Y-84875000D03*
X155792940Y-84875000D03*
X154522940Y-84875000D03*
X153252940Y-84875000D03*
X151982940Y-84875000D03*
X150712940Y-84875000D03*
X149442940Y-84875000D03*
X149442940Y-79925000D03*
X150712940Y-79925000D03*
X151982940Y-79925000D03*
X153252940Y-79925000D03*
X154522940Y-79925000D03*
X155792940Y-79925000D03*
X157062940Y-79925000D03*
D12*
X146327940Y-92000000D03*
X147977940Y-92000000D03*
D13*
X147927940Y-87500000D03*
X146377940Y-87500000D03*
D14*
X158602940Y-79925000D03*
X158602940Y-81475000D03*
D12*
X147925000Y-95150000D03*
X149575000Y-95150000D03*
D10*
X158575000Y-95150000D03*
X156925000Y-95150000D03*
D15*
X158750000Y-97650000D03*
X154750000Y-97650000D03*
D12*
X153925000Y-95150000D03*
X155575000Y-95150000D03*
D14*
X158602940Y-88025000D03*
X158602940Y-89575000D03*
D10*
X152575000Y-95150000D03*
X150925000Y-95150000D03*
D12*
X146327940Y-89000000D03*
X147977940Y-89000000D03*
D16*
X147802940Y-85750000D03*
X146502940Y-85750000D03*
X147152940Y-83750000D03*
D15*
X151750000Y-97650000D03*
X147750000Y-97650000D03*
M02*
