M48
; DRILL file {KiCad 9.0.4} date 2026-01-27T00:08:01+0000
; FORMAT={-:-/ absolute / metric / decimal}
; #@! TF.CreationDate,2026-01-27T00:08:01+00:00
; #@! TF.GenerationSoftware,Kicad,Pcbnew,9.0.4
; #@! TF.FileFunction,Plated,1,4,PTH
FMAT,2
METRIC
; #@! TA.AperFunction,Plated,PTH,ViaDrill
T1C0.300
; #@! TA.AperFunction,Plated,PTH,ComponentDrill
T2C0.800
; #@! TA.AperFunction,Plated,PTH,ComponentDrill
T3C1.020
; #@! TA.AperFunction,Plated,PTH,ComponentDrill
T4C1.300
; #@! TA.AperFunction,Plated,PTH,ComponentDrill
T5C3.200
%
G90
G05
T1
X142.69Y-86.08
X143.9Y-90.3
X143.92Y-92.06
X145.1Y-82.4
X146.4Y-93.5
X146.49Y-70.34
X147.1Y-84.8
X148.35Y-83.15
X148.8Y-86.39
X149.2Y-99.65
X150.5Y-99.2
X151.75Y-99.65
X153.544Y-90.45
X153.6Y-82.4
X154.15Y-65.79
X155.045Y-90.445
X155.6Y-75.38
X158.65Y-86.4
X158.93Y-70.15
X159.8Y-86.4
X159.85Y-79.25
X160.15Y-88.75
X160.2Y-83.11
X160.55Y-96.3
X161.0Y-72.9
X161.6Y-75.65
X162.7Y-93.7
X164.63Y-78.28
X164.75Y-81.35
X164.75Y-82.65
X164.75Y-87.35
X164.75Y-88.65
X165.325Y-75.3
X167.6Y-78.1
X167.85Y-73.8
X169.03Y-73.77
X173.53Y-71.02
X178.43Y-96.59
X182.53Y-87.52
X184.75Y-97.3
X190.09Y-67.87
T2
X145.555Y-75.7
X147.555Y-75.7
X165.55Y-92.955
X165.55Y-94.955
X165.55Y-98.955
X165.55Y-100.955
X169.46Y-83.23
X169.46Y-89.23
X169.46Y-95.23
X169.46Y-101.23
X172.0Y-80.69
X172.0Y-86.69
X172.0Y-92.69
X172.0Y-98.69
X174.54Y-83.23
X174.54Y-89.23
X174.54Y-95.23
X174.54Y-101.23
X178.45Y-98.955
X178.45Y-100.955
T3
X145.1Y-68.485
X145.1Y-71.485
X148.1Y-68.485
X148.1Y-71.485
X151.1Y-68.485
X151.1Y-71.485
X154.1Y-68.485
X154.1Y-71.485
X157.1Y-68.485
X157.1Y-71.485
X160.1Y-68.485
X160.1Y-71.485
X169.1Y-68.485
X169.1Y-71.485
X172.1Y-68.485
X172.1Y-71.485
X175.1Y-68.485
X175.1Y-71.485
X178.1Y-68.485
X178.1Y-71.485
X181.1Y-68.485
X181.1Y-71.485
X184.1Y-68.485
X184.1Y-71.485
T4
X178.78Y-78.535
X178.78Y-93.775
X186.4Y-75.995
X186.4Y-83.615
X186.4Y-93.775
T5
X140.5Y-74.5
X140.5Y-100.5
X192.5Y-61.5
X192.5Y-100.5
M30
