%TF.GenerationSoftware,KiCad,Pcbnew,9.0.4*%
%TF.CreationDate,2026-01-27T00:07:53+00:00*%
%TF.ProjectId,BSPD,42535044-2e6b-4696-9361-645f70636258,1.3.0*%
%TF.SameCoordinates,Original*%
%TF.FileFunction,Soldermask,Bot*%
%TF.FilePolarity,Negative*%
%FSLAX46Y46*%
G04 Gerber Fmt 4.6, Leading zero omitted, Abs format (unit mm)*
G04 Created by KiCad (PCBNEW 9.0.4) date 2026-01-27 00:07:53*
%MOMM*%
%LPD*%
G01*
G04 APERTURE LIST*
G04 Aperture macros list*
%AMRoundRect*
0 Rectangle with rounded corners*
0 $1 Rounding radius*
0 $2 $3 $4 $5 $6 $7 $8 $9 X,Y pos of 4 corners*
0 Add a 4 corners polygon primitive as box body*
4,1,4,$2,$3,$4,$5,$6,$7,$8,$9,$2,$3,0*
0 Add four circle primitives for the rounded corners*
1,1,$1+$1,$2,$3*
1,1,$1+$1,$4,$5*
1,1,$1+$1,$6,$7*
1,1,$1+$1,$8,$9*
0 Add four rect primitives between the rounded corners*
20,1,$1+$1,$2,$3,$4,$5,0*
20,1,$1+$1,$4,$5,$6,$7,0*
20,1,$1+$1,$6,$7,$8,$9,0*
20,1,$1+$1,$8,$9,$2,$3,0*%
G04 Aperture macros list end*
%ADD10C,3.000000*%
%ADD11RoundRect,0.250001X-0.499999X-0.499999X0.499999X-0.499999X0.499999X0.499999X-0.499999X0.499999X0*%
%ADD12C,1.500000*%
%ADD13C,5.600000*%
%ADD14RoundRect,0.250000X0.550000X-0.550000X0.550000X0.550000X-0.550000X0.550000X-0.550000X-0.550000X0*%
%ADD15C,1.600000*%
%ADD16C,1.440000*%
%ADD17R,2.300000X2.300000*%
%ADD18C,2.300000*%
%ADD19RoundRect,0.250000X0.550000X0.550000X-0.550000X0.550000X-0.550000X-0.550000X0.550000X-0.550000X0*%
%ADD20RoundRect,0.200000X0.200000X0.275000X-0.200000X0.275000X-0.200000X-0.275000X0.200000X-0.275000X0*%
%ADD21RoundRect,0.150000X0.150000X-0.825000X0.150000X0.825000X-0.150000X0.825000X-0.150000X-0.825000X0*%
%ADD22RoundRect,0.200000X-0.200000X-0.275000X0.200000X-0.275000X0.200000X0.275000X-0.200000X0.275000X0*%
%ADD23RoundRect,0.225000X0.225000X0.250000X-0.225000X0.250000X-0.225000X-0.250000X0.225000X-0.250000X0*%
%ADD24RoundRect,0.225000X-0.250000X0.225000X-0.250000X-0.225000X0.250000X-0.225000X0.250000X0.225000X0*%
%ADD25RoundRect,0.250000X1.000000X0.650000X-1.000000X0.650000X-1.000000X-0.650000X1.000000X-0.650000X0*%
%ADD26RoundRect,0.112500X0.112500X0.237500X-0.112500X0.237500X-0.112500X-0.237500X0.112500X-0.237500X0*%
G04 APERTURE END LIST*
D10*
X147260000Y-64165000D03*
X157960000Y-64165000D03*
D11*
X145100000Y-68485000D03*
D12*
X148100000Y-68485000D03*
X151100000Y-68485000D03*
X154100000Y-68485000D03*
X157100000Y-68485000D03*
X160100000Y-68485000D03*
X145100000Y-71485000D03*
X148100000Y-71485000D03*
X151100000Y-71485000D03*
X154100000Y-71485000D03*
X157100000Y-71485000D03*
X160100000Y-71485000D03*
D13*
X140500000Y-100500000D03*
D14*
X165550000Y-94955113D03*
D15*
X165550000Y-92955113D03*
D13*
X192500000Y-61500000D03*
D16*
X169460000Y-101230000D03*
X172000000Y-98690000D03*
X174540000Y-101230000D03*
D13*
X140500000Y-74500000D03*
D17*
X186400000Y-93775000D03*
D18*
X186400000Y-83615000D03*
X186400000Y-75995000D03*
X178780000Y-78535000D03*
X178780000Y-93775000D03*
D10*
X171260000Y-64165000D03*
X181960000Y-64165000D03*
D11*
X169100000Y-68485000D03*
D12*
X172100000Y-68485000D03*
X175100000Y-68485000D03*
X178100000Y-68485000D03*
X181100000Y-68485000D03*
X184100000Y-68485000D03*
X169100000Y-71485000D03*
X172100000Y-71485000D03*
X175100000Y-71485000D03*
X178100000Y-71485000D03*
X181100000Y-71485000D03*
X184100000Y-71485000D03*
D16*
X169460000Y-95230000D03*
X172000000Y-92690000D03*
X174540000Y-95230000D03*
X169460000Y-89230000D03*
X172000000Y-86690000D03*
X174540000Y-89230000D03*
X169460000Y-83230000D03*
X172000000Y-80690000D03*
X174540000Y-83230000D03*
D14*
X165550000Y-100955112D03*
D15*
X165550000Y-98955112D03*
D13*
X192500000Y-100500000D03*
D14*
X178450000Y-100955113D03*
D15*
X178450000Y-98955113D03*
D19*
X147555112Y-75700000D03*
D15*
X145555112Y-75700000D03*
D20*
X147977940Y-81150000D03*
X146327940Y-81150000D03*
X147977940Y-90500000D03*
X146327940Y-90500000D03*
D21*
X157062940Y-92975000D03*
X155792940Y-92975000D03*
X154522940Y-92975000D03*
X153252940Y-92975000D03*
X151982940Y-92975000D03*
X150712940Y-92975000D03*
X149442940Y-92975000D03*
X149442940Y-88025000D03*
X150712940Y-88025000D03*
X151982940Y-88025000D03*
X153252940Y-88025000D03*
X154522940Y-88025000D03*
X155792940Y-88025000D03*
X157062940Y-88025000D03*
X157062940Y-84875000D03*
X155792940Y-84875000D03*
X154522940Y-84875000D03*
X153252940Y-84875000D03*
X151982940Y-84875000D03*
X150712940Y-84875000D03*
X149442940Y-84875000D03*
X149442940Y-79925000D03*
X150712940Y-79925000D03*
X151982940Y-79925000D03*
X153252940Y-79925000D03*
X154522940Y-79925000D03*
X155792940Y-79925000D03*
X157062940Y-79925000D03*
D22*
X146327940Y-92000000D03*
X147977940Y-92000000D03*
D23*
X147927940Y-87500000D03*
X146377940Y-87500000D03*
D24*
X158602940Y-79925000D03*
X158602940Y-81475000D03*
D22*
X147925000Y-95150000D03*
X149575000Y-95150000D03*
D20*
X158575000Y-95150000D03*
X156925000Y-95150000D03*
D25*
X158750000Y-97650000D03*
X154750000Y-97650000D03*
D22*
X153925000Y-95150000D03*
X155575000Y-95150000D03*
D24*
X158602940Y-88025000D03*
X158602940Y-89575000D03*
D20*
X152575000Y-95150000D03*
X150925000Y-95150000D03*
D22*
X146327940Y-89000000D03*
X147977940Y-89000000D03*
D26*
X147802940Y-85750000D03*
X146502940Y-85750000D03*
X147152940Y-83750000D03*
D25*
X151750000Y-97650000D03*
X147750000Y-97650000D03*
M02*
