%TF.GenerationSoftware,KiCad,Pcbnew,9.0.4*%
%TF.CreationDate,2026-01-27T00:07:53+00:00*%
%TF.ProjectId,BSPD,42535044-2e6b-4696-9361-645f70636258,1.3.0*%
%TF.SameCoordinates,Original*%
%TF.FileFunction,Legend,Bot*%
%TF.FilePolarity,Positive*%
%FSLAX46Y46*%
G04 Gerber Fmt 4.6, Leading zero omitted, Abs format (unit mm)*
G04 Created by KiCad (PCBNEW 9.0.4) date 2026-01-27 00:07:53*
%MOMM*%
%LPD*%
G01*
G04 APERTURE LIST*
G04 Aperture macros list*
%AMRoundRect*
0 Rectangle with rounded corners*
0 $1 Rounding radius*
0 $2 $3 $4 $5 $6 $7 $8 $9 X,Y pos of 4 corners*
0 Add a 4 corners polygon primitive as box body*
4,1,4,$2,$3,$4,$5,$6,$7,$8,$9,$2,$3,0*
0 Add four circle primitives for the rounded corners*
1,1,$1+$1,$2,$3*
1,1,$1+$1,$4,$5*
1,1,$1+$1,$6,$7*
1,1,$1+$1,$8,$9*
0 Add four rect primitives between the rounded corners*
20,1,$1+$1,$2,$3,$4,$5,0*
20,1,$1+$1,$4,$5,$6,$7,0*
20,1,$1+$1,$6,$7,$8,$9,0*
20,1,$1+$1,$8,$9,$2,$3,0*%
G04 Aperture macros list end*
%ADD10C,0.200000*%
%ADD11C,0.150000*%
%ADD12C,0.120000*%
%ADD13C,0.000000*%
%ADD14C,3.000000*%
%ADD15RoundRect,0.250001X-0.499999X-0.499999X0.499999X-0.499999X0.499999X0.499999X-0.499999X0.499999X0*%
%ADD16C,1.500000*%
%ADD17C,5.600000*%
%ADD18RoundRect,0.250000X0.550000X-0.550000X0.550000X0.550000X-0.550000X0.550000X-0.550000X-0.550000X0*%
%ADD19C,1.600000*%
%ADD20C,1.440000*%
%ADD21R,2.300000X2.300000*%
%ADD22C,2.300000*%
%ADD23RoundRect,0.250000X0.550000X0.550000X-0.550000X0.550000X-0.550000X-0.550000X0.550000X-0.550000X0*%
%ADD24RoundRect,0.200000X0.200000X0.275000X-0.200000X0.275000X-0.200000X-0.275000X0.200000X-0.275000X0*%
%ADD25RoundRect,0.150000X0.150000X-0.825000X0.150000X0.825000X-0.150000X0.825000X-0.150000X-0.825000X0*%
%ADD26RoundRect,0.200000X-0.200000X-0.275000X0.200000X-0.275000X0.200000X0.275000X-0.200000X0.275000X0*%
%ADD27RoundRect,0.225000X0.225000X0.250000X-0.225000X0.250000X-0.225000X-0.250000X0.225000X-0.250000X0*%
%ADD28RoundRect,0.225000X-0.250000X0.225000X-0.250000X-0.225000X0.250000X-0.225000X0.250000X0.225000X0*%
%ADD29RoundRect,0.250000X1.000000X0.650000X-1.000000X0.650000X-1.000000X-0.650000X1.000000X-0.650000X0*%
%ADD30RoundRect,0.112500X0.112500X0.237500X-0.112500X0.237500X-0.112500X-0.237500X0.112500X-0.237500X0*%
G04 APERTURE END LIST*
D10*
G36*
X150108834Y-59372000D02*
G01*
X149726252Y-60222746D01*
X149647606Y-60406026D01*
X149647606Y-59814861D01*
X149647606Y-59372000D01*
X149402777Y-59372000D01*
X149402777Y-60797596D01*
X149732798Y-60797596D01*
X150123000Y-59941378D01*
X150191877Y-59774512D01*
X150191877Y-60403877D01*
X150191877Y-60797596D01*
X150436706Y-60797596D01*
X150436706Y-59372000D01*
X150108834Y-59372000D01*
G37*
G36*
X151259982Y-59358059D02*
G01*
X151366294Y-59389487D01*
X151460637Y-59441109D01*
X151537948Y-59509362D01*
X151599077Y-59593513D01*
X151645024Y-59695279D01*
X151672636Y-59807448D01*
X151682247Y-59934637D01*
X151672850Y-60069285D01*
X151646685Y-60180443D01*
X151602333Y-60279522D01*
X151543419Y-60358643D01*
X151468822Y-60421445D01*
X151378408Y-60467184D01*
X151276811Y-60494168D01*
X151156538Y-60503723D01*
X151033054Y-60492824D01*
X150926950Y-60461713D01*
X150832530Y-60410779D01*
X150754808Y-60343402D01*
X150693191Y-60260276D01*
X150646657Y-60159145D01*
X150618713Y-60047417D01*
X150609445Y-59925942D01*
X150886503Y-59925942D01*
X150890284Y-59996247D01*
X150901256Y-60060569D01*
X150920608Y-60120513D01*
X150947662Y-60170771D01*
X150983832Y-60213090D01*
X151028555Y-60245217D01*
X151081328Y-60265206D01*
X151147745Y-60272376D01*
X151227998Y-60262065D01*
X151290490Y-60233214D01*
X151339525Y-60186012D01*
X151373395Y-60124827D01*
X151396071Y-60041096D01*
X151404591Y-59928092D01*
X151400647Y-59855697D01*
X151389253Y-59790143D01*
X151369704Y-59729172D01*
X151343335Y-59678769D01*
X151308071Y-59636691D01*
X151263517Y-59604909D01*
X151211280Y-59585276D01*
X151147745Y-59578336D01*
X151071054Y-59588478D01*
X151008421Y-59617451D01*
X150956454Y-59665775D01*
X150919866Y-59728045D01*
X150895583Y-59812553D01*
X150886503Y-59925942D01*
X150609445Y-59925942D01*
X150608946Y-59919397D01*
X150618502Y-59781691D01*
X150644996Y-59669096D01*
X150689888Y-59569167D01*
X150748848Y-59490311D01*
X150823475Y-59428152D01*
X150913859Y-59382942D01*
X151015297Y-59356375D01*
X151134654Y-59346989D01*
X151259982Y-59358059D01*
G37*
G36*
X152823838Y-59372000D02*
G01*
X152527718Y-59372000D01*
X152409602Y-59728887D01*
X152373551Y-59852963D01*
X152337501Y-59725565D01*
X152223879Y-59372000D01*
X151926587Y-59372000D01*
X151769197Y-60484965D01*
X152022721Y-60484965D01*
X152102540Y-59847687D01*
X152121102Y-59680820D01*
X152165945Y-59836745D01*
X152277418Y-60178587D01*
X152480725Y-60178587D01*
X152599818Y-59839090D01*
X152651207Y-59678671D01*
X152672016Y-59855796D01*
X152738646Y-60484965D01*
X152980153Y-60484965D01*
X152823838Y-59372000D01*
G37*
G36*
X155284242Y-59372000D02*
G01*
X154988122Y-59372000D01*
X154870006Y-59728887D01*
X154833956Y-59852963D01*
X154797906Y-59725565D01*
X154684284Y-59372000D01*
X154386992Y-59372000D01*
X154229602Y-60484965D01*
X154483126Y-60484965D01*
X154562944Y-59847687D01*
X154581507Y-59680820D01*
X154626350Y-59836745D01*
X154737822Y-60178587D01*
X154941130Y-60178587D01*
X155060223Y-59839090D01*
X155111612Y-59678671D01*
X155132421Y-59855796D01*
X155199050Y-60484965D01*
X155440558Y-60484965D01*
X155284242Y-59372000D01*
G37*
G36*
X156256524Y-60790757D02*
G01*
X156253189Y-60755488D01*
X156243335Y-60722760D01*
X156227560Y-60692857D01*
X156206699Y-60667268D01*
X156181312Y-60646258D01*
X156151500Y-60629948D01*
X156118788Y-60619752D01*
X156082721Y-60616270D01*
X156046571Y-60619738D01*
X156013356Y-60629948D01*
X155983115Y-60646283D01*
X155957571Y-60667268D01*
X155936765Y-60692846D01*
X155920935Y-60722760D01*
X155911155Y-60755484D01*
X155907843Y-60790757D01*
X155911157Y-60826116D01*
X155920935Y-60858852D01*
X155936742Y-60888854D01*
X155957571Y-60914833D01*
X155983161Y-60936263D01*
X156013356Y-60952642D01*
X156046576Y-60962925D01*
X156082721Y-60966417D01*
X156118783Y-60962912D01*
X156151500Y-60952642D01*
X156181266Y-60936288D01*
X156206699Y-60914833D01*
X156227583Y-60888844D01*
X156243335Y-60858852D01*
X156253187Y-60826111D01*
X156256524Y-60790757D01*
G37*
G36*
X155961479Y-60278629D02*
G01*
X155647773Y-60278629D01*
X155647773Y-60484965D01*
X156234640Y-60484965D01*
X156234640Y-59578336D01*
X156554891Y-59578336D01*
X156554891Y-59372000D01*
X155609476Y-59372000D01*
X155609476Y-59578336D01*
X155961479Y-59578336D01*
X155961479Y-60278629D01*
G37*
G36*
X157749043Y-59384505D02*
G01*
X157603670Y-59357247D01*
X157464842Y-59346989D01*
X157359571Y-59353187D01*
X157276287Y-59370046D01*
X157202548Y-59399846D01*
X157145080Y-59440290D01*
X157100461Y-59493230D01*
X157068583Y-59560457D01*
X157050631Y-59637369D01*
X157044061Y-59734358D01*
X157044061Y-60278629D01*
X156745694Y-60278629D01*
X156745694Y-60484965D01*
X157044061Y-60484965D01*
X157044061Y-60770046D01*
X157317320Y-60841364D01*
X157317320Y-60484965D01*
X157749043Y-60484965D01*
X157749043Y-60278629D01*
X157317320Y-60278629D01*
X157317320Y-59753116D01*
X157322890Y-59690756D01*
X157337931Y-59643739D01*
X157360990Y-59608524D01*
X157393662Y-59582955D01*
X157440793Y-59566006D01*
X157507536Y-59559578D01*
X157635324Y-59570911D01*
X157749043Y-59597094D01*
X157749043Y-59384505D01*
G37*
G36*
X158725722Y-59372000D02*
G01*
X158725722Y-60090953D01*
X158718790Y-60163737D01*
X158700813Y-60213172D01*
X158674152Y-60245750D01*
X158638341Y-60265337D01*
X158590216Y-60272376D01*
X158546924Y-60266676D01*
X158504121Y-60249142D01*
X158460669Y-60218057D01*
X158400112Y-60157310D01*
X158330048Y-60070339D01*
X158330048Y-59372000D01*
X158063335Y-59372000D01*
X158063335Y-60916396D01*
X158330048Y-60916396D01*
X158330048Y-60534498D01*
X158316957Y-60332558D01*
X158385736Y-60405049D01*
X158461158Y-60458978D01*
X158548597Y-60492293D01*
X158596986Y-60500746D01*
X158652449Y-60503723D01*
X158734210Y-60496388D01*
X158801046Y-60475879D01*
X158859535Y-60442182D01*
X158907048Y-60397429D01*
X158943929Y-60342427D01*
X158971039Y-60275307D01*
X158986782Y-60201379D01*
X158992337Y-60115572D01*
X158992337Y-59372000D01*
X158725722Y-59372000D01*
G37*
G36*
X160882288Y-60710060D02*
G01*
X160568583Y-60710060D01*
X160568583Y-60916396D01*
X161155450Y-60916396D01*
X161155450Y-59578336D01*
X161475701Y-59578336D01*
X161475701Y-59372000D01*
X160530286Y-59372000D01*
X160530286Y-59578336D01*
X160882288Y-59578336D01*
X160882288Y-60710060D01*
G37*
G36*
X162359469Y-59350995D02*
G01*
X162465471Y-59362816D01*
X162568248Y-59380695D01*
X162661158Y-59403263D01*
X162661158Y-59615852D01*
X162562158Y-59589841D01*
X162469281Y-59572767D01*
X162378204Y-59562754D01*
X162296064Y-59559578D01*
X162228134Y-59564688D01*
X162168764Y-59579313D01*
X162114986Y-59603840D01*
X162070383Y-59636759D01*
X162034367Y-59678640D01*
X162006978Y-59730450D01*
X161990482Y-59789092D01*
X161984605Y-59859704D01*
X162714696Y-59859704D01*
X162719581Y-59941281D01*
X162721242Y-60012013D01*
X162713071Y-60116765D01*
X162689490Y-60209948D01*
X162650053Y-60294681D01*
X162596580Y-60365579D01*
X162528854Y-60423077D01*
X162444661Y-60467282D01*
X162349637Y-60494174D01*
X162235980Y-60503723D01*
X162120832Y-60492635D01*
X162020069Y-60460639D01*
X161930412Y-60408442D01*
X161855547Y-60338517D01*
X161796209Y-60252911D01*
X161750621Y-60148789D01*
X161727742Y-60053535D01*
X161988904Y-60053535D01*
X162003743Y-60130387D01*
X162029545Y-60190856D01*
X162065401Y-60238182D01*
X162111906Y-60274263D01*
X162166170Y-60296050D01*
X162230509Y-60303639D01*
X162275307Y-60299833D01*
X162316287Y-60288692D01*
X162353713Y-60269863D01*
X162386238Y-60242969D01*
X162412707Y-60208740D01*
X162433817Y-60164714D01*
X162446411Y-60114960D01*
X162450230Y-60053535D01*
X161988904Y-60053535D01*
X161727742Y-60053535D01*
X161723122Y-60034302D01*
X161713496Y-59902983D01*
X161723291Y-59771609D01*
X161750621Y-59663137D01*
X161796711Y-59566773D01*
X161857794Y-59489236D01*
X161934613Y-59428026D01*
X162028276Y-59382942D01*
X162132922Y-59356370D01*
X162255617Y-59346989D01*
X162359469Y-59350995D01*
G37*
G36*
X163900055Y-59698015D02*
G01*
X163889042Y-59608267D01*
X163857948Y-59536131D01*
X163809252Y-59475536D01*
X163746475Y-59427101D01*
X163673464Y-59391300D01*
X163589085Y-59366138D01*
X163500399Y-59351799D01*
X163409323Y-59346989D01*
X163289854Y-59350369D01*
X163188527Y-59359787D01*
X163091842Y-59375701D01*
X163002707Y-59397010D01*
X163002707Y-59634609D01*
X163106190Y-59597447D01*
X163207676Y-59572572D01*
X163308677Y-59557970D01*
X163400530Y-59553325D01*
X163497753Y-59562668D01*
X163557334Y-59585859D01*
X163587101Y-59610816D01*
X163603753Y-59638679D01*
X163609309Y-59670757D01*
X163598367Y-59716577D01*
X163583755Y-59735775D01*
X163557334Y-59756340D01*
X163472630Y-59795517D01*
X163329504Y-59840848D01*
X163250489Y-59865984D01*
X163185792Y-59892628D01*
X163128136Y-59924937D01*
X163083600Y-59960722D01*
X163048158Y-60003201D01*
X163022930Y-60051776D01*
X163008062Y-60106305D01*
X163002707Y-60173409D01*
X163010362Y-60239128D01*
X163033286Y-60300904D01*
X163070790Y-60356453D01*
X163124535Y-60406124D01*
X163190592Y-60445581D01*
X163275966Y-60477540D01*
X163370906Y-60496745D01*
X163487969Y-60503723D01*
X163673789Y-60493953D01*
X163817013Y-60472460D01*
X163817013Y-60253618D01*
X163722860Y-60280422D01*
X163638325Y-60297191D01*
X163554798Y-60306741D01*
X163472728Y-60309892D01*
X163395891Y-60301681D01*
X163341032Y-60279801D01*
X163312846Y-60256501D01*
X163296775Y-60229150D01*
X163291304Y-60196270D01*
X163301074Y-60151525D01*
X163314565Y-60133367D01*
X163339860Y-60113423D01*
X163420753Y-60074637D01*
X163558018Y-60030576D01*
X163649892Y-60001138D01*
X163719706Y-59972251D01*
X163780602Y-59937947D01*
X163825122Y-59901909D01*
X163859652Y-59859628D01*
X163882568Y-59812516D01*
X163895467Y-59760229D01*
X163900055Y-59698015D01*
G37*
G36*
X165130258Y-59698015D02*
G01*
X165119244Y-59608267D01*
X165088150Y-59536131D01*
X165039454Y-59475536D01*
X164976678Y-59427101D01*
X164903666Y-59391300D01*
X164819288Y-59366138D01*
X164730602Y-59351799D01*
X164639525Y-59346989D01*
X164520057Y-59350369D01*
X164418729Y-59359787D01*
X164322045Y-59375701D01*
X164232909Y-59397010D01*
X164232909Y-59634609D01*
X164336392Y-59597447D01*
X164437878Y-59572572D01*
X164538879Y-59557970D01*
X164630732Y-59553325D01*
X164727956Y-59562668D01*
X164787536Y-59585859D01*
X164817303Y-59610816D01*
X164833955Y-59638679D01*
X164839511Y-59670757D01*
X164828569Y-59716577D01*
X164813957Y-59735775D01*
X164787536Y-59756340D01*
X164702833Y-59795517D01*
X164559706Y-59840848D01*
X164480691Y-59865984D01*
X164415994Y-59892628D01*
X164358338Y-59924937D01*
X164313803Y-59960722D01*
X164278360Y-60003201D01*
X164253133Y-60051776D01*
X164238264Y-60106305D01*
X164232909Y-60173409D01*
X164240564Y-60239128D01*
X164263489Y-60300904D01*
X164300992Y-60356453D01*
X164354738Y-60406124D01*
X164420795Y-60445581D01*
X164506168Y-60477540D01*
X164601108Y-60496745D01*
X164718171Y-60503723D01*
X164903991Y-60493953D01*
X165047215Y-60472460D01*
X165047215Y-60253618D01*
X164953062Y-60280422D01*
X164868527Y-60297191D01*
X164785001Y-60306741D01*
X164702930Y-60309892D01*
X164626094Y-60301681D01*
X164571235Y-60279801D01*
X164543048Y-60256501D01*
X164526977Y-60229150D01*
X164521507Y-60196270D01*
X164531277Y-60151525D01*
X164544767Y-60133367D01*
X164570062Y-60113423D01*
X164650956Y-60074637D01*
X164788220Y-60030576D01*
X164880094Y-60001138D01*
X164949909Y-59972251D01*
X165010804Y-59937947D01*
X165055324Y-59901909D01*
X165089854Y-59859628D01*
X165112770Y-59812516D01*
X165125669Y-59760229D01*
X165130258Y-59698015D01*
G37*
G36*
X167512016Y-59796298D02*
G01*
X167503834Y-59698664D01*
X167480265Y-59612628D01*
X167440966Y-59535196D01*
X167387355Y-59470478D01*
X167319969Y-59418869D01*
X167235436Y-59379229D01*
X167140375Y-59355516D01*
X167024508Y-59346989D01*
X166937125Y-59351932D01*
X166854026Y-59366528D01*
X166775251Y-59389245D01*
X166710802Y-59415768D01*
X166710802Y-59678378D01*
X166774696Y-59636466D01*
X166852854Y-59602662D01*
X166938143Y-59580094D01*
X167024508Y-59572083D01*
X167060653Y-59575254D01*
X167099344Y-59585175D01*
X167135924Y-59602592D01*
X167168806Y-59629041D01*
X167195978Y-59663507D01*
X167219023Y-59709641D01*
X167233411Y-59762934D01*
X167238757Y-59833032D01*
X167238757Y-60578755D01*
X166721744Y-60578755D01*
X166721744Y-60797596D01*
X167512016Y-60797596D01*
X167512016Y-59796298D01*
G37*
G36*
X168482816Y-59358059D02*
G01*
X168589127Y-59389487D01*
X168683470Y-59441109D01*
X168760781Y-59509362D01*
X168821910Y-59593513D01*
X168867857Y-59695279D01*
X168895469Y-59807448D01*
X168905080Y-59934637D01*
X168895684Y-60069285D01*
X168869518Y-60180443D01*
X168825166Y-60279522D01*
X168766252Y-60358643D01*
X168691655Y-60421445D01*
X168601242Y-60467184D01*
X168499644Y-60494168D01*
X168379371Y-60503723D01*
X168255888Y-60492824D01*
X168149783Y-60461713D01*
X168055363Y-60410779D01*
X167977641Y-60343402D01*
X167916024Y-60260276D01*
X167869490Y-60159145D01*
X167841546Y-60047417D01*
X167832278Y-59925942D01*
X168109337Y-59925942D01*
X168113118Y-59996247D01*
X168124089Y-60060569D01*
X168143441Y-60120513D01*
X168170495Y-60170771D01*
X168206665Y-60213090D01*
X168251388Y-60245217D01*
X168304161Y-60265206D01*
X168370579Y-60272376D01*
X168450831Y-60262065D01*
X168513323Y-60233214D01*
X168562358Y-60186012D01*
X168596228Y-60124827D01*
X168618904Y-60041096D01*
X168627424Y-59928092D01*
X168623480Y-59855697D01*
X168612086Y-59790143D01*
X168592538Y-59729172D01*
X168566168Y-59678769D01*
X168530904Y-59636691D01*
X168486350Y-59604909D01*
X168434113Y-59585276D01*
X168370579Y-59578336D01*
X168293887Y-59588478D01*
X168231255Y-59617451D01*
X168179288Y-59665775D01*
X168142699Y-59728045D01*
X168118416Y-59812553D01*
X168109337Y-59925942D01*
X167832278Y-59925942D01*
X167831779Y-59919397D01*
X167841335Y-59781691D01*
X167867829Y-59669096D01*
X167912721Y-59569167D01*
X167971681Y-59490311D01*
X168046308Y-59428152D01*
X168136692Y-59382942D01*
X168238130Y-59356375D01*
X168357487Y-59346989D01*
X168482816Y-59358059D01*
G37*
G36*
X169740683Y-59350995D02*
G01*
X169846685Y-59362816D01*
X169949462Y-59380695D01*
X170042372Y-59403263D01*
X170042372Y-59615852D01*
X169943373Y-59589841D01*
X169850495Y-59572767D01*
X169759418Y-59562754D01*
X169677278Y-59559578D01*
X169609349Y-59564688D01*
X169549979Y-59579313D01*
X169496200Y-59603840D01*
X169451598Y-59636759D01*
X169415581Y-59678640D01*
X169388192Y-59730450D01*
X169371696Y-59789092D01*
X169365819Y-59859704D01*
X170095910Y-59859704D01*
X170100795Y-59941281D01*
X170102456Y-60012013D01*
X170094286Y-60116765D01*
X170070704Y-60209948D01*
X170031267Y-60294681D01*
X169977794Y-60365579D01*
X169910068Y-60423077D01*
X169825875Y-60467282D01*
X169730851Y-60494174D01*
X169617194Y-60503723D01*
X169502046Y-60492635D01*
X169401284Y-60460639D01*
X169311626Y-60408442D01*
X169236762Y-60338517D01*
X169177424Y-60252911D01*
X169131835Y-60148789D01*
X169108956Y-60053535D01*
X169370118Y-60053535D01*
X169384957Y-60130387D01*
X169410760Y-60190856D01*
X169446615Y-60238182D01*
X169493120Y-60274263D01*
X169547385Y-60296050D01*
X169611723Y-60303639D01*
X169656522Y-60299833D01*
X169697501Y-60288692D01*
X169734927Y-60269863D01*
X169767452Y-60242969D01*
X169793922Y-60208740D01*
X169815031Y-60164714D01*
X169827625Y-60114960D01*
X169831444Y-60053535D01*
X169370118Y-60053535D01*
X169108956Y-60053535D01*
X169104336Y-60034302D01*
X169094710Y-59902983D01*
X169104505Y-59771609D01*
X169131835Y-59663137D01*
X169177925Y-59566773D01*
X169239009Y-59489236D01*
X169315827Y-59428026D01*
X169409490Y-59382942D01*
X169514137Y-59356370D01*
X169636831Y-59346989D01*
X169740683Y-59350995D01*
G37*
G36*
X172161579Y-59380132D02*
G01*
X172276191Y-59402546D01*
X172369007Y-59436920D01*
X172443768Y-59481909D01*
X172506659Y-59542195D01*
X172551843Y-59615113D01*
X172580140Y-59703245D01*
X172590216Y-59810464D01*
X172584701Y-59877172D01*
X172568918Y-59935126D01*
X172543490Y-59987690D01*
X172510983Y-60031846D01*
X172471344Y-60069043D01*
X172425694Y-60098573D01*
X172375733Y-60120071D01*
X172323503Y-60133060D01*
X172374080Y-60155387D01*
X172416413Y-60184156D01*
X172452589Y-60219346D01*
X172481967Y-60259187D01*
X172504709Y-60303461D01*
X172520753Y-60352195D01*
X172530190Y-60403333D01*
X172533356Y-60456047D01*
X172525046Y-60539841D01*
X172501663Y-60608652D01*
X172464123Y-60665611D01*
X172411430Y-60712697D01*
X172349844Y-60746864D01*
X172271033Y-60773482D01*
X172171180Y-60791121D01*
X172045847Y-60797596D01*
X171584619Y-60797596D01*
X171584619Y-60585007D01*
X171851332Y-60585007D01*
X172014193Y-60585007D01*
X172076169Y-60581615D01*
X172124005Y-60572502D01*
X172166476Y-60556948D01*
X172198353Y-60537331D01*
X172223518Y-60511953D01*
X172240460Y-60482034D01*
X172250168Y-60448205D01*
X172253551Y-60409348D01*
X172250336Y-60369094D01*
X172240949Y-60332362D01*
X172224459Y-60298852D01*
X172199427Y-60268957D01*
X172167236Y-60244790D01*
X172125080Y-60225579D01*
X172076952Y-60214111D01*
X172014193Y-60209850D01*
X171851332Y-60209850D01*
X171851332Y-60585007D01*
X171584619Y-60585007D01*
X171584619Y-60003514D01*
X171851332Y-60003514D01*
X172018590Y-60003514D01*
X172113037Y-59996546D01*
X172181840Y-59978152D01*
X172231081Y-59950953D01*
X172269564Y-59911571D01*
X172292518Y-59863938D01*
X172300544Y-59805384D01*
X172296250Y-59761666D01*
X172283545Y-59721071D01*
X172262729Y-59684381D01*
X172233817Y-59652683D01*
X172197919Y-59627274D01*
X172152435Y-59607254D01*
X172101476Y-59595188D01*
X172039302Y-59590841D01*
X171851332Y-59590841D01*
X171851332Y-60003514D01*
X171584619Y-60003514D01*
X171584619Y-59372000D01*
X172020739Y-59372000D01*
X172161579Y-59380132D01*
G37*
G36*
X173403625Y-59358059D02*
G01*
X173509937Y-59389487D01*
X173604280Y-59441109D01*
X173681591Y-59509362D01*
X173742720Y-59593513D01*
X173788667Y-59695279D01*
X173816279Y-59807448D01*
X173825889Y-59934637D01*
X173816493Y-60069285D01*
X173790327Y-60180443D01*
X173745975Y-60279522D01*
X173687062Y-60358643D01*
X173612465Y-60421445D01*
X173522051Y-60467184D01*
X173420454Y-60494168D01*
X173300181Y-60503723D01*
X173176697Y-60492824D01*
X173070593Y-60461713D01*
X172976172Y-60410779D01*
X172898450Y-60343402D01*
X172836833Y-60260276D01*
X172790300Y-60159145D01*
X172762356Y-60047417D01*
X172753087Y-59925942D01*
X173030146Y-59925942D01*
X173033927Y-59996247D01*
X173044898Y-60060569D01*
X173064251Y-60120513D01*
X173091304Y-60170771D01*
X173127474Y-60213090D01*
X173172198Y-60245217D01*
X173224971Y-60265206D01*
X173291388Y-60272376D01*
X173371641Y-60262065D01*
X173434133Y-60233214D01*
X173483168Y-60186012D01*
X173517037Y-60124827D01*
X173539714Y-60041096D01*
X173548234Y-59928092D01*
X173544290Y-59855697D01*
X173532896Y-59790143D01*
X173513347Y-59729172D01*
X173486978Y-59678769D01*
X173451713Y-59636691D01*
X173407159Y-59604909D01*
X173354923Y-59585276D01*
X173291388Y-59578336D01*
X173214697Y-59588478D01*
X173152064Y-59617451D01*
X173100097Y-59665775D01*
X173063508Y-59728045D01*
X173039226Y-59812553D01*
X173030146Y-59925942D01*
X172753087Y-59925942D01*
X172752588Y-59919397D01*
X172762145Y-59781691D01*
X172788639Y-59669096D01*
X172833530Y-59569167D01*
X172892491Y-59490311D01*
X172967118Y-59428152D01*
X173057501Y-59382942D01*
X173158939Y-59356375D01*
X173278297Y-59346989D01*
X173403625Y-59358059D01*
G37*
G36*
X174454485Y-59350545D02*
G01*
X174504591Y-59360667D01*
X174551874Y-59377067D01*
X174595840Y-59398866D01*
X174675659Y-59458364D01*
X174747857Y-59535935D01*
X174754403Y-59372000D01*
X174984968Y-59372000D01*
X174984968Y-60916396D01*
X174718353Y-60916396D01*
X174718353Y-60484086D01*
X174643419Y-60498252D01*
X174559888Y-60503723D01*
X174439431Y-60494592D01*
X174331374Y-60468161D01*
X174233101Y-60422751D01*
X174149951Y-60358741D01*
X174082695Y-60276697D01*
X174030272Y-60172628D01*
X174007060Y-60096657D01*
X173992307Y-60008823D01*
X173987717Y-59919494D01*
X174266894Y-59919494D01*
X174272031Y-60002919D01*
X174286531Y-60074344D01*
X174311092Y-60139307D01*
X174342805Y-60191092D01*
X174383371Y-60233720D01*
X174430830Y-60265049D01*
X174484688Y-60284431D01*
X174546699Y-60291134D01*
X174640195Y-60283514D01*
X174718353Y-60263974D01*
X174718353Y-59781546D01*
X174648317Y-59693550D01*
X174588220Y-59632655D01*
X174545140Y-59601590D01*
X174502533Y-59584048D01*
X174459260Y-59578336D01*
X174415201Y-59583216D01*
X174377292Y-59597289D01*
X174344730Y-59621284D01*
X174316622Y-59657666D01*
X174295775Y-59702642D01*
X174279399Y-59763570D01*
X174270295Y-59831548D01*
X174266894Y-59919494D01*
X173987717Y-59919494D01*
X173987090Y-59907282D01*
X173994210Y-59782712D01*
X174014347Y-59675251D01*
X174048757Y-59577044D01*
X174093579Y-59498517D01*
X174151979Y-59433878D01*
X174222051Y-59386361D01*
X174302648Y-59357160D01*
X174397027Y-59346989D01*
X174454485Y-59350545D01*
G37*
G36*
X175861944Y-58923407D02*
G01*
X175971514Y-58945063D01*
X176070365Y-58980965D01*
X176146880Y-59025175D01*
X176209302Y-59081180D01*
X176252393Y-59144463D01*
X176278616Y-59215283D01*
X176287369Y-59290520D01*
X176280169Y-59355356D01*
X176259427Y-59410981D01*
X176225981Y-59459556D01*
X176180195Y-59500862D01*
X176125060Y-59533159D01*
X176057292Y-59558113D01*
X175983231Y-59573590D01*
X175897166Y-59580583D01*
X175633775Y-59590450D01*
X175580725Y-59600220D01*
X175540279Y-59622397D01*
X175514584Y-59653367D01*
X175505889Y-59688050D01*
X175509237Y-59715057D01*
X175518981Y-59738461D01*
X175550635Y-59779201D01*
X175579138Y-59765777D01*
X175624884Y-59752334D01*
X175675376Y-59743861D01*
X175732058Y-59740904D01*
X175827845Y-59747259D01*
X175911919Y-59765426D01*
X175988649Y-59796436D01*
X176051821Y-59838113D01*
X176103612Y-59891784D01*
X176142581Y-59957303D01*
X176166405Y-60032007D01*
X176174822Y-60121239D01*
X176171672Y-60165539D01*
X176162219Y-60208971D01*
X176145386Y-60250549D01*
X176119036Y-60291134D01*
X176293914Y-60291134D01*
X176293914Y-60484965D01*
X175909183Y-60484965D01*
X175826629Y-60499522D01*
X175732058Y-60503723D01*
X175638295Y-60497111D01*
X175554445Y-60478029D01*
X175477773Y-60445864D01*
X175413956Y-60402607D01*
X175361571Y-60347404D01*
X175321632Y-60280192D01*
X175296963Y-60204078D01*
X175288318Y-60114693D01*
X175288404Y-60113716D01*
X175535394Y-60113716D01*
X175547411Y-60190995D01*
X175562561Y-60225933D01*
X175583461Y-60255768D01*
X175610316Y-60280416D01*
X175644131Y-60299829D01*
X175682795Y-60311854D01*
X175729909Y-60316145D01*
X175789775Y-60309847D01*
X175837099Y-60292351D01*
X175874696Y-60264463D01*
X175902765Y-60226971D01*
X175920347Y-60179836D01*
X175926671Y-60120262D01*
X175914654Y-60045133D01*
X175899546Y-60011275D01*
X175878604Y-59982020D01*
X175851794Y-59957841D01*
X175817934Y-59938545D01*
X175779269Y-59926521D01*
X175732156Y-59922230D01*
X175672288Y-59928525D01*
X175624927Y-59946019D01*
X175587271Y-59973912D01*
X175559058Y-60011304D01*
X175541603Y-60057103D01*
X175535394Y-60113716D01*
X175288404Y-60113716D01*
X175295561Y-60032697D01*
X175315087Y-59970981D01*
X175345769Y-59917248D01*
X175382400Y-59873186D01*
X175338632Y-59819648D01*
X175301995Y-59762788D01*
X175276301Y-59701141D01*
X175266531Y-59631678D01*
X175273463Y-59578810D01*
X175294375Y-59528999D01*
X175328117Y-59485813D01*
X175375757Y-59450353D01*
X175305806Y-59393786D01*
X175256566Y-59335656D01*
X175227062Y-59273228D01*
X175220639Y-59226724D01*
X175490551Y-59226724D01*
X175494361Y-59267659D01*
X175509602Y-59305859D01*
X175541353Y-59343960D01*
X175593328Y-59384798D01*
X175828290Y-59380401D01*
X175902051Y-59371316D01*
X175959986Y-59350897D01*
X175998283Y-59317582D01*
X176008381Y-59295945D01*
X176011960Y-59268636D01*
X176008423Y-59237056D01*
X175997697Y-59206305D01*
X175979396Y-59178694D01*
X175950704Y-59153646D01*
X175914834Y-59133955D01*
X175866001Y-59117108D01*
X175811085Y-59106951D01*
X175738702Y-59103137D01*
X175627828Y-59111691D01*
X175555519Y-59133228D01*
X175518407Y-59157972D01*
X175497628Y-59188500D01*
X175490551Y-59226724D01*
X175220639Y-59226724D01*
X175217292Y-59202495D01*
X175224746Y-59141763D01*
X175246796Y-59086822D01*
X175283322Y-59038792D01*
X175338046Y-58996061D01*
X175405320Y-58963400D01*
X175496510Y-58936759D01*
X175598079Y-58921295D01*
X175727759Y-58915558D01*
X175861944Y-58923407D01*
G37*
G36*
X177121898Y-59350995D02*
G01*
X177227899Y-59362816D01*
X177330676Y-59380695D01*
X177423586Y-59403263D01*
X177423586Y-59615852D01*
X177324587Y-59589841D01*
X177231709Y-59572767D01*
X177140632Y-59562754D01*
X177058492Y-59559578D01*
X176990563Y-59564688D01*
X176931193Y-59579313D01*
X176877415Y-59603840D01*
X176832812Y-59636759D01*
X176796795Y-59678640D01*
X176769406Y-59730450D01*
X176752910Y-59789092D01*
X176747034Y-59859704D01*
X177477124Y-59859704D01*
X177482009Y-59941281D01*
X177483670Y-60012013D01*
X177475500Y-60116765D01*
X177451919Y-60209948D01*
X177412481Y-60294681D01*
X177359009Y-60365579D01*
X177291282Y-60423077D01*
X177207090Y-60467282D01*
X177112065Y-60494174D01*
X176998408Y-60503723D01*
X176883260Y-60492635D01*
X176782498Y-60460639D01*
X176692840Y-60408442D01*
X176617976Y-60338517D01*
X176558638Y-60252911D01*
X176513049Y-60148789D01*
X176490170Y-60053535D01*
X176751332Y-60053535D01*
X176766171Y-60130387D01*
X176791974Y-60190856D01*
X176827829Y-60238182D01*
X176874335Y-60274263D01*
X176928599Y-60296050D01*
X176992937Y-60303639D01*
X177037736Y-60299833D01*
X177078715Y-60288692D01*
X177116141Y-60269863D01*
X177148667Y-60242969D01*
X177175136Y-60208740D01*
X177196245Y-60164714D01*
X177208839Y-60114960D01*
X177212658Y-60053535D01*
X176751332Y-60053535D01*
X176490170Y-60053535D01*
X176485550Y-60034302D01*
X176475924Y-59902983D01*
X176485719Y-59771609D01*
X176513049Y-59663137D01*
X176559139Y-59566773D01*
X176620223Y-59489236D01*
X176697042Y-59428026D01*
X176790704Y-59382942D01*
X176895351Y-59356370D01*
X177018046Y-59346989D01*
X177121898Y-59350995D01*
G37*
G36*
X178662484Y-59698015D02*
G01*
X178651471Y-59608267D01*
X178620376Y-59536131D01*
X178571680Y-59475536D01*
X178508904Y-59427101D01*
X178435893Y-59391300D01*
X178351514Y-59366138D01*
X178262828Y-59351799D01*
X178171751Y-59346989D01*
X178052283Y-59350369D01*
X177950956Y-59359787D01*
X177854271Y-59375701D01*
X177765136Y-59397010D01*
X177765136Y-59634609D01*
X177868618Y-59597447D01*
X177970104Y-59572572D01*
X178071105Y-59557970D01*
X178162958Y-59553325D01*
X178260182Y-59562668D01*
X178319762Y-59585859D01*
X178349529Y-59610816D01*
X178366181Y-59638679D01*
X178371737Y-59670757D01*
X178360795Y-59716577D01*
X178346183Y-59735775D01*
X178319762Y-59756340D01*
X178235059Y-59795517D01*
X178091933Y-59840848D01*
X178012917Y-59865984D01*
X177948220Y-59892628D01*
X177890565Y-59924937D01*
X177846029Y-59960722D01*
X177810586Y-60003201D01*
X177785359Y-60051776D01*
X177770491Y-60106305D01*
X177765136Y-60173409D01*
X177772790Y-60239128D01*
X177795715Y-60300904D01*
X177833218Y-60356453D01*
X177886964Y-60406124D01*
X177953021Y-60445581D01*
X178038394Y-60477540D01*
X178133335Y-60496745D01*
X178250397Y-60503723D01*
X178436217Y-60493953D01*
X178579441Y-60472460D01*
X178579441Y-60253618D01*
X178485288Y-60280422D01*
X178400753Y-60297191D01*
X178317227Y-60306741D01*
X178235157Y-60309892D01*
X178158320Y-60301681D01*
X178103461Y-60279801D01*
X178075274Y-60256501D01*
X178059203Y-60229150D01*
X178053733Y-60196270D01*
X178063503Y-60151525D01*
X178076993Y-60133367D01*
X178102288Y-60113423D01*
X178183182Y-60074637D01*
X178320446Y-60030576D01*
X178412320Y-60001138D01*
X178482135Y-59972251D01*
X178543030Y-59937947D01*
X178587550Y-59901909D01*
X178622080Y-59859628D01*
X178644996Y-59812516D01*
X178657895Y-59760229D01*
X178662484Y-59698015D01*
G37*
G36*
X179554947Y-59815935D02*
G01*
X179326531Y-59815935D01*
X179286085Y-60916396D01*
X179595394Y-60916396D01*
X179554947Y-59815935D01*
G37*
G36*
X179440251Y-59690883D02*
G01*
X179474402Y-59687536D01*
X179506392Y-59677596D01*
X179535610Y-59661829D01*
X179560418Y-59641253D01*
X179597055Y-59586640D01*
X179607262Y-59554283D01*
X179610732Y-59518936D01*
X179607265Y-59483575D01*
X179597055Y-59451134D01*
X179560418Y-59396619D01*
X179535610Y-59376043D01*
X179506392Y-59360276D01*
X179474402Y-59350336D01*
X179440251Y-59346989D01*
X179406100Y-59350336D01*
X179374110Y-59360276D01*
X179344874Y-59376038D01*
X179319986Y-59396619D01*
X179299584Y-59421688D01*
X179283935Y-59451134D01*
X179274168Y-59483548D01*
X179270844Y-59518936D01*
X179274171Y-59554311D01*
X179283935Y-59586640D01*
X179299590Y-59616168D01*
X179319986Y-59641253D01*
X179344874Y-59661834D01*
X179374110Y-59677596D01*
X179406100Y-59687536D01*
X179440251Y-59690883D01*
G37*
D11*
G36*
X145333705Y-81565000D02*
G01*
X145165666Y-81565000D01*
X145165666Y-81197658D01*
X145133548Y-81197658D01*
X145092729Y-81202999D01*
X145058749Y-81218358D01*
X145030990Y-81243452D01*
X145009228Y-81279785D01*
X144883504Y-81565000D01*
X144686095Y-81565000D01*
X144828855Y-81267573D01*
X144857773Y-81214654D01*
X144883565Y-81179890D01*
X144913016Y-81154644D01*
X144943649Y-81142276D01*
X144902533Y-81132774D01*
X144865430Y-81118401D01*
X144831884Y-81098551D01*
X144803637Y-81073705D01*
X144780720Y-81043695D01*
X144763276Y-81007821D01*
X144752684Y-80967884D01*
X144750213Y-80936685D01*
X144925209Y-80936685D01*
X144928403Y-80966593D01*
X144937543Y-80991945D01*
X144952318Y-81013992D01*
X144972348Y-81032306D01*
X144996632Y-81046262D01*
X145026692Y-81056669D01*
X145059458Y-81062670D01*
X145097339Y-81064790D01*
X145165666Y-81064790D01*
X145165666Y-80814685D01*
X145091904Y-80814685D01*
X145036730Y-80818459D01*
X144996185Y-80828433D01*
X144966913Y-80843140D01*
X144944430Y-80865192D01*
X144930367Y-80895434D01*
X144925209Y-80936685D01*
X144750213Y-80936685D01*
X144748926Y-80920443D01*
X144755047Y-80855517D01*
X144771824Y-80805099D01*
X144799660Y-80762338D01*
X144837098Y-80728651D01*
X144882739Y-80703930D01*
X144939558Y-80686641D01*
X145001468Y-80677314D01*
X145073403Y-80674002D01*
X145333705Y-80674002D01*
X145333705Y-81565000D01*
G37*
G36*
X144626317Y-81240828D02*
G01*
X144626317Y-81385237D01*
X144210982Y-81385237D01*
X144210982Y-81565000D01*
X144048377Y-81565000D01*
X144048377Y-81385237D01*
X143913127Y-81385237D01*
X143913127Y-81236737D01*
X144048377Y-81236737D01*
X144208906Y-81236737D01*
X144463040Y-81236737D01*
X144208906Y-80835263D01*
X144208906Y-81236737D01*
X144048377Y-81236737D01*
X144048377Y-80674002D01*
X144277904Y-80674002D01*
X144626317Y-81240828D01*
G37*
G36*
X145318143Y-90915000D02*
G01*
X145150104Y-90915000D01*
X145150104Y-90547658D01*
X145117986Y-90547658D01*
X145077167Y-90552999D01*
X145043187Y-90568358D01*
X145015428Y-90593452D01*
X144993666Y-90629785D01*
X144867942Y-90915000D01*
X144670533Y-90915000D01*
X144813293Y-90617573D01*
X144842211Y-90564654D01*
X144868003Y-90529890D01*
X144897454Y-90504644D01*
X144928087Y-90492276D01*
X144886971Y-90482774D01*
X144849868Y-90468401D01*
X144816322Y-90448551D01*
X144788075Y-90423705D01*
X144765158Y-90393695D01*
X144747714Y-90357821D01*
X144737122Y-90317884D01*
X144734651Y-90286685D01*
X144909647Y-90286685D01*
X144912841Y-90316593D01*
X144921981Y-90341945D01*
X144936756Y-90363992D01*
X144956786Y-90382306D01*
X144981070Y-90396262D01*
X145011130Y-90406669D01*
X145043896Y-90412670D01*
X145081777Y-90414790D01*
X145150104Y-90414790D01*
X145150104Y-90164685D01*
X145076342Y-90164685D01*
X145021168Y-90168459D01*
X144980623Y-90178433D01*
X144951351Y-90193140D01*
X144928868Y-90215192D01*
X144914805Y-90245434D01*
X144909647Y-90286685D01*
X144734651Y-90286685D01*
X144733364Y-90270443D01*
X144739485Y-90205517D01*
X144756262Y-90155099D01*
X144784098Y-90112338D01*
X144821536Y-90078651D01*
X144867177Y-90053930D01*
X144923996Y-90036641D01*
X144985906Y-90027314D01*
X145057841Y-90024002D01*
X145318143Y-90024002D01*
X145318143Y-90915000D01*
G37*
G36*
X144533513Y-90915000D02*
G01*
X144533513Y-90766500D01*
X144306062Y-90766500D01*
X144306062Y-90192285D01*
X144504143Y-90301461D01*
X144558792Y-90164685D01*
X144275348Y-90016186D01*
X144135275Y-90016186D01*
X144135275Y-90766500D01*
X143939209Y-90766500D01*
X143939209Y-90915000D01*
X144533513Y-90915000D01*
G37*
G36*
X143764636Y-90915000D02*
G01*
X143764636Y-90766500D01*
X143537185Y-90766500D01*
X143537185Y-90192285D01*
X143735266Y-90301461D01*
X143789915Y-90164685D01*
X143506472Y-90016186D01*
X143366398Y-90016186D01*
X143366398Y-90766500D01*
X143170332Y-90766500D01*
X143170332Y-90915000D01*
X143764636Y-90915000D01*
G37*
G36*
X158689982Y-91390893D02*
G01*
X158772124Y-91384841D01*
X158839642Y-91367995D01*
X158899505Y-91339661D01*
X158947048Y-91302416D01*
X158984395Y-91255510D01*
X159011772Y-91198247D01*
X159027902Y-91134377D01*
X159033571Y-91060249D01*
X159027721Y-90977652D01*
X159011772Y-90912666D01*
X158984599Y-90856034D01*
X158949063Y-90812893D01*
X158904256Y-90780246D01*
X158849534Y-90757572D01*
X158788819Y-90744990D01*
X158717948Y-90740536D01*
X158126942Y-90740536D01*
X158126942Y-90908575D01*
X158708972Y-90908575D01*
X158752702Y-90910650D01*
X158788901Y-90916390D01*
X158821568Y-90927402D01*
X158847946Y-90943746D01*
X158869157Y-90965625D01*
X158884522Y-90992594D01*
X158893453Y-91024130D01*
X158896795Y-91066417D01*
X158893937Y-91106238D01*
X158886232Y-91136759D01*
X158872353Y-91163085D01*
X158852038Y-91184569D01*
X158826006Y-91200916D01*
X158791587Y-91213268D01*
X158752682Y-91220249D01*
X158702133Y-91222854D01*
X158126942Y-91222854D01*
X158126942Y-91390893D01*
X158689982Y-91390893D01*
G37*
G36*
X158747196Y-92146764D02*
G01*
X158811113Y-92140418D01*
X158866509Y-92122156D01*
X158915091Y-92091378D01*
X158956696Y-92046685D01*
X158988730Y-91991146D01*
X159013787Y-91918580D01*
X159028266Y-91837808D01*
X159033571Y-91736924D01*
X159032411Y-91688015D01*
X159029297Y-91637151D01*
X159024595Y-91587936D01*
X159017940Y-91544949D01*
X158873348Y-91544949D01*
X158887453Y-91641608D01*
X158892887Y-91753289D01*
X158890330Y-91808006D01*
X158883423Y-91850986D01*
X158871356Y-91889544D01*
X158856006Y-91918580D01*
X158835687Y-91941983D01*
X158811676Y-91957903D01*
X158784012Y-91967285D01*
X158752081Y-91970543D01*
X158723884Y-91967231D01*
X158698897Y-91957537D01*
X158677197Y-91941520D01*
X158658353Y-91917908D01*
X158644021Y-91888922D01*
X158632463Y-91849948D01*
X158625731Y-91806708D01*
X158623243Y-91751945D01*
X158623243Y-91652905D01*
X158494283Y-91652905D01*
X158494283Y-91743763D01*
X158491376Y-91794655D01*
X158483719Y-91832179D01*
X158470837Y-91864887D01*
X158455509Y-91888233D01*
X158436039Y-91906175D01*
X158413683Y-91917908D01*
X158389000Y-91924578D01*
X158362941Y-91926823D01*
X158328332Y-91922552D01*
X158301386Y-91910639D01*
X158280265Y-91891286D01*
X158265629Y-91865966D01*
X158255743Y-91830395D01*
X158251994Y-91781315D01*
X158254668Y-91728368D01*
X158262680Y-91676108D01*
X158291073Y-91568885D01*
X158150389Y-91568885D01*
X158132620Y-91627626D01*
X158120591Y-91683618D01*
X158113447Y-91740344D01*
X158111310Y-91799756D01*
X158115501Y-91871039D01*
X158127064Y-91929204D01*
X158146641Y-91981577D01*
X158171821Y-92022811D01*
X158204232Y-92056165D01*
X158242652Y-92079841D01*
X158286114Y-92094043D01*
X158335647Y-92098953D01*
X158388762Y-92094399D01*
X158431992Y-92081710D01*
X158467294Y-92061706D01*
X158497591Y-92034227D01*
X158523213Y-91999855D01*
X158544230Y-91957537D01*
X158553719Y-91999107D01*
X158567800Y-92035389D01*
X158587097Y-92068002D01*
X158610848Y-92095167D01*
X158639093Y-92117199D01*
X158671359Y-92133453D01*
X158706778Y-92143328D01*
X158747196Y-92146764D01*
G37*
G36*
X158689982Y-83290893D02*
G01*
X158772124Y-83284841D01*
X158839642Y-83267995D01*
X158899505Y-83239661D01*
X158947048Y-83202416D01*
X158984395Y-83155510D01*
X159011772Y-83098247D01*
X159027902Y-83034377D01*
X159033571Y-82960249D01*
X159027721Y-82877652D01*
X159011772Y-82812666D01*
X158984599Y-82756034D01*
X158949063Y-82712893D01*
X158904256Y-82680246D01*
X158849534Y-82657572D01*
X158788819Y-82644990D01*
X158717948Y-82640536D01*
X158126942Y-82640536D01*
X158126942Y-82808575D01*
X158708972Y-82808575D01*
X158752702Y-82810650D01*
X158788901Y-82816390D01*
X158821568Y-82827402D01*
X158847946Y-82843746D01*
X158869157Y-82865625D01*
X158884522Y-82892594D01*
X158893453Y-82924130D01*
X158896795Y-82966417D01*
X158893937Y-83006238D01*
X158886232Y-83036759D01*
X158872353Y-83063085D01*
X158852038Y-83084569D01*
X158826006Y-83100916D01*
X158791587Y-83113268D01*
X158752682Y-83120249D01*
X158702133Y-83122854D01*
X158126942Y-83122854D01*
X158126942Y-83290893D01*
X158689982Y-83290893D01*
G37*
G36*
X159017940Y-83453864D02*
G01*
X158869440Y-83453864D01*
X158869440Y-83681315D01*
X158295225Y-83681315D01*
X158404401Y-83483234D01*
X158267625Y-83428585D01*
X158119126Y-83712029D01*
X158119126Y-83852102D01*
X158869440Y-83852102D01*
X158869440Y-84048168D01*
X159017940Y-84048168D01*
X159017940Y-83453864D01*
G37*
G36*
X145318143Y-92415000D02*
G01*
X145150104Y-92415000D01*
X145150104Y-92047658D01*
X145117986Y-92047658D01*
X145077167Y-92052999D01*
X145043187Y-92068358D01*
X145015428Y-92093452D01*
X144993666Y-92129785D01*
X144867942Y-92415000D01*
X144670533Y-92415000D01*
X144813293Y-92117573D01*
X144842211Y-92064654D01*
X144868003Y-92029890D01*
X144897454Y-92004644D01*
X144928087Y-91992276D01*
X144886971Y-91982774D01*
X144849868Y-91968401D01*
X144816322Y-91948551D01*
X144788075Y-91923705D01*
X144765158Y-91893695D01*
X144747714Y-91857821D01*
X144737122Y-91817884D01*
X144734651Y-91786685D01*
X144909647Y-91786685D01*
X144912841Y-91816593D01*
X144921981Y-91841945D01*
X144936756Y-91863992D01*
X144956786Y-91882306D01*
X144981070Y-91896262D01*
X145011130Y-91906669D01*
X145043896Y-91912670D01*
X145081777Y-91914790D01*
X145150104Y-91914790D01*
X145150104Y-91664685D01*
X145076342Y-91664685D01*
X145021168Y-91668459D01*
X144980623Y-91678433D01*
X144951351Y-91693140D01*
X144928868Y-91715192D01*
X144914805Y-91745434D01*
X144909647Y-91786685D01*
X144734651Y-91786685D01*
X144733364Y-91770443D01*
X144739485Y-91705517D01*
X144756262Y-91655099D01*
X144784098Y-91612338D01*
X144821536Y-91578651D01*
X144867177Y-91553930D01*
X144923996Y-91536641D01*
X144985906Y-91527314D01*
X145057841Y-91524002D01*
X145318143Y-91524002D01*
X145318143Y-92415000D01*
G37*
G36*
X144533513Y-92415000D02*
G01*
X144533513Y-92266500D01*
X144306062Y-92266500D01*
X144306062Y-91692285D01*
X144504143Y-91801461D01*
X144558792Y-91664685D01*
X144275348Y-91516186D01*
X144135275Y-91516186D01*
X144135275Y-92266500D01*
X143939209Y-92266500D01*
X143939209Y-92415000D01*
X144533513Y-92415000D01*
G37*
G36*
X143780390Y-92415000D02*
G01*
X143780390Y-92293306D01*
X143569303Y-92081425D01*
X143474048Y-91979087D01*
X143440950Y-91936595D01*
X143418666Y-91902334D01*
X143402057Y-91868683D01*
X143393082Y-91839930D01*
X143386915Y-91780579D01*
X143388979Y-91755905D01*
X143395097Y-91732646D01*
X143405253Y-91711279D01*
X143419033Y-91693262D01*
X143436487Y-91678503D01*
X143458661Y-91666762D01*
X143483664Y-91659452D01*
X143513310Y-91656870D01*
X143564220Y-91662779D01*
X143611008Y-91680317D01*
X143654349Y-91707254D01*
X143696370Y-91742843D01*
X143784481Y-91628354D01*
X143722762Y-91579331D01*
X143653689Y-91541160D01*
X143604252Y-91523060D01*
X143551955Y-91512096D01*
X143496213Y-91508370D01*
X143432507Y-91512723D01*
X143377328Y-91525101D01*
X143327263Y-91546130D01*
X143286103Y-91574560D01*
X143252688Y-91611076D01*
X143227363Y-91656442D01*
X143211991Y-91707982D01*
X143206541Y-91769649D01*
X143210214Y-91821650D01*
X143220891Y-91868934D01*
X143238324Y-91914018D01*
X143262595Y-91958632D01*
X143292462Y-92001507D01*
X143329884Y-92045949D01*
X143421048Y-92138028D01*
X143550863Y-92262592D01*
X143174423Y-92262592D01*
X143174423Y-92415000D01*
X143780390Y-92415000D01*
G37*
G36*
X144783042Y-87875921D02*
G01*
X144842446Y-87898682D01*
X144898141Y-87914206D01*
X144954569Y-87923555D01*
X145013912Y-87926723D01*
X145077686Y-87923351D01*
X145134206Y-87913706D01*
X145184394Y-87898330D01*
X145231660Y-87876086D01*
X145273141Y-87848001D01*
X145309446Y-87813883D01*
X145340014Y-87774447D01*
X145365779Y-87728379D01*
X145386627Y-87674787D01*
X145400751Y-87618791D01*
X145409720Y-87554755D01*
X145412883Y-87481591D01*
X145409468Y-87406714D01*
X145399705Y-87340131D01*
X145384184Y-87280884D01*
X145361729Y-87224080D01*
X145334376Y-87174910D01*
X145302241Y-87132506D01*
X145264237Y-87095387D01*
X145221266Y-87064703D01*
X145172792Y-87040183D01*
X145121093Y-87022816D01*
X145064304Y-87012080D01*
X145001639Y-87008370D01*
X144943937Y-87009713D01*
X144890997Y-87014720D01*
X144838424Y-87024307D01*
X144783042Y-87039633D01*
X144783042Y-87207672D01*
X144841001Y-87183709D01*
X144893745Y-87168532D01*
X144945339Y-87159617D01*
X144989366Y-87156870D01*
X145049836Y-87162929D01*
X145097993Y-87179767D01*
X145139059Y-87207217D01*
X145172120Y-87243881D01*
X145196894Y-87288169D01*
X145214802Y-87342128D01*
X145224881Y-87400697D01*
X145228418Y-87467302D01*
X145224730Y-87537519D01*
X145214436Y-87596568D01*
X145196083Y-87650241D01*
X145171021Y-87693105D01*
X145137650Y-87727913D01*
X145095917Y-87753494D01*
X145047391Y-87768812D01*
X144987290Y-87774316D01*
X144938441Y-87769797D01*
X144885196Y-87757829D01*
X144831890Y-87740305D01*
X144783042Y-87719605D01*
X144783042Y-87875921D01*
G37*
G36*
X144394065Y-87013892D02*
G01*
X144455756Y-87029863D01*
X144511983Y-87055978D01*
X144558949Y-87090191D01*
X144597398Y-87132867D01*
X144626543Y-87183920D01*
X144644561Y-87240935D01*
X144650784Y-87305553D01*
X144645114Y-87375992D01*
X144629596Y-87431338D01*
X144603663Y-87479187D01*
X144569818Y-87516212D01*
X144528066Y-87544252D01*
X144477982Y-87563961D01*
X144422961Y-87575030D01*
X144359769Y-87578921D01*
X144312876Y-87576196D01*
X144266224Y-87567991D01*
X144221384Y-87555139D01*
X144183548Y-87539842D01*
X144184891Y-87556939D01*
X144193319Y-87607673D01*
X144206445Y-87649508D01*
X144226805Y-87686072D01*
X144255660Y-87716003D01*
X144292427Y-87738786D01*
X144342427Y-87756547D01*
X144399387Y-87766597D01*
X144475967Y-87770408D01*
X144597539Y-87770408D01*
X144597539Y-87915000D01*
X144494408Y-87915000D01*
X144428049Y-87913092D01*
X144364959Y-87907489D01*
X144303807Y-87896622D01*
X144247417Y-87879523D01*
X144194750Y-87855235D01*
X144147339Y-87823592D01*
X144105964Y-87783786D01*
X144069852Y-87732855D01*
X144041770Y-87673792D01*
X144019600Y-87599499D01*
X144006598Y-87517934D01*
X144001831Y-87416317D01*
X144002525Y-87398548D01*
X144179456Y-87398548D01*
X144212612Y-87415218D01*
X144252241Y-87429200D01*
X144293884Y-87438726D01*
X144333146Y-87442145D01*
X144376948Y-87437836D01*
X144411593Y-87425902D01*
X144439087Y-87407035D01*
X144459431Y-87381132D01*
X144472493Y-87346301D01*
X144477311Y-87299691D01*
X144474652Y-87266678D01*
X144467052Y-87238019D01*
X144454535Y-87212150D01*
X144438049Y-87190636D01*
X144417432Y-87173179D01*
X144392619Y-87159984D01*
X144364881Y-87151874D01*
X144333146Y-87149054D01*
X144292380Y-87153407D01*
X144260728Y-87165418D01*
X144234423Y-87185371D01*
X144213284Y-87213473D01*
X144198154Y-87247561D01*
X144187333Y-87291509D01*
X144181561Y-87339635D01*
X144179456Y-87398548D01*
X144002525Y-87398548D01*
X144004873Y-87338475D01*
X144013271Y-87274090D01*
X144026072Y-87221228D01*
X144045257Y-87170400D01*
X144067900Y-87128898D01*
X144093727Y-87095382D01*
X144124617Y-87066639D01*
X144158630Y-87044364D01*
X144196187Y-87028154D01*
X144257053Y-87013452D01*
X144324964Y-87008370D01*
X144394065Y-87013892D01*
G37*
G36*
X160225921Y-80616957D02*
G01*
X160248682Y-80557553D01*
X160264206Y-80501858D01*
X160273555Y-80445430D01*
X160276723Y-80386087D01*
X160273351Y-80322313D01*
X160263706Y-80265793D01*
X160248330Y-80215605D01*
X160226086Y-80168339D01*
X160198001Y-80126858D01*
X160163883Y-80090553D01*
X160124447Y-80059985D01*
X160078379Y-80034220D01*
X160024787Y-80013372D01*
X159968791Y-79999248D01*
X159904755Y-79990279D01*
X159831591Y-79987116D01*
X159756714Y-79990531D01*
X159690131Y-80000294D01*
X159630884Y-80015815D01*
X159574080Y-80038270D01*
X159524910Y-80065623D01*
X159482506Y-80097758D01*
X159445387Y-80135762D01*
X159414703Y-80178733D01*
X159390183Y-80227207D01*
X159372816Y-80278906D01*
X159362080Y-80335695D01*
X159358370Y-80398360D01*
X159359713Y-80456062D01*
X159364720Y-80509002D01*
X159374307Y-80561575D01*
X159389633Y-80616957D01*
X159557672Y-80616957D01*
X159533709Y-80558998D01*
X159518532Y-80506254D01*
X159509617Y-80454660D01*
X159506870Y-80410633D01*
X159512929Y-80350163D01*
X159529767Y-80302006D01*
X159557217Y-80260940D01*
X159593881Y-80227879D01*
X159638169Y-80203105D01*
X159692128Y-80185197D01*
X159750697Y-80175118D01*
X159817302Y-80171581D01*
X159887519Y-80175269D01*
X159946568Y-80185563D01*
X160000241Y-80203916D01*
X160043105Y-80228978D01*
X160077913Y-80262349D01*
X160103494Y-80304082D01*
X160118812Y-80352608D01*
X160124316Y-80412709D01*
X160119797Y-80461558D01*
X160107829Y-80514803D01*
X160090305Y-80568109D01*
X160069605Y-80616957D01*
X160225921Y-80616957D01*
G37*
G36*
X160265000Y-80803864D02*
G01*
X160116500Y-80803864D01*
X160116500Y-81031315D01*
X159542285Y-81031315D01*
X159651461Y-80833234D01*
X159514685Y-80778585D01*
X159366186Y-81062029D01*
X159366186Y-81202102D01*
X160116500Y-81202102D01*
X160116500Y-81398168D01*
X160265000Y-81398168D01*
X160265000Y-80803864D01*
G37*
G36*
X149815203Y-100665000D02*
G01*
X149647164Y-100665000D01*
X149647164Y-100297658D01*
X149615046Y-100297658D01*
X149574227Y-100302999D01*
X149540247Y-100318358D01*
X149512488Y-100343452D01*
X149490726Y-100379785D01*
X149365002Y-100665000D01*
X149167593Y-100665000D01*
X149310353Y-100367573D01*
X149339271Y-100314654D01*
X149365063Y-100279890D01*
X149394514Y-100254644D01*
X149425147Y-100242276D01*
X149384031Y-100232774D01*
X149346928Y-100218401D01*
X149313382Y-100198551D01*
X149285135Y-100173705D01*
X149262218Y-100143695D01*
X149244774Y-100107821D01*
X149234182Y-100067884D01*
X149231711Y-100036685D01*
X149406707Y-100036685D01*
X149409901Y-100066593D01*
X149419041Y-100091945D01*
X149433816Y-100113992D01*
X149453846Y-100132306D01*
X149478130Y-100146262D01*
X149508190Y-100156669D01*
X149540956Y-100162670D01*
X149578837Y-100164790D01*
X149647164Y-100164790D01*
X149647164Y-99914685D01*
X149573402Y-99914685D01*
X149518228Y-99918459D01*
X149477683Y-99928433D01*
X149448411Y-99943140D01*
X149425928Y-99965192D01*
X149411865Y-99995434D01*
X149406707Y-100036685D01*
X149231711Y-100036685D01*
X149230424Y-100020443D01*
X149236545Y-99955517D01*
X149253322Y-99905099D01*
X149281158Y-99862338D01*
X149318596Y-99828651D01*
X149364237Y-99803930D01*
X149421056Y-99786641D01*
X149482966Y-99777314D01*
X149554901Y-99774002D01*
X149815203Y-99774002D01*
X149815203Y-100665000D01*
G37*
G36*
X148437673Y-100394256D02*
G01*
X148444019Y-100458173D01*
X148462281Y-100513569D01*
X148493059Y-100562151D01*
X148537752Y-100603756D01*
X148593291Y-100635790D01*
X148665857Y-100660847D01*
X148746629Y-100675326D01*
X148847513Y-100680631D01*
X148896422Y-100679471D01*
X148947286Y-100676357D01*
X148996501Y-100671655D01*
X149039488Y-100665000D01*
X149039488Y-100520408D01*
X148942829Y-100534513D01*
X148831148Y-100539947D01*
X148776431Y-100537390D01*
X148733451Y-100530483D01*
X148694893Y-100518416D01*
X148665857Y-100503066D01*
X148642454Y-100482747D01*
X148626534Y-100458736D01*
X148617152Y-100431072D01*
X148613894Y-100399141D01*
X148617206Y-100370944D01*
X148626900Y-100345957D01*
X148642917Y-100324257D01*
X148666529Y-100305413D01*
X148695515Y-100291081D01*
X148734489Y-100279523D01*
X148777729Y-100272791D01*
X148832492Y-100270303D01*
X148931532Y-100270303D01*
X148931532Y-100141343D01*
X148840674Y-100141343D01*
X148789782Y-100138436D01*
X148752258Y-100130779D01*
X148719550Y-100117897D01*
X148696204Y-100102569D01*
X148678262Y-100083099D01*
X148666529Y-100060743D01*
X148659859Y-100036060D01*
X148657614Y-100010001D01*
X148661885Y-99975392D01*
X148673798Y-99948446D01*
X148693151Y-99927325D01*
X148718471Y-99912689D01*
X148754042Y-99902803D01*
X148803122Y-99899054D01*
X148856069Y-99901728D01*
X148908329Y-99909740D01*
X149015552Y-99938133D01*
X149015552Y-99797449D01*
X148956811Y-99779680D01*
X148900819Y-99767651D01*
X148844093Y-99760507D01*
X148784681Y-99758370D01*
X148713398Y-99762561D01*
X148655233Y-99774124D01*
X148602860Y-99793701D01*
X148561626Y-99818881D01*
X148528272Y-99851292D01*
X148504596Y-99889712D01*
X148490394Y-99933174D01*
X148485484Y-99982707D01*
X148490038Y-100035822D01*
X148502727Y-100079052D01*
X148522731Y-100114354D01*
X148550210Y-100144651D01*
X148584582Y-100170273D01*
X148626900Y-100191290D01*
X148585330Y-100200779D01*
X148549048Y-100214860D01*
X148516435Y-100234157D01*
X148489270Y-100257908D01*
X148467238Y-100286153D01*
X148450984Y-100318419D01*
X148441109Y-100353838D01*
X148437673Y-100394256D01*
G37*
G36*
X147668797Y-100394256D02*
G01*
X147675143Y-100458173D01*
X147693404Y-100513569D01*
X147724182Y-100562151D01*
X147768875Y-100603756D01*
X147824415Y-100635790D01*
X147896981Y-100660847D01*
X147977752Y-100675326D01*
X148078636Y-100680631D01*
X148127546Y-100679471D01*
X148178409Y-100676357D01*
X148227624Y-100671655D01*
X148270611Y-100665000D01*
X148270611Y-100520408D01*
X148173952Y-100534513D01*
X148062272Y-100539947D01*
X148007555Y-100537390D01*
X147964575Y-100530483D01*
X147926016Y-100518416D01*
X147896981Y-100503066D01*
X147873577Y-100482747D01*
X147857658Y-100458736D01*
X147848275Y-100431072D01*
X147845018Y-100399141D01*
X147848330Y-100370944D01*
X147858024Y-100345957D01*
X147874041Y-100324257D01*
X147897652Y-100305413D01*
X147926639Y-100291081D01*
X147965613Y-100279523D01*
X148008853Y-100272791D01*
X148063615Y-100270303D01*
X148162656Y-100270303D01*
X148162656Y-100141343D01*
X148071797Y-100141343D01*
X148020906Y-100138436D01*
X147983382Y-100130779D01*
X147950674Y-100117897D01*
X147927328Y-100102569D01*
X147909385Y-100083099D01*
X147897652Y-100060743D01*
X147890982Y-100036060D01*
X147888737Y-100010001D01*
X147893009Y-99975392D01*
X147904922Y-99948446D01*
X147924275Y-99927325D01*
X147949595Y-99912689D01*
X147985165Y-99902803D01*
X148034245Y-99899054D01*
X148087192Y-99901728D01*
X148139453Y-99909740D01*
X148246675Y-99938133D01*
X148246675Y-99797449D01*
X148187935Y-99779680D01*
X148131942Y-99767651D01*
X148075217Y-99760507D01*
X148015805Y-99758370D01*
X147944521Y-99762561D01*
X147886356Y-99774124D01*
X147833984Y-99793701D01*
X147792750Y-99818881D01*
X147759395Y-99851292D01*
X147735719Y-99889712D01*
X147721518Y-99933174D01*
X147716607Y-99982707D01*
X147721161Y-100035822D01*
X147733851Y-100079052D01*
X147753854Y-100114354D01*
X147781333Y-100144651D01*
X147815705Y-100170273D01*
X147858024Y-100191290D01*
X147816454Y-100200779D01*
X147780171Y-100214860D01*
X147747558Y-100234157D01*
X147720393Y-100257908D01*
X147698361Y-100286153D01*
X147682108Y-100318419D01*
X147672232Y-100353838D01*
X147668797Y-100394256D01*
G37*
G36*
X158815203Y-100665000D02*
G01*
X158647164Y-100665000D01*
X158647164Y-100297658D01*
X158615046Y-100297658D01*
X158574227Y-100302999D01*
X158540247Y-100318358D01*
X158512488Y-100343452D01*
X158490726Y-100379785D01*
X158365002Y-100665000D01*
X158167593Y-100665000D01*
X158310353Y-100367573D01*
X158339271Y-100314654D01*
X158365063Y-100279890D01*
X158394514Y-100254644D01*
X158425147Y-100242276D01*
X158384031Y-100232774D01*
X158346928Y-100218401D01*
X158313382Y-100198551D01*
X158285135Y-100173705D01*
X158262218Y-100143695D01*
X158244774Y-100107821D01*
X158234182Y-100067884D01*
X158231711Y-100036685D01*
X158406707Y-100036685D01*
X158409901Y-100066593D01*
X158419041Y-100091945D01*
X158433816Y-100113992D01*
X158453846Y-100132306D01*
X158478130Y-100146262D01*
X158508190Y-100156669D01*
X158540956Y-100162670D01*
X158578837Y-100164790D01*
X158647164Y-100164790D01*
X158647164Y-99914685D01*
X158573402Y-99914685D01*
X158518228Y-99918459D01*
X158477683Y-99928433D01*
X158448411Y-99943140D01*
X158425928Y-99965192D01*
X158411865Y-99995434D01*
X158406707Y-100036685D01*
X158231711Y-100036685D01*
X158230424Y-100020443D01*
X158236545Y-99955517D01*
X158253322Y-99905099D01*
X158281158Y-99862338D01*
X158318596Y-99828651D01*
X158364237Y-99803930D01*
X158421056Y-99786641D01*
X158482966Y-99777314D01*
X158554901Y-99774002D01*
X158815203Y-99774002D01*
X158815203Y-100665000D01*
G37*
G36*
X157437673Y-100394256D02*
G01*
X157444019Y-100458173D01*
X157462281Y-100513569D01*
X157493059Y-100562151D01*
X157537752Y-100603756D01*
X157593291Y-100635790D01*
X157665857Y-100660847D01*
X157746629Y-100675326D01*
X157847513Y-100680631D01*
X157896422Y-100679471D01*
X157947286Y-100676357D01*
X157996501Y-100671655D01*
X158039488Y-100665000D01*
X158039488Y-100520408D01*
X157942829Y-100534513D01*
X157831148Y-100539947D01*
X157776431Y-100537390D01*
X157733451Y-100530483D01*
X157694893Y-100518416D01*
X157665857Y-100503066D01*
X157642454Y-100482747D01*
X157626534Y-100458736D01*
X157617152Y-100431072D01*
X157613894Y-100399141D01*
X157617206Y-100370944D01*
X157626900Y-100345957D01*
X157642917Y-100324257D01*
X157666529Y-100305413D01*
X157695515Y-100291081D01*
X157734489Y-100279523D01*
X157777729Y-100272791D01*
X157832492Y-100270303D01*
X157931532Y-100270303D01*
X157931532Y-100141343D01*
X157840674Y-100141343D01*
X157789782Y-100138436D01*
X157752258Y-100130779D01*
X157719550Y-100117897D01*
X157696204Y-100102569D01*
X157678262Y-100083099D01*
X157666529Y-100060743D01*
X157659859Y-100036060D01*
X157657614Y-100010001D01*
X157661885Y-99975392D01*
X157673798Y-99948446D01*
X157693151Y-99927325D01*
X157718471Y-99912689D01*
X157754042Y-99902803D01*
X157803122Y-99899054D01*
X157856069Y-99901728D01*
X157908329Y-99909740D01*
X158015552Y-99938133D01*
X158015552Y-99797449D01*
X157956811Y-99779680D01*
X157900819Y-99767651D01*
X157844093Y-99760507D01*
X157784681Y-99758370D01*
X157713398Y-99762561D01*
X157655233Y-99774124D01*
X157602860Y-99793701D01*
X157561626Y-99818881D01*
X157528272Y-99851292D01*
X157504596Y-99889712D01*
X157490394Y-99933174D01*
X157485484Y-99982707D01*
X157490038Y-100035822D01*
X157502727Y-100079052D01*
X157522731Y-100114354D01*
X157550210Y-100144651D01*
X157584582Y-100170273D01*
X157626900Y-100191290D01*
X157585330Y-100200779D01*
X157549048Y-100214860D01*
X157516435Y-100234157D01*
X157489270Y-100257908D01*
X157467238Y-100286153D01*
X157450984Y-100318419D01*
X157441109Y-100353838D01*
X157437673Y-100394256D01*
G37*
G36*
X156917135Y-99778645D02*
G01*
X156991930Y-99791404D01*
X157060285Y-99812916D01*
X157116250Y-99840497D01*
X157164819Y-99875976D01*
X157204055Y-99917861D01*
X157235505Y-99965933D01*
X157260048Y-100019771D01*
X157277684Y-100077714D01*
X157289784Y-100142503D01*
X157296372Y-100209891D01*
X157298638Y-100282515D01*
X157292410Y-100385485D01*
X157275408Y-100467343D01*
X157249572Y-100531950D01*
X157215962Y-100582506D01*
X157171368Y-100624443D01*
X157117972Y-100654795D01*
X157053980Y-100673854D01*
X156976848Y-100680631D01*
X156907093Y-100675211D01*
X156845018Y-100659565D01*
X156788518Y-100633612D01*
X156741520Y-100599298D01*
X156702965Y-100556358D01*
X156673559Y-100505326D01*
X156655279Y-100448213D01*
X156649557Y-100389310D01*
X156822487Y-100389310D01*
X156825132Y-100421735D01*
X156832745Y-100450310D01*
X156845257Y-100476239D01*
X156861810Y-100498060D01*
X156882406Y-100515767D01*
X156907239Y-100529078D01*
X156934921Y-100537141D01*
X156966651Y-100539947D01*
X157003352Y-100536530D01*
X157033940Y-100526880D01*
X157060244Y-100509986D01*
X157082422Y-100484321D01*
X157098866Y-100451964D01*
X157111487Y-100408178D01*
X157118404Y-100358898D01*
X157121012Y-100293750D01*
X157088589Y-100276653D01*
X157050304Y-100261755D01*
X157008661Y-100250947D01*
X156965247Y-100246856D01*
X156929261Y-100249676D01*
X156900705Y-100257419D01*
X156875771Y-100270255D01*
X156856314Y-100286728D01*
X156841331Y-100307152D01*
X156830730Y-100331730D01*
X156824614Y-100358791D01*
X156822487Y-100389310D01*
X156649557Y-100389310D01*
X156648952Y-100383082D01*
X156653692Y-100321213D01*
X156667087Y-100268715D01*
X156689953Y-100221818D01*
X156721736Y-100182925D01*
X156762069Y-100152119D01*
X156812900Y-100128825D01*
X156870154Y-100115042D01*
X156939967Y-100110080D01*
X156989116Y-100112871D01*
X157035283Y-100121071D01*
X157079120Y-100133864D01*
X157116250Y-100149159D01*
X157114906Y-100132733D01*
X157107158Y-100083687D01*
X157094390Y-100041570D01*
X157074674Y-100004062D01*
X157047251Y-99972998D01*
X157012285Y-99948692D01*
X156965979Y-99929767D01*
X156912953Y-99918811D01*
X156842331Y-99914685D01*
X156723446Y-99914685D01*
X156723446Y-99774002D01*
X156825234Y-99774002D01*
X156917135Y-99778645D01*
G37*
G36*
X162060135Y-98065000D02*
G01*
X161833356Y-98065000D01*
X161754926Y-98061058D01*
X161687811Y-98049972D01*
X161630451Y-98032637D01*
X161576307Y-98007410D01*
X161530298Y-97976743D01*
X161491477Y-97940619D01*
X161458829Y-97898672D01*
X161432188Y-97850871D01*
X161411548Y-97796454D01*
X161392573Y-97709005D01*
X161386623Y-97619134D01*
X161566215Y-97619134D01*
X161571111Y-97699954D01*
X161584403Y-97763398D01*
X161604476Y-97812754D01*
X161630451Y-97850737D01*
X161664885Y-97881960D01*
X161706578Y-97904750D01*
X161757037Y-97919164D01*
X161818335Y-97924316D01*
X161892096Y-97924316D01*
X161892096Y-97314685D01*
X161806672Y-97314685D01*
X161741024Y-97320216D01*
X161691267Y-97335141D01*
X161649245Y-97360444D01*
X161617140Y-97394736D01*
X161593908Y-97437116D01*
X161577817Y-97490418D01*
X161569289Y-97548978D01*
X161566215Y-97619134D01*
X161386623Y-97619134D01*
X161385903Y-97608265D01*
X161389041Y-97532908D01*
X161397849Y-97468381D01*
X161411548Y-97413299D01*
X161432065Y-97360647D01*
X161457707Y-97315982D01*
X161488363Y-97278293D01*
X161524845Y-97246294D01*
X161567279Y-97220077D01*
X161616468Y-97199586D01*
X161696980Y-97180792D01*
X161795742Y-97174002D01*
X162060135Y-97174002D01*
X162060135Y-98065000D01*
G37*
G36*
X161015936Y-98065000D02*
G01*
X161204491Y-98065000D01*
X160849301Y-97334225D01*
X161277581Y-97334225D01*
X161277581Y-97174002D01*
X160657326Y-97174002D01*
X160657326Y-97318532D01*
X161015936Y-98065000D01*
G37*
G36*
X155815203Y-100665000D02*
G01*
X155647164Y-100665000D01*
X155647164Y-100297658D01*
X155615046Y-100297658D01*
X155574227Y-100302999D01*
X155540247Y-100318358D01*
X155512488Y-100343452D01*
X155490726Y-100379785D01*
X155365002Y-100665000D01*
X155167593Y-100665000D01*
X155310353Y-100367573D01*
X155339271Y-100314654D01*
X155365063Y-100279890D01*
X155394514Y-100254644D01*
X155425147Y-100242276D01*
X155384031Y-100232774D01*
X155346928Y-100218401D01*
X155313382Y-100198551D01*
X155285135Y-100173705D01*
X155262218Y-100143695D01*
X155244774Y-100107821D01*
X155234182Y-100067884D01*
X155231711Y-100036685D01*
X155406707Y-100036685D01*
X155409901Y-100066593D01*
X155419041Y-100091945D01*
X155433816Y-100113992D01*
X155453846Y-100132306D01*
X155478130Y-100146262D01*
X155508190Y-100156669D01*
X155540956Y-100162670D01*
X155578837Y-100164790D01*
X155647164Y-100164790D01*
X155647164Y-99914685D01*
X155573402Y-99914685D01*
X155518228Y-99918459D01*
X155477683Y-99928433D01*
X155448411Y-99943140D01*
X155425928Y-99965192D01*
X155411865Y-99995434D01*
X155406707Y-100036685D01*
X155231711Y-100036685D01*
X155230424Y-100020443D01*
X155236545Y-99955517D01*
X155253322Y-99905099D01*
X155281158Y-99862338D01*
X155318596Y-99828651D01*
X155364237Y-99803930D01*
X155421056Y-99786641D01*
X155482966Y-99777314D01*
X155554901Y-99774002D01*
X155815203Y-99774002D01*
X155815203Y-100665000D01*
G37*
G36*
X154437673Y-100394256D02*
G01*
X154444019Y-100458173D01*
X154462281Y-100513569D01*
X154493059Y-100562151D01*
X154537752Y-100603756D01*
X154593291Y-100635790D01*
X154665857Y-100660847D01*
X154746629Y-100675326D01*
X154847513Y-100680631D01*
X154896422Y-100679471D01*
X154947286Y-100676357D01*
X154996501Y-100671655D01*
X155039488Y-100665000D01*
X155039488Y-100520408D01*
X154942829Y-100534513D01*
X154831148Y-100539947D01*
X154776431Y-100537390D01*
X154733451Y-100530483D01*
X154694893Y-100518416D01*
X154665857Y-100503066D01*
X154642454Y-100482747D01*
X154626534Y-100458736D01*
X154617152Y-100431072D01*
X154613894Y-100399141D01*
X154617206Y-100370944D01*
X154626900Y-100345957D01*
X154642917Y-100324257D01*
X154666529Y-100305413D01*
X154695515Y-100291081D01*
X154734489Y-100279523D01*
X154777729Y-100272791D01*
X154832492Y-100270303D01*
X154931532Y-100270303D01*
X154931532Y-100141343D01*
X154840674Y-100141343D01*
X154789782Y-100138436D01*
X154752258Y-100130779D01*
X154719550Y-100117897D01*
X154696204Y-100102569D01*
X154678262Y-100083099D01*
X154666529Y-100060743D01*
X154659859Y-100036060D01*
X154657614Y-100010001D01*
X154661885Y-99975392D01*
X154673798Y-99948446D01*
X154693151Y-99927325D01*
X154718471Y-99912689D01*
X154754042Y-99902803D01*
X154803122Y-99899054D01*
X154856069Y-99901728D01*
X154908329Y-99909740D01*
X155015552Y-99938133D01*
X155015552Y-99797449D01*
X154956811Y-99779680D01*
X154900819Y-99767651D01*
X154844093Y-99760507D01*
X154784681Y-99758370D01*
X154713398Y-99762561D01*
X154655233Y-99774124D01*
X154602860Y-99793701D01*
X154561626Y-99818881D01*
X154528272Y-99851292D01*
X154504596Y-99889712D01*
X154490394Y-99933174D01*
X154485484Y-99982707D01*
X154490038Y-100035822D01*
X154502727Y-100079052D01*
X154522731Y-100114354D01*
X154550210Y-100144651D01*
X154584582Y-100170273D01*
X154626900Y-100191290D01*
X154585330Y-100200779D01*
X154549048Y-100214860D01*
X154516435Y-100234157D01*
X154489270Y-100257908D01*
X154467238Y-100286153D01*
X154450984Y-100318419D01*
X154441109Y-100353838D01*
X154437673Y-100394256D01*
G37*
G36*
X154338938Y-100340828D02*
G01*
X154338938Y-100485237D01*
X153923603Y-100485237D01*
X153923603Y-100665000D01*
X153760998Y-100665000D01*
X153760998Y-100485237D01*
X153625749Y-100485237D01*
X153625749Y-100336737D01*
X153760998Y-100336737D01*
X153921527Y-100336737D01*
X154175662Y-100336737D01*
X153921527Y-99935263D01*
X153921527Y-100336737D01*
X153760998Y-100336737D01*
X153760998Y-99774002D01*
X153990526Y-99774002D01*
X154338938Y-100340828D01*
G37*
G36*
X160275921Y-88716957D02*
G01*
X160298682Y-88657553D01*
X160314206Y-88601858D01*
X160323555Y-88545430D01*
X160326723Y-88486087D01*
X160323351Y-88422313D01*
X160313706Y-88365793D01*
X160298330Y-88315605D01*
X160276086Y-88268339D01*
X160248001Y-88226858D01*
X160213883Y-88190553D01*
X160174447Y-88159985D01*
X160128379Y-88134220D01*
X160074787Y-88113372D01*
X160018791Y-88099248D01*
X159954755Y-88090279D01*
X159881591Y-88087116D01*
X159806714Y-88090531D01*
X159740131Y-88100294D01*
X159680884Y-88115815D01*
X159624080Y-88138270D01*
X159574910Y-88165623D01*
X159532506Y-88197758D01*
X159495387Y-88235762D01*
X159464703Y-88278733D01*
X159440183Y-88327207D01*
X159422816Y-88378906D01*
X159412080Y-88435695D01*
X159408370Y-88498360D01*
X159409713Y-88556062D01*
X159414720Y-88609002D01*
X159424307Y-88661575D01*
X159439633Y-88716957D01*
X159607672Y-88716957D01*
X159583709Y-88658998D01*
X159568532Y-88606254D01*
X159559617Y-88554660D01*
X159556870Y-88510633D01*
X159562929Y-88450163D01*
X159579767Y-88402006D01*
X159607217Y-88360940D01*
X159643881Y-88327879D01*
X159688169Y-88303105D01*
X159742128Y-88285197D01*
X159800697Y-88275118D01*
X159867302Y-88271581D01*
X159937519Y-88275269D01*
X159996568Y-88285563D01*
X160050241Y-88303916D01*
X160093105Y-88328978D01*
X160127913Y-88362349D01*
X160153494Y-88404082D01*
X160168812Y-88452608D01*
X160174316Y-88512709D01*
X160169797Y-88561558D01*
X160157829Y-88614803D01*
X160140305Y-88668109D01*
X160119605Y-88716957D01*
X160275921Y-88716957D01*
G37*
G36*
X160315000Y-88888111D02*
G01*
X160193306Y-88888111D01*
X159981425Y-89099197D01*
X159879087Y-89194452D01*
X159836595Y-89227551D01*
X159802334Y-89249834D01*
X159768683Y-89266444D01*
X159739930Y-89275419D01*
X159680579Y-89281586D01*
X159655905Y-89279521D01*
X159632646Y-89273404D01*
X159611279Y-89263247D01*
X159593262Y-89249468D01*
X159578503Y-89232014D01*
X159566762Y-89209839D01*
X159559452Y-89184837D01*
X159556870Y-89155190D01*
X159562779Y-89104280D01*
X159580317Y-89057493D01*
X159607254Y-89014152D01*
X159642843Y-88972130D01*
X159528354Y-88884020D01*
X159479331Y-88945739D01*
X159441160Y-89014812D01*
X159423060Y-89064248D01*
X159412096Y-89116546D01*
X159408370Y-89172287D01*
X159412723Y-89235994D01*
X159425101Y-89291172D01*
X159446130Y-89341237D01*
X159474560Y-89382397D01*
X159511076Y-89415812D01*
X159556442Y-89441137D01*
X159607982Y-89456510D01*
X159669649Y-89461959D01*
X159721650Y-89458286D01*
X159768934Y-89447610D01*
X159814018Y-89430176D01*
X159858632Y-89405905D01*
X159901507Y-89376039D01*
X159945949Y-89338617D01*
X160038028Y-89247453D01*
X160162592Y-89117638D01*
X160162592Y-89494077D01*
X160315000Y-89494077D01*
X160315000Y-88888111D01*
G37*
G36*
X152815203Y-100665000D02*
G01*
X152647164Y-100665000D01*
X152647164Y-100297658D01*
X152615046Y-100297658D01*
X152574227Y-100302999D01*
X152540247Y-100318358D01*
X152512488Y-100343452D01*
X152490726Y-100379785D01*
X152365002Y-100665000D01*
X152167593Y-100665000D01*
X152310353Y-100367573D01*
X152339271Y-100314654D01*
X152365063Y-100279890D01*
X152394514Y-100254644D01*
X152425147Y-100242276D01*
X152384031Y-100232774D01*
X152346928Y-100218401D01*
X152313382Y-100198551D01*
X152285135Y-100173705D01*
X152262218Y-100143695D01*
X152244774Y-100107821D01*
X152234182Y-100067884D01*
X152231711Y-100036685D01*
X152406707Y-100036685D01*
X152409901Y-100066593D01*
X152419041Y-100091945D01*
X152433816Y-100113992D01*
X152453846Y-100132306D01*
X152478130Y-100146262D01*
X152508190Y-100156669D01*
X152540956Y-100162670D01*
X152578837Y-100164790D01*
X152647164Y-100164790D01*
X152647164Y-99914685D01*
X152573402Y-99914685D01*
X152518228Y-99918459D01*
X152477683Y-99928433D01*
X152448411Y-99943140D01*
X152425928Y-99965192D01*
X152411865Y-99995434D01*
X152406707Y-100036685D01*
X152231711Y-100036685D01*
X152230424Y-100020443D01*
X152236545Y-99955517D01*
X152253322Y-99905099D01*
X152281158Y-99862338D01*
X152318596Y-99828651D01*
X152364237Y-99803930D01*
X152421056Y-99786641D01*
X152482966Y-99777314D01*
X152554901Y-99774002D01*
X152815203Y-99774002D01*
X152815203Y-100665000D01*
G37*
G36*
X151437673Y-100394256D02*
G01*
X151444019Y-100458173D01*
X151462281Y-100513569D01*
X151493059Y-100562151D01*
X151537752Y-100603756D01*
X151593291Y-100635790D01*
X151665857Y-100660847D01*
X151746629Y-100675326D01*
X151847513Y-100680631D01*
X151896422Y-100679471D01*
X151947286Y-100676357D01*
X151996501Y-100671655D01*
X152039488Y-100665000D01*
X152039488Y-100520408D01*
X151942829Y-100534513D01*
X151831148Y-100539947D01*
X151776431Y-100537390D01*
X151733451Y-100530483D01*
X151694893Y-100518416D01*
X151665857Y-100503066D01*
X151642454Y-100482747D01*
X151626534Y-100458736D01*
X151617152Y-100431072D01*
X151613894Y-100399141D01*
X151617206Y-100370944D01*
X151626900Y-100345957D01*
X151642917Y-100324257D01*
X151666529Y-100305413D01*
X151695515Y-100291081D01*
X151734489Y-100279523D01*
X151777729Y-100272791D01*
X151832492Y-100270303D01*
X151931532Y-100270303D01*
X151931532Y-100141343D01*
X151840674Y-100141343D01*
X151789782Y-100138436D01*
X151752258Y-100130779D01*
X151719550Y-100117897D01*
X151696204Y-100102569D01*
X151678262Y-100083099D01*
X151666529Y-100060743D01*
X151659859Y-100036060D01*
X151657614Y-100010001D01*
X151661885Y-99975392D01*
X151673798Y-99948446D01*
X151693151Y-99927325D01*
X151718471Y-99912689D01*
X151754042Y-99902803D01*
X151803122Y-99899054D01*
X151856069Y-99901728D01*
X151908329Y-99909740D01*
X152015552Y-99938133D01*
X152015552Y-99797449D01*
X151956811Y-99779680D01*
X151900819Y-99767651D01*
X151844093Y-99760507D01*
X151784681Y-99758370D01*
X151713398Y-99762561D01*
X151655233Y-99774124D01*
X151602860Y-99793701D01*
X151561626Y-99818881D01*
X151528272Y-99851292D01*
X151504596Y-99889712D01*
X151490394Y-99933174D01*
X151485484Y-99982707D01*
X151490038Y-100035822D01*
X151502727Y-100079052D01*
X151522731Y-100114354D01*
X151550210Y-100144651D01*
X151584582Y-100170273D01*
X151626900Y-100191290D01*
X151585330Y-100200779D01*
X151549048Y-100214860D01*
X151516435Y-100234157D01*
X151489270Y-100257908D01*
X151467238Y-100286153D01*
X151450984Y-100318419D01*
X151441109Y-100353838D01*
X151437673Y-100394256D01*
G37*
G36*
X150678322Y-100381983D02*
G01*
X150681820Y-100428922D01*
X150691945Y-100471054D01*
X150708425Y-100509173D01*
X150744094Y-100560174D01*
X150791773Y-100602901D01*
X150848751Y-100635978D01*
X150917436Y-100660847D01*
X150991747Y-100675536D01*
X151074545Y-100680631D01*
X151119669Y-100679288D01*
X151168151Y-100676051D01*
X151216023Y-100671167D01*
X151259010Y-100665000D01*
X151259010Y-100520408D01*
X151169495Y-100534635D01*
X151066363Y-100539947D01*
X150998898Y-100534886D01*
X150948108Y-100521325D01*
X150910292Y-100500929D01*
X150880452Y-100471529D01*
X150862776Y-100436104D01*
X150856620Y-100392669D01*
X150862602Y-100347255D01*
X150879261Y-100312492D01*
X150906506Y-100285751D01*
X150941765Y-100267971D01*
X150993635Y-100255565D01*
X151067706Y-100250764D01*
X151242584Y-100250764D01*
X151242584Y-99774002D01*
X150727537Y-99774002D01*
X150727537Y-99930317D01*
X151086818Y-99930317D01*
X151086818Y-100113988D01*
X151022583Y-100113988D01*
X150955247Y-100117112D01*
X150892157Y-100126261D01*
X150832881Y-100143363D01*
X150782553Y-100168881D01*
X150740060Y-100204365D01*
X150706715Y-100251069D01*
X150691551Y-100286697D01*
X150681818Y-100329816D01*
X150678322Y-100381983D01*
G37*
G36*
X145365203Y-89415000D02*
G01*
X145197164Y-89415000D01*
X145197164Y-89047658D01*
X145165046Y-89047658D01*
X145124227Y-89052999D01*
X145090247Y-89068358D01*
X145062488Y-89093452D01*
X145040726Y-89129785D01*
X144915002Y-89415000D01*
X144717593Y-89415000D01*
X144860353Y-89117573D01*
X144889271Y-89064654D01*
X144915063Y-89029890D01*
X144944514Y-89004644D01*
X144975147Y-88992276D01*
X144934031Y-88982774D01*
X144896928Y-88968401D01*
X144863382Y-88948551D01*
X144835135Y-88923705D01*
X144812218Y-88893695D01*
X144794774Y-88857821D01*
X144784182Y-88817884D01*
X144781711Y-88786685D01*
X144956707Y-88786685D01*
X144959901Y-88816593D01*
X144969041Y-88841945D01*
X144983816Y-88863992D01*
X145003846Y-88882306D01*
X145028130Y-88896262D01*
X145058190Y-88906669D01*
X145090956Y-88912670D01*
X145128837Y-88914790D01*
X145197164Y-88914790D01*
X145197164Y-88664685D01*
X145123402Y-88664685D01*
X145068228Y-88668459D01*
X145027683Y-88678433D01*
X144998411Y-88693140D01*
X144975928Y-88715192D01*
X144961865Y-88745434D01*
X144956707Y-88786685D01*
X144781711Y-88786685D01*
X144780424Y-88770443D01*
X144786545Y-88705517D01*
X144803322Y-88655099D01*
X144831158Y-88612338D01*
X144868596Y-88578651D01*
X144914237Y-88553930D01*
X144971056Y-88536641D01*
X145032966Y-88527314D01*
X145104901Y-88524002D01*
X145365203Y-88524002D01*
X145365203Y-89415000D01*
G37*
G36*
X144580573Y-89415000D02*
G01*
X144580573Y-89266500D01*
X144353122Y-89266500D01*
X144353122Y-88692285D01*
X144551203Y-88801461D01*
X144605852Y-88664685D01*
X144322408Y-88516186D01*
X144182335Y-88516186D01*
X144182335Y-89266500D01*
X143986269Y-89266500D01*
X143986269Y-89415000D01*
X144580573Y-89415000D01*
G37*
G36*
X143581497Y-89415000D02*
G01*
X143770053Y-89415000D01*
X143414863Y-88684225D01*
X143843143Y-88684225D01*
X143843143Y-88524002D01*
X143222888Y-88524002D01*
X143222888Y-88668532D01*
X143581497Y-89415000D01*
G37*
G36*
X145310135Y-85115000D02*
G01*
X145083356Y-85115000D01*
X145004926Y-85111058D01*
X144937811Y-85099972D01*
X144880451Y-85082637D01*
X144826307Y-85057410D01*
X144780298Y-85026743D01*
X144741477Y-84990619D01*
X144708829Y-84948672D01*
X144682188Y-84900871D01*
X144661548Y-84846454D01*
X144642573Y-84759005D01*
X144636623Y-84669134D01*
X144816215Y-84669134D01*
X144821111Y-84749954D01*
X144834403Y-84813398D01*
X144854476Y-84862754D01*
X144880451Y-84900737D01*
X144914885Y-84931960D01*
X144956578Y-84954750D01*
X145007037Y-84969164D01*
X145068335Y-84974316D01*
X145142096Y-84974316D01*
X145142096Y-84364685D01*
X145056672Y-84364685D01*
X144991024Y-84370216D01*
X144941267Y-84385141D01*
X144899245Y-84410444D01*
X144867140Y-84444736D01*
X144843908Y-84487116D01*
X144827817Y-84540418D01*
X144819289Y-84598978D01*
X144816215Y-84669134D01*
X144636623Y-84669134D01*
X144635903Y-84658265D01*
X144639041Y-84582908D01*
X144647849Y-84518381D01*
X144661548Y-84463299D01*
X144682065Y-84410647D01*
X144707707Y-84365982D01*
X144738363Y-84328293D01*
X144774845Y-84296294D01*
X144817279Y-84270077D01*
X144866468Y-84249586D01*
X144946980Y-84230792D01*
X145045742Y-84224002D01*
X145310135Y-84224002D01*
X145310135Y-85115000D01*
G37*
G36*
X144573377Y-84790828D02*
G01*
X144573377Y-84935237D01*
X144158042Y-84935237D01*
X144158042Y-85115000D01*
X143995437Y-85115000D01*
X143995437Y-84935237D01*
X143860187Y-84935237D01*
X143860187Y-84786737D01*
X143995437Y-84786737D01*
X144155966Y-84786737D01*
X144410100Y-84786737D01*
X144155966Y-84385263D01*
X144155966Y-84786737D01*
X143995437Y-84786737D01*
X143995437Y-84224002D01*
X144224964Y-84224002D01*
X144573377Y-84790828D01*
G37*
G36*
X146060135Y-98065000D02*
G01*
X145833356Y-98065000D01*
X145754926Y-98061058D01*
X145687811Y-98049972D01*
X145630451Y-98032637D01*
X145576307Y-98007410D01*
X145530298Y-97976743D01*
X145491477Y-97940619D01*
X145458829Y-97898672D01*
X145432188Y-97850871D01*
X145411548Y-97796454D01*
X145392573Y-97709005D01*
X145386623Y-97619134D01*
X145566215Y-97619134D01*
X145571111Y-97699954D01*
X145584403Y-97763398D01*
X145604476Y-97812754D01*
X145630451Y-97850737D01*
X145664885Y-97881960D01*
X145706578Y-97904750D01*
X145757037Y-97919164D01*
X145818335Y-97924316D01*
X145892096Y-97924316D01*
X145892096Y-97314685D01*
X145806672Y-97314685D01*
X145741024Y-97320216D01*
X145691267Y-97335141D01*
X145649245Y-97360444D01*
X145617140Y-97394736D01*
X145593908Y-97437116D01*
X145577817Y-97490418D01*
X145569289Y-97548978D01*
X145566215Y-97619134D01*
X145386623Y-97619134D01*
X145385903Y-97608265D01*
X145389041Y-97532908D01*
X145397849Y-97468381D01*
X145411548Y-97413299D01*
X145432065Y-97360647D01*
X145457707Y-97315982D01*
X145488363Y-97278293D01*
X145524845Y-97246294D01*
X145567279Y-97220077D01*
X145616468Y-97199586D01*
X145696980Y-97180792D01*
X145795742Y-97174002D01*
X146060135Y-97174002D01*
X146060135Y-98065000D01*
G37*
G36*
X144901573Y-97178645D02*
G01*
X144976369Y-97191404D01*
X145044724Y-97212916D01*
X145100688Y-97240497D01*
X145149258Y-97275976D01*
X145188493Y-97317861D01*
X145219944Y-97365933D01*
X145244486Y-97419771D01*
X145262122Y-97477714D01*
X145274223Y-97542503D01*
X145280810Y-97609891D01*
X145283076Y-97682515D01*
X145276849Y-97785485D01*
X145259846Y-97867343D01*
X145234011Y-97931950D01*
X145200400Y-97982506D01*
X145155807Y-98024443D01*
X145102411Y-98054795D01*
X145038419Y-98073854D01*
X144961287Y-98080631D01*
X144891531Y-98075211D01*
X144829456Y-98059565D01*
X144772956Y-98033612D01*
X144725959Y-97999298D01*
X144687403Y-97956358D01*
X144657998Y-97905326D01*
X144639718Y-97848213D01*
X144633996Y-97789310D01*
X144806925Y-97789310D01*
X144809570Y-97821735D01*
X144817183Y-97850310D01*
X144829696Y-97876239D01*
X144846248Y-97898060D01*
X144866845Y-97915767D01*
X144891677Y-97929078D01*
X144919360Y-97937141D01*
X144951089Y-97939947D01*
X144987790Y-97936530D01*
X145018378Y-97926880D01*
X145044682Y-97909986D01*
X145066860Y-97884321D01*
X145083304Y-97851964D01*
X145095925Y-97808178D01*
X145102843Y-97758898D01*
X145105451Y-97693750D01*
X145073028Y-97676653D01*
X145034743Y-97661755D01*
X144993099Y-97650947D01*
X144949685Y-97646856D01*
X144913700Y-97649676D01*
X144885144Y-97657419D01*
X144860209Y-97670255D01*
X144840753Y-97686728D01*
X144825769Y-97707152D01*
X144815168Y-97731730D01*
X144809053Y-97758791D01*
X144806925Y-97789310D01*
X144633996Y-97789310D01*
X144633391Y-97783082D01*
X144638130Y-97721213D01*
X144651526Y-97668715D01*
X144674392Y-97621818D01*
X144706175Y-97582925D01*
X144746508Y-97552119D01*
X144797339Y-97528825D01*
X144854593Y-97515042D01*
X144924406Y-97510080D01*
X144973555Y-97512871D01*
X145019722Y-97521071D01*
X145063558Y-97533864D01*
X145100688Y-97549159D01*
X145099345Y-97532733D01*
X145091597Y-97483687D01*
X145078828Y-97441570D01*
X145059113Y-97404062D01*
X145031690Y-97372998D01*
X144996723Y-97348692D01*
X144950418Y-97329767D01*
X144897391Y-97318811D01*
X144826770Y-97314685D01*
X144707885Y-97314685D01*
X144707885Y-97174002D01*
X144809673Y-97174002D01*
X144901573Y-97178645D01*
G37*
D12*
X147390198Y-80627500D02*
X146915682Y-80627500D01*
X147390198Y-81672500D02*
X146915682Y-81672500D01*
X147390198Y-89977500D02*
X146915682Y-89977500D01*
X147390198Y-91022500D02*
X146915682Y-91022500D01*
D13*
G36*
X191296693Y-88822260D02*
G01*
X191305287Y-88834034D01*
X191511370Y-89201962D01*
X191669295Y-89653037D01*
X191763152Y-90142237D01*
X191787497Y-90341491D01*
X191810086Y-90499459D01*
X191823446Y-90560000D01*
X191868767Y-90545967D01*
X192022527Y-90495707D01*
X192265145Y-90415456D01*
X192575935Y-90312061D01*
X192934210Y-90192369D01*
X193231152Y-90093624D01*
X193558717Y-89986370D01*
X193824651Y-89901189D01*
X194007288Y-89845004D01*
X194084959Y-89824737D01*
X194102429Y-89866149D01*
X194120409Y-90016679D01*
X194132571Y-90251489D01*
X194136940Y-90543290D01*
X194136511Y-91261842D01*
X191809031Y-92057484D01*
X191764029Y-92361505D01*
X191717520Y-92586455D01*
X191603357Y-92926756D01*
X191454440Y-93226538D01*
X191291177Y-93439286D01*
X191129474Y-93591198D01*
X191129474Y-88595607D01*
X191296693Y-88822260D01*
G37*
G36*
X194112471Y-78035192D02*
G01*
X194123155Y-78185753D01*
X194126936Y-78420522D01*
X194122919Y-78712237D01*
X194103947Y-79430790D01*
X193559948Y-79619609D01*
X193015948Y-79808428D01*
X192988889Y-80722504D01*
X192976886Y-81022375D01*
X192950808Y-81388766D01*
X192916170Y-81654729D01*
X192874722Y-81803684D01*
X192861152Y-81829309D01*
X192747904Y-82024227D01*
X192614675Y-82231011D01*
X192483548Y-82417971D01*
X192376603Y-82553418D01*
X192315921Y-82605661D01*
X192300147Y-82542619D01*
X192286381Y-82366652D01*
X192275503Y-82098560D01*
X192268358Y-81759146D01*
X192265789Y-81369211D01*
X192265497Y-81092111D01*
X192261981Y-80706525D01*
X192251287Y-80432220D01*
X192229508Y-80254967D01*
X192192733Y-80160535D01*
X192137053Y-80134693D01*
X192058559Y-80163211D01*
X191953342Y-80231859D01*
X191924881Y-80253404D01*
X191879410Y-80305229D01*
X191846857Y-80386078D01*
X191824291Y-80516880D01*
X191808783Y-80718565D01*
X191797400Y-81012064D01*
X191787213Y-81418306D01*
X191780019Y-81720063D01*
X191769088Y-82047975D01*
X191753703Y-82286148D01*
X191729982Y-82460258D01*
X191694041Y-82595983D01*
X191641999Y-82718997D01*
X191569973Y-82854978D01*
X191480921Y-83006653D01*
X191353464Y-83196859D01*
X191253335Y-83316522D01*
X191246457Y-83322651D01*
X191215570Y-83344201D01*
X191190657Y-83341145D01*
X191171078Y-83301364D01*
X191156191Y-83212737D01*
X191145354Y-83063146D01*
X191137926Y-82840469D01*
X191133266Y-82532588D01*
X191130731Y-82127382D01*
X191129681Y-81612731D01*
X191129474Y-80976517D01*
X191129474Y-78524419D01*
X191321848Y-78666647D01*
X191514222Y-78808876D01*
X192785517Y-78401280D01*
X192856107Y-78378669D01*
X193239740Y-78256543D01*
X193575788Y-78150806D01*
X193844343Y-78067633D01*
X194025500Y-78013201D01*
X194099351Y-77993684D01*
X194112471Y-78035192D01*
G37*
G36*
X193810045Y-67505240D02*
G01*
X194148400Y-67788527D01*
X194125710Y-69231500D01*
X194124924Y-69281007D01*
X194116159Y-69755056D01*
X194105776Y-70117717D01*
X194091867Y-70389419D01*
X194072523Y-70590595D01*
X194045835Y-70741673D01*
X194009895Y-70863086D01*
X193962793Y-70975263D01*
X193865717Y-71162909D01*
X193713810Y-71359608D01*
X193512153Y-71497303D01*
X193219064Y-71611660D01*
X193073130Y-71654317D01*
X192839440Y-71690029D01*
X192657009Y-71657324D01*
X192519179Y-71545402D01*
X192419295Y-71343467D01*
X192350699Y-71040721D01*
X192306735Y-70626367D01*
X192280746Y-70089606D01*
X192270185Y-69784472D01*
X192253585Y-69470332D01*
X192228949Y-69262310D01*
X192190133Y-69144481D01*
X192130995Y-69100917D01*
X192045393Y-69115691D01*
X191927184Y-69172878D01*
X191898789Y-69190404D01*
X191858988Y-69235038D01*
X191831253Y-69313803D01*
X191813429Y-69446608D01*
X191803363Y-69653363D01*
X191798903Y-69953978D01*
X191797895Y-70368360D01*
X191796740Y-70618502D01*
X191783863Y-71102762D01*
X191752953Y-71485098D01*
X191699349Y-71787253D01*
X191618387Y-72030968D01*
X191505403Y-72237987D01*
X191355735Y-72430052D01*
X191135038Y-72679737D01*
X191132256Y-70736737D01*
X191133319Y-70112186D01*
X191140112Y-69573157D01*
X191154712Y-69138817D01*
X191179145Y-68794344D01*
X191215436Y-68524921D01*
X191265609Y-68315726D01*
X191331689Y-68151940D01*
X191415701Y-68018743D01*
X191519671Y-67901315D01*
X191560225Y-67863708D01*
X191780571Y-67713902D01*
X192041660Y-67595453D01*
X192295882Y-67526677D01*
X192495622Y-67525889D01*
X192529833Y-67535630D01*
X192656339Y-67602447D01*
X192752863Y-67721778D01*
X192824050Y-67909822D01*
X192874543Y-68182778D01*
X192908986Y-68556848D01*
X192932023Y-69048231D01*
X192940187Y-69261697D01*
X192957081Y-69598201D01*
X192975974Y-69872769D01*
X192995102Y-70061500D01*
X193012698Y-70140491D01*
X193014066Y-70141738D01*
X193102235Y-70145125D01*
X193246645Y-70094832D01*
X193435526Y-70004355D01*
X193453608Y-68613154D01*
X193471690Y-67221955D01*
X193810045Y-67505240D01*
G37*
G36*
X193568104Y-83237119D02*
G01*
X193691076Y-83339132D01*
X193850759Y-83488654D01*
X194137368Y-83769940D01*
X194137368Y-85011979D01*
X194137144Y-85137873D01*
X194127001Y-85742151D01*
X194098003Y-86230698D01*
X194044966Y-86618149D01*
X193962703Y-86919140D01*
X193846029Y-87148307D01*
X193689760Y-87320284D01*
X193488708Y-87449707D01*
X193237690Y-87551210D01*
X193070610Y-87601249D01*
X192835820Y-87639240D01*
X192653434Y-87609667D01*
X192516398Y-87501575D01*
X192417655Y-87304005D01*
X192350151Y-87006003D01*
X192306832Y-86596609D01*
X192280641Y-86064869D01*
X192274285Y-85878282D01*
X192261261Y-85550484D01*
X192246844Y-85327254D01*
X192227420Y-85188540D01*
X192199376Y-85114286D01*
X192159097Y-85084440D01*
X192102970Y-85078948D01*
X192014540Y-85084768D01*
X191930197Y-85117966D01*
X191870955Y-85196458D01*
X191832459Y-85337914D01*
X191810353Y-85560004D01*
X191800283Y-85880397D01*
X191797895Y-86316763D01*
X191797428Y-86471814D01*
X191786030Y-86980321D01*
X191755961Y-87382255D01*
X191702677Y-87698561D01*
X191621632Y-87950180D01*
X191508280Y-88158056D01*
X191358075Y-88343133D01*
X191127307Y-88588158D01*
X191145100Y-86516053D01*
X191147526Y-86237736D01*
X191152754Y-85711339D01*
X191158765Y-85295242D01*
X191166754Y-84973341D01*
X191177918Y-84729531D01*
X191193455Y-84547708D01*
X191214560Y-84411766D01*
X191242430Y-84305603D01*
X191278261Y-84213112D01*
X191323250Y-84118190D01*
X191326235Y-84112140D01*
X191451407Y-83899597D01*
X191599633Y-83759562D01*
X191824565Y-83640960D01*
X192011097Y-83560568D01*
X192254170Y-83472277D01*
X192423149Y-83444474D01*
X192545124Y-83474484D01*
X192647186Y-83559626D01*
X192660717Y-83574895D01*
X192771265Y-83735495D01*
X192849354Y-83936952D01*
X192899519Y-84202282D01*
X192926293Y-84554497D01*
X192934210Y-85016613D01*
X192934216Y-85041852D01*
X192937062Y-85437509D01*
X192947543Y-85719270D01*
X192969224Y-85905847D01*
X193005669Y-86015950D01*
X193060444Y-86068290D01*
X193137114Y-86081579D01*
X193203400Y-86078671D01*
X193294295Y-86053888D01*
X193361858Y-85990460D01*
X193409496Y-85872553D01*
X193440617Y-85684332D01*
X193458627Y-85409962D01*
X193466935Y-85033608D01*
X193468947Y-84539436D01*
X193469030Y-84460761D01*
X193472113Y-84062993D01*
X193479122Y-83718725D01*
X193489342Y-83448002D01*
X193502057Y-83270868D01*
X193516549Y-83207369D01*
X193568104Y-83237119D01*
G37*
G36*
X193709529Y-72443650D02*
G01*
X193776890Y-72477751D01*
X193802772Y-72496355D01*
X193910042Y-72622257D01*
X194003534Y-72830929D01*
X194095254Y-73147632D01*
X194100594Y-73192305D01*
X194107901Y-73363251D01*
X194112642Y-73635313D01*
X194114641Y-73987882D01*
X194113724Y-74400349D01*
X194109715Y-74852106D01*
X194099824Y-75427129D01*
X194083035Y-75903037D01*
X194056494Y-76277886D01*
X194017125Y-76568196D01*
X193961851Y-76790485D01*
X193887597Y-76961275D01*
X193791287Y-77097083D01*
X193669845Y-77214431D01*
X193636418Y-77238317D01*
X193464439Y-77327791D01*
X193199366Y-77440570D01*
X192867242Y-77566040D01*
X192494115Y-77693586D01*
X192391884Y-77726735D01*
X192040763Y-77838539D01*
X191788937Y-77912698D01*
X191614415Y-77953470D01*
X191495204Y-77965113D01*
X191409312Y-77951883D01*
X191334747Y-77918040D01*
X191264796Y-77874191D01*
X191215291Y-77817936D01*
X191183507Y-77726065D01*
X191164398Y-77574067D01*
X191152916Y-77337429D01*
X191144017Y-76991642D01*
X191125140Y-76161573D01*
X191282009Y-76308944D01*
X191282728Y-76309619D01*
X191423480Y-76413248D01*
X191541991Y-76456316D01*
X191543152Y-76456311D01*
X191674622Y-76434770D01*
X191895478Y-76378264D01*
X192174546Y-76296889D01*
X192480651Y-76200737D01*
X192782620Y-76099903D01*
X193049279Y-76004480D01*
X193249455Y-75924563D01*
X193351974Y-75870246D01*
X193368058Y-75854797D01*
X193411624Y-75787458D01*
X193440779Y-75678940D01*
X193458239Y-75506129D01*
X193466723Y-75245909D01*
X193468947Y-74875167D01*
X193468220Y-74593847D01*
X193463546Y-74318560D01*
X193452070Y-74140637D01*
X193430993Y-74039289D01*
X193397518Y-73993726D01*
X193348843Y-73983158D01*
X193345942Y-73983225D01*
X193232594Y-74005955D01*
X193023410Y-74063694D01*
X192747230Y-74148024D01*
X192432895Y-74250527D01*
X192396043Y-74262893D01*
X192025629Y-74384140D01*
X191756670Y-74462589D01*
X191566983Y-74501183D01*
X191434383Y-74502865D01*
X191336687Y-74470580D01*
X191251710Y-74407272D01*
X191248262Y-74404111D01*
X191196572Y-74338668D01*
X191162195Y-74239822D01*
X191141785Y-74082515D01*
X191131993Y-73841693D01*
X191129474Y-73492300D01*
X191129474Y-72687950D01*
X191265762Y-72834238D01*
X191394438Y-72933840D01*
X191535331Y-72980527D01*
X191573785Y-72975898D01*
X191734908Y-72939896D01*
X191985035Y-72874039D01*
X192298275Y-72785298D01*
X192648741Y-72680645D01*
X192687222Y-72668880D01*
X193055444Y-72558055D01*
X193320078Y-72484023D01*
X193502831Y-72442881D01*
X193625412Y-72430725D01*
X193709529Y-72443650D01*
G37*
D12*
X148817940Y-90500000D02*
X148817940Y-88550000D01*
X148817940Y-90500000D02*
X148817940Y-92450000D01*
X157687940Y-90500000D02*
X157687940Y-88550000D01*
X157687940Y-90500000D02*
X157687940Y-92450000D01*
X157952940Y-93440000D02*
X157622940Y-93200000D01*
X157952940Y-92960000D01*
X157952940Y-93440000D01*
G36*
X157952940Y-93440000D02*
G01*
X157622940Y-93200000D01*
X157952940Y-92960000D01*
X157952940Y-93440000D01*
G37*
X148817940Y-82400000D02*
X148817940Y-80450000D01*
X148817940Y-82400000D02*
X148817940Y-84350000D01*
X157687940Y-82400000D02*
X157687940Y-80450000D01*
X157687940Y-82400000D02*
X157687940Y-84350000D01*
X157952940Y-85340000D02*
X157622940Y-85100000D01*
X157952940Y-84860000D01*
X157952940Y-85340000D01*
G36*
X157952940Y-85340000D02*
G01*
X157622940Y-85100000D01*
X157952940Y-84860000D01*
X157952940Y-85340000D01*
G37*
X146915682Y-91477500D02*
X147390198Y-91477500D01*
X146915682Y-92522500D02*
X147390198Y-92522500D01*
X147293520Y-86990000D02*
X147012360Y-86990000D01*
X147293520Y-88010000D02*
X147012360Y-88010000D01*
X158092940Y-80559420D02*
X158092940Y-80840580D01*
X159112940Y-80559420D02*
X159112940Y-80840580D01*
X148512742Y-94627500D02*
X148987258Y-94627500D01*
X148512742Y-95672500D02*
X148987258Y-95672500D01*
X157987258Y-94627500D02*
X157512742Y-94627500D01*
X157987258Y-95672500D02*
X157512742Y-95672500D01*
X160260000Y-96000000D02*
X154750000Y-96000000D01*
X160260000Y-96000000D02*
X160260000Y-99300000D01*
X160260000Y-99300000D02*
X154750000Y-99300000D01*
X154512742Y-94627500D02*
X154987258Y-94627500D01*
X154512742Y-95672500D02*
X154987258Y-95672500D01*
X158092940Y-88659420D02*
X158092940Y-88940580D01*
X159112940Y-88659420D02*
X159112940Y-88940580D01*
X151987258Y-94627500D02*
X151512742Y-94627500D01*
X151987258Y-95672500D02*
X151512742Y-95672500D01*
X146915682Y-88477500D02*
X147390198Y-88477500D01*
X146915682Y-89522500D02*
X147390198Y-89522500D01*
X145992940Y-85430000D02*
X145992940Y-84020000D01*
X146652940Y-84020000D02*
X145992940Y-84020000D01*
X148312940Y-84020000D02*
X147652940Y-84020000D01*
X148312940Y-85430000D02*
X148312940Y-84020000D01*
X148622940Y-86040000D02*
X148292940Y-85800000D01*
X148622940Y-85560000D01*
X148622940Y-86040000D01*
G36*
X148622940Y-86040000D02*
G01*
X148292940Y-85800000D01*
X148622940Y-85560000D01*
X148622940Y-86040000D01*
G37*
X153260000Y-96000000D02*
X147750000Y-96000000D01*
X153260000Y-96000000D02*
X153260000Y-99300000D01*
X153260000Y-99300000D02*
X147750000Y-99300000D01*
%LPC*%
D14*
X147260000Y-64165000D03*
X157960000Y-64165000D03*
D15*
X145100000Y-68485000D03*
D16*
X148100000Y-68485000D03*
X151100000Y-68485000D03*
X154100000Y-68485000D03*
X157100000Y-68485000D03*
X160100000Y-68485000D03*
X145100000Y-71485000D03*
X148100000Y-71485000D03*
X151100000Y-71485000D03*
X154100000Y-71485000D03*
X157100000Y-71485000D03*
X160100000Y-71485000D03*
D17*
X140500000Y-100500000D03*
D18*
X165550000Y-94955113D03*
D19*
X165550000Y-92955113D03*
D17*
X192500000Y-61500000D03*
D20*
X169460000Y-101230000D03*
X172000000Y-98690000D03*
X174540000Y-101230000D03*
D17*
X140500000Y-74500000D03*
D21*
X186400000Y-93775000D03*
D22*
X186400000Y-83615000D03*
X186400000Y-75995000D03*
X178780000Y-78535000D03*
X178780000Y-93775000D03*
D14*
X171260000Y-64165000D03*
X181960000Y-64165000D03*
D15*
X169100000Y-68485000D03*
D16*
X172100000Y-68485000D03*
X175100000Y-68485000D03*
X178100000Y-68485000D03*
X181100000Y-68485000D03*
X184100000Y-68485000D03*
X169100000Y-71485000D03*
X172100000Y-71485000D03*
X175100000Y-71485000D03*
X178100000Y-71485000D03*
X181100000Y-71485000D03*
X184100000Y-71485000D03*
D20*
X169460000Y-95230000D03*
X172000000Y-92690000D03*
X174540000Y-95230000D03*
X169460000Y-89230000D03*
X172000000Y-86690000D03*
X174540000Y-89230000D03*
X169460000Y-83230000D03*
X172000000Y-80690000D03*
X174540000Y-83230000D03*
D18*
X165550000Y-100955112D03*
D19*
X165550000Y-98955112D03*
D17*
X192500000Y-100500000D03*
D18*
X178450000Y-100955113D03*
D19*
X178450000Y-98955113D03*
D23*
X147555112Y-75700000D03*
D19*
X145555112Y-75700000D03*
D24*
X147977940Y-81150000D03*
X146327940Y-81150000D03*
X147977940Y-90500000D03*
X146327940Y-90500000D03*
D25*
X157062940Y-92975000D03*
X155792940Y-92975000D03*
X154522940Y-92975000D03*
X153252940Y-92975000D03*
X151982940Y-92975000D03*
X150712940Y-92975000D03*
X149442940Y-92975000D03*
X149442940Y-88025000D03*
X150712940Y-88025000D03*
X151982940Y-88025000D03*
X153252940Y-88025000D03*
X154522940Y-88025000D03*
X155792940Y-88025000D03*
X157062940Y-88025000D03*
X157062940Y-84875000D03*
X155792940Y-84875000D03*
X154522940Y-84875000D03*
X153252940Y-84875000D03*
X151982940Y-84875000D03*
X150712940Y-84875000D03*
X149442940Y-84875000D03*
X149442940Y-79925000D03*
X150712940Y-79925000D03*
X151982940Y-79925000D03*
X153252940Y-79925000D03*
X154522940Y-79925000D03*
X155792940Y-79925000D03*
X157062940Y-79925000D03*
D26*
X146327940Y-92000000D03*
X147977940Y-92000000D03*
D27*
X147927940Y-87500000D03*
X146377940Y-87500000D03*
D28*
X158602940Y-79925000D03*
X158602940Y-81475000D03*
D26*
X147925000Y-95150000D03*
X149575000Y-95150000D03*
D24*
X158575000Y-95150000D03*
X156925000Y-95150000D03*
D29*
X158750000Y-97650000D03*
X154750000Y-97650000D03*
D26*
X153925000Y-95150000D03*
X155575000Y-95150000D03*
D28*
X158602940Y-88025000D03*
X158602940Y-89575000D03*
D24*
X152575000Y-95150000D03*
X150925000Y-95150000D03*
D26*
X146327940Y-89000000D03*
X147977940Y-89000000D03*
D30*
X147802940Y-85750000D03*
X146502940Y-85750000D03*
X147152940Y-83750000D03*
D29*
X151750000Y-97650000D03*
X147750000Y-97650000D03*
%LPD*%
M02*
