%TF.GenerationSoftware,KiCad,Pcbnew,9.0.4*%
%TF.CreationDate,2026-01-27T00:07:53+00:00*%
%TF.ProjectId,BSPD,42535044-2e6b-4696-9361-645f70636258,1.3.0*%
%TF.SameCoordinates,Original*%
%TF.FileFunction,Soldermask,Top*%
%TF.FilePolarity,Negative*%
%FSLAX46Y46*%
G04 Gerber Fmt 4.6, Leading zero omitted, Abs format (unit mm)*
G04 Created by KiCad (PCBNEW 9.0.4) date 2026-01-27 00:07:53*
%MOMM*%
%LPD*%
G01*
G04 APERTURE LIST*
G04 Aperture macros list*
%AMRoundRect*
0 Rectangle with rounded corners*
0 $1 Rounding radius*
0 $2 $3 $4 $5 $6 $7 $8 $9 X,Y pos of 4 corners*
0 Add a 4 corners polygon primitive as box body*
4,1,4,$2,$3,$4,$5,$6,$7,$8,$9,$2,$3,0*
0 Add four circle primitives for the rounded corners*
1,1,$1+$1,$2,$3*
1,1,$1+$1,$4,$5*
1,1,$1+$1,$6,$7*
1,1,$1+$1,$8,$9*
0 Add four rect primitives between the rounded corners*
20,1,$1+$1,$2,$3,$4,$5,0*
20,1,$1+$1,$4,$5,$6,$7,0*
20,1,$1+$1,$6,$7,$8,$9,0*
20,1,$1+$1,$8,$9,$2,$3,0*%
%AMFreePoly0*
4,1,23,0.550000,-0.750000,0.000000,-0.750000,0.000000,-0.745722,-0.065263,-0.745722,-0.191342,-0.711940,-0.304381,-0.646677,-0.396677,-0.554381,-0.461940,-0.441342,-0.495722,-0.315263,-0.495722,-0.250000,-0.500000,-0.250000,-0.500000,0.250000,-0.495722,0.250000,-0.495722,0.315263,-0.461940,0.441342,-0.396677,0.554381,-0.304381,0.646677,-0.191342,0.711940,-0.065263,0.745722,0.000000,0.745722,
0.000000,0.750000,0.550000,0.750000,0.550000,-0.750000,0.550000,-0.750000,$1*%
%AMFreePoly1*
4,1,23,0.000000,0.745722,0.065263,0.745722,0.191342,0.711940,0.304381,0.646677,0.396677,0.554381,0.461940,0.441342,0.495722,0.315263,0.495722,0.250000,0.500000,0.250000,0.500000,-0.250000,0.495722,-0.250000,0.495722,-0.315263,0.461940,-0.441342,0.396677,-0.554381,0.304381,-0.646677,0.191342,-0.711940,0.065263,-0.745722,0.000000,-0.745722,0.000000,-0.750000,-0.550000,-0.750000,
-0.550000,0.750000,0.000000,0.750000,0.000000,0.745722,0.000000,0.745722,$1*%
G04 Aperture macros list end*
%ADD10C,3.000000*%
%ADD11RoundRect,0.250001X-0.499999X-0.499999X0.499999X-0.499999X0.499999X0.499999X-0.499999X0.499999X0*%
%ADD12C,1.500000*%
%ADD13RoundRect,0.200000X-0.275000X0.200000X-0.275000X-0.200000X0.275000X-0.200000X0.275000X0.200000X0*%
%ADD14RoundRect,0.200000X0.275000X-0.200000X0.275000X0.200000X-0.275000X0.200000X-0.275000X-0.200000X0*%
%ADD15C,5.600000*%
%ADD16RoundRect,0.225000X0.375000X-0.225000X0.375000X0.225000X-0.375000X0.225000X-0.375000X-0.225000X0*%
%ADD17RoundRect,0.250000X0.550000X-0.550000X0.550000X0.550000X-0.550000X0.550000X-0.550000X-0.550000X0*%
%ADD18C,1.600000*%
%ADD19RoundRect,0.200000X-0.200000X-0.275000X0.200000X-0.275000X0.200000X0.275000X-0.200000X0.275000X0*%
%ADD20RoundRect,0.112500X0.112500X0.237500X-0.112500X0.237500X-0.112500X-0.237500X0.112500X-0.237500X0*%
%ADD21C,1.440000*%
%ADD22R,0.200000X0.350000*%
%ADD23R,0.350000X0.200000*%
%ADD24RoundRect,0.200000X0.200000X0.275000X-0.200000X0.275000X-0.200000X-0.275000X0.200000X-0.275000X0*%
%ADD25RoundRect,0.225000X0.225000X0.250000X-0.225000X0.250000X-0.225000X-0.250000X0.225000X-0.250000X0*%
%ADD26R,2.300000X2.300000*%
%ADD27C,2.300000*%
%ADD28RoundRect,0.225000X-0.225000X-0.250000X0.225000X-0.250000X0.225000X0.250000X-0.225000X0.250000X0*%
%ADD29RoundRect,0.218750X0.218750X0.256250X-0.218750X0.256250X-0.218750X-0.256250X0.218750X-0.256250X0*%
%ADD30RoundRect,0.150000X0.825000X0.150000X-0.825000X0.150000X-0.825000X-0.150000X0.825000X-0.150000X0*%
%ADD31RoundRect,0.218750X-0.256250X0.218750X-0.256250X-0.218750X0.256250X-0.218750X0.256250X0.218750X0*%
%ADD32RoundRect,0.150000X0.150000X-0.587500X0.150000X0.587500X-0.150000X0.587500X-0.150000X-0.587500X0*%
%ADD33RoundRect,0.225000X0.250000X-0.225000X0.250000X0.225000X-0.250000X0.225000X-0.250000X-0.225000X0*%
%ADD34RoundRect,0.150000X0.587500X0.150000X-0.587500X0.150000X-0.587500X-0.150000X0.587500X-0.150000X0*%
%ADD35RoundRect,0.250000X0.550000X0.550000X-0.550000X0.550000X-0.550000X-0.550000X0.550000X-0.550000X0*%
%ADD36FreePoly0,90.000000*%
%ADD37R,1.500000X1.000000*%
%ADD38FreePoly1,90.000000*%
G04 APERTURE END LIST*
G36*
X162050000Y-73150000D02*
G01*
X163550000Y-73150000D01*
X163550000Y-71650000D01*
X162050000Y-71650000D01*
X162050000Y-73150000D01*
G37*
D10*
X147260000Y-64165000D03*
X157960000Y-64165000D03*
D11*
X145100000Y-68485000D03*
D12*
X148100000Y-68485000D03*
X151100000Y-68485000D03*
X154100000Y-68485000D03*
X157100000Y-68485000D03*
X160100000Y-68485000D03*
X145100000Y-71485000D03*
X148100000Y-71485000D03*
X151100000Y-71485000D03*
X154100000Y-71485000D03*
X157100000Y-71485000D03*
X160100000Y-71485000D03*
D13*
X160150000Y-93325000D03*
X160150000Y-94975000D03*
D14*
X161800000Y-84325000D03*
X161800000Y-82675000D03*
D15*
X140500000Y-100500000D03*
D13*
X158650000Y-96325000D03*
X158650000Y-97975000D03*
D16*
X166800000Y-83650000D03*
X166800000Y-80350000D03*
D17*
X165550000Y-94955113D03*
D18*
X165550000Y-92955113D03*
D19*
X181775000Y-73500000D03*
X183425000Y-73500000D03*
D15*
X192500000Y-61500000D03*
D13*
X185500000Y-100475000D03*
X185500000Y-102125000D03*
D14*
X161800000Y-90325000D03*
X161800000Y-88675000D03*
D20*
X183250000Y-96300000D03*
X181950000Y-96300000D03*
X182600000Y-98300000D03*
D21*
X169460000Y-101230000D03*
X172000000Y-98690000D03*
X174540000Y-101230000D03*
D13*
X163300000Y-82675000D03*
X163300000Y-84325000D03*
X163300000Y-88675000D03*
X163300000Y-90325000D03*
D15*
X140500000Y-74500000D03*
D19*
X150275000Y-76800000D03*
X151925000Y-76800000D03*
D22*
X165300000Y-73400000D03*
X165700000Y-73400000D03*
X166100000Y-73400000D03*
X166500000Y-73400000D03*
X166900000Y-73400000D03*
D23*
X167050000Y-72600000D03*
X167050000Y-72200000D03*
D22*
X166900000Y-71400000D03*
X166500000Y-71400000D03*
X166100000Y-71400000D03*
X165700000Y-71400000D03*
X165300000Y-71400000D03*
D23*
X165150000Y-72200000D03*
X165150000Y-72600000D03*
D24*
X163925000Y-76800000D03*
X162275000Y-76800000D03*
D25*
X166875000Y-76800000D03*
X165325000Y-76800000D03*
D26*
X186400000Y-93775000D03*
D27*
X186400000Y-83615000D03*
X186400000Y-75995000D03*
X178780000Y-78535000D03*
X178780000Y-93775000D03*
D28*
X165325000Y-75300000D03*
X166875000Y-75300000D03*
D29*
X154887500Y-76800000D03*
X153312500Y-76800000D03*
D30*
X156675000Y-88760000D03*
X156675000Y-87490000D03*
X156675000Y-86220000D03*
X156675000Y-84950000D03*
X156675000Y-83680000D03*
X156675000Y-82410000D03*
X156675000Y-81140000D03*
X151725000Y-81140000D03*
X151725000Y-82410000D03*
X151725000Y-83680000D03*
X151725000Y-84950000D03*
X151725000Y-86220000D03*
X151725000Y-87490000D03*
X151725000Y-88760000D03*
D16*
X166800000Y-89650000D03*
X166800000Y-86350000D03*
D14*
X149200000Y-94975000D03*
X149200000Y-93325000D03*
D13*
X161800000Y-85675000D03*
X161800000Y-87325000D03*
D14*
X149200000Y-91975000D03*
X149200000Y-90325000D03*
D24*
X160925000Y-76800000D03*
X159275000Y-76800000D03*
D13*
X163300000Y-85675000D03*
X163300000Y-87325000D03*
D10*
X171260000Y-64165000D03*
X181960000Y-64165000D03*
D11*
X169100000Y-68485000D03*
D12*
X172100000Y-68485000D03*
X175100000Y-68485000D03*
X178100000Y-68485000D03*
X181100000Y-68485000D03*
X184100000Y-68485000D03*
X169100000Y-71485000D03*
X172100000Y-71485000D03*
X175100000Y-71485000D03*
X178100000Y-71485000D03*
X181100000Y-71485000D03*
X184100000Y-71485000D03*
D13*
X158650000Y-87125000D03*
X158650000Y-88775000D03*
X161800000Y-79675000D03*
X161800000Y-81325000D03*
D31*
X143900000Y-87493519D03*
X143900000Y-89068519D03*
D32*
X185450000Y-98737500D03*
X187350000Y-98737500D03*
X186400000Y-96862500D03*
D21*
X169460000Y-95230000D03*
X172000000Y-92690000D03*
X174540000Y-95230000D03*
D14*
X149200000Y-97975000D03*
X149200000Y-96325000D03*
D33*
X158650000Y-85725000D03*
X158650000Y-84175000D03*
D13*
X158650000Y-90325000D03*
X158650000Y-91975000D03*
D31*
X143900000Y-93512500D03*
X143900000Y-95087500D03*
D21*
X169460000Y-89230000D03*
X172000000Y-86690000D03*
X174540000Y-89230000D03*
D25*
X157875000Y-76800000D03*
X156325000Y-76800000D03*
D33*
X158650000Y-94925000D03*
X158650000Y-93375000D03*
D21*
X169460000Y-83230000D03*
X172000000Y-80690000D03*
X174540000Y-83230000D03*
D19*
X168275000Y-75300000D03*
X169925000Y-75300000D03*
D17*
X165550000Y-100955112D03*
D18*
X165550000Y-98955112D03*
D14*
X187000000Y-102125000D03*
X187000000Y-100475000D03*
D15*
X192500000Y-100500000D03*
D34*
X183687500Y-102250000D03*
X183687500Y-100350000D03*
X181812500Y-101300000D03*
D17*
X178450000Y-100955113D03*
D18*
X178450000Y-98955113D03*
D24*
X169925000Y-76800000D03*
X168275000Y-76800000D03*
D35*
X147555112Y-75700000D03*
D18*
X145555112Y-75700000D03*
D14*
X160150000Y-91975000D03*
X160150000Y-90325000D03*
D30*
X156675000Y-97960000D03*
X156675000Y-96690000D03*
X156675000Y-95420000D03*
X156675000Y-94150000D03*
X156675000Y-92880000D03*
X156675000Y-91610000D03*
X156675000Y-90340000D03*
X151725000Y-90340000D03*
X151725000Y-91610000D03*
X151725000Y-92880000D03*
X151725000Y-94150000D03*
X151725000Y-95420000D03*
X151725000Y-96690000D03*
X151725000Y-97960000D03*
D36*
X162800000Y-73700000D03*
D37*
X162800000Y-72400000D03*
D38*
X162800000Y-71100000D03*
D13*
X163300000Y-79675000D03*
X163300000Y-81325000D03*
M02*
